<?xml version="1.0" encoding="utf-8" standalone="no"?>
<!DOCTYPE svg PUBLIC "-//W3C//DTD SVG 1.1//EN"
  "http://www.w3.org/Graphics/SVG/1.1/DTD/svg11.dtd">
<!-- Created with matplotlib (https://matplotlib.org/) -->
<svg height="288pt" version="1.1" viewBox="0 0 432 288" width="432pt" xmlns="http://www.w3.org/2000/svg" xmlns:xlink="http://www.w3.org/1999/xlink">
 <defs>
  <style type="text/css">
*{stroke-linecap:butt;stroke-linejoin:round;}
  </style>
 </defs>
 <g id="figure_1">
  <g id="patch_1">
   <path d="M 0 288 
L 432 288 
L 432 0 
L 0 0 
z
" style="fill:#ffffff;"/>
  </g>
  <g id="axes_1">
   <g id="patch_2">
    <path d="M 54 252 
L 388.8 252 
L 388.8 34.56 
L 54 34.56 
z
" style="fill:#ffffff;"/>
   </g>
   <g id="PolyCollection_1">
    <defs>
     <path d="M 137.987676 -82.190415 
L 137.412324 -82.190415 
L 137.297506 -82.817315 
L 137.153894 -83.444216 
L 136.981412 -84.071116 
L 136.782915 -84.698017 
L 136.564656 -85.324918 
L 136.336251 -85.951818 
L 136.110032 -86.578719 
L 135.899721 -87.205619 
L 135.718543 -87.83252 
L 135.577025 -88.459421 
L 135.480838 -89.086321 
L 135.429096 -89.713222 
L 135.413443 -90.340122 
L 135.41819 -90.967023 
L 135.421494 -91.593924 
L 135.397439 -92.220824 
L 135.318653 -92.847725 
L 135.159009 -93.474625 
L 134.895933 -94.101526 
L 134.511917 -94.728427 
L 133.99496 -95.355327 
L 133.337902 -95.982228 
L 132.53676 -96.609129 
L 131.588434 -97.236029 
L 130.488236 -97.86293 
L 129.227768 -98.48983 
L 127.79364 -99.116731 
L 126.167385 -99.743632 
L 124.326741 -100.370532 
L 122.248238 -100.997433 
L 119.910824 -101.624333 
L 117.300042 -102.251234 
L 114.412176 -102.878135 
L 111.257718 -103.505035 
L 107.863555 -104.131936 
L 104.273434 -104.758836 
L 100.54654 -105.385737 
L 96.754296 -106.012638 
L 92.975872 -106.639538 
L 89.293087 -107.266439 
L 85.785506 -107.893339 
L 82.526411 -108.52024 
L 79.580056 -109.147141 
L 77.000254 -109.774041 
L 74.830022 -110.400942 
L 73.101806 -111.027842 
L 71.8378 -111.654743 
L 71.050018 -112.281644 
L 70.74 -112.908544 
L 70.898249 -113.535445 
L 71.503654 -114.162346 
L 72.523207 -114.789246 
L 73.912335 -115.416147 
L 75.616134 -116.043047 
L 77.571752 -116.669948 
L 79.712047 -117.296849 
L 81.970438 -117.923749 
L 84.286534 -118.55065 
L 86.611762 -119.17755 
L 88.913916 -119.804451 
L 91.179489 -120.431352 
L 93.412939 -121.058252 
L 95.632662 -121.685153 
L 97.864256 -122.312053 
L 100.132415 -122.938954 
L 102.453212 -123.565855 
L 104.828498 -124.192755 
L 107.243584 -124.819656 
L 109.668541 -125.446556 
L 112.062541 -126.073457 
L 114.379989 -126.700358 
L 116.576989 -127.327258 
L 118.616789 -127.954159 
L 120.473412 -128.581059 
L 122.133214 -129.20796 
L 123.594643 -129.834861 
L 124.866725 -130.461761 
L 125.966872 -131.088662 
L 126.918459 -131.715563 
L 127.748444 -132.342463 
L 128.485117 -132.969364 
L 129.156029 -133.596264 
L 129.786112 -134.223165 
L 130.396059 -134.850066 
L 131.001101 -135.476966 
L 131.610289 -136.103867 
L 132.226389 -136.730767 
L 132.846403 -137.357668 
L 133.46265 -137.984569 
L 134.064276 -138.611469 
L 134.638966 -139.23837 
L 135.174662 -139.86527 
L 135.661046 -140.492171 
L 136.090635 -141.119072 
L 136.459391 -141.745972 
L 136.766811 -142.372873 
L 137.015583 -142.999773 
L 137.210912 -143.626674 
L 137.359669 -144.253575 
L 138.040331 -144.253575 
L 138.040331 -144.253575 
L 138.189088 -143.626674 
L 138.384417 -142.999773 
L 138.633189 -142.372873 
L 138.940609 -141.745972 
L 139.309365 -141.119072 
L 139.738954 -140.492171 
L 140.225338 -139.86527 
L 140.761034 -139.23837 
L 141.335724 -138.611469 
L 141.93735 -137.984569 
L 142.553597 -137.357668 
L 143.173611 -136.730767 
L 143.789711 -136.103867 
L 144.398899 -135.476966 
L 145.003941 -134.850066 
L 145.613888 -134.223165 
L 146.243971 -133.596264 
L 146.914883 -132.969364 
L 147.651556 -132.342463 
L 148.481541 -131.715563 
L 149.433128 -131.088662 
L 150.533275 -130.461761 
L 151.805357 -129.834861 
L 153.266786 -129.20796 
L 154.926588 -128.581059 
L 156.783211 -127.954159 
L 158.823011 -127.327258 
L 161.020011 -126.700358 
L 163.337459 -126.073457 
L 165.731459 -125.446556 
L 168.156416 -124.819656 
L 170.571502 -124.192755 
L 172.946788 -123.565855 
L 175.267585 -122.938954 
L 177.535744 -122.312053 
L 179.767338 -121.685153 
L 181.987061 -121.058252 
L 184.220511 -120.431352 
L 186.486084 -119.804451 
L 188.788238 -119.17755 
L 191.113466 -118.55065 
L 193.429562 -117.923749 
L 195.687953 -117.296849 
L 197.828248 -116.669948 
L 199.783866 -116.043047 
L 201.487665 -115.416147 
L 202.876793 -114.789246 
L 203.896346 -114.162346 
L 204.501751 -113.535445 
L 204.66 -112.908544 
L 204.349982 -112.281644 
L 203.5622 -111.654743 
L 202.298194 -111.027842 
L 200.569978 -110.400942 
L 198.399746 -109.774041 
L 195.819944 -109.147141 
L 192.873589 -108.52024 
L 189.614494 -107.893339 
L 186.106913 -107.266439 
L 182.424128 -106.639538 
L 178.645704 -106.012638 
L 174.85346 -105.385737 
L 171.126566 -104.758836 
L 167.536445 -104.131936 
L 164.142282 -103.505035 
L 160.987824 -102.878135 
L 158.099958 -102.251234 
L 155.489176 -101.624333 
L 153.151762 -100.997433 
L 151.073259 -100.370532 
L 149.232615 -99.743632 
L 147.60636 -99.116731 
L 146.172232 -98.48983 
L 144.911764 -97.86293 
L 143.811566 -97.236029 
L 142.86324 -96.609129 
L 142.062098 -95.982228 
L 141.40504 -95.355327 
L 140.888083 -94.728427 
L 140.504067 -94.101526 
L 140.240991 -93.474625 
L 140.081347 -92.847725 
L 140.002561 -92.220824 
L 139.978506 -91.593924 
L 139.98181 -90.967023 
L 139.986557 -90.340122 
L 139.970904 -89.713222 
L 139.919162 -89.086321 
L 139.822975 -88.459421 
L 139.681457 -87.83252 
L 139.500279 -87.205619 
L 139.289968 -86.578719 
L 139.063749 -85.951818 
L 138.835344 -85.324918 
L 138.617085 -84.698017 
L 138.418588 -84.071116 
L 138.246106 -83.444216 
L 138.102494 -82.817315 
L 137.987676 -82.190415 
z
" id="m8d2ae0cd61" style="stroke:#262626;stroke-width:2.5;"/>
    </defs>
    <g clip-path="url(#p8b77cfc4ea)">
     <use style="fill:#107010;stroke:#262626;stroke-width:2.5;" x="0" xlink:href="#m8d2ae0cd61" y="288"/>
    </g>
   </g>
   <g id="PolyCollection_2">
    <defs>
     <path d="M 305.111146 -45.883636 
L 305.088854 -45.883636 
L 305.080142 -47.880331 
L 305.067235 -49.877025 
L 305.049385 -51.873719 
L 305.025503 -53.870413 
L 304.99299 -55.867107 
L 304.946041 -57.863802 
L 304.874264 -59.860496 
L 304.762815 -61.85719 
L 304.594868 -63.853884 
L 304.356018 -65.850579 
L 304.038763 -67.847273 
L 303.644678 -69.843967 
L 303.182935 -71.840661 
L 302.666048 -73.837355 
L 302.10547 -75.83405 
L 301.509481 -77.830744 
L 300.883695 -79.827438 
L 300.232403 -81.824132 
L 299.558832 -83.820826 
L 298.864345 -85.817521 
L 298.148534 -87.814215 
L 297.411933 -89.810909 
L 296.660621 -91.807603 
L 295.909625 -93.804298 
L 295.182069 -95.800992 
L 294.503505 -97.797686 
L 293.89386 -99.79438 
L 293.36057 -101.791074 
L 292.895244 -103.787769 
L 292.474108 -105.784463 
L 292.061373 -107.781157 
L 291.615155 -109.777851 
L 291.096168 -111.774545 
L 290.478738 -113.77124 
L 289.76153 -115.767934 
L 288.973472 -117.764628 
L 288.170719 -119.761322 
L 287.423423 -121.758017 
L 286.795501 -123.754711 
L 286.324368 -125.751405 
L 286.009051 -127.748099 
L 285.812933 -129.744793 
L 285.681597 -131.741488 
L 285.56882 -133.738182 
L 285.458682 -135.734876 
L 285.372765 -137.73157 
L 285.358939 -139.728264 
L 285.468102 -141.724959 
L 285.731433 -143.721653 
L 286.14956 -145.718347 
L 286.697699 -147.715041 
L 287.341851 -149.711736 
L 288.055951 -151.70843 
L 288.830948 -153.705124 
L 289.672869 -155.701818 
L 290.593266 -157.698512 
L 291.598307 -159.695207 
L 292.681272 -161.691901 
L 293.820153 -163.688595 
L 294.97996 -165.685289 
L 296.118726 -167.681983 
L 297.195837 -169.678678 
L 298.180419 -171.675372 
L 299.056963 -173.672066 
L 299.825952 -175.66876 
L 300.499208 -177.665455 
L 301.092038 -179.662149 
L 301.615822 -181.658843 
L 302.074566 -183.655537 
L 302.466967 -185.652231 
L 302.792495 -187.648926 
L 303.057636 -189.64562 
L 303.278162 -191.642314 
L 303.475661 -193.639008 
L 303.669976 -195.635702 
L 303.871742 -197.632397 
L 304.079113 -199.629091 
L 304.280331 -201.625785 
L 304.460464 -203.622479 
L 304.608585 -205.619174 
L 304.721858 -207.615868 
L 304.805117 -209.612562 
L 304.867082 -211.609256 
L 304.915835 -213.60595 
L 304.955955 -215.602645 
L 304.988237 -217.599339 
L 305.011398 -219.596033 
L 305.02436 -221.592727 
L 305.027882 -223.589421 
L 305.024938 -225.586116 
L 305.019924 -227.58281 
L 305.01721 -229.579504 
L 305.01971 -231.576198 
L 305.028095 -233.572893 
L 305.04094 -235.569587 
L 305.05564 -237.566281 
L 305.069568 -239.562975 
L 305.080942 -241.559669 
L 305.089106 -243.556364 
L 305.110894 -243.556364 
L 305.110894 -243.556364 
L 305.119058 -241.559669 
L 305.130432 -239.562975 
L 305.14436 -237.566281 
L 305.15906 -235.569587 
L 305.171905 -233.572893 
L 305.18029 -231.576198 
L 305.18279 -229.579504 
L 305.180076 -227.58281 
L 305.175062 -225.586116 
L 305.172118 -223.589421 
L 305.17564 -221.592727 
L 305.188602 -219.596033 
L 305.211763 -217.599339 
L 305.244045 -215.602645 
L 305.284165 -213.60595 
L 305.332918 -211.609256 
L 305.394883 -209.612562 
L 305.478142 -207.615868 
L 305.591415 -205.619174 
L 305.739536 -203.622479 
L 305.919669 -201.625785 
L 306.120887 -199.629091 
L 306.328258 -197.632397 
L 306.530024 -195.635702 
L 306.724339 -193.639008 
L 306.921838 -191.642314 
L 307.142364 -189.64562 
L 307.407505 -187.648926 
L 307.733033 -185.652231 
L 308.125434 -183.655537 
L 308.584178 -181.658843 
L 309.107962 -179.662149 
L 309.700792 -177.665455 
L 310.374048 -175.66876 
L 311.143037 -173.672066 
L 312.019581 -171.675372 
L 313.004163 -169.678678 
L 314.081274 -167.681983 
L 315.22004 -165.685289 
L 316.379847 -163.688595 
L 317.518728 -161.691901 
L 318.601693 -159.695207 
L 319.606734 -157.698512 
L 320.527131 -155.701818 
L 321.369052 -153.705124 
L 322.144049 -151.70843 
L 322.858149 -149.711736 
L 323.502301 -147.715041 
L 324.05044 -145.718347 
L 324.468567 -143.721653 
L 324.731898 -141.724959 
L 324.841061 -139.728264 
L 324.827235 -137.73157 
L 324.741318 -135.734876 
L 324.63118 -133.738182 
L 324.518403 -131.741488 
L 324.387067 -129.744793 
L 324.190949 -127.748099 
L 323.875632 -125.751405 
L 323.404499 -123.754711 
L 322.776577 -121.758017 
L 322.029281 -119.761322 
L 321.226528 -117.764628 
L 320.43847 -115.767934 
L 319.721262 -113.77124 
L 319.103832 -111.774545 
L 318.584845 -109.777851 
L 318.138627 -107.781157 
L 317.725892 -105.784463 
L 317.304756 -103.787769 
L 316.83943 -101.791074 
L 316.30614 -99.79438 
L 315.696495 -97.797686 
L 315.017931 -95.800992 
L 314.290375 -93.804298 
L 313.539379 -91.807603 
L 312.788067 -89.810909 
L 312.051466 -87.814215 
L 311.335655 -85.817521 
L 310.641168 -83.820826 
L 309.967597 -81.824132 
L 309.316305 -79.827438 
L 308.690519 -77.830744 
L 308.09453 -75.83405 
L 307.533952 -73.837355 
L 307.017065 -71.840661 
L 306.555322 -69.843967 
L 306.161237 -67.847273 
L 305.843982 -65.850579 
L 305.605132 -63.853884 
L 305.437185 -61.85719 
L 305.325736 -59.860496 
L 305.253959 -57.863802 
L 305.20701 -55.867107 
L 305.174497 -53.870413 
L 305.150615 -51.873719 
L 305.132765 -49.877025 
L 305.119858 -47.880331 
L 305.111146 -45.883636 
z
" id="mdf97229765" style="stroke:#262626;stroke-width:2.5;"/>
    </defs>
    <g clip-path="url(#p8b77cfc4ea)">
     <use style="fill:#107010;stroke:#262626;stroke-width:2.5;" x="0" xlink:href="#mdf97229765" y="288"/>
    </g>
   </g>
   <g id="matplotlib.axis_1">
    <g id="xtick_1">
     <g id="line2d_1">
      <defs>
       <path d="M 0 0 
L 0 3.5 
" id="mf8e4d937db" style="stroke:#000000;stroke-width:0.8;"/>
      </defs>
      <g>
       <use style="stroke:#000000;stroke-width:0.8;" x="137.7" xlink:href="#mf8e4d937db" y="252"/>
      </g>
     </g>
     <g id="text_1">
      <text style="font-family:DejaVu Sans;font-size:10px;font-style:normal;font-weight:normal;text-anchor:middle;" transform="rotate(-0, 137.7, 266.598437)" x="137.7" y="266.598437">Ensemble</text>
     </g>
    </g>
    <g id="xtick_2">
     <g id="line2d_2">
      <g>
       <use style="stroke:#000000;stroke-width:0.8;" x="305.1" xlink:href="#mf8e4d937db" y="252"/>
      </g>
     </g>
     <g id="text_2">
      <text style="font-family:DejaVu Sans;font-size:10px;font-style:normal;font-weight:normal;text-anchor:middle;" transform="rotate(-0, 305.1, 266.598437)" x="305.1" y="266.598437">Single Cells</text>
     </g>
    </g>
   </g>
   <g id="matplotlib.axis_2">
    <g id="ytick_1">
     <g id="line2d_3">
      <defs>
       <path d="M 0 0 
L -3.5 0 
" id="m0060e14a2c" style="stroke:#000000;stroke-width:0.8;"/>
      </defs>
      <g>
       <use style="stroke:#000000;stroke-width:0.8;" x="54" xlink:href="#m0060e14a2c" y="250.92587"/>
      </g>
     </g>
     <g id="text_3">
      <text style="font-family:DejaVu Sans;font-size:10px;font-style:normal;font-weight:normal;text-anchor:end;" transform="rotate(-0, 47, 254.725089)" x="47" y="254.725089">0.0</text>
     </g>
    </g>
    <g id="ytick_2">
     <g id="line2d_4">
      <g>
       <use style="stroke:#000000;stroke-width:0.8;" x="54" xlink:href="#m0060e14a2c" y="222.087177"/>
      </g>
     </g>
     <g id="text_4">
      <text style="font-family:DejaVu Sans;font-size:10px;font-style:normal;font-weight:normal;text-anchor:end;" transform="rotate(-0, 47, 225.886396)" x="47" y="225.886396">0.1</text>
     </g>
    </g>
    <g id="ytick_3">
     <g id="line2d_5">
      <g>
       <use style="stroke:#000000;stroke-width:0.8;" x="54" xlink:href="#m0060e14a2c" y="193.248484"/>
      </g>
     </g>
     <g id="text_5">
      <text style="font-family:DejaVu Sans;font-size:10px;font-style:normal;font-weight:normal;text-anchor:end;" transform="rotate(-0, 47, 197.047702)" x="47" y="197.047702">0.2</text>
     </g>
    </g>
    <g id="ytick_4">
     <g id="line2d_6">
      <g>
       <use style="stroke:#000000;stroke-width:0.8;" x="54" xlink:href="#m0060e14a2c" y="164.40979"/>
      </g>
     </g>
     <g id="text_6">
      <text style="font-family:DejaVu Sans;font-size:10px;font-style:normal;font-weight:normal;text-anchor:end;" transform="rotate(-0, 47, 168.209009)" x="47" y="168.209009">0.3</text>
     </g>
    </g>
    <g id="ytick_5">
     <g id="line2d_7">
      <g>
       <use style="stroke:#000000;stroke-width:0.8;" x="54" xlink:href="#m0060e14a2c" y="135.571097"/>
      </g>
     </g>
     <g id="text_7">
      <text style="font-family:DejaVu Sans;font-size:10px;font-style:normal;font-weight:normal;text-anchor:end;" transform="rotate(-0, 47, 139.370316)" x="47" y="139.370316">0.4</text>
     </g>
    </g>
    <g id="ytick_6">
     <g id="line2d_8">
      <g>
       <use style="stroke:#000000;stroke-width:0.8;" x="54" xlink:href="#m0060e14a2c" y="106.732404"/>
      </g>
     </g>
     <g id="text_8">
      <text style="font-family:DejaVu Sans;font-size:10px;font-style:normal;font-weight:normal;text-anchor:end;" transform="rotate(-0, 47, 110.531622)" x="47" y="110.531622">0.5</text>
     </g>
    </g>
    <g id="ytick_7">
     <g id="line2d_9">
      <g>
       <use style="stroke:#000000;stroke-width:0.8;" x="54" xlink:href="#m0060e14a2c" y="77.89371"/>
      </g>
     </g>
     <g id="text_9">
      <text style="font-family:DejaVu Sans;font-size:10px;font-style:normal;font-weight:normal;text-anchor:end;" transform="rotate(-0, 47, 81.692929)" x="47" y="81.692929">0.6</text>
     </g>
    </g>
    <g id="ytick_8">
     <g id="line2d_10">
      <g>
       <use style="stroke:#000000;stroke-width:0.8;" x="54" xlink:href="#m0060e14a2c" y="49.055017"/>
      </g>
     </g>
     <g id="text_10">
      <text style="font-family:DejaVu Sans;font-size:10px;font-style:normal;font-weight:normal;text-anchor:end;" transform="rotate(-0, 47, 52.854236)" x="47" y="52.854236">0.7</text>
     </g>
    </g>
    <g id="text_11">
     <text style="font-family:DejaVu Sans;font-size:10px;font-style:normal;font-weight:normal;text-anchor:middle;" transform="rotate(-90, 25.017187, 143.28)" x="25.017187" y="143.28">Boundary strength</text>
    </g>
   </g>
   <g id="line2d_11">
    <path clip-path="url(#p8b77cfc4ea)" d="M 137.7 189.662137 
L 137.7 153.787125 
" style="fill:none;stroke:#262626;stroke-linecap:square;stroke-width:2.5;"/>
   </g>
   <g id="line2d_12">
    <path clip-path="url(#p8b77cfc4ea)" d="M 137.7 178.852226 
L 137.7 168.253506 
" style="fill:none;stroke:#262626;stroke-linecap:square;stroke-width:7.5;"/>
   </g>
   <g id="line2d_13">
    <path clip-path="url(#p8b77cfc4ea)" d="M 305.1 228.91437 
L 305.1 88.033147 
" style="fill:none;stroke:#262626;stroke-linecap:square;stroke-width:2.5;"/>
   </g>
   <g id="line2d_14">
    <path clip-path="url(#p8b77cfc4ea)" d="M 305.1 175.092147 
L 305.1 137.157375 
" style="fill:none;stroke:#262626;stroke-linecap:square;stroke-width:7.5;"/>
   </g>
   <g id="patch_3">
    <path d="M 54 252 
L 54 34.56 
" style="fill:none;stroke:#000000;stroke-linecap:square;stroke-linejoin:miter;stroke-width:0.8;"/>
   </g>
   <g id="patch_4">
    <path d="M 54 252 
L 388.8 252 
" style="fill:none;stroke:#000000;stroke-linecap:square;stroke-linejoin:miter;stroke-width:0.8;"/>
   </g>
   <g id="PathCollection_1">
    <defs>
     <path d="M 0 2.5 
C 0.663008 2.5 1.29895 2.236584 1.767767 1.767767 
C 2.236584 1.29895 2.5 0.663008 2.5 0 
C 2.5 -0.663008 2.236584 -1.29895 1.767767 -1.767767 
C 1.29895 -2.236584 0.663008 -2.5 0 -2.5 
C -0.663008 -2.5 -1.29895 -2.236584 -1.767767 -1.767767 
C -2.236584 -1.29895 -2.5 -0.663008 -2.5 0 
C -2.5 0.663008 -2.236584 1.29895 -1.767767 1.767767 
C -1.29895 2.236584 -0.663008 2.5 0 2.5 
z
" id="m560161e8fe" style="stroke:#262626;"/>
    </defs>
    <g clip-path="url(#p8b77cfc4ea)">
     <use style="fill:#ffffff;stroke:#262626;" x="137.7" xlink:href="#m560161e8fe" y="174.126086"/>
    </g>
   </g>
   <g id="PathCollection_2">
    <g clip-path="url(#p8b77cfc4ea)">
     <use style="fill:#ffffff;stroke:#262626;" x="305.1" xlink:href="#m560161e8fe" y="155.456789"/>
    </g>
   </g>
   <g id="text_12">
    <text style="font-family:DejaVu Sans;font-size:12px;font-style:normal;font-weight:normal;text-anchor:middle;" transform="rotate(-0, 221.4, 28.56)" x="221.4" y="28.56">p = 8.27e-17 (K-S test); 95% CI for d: (0.56, 0.77)</text>
   </g>
  </g>
 </g>
 <defs>
  <clipPath id="p8b77cfc4ea">
   <rect height="217.44" width="334.8" x="54" y="34.56"/>
  </clipPath>
 </defs>
</svg>
