<?xml version="1.0" encoding="utf-8" standalone="no"?>
<!DOCTYPE svg PUBLIC "-//W3C//DTD SVG 1.1//EN"
  "http://www.w3.org/Graphics/SVG/1.1/DTD/svg11.dtd">
<!-- Created with matplotlib (https://matplotlib.org/) -->
<svg height="262.914375pt" version="1.1" viewBox="0 0 388.273437 262.914375" width="388.273437pt" xmlns="http://www.w3.org/2000/svg" xmlns:xlink="http://www.w3.org/1999/xlink">
 <defs>
  <style type="text/css">
*{stroke-linecap:butt;stroke-linejoin:round;}
  </style>
 </defs>
 <g id="figure_1">
  <g id="patch_1">
   <path d="M 0 262.914375 
L 388.273437 262.914375 
L 388.273437 0 
L 0 0 
z
" style="fill:none;"/>
  </g>
  <g id="axes_1">
   <g id="patch_2">
    <path d="M 53.473438 28.21692 
L 388.273438 28.21692 
L 388.273438 15.118125 
L 53.473438 15.118125 
z
" style="fill:none;"/>
   </g>
   <g id="patch_3">
    <path clip-path="url(#pa2144124d4)" d="M 62.773438 26.907041 
L 109.273438 26.907041 
L 109.273438 20.357643 
L 62.773438 20.357643 
z
" style="fill:#ff0000;stroke:#000000;stroke-linejoin:miter;"/>
   </g>
   <g id="patch_4">
    <path clip-path="url(#pa2144124d4)" d="M 109.273438 26.907041 
L 182.344866 26.907041 
L 182.344866 20.357643 
L 109.273438 20.357643 
z
" style="fill:#00ff00;stroke:#000000;stroke-linejoin:miter;"/>
   </g>
   <g id="patch_5">
    <path clip-path="url(#pa2144124d4)" d="M 182.344866 26.907041 
L 235.487723 26.907041 
L 235.487723 20.357643 
L 182.344866 20.357643 
z
" style="fill:#ff1ab9;stroke:#000000;stroke-linejoin:miter;"/>
   </g>
   <g id="patch_6">
    <path clip-path="url(#pa2144124d4)" d="M 235.487723 26.907041 
L 295.273438 26.907041 
L 295.273438 20.357643 
L 235.487723 20.357643 
z
" style="fill:#ffd300;stroke:#000000;stroke-linejoin:miter;"/>
   </g>
   <g id="patch_7">
    <path clip-path="url(#pa2144124d4)" d="M 295.273438 26.907041 
L 348.416295 26.907041 
L 348.416295 20.357643 
L 295.273438 20.357643 
z
" style="fill:#005800;stroke:#000000;stroke-linejoin:miter;"/>
   </g>
   <g id="patch_8">
    <path clip-path="url(#pa2144124d4)" d="M 348.416295 26.907041 
L 381.63058 26.907041 
L 381.63058 20.357643 
L 348.416295 20.357643 
z
" style="fill:#8484ff;stroke:#000000;stroke-linejoin:miter;"/>
   </g>
   <g id="matplotlib.axis_1"/>
   <g id="matplotlib.axis_2">
    <g id="ytick_1"/>
    <g id="ytick_2"/>
    <g id="text_1">
     <text style="font-family:DejaVu Sans;font-size:10px;font-style:normal;font-weight:normal;text-anchor:middle;" transform="rotate(-0, 49.473438, 19.587835)" x="49.473438" y="19.587835">Embryo 1                </text>
    </g>
   </g>
   <g id="patch_9">
    <path d="M 53.473438 28.21692 
L 53.473438 15.118125 
" style="fill:none;stroke:#000000;stroke-linecap:square;stroke-linejoin:miter;stroke-width:0.8;"/>
   </g>
   <g id="patch_10">
    <path d="M 388.273438 28.21692 
L 388.273438 15.118125 
" style="fill:none;stroke:#000000;stroke-linecap:square;stroke-linejoin:miter;stroke-width:0.8;"/>
   </g>
   <g id="patch_11">
    <path d="M 53.473438 28.21692 
L 388.273438 28.21692 
" style="fill:none;stroke:#000000;stroke-linecap:square;stroke-linejoin:miter;stroke-width:0.8;"/>
   </g>
   <g id="patch_12">
    <path d="M 53.473438 15.118125 
L 388.273438 15.118125 
" style="fill:none;stroke:#000000;stroke-linecap:square;stroke-linejoin:miter;stroke-width:0.8;"/>
   </g>
   <g id="text_2">
    <text style="font-family:DejaVu Sans;font-size:12px;font-style:normal;font-weight:normal;text-anchor:middle;" transform="rotate(-0, 220.873438, 9.118125)" x="220.873438" y="9.118125">Chr 9</text>
   </g>
  </g>
  <g id="axes_2">
   <g id="patch_13">
    <path d="M 53.473438 43.935474 
L 388.273438 43.935474 
L 388.273438 30.836679 
L 53.473438 30.836679 
z
" style="fill:none;"/>
   </g>
   <g id="patch_14">
    <path clip-path="url(#p50439e5104)" d="M 62.773438 42.625595 
L 109.273438 42.625595 
L 109.273438 36.076197 
L 62.773438 36.076197 
z
" style="fill:#ff0000;stroke:#000000;stroke-linejoin:miter;"/>
   </g>
   <g id="patch_15">
    <path clip-path="url(#p50439e5104)" d="M 109.273438 42.625595 
L 162.416295 42.625595 
L 162.416295 36.076197 
L 109.273438 36.076197 
z
" style="fill:#00ff00;stroke:#000000;stroke-linejoin:miter;"/>
   </g>
   <g id="patch_16">
    <path clip-path="url(#p50439e5104)" d="M 162.416295 42.625595 
L 208.916295 42.625595 
L 208.916295 36.076197 
L 162.416295 36.076197 
z
" style="fill:#ff1ab9;stroke:#000000;stroke-linejoin:miter;"/>
   </g>
   <g id="patch_17">
    <path clip-path="url(#p50439e5104)" d="M 208.916295 42.625595 
L 255.416295 42.625595 
L 255.416295 36.076197 
L 208.916295 36.076197 
z
" style="fill:#ffd300;stroke:#000000;stroke-linejoin:miter;"/>
   </g>
   <g id="patch_18">
    <path clip-path="url(#p50439e5104)" d="M 255.416295 42.625595 
L 288.63058 42.625595 
L 288.63058 36.076197 
L 255.416295 36.076197 
z
" style="fill:#005800;stroke:#000000;stroke-linejoin:miter;"/>
   </g>
   <g id="patch_19">
    <path clip-path="url(#p50439e5104)" d="M 288.63058 42.625595 
L 328.487723 42.625595 
L 328.487723 36.076197 
L 288.63058 36.076197 
z
" style="fill:#8484ff;stroke:#000000;stroke-linejoin:miter;"/>
   </g>
   <g id="patch_20">
    <path clip-path="url(#p50439e5104)" d="M 328.487723 42.625595 
L 381.63058 42.625595 
L 381.63058 36.076197 
L 328.487723 36.076197 
z
" style="fill:#9e4f46;stroke:#000000;stroke-linejoin:miter;"/>
   </g>
   <g id="matplotlib.axis_3"/>
   <g id="matplotlib.axis_4">
    <g id="ytick_3"/>
    <g id="ytick_4"/>
    <g id="text_3">
     <text style="font-family:DejaVu Sans;font-size:10px;font-style:normal;font-weight:normal;" transform="translate(49.473438 24.108577)"/>
     <text style="font-family:DejaVu Sans;font-size:10px;font-style:normal;font-weight:normal;" transform="translate(41.525 35.306389)">3   </text>
    </g>
   </g>
   <g id="patch_21">
    <path d="M 53.473438 43.935474 
L 53.473438 30.836679 
" style="fill:none;stroke:#000000;stroke-linecap:square;stroke-linejoin:miter;stroke-width:0.8;"/>
   </g>
   <g id="patch_22">
    <path d="M 388.273438 43.935474 
L 388.273438 30.836679 
" style="fill:none;stroke:#000000;stroke-linecap:square;stroke-linejoin:miter;stroke-width:0.8;"/>
   </g>
   <g id="patch_23">
    <path d="M 53.473438 43.935474 
L 388.273438 43.935474 
" style="fill:none;stroke:#000000;stroke-linecap:square;stroke-linejoin:miter;stroke-width:0.8;"/>
   </g>
   <g id="patch_24">
    <path d="M 53.473438 30.836679 
L 388.273438 30.836679 
" style="fill:none;stroke:#000000;stroke-linecap:square;stroke-linejoin:miter;stroke-width:0.8;"/>
   </g>
  </g>
  <g id="axes_3">
   <g id="patch_25">
    <path d="M 53.473438 59.654029 
L 388.273438 59.654029 
L 388.273438 46.555233 
L 53.473438 46.555233 
z
" style="fill:none;"/>
   </g>
   <g id="patch_26">
    <path clip-path="url(#p0438451ede)" d="M 62.773438 58.344149 
L 89.344866 58.344149 
L 89.344866 51.794752 
L 62.773438 51.794752 
z
" style="fill:#ff0000;stroke:#000000;stroke-linejoin:miter;"/>
   </g>
   <g id="patch_27">
    <path clip-path="url(#p0438451ede)" d="M 89.344866 58.344149 
L 129.202009 58.344149 
L 129.202009 51.794752 
L 89.344866 51.794752 
z
" style="fill:#00ff00;stroke:#000000;stroke-linejoin:miter;"/>
   </g>
   <g id="patch_28">
    <path clip-path="url(#p0438451ede)" d="M 129.202009 58.344149 
L 188.987723 58.344149 
L 188.987723 51.794752 
L 129.202009 51.794752 
z
" style="fill:#ff1ab9;stroke:#000000;stroke-linejoin:miter;"/>
   </g>
   <g id="patch_29">
    <path clip-path="url(#p0438451ede)" d="M 188.987723 58.344149 
L 208.916295 58.344149 
L 208.916295 51.794752 
L 188.987723 51.794752 
z
" style="fill:#ffd300;stroke:#000000;stroke-linejoin:miter;"/>
   </g>
   <g id="patch_30">
    <path clip-path="url(#p0438451ede)" d="M 208.916295 58.344149 
L 281.987723 58.344149 
L 281.987723 51.794752 
L 208.916295 51.794752 
z
" style="fill:#005800;stroke:#000000;stroke-linejoin:miter;"/>
   </g>
   <g id="patch_31">
    <path clip-path="url(#p0438451ede)" d="M 281.987723 58.344149 
L 341.773438 58.344149 
L 341.773438 51.794752 
L 281.987723 51.794752 
z
" style="fill:#8484ff;stroke:#000000;stroke-linejoin:miter;"/>
   </g>
   <g id="patch_32">
    <path clip-path="url(#p0438451ede)" d="M 341.773438 58.344149 
L 381.63058 58.344149 
L 381.63058 51.794752 
L 341.773438 51.794752 
z
" style="fill:#9e4f46;stroke:#000000;stroke-linejoin:miter;"/>
   </g>
   <g id="matplotlib.axis_5"/>
   <g id="matplotlib.axis_6">
    <g id="ytick_5"/>
    <g id="ytick_6"/>
    <g id="text_4">
     <text style="font-family:DejaVu Sans;font-size:10px;font-style:normal;font-weight:normal;" transform="translate(49.473438 39.827131)"/>
     <text style="font-family:DejaVu Sans;font-size:10px;font-style:normal;font-weight:normal;" transform="translate(41.525 51.024944)">7   </text>
    </g>
   </g>
   <g id="patch_33">
    <path d="M 53.473438 59.654029 
L 53.473438 46.555233 
" style="fill:none;stroke:#000000;stroke-linecap:square;stroke-linejoin:miter;stroke-width:0.8;"/>
   </g>
   <g id="patch_34">
    <path d="M 388.273438 59.654029 
L 388.273438 46.555233 
" style="fill:none;stroke:#000000;stroke-linecap:square;stroke-linejoin:miter;stroke-width:0.8;"/>
   </g>
   <g id="patch_35">
    <path d="M 53.473438 59.654029 
L 388.273438 59.654029 
" style="fill:none;stroke:#000000;stroke-linecap:square;stroke-linejoin:miter;stroke-width:0.8;"/>
   </g>
   <g id="patch_36">
    <path d="M 53.473438 46.555233 
L 388.273438 46.555233 
" style="fill:none;stroke:#000000;stroke-linecap:square;stroke-linejoin:miter;stroke-width:0.8;"/>
   </g>
  </g>
  <g id="axes_4">
   <g id="patch_37">
    <path d="M 53.473438 75.372583 
L 388.273438 75.372583 
L 388.273438 62.273788 
L 53.473438 62.273788 
z
" style="fill:none;"/>
   </g>
   <g id="patch_38">
    <path clip-path="url(#pe052ffe7e5)" d="M 62.773438 74.062703 
L 102.63058 74.062703 
L 102.63058 67.513306 
L 62.773438 67.513306 
z
" style="fill:#ff0000;stroke:#000000;stroke-linejoin:miter;"/>
   </g>
   <g id="patch_39">
    <path clip-path="url(#pe052ffe7e5)" d="M 102.63058 74.062703 
L 149.13058 74.062703 
L 149.13058 67.513306 
L 102.63058 67.513306 
z
" style="fill:#00ff00;stroke:#000000;stroke-linejoin:miter;"/>
   </g>
   <g id="patch_40">
    <path clip-path="url(#pe052ffe7e5)" d="M 149.13058 74.062703 
L 195.63058 74.062703 
L 195.63058 67.513306 
L 149.13058 67.513306 
z
" style="fill:#ff1ab9;stroke:#000000;stroke-linejoin:miter;"/>
   </g>
   <g id="patch_41">
    <path clip-path="url(#pe052ffe7e5)" d="M 195.63058 74.062703 
L 248.773438 74.062703 
L 248.773438 67.513306 
L 195.63058 67.513306 
z
" style="fill:#ffd300;stroke:#000000;stroke-linejoin:miter;"/>
   </g>
   <g id="patch_42">
    <path clip-path="url(#pe052ffe7e5)" d="M 248.773438 74.062703 
L 301.916295 74.062703 
L 301.916295 67.513306 
L 248.773438 67.513306 
z
" style="fill:#005800;stroke:#000000;stroke-linejoin:miter;"/>
   </g>
   <g id="patch_43">
    <path clip-path="url(#pe052ffe7e5)" d="M 301.916295 74.062703 
L 341.773437 74.062703 
L 341.773437 67.513306 
L 301.916295 67.513306 
z
" style="fill:#8484ff;stroke:#000000;stroke-linejoin:miter;"/>
   </g>
   <g id="patch_44">
    <path clip-path="url(#pe052ffe7e5)" d="M 341.773438 74.062703 
L 381.63058 74.062703 
L 381.63058 67.513306 
L 341.773438 67.513306 
z
" style="fill:#9e4f46;stroke:#000000;stroke-linejoin:miter;"/>
   </g>
   <g id="matplotlib.axis_7"/>
   <g id="matplotlib.axis_8">
    <g id="ytick_7"/>
    <g id="ytick_8"/>
    <g id="text_5">
     <text style="font-family:DejaVu Sans;font-size:10px;font-style:normal;font-weight:normal;" transform="translate(49.473438 55.545685)"/>
     <text style="font-family:DejaVu Sans;font-size:10px;font-style:normal;font-weight:normal;" transform="translate(41.525 66.743498)">8   </text>
    </g>
   </g>
   <g id="patch_45">
    <path d="M 53.473438 75.372583 
L 53.473438 62.273788 
" style="fill:none;stroke:#000000;stroke-linecap:square;stroke-linejoin:miter;stroke-width:0.8;"/>
   </g>
   <g id="patch_46">
    <path d="M 388.273438 75.372583 
L 388.273438 62.273788 
" style="fill:none;stroke:#000000;stroke-linecap:square;stroke-linejoin:miter;stroke-width:0.8;"/>
   </g>
   <g id="patch_47">
    <path d="M 53.473438 75.372583 
L 388.273438 75.372583 
" style="fill:none;stroke:#000000;stroke-linecap:square;stroke-linejoin:miter;stroke-width:0.8;"/>
   </g>
   <g id="patch_48">
    <path d="M 53.473438 62.273788 
L 388.273438 62.273788 
" style="fill:none;stroke:#000000;stroke-linecap:square;stroke-linejoin:miter;stroke-width:0.8;"/>
   </g>
  </g>
  <g id="axes_5">
   <g id="patch_49">
    <path d="M 53.473438 91.091137 
L 388.273438 91.091137 
L 388.273438 77.992342 
L 53.473438 77.992342 
z
" style="fill:none;"/>
   </g>
   <g id="patch_50">
    <path clip-path="url(#p9e30c10264)" d="M 69.416295 89.781258 
L 129.202009 89.781258 
L 129.202009 83.23186 
L 69.416295 83.23186 
z
" style="fill:#ff0000;stroke:#000000;stroke-linejoin:miter;"/>
   </g>
   <g id="patch_51">
    <path clip-path="url(#p9e30c10264)" d="M 129.202009 89.781258 
L 175.702009 89.781258 
L 175.702009 83.23186 
L 129.202009 83.23186 
z
" style="fill:#00ff00;stroke:#000000;stroke-linejoin:miter;"/>
   </g>
   <g id="patch_52">
    <path clip-path="url(#p9e30c10264)" d="M 175.702009 89.781258 
L 208.916295 89.781258 
L 208.916295 83.23186 
L 175.702009 83.23186 
z
" style="fill:#ff1ab9;stroke:#000000;stroke-linejoin:miter;"/>
   </g>
   <g id="patch_53">
    <path clip-path="url(#p9e30c10264)" d="M 208.916295 89.781258 
L 255.416295 89.781258 
L 255.416295 83.23186 
L 208.916295 83.23186 
z
" style="fill:#ffd300;stroke:#000000;stroke-linejoin:miter;"/>
   </g>
   <g id="patch_54">
    <path clip-path="url(#p9e30c10264)" d="M 255.416295 89.781258 
L 301.916295 89.781258 
L 301.916295 83.23186 
L 255.416295 83.23186 
z
" style="fill:#005800;stroke:#000000;stroke-linejoin:miter;"/>
   </g>
   <g id="patch_55">
    <path clip-path="url(#p9e30c10264)" d="M 301.916295 89.781258 
L 348.416295 89.781258 
L 348.416295 83.23186 
L 301.916295 83.23186 
z
" style="fill:#8484ff;stroke:#000000;stroke-linejoin:miter;"/>
   </g>
   <g id="patch_56">
    <path clip-path="url(#p9e30c10264)" d="M 348.416295 89.781258 
L 381.63058 89.781258 
L 381.63058 83.23186 
L 348.416295 83.23186 
z
" style="fill:#9e4f46;stroke:#000000;stroke-linejoin:miter;"/>
   </g>
   <g id="matplotlib.axis_9"/>
   <g id="matplotlib.axis_10">
    <g id="ytick_9"/>
    <g id="ytick_10"/>
    <g id="text_6">
     <text style="font-family:DejaVu Sans;font-size:10px;font-style:normal;font-weight:normal;" transform="translate(49.473438 71.264239)"/>
     <text style="font-family:DejaVu Sans;font-size:10px;font-style:normal;font-weight:normal;" transform="translate(41.525 82.462052)">9   </text>
    </g>
   </g>
   <g id="patch_57">
    <path d="M 53.473438 91.091137 
L 53.473438 77.992342 
" style="fill:none;stroke:#000000;stroke-linecap:square;stroke-linejoin:miter;stroke-width:0.8;"/>
   </g>
   <g id="patch_58">
    <path d="M 388.273438 91.091137 
L 388.273438 77.992342 
" style="fill:none;stroke:#000000;stroke-linecap:square;stroke-linejoin:miter;stroke-width:0.8;"/>
   </g>
   <g id="patch_59">
    <path d="M 53.473438 91.091137 
L 388.273438 91.091137 
" style="fill:none;stroke:#000000;stroke-linecap:square;stroke-linejoin:miter;stroke-width:0.8;"/>
   </g>
   <g id="patch_60">
    <path d="M 53.473438 77.992342 
L 388.273438 77.992342 
" style="fill:none;stroke:#000000;stroke-linecap:square;stroke-linejoin:miter;stroke-width:0.8;"/>
   </g>
  </g>
  <g id="axes_6">
   <g id="patch_61">
    <path d="M 53.473438 106.809691 
L 388.273438 106.809691 
L 388.273438 93.710896 
L 53.473438 93.710896 
z
" style="fill:none;"/>
   </g>
   <g id="patch_62">
    <path clip-path="url(#p5624a5dabe)" d="M 62.773438 105.499812 
L 109.273438 105.499812 
L 109.273438 98.950414 
L 62.773438 98.950414 
z
" style="fill:#ff0000;stroke:#000000;stroke-linejoin:miter;"/>
   </g>
   <g id="patch_63">
    <path clip-path="url(#p5624a5dabe)" d="M 109.273438 105.499812 
L 135.844866 105.499812 
L 135.844866 98.950414 
L 109.273438 98.950414 
z
" style="fill:#00ff00;stroke:#000000;stroke-linejoin:miter;"/>
   </g>
   <g id="patch_64">
    <path clip-path="url(#p5624a5dabe)" d="M 135.844866 105.499812 
L 175.702009 105.499812 
L 175.702009 98.950414 
L 135.844866 98.950414 
z
" style="fill:#ff1ab9;stroke:#000000;stroke-linejoin:miter;"/>
   </g>
   <g id="patch_65">
    <path clip-path="url(#p5624a5dabe)" d="M 175.702009 105.499812 
L 235.487723 105.499812 
L 235.487723 98.950414 
L 175.702009 98.950414 
z
" style="fill:#ffd300;stroke:#000000;stroke-linejoin:miter;"/>
   </g>
   <g id="patch_66">
    <path clip-path="url(#p5624a5dabe)" d="M 235.487723 105.499812 
L 315.202009 105.499812 
L 315.202009 98.950414 
L 235.487723 98.950414 
z
" style="fill:#005800;stroke:#000000;stroke-linejoin:miter;"/>
   </g>
   <g id="patch_67">
    <path clip-path="url(#p5624a5dabe)" d="M 315.202009 105.499812 
L 381.63058 105.499812 
L 381.63058 98.950414 
L 315.202009 98.950414 
z
" style="fill:#8484ff;stroke:#000000;stroke-linejoin:miter;"/>
   </g>
   <g id="matplotlib.axis_11"/>
   <g id="matplotlib.axis_12">
    <g id="ytick_11"/>
    <g id="ytick_12"/>
    <g id="text_7">
     <text style="font-family:DejaVu Sans;font-size:10px;font-style:normal;font-weight:normal;" transform="translate(49.473438 86.982794)"/>
     <text style="font-family:DejaVu Sans;font-size:10px;font-style:normal;font-weight:normal;" transform="translate(38.34375 98.180606)">10   </text>
    </g>
   </g>
   <g id="patch_68">
    <path d="M 53.473438 106.809691 
L 53.473438 93.710896 
" style="fill:none;stroke:#000000;stroke-linecap:square;stroke-linejoin:miter;stroke-width:0.8;"/>
   </g>
   <g id="patch_69">
    <path d="M 388.273438 106.809691 
L 388.273438 93.710896 
" style="fill:none;stroke:#000000;stroke-linecap:square;stroke-linejoin:miter;stroke-width:0.8;"/>
   </g>
   <g id="patch_70">
    <path d="M 53.473438 106.809691 
L 388.273438 106.809691 
" style="fill:none;stroke:#000000;stroke-linecap:square;stroke-linejoin:miter;stroke-width:0.8;"/>
   </g>
   <g id="patch_71">
    <path d="M 53.473438 93.710896 
L 388.273438 93.710896 
" style="fill:none;stroke:#000000;stroke-linecap:square;stroke-linejoin:miter;stroke-width:0.8;"/>
   </g>
  </g>
  <g id="axes_7">
   <g id="patch_72">
    <path d="M 53.473438 122.528245 
L 388.273438 122.528245 
L 388.273438 109.42945 
L 53.473438 109.42945 
z
" style="fill:none;"/>
   </g>
   <g id="patch_73">
    <path clip-path="url(#p57e60bf966)" d="M 62.773438 121.218366 
L 95.987723 121.218366 
L 95.987723 114.668968 
L 62.773438 114.668968 
z
" style="fill:#ff0000;stroke:#000000;stroke-linejoin:miter;"/>
   </g>
   <g id="patch_74">
    <path clip-path="url(#p57e60bf966)" d="M 95.987723 121.218366 
L 122.559152 121.218366 
L 122.559152 114.668968 
L 95.987723 114.668968 
z
" style="fill:#00ff00;stroke:#000000;stroke-linejoin:miter;"/>
   </g>
   <g id="patch_75">
    <path clip-path="url(#p57e60bf966)" d="M 122.559152 121.218366 
L 155.773438 121.218366 
L 155.773438 114.668968 
L 122.559152 114.668968 
z
" style="fill:#ff1ab9;stroke:#000000;stroke-linejoin:miter;"/>
   </g>
   <g id="patch_76">
    <path clip-path="url(#p57e60bf966)" d="M 155.773438 121.218366 
L 195.63058 121.218366 
L 195.63058 114.668968 
L 155.773438 114.668968 
z
" style="fill:#ffd300;stroke:#000000;stroke-linejoin:miter;"/>
   </g>
   <g id="patch_77">
    <path clip-path="url(#p57e60bf966)" d="M 195.63058 121.218366 
L 222.202009 121.218366 
L 222.202009 114.668968 
L 195.63058 114.668968 
z
" style="fill:#005800;stroke:#000000;stroke-linejoin:miter;"/>
   </g>
   <g id="patch_78">
    <path clip-path="url(#p57e60bf966)" d="M 222.202009 121.218366 
L 262.059152 121.218366 
L 262.059152 114.668968 
L 222.202009 114.668968 
z
" style="fill:#8484ff;stroke:#000000;stroke-linejoin:miter;"/>
   </g>
   <g id="patch_79">
    <path clip-path="url(#p57e60bf966)" d="M 262.059152 121.218366 
L 321.844866 121.218366 
L 321.844866 114.668968 
L 262.059152 114.668968 
z
" style="fill:#9e4f46;stroke:#000000;stroke-linejoin:miter;"/>
   </g>
   <g id="patch_80">
    <path clip-path="url(#p57e60bf966)" d="M 321.844866 121.218366 
L 381.63058 121.218366 
L 381.63058 114.668968 
L 321.844866 114.668968 
z
" style="fill:#00ffc1;stroke:#000000;stroke-linejoin:miter;"/>
   </g>
   <g id="matplotlib.axis_13"/>
   <g id="matplotlib.axis_14">
    <g id="ytick_13"/>
    <g id="ytick_14"/>
    <g id="text_8">
     <text style="font-family:DejaVu Sans;font-size:10px;font-style:normal;font-weight:normal;" transform="translate(49.473438 102.701348)"/>
     <text style="font-family:DejaVu Sans;font-size:10px;font-style:normal;font-weight:normal;" transform="translate(38.34375 113.89916)">11   </text>
    </g>
   </g>
   <g id="patch_81">
    <path d="M 53.473438 122.528245 
L 53.473438 109.42945 
" style="fill:none;stroke:#000000;stroke-linecap:square;stroke-linejoin:miter;stroke-width:0.8;"/>
   </g>
   <g id="patch_82">
    <path d="M 388.273438 122.528245 
L 388.273438 109.42945 
" style="fill:none;stroke:#000000;stroke-linecap:square;stroke-linejoin:miter;stroke-width:0.8;"/>
   </g>
   <g id="patch_83">
    <path d="M 53.473438 122.528245 
L 388.273438 122.528245 
" style="fill:none;stroke:#000000;stroke-linecap:square;stroke-linejoin:miter;stroke-width:0.8;"/>
   </g>
   <g id="patch_84">
    <path d="M 53.473438 109.42945 
L 388.273438 109.42945 
" style="fill:none;stroke:#000000;stroke-linecap:square;stroke-linejoin:miter;stroke-width:0.8;"/>
   </g>
  </g>
  <g id="axes_8">
   <g id="patch_85">
    <path d="M 53.473438 138.2468 
L 388.273438 138.2468 
L 388.273438 125.148005 
L 53.473438 125.148005 
z
" style="fill:none;"/>
   </g>
   <g id="patch_86">
    <path clip-path="url(#p4838a79390)" d="M 62.773438 136.93692 
L 109.273438 136.93692 
L 109.273438 130.387523 
L 62.773438 130.387523 
z
" style="fill:#ff0000;stroke:#000000;stroke-linejoin:miter;"/>
   </g>
   <g id="patch_87">
    <path clip-path="url(#p4838a79390)" d="M 109.273438 136.93692 
L 142.487723 136.93692 
L 142.487723 130.387523 
L 109.273438 130.387523 
z
" style="fill:#00ff00;stroke:#000000;stroke-linejoin:miter;"/>
   </g>
   <g id="patch_88">
    <path clip-path="url(#p4838a79390)" d="M 142.487723 136.93692 
L 188.987723 136.93692 
L 188.987723 130.387523 
L 142.487723 130.387523 
z
" style="fill:#ff1ab9;stroke:#000000;stroke-linejoin:miter;"/>
   </g>
   <g id="patch_89">
    <path clip-path="url(#p4838a79390)" d="M 188.987723 136.93692 
L 235.487723 136.93692 
L 235.487723 130.387523 
L 188.987723 130.387523 
z
" style="fill:#ffd300;stroke:#000000;stroke-linejoin:miter;"/>
   </g>
   <g id="patch_90">
    <path clip-path="url(#p4838a79390)" d="M 235.487723 136.93692 
L 275.344866 136.93692 
L 275.344866 130.387523 
L 235.487723 130.387523 
z
" style="fill:#005800;stroke:#000000;stroke-linejoin:miter;"/>
   </g>
   <g id="patch_91">
    <path clip-path="url(#p4838a79390)" d="M 275.344866 136.93692 
L 335.13058 136.93692 
L 335.13058 130.387523 
L 275.344866 130.387523 
z
" style="fill:#8484ff;stroke:#000000;stroke-linejoin:miter;"/>
   </g>
   <g id="patch_92">
    <path clip-path="url(#p4838a79390)" d="M 335.13058 136.93692 
L 381.63058 136.93692 
L 381.63058 130.387523 
L 335.13058 130.387523 
z
" style="fill:#9e4f46;stroke:#000000;stroke-linejoin:miter;"/>
   </g>
   <g id="matplotlib.axis_15"/>
   <g id="matplotlib.axis_16">
    <g id="ytick_15"/>
    <g id="ytick_16"/>
    <g id="text_9">
     <text style="font-family:DejaVu Sans;font-size:10px;font-style:normal;font-weight:normal;" transform="translate(49.473438 118.419902)"/>
     <text style="font-family:DejaVu Sans;font-size:10px;font-style:normal;font-weight:normal;" transform="translate(38.34375 129.617715)">13   </text>
    </g>
   </g>
   <g id="patch_93">
    <path d="M 53.473438 138.2468 
L 53.473438 125.148005 
" style="fill:none;stroke:#000000;stroke-linecap:square;stroke-linejoin:miter;stroke-width:0.8;"/>
   </g>
   <g id="patch_94">
    <path d="M 388.273438 138.2468 
L 388.273438 125.148005 
" style="fill:none;stroke:#000000;stroke-linecap:square;stroke-linejoin:miter;stroke-width:0.8;"/>
   </g>
   <g id="patch_95">
    <path d="M 53.473438 138.2468 
L 388.273438 138.2468 
" style="fill:none;stroke:#000000;stroke-linecap:square;stroke-linejoin:miter;stroke-width:0.8;"/>
   </g>
   <g id="patch_96">
    <path d="M 53.473438 125.148005 
L 388.273438 125.148005 
" style="fill:none;stroke:#000000;stroke-linecap:square;stroke-linejoin:miter;stroke-width:0.8;"/>
   </g>
  </g>
  <g id="axes_9">
   <g id="patch_97">
    <path d="M 53.473438 153.965354 
L 388.273438 153.965354 
L 388.273438 140.866559 
L 53.473438 140.866559 
z
" style="fill:none;"/>
   </g>
   <g id="patch_98">
    <path clip-path="url(#p9791601d5f)" d="M 62.773438 152.655474 
L 122.559152 152.655474 
L 122.559152 146.106077 
L 62.773438 146.106077 
z
" style="fill:#ff0000;stroke:#000000;stroke-linejoin:miter;"/>
   </g>
   <g id="patch_99">
    <path clip-path="url(#p9791601d5f)" d="M 122.559152 152.655474 
L 188.987723 152.655474 
L 188.987723 146.106077 
L 122.559152 146.106077 
z
" style="fill:#00ff00;stroke:#000000;stroke-linejoin:miter;"/>
   </g>
   <g id="patch_100">
    <path clip-path="url(#p9791601d5f)" d="M 188.987723 152.655474 
L 268.702009 152.655474 
L 268.702009 146.106077 
L 188.987723 146.106077 
z
" style="fill:#ff1ab9;stroke:#000000;stroke-linejoin:miter;"/>
   </g>
   <g id="patch_101">
    <path clip-path="url(#p9791601d5f)" d="M 268.702009 152.655474 
L 348.416295 152.655474 
L 348.416295 146.106077 
L 268.702009 146.106077 
z
" style="fill:#ffd300;stroke:#000000;stroke-linejoin:miter;"/>
   </g>
   <g id="patch_102">
    <path clip-path="url(#p9791601d5f)" d="M 348.416295 152.655474 
L 381.63058 152.655474 
L 381.63058 146.106077 
L 348.416295 146.106077 
z
" style="fill:#005800;stroke:#000000;stroke-linejoin:miter;"/>
   </g>
   <g id="matplotlib.axis_17"/>
   <g id="matplotlib.axis_18">
    <g id="ytick_17"/>
    <g id="ytick_18"/>
    <g id="text_10">
     <text style="font-family:DejaVu Sans;font-size:10px;font-style:normal;font-weight:normal;" transform="translate(49.473438 134.138456)"/>
     <text style="font-family:DejaVu Sans;font-size:10px;font-style:normal;font-weight:normal;" transform="translate(38.34375 145.336269)">14   </text>
    </g>
   </g>
   <g id="patch_103">
    <path d="M 53.473438 153.965354 
L 53.473438 140.866559 
" style="fill:none;stroke:#000000;stroke-linecap:square;stroke-linejoin:miter;stroke-width:0.8;"/>
   </g>
   <g id="patch_104">
    <path d="M 388.273438 153.965354 
L 388.273438 140.866559 
" style="fill:none;stroke:#000000;stroke-linecap:square;stroke-linejoin:miter;stroke-width:0.8;"/>
   </g>
   <g id="patch_105">
    <path d="M 53.473438 153.965354 
L 388.273438 153.965354 
" style="fill:none;stroke:#000000;stroke-linecap:square;stroke-linejoin:miter;stroke-width:0.8;"/>
   </g>
   <g id="patch_106">
    <path d="M 53.473438 140.866559 
L 388.273438 140.866559 
" style="fill:none;stroke:#000000;stroke-linecap:square;stroke-linejoin:miter;stroke-width:0.8;"/>
   </g>
  </g>
  <g id="axes_10">
   <g id="patch_107">
    <path d="M 53.473438 169.683908 
L 388.273438 169.683908 
L 388.273438 156.585113 
L 53.473438 156.585113 
z
" style="fill:none;"/>
   </g>
   <g id="patch_108">
    <path clip-path="url(#p95ee8b9520)" d="M 62.773438 168.374029 
L 115.916295 168.374029 
L 115.916295 161.824631 
L 62.773438 161.824631 
z
" style="fill:#ff0000;stroke:#000000;stroke-linejoin:miter;"/>
   </g>
   <g id="patch_109">
    <path clip-path="url(#p95ee8b9520)" d="M 115.916295 168.374029 
L 175.702009 168.374029 
L 175.702009 161.824631 
L 115.916295 161.824631 
z
" style="fill:#00ff00;stroke:#000000;stroke-linejoin:miter;"/>
   </g>
   <g id="patch_110">
    <path clip-path="url(#p95ee8b9520)" d="M 175.702009 168.374029 
L 242.13058 168.374029 
L 242.13058 161.824631 
L 175.702009 161.824631 
z
" style="fill:#ff1ab9;stroke:#000000;stroke-linejoin:miter;"/>
   </g>
   <g id="patch_111">
    <path clip-path="url(#p95ee8b9520)" d="M 242.13058 168.374029 
L 295.273438 168.374029 
L 295.273438 161.824631 
L 242.13058 161.824631 
z
" style="fill:#ffd300;stroke:#000000;stroke-linejoin:miter;"/>
   </g>
   <g id="patch_112">
    <path clip-path="url(#p95ee8b9520)" d="M 295.273438 168.374029 
L 348.416295 168.374029 
L 348.416295 161.824631 
L 295.273438 161.824631 
z
" style="fill:#005800;stroke:#000000;stroke-linejoin:miter;"/>
   </g>
   <g id="patch_113">
    <path clip-path="url(#p95ee8b9520)" d="M 348.416295 168.374029 
L 381.63058 168.374029 
L 381.63058 161.824631 
L 348.416295 161.824631 
z
" style="fill:#8484ff;stroke:#000000;stroke-linejoin:miter;"/>
   </g>
   <g id="matplotlib.axis_19"/>
   <g id="matplotlib.axis_20">
    <g id="ytick_19"/>
    <g id="ytick_20"/>
    <g id="text_11">
     <text style="font-family:DejaVu Sans;font-size:10px;font-style:normal;font-weight:normal;" transform="translate(49.473438 149.857011)"/>
     <text style="font-family:DejaVu Sans;font-size:10px;font-style:normal;font-weight:normal;" transform="translate(38.34375 161.054823)">17   </text>
    </g>
   </g>
   <g id="patch_114">
    <path d="M 53.473438 169.683908 
L 53.473438 156.585113 
" style="fill:none;stroke:#000000;stroke-linecap:square;stroke-linejoin:miter;stroke-width:0.8;"/>
   </g>
   <g id="patch_115">
    <path d="M 388.273438 169.683908 
L 388.273438 156.585113 
" style="fill:none;stroke:#000000;stroke-linecap:square;stroke-linejoin:miter;stroke-width:0.8;"/>
   </g>
   <g id="patch_116">
    <path d="M 53.473438 169.683908 
L 388.273438 169.683908 
" style="fill:none;stroke:#000000;stroke-linecap:square;stroke-linejoin:miter;stroke-width:0.8;"/>
   </g>
   <g id="patch_117">
    <path d="M 53.473438 156.585113 
L 388.273438 156.585113 
" style="fill:none;stroke:#000000;stroke-linecap:square;stroke-linejoin:miter;stroke-width:0.8;"/>
   </g>
  </g>
  <g id="axes_11">
   <g id="patch_118">
    <path d="M 53.473438 185.402462 
L 388.273438 185.402462 
L 388.273438 172.303667 
L 53.473438 172.303667 
z
" style="fill:none;"/>
   </g>
   <g id="patch_119">
    <path clip-path="url(#p042da3f734)" d="M 62.773438 184.092583 
L 95.987723 184.092583 
L 95.987723 177.543185 
L 62.773438 177.543185 
z
" style="fill:#ff0000;stroke:#000000;stroke-linejoin:miter;"/>
   </g>
   <g id="patch_120">
    <path clip-path="url(#p042da3f734)" d="M 95.987723 184.092583 
L 175.702009 184.092583 
L 175.702009 177.543185 
L 95.987723 177.543185 
z
" style="fill:#00ff00;stroke:#000000;stroke-linejoin:miter;"/>
   </g>
   <g id="patch_121">
    <path clip-path="url(#p042da3f734)" d="M 175.702009 184.092583 
L 262.059152 184.092583 
L 262.059152 177.543185 
L 175.702009 177.543185 
z
" style="fill:#ff1ab9;stroke:#000000;stroke-linejoin:miter;"/>
   </g>
   <g id="patch_122">
    <path clip-path="url(#p042da3f734)" d="M 262.059152 184.092583 
L 315.202009 184.092583 
L 315.202009 177.543185 
L 262.059152 177.543185 
z
" style="fill:#ffd300;stroke:#000000;stroke-linejoin:miter;"/>
   </g>
   <g id="patch_123">
    <path clip-path="url(#p042da3f734)" d="M 315.202009 184.092583 
L 381.63058 184.092583 
L 381.63058 177.543185 
L 315.202009 177.543185 
z
" style="fill:#005800;stroke:#000000;stroke-linejoin:miter;"/>
   </g>
   <g id="matplotlib.axis_21"/>
   <g id="matplotlib.axis_22">
    <g id="ytick_21"/>
    <g id="ytick_22"/>
    <g id="text_12">
     <text style="font-family:DejaVu Sans;font-size:10px;font-style:normal;font-weight:normal;" transform="translate(49.473438 165.575565)"/>
     <text style="font-family:DejaVu Sans;font-size:10px;font-style:normal;font-weight:normal;" transform="translate(38.34375 176.773377)">18   </text>
    </g>
   </g>
   <g id="patch_124">
    <path d="M 53.473438 185.402462 
L 53.473438 172.303667 
" style="fill:none;stroke:#000000;stroke-linecap:square;stroke-linejoin:miter;stroke-width:0.8;"/>
   </g>
   <g id="patch_125">
    <path d="M 388.273438 185.402462 
L 388.273438 172.303667 
" style="fill:none;stroke:#000000;stroke-linecap:square;stroke-linejoin:miter;stroke-width:0.8;"/>
   </g>
   <g id="patch_126">
    <path d="M 53.473438 185.402462 
L 388.273438 185.402462 
" style="fill:none;stroke:#000000;stroke-linecap:square;stroke-linejoin:miter;stroke-width:0.8;"/>
   </g>
   <g id="patch_127">
    <path d="M 53.473438 172.303667 
L 388.273438 172.303667 
" style="fill:none;stroke:#000000;stroke-linecap:square;stroke-linejoin:miter;stroke-width:0.8;"/>
   </g>
  </g>
  <g id="axes_12">
   <g id="patch_128">
    <path d="M 53.473438 201.121017 
L 388.273438 201.121017 
L 388.273438 188.022221 
L 53.473438 188.022221 
z
" style="fill:none;"/>
   </g>
   <g id="patch_129">
    <path clip-path="url(#pc3577e81e3)" d="M 62.773438 199.811137 
L 155.773438 199.811137 
L 155.773438 193.261739 
L 62.773438 193.261739 
z
" style="fill:#ff0000;stroke:#000000;stroke-linejoin:miter;"/>
   </g>
   <g id="patch_130">
    <path clip-path="url(#pc3577e81e3)" d="M 155.773438 199.811137 
L 262.059152 199.811137 
L 262.059152 193.261739 
L 155.773438 193.261739 
z
" style="fill:#00ff00;stroke:#000000;stroke-linejoin:miter;"/>
   </g>
   <g id="patch_131">
    <path clip-path="url(#pc3577e81e3)" d="M 262.059152 199.811137 
L 315.202009 199.811137 
L 315.202009 193.261739 
L 262.059152 193.261739 
z
" style="fill:#ff1ab9;stroke:#000000;stroke-linejoin:miter;"/>
   </g>
   <g id="patch_132">
    <path clip-path="url(#pc3577e81e3)" d="M 315.202009 199.811137 
L 381.63058 199.811137 
L 381.63058 193.261739 
L 315.202009 193.261739 
z
" style="fill:#ffd300;stroke:#000000;stroke-linejoin:miter;"/>
   </g>
   <g id="matplotlib.axis_23"/>
   <g id="matplotlib.axis_24">
    <g id="ytick_23"/>
    <g id="ytick_24"/>
    <g id="text_13">
     <text style="font-family:DejaVu Sans;font-size:10px;font-style:normal;font-weight:normal;" transform="translate(49.473438 181.294119)"/>
     <text style="font-family:DejaVu Sans;font-size:10px;font-style:normal;font-weight:normal;" transform="translate(38.34375 192.491931)">20   </text>
    </g>
   </g>
   <g id="patch_133">
    <path d="M 53.473438 201.121017 
L 53.473438 188.022221 
" style="fill:none;stroke:#000000;stroke-linecap:square;stroke-linejoin:miter;stroke-width:0.8;"/>
   </g>
   <g id="patch_134">
    <path d="M 388.273438 201.121017 
L 388.273438 188.022221 
" style="fill:none;stroke:#000000;stroke-linecap:square;stroke-linejoin:miter;stroke-width:0.8;"/>
   </g>
   <g id="patch_135">
    <path d="M 53.473438 201.121017 
L 388.273438 201.121017 
" style="fill:none;stroke:#000000;stroke-linecap:square;stroke-linejoin:miter;stroke-width:0.8;"/>
   </g>
   <g id="patch_136">
    <path d="M 53.473438 188.022221 
L 388.273438 188.022221 
" style="fill:none;stroke:#000000;stroke-linecap:square;stroke-linejoin:miter;stroke-width:0.8;"/>
   </g>
  </g>
  <g id="axes_13">
   <g id="patch_137">
    <path d="M 53.473438 216.839571 
L 388.273438 216.839571 
L 388.273438 203.740776 
L 53.473438 203.740776 
z
" style="fill:none;"/>
   </g>
   <g id="patch_138">
    <path clip-path="url(#p1f482649e2)" d="M 62.773438 215.529691 
L 95.987723 215.529691 
L 95.987723 208.980294 
L 62.773438 208.980294 
z
" style="fill:#ff0000;stroke:#000000;stroke-linejoin:miter;"/>
   </g>
   <g id="patch_139">
    <path clip-path="url(#p1f482649e2)" d="M 95.987723 215.529691 
L 222.202009 215.529691 
L 222.202009 208.980294 
L 95.987723 208.980294 
z
" style="fill:#00ff00;stroke:#000000;stroke-linejoin:miter;"/>
   </g>
   <g id="patch_140">
    <path clip-path="url(#p1f482649e2)" d="M 222.202009 215.529691 
L 288.63058 215.529691 
L 288.63058 208.980294 
L 222.202009 208.980294 
z
" style="fill:#ff1ab9;stroke:#000000;stroke-linejoin:miter;"/>
   </g>
   <g id="patch_141">
    <path clip-path="url(#p1f482649e2)" d="M 288.63058 215.529691 
L 335.13058 215.529691 
L 335.13058 208.980294 
L 288.63058 208.980294 
z
" style="fill:#ffd300;stroke:#000000;stroke-linejoin:miter;"/>
   </g>
   <g id="patch_142">
    <path clip-path="url(#p1f482649e2)" d="M 335.13058 215.529691 
L 374.987723 215.529691 
L 374.987723 208.980294 
L 335.13058 208.980294 
z
" style="fill:#005800;stroke:#000000;stroke-linejoin:miter;"/>
   </g>
   <g id="matplotlib.axis_25"/>
   <g id="matplotlib.axis_26">
    <g id="ytick_25"/>
    <g id="ytick_26"/>
    <g id="text_14">
     <text style="font-family:DejaVu Sans;font-size:10px;font-style:normal;font-weight:normal;" transform="translate(49.473438 197.012673)"/>
     <text style="font-family:DejaVu Sans;font-size:10px;font-style:normal;font-weight:normal;" transform="translate(38.34375 208.210486)">21   </text>
    </g>
   </g>
   <g id="patch_143">
    <path d="M 53.473438 216.839571 
L 53.473438 203.740776 
" style="fill:none;stroke:#000000;stroke-linecap:square;stroke-linejoin:miter;stroke-width:0.8;"/>
   </g>
   <g id="patch_144">
    <path d="M 388.273438 216.839571 
L 388.273438 203.740776 
" style="fill:none;stroke:#000000;stroke-linecap:square;stroke-linejoin:miter;stroke-width:0.8;"/>
   </g>
   <g id="patch_145">
    <path d="M 53.473438 216.839571 
L 388.273438 216.839571 
" style="fill:none;stroke:#000000;stroke-linecap:square;stroke-linejoin:miter;stroke-width:0.8;"/>
   </g>
   <g id="patch_146">
    <path d="M 53.473438 203.740776 
L 388.273438 203.740776 
" style="fill:none;stroke:#000000;stroke-linecap:square;stroke-linejoin:miter;stroke-width:0.8;"/>
   </g>
  </g>
  <g id="axes_14">
   <g id="patch_147">
    <path d="M 53.473438 232.558125 
L 388.273438 232.558125 
L 388.273438 219.45933 
L 53.473438 219.45933 
z
" style="fill:none;"/>
   </g>
   <g id="patch_148">
    <path clip-path="url(#p2361f8efd8)" d="M 62.773438 231.248245 
L 102.63058 231.248245 
L 102.63058 224.698848 
L 62.773438 224.698848 
z
" style="fill:#ff0000;stroke:#000000;stroke-linejoin:miter;"/>
   </g>
   <g id="patch_149">
    <path clip-path="url(#p2361f8efd8)" d="M 102.63058 231.248245 
L 188.987723 231.248245 
L 188.987723 224.698848 
L 102.63058 224.698848 
z
" style="fill:#00ff00;stroke:#000000;stroke-linejoin:miter;"/>
   </g>
   <g id="patch_150">
    <path clip-path="url(#p2361f8efd8)" d="M 188.987723 231.248245 
L 248.773438 231.248245 
L 248.773438 224.698848 
L 188.987723 224.698848 
z
" style="fill:#ff1ab9;stroke:#000000;stroke-linejoin:miter;"/>
   </g>
   <g id="patch_151">
    <path clip-path="url(#p2361f8efd8)" d="M 248.773438 231.248245 
L 321.844866 231.248245 
L 321.844866 224.698848 
L 248.773438 224.698848 
z
" style="fill:#ffd300;stroke:#000000;stroke-linejoin:miter;"/>
   </g>
   <g id="patch_152">
    <path clip-path="url(#p2361f8efd8)" d="M 321.844866 231.248245 
L 381.63058 231.248245 
L 381.63058 224.698848 
L 321.844866 224.698848 
z
" style="fill:#005800;stroke:#000000;stroke-linejoin:miter;"/>
   </g>
   <g id="matplotlib.axis_27">
    <g id="xtick_1">
     <g id="line2d_1">
      <defs>
       <path d="M 0 0 
L 0 3.5 
" id="m077f58cbe6" style="stroke:#000000;stroke-width:0.8;"/>
      </defs>
      <g>
       <use style="stroke:#000000;stroke-width:0.8;" x="56.13058" xlink:href="#m077f58cbe6" y="232.558125"/>
      </g>
     </g>
     <g id="text_15">
      <text style="font-family:DejaVu Sans;font-size:10px;font-style:normal;font-weight:normal;text-anchor:middle;" transform="rotate(-0, 56.13058, 247.156562)" x="56.13058" y="247.156562">0</text>
     </g>
    </g>
    <g id="xtick_2">
     <g id="line2d_2">
      <g>
       <use style="stroke:#000000;stroke-width:0.8;" x="109.273438" xlink:href="#m077f58cbe6" y="232.558125"/>
      </g>
     </g>
     <g id="text_16">
      <text style="font-family:DejaVu Sans;font-size:10px;font-style:normal;font-weight:normal;text-anchor:middle;" transform="rotate(-0, 109.273438, 247.156562)" x="109.273438" y="247.156562">20</text>
     </g>
    </g>
    <g id="xtick_3">
     <g id="line2d_3">
      <g>
       <use style="stroke:#000000;stroke-width:0.8;" x="162.416295" xlink:href="#m077f58cbe6" y="232.558125"/>
      </g>
     </g>
     <g id="text_17">
      <text style="font-family:DejaVu Sans;font-size:10px;font-style:normal;font-weight:normal;text-anchor:middle;" transform="rotate(-0, 162.416295, 247.156562)" x="162.416295" y="247.156562">40</text>
     </g>
    </g>
    <g id="xtick_4">
     <g id="line2d_4">
      <g>
       <use style="stroke:#000000;stroke-width:0.8;" x="215.559152" xlink:href="#m077f58cbe6" y="232.558125"/>
      </g>
     </g>
     <g id="text_18">
      <text style="font-family:DejaVu Sans;font-size:10px;font-style:normal;font-weight:normal;text-anchor:middle;" transform="rotate(-0, 215.559152, 247.156562)" x="215.559152" y="247.156562">60</text>
     </g>
    </g>
    <g id="xtick_5">
     <g id="line2d_5">
      <g>
       <use style="stroke:#000000;stroke-width:0.8;" x="268.702009" xlink:href="#m077f58cbe6" y="232.558125"/>
      </g>
     </g>
     <g id="text_19">
      <text style="font-family:DejaVu Sans;font-size:10px;font-style:normal;font-weight:normal;text-anchor:middle;" transform="rotate(-0, 268.702009, 247.156562)" x="268.702009" y="247.156562">80</text>
     </g>
    </g>
    <g id="xtick_6">
     <g id="line2d_6">
      <g>
       <use style="stroke:#000000;stroke-width:0.8;" x="321.844866" xlink:href="#m077f58cbe6" y="232.558125"/>
      </g>
     </g>
     <g id="text_20">
      <text style="font-family:DejaVu Sans;font-size:10px;font-style:normal;font-weight:normal;text-anchor:middle;" transform="rotate(-0, 321.844866, 247.156562)" x="321.844866" y="247.156562">100</text>
     </g>
    </g>
    <g id="xtick_7">
     <g id="line2d_7">
      <g>
       <use style="stroke:#000000;stroke-width:0.8;" x="374.987723" xlink:href="#m077f58cbe6" y="232.558125"/>
      </g>
     </g>
     <g id="text_21">
      <text style="font-family:DejaVu Sans;font-size:10px;font-style:normal;font-weight:normal;text-anchor:middle;" transform="rotate(-0, 374.987723, 247.156562)" x="374.987723" y="247.156562">120</text>
     </g>
    </g>
    <g id="text_22">
     <text style="font-family:DejaVu Sans;font-size:10px;font-style:normal;font-weight:normal;text-anchor:middle;" transform="rotate(-0, 220.873438, 260.834687)" x="220.873438" y="260.834687">Genomic Position [Mb]</text>
    </g>
   </g>
   <g id="matplotlib.axis_28">
    <g id="ytick_27"/>
    <g id="ytick_28"/>
    <g id="text_23">
     <text style="font-family:DejaVu Sans;font-size:10px;font-style:normal;font-weight:normal;" transform="translate(49.473438 212.731227)"/>
     <text style="font-family:DejaVu Sans;font-size:10px;font-style:normal;font-weight:normal;" transform="translate(38.34375 223.92904)">24   </text>
    </g>
   </g>
   <g id="patch_153">
    <path d="M 53.473438 232.558125 
L 53.473438 219.45933 
" style="fill:none;stroke:#000000;stroke-linecap:square;stroke-linejoin:miter;stroke-width:0.8;"/>
   </g>
   <g id="patch_154">
    <path d="M 388.273438 232.558125 
L 388.273438 219.45933 
" style="fill:none;stroke:#000000;stroke-linecap:square;stroke-linejoin:miter;stroke-width:0.8;"/>
   </g>
   <g id="patch_155">
    <path d="M 53.473438 232.558125 
L 388.273438 232.558125 
" style="fill:none;stroke:#000000;stroke-linecap:square;stroke-linejoin:miter;stroke-width:0.8;"/>
   </g>
   <g id="patch_156">
    <path d="M 53.473438 219.45933 
L 388.273438 219.45933 
" style="fill:none;stroke:#000000;stroke-linecap:square;stroke-linejoin:miter;stroke-width:0.8;"/>
   </g>
  </g>
 </g>
 <defs>
  <clipPath id="pa2144124d4">
   <rect height="13.098795" width="334.8" x="53.473438" y="15.118125"/>
  </clipPath>
  <clipPath id="p50439e5104">
   <rect height="13.098795" width="334.8" x="53.473438" y="30.836679"/>
  </clipPath>
  <clipPath id="p0438451ede">
   <rect height="13.098795" width="334.8" x="53.473438" y="46.555233"/>
  </clipPath>
  <clipPath id="pe052ffe7e5">
   <rect height="13.098795" width="334.8" x="53.473438" y="62.273788"/>
  </clipPath>
  <clipPath id="p9e30c10264">
   <rect height="13.098795" width="334.8" x="53.473438" y="77.992342"/>
  </clipPath>
  <clipPath id="p5624a5dabe">
   <rect height="13.098795" width="334.8" x="53.473438" y="93.710896"/>
  </clipPath>
  <clipPath id="p57e60bf966">
   <rect height="13.098795" width="334.8" x="53.473438" y="109.42945"/>
  </clipPath>
  <clipPath id="p4838a79390">
   <rect height="13.098795" width="334.8" x="53.473438" y="125.148005"/>
  </clipPath>
  <clipPath id="p9791601d5f">
   <rect height="13.098795" width="334.8" x="53.473438" y="140.866559"/>
  </clipPath>
  <clipPath id="p95ee8b9520">
   <rect height="13.098795" width="334.8" x="53.473438" y="156.585113"/>
  </clipPath>
  <clipPath id="p042da3f734">
   <rect height="13.098795" width="334.8" x="53.473438" y="172.303667"/>
  </clipPath>
  <clipPath id="pc3577e81e3">
   <rect height="13.098795" width="334.8" x="53.473438" y="188.022221"/>
  </clipPath>
  <clipPath id="p1f482649e2">
   <rect height="13.098795" width="334.8" x="53.473438" y="203.740776"/>
  </clipPath>
  <clipPath id="p2361f8efd8">
   <rect height="13.098795" width="334.8" x="53.473438" y="219.45933"/>
  </clipPath>
 </defs>
</svg>
