<?xml version="1.0" encoding="utf-8" standalone="no"?>
<!DOCTYPE svg PUBLIC "-//W3C//DTD SVG 1.1//EN"
  "http://www.w3.org/Graphics/SVG/1.1/DTD/svg11.dtd">
<!-- Created with matplotlib (https://matplotlib.org/) -->
<svg height="262.914375pt" version="1.1" viewBox="0 0 397.817187 262.914375" width="397.817187pt" xmlns="http://www.w3.org/2000/svg" xmlns:xlink="http://www.w3.org/1999/xlink">
 <defs>
  <style type="text/css">
*{stroke-linecap:butt;stroke-linejoin:round;}
  </style>
 </defs>
 <g id="figure_1">
  <g id="patch_1">
   <path d="M 0 262.914375 
L 397.817187 262.914375 
L 397.817187 0 
L 0 0 
z
" style="fill:none;"/>
  </g>
  <g id="axes_1">
   <g id="patch_2">
    <path d="M 53.473438 33.545244 
L 388.273438 33.545244 
L 388.273438 15.118125 
L 53.473438 15.118125 
z
" style="fill:none;"/>
   </g>
   <g id="patch_3">
    <path clip-path="url(#pd545a851c9)" d="M 65.075418 31.702532 
L 123.085319 31.702532 
L 123.085319 22.488972 
L 65.075418 22.488972 
z
" style="fill:#ff0000;stroke:#000000;stroke-linejoin:miter;"/>
   </g>
   <g id="patch_4">
    <path clip-path="url(#pd545a851c9)" d="M 123.085319 31.702532 
L 205.956606 31.702532 
L 205.956606 22.488972 
L 123.085319 22.488972 
z
" style="fill:#00ff00;stroke:#000000;stroke-linejoin:miter;"/>
   </g>
   <g id="patch_5">
    <path clip-path="url(#pd545a851c9)" d="M 205.956606 31.702532 
L 255.679378 31.702532 
L 255.679378 22.488972 
L 205.956606 22.488972 
z
" style="fill:#ff1ab9;stroke:#000000;stroke-linejoin:miter;"/>
   </g>
   <g id="patch_6">
    <path clip-path="url(#pd545a851c9)" d="M 255.679378 31.702532 
L 297.115022 31.702532 
L 297.115022 22.488972 
L 255.679378 22.488972 
z
" style="fill:#ffd300;stroke:#000000;stroke-linejoin:miter;"/>
   </g>
   <g id="patch_7">
    <path clip-path="url(#pd545a851c9)" d="M 297.115022 31.702532 
L 321.976408 31.702532 
L 321.976408 22.488972 
L 297.115022 22.488972 
z
" style="fill:#005800;stroke:#000000;stroke-linejoin:miter;"/>
   </g>
   <g id="patch_8">
    <path clip-path="url(#pd545a851c9)" d="M 321.976408 31.702532 
L 379.986309 31.702532 
L 379.986309 22.488972 
L 321.976408 22.488972 
z
" style="fill:#8484ff;stroke:#000000;stroke-linejoin:miter;"/>
   </g>
   <g id="matplotlib.axis_1"/>
   <g id="matplotlib.axis_2">
    <g id="ytick_1"/>
    <g id="ytick_2"/>
    <g id="text_1">
     <text style="font-family:DejaVu Sans;font-size:10px;font-style:normal;font-weight:normal;text-anchor:middle;" transform="rotate(-0, 49.473438, 22.251997)" x="49.473438" y="22.251997">Embryo 1                </text>
    </g>
   </g>
   <g id="patch_9">
    <path d="M 53.473438 33.545244 
L 53.473438 15.118125 
" style="fill:none;stroke:#000000;stroke-linecap:square;stroke-linejoin:miter;stroke-width:0.8;"/>
   </g>
   <g id="patch_10">
    <path d="M 388.273438 33.545244 
L 388.273438 15.118125 
" style="fill:none;stroke:#000000;stroke-linecap:square;stroke-linejoin:miter;stroke-width:0.8;"/>
   </g>
   <g id="patch_11">
    <path d="M 53.473438 33.545244 
L 388.273438 33.545244 
" style="fill:none;stroke:#000000;stroke-linecap:square;stroke-linejoin:miter;stroke-width:0.8;"/>
   </g>
   <g id="patch_12">
    <path d="M 53.473438 15.118125 
L 388.273438 15.118125 
" style="fill:none;stroke:#000000;stroke-linecap:square;stroke-linejoin:miter;stroke-width:0.8;"/>
   </g>
   <g id="text_2">
    <text style="font-family:DejaVu Sans;font-size:12px;font-style:normal;font-weight:normal;text-anchor:middle;" transform="rotate(-0, 220.873438, 9.118125)" x="220.873438" y="9.118125">Chr 16</text>
   </g>
  </g>
  <g id="axes_2">
   <g id="patch_13">
    <path d="M 53.473438 55.657786 
L 388.273438 55.657786 
L 388.273438 37.230667 
L 53.473438 37.230667 
z
" style="fill:none;"/>
   </g>
   <g id="patch_14">
    <path clip-path="url(#p54f6222847)" d="M 65.075418 53.815074 
L 98.223933 53.815074 
L 98.223933 44.601515 
L 65.075418 44.601515 
z
" style="fill:#ff0000;stroke:#000000;stroke-linejoin:miter;"/>
   </g>
   <g id="patch_15">
    <path clip-path="url(#p54f6222847)" d="M 98.223933 53.815074 
L 214.243735 53.815074 
L 214.243735 44.601515 
L 98.223933 44.601515 
z
" style="fill:#00ff00;stroke:#000000;stroke-linejoin:miter;"/>
   </g>
   <g id="patch_16">
    <path clip-path="url(#p54f6222847)" d="M 214.243735 53.815074 
L 280.540764 53.815074 
L 280.540764 44.601515 
L 214.243735 44.601515 
z
" style="fill:#ff1ab9;stroke:#000000;stroke-linejoin:miter;"/>
   </g>
   <g id="patch_17">
    <path clip-path="url(#p54f6222847)" d="M 280.540764 53.815074 
L 321.976408 53.815074 
L 321.976408 44.601515 
L 280.540764 44.601515 
z
" style="fill:#ffd300;stroke:#000000;stroke-linejoin:miter;"/>
   </g>
   <g id="patch_18">
    <path clip-path="url(#p54f6222847)" d="M 321.976408 53.815074 
L 371.69918 53.815074 
L 371.69918 44.601515 
L 321.976408 44.601515 
z
" style="fill:#005800;stroke:#000000;stroke-linejoin:miter;"/>
   </g>
   <g id="matplotlib.axis_3"/>
   <g id="matplotlib.axis_4">
    <g id="ytick_3"/>
    <g id="ytick_4"/>
    <g id="text_3">
     <text style="font-family:DejaVu Sans;font-size:10px;font-style:normal;font-weight:normal;" transform="translate(49.473438 33.166727)"/>
     <text style="font-family:DejaVu Sans;font-size:10px;font-style:normal;font-weight:normal;" transform="translate(41.525 44.364539)">7   </text>
    </g>
   </g>
   <g id="patch_19">
    <path d="M 53.473438 55.657786 
L 53.473438 37.230667 
" style="fill:none;stroke:#000000;stroke-linecap:square;stroke-linejoin:miter;stroke-width:0.8;"/>
   </g>
   <g id="patch_20">
    <path d="M 388.273438 55.657786 
L 388.273438 37.230667 
" style="fill:none;stroke:#000000;stroke-linecap:square;stroke-linejoin:miter;stroke-width:0.8;"/>
   </g>
   <g id="patch_21">
    <path d="M 53.473438 55.657786 
L 388.273438 55.657786 
" style="fill:none;stroke:#000000;stroke-linecap:square;stroke-linejoin:miter;stroke-width:0.8;"/>
   </g>
   <g id="patch_22">
    <path d="M 53.473438 37.230667 
L 388.273438 37.230667 
" style="fill:none;stroke:#000000;stroke-linecap:square;stroke-linejoin:miter;stroke-width:0.8;"/>
   </g>
  </g>
  <g id="axes_3">
   <g id="patch_23">
    <path d="M 53.473438 77.770328 
L 388.273438 77.770328 
L 388.273438 59.34321 
L 53.473438 59.34321 
z
" style="fill:none;"/>
   </g>
   <g id="patch_24">
    <path clip-path="url(#p347776fff6)" d="M 65.075418 75.927617 
L 98.223933 75.927617 
L 98.223933 66.714057 
L 65.075418 66.714057 
z
" style="fill:#ff0000;stroke:#000000;stroke-linejoin:miter;"/>
   </g>
   <g id="patch_25">
    <path clip-path="url(#p347776fff6)" d="M 98.223933 75.927617 
L 181.09522 75.927617 
L 181.09522 66.714057 
L 98.223933 66.714057 
z
" style="fill:#00ff00;stroke:#000000;stroke-linejoin:miter;"/>
   </g>
   <g id="patch_26">
    <path clip-path="url(#p347776fff6)" d="M 181.09522 75.927617 
L 239.105121 75.927617 
L 239.105121 66.714057 
L 181.09522 66.714057 
z
" style="fill:#ff1ab9;stroke:#000000;stroke-linejoin:miter;"/>
   </g>
   <g id="patch_27">
    <path clip-path="url(#p347776fff6)" d="M 239.105121 75.927617 
L 280.540764 75.927617 
L 280.540764 66.714057 
L 239.105121 66.714057 
z
" style="fill:#ffd300;stroke:#000000;stroke-linejoin:miter;"/>
   </g>
   <g id="patch_28">
    <path clip-path="url(#p347776fff6)" d="M 280.540764 75.927617 
L 379.986309 75.927617 
L 379.986309 66.714057 
L 280.540764 66.714057 
z
" style="fill:#005800;stroke:#000000;stroke-linejoin:miter;"/>
   </g>
   <g id="matplotlib.axis_5"/>
   <g id="matplotlib.axis_6">
    <g id="ytick_5"/>
    <g id="ytick_6"/>
    <g id="text_4">
     <text style="font-family:DejaVu Sans;font-size:10px;font-style:normal;font-weight:normal;" transform="translate(49.473438 55.279269)"/>
     <text style="font-family:DejaVu Sans;font-size:10px;font-style:normal;font-weight:normal;" transform="translate(41.525 66.477082)">8   </text>
    </g>
   </g>
   <g id="patch_29">
    <path d="M 53.473438 77.770328 
L 53.473438 59.34321 
" style="fill:none;stroke:#000000;stroke-linecap:square;stroke-linejoin:miter;stroke-width:0.8;"/>
   </g>
   <g id="patch_30">
    <path d="M 388.273438 77.770328 
L 388.273438 59.34321 
" style="fill:none;stroke:#000000;stroke-linecap:square;stroke-linejoin:miter;stroke-width:0.8;"/>
   </g>
   <g id="patch_31">
    <path d="M 53.473438 77.770328 
L 388.273438 77.770328 
" style="fill:none;stroke:#000000;stroke-linecap:square;stroke-linejoin:miter;stroke-width:0.8;"/>
   </g>
   <g id="patch_32">
    <path d="M 53.473438 59.34321 
L 388.273438 59.34321 
" style="fill:none;stroke:#000000;stroke-linecap:square;stroke-linejoin:miter;stroke-width:0.8;"/>
   </g>
  </g>
  <g id="axes_4">
   <g id="patch_33">
    <path d="M 53.473438 99.882871 
L 388.273438 99.882871 
L 388.273438 81.455752 
L 53.473438 81.455752 
z
" style="fill:none;"/>
   </g>
   <g id="patch_34">
    <path clip-path="url(#p836a405ae8)" d="M 65.075418 98.040159 
L 106.511061 98.040159 
L 106.511061 88.8266 
L 65.075418 88.8266 
z
" style="fill:#ff0000;stroke:#000000;stroke-linejoin:miter;"/>
   </g>
   <g id="patch_35">
    <path clip-path="url(#p836a405ae8)" d="M 106.511061 98.040159 
L 164.520962 98.040159 
L 164.520962 88.8266 
L 106.511061 88.8266 
z
" style="fill:#00ff00;stroke:#000000;stroke-linejoin:miter;"/>
   </g>
   <g id="patch_36">
    <path clip-path="url(#p836a405ae8)" d="M 164.520962 98.040159 
L 239.105121 98.040159 
L 239.105121 88.8266 
L 164.520962 88.8266 
z
" style="fill:#ff1ab9;stroke:#000000;stroke-linejoin:miter;"/>
   </g>
   <g id="patch_37">
    <path clip-path="url(#p836a405ae8)" d="M 239.105121 98.040159 
L 297.115022 98.040159 
L 297.115022 88.8266 
L 239.105121 88.8266 
z
" style="fill:#ffd300;stroke:#000000;stroke-linejoin:miter;"/>
   </g>
   <g id="patch_38">
    <path clip-path="url(#p836a405ae8)" d="M 297.115022 98.040159 
L 346.837794 98.040159 
L 346.837794 88.8266 
L 297.115022 88.8266 
z
" style="fill:#005800;stroke:#000000;stroke-linejoin:miter;"/>
   </g>
   <g id="patch_39">
    <path clip-path="url(#p836a405ae8)" d="M 346.837794 98.040159 
L 379.986309 98.040159 
L 379.986309 88.8266 
L 346.837794 88.8266 
z
" style="fill:#8484ff;stroke:#000000;stroke-linejoin:miter;"/>
   </g>
   <g id="matplotlib.axis_7"/>
   <g id="matplotlib.axis_8">
    <g id="ytick_7"/>
    <g id="ytick_8"/>
    <g id="text_5">
     <text style="font-family:DejaVu Sans;font-size:10px;font-style:normal;font-weight:normal;" transform="translate(49.473438 77.391811)"/>
     <text style="font-family:DejaVu Sans;font-size:10px;font-style:normal;font-weight:normal;" transform="translate(41.525 88.589624)">9   </text>
    </g>
   </g>
   <g id="patch_40">
    <path d="M 53.473438 99.882871 
L 53.473438 81.455752 
" style="fill:none;stroke:#000000;stroke-linecap:square;stroke-linejoin:miter;stroke-width:0.8;"/>
   </g>
   <g id="patch_41">
    <path d="M 388.273438 99.882871 
L 388.273438 81.455752 
" style="fill:none;stroke:#000000;stroke-linecap:square;stroke-linejoin:miter;stroke-width:0.8;"/>
   </g>
   <g id="patch_42">
    <path d="M 53.473438 99.882871 
L 388.273438 99.882871 
" style="fill:none;stroke:#000000;stroke-linecap:square;stroke-linejoin:miter;stroke-width:0.8;"/>
   </g>
   <g id="patch_43">
    <path d="M 53.473438 81.455752 
L 388.273438 81.455752 
" style="fill:none;stroke:#000000;stroke-linecap:square;stroke-linejoin:miter;stroke-width:0.8;"/>
   </g>
  </g>
  <g id="axes_5">
   <g id="patch_44">
    <path d="M 53.473438 121.995413 
L 388.273438 121.995413 
L 388.273438 103.568294 
L 53.473438 103.568294 
z
" style="fill:none;"/>
   </g>
   <g id="patch_45">
    <path clip-path="url(#pb4bfe22424)" d="M 65.075418 120.152701 
L 131.372447 120.152701 
L 131.372447 110.939142 
L 65.075418 110.939142 
z
" style="fill:#ff0000;stroke:#000000;stroke-linejoin:miter;"/>
   </g>
   <g id="patch_46">
    <path clip-path="url(#pb4bfe22424)" d="M 131.372447 120.152701 
L 164.520962 120.152701 
L 164.520962 110.939142 
L 131.372447 110.939142 
z
" style="fill:#00ff00;stroke:#000000;stroke-linejoin:miter;"/>
   </g>
   <g id="patch_47">
    <path clip-path="url(#pb4bfe22424)" d="M 164.520962 120.152701 
L 230.817992 120.152701 
L 230.817992 110.939142 
L 164.520962 110.939142 
z
" style="fill:#ff1ab9;stroke:#000000;stroke-linejoin:miter;"/>
   </g>
   <g id="patch_48">
    <path clip-path="url(#pb4bfe22424)" d="M 230.817992 120.152701 
L 297.115022 120.152701 
L 297.115022 110.939142 
L 230.817992 110.939142 
z
" style="fill:#ffd300;stroke:#000000;stroke-linejoin:miter;"/>
   </g>
   <g id="patch_49">
    <path clip-path="url(#pb4bfe22424)" d="M 297.115022 120.152701 
L 379.986309 120.152701 
L 379.986309 110.939142 
L 297.115022 110.939142 
z
" style="fill:#005800;stroke:#000000;stroke-linejoin:miter;"/>
   </g>
   <g id="matplotlib.axis_9"/>
   <g id="matplotlib.axis_10">
    <g id="ytick_9"/>
    <g id="ytick_10"/>
    <g id="text_6">
     <text style="font-family:DejaVu Sans;font-size:10px;font-style:normal;font-weight:normal;" transform="translate(49.473438 99.504354)"/>
     <text style="font-family:DejaVu Sans;font-size:10px;font-style:normal;font-weight:normal;" transform="translate(38.34375 110.702166)">10   </text>
    </g>
   </g>
   <g id="patch_50">
    <path d="M 53.473438 121.995413 
L 53.473438 103.568294 
" style="fill:none;stroke:#000000;stroke-linecap:square;stroke-linejoin:miter;stroke-width:0.8;"/>
   </g>
   <g id="patch_51">
    <path d="M 388.273438 121.995413 
L 388.273438 103.568294 
" style="fill:none;stroke:#000000;stroke-linecap:square;stroke-linejoin:miter;stroke-width:0.8;"/>
   </g>
   <g id="patch_52">
    <path d="M 53.473438 121.995413 
L 388.273438 121.995413 
" style="fill:none;stroke:#000000;stroke-linecap:square;stroke-linejoin:miter;stroke-width:0.8;"/>
   </g>
   <g id="patch_53">
    <path d="M 53.473438 103.568294 
L 388.273438 103.568294 
" style="fill:none;stroke:#000000;stroke-linecap:square;stroke-linejoin:miter;stroke-width:0.8;"/>
   </g>
  </g>
  <g id="axes_6">
   <g id="patch_54">
    <path d="M 53.473438 144.107956 
L 388.273438 144.107956 
L 388.273438 125.680837 
L 53.473438 125.680837 
z
" style="fill:none;"/>
   </g>
   <g id="patch_55">
    <path clip-path="url(#p3c9781fb43)" d="M 73.362546 142.265244 
L 139.659576 142.265244 
L 139.659576 133.051684 
L 73.362546 133.051684 
z
" style="fill:#ff0000;stroke:#000000;stroke-linejoin:miter;"/>
   </g>
   <g id="patch_56">
    <path clip-path="url(#p3c9781fb43)" d="M 139.659576 142.265244 
L 189.382348 142.265244 
L 189.382348 133.051684 
L 139.659576 133.051684 
z
" style="fill:#00ff00;stroke:#000000;stroke-linejoin:miter;"/>
   </g>
   <g id="patch_57">
    <path clip-path="url(#p3c9781fb43)" d="M 189.382348 142.265244 
L 247.392249 142.265244 
L 247.392249 133.051684 
L 189.382348 133.051684 
z
" style="fill:#ff1ab9;stroke:#000000;stroke-linejoin:miter;"/>
   </g>
   <g id="patch_58">
    <path clip-path="url(#p3c9781fb43)" d="M 247.392249 142.265244 
L 305.40215 142.265244 
L 305.40215 133.051684 
L 247.392249 133.051684 
z
" style="fill:#ffd300;stroke:#000000;stroke-linejoin:miter;"/>
   </g>
   <g id="patch_59">
    <path clip-path="url(#p3c9781fb43)" d="M 305.40215 142.265244 
L 371.69918 142.265244 
L 371.69918 133.051684 
L 305.40215 133.051684 
z
" style="fill:#005800;stroke:#000000;stroke-linejoin:miter;"/>
   </g>
   <g id="matplotlib.axis_11"/>
   <g id="matplotlib.axis_12">
    <g id="ytick_11"/>
    <g id="ytick_12"/>
    <g id="text_7">
     <text style="font-family:DejaVu Sans;font-size:10px;font-style:normal;font-weight:normal;" transform="translate(49.473438 121.616896)"/>
     <text style="font-family:DejaVu Sans;font-size:10px;font-style:normal;font-weight:normal;" transform="translate(38.34375 132.814709)">11   </text>
    </g>
   </g>
   <g id="patch_60">
    <path d="M 53.473438 144.107956 
L 53.473438 125.680837 
" style="fill:none;stroke:#000000;stroke-linecap:square;stroke-linejoin:miter;stroke-width:0.8;"/>
   </g>
   <g id="patch_61">
    <path d="M 388.273438 144.107956 
L 388.273438 125.680837 
" style="fill:none;stroke:#000000;stroke-linecap:square;stroke-linejoin:miter;stroke-width:0.8;"/>
   </g>
   <g id="patch_62">
    <path d="M 53.473438 144.107956 
L 388.273438 144.107956 
" style="fill:none;stroke:#000000;stroke-linecap:square;stroke-linejoin:miter;stroke-width:0.8;"/>
   </g>
   <g id="patch_63">
    <path d="M 53.473438 125.680837 
L 388.273438 125.680837 
" style="fill:none;stroke:#000000;stroke-linecap:square;stroke-linejoin:miter;stroke-width:0.8;"/>
   </g>
  </g>
  <g id="axes_7">
   <g id="patch_64">
    <path d="M 53.473438 166.220498 
L 388.273438 166.220498 
L 388.273438 147.793379 
L 53.473438 147.793379 
z
" style="fill:none;"/>
   </g>
   <g id="patch_65">
    <path clip-path="url(#pc7e4cc4d91)" d="M 65.075418 164.377786 
L 106.511061 164.377786 
L 106.511061 155.164227 
L 65.075418 155.164227 
z
" style="fill:#ff0000;stroke:#000000;stroke-linejoin:miter;"/>
   </g>
   <g id="patch_66">
    <path clip-path="url(#pc7e4cc4d91)" d="M 106.511061 164.377786 
L 272.253636 164.377786 
L 272.253636 155.164227 
L 106.511061 155.164227 
z
" style="fill:#00ff00;stroke:#000000;stroke-linejoin:miter;"/>
   </g>
   <g id="patch_67">
    <path clip-path="url(#pc7e4cc4d91)" d="M 272.253636 164.377786 
L 313.689279 164.377786 
L 313.689279 155.164227 
L 272.253636 155.164227 
z
" style="fill:#ff1ab9;stroke:#000000;stroke-linejoin:miter;"/>
   </g>
   <g id="patch_68">
    <path clip-path="url(#pc7e4cc4d91)" d="M 313.689279 164.377786 
L 379.986309 164.377786 
L 379.986309 155.164227 
L 313.689279 155.164227 
z
" style="fill:#ffd300;stroke:#000000;stroke-linejoin:miter;"/>
   </g>
   <g id="matplotlib.axis_13"/>
   <g id="matplotlib.axis_14">
    <g id="ytick_13"/>
    <g id="ytick_14"/>
    <g id="text_8">
     <text style="font-family:DejaVu Sans;font-size:10px;font-style:normal;font-weight:normal;" transform="translate(49.473438 143.729439)"/>
     <text style="font-family:DejaVu Sans;font-size:10px;font-style:normal;font-weight:normal;" transform="translate(38.34375 154.927251)">13   </text>
    </g>
   </g>
   <g id="patch_69">
    <path d="M 53.473438 166.220498 
L 53.473438 147.793379 
" style="fill:none;stroke:#000000;stroke-linecap:square;stroke-linejoin:miter;stroke-width:0.8;"/>
   </g>
   <g id="patch_70">
    <path d="M 388.273438 166.220498 
L 388.273438 147.793379 
" style="fill:none;stroke:#000000;stroke-linecap:square;stroke-linejoin:miter;stroke-width:0.8;"/>
   </g>
   <g id="patch_71">
    <path d="M 53.473438 166.220498 
L 388.273438 166.220498 
" style="fill:none;stroke:#000000;stroke-linecap:square;stroke-linejoin:miter;stroke-width:0.8;"/>
   </g>
   <g id="patch_72">
    <path d="M 53.473438 147.793379 
L 388.273438 147.793379 
" style="fill:none;stroke:#000000;stroke-linecap:square;stroke-linejoin:miter;stroke-width:0.8;"/>
   </g>
  </g>
  <g id="axes_8">
   <g id="patch_73">
    <path d="M 53.473438 188.33304 
L 388.273438 188.33304 
L 388.273438 169.905922 
L 53.473438 169.905922 
z
" style="fill:none;"/>
   </g>
   <g id="patch_74">
    <path clip-path="url(#p4dfda21644)" d="M 73.362546 186.490328 
L 106.511061 186.490328 
L 106.511061 177.276769 
L 73.362546 177.276769 
z
" style="fill:#ff0000;stroke:#000000;stroke-linejoin:miter;"/>
   </g>
   <g id="patch_75">
    <path clip-path="url(#p4dfda21644)" d="M 106.511061 186.490328 
L 189.382348 186.490328 
L 189.382348 177.276769 
L 106.511061 177.276769 
z
" style="fill:#00ff00;stroke:#000000;stroke-linejoin:miter;"/>
   </g>
   <g id="patch_76">
    <path clip-path="url(#p4dfda21644)" d="M 189.382348 186.490328 
L 272.253636 186.490328 
L 272.253636 177.276769 
L 189.382348 177.276769 
z
" style="fill:#ff1ab9;stroke:#000000;stroke-linejoin:miter;"/>
   </g>
   <g id="patch_77">
    <path clip-path="url(#p4dfda21644)" d="M 272.253636 186.490328 
L 313.689279 186.490328 
L 313.689279 177.276769 
L 272.253636 177.276769 
z
" style="fill:#ffd300;stroke:#000000;stroke-linejoin:miter;"/>
   </g>
   <g id="patch_78">
    <path clip-path="url(#p4dfda21644)" d="M 313.689279 186.490328 
L 379.986309 186.490328 
L 379.986309 177.276769 
L 313.689279 177.276769 
z
" style="fill:#005800;stroke:#000000;stroke-linejoin:miter;"/>
   </g>
   <g id="matplotlib.axis_15"/>
   <g id="matplotlib.axis_16">
    <g id="ytick_15"/>
    <g id="ytick_16"/>
    <g id="text_9">
     <text style="font-family:DejaVu Sans;font-size:10px;font-style:normal;font-weight:normal;" transform="translate(49.473438 165.841981)"/>
     <text style="font-family:DejaVu Sans;font-size:10px;font-style:normal;font-weight:normal;" transform="translate(38.34375 177.039793)">18   </text>
    </g>
   </g>
   <g id="patch_79">
    <path d="M 53.473438 188.33304 
L 53.473438 169.905922 
" style="fill:none;stroke:#000000;stroke-linecap:square;stroke-linejoin:miter;stroke-width:0.8;"/>
   </g>
   <g id="patch_80">
    <path d="M 388.273438 188.33304 
L 388.273438 169.905922 
" style="fill:none;stroke:#000000;stroke-linecap:square;stroke-linejoin:miter;stroke-width:0.8;"/>
   </g>
   <g id="patch_81">
    <path d="M 53.473438 188.33304 
L 388.273438 188.33304 
" style="fill:none;stroke:#000000;stroke-linecap:square;stroke-linejoin:miter;stroke-width:0.8;"/>
   </g>
   <g id="patch_82">
    <path d="M 53.473438 169.905922 
L 388.273438 169.905922 
" style="fill:none;stroke:#000000;stroke-linecap:square;stroke-linejoin:miter;stroke-width:0.8;"/>
   </g>
  </g>
  <g id="axes_9">
   <g id="patch_83">
    <path d="M 53.473438 210.445583 
L 388.273438 210.445583 
L 388.273438 192.018464 
L 53.473438 192.018464 
z
" style="fill:none;"/>
   </g>
   <g id="patch_84">
    <path clip-path="url(#p023b77c416)" d="M 65.075418 208.602871 
L 139.659576 208.602871 
L 139.659576 199.389311 
L 65.075418 199.389311 
z
" style="fill:#ff0000;stroke:#000000;stroke-linejoin:miter;"/>
   </g>
   <g id="patch_85">
    <path clip-path="url(#p023b77c416)" d="M 139.659576 208.602871 
L 189.382348 208.602871 
L 189.382348 199.389311 
L 139.659576 199.389311 
z
" style="fill:#00ff00;stroke:#000000;stroke-linejoin:miter;"/>
   </g>
   <g id="patch_86">
    <path clip-path="url(#p023b77c416)" d="M 189.382348 208.602871 
L 230.817992 208.602871 
L 230.817992 199.389311 
L 189.382348 199.389311 
z
" style="fill:#ff1ab9;stroke:#000000;stroke-linejoin:miter;"/>
   </g>
   <g id="patch_87">
    <path clip-path="url(#p023b77c416)" d="M 230.817992 208.602871 
L 305.40215 208.602871 
L 305.40215 199.389311 
L 230.817992 199.389311 
z
" style="fill:#ffd300;stroke:#000000;stroke-linejoin:miter;"/>
   </g>
   <g id="patch_88">
    <path clip-path="url(#p023b77c416)" d="M 305.40215 208.602871 
L 338.550665 208.602871 
L 338.550665 199.389311 
L 305.40215 199.389311 
z
" style="fill:#005800;stroke:#000000;stroke-linejoin:miter;"/>
   </g>
   <g id="patch_89">
    <path clip-path="url(#p023b77c416)" d="M 338.550665 208.602871 
L 379.986309 208.602871 
L 379.986309 199.389311 
L 338.550665 199.389311 
z
" style="fill:#8484ff;stroke:#000000;stroke-linejoin:miter;"/>
   </g>
   <g id="matplotlib.axis_17"/>
   <g id="matplotlib.axis_18">
    <g id="ytick_17"/>
    <g id="ytick_18"/>
    <g id="text_10">
     <text style="font-family:DejaVu Sans;font-size:10px;font-style:normal;font-weight:normal;" transform="translate(49.473438 187.954523)"/>
     <text style="font-family:DejaVu Sans;font-size:10px;font-style:normal;font-weight:normal;" transform="translate(38.34375 199.152336)">23   </text>
    </g>
   </g>
   <g id="patch_90">
    <path d="M 53.473438 210.445583 
L 53.473438 192.018464 
" style="fill:none;stroke:#000000;stroke-linecap:square;stroke-linejoin:miter;stroke-width:0.8;"/>
   </g>
   <g id="patch_91">
    <path d="M 388.273438 210.445583 
L 388.273438 192.018464 
" style="fill:none;stroke:#000000;stroke-linecap:square;stroke-linejoin:miter;stroke-width:0.8;"/>
   </g>
   <g id="patch_92">
    <path d="M 53.473438 210.445583 
L 388.273438 210.445583 
" style="fill:none;stroke:#000000;stroke-linecap:square;stroke-linejoin:miter;stroke-width:0.8;"/>
   </g>
   <g id="patch_93">
    <path d="M 53.473438 192.018464 
L 388.273438 192.018464 
" style="fill:none;stroke:#000000;stroke-linecap:square;stroke-linejoin:miter;stroke-width:0.8;"/>
   </g>
  </g>
  <g id="axes_10">
   <g id="patch_94">
    <path d="M 53.473438 232.558125 
L 388.273438 232.558125 
L 388.273438 214.131006 
L 53.473438 214.131006 
z
" style="fill:none;"/>
   </g>
   <g id="patch_95">
    <path clip-path="url(#pf00ff44a18)" d="M 65.075418 230.715413 
L 98.223933 230.715413 
L 98.223933 221.501854 
L 65.075418 221.501854 
z
" style="fill:#ff0000;stroke:#000000;stroke-linejoin:miter;"/>
   </g>
   <g id="patch_96">
    <path clip-path="url(#pf00ff44a18)" d="M 98.223933 230.715413 
L 222.530863 230.715413 
L 222.530863 221.501854 
L 98.223933 221.501854 
z
" style="fill:#00ff00;stroke:#000000;stroke-linejoin:miter;"/>
   </g>
   <g id="patch_97">
    <path clip-path="url(#pf00ff44a18)" d="M 222.530863 230.715413 
L 280.540764 230.715413 
L 280.540764 221.501854 
L 222.530863 221.501854 
z
" style="fill:#ff1ab9;stroke:#000000;stroke-linejoin:miter;"/>
   </g>
   <g id="patch_98">
    <path clip-path="url(#pf00ff44a18)" d="M 280.540764 230.715413 
L 363.412051 230.715413 
L 363.412051 221.501854 
L 280.540764 221.501854 
z
" style="fill:#ffd300;stroke:#000000;stroke-linejoin:miter;"/>
   </g>
   <g id="matplotlib.axis_19">
    <g id="xtick_1">
     <g id="line2d_1">
      <defs>
       <path d="M 0 0 
L 0 3.5 
" id="m4f9a13eb53" style="stroke:#000000;stroke-width:0.8;"/>
      </defs>
      <g>
       <use style="stroke:#000000;stroke-width:0.8;" x="56.788289" xlink:href="#m4f9a13eb53" y="232.558125"/>
      </g>
     </g>
     <g id="text_11">
      <text style="font-family:DejaVu Sans;font-size:10px;font-style:normal;font-weight:normal;text-anchor:middle;" transform="rotate(-0, 56.788289, 247.156562)" x="56.788289" y="247.156562">0</text>
     </g>
    </g>
    <g id="xtick_2">
     <g id="line2d_2">
      <g>
       <use style="stroke:#000000;stroke-width:0.8;" x="123.085319" xlink:href="#m4f9a13eb53" y="232.558125"/>
      </g>
     </g>
     <g id="text_12">
      <text style="font-family:DejaVu Sans;font-size:10px;font-style:normal;font-weight:normal;text-anchor:middle;" transform="rotate(-0, 123.085319, 247.156562)" x="123.085319" y="247.156562">20</text>
     </g>
    </g>
    <g id="xtick_3">
     <g id="line2d_3">
      <g>
       <use style="stroke:#000000;stroke-width:0.8;" x="189.382348" xlink:href="#m4f9a13eb53" y="232.558125"/>
      </g>
     </g>
     <g id="text_13">
      <text style="font-family:DejaVu Sans;font-size:10px;font-style:normal;font-weight:normal;text-anchor:middle;" transform="rotate(-0, 189.382348, 247.156562)" x="189.382348" y="247.156562">40</text>
     </g>
    </g>
    <g id="xtick_4">
     <g id="line2d_4">
      <g>
       <use style="stroke:#000000;stroke-width:0.8;" x="255.679378" xlink:href="#m4f9a13eb53" y="232.558125"/>
      </g>
     </g>
     <g id="text_14">
      <text style="font-family:DejaVu Sans;font-size:10px;font-style:normal;font-weight:normal;text-anchor:middle;" transform="rotate(-0, 255.679378, 247.156562)" x="255.679378" y="247.156562">60</text>
     </g>
    </g>
    <g id="xtick_5">
     <g id="line2d_5">
      <g>
       <use style="stroke:#000000;stroke-width:0.8;" x="321.976408" xlink:href="#m4f9a13eb53" y="232.558125"/>
      </g>
     </g>
     <g id="text_15">
      <text style="font-family:DejaVu Sans;font-size:10px;font-style:normal;font-weight:normal;text-anchor:middle;" transform="rotate(-0, 321.976408, 247.156562)" x="321.976408" y="247.156562">80</text>
     </g>
    </g>
    <g id="xtick_6">
     <g id="line2d_6">
      <g>
       <use style="stroke:#000000;stroke-width:0.8;" x="388.273438" xlink:href="#m4f9a13eb53" y="232.558125"/>
      </g>
     </g>
     <g id="text_16">
      <text style="font-family:DejaVu Sans;font-size:10px;font-style:normal;font-weight:normal;text-anchor:middle;" transform="rotate(-0, 388.273438, 247.156562)" x="388.273438" y="247.156562">100</text>
     </g>
    </g>
    <g id="text_17">
     <text style="font-family:DejaVu Sans;font-size:10px;font-style:normal;font-weight:normal;text-anchor:middle;" transform="rotate(-0, 220.873438, 260.834687)" x="220.873438" y="260.834687">Genomic Position [Mb]</text>
    </g>
   </g>
   <g id="matplotlib.axis_20">
    <g id="ytick_19"/>
    <g id="ytick_20"/>
    <g id="text_18">
     <text style="font-family:DejaVu Sans;font-size:10px;font-style:normal;font-weight:normal;" transform="translate(49.473438 210.067066)"/>
     <text style="font-family:DejaVu Sans;font-size:10px;font-style:normal;font-weight:normal;" transform="translate(38.34375 221.264878)">24   </text>
    </g>
   </g>
   <g id="patch_99">
    <path d="M 53.473438 232.558125 
L 53.473438 214.131006 
" style="fill:none;stroke:#000000;stroke-linecap:square;stroke-linejoin:miter;stroke-width:0.8;"/>
   </g>
   <g id="patch_100">
    <path d="M 388.273438 232.558125 
L 388.273438 214.131006 
" style="fill:none;stroke:#000000;stroke-linecap:square;stroke-linejoin:miter;stroke-width:0.8;"/>
   </g>
   <g id="patch_101">
    <path d="M 53.473438 232.558125 
L 388.273438 232.558125 
" style="fill:none;stroke:#000000;stroke-linecap:square;stroke-linejoin:miter;stroke-width:0.8;"/>
   </g>
   <g id="patch_102">
    <path d="M 53.473438 214.131006 
L 388.273438 214.131006 
" style="fill:none;stroke:#000000;stroke-linecap:square;stroke-linejoin:miter;stroke-width:0.8;"/>
   </g>
  </g>
 </g>
 <defs>
  <clipPath id="pd545a851c9">
   <rect height="18.427119" width="334.8" x="53.473438" y="15.118125"/>
  </clipPath>
  <clipPath id="p54f6222847">
   <rect height="18.427119" width="334.8" x="53.473438" y="37.230667"/>
  </clipPath>
  <clipPath id="p347776fff6">
   <rect height="18.427119" width="334.8" x="53.473438" y="59.34321"/>
  </clipPath>
  <clipPath id="p836a405ae8">
   <rect height="18.427119" width="334.8" x="53.473438" y="81.455752"/>
  </clipPath>
  <clipPath id="pb4bfe22424">
   <rect height="18.427119" width="334.8" x="53.473438" y="103.568294"/>
  </clipPath>
  <clipPath id="p3c9781fb43">
   <rect height="18.427119" width="334.8" x="53.473438" y="125.680837"/>
  </clipPath>
  <clipPath id="pc7e4cc4d91">
   <rect height="18.427119" width="334.8" x="53.473438" y="147.793379"/>
  </clipPath>
  <clipPath id="p4dfda21644">
   <rect height="18.427119" width="334.8" x="53.473438" y="169.905922"/>
  </clipPath>
  <clipPath id="p023b77c416">
   <rect height="18.427119" width="334.8" x="53.473438" y="192.018464"/>
  </clipPath>
  <clipPath id="pf00ff44a18">
   <rect height="18.427119" width="334.8" x="53.473438" y="214.131006"/>
  </clipPath>
 </defs>
</svg>
