<?xml version="1.0" encoding="utf-8" standalone="no"?>
<!DOCTYPE svg PUBLIC "-//W3C//DTD SVG 1.1//EN"
  "http://www.w3.org/Graphics/SVG/1.1/DTD/svg11.dtd">
<!-- Created with matplotlib (https://matplotlib.org/) -->
<svg height="297.90825pt" version="1.1" viewBox="0 0 372.249687 297.90825" width="372.249687pt" xmlns="http://www.w3.org/2000/svg" xmlns:xlink="http://www.w3.org/1999/xlink">
 <defs>
  <style type="text/css">
*{stroke-linecap:butt;stroke-linejoin:round;}
  </style>
 </defs>
 <g id="figure_1">
  <g id="patch_1">
   <path d="M 0 297.90825 
L 372.249687 297.90825 
L 372.249687 -0 
L 0 -0 
z
" style="fill:none;"/>
  </g>
  <g id="axes_1">
   <g id="patch_2">
    <path d="M 15.129688 32.398125 
L 372.249688 32.398125 
L 372.249688 15.118125 
L 15.129688 15.118125 
z
" style="fill:none;"/>
   </g>
   <g id="patch_3">
    <path clip-path="url(#p6215e0ae07)" d="M 28.497816 30.670125 
L 114.435784 30.670125 
L 114.435784 22.030125 
L 28.497816 22.030125 
z
" style="fill:#ff0000;stroke:#000000;stroke-linejoin:miter;"/>
   </g>
   <g id="patch_4">
    <path clip-path="url(#p6215e0ae07)" d="M 114.435784 30.670125 
L 162.179099 30.670125 
L 162.179099 22.030125 
L 114.435784 22.030125 
z
" style="fill:#00ff00;stroke:#000000;stroke-linejoin:miter;"/>
   </g>
   <g id="patch_5">
    <path clip-path="url(#p6215e0ae07)" d="M 162.179099 30.670125 
L 305.409046 30.670125 
L 305.409046 22.030125 
L 162.179099 22.030125 
z
" style="fill:#ff1ab9;stroke:#000000;stroke-linejoin:miter;"/>
   </g>
   <g id="patch_6">
    <path clip-path="url(#p6215e0ae07)" d="M 305.409046 30.670125 
L 362.701024 30.670125 
L 362.701024 22.030125 
L 305.409046 22.030125 
z
" style="fill:#ffd300;stroke:#000000;stroke-linejoin:miter;"/>
   </g>
   <g id="matplotlib.axis_1"/>
   <g id="matplotlib.axis_2">
    <g id="ytick_1"/>
    <g id="ytick_2"/>
   </g>
   <g id="patch_7">
    <path d="M 15.129688 32.398125 
L 15.129688 15.118125 
" style="fill:none;stroke:#000000;stroke-linecap:square;stroke-linejoin:miter;stroke-width:0.8;"/>
   </g>
   <g id="patch_8">
    <path d="M 372.249688 32.398125 
L 372.249688 15.118125 
" style="fill:none;stroke:#000000;stroke-linecap:square;stroke-linejoin:miter;stroke-width:0.8;"/>
   </g>
   <g id="patch_9">
    <path d="M 15.129688 32.398125 
L 372.249688 32.398125 
" style="fill:none;stroke:#000000;stroke-linecap:square;stroke-linejoin:miter;stroke-width:0.8;"/>
   </g>
   <g id="patch_10">
    <path d="M 15.129688 15.118125 
L 372.249688 15.118125 
" style="fill:none;stroke:#000000;stroke-linecap:square;stroke-linejoin:miter;stroke-width:0.8;"/>
   </g>
   <g id="text_1">
    <text style="font-family:DejaVu Sans;font-size:12px;font-style:normal;font-weight:normal;text-anchor:middle;" transform="rotate(-0, 193.689688, 9.118125)" x="193.689688" y="9.118125">Chr 18</text>
   </g>
  </g>
  <g id="axes_2">
   <g id="patch_11">
    <path d="M 15.129688 53.134125 
L 372.249688 53.134125 
L 372.249688 35.854125 
L 15.129688 35.854125 
z
" style="fill:none;"/>
   </g>
   <g id="patch_12">
    <path clip-path="url(#p696fe30052)" d="M 28.497816 51.406125 
L 114.435784 51.406125 
L 114.435784 42.766125 
L 28.497816 42.766125 
z
" style="fill:#ff0000;stroke:#000000;stroke-linejoin:miter;"/>
   </g>
   <g id="patch_13">
    <path clip-path="url(#p696fe30052)" d="M 114.435784 51.406125 
L 171.727762 51.406125 
L 171.727762 42.766125 
L 114.435784 42.766125 
z
" style="fill:#00ff00;stroke:#000000;stroke-linejoin:miter;"/>
   </g>
   <g id="patch_14">
    <path clip-path="url(#p696fe30052)" d="M 171.727762 51.406125 
L 219.471078 51.406125 
L 219.471078 42.766125 
L 171.727762 42.766125 
z
" style="fill:#ff1ab9;stroke:#000000;stroke-linejoin:miter;"/>
   </g>
   <g id="patch_15">
    <path clip-path="url(#p696fe30052)" d="M 219.471078 51.406125 
L 276.763056 51.406125 
L 276.763056 42.766125 
L 219.471078 42.766125 
z
" style="fill:#ffd300;stroke:#000000;stroke-linejoin:miter;"/>
   </g>
   <g id="patch_16">
    <path clip-path="url(#p696fe30052)" d="M 276.763056 51.406125 
L 372.249688 51.406125 
L 372.249688 42.766125 
L 276.763056 42.766125 
z
" style="fill:#005800;stroke:#000000;stroke-linejoin:miter;"/>
   </g>
   <g id="matplotlib.axis_3"/>
   <g id="matplotlib.axis_4">
    <g id="ytick_3"/>
    <g id="ytick_4"/>
    <g id="text_2">
     <text style="font-family:DejaVu Sans;font-size:10px;font-style:normal;font-weight:normal;" transform="translate(11.129688 31.216625)"/>
     <text style="font-family:DejaVu Sans;font-size:10px;font-style:normal;font-weight:normal;" transform="translate(3.18125 42.414437)">2   </text>
    </g>
   </g>
   <g id="patch_17">
    <path d="M 15.129688 53.134125 
L 15.129688 35.854125 
" style="fill:none;stroke:#000000;stroke-linecap:square;stroke-linejoin:miter;stroke-width:0.8;"/>
   </g>
   <g id="patch_18">
    <path d="M 372.249688 53.134125 
L 372.249688 35.854125 
" style="fill:none;stroke:#000000;stroke-linecap:square;stroke-linejoin:miter;stroke-width:0.8;"/>
   </g>
   <g id="patch_19">
    <path d="M 15.129688 53.134125 
L 372.249688 53.134125 
" style="fill:none;stroke:#000000;stroke-linecap:square;stroke-linejoin:miter;stroke-width:0.8;"/>
   </g>
   <g id="patch_20">
    <path d="M 15.129688 35.854125 
L 372.249688 35.854125 
" style="fill:none;stroke:#000000;stroke-linecap:square;stroke-linejoin:miter;stroke-width:0.8;"/>
   </g>
  </g>
  <g id="axes_3">
   <g id="patch_21">
    <path d="M 15.129688 73.870125 
L 372.249688 73.870125 
L 372.249688 56.590125 
L 15.129688 56.590125 
z
" style="fill:none;"/>
   </g>
   <g id="patch_22">
    <path clip-path="url(#p9807bf5a8c)" d="M 28.497816 72.142125 
L 104.887121 72.142125 
L 104.887121 63.502125 
L 28.497816 63.502125 
z
" style="fill:#ff0000;stroke:#000000;stroke-linejoin:miter;"/>
   </g>
   <g id="patch_23">
    <path clip-path="url(#p9807bf5a8c)" d="M 104.887121 72.142125 
L 238.568404 72.142125 
L 238.568404 63.502125 
L 104.887121 63.502125 
z
" style="fill:#00ff00;stroke:#000000;stroke-linejoin:miter;"/>
   </g>
   <g id="patch_24">
    <path clip-path="url(#p9807bf5a8c)" d="M 238.568404 72.142125 
L 324.506372 72.142125 
L 324.506372 63.502125 
L 238.568404 63.502125 
z
" style="fill:#ff1ab9;stroke:#000000;stroke-linejoin:miter;"/>
   </g>
   <g id="patch_25">
    <path clip-path="url(#p9807bf5a8c)" d="M 324.506372 72.142125 
L 362.701024 72.142125 
L 362.701024 63.502125 
L 324.506372 63.502125 
z
" style="fill:#ffd300;stroke:#000000;stroke-linejoin:miter;"/>
   </g>
   <g id="matplotlib.axis_5"/>
   <g id="matplotlib.axis_6">
    <g id="ytick_5"/>
    <g id="ytick_6"/>
    <g id="text_3">
     <text style="font-family:DejaVu Sans;font-size:10px;font-style:normal;font-weight:normal;" transform="translate(11.129688 51.952625)"/>
     <text style="font-family:DejaVu Sans;font-size:10px;font-style:normal;font-weight:normal;" transform="translate(3.18125 63.150437)">3   </text>
    </g>
   </g>
   <g id="patch_26">
    <path d="M 15.129688 73.870125 
L 15.129688 56.590125 
" style="fill:none;stroke:#000000;stroke-linecap:square;stroke-linejoin:miter;stroke-width:0.8;"/>
   </g>
   <g id="patch_27">
    <path d="M 372.249688 73.870125 
L 372.249688 56.590125 
" style="fill:none;stroke:#000000;stroke-linecap:square;stroke-linejoin:miter;stroke-width:0.8;"/>
   </g>
   <g id="patch_28">
    <path d="M 15.129688 73.870125 
L 372.249688 73.870125 
" style="fill:none;stroke:#000000;stroke-linecap:square;stroke-linejoin:miter;stroke-width:0.8;"/>
   </g>
   <g id="patch_29">
    <path d="M 15.129688 56.590125 
L 372.249688 56.590125 
" style="fill:none;stroke:#000000;stroke-linecap:square;stroke-linejoin:miter;stroke-width:0.8;"/>
   </g>
  </g>
  <g id="axes_4">
   <g id="patch_30">
    <path d="M 15.129688 94.606125 
L 372.249688 94.606125 
L 372.249688 77.326125 
L 15.129688 77.326125 
z
" style="fill:none;"/>
   </g>
   <g id="patch_31">
    <path clip-path="url(#pda4048fe0b)" d="M 28.497816 92.878125 
L 133.53311 92.878125 
L 133.53311 84.238125 
L 28.497816 84.238125 
z
" style="fill:#ff0000;stroke:#000000;stroke-linejoin:miter;"/>
   </g>
   <g id="patch_32">
    <path clip-path="url(#pda4048fe0b)" d="M 133.53311 92.878125 
L 209.922415 92.878125 
L 209.922415 84.238125 
L 133.53311 84.238125 
z
" style="fill:#00ff00;stroke:#000000;stroke-linejoin:miter;"/>
   </g>
   <g id="patch_33">
    <path clip-path="url(#pda4048fe0b)" d="M 209.922415 92.878125 
L 257.66573 92.878125 
L 257.66573 84.238125 
L 209.922415 84.238125 
z
" style="fill:#ff1ab9;stroke:#000000;stroke-linejoin:miter;"/>
   </g>
   <g id="patch_34">
    <path clip-path="url(#pda4048fe0b)" d="M 257.66573 92.878125 
L 314.957709 92.878125 
L 314.957709 84.238125 
L 257.66573 84.238125 
z
" style="fill:#ffd300;stroke:#000000;stroke-linejoin:miter;"/>
   </g>
   <g id="patch_35">
    <path clip-path="url(#pda4048fe0b)" d="M 314.957709 92.878125 
L 362.701024 92.878125 
L 362.701024 84.238125 
L 314.957709 84.238125 
z
" style="fill:#005800;stroke:#000000;stroke-linejoin:miter;"/>
   </g>
   <g id="matplotlib.axis_7"/>
   <g id="matplotlib.axis_8">
    <g id="ytick_7"/>
    <g id="ytick_8"/>
    <g id="text_4">
     <text style="font-family:DejaVu Sans;font-size:10px;font-style:normal;font-weight:normal;" transform="translate(11.129688 72.688625)"/>
     <text style="font-family:DejaVu Sans;font-size:10px;font-style:normal;font-weight:normal;" transform="translate(3.18125 83.886437)">4   </text>
    </g>
   </g>
   <g id="patch_36">
    <path d="M 15.129688 94.606125 
L 15.129688 77.326125 
" style="fill:none;stroke:#000000;stroke-linecap:square;stroke-linejoin:miter;stroke-width:0.8;"/>
   </g>
   <g id="patch_37">
    <path d="M 372.249688 94.606125 
L 372.249688 77.326125 
" style="fill:none;stroke:#000000;stroke-linecap:square;stroke-linejoin:miter;stroke-width:0.8;"/>
   </g>
   <g id="patch_38">
    <path d="M 15.129688 94.606125 
L 372.249688 94.606125 
" style="fill:none;stroke:#000000;stroke-linecap:square;stroke-linejoin:miter;stroke-width:0.8;"/>
   </g>
   <g id="patch_39">
    <path d="M 15.129688 77.326125 
L 372.249688 77.326125 
" style="fill:none;stroke:#000000;stroke-linecap:square;stroke-linejoin:miter;stroke-width:0.8;"/>
   </g>
  </g>
  <g id="axes_5">
   <g id="patch_40">
    <path d="M 15.129688 115.342125 
L 372.249688 115.342125 
L 372.249688 98.062125 
L 15.129688 98.062125 
z
" style="fill:none;"/>
   </g>
   <g id="patch_41">
    <path clip-path="url(#p405c058061)" d="M 28.497816 113.614125 
L 66.692468 113.614125 
L 66.692468 104.974125 
L 28.497816 104.974125 
z
" style="fill:#ff0000;stroke:#000000;stroke-linejoin:miter;"/>
   </g>
   <g id="patch_42">
    <path clip-path="url(#p405c058061)" d="M 66.692468 113.614125 
L 123.984447 113.614125 
L 123.984447 104.974125 
L 66.692468 104.974125 
z
" style="fill:#00ff00;stroke:#000000;stroke-linejoin:miter;"/>
   </g>
   <g id="patch_43">
    <path clip-path="url(#p405c058061)" d="M 123.984447 113.614125 
L 229.019741 113.614125 
L 229.019741 104.974125 
L 123.984447 104.974125 
z
" style="fill:#ff1ab9;stroke:#000000;stroke-linejoin:miter;"/>
   </g>
   <g id="patch_44">
    <path clip-path="url(#p405c058061)" d="M 229.019741 113.614125 
L 276.763056 113.614125 
L 276.763056 104.974125 
L 229.019741 104.974125 
z
" style="fill:#ffd300;stroke:#000000;stroke-linejoin:miter;"/>
   </g>
   <g id="patch_45">
    <path clip-path="url(#p405c058061)" d="M 276.763056 113.614125 
L 372.249688 113.614125 
L 372.249688 104.974125 
L 276.763056 104.974125 
z
" style="fill:#005800;stroke:#000000;stroke-linejoin:miter;"/>
   </g>
   <g id="matplotlib.axis_9"/>
   <g id="matplotlib.axis_10">
    <g id="ytick_9"/>
    <g id="ytick_10"/>
    <g id="text_5">
     <text style="font-family:DejaVu Sans;font-size:10px;font-style:normal;font-weight:normal;" transform="translate(11.129688 93.424625)"/>
     <text style="font-family:DejaVu Sans;font-size:10px;font-style:normal;font-weight:normal;" transform="translate(3.18125 104.622437)">5   </text>
    </g>
   </g>
   <g id="patch_46">
    <path d="M 15.129688 115.342125 
L 15.129688 98.062125 
" style="fill:none;stroke:#000000;stroke-linecap:square;stroke-linejoin:miter;stroke-width:0.8;"/>
   </g>
   <g id="patch_47">
    <path d="M 372.249688 115.342125 
L 372.249688 98.062125 
" style="fill:none;stroke:#000000;stroke-linecap:square;stroke-linejoin:miter;stroke-width:0.8;"/>
   </g>
   <g id="patch_48">
    <path d="M 15.129688 115.342125 
L 372.249688 115.342125 
" style="fill:none;stroke:#000000;stroke-linecap:square;stroke-linejoin:miter;stroke-width:0.8;"/>
   </g>
   <g id="patch_49">
    <path d="M 15.129688 98.062125 
L 372.249688 98.062125 
" style="fill:none;stroke:#000000;stroke-linecap:square;stroke-linejoin:miter;stroke-width:0.8;"/>
   </g>
  </g>
  <g id="axes_6">
   <g id="patch_50">
    <path d="M 15.129688 136.078125 
L 372.249688 136.078125 
L 372.249688 118.798125 
L 15.129688 118.798125 
z
" style="fill:none;"/>
   </g>
   <g id="patch_51">
    <path clip-path="url(#pc7490c557a)" d="M 28.497816 134.350125 
L 66.692468 134.350125 
L 66.692468 125.710125 
L 28.497816 125.710125 
z
" style="fill:#ff0000;stroke:#000000;stroke-linejoin:miter;"/>
   </g>
   <g id="patch_52">
    <path clip-path="url(#pc7490c557a)" d="M 66.692468 134.350125 
L 133.53311 134.350125 
L 133.53311 125.710125 
L 66.692468 125.710125 
z
" style="fill:#00ff00;stroke:#000000;stroke-linejoin:miter;"/>
   </g>
   <g id="patch_53">
    <path clip-path="url(#pc7490c557a)" d="M 133.53311 134.350125 
L 181.276425 134.350125 
L 181.276425 125.710125 
L 133.53311 125.710125 
z
" style="fill:#ff1ab9;stroke:#000000;stroke-linejoin:miter;"/>
   </g>
   <g id="patch_54">
    <path clip-path="url(#pc7490c557a)" d="M 181.276425 134.350125 
L 276.763056 134.350125 
L 276.763056 125.710125 
L 181.276425 125.710125 
z
" style="fill:#ffd300;stroke:#000000;stroke-linejoin:miter;"/>
   </g>
   <g id="patch_55">
    <path clip-path="url(#pc7490c557a)" d="M 276.763056 134.350125 
L 324.506372 134.350125 
L 324.506372 125.710125 
L 276.763056 125.710125 
z
" style="fill:#005800;stroke:#000000;stroke-linejoin:miter;"/>
   </g>
   <g id="patch_56">
    <path clip-path="url(#pc7490c557a)" d="M 324.506372 134.350125 
L 372.249688 134.350125 
L 372.249688 125.710125 
L 324.506372 125.710125 
z
" style="fill:#8484ff;stroke:#000000;stroke-linejoin:miter;"/>
   </g>
   <g id="matplotlib.axis_11"/>
   <g id="matplotlib.axis_12">
    <g id="ytick_11"/>
    <g id="ytick_12"/>
    <g id="text_6">
     <text style="font-family:DejaVu Sans;font-size:10px;font-style:normal;font-weight:normal;" transform="translate(11.129688 114.160625)"/>
     <text style="font-family:DejaVu Sans;font-size:10px;font-style:normal;font-weight:normal;" transform="translate(3.18125 125.358437)">6   </text>
    </g>
   </g>
   <g id="patch_57">
    <path d="M 15.129688 136.078125 
L 15.129688 118.798125 
" style="fill:none;stroke:#000000;stroke-linecap:square;stroke-linejoin:miter;stroke-width:0.8;"/>
   </g>
   <g id="patch_58">
    <path d="M 372.249688 136.078125 
L 372.249688 118.798125 
" style="fill:none;stroke:#000000;stroke-linecap:square;stroke-linejoin:miter;stroke-width:0.8;"/>
   </g>
   <g id="patch_59">
    <path d="M 15.129688 136.078125 
L 372.249688 136.078125 
" style="fill:none;stroke:#000000;stroke-linecap:square;stroke-linejoin:miter;stroke-width:0.8;"/>
   </g>
   <g id="patch_60">
    <path d="M 15.129688 118.798125 
L 372.249688 118.798125 
" style="fill:none;stroke:#000000;stroke-linecap:square;stroke-linejoin:miter;stroke-width:0.8;"/>
   </g>
  </g>
  <g id="axes_7">
   <g id="patch_61">
    <path d="M 15.129688 156.814125 
L 372.249688 156.814125 
L 372.249688 139.534125 
L 15.129688 139.534125 
z
" style="fill:none;"/>
   </g>
   <g id="patch_62">
    <path clip-path="url(#pbb7d700d63)" d="M 38.046479 155.086125 
L 85.789794 155.086125 
L 85.789794 146.446125 
L 38.046479 146.446125 
z
" style="fill:#ff0000;stroke:#000000;stroke-linejoin:miter;"/>
   </g>
   <g id="patch_63">
    <path clip-path="url(#pbb7d700d63)" d="M 85.789794 155.086125 
L 123.984447 155.086125 
L 123.984447 146.446125 
L 85.789794 146.446125 
z
" style="fill:#00ff00;stroke:#000000;stroke-linejoin:miter;"/>
   </g>
   <g id="patch_64">
    <path clip-path="url(#pbb7d700d63)" d="M 123.984447 155.086125 
L 229.019741 155.086125 
L 229.019741 146.446125 
L 123.984447 146.446125 
z
" style="fill:#ff1ab9;stroke:#000000;stroke-linejoin:miter;"/>
   </g>
   <g id="patch_65">
    <path clip-path="url(#pbb7d700d63)" d="M 229.019741 155.086125 
L 324.506372 155.086125 
L 324.506372 146.446125 
L 229.019741 146.446125 
z
" style="fill:#ffd300;stroke:#000000;stroke-linejoin:miter;"/>
   </g>
   <g id="patch_66">
    <path clip-path="url(#pbb7d700d63)" d="M 324.506372 155.086125 
L 362.701024 155.086125 
L 362.701024 146.446125 
L 324.506372 146.446125 
z
" style="fill:#005800;stroke:#000000;stroke-linejoin:miter;"/>
   </g>
   <g id="matplotlib.axis_13"/>
   <g id="matplotlib.axis_14">
    <g id="ytick_13"/>
    <g id="ytick_14"/>
    <g id="text_7">
     <text style="font-family:DejaVu Sans;font-size:10px;font-style:normal;font-weight:normal;" transform="translate(11.129688 134.896625)"/>
     <text style="font-family:DejaVu Sans;font-size:10px;font-style:normal;font-weight:normal;" transform="translate(3.18125 146.094437)">7   </text>
    </g>
   </g>
   <g id="patch_67">
    <path d="M 15.129688 156.814125 
L 15.129688 139.534125 
" style="fill:none;stroke:#000000;stroke-linecap:square;stroke-linejoin:miter;stroke-width:0.8;"/>
   </g>
   <g id="patch_68">
    <path d="M 372.249688 156.814125 
L 372.249688 139.534125 
" style="fill:none;stroke:#000000;stroke-linecap:square;stroke-linejoin:miter;stroke-width:0.8;"/>
   </g>
   <g id="patch_69">
    <path d="M 15.129688 156.814125 
L 372.249688 156.814125 
" style="fill:none;stroke:#000000;stroke-linecap:square;stroke-linejoin:miter;stroke-width:0.8;"/>
   </g>
   <g id="patch_70">
    <path d="M 15.129688 139.534125 
L 372.249688 139.534125 
" style="fill:none;stroke:#000000;stroke-linecap:square;stroke-linejoin:miter;stroke-width:0.8;"/>
   </g>
  </g>
  <g id="axes_8">
   <g id="patch_71">
    <path d="M 15.129688 177.550125 
L 372.249688 177.550125 
L 372.249688 160.270125 
L 15.129688 160.270125 
z
" style="fill:none;"/>
   </g>
   <g id="patch_72">
    <path clip-path="url(#p9b21593d80)" d="M 28.497816 175.822125 
L 162.179099 175.822125 
L 162.179099 167.182125 
L 28.497816 167.182125 
z
" style="fill:#ff0000;stroke:#000000;stroke-linejoin:miter;"/>
   </g>
   <g id="patch_73">
    <path clip-path="url(#p9b21593d80)" d="M 162.179099 175.822125 
L 248.117067 175.822125 
L 248.117067 167.182125 
L 162.179099 167.182125 
z
" style="fill:#00ff00;stroke:#000000;stroke-linejoin:miter;"/>
   </g>
   <g id="patch_74">
    <path clip-path="url(#p9b21593d80)" d="M 248.117067 175.822125 
L 314.957709 175.822125 
L 314.957709 167.182125 
L 248.117067 167.182125 
z
" style="fill:#ff1ab9;stroke:#000000;stroke-linejoin:miter;"/>
   </g>
   <g id="patch_75">
    <path clip-path="url(#p9b21593d80)" d="M 314.957709 175.822125 
L 372.249688 175.822125 
L 372.249688 167.182125 
L 314.957709 167.182125 
z
" style="fill:#ffd300;stroke:#000000;stroke-linejoin:miter;"/>
   </g>
   <g id="matplotlib.axis_15"/>
   <g id="matplotlib.axis_16">
    <g id="ytick_15"/>
    <g id="ytick_16"/>
    <g id="text_8">
     <text style="font-family:DejaVu Sans;font-size:10px;font-style:normal;font-weight:normal;" transform="translate(11.129688 155.632625)"/>
     <text style="font-family:DejaVu Sans;font-size:10px;font-style:normal;font-weight:normal;" transform="translate(3.18125 166.830437)">8   </text>
    </g>
   </g>
   <g id="patch_76">
    <path d="M 15.129688 177.550125 
L 15.129688 160.270125 
" style="fill:none;stroke:#000000;stroke-linecap:square;stroke-linejoin:miter;stroke-width:0.8;"/>
   </g>
   <g id="patch_77">
    <path d="M 372.249688 177.550125 
L 372.249688 160.270125 
" style="fill:none;stroke:#000000;stroke-linecap:square;stroke-linejoin:miter;stroke-width:0.8;"/>
   </g>
   <g id="patch_78">
    <path d="M 15.129688 177.550125 
L 372.249688 177.550125 
" style="fill:none;stroke:#000000;stroke-linecap:square;stroke-linejoin:miter;stroke-width:0.8;"/>
   </g>
   <g id="patch_79">
    <path d="M 15.129688 160.270125 
L 372.249688 160.270125 
" style="fill:none;stroke:#000000;stroke-linecap:square;stroke-linejoin:miter;stroke-width:0.8;"/>
   </g>
  </g>
  <g id="axes_9">
   <g id="patch_80">
    <path d="M 15.129688 198.286125 
L 372.249688 198.286125 
L 372.249688 181.006125 
L 15.129688 181.006125 
z
" style="fill:none;"/>
   </g>
   <g id="patch_81">
    <path clip-path="url(#p65ef2296d0)" d="M 28.497816 196.558125 
L 85.789794 196.558125 
L 85.789794 187.918125 
L 28.497816 187.918125 
z
" style="fill:#ff0000;stroke:#000000;stroke-linejoin:miter;"/>
   </g>
   <g id="patch_82">
    <path clip-path="url(#p65ef2296d0)" d="M 85.789794 196.558125 
L 162.179099 196.558125 
L 162.179099 187.918125 
L 85.789794 187.918125 
z
" style="fill:#00ff00;stroke:#000000;stroke-linejoin:miter;"/>
   </g>
   <g id="patch_83">
    <path clip-path="url(#p65ef2296d0)" d="M 162.179099 196.558125 
L 267.214393 196.558125 
L 267.214393 187.918125 
L 162.179099 187.918125 
z
" style="fill:#ff1ab9;stroke:#000000;stroke-linejoin:miter;"/>
   </g>
   <g id="patch_84">
    <path clip-path="url(#p65ef2296d0)" d="M 267.214393 196.558125 
L 324.506372 196.558125 
L 324.506372 187.918125 
L 267.214393 187.918125 
z
" style="fill:#ffd300;stroke:#000000;stroke-linejoin:miter;"/>
   </g>
   <g id="patch_85">
    <path clip-path="url(#p65ef2296d0)" d="M 324.506372 196.558125 
L 362.701024 196.558125 
L 362.701024 187.918125 
L 324.506372 187.918125 
z
" style="fill:#005800;stroke:#000000;stroke-linejoin:miter;"/>
   </g>
   <g id="matplotlib.axis_17"/>
   <g id="matplotlib.axis_18">
    <g id="ytick_17"/>
    <g id="ytick_18"/>
    <g id="text_9">
     <text style="font-family:DejaVu Sans;font-size:10px;font-style:normal;font-weight:normal;" transform="translate(11.129688 176.368625)"/>
     <text style="font-family:DejaVu Sans;font-size:10px;font-style:normal;font-weight:normal;" transform="translate(3.18125 187.566437)">9   </text>
    </g>
   </g>
   <g id="patch_86">
    <path d="M 15.129688 198.286125 
L 15.129688 181.006125 
" style="fill:none;stroke:#000000;stroke-linecap:square;stroke-linejoin:miter;stroke-width:0.8;"/>
   </g>
   <g id="patch_87">
    <path d="M 372.249688 198.286125 
L 372.249688 181.006125 
" style="fill:none;stroke:#000000;stroke-linecap:square;stroke-linejoin:miter;stroke-width:0.8;"/>
   </g>
   <g id="patch_88">
    <path d="M 15.129688 198.286125 
L 372.249688 198.286125 
" style="fill:none;stroke:#000000;stroke-linecap:square;stroke-linejoin:miter;stroke-width:0.8;"/>
   </g>
   <g id="patch_89">
    <path d="M 15.129688 181.006125 
L 372.249688 181.006125 
" style="fill:none;stroke:#000000;stroke-linecap:square;stroke-linejoin:miter;stroke-width:0.8;"/>
   </g>
  </g>
  <g id="axes_10">
   <g id="patch_90">
    <path d="M 15.129688 219.022125 
L 372.249688 219.022125 
L 372.249688 201.742125 
L 15.129688 201.742125 
z
" style="fill:none;"/>
   </g>
   <g id="patch_91">
    <path clip-path="url(#p8ef23525d4)" d="M 28.497816 217.294125 
L 76.241131 217.294125 
L 76.241131 208.654125 
L 28.497816 208.654125 
z
" style="fill:#ff0000;stroke:#000000;stroke-linejoin:miter;"/>
   </g>
   <g id="patch_92">
    <path clip-path="url(#p8ef23525d4)" d="M 76.241131 217.294125 
L 123.984447 217.294125 
L 123.984447 208.654125 
L 76.241131 208.654125 
z
" style="fill:#00ff00;stroke:#000000;stroke-linejoin:miter;"/>
   </g>
   <g id="patch_93">
    <path clip-path="url(#p8ef23525d4)" d="M 123.984447 217.294125 
L 190.825089 217.294125 
L 190.825089 208.654125 
L 123.984447 208.654125 
z
" style="fill:#ff1ab9;stroke:#000000;stroke-linejoin:miter;"/>
   </g>
   <g id="patch_94">
    <path clip-path="url(#p8ef23525d4)" d="M 190.825089 217.294125 
L 248.117067 217.294125 
L 248.117067 208.654125 
L 190.825089 208.654125 
z
" style="fill:#ffd300;stroke:#000000;stroke-linejoin:miter;"/>
   </g>
   <g id="patch_95">
    <path clip-path="url(#p8ef23525d4)" d="M 248.117067 217.294125 
L 334.055035 217.294125 
L 334.055035 208.654125 
L 248.117067 208.654125 
z
" style="fill:#005800;stroke:#000000;stroke-linejoin:miter;"/>
   </g>
   <g id="patch_96">
    <path clip-path="url(#p8ef23525d4)" d="M 334.055035 217.294125 
L 372.249687 217.294125 
L 372.249687 208.654125 
L 334.055035 208.654125 
z
" style="fill:#8484ff;stroke:#000000;stroke-linejoin:miter;"/>
   </g>
   <g id="matplotlib.axis_19"/>
   <g id="matplotlib.axis_20">
    <g id="ytick_19"/>
    <g id="ytick_20"/>
    <g id="text_10">
     <text style="font-family:DejaVu Sans;font-size:10px;font-style:normal;font-weight:normal;" transform="translate(11.129688 197.104625)"/>
     <text style="font-family:DejaVu Sans;font-size:10px;font-style:normal;font-weight:normal;" transform="translate(0 208.302437)">10   </text>
    </g>
   </g>
   <g id="patch_97">
    <path d="M 15.129688 219.022125 
L 15.129688 201.742125 
" style="fill:none;stroke:#000000;stroke-linecap:square;stroke-linejoin:miter;stroke-width:0.8;"/>
   </g>
   <g id="patch_98">
    <path d="M 372.249688 219.022125 
L 372.249688 201.742125 
" style="fill:none;stroke:#000000;stroke-linecap:square;stroke-linejoin:miter;stroke-width:0.8;"/>
   </g>
   <g id="patch_99">
    <path d="M 15.129688 219.022125 
L 372.249688 219.022125 
" style="fill:none;stroke:#000000;stroke-linecap:square;stroke-linejoin:miter;stroke-width:0.8;"/>
   </g>
   <g id="patch_100">
    <path d="M 15.129688 201.742125 
L 372.249688 201.742125 
" style="fill:none;stroke:#000000;stroke-linecap:square;stroke-linejoin:miter;stroke-width:0.8;"/>
   </g>
  </g>
  <g id="axes_11">
   <g id="patch_101">
    <path d="M 15.129688 239.758125 
L 372.249688 239.758125 
L 372.249688 222.478125 
L 15.129688 222.478125 
z
" style="fill:none;"/>
   </g>
   <g id="patch_102">
    <path clip-path="url(#p5052e6240a)" d="M 28.497816 238.030125 
L 85.789794 238.030125 
L 85.789794 229.390125 
L 28.497816 229.390125 
z
" style="fill:#ff0000;stroke:#000000;stroke-linejoin:miter;"/>
   </g>
   <g id="patch_103">
    <path clip-path="url(#p5052e6240a)" d="M 85.789794 238.030125 
L 190.825089 238.030125 
L 190.825089 229.390125 
L 85.789794 229.390125 
z
" style="fill:#00ff00;stroke:#000000;stroke-linejoin:miter;"/>
   </g>
   <g id="patch_104">
    <path clip-path="url(#p5052e6240a)" d="M 190.825089 238.030125 
L 267.214393 238.030125 
L 267.214393 229.390125 
L 190.825089 229.390125 
z
" style="fill:#ff1ab9;stroke:#000000;stroke-linejoin:miter;"/>
   </g>
   <g id="patch_105">
    <path clip-path="url(#p5052e6240a)" d="M 267.214393 238.030125 
L 353.152361 238.030125 
L 353.152361 229.390125 
L 267.214393 229.390125 
z
" style="fill:#ffd300;stroke:#000000;stroke-linejoin:miter;"/>
   </g>
   <g id="matplotlib.axis_21"/>
   <g id="matplotlib.axis_22">
    <g id="ytick_21"/>
    <g id="ytick_22"/>
    <g id="text_11">
     <text style="font-family:DejaVu Sans;font-size:10px;font-style:normal;font-weight:normal;" transform="translate(11.129688 217.840625)"/>
     <text style="font-family:DejaVu Sans;font-size:10px;font-style:normal;font-weight:normal;" transform="translate(0 229.038438)">11   </text>
    </g>
   </g>
   <g id="patch_106">
    <path d="M 15.129688 239.758125 
L 15.129688 222.478125 
" style="fill:none;stroke:#000000;stroke-linecap:square;stroke-linejoin:miter;stroke-width:0.8;"/>
   </g>
   <g id="patch_107">
    <path d="M 372.249688 239.758125 
L 372.249688 222.478125 
" style="fill:none;stroke:#000000;stroke-linecap:square;stroke-linejoin:miter;stroke-width:0.8;"/>
   </g>
   <g id="patch_108">
    <path d="M 15.129688 239.758125 
L 372.249688 239.758125 
" style="fill:none;stroke:#000000;stroke-linecap:square;stroke-linejoin:miter;stroke-width:0.8;"/>
   </g>
   <g id="patch_109">
    <path d="M 15.129688 222.478125 
L 372.249688 222.478125 
" style="fill:none;stroke:#000000;stroke-linecap:square;stroke-linejoin:miter;stroke-width:0.8;"/>
   </g>
  </g>
  <g id="axes_12">
   <g id="patch_110">
    <path d="M 15.129688 260.494125 
L 372.249688 260.494125 
L 372.249688 243.214125 
L 15.129688 243.214125 
z
" style="fill:none;"/>
   </g>
   <g id="patch_111">
    <path clip-path="url(#pb09201dcdd)" d="M 28.497816 258.766125 
L 66.692468 258.766125 
L 66.692468 250.126125 
L 28.497816 250.126125 
z
" style="fill:#ff0000;stroke:#000000;stroke-linejoin:miter;"/>
   </g>
   <g id="patch_112">
    <path clip-path="url(#pb09201dcdd)" d="M 66.692468 258.766125 
L 162.179099 258.766125 
L 162.179099 250.126125 
L 66.692468 250.126125 
z
" style="fill:#00ff00;stroke:#000000;stroke-linejoin:miter;"/>
   </g>
   <g id="patch_113">
    <path clip-path="url(#pb09201dcdd)" d="M 162.179099 258.766125 
L 229.019741 258.766125 
L 229.019741 250.126125 
L 162.179099 250.126125 
z
" style="fill:#ff1ab9;stroke:#000000;stroke-linejoin:miter;"/>
   </g>
   <g id="patch_114">
    <path clip-path="url(#pb09201dcdd)" d="M 229.019741 258.766125 
L 362.701024 258.766125 
L 362.701024 250.126125 
L 229.019741 250.126125 
z
" style="fill:#ffd300;stroke:#000000;stroke-linejoin:miter;"/>
   </g>
   <g id="matplotlib.axis_23"/>
   <g id="matplotlib.axis_24">
    <g id="ytick_23"/>
    <g id="ytick_24"/>
    <g id="text_12">
     <text style="font-family:DejaVu Sans;font-size:10px;font-style:normal;font-weight:normal;" transform="translate(11.129688 238.576625)"/>
     <text style="font-family:DejaVu Sans;font-size:10px;font-style:normal;font-weight:normal;" transform="translate(0 249.774438)">12   </text>
    </g>
   </g>
   <g id="patch_115">
    <path d="M 15.129688 260.494125 
L 15.129688 243.214125 
" style="fill:none;stroke:#000000;stroke-linecap:square;stroke-linejoin:miter;stroke-width:0.8;"/>
   </g>
   <g id="patch_116">
    <path d="M 372.249688 260.494125 
L 372.249688 243.214125 
" style="fill:none;stroke:#000000;stroke-linecap:square;stroke-linejoin:miter;stroke-width:0.8;"/>
   </g>
   <g id="patch_117">
    <path d="M 15.129688 260.494125 
L 372.249688 260.494125 
" style="fill:none;stroke:#000000;stroke-linecap:square;stroke-linejoin:miter;stroke-width:0.8;"/>
   </g>
   <g id="patch_118">
    <path d="M 15.129688 243.214125 
L 372.249688 243.214125 
" style="fill:none;stroke:#000000;stroke-linecap:square;stroke-linejoin:miter;stroke-width:0.8;"/>
   </g>
  </g>
  <g id="axes_13">
   <g id="patch_119">
    <path d="M 15.129688 281.230125 
L 372.249688 281.230125 
L 372.249688 263.950125 
L 15.129688 263.950125 
z
" style="fill:none;"/>
   </g>
   <g id="patch_120">
    <path clip-path="url(#p0bef9a310a)" d="M 28.497816 279.502125 
L 76.241131 279.502125 
L 76.241131 270.862125 
L 28.497816 270.862125 
z
" style="fill:#ff0000;stroke:#000000;stroke-linejoin:miter;"/>
   </g>
   <g id="patch_121">
    <path clip-path="url(#p0bef9a310a)" d="M 76.241131 279.502125 
L 162.179099 279.502125 
L 162.179099 270.862125 
L 76.241131 270.862125 
z
" style="fill:#00ff00;stroke:#000000;stroke-linejoin:miter;"/>
   </g>
   <g id="patch_122">
    <path clip-path="url(#p0bef9a310a)" d="M 162.179099 279.502125 
L 267.214393 279.502125 
L 267.214393 270.862125 
L 162.179099 270.862125 
z
" style="fill:#ff1ab9;stroke:#000000;stroke-linejoin:miter;"/>
   </g>
   <g id="patch_123">
    <path clip-path="url(#p0bef9a310a)" d="M 267.214393 279.502125 
L 362.701024 279.502125 
L 362.701024 270.862125 
L 267.214393 270.862125 
z
" style="fill:#ffd300;stroke:#000000;stroke-linejoin:miter;"/>
   </g>
   <g id="matplotlib.axis_25">
    <g id="xtick_1">
     <g id="line2d_1">
      <defs>
       <path d="M 0 0 
L 0 3.5 
" id="m6aeeeb509c" style="stroke:#000000;stroke-width:0.8;"/>
      </defs>
      <g>
       <use style="stroke:#000000;stroke-width:0.8;" x="18.949153" xlink:href="#m6aeeeb509c" y="281.230125"/>
      </g>
     </g>
     <g id="text_13">
      <text style="font-family:DejaVu Sans;font-size:10px;font-style:normal;font-weight:normal;text-anchor:middle;" transform="rotate(-0, 18.949153, 295.828563)" x="18.949153" y="295.828563">0</text>
     </g>
    </g>
    <g id="xtick_2">
     <g id="line2d_2">
      <g>
       <use style="stroke:#000000;stroke-width:0.8;" x="95.338458" xlink:href="#m6aeeeb509c" y="281.230125"/>
      </g>
     </g>
     <g id="text_14">
      <text style="font-family:DejaVu Sans;font-size:10px;font-style:normal;font-weight:normal;text-anchor:middle;" transform="rotate(-0, 95.338458, 295.828563)" x="95.338458" y="295.828563">20</text>
     </g>
    </g>
    <g id="xtick_3">
     <g id="line2d_3">
      <g>
       <use style="stroke:#000000;stroke-width:0.8;" x="171.727762" xlink:href="#m6aeeeb509c" y="281.230125"/>
      </g>
     </g>
     <g id="text_15">
      <text style="font-family:DejaVu Sans;font-size:10px;font-style:normal;font-weight:normal;text-anchor:middle;" transform="rotate(-0, 171.727762, 295.828563)" x="171.727762" y="295.828563">40</text>
     </g>
    </g>
    <g id="xtick_4">
     <g id="line2d_4">
      <g>
       <use style="stroke:#000000;stroke-width:0.8;" x="248.117067" xlink:href="#m6aeeeb509c" y="281.230125"/>
      </g>
     </g>
     <g id="text_16">
      <text style="font-family:DejaVu Sans;font-size:10px;font-style:normal;font-weight:normal;text-anchor:middle;" transform="rotate(-0, 248.117067, 295.828563)" x="248.117067" y="295.828563">60</text>
     </g>
    </g>
    <g id="xtick_5">
     <g id="line2d_5">
      <g>
       <use style="stroke:#000000;stroke-width:0.8;" x="324.506372" xlink:href="#m6aeeeb509c" y="281.230125"/>
      </g>
     </g>
     <g id="text_17">
      <text style="font-family:DejaVu Sans;font-size:10px;font-style:normal;font-weight:normal;text-anchor:middle;" transform="rotate(-0, 324.506372, 295.828563)" x="324.506372" y="295.828563">80</text>
     </g>
    </g>
   </g>
   <g id="matplotlib.axis_26">
    <g id="ytick_25"/>
    <g id="ytick_26"/>
    <g id="text_18">
     <text style="font-family:DejaVu Sans;font-size:10px;font-style:normal;font-weight:normal;" transform="translate(11.129688 259.312625)"/>
     <text style="font-family:DejaVu Sans;font-size:10px;font-style:normal;font-weight:normal;" transform="translate(0 270.510438)">13   </text>
    </g>
   </g>
   <g id="patch_124">
    <path d="M 15.129688 281.230125 
L 15.129688 263.950125 
" style="fill:none;stroke:#000000;stroke-linecap:square;stroke-linejoin:miter;stroke-width:0.8;"/>
   </g>
   <g id="patch_125">
    <path d="M 372.249688 281.230125 
L 372.249688 263.950125 
" style="fill:none;stroke:#000000;stroke-linecap:square;stroke-linejoin:miter;stroke-width:0.8;"/>
   </g>
   <g id="patch_126">
    <path d="M 15.129688 281.230125 
L 372.249688 281.230125 
" style="fill:none;stroke:#000000;stroke-linecap:square;stroke-linejoin:miter;stroke-width:0.8;"/>
   </g>
   <g id="patch_127">
    <path d="M 15.129688 263.950125 
L 372.249688 263.950125 
" style="fill:none;stroke:#000000;stroke-linecap:square;stroke-linejoin:miter;stroke-width:0.8;"/>
   </g>
  </g>
 </g>
 <defs>
  <clipPath id="p6215e0ae07">
   <rect height="17.28" width="357.12" x="15.129688" y="15.118125"/>
  </clipPath>
  <clipPath id="p696fe30052">
   <rect height="17.28" width="357.12" x="15.129688" y="35.854125"/>
  </clipPath>
  <clipPath id="p9807bf5a8c">
   <rect height="17.28" width="357.12" x="15.129688" y="56.590125"/>
  </clipPath>
  <clipPath id="pda4048fe0b">
   <rect height="17.28" width="357.12" x="15.129688" y="77.326125"/>
  </clipPath>
  <clipPath id="p405c058061">
   <rect height="17.28" width="357.12" x="15.129688" y="98.062125"/>
  </clipPath>
  <clipPath id="pc7490c557a">
   <rect height="17.28" width="357.12" x="15.129688" y="118.798125"/>
  </clipPath>
  <clipPath id="pbb7d700d63">
   <rect height="17.28" width="357.12" x="15.129688" y="139.534125"/>
  </clipPath>
  <clipPath id="p9b21593d80">
   <rect height="17.28" width="357.12" x="15.129688" y="160.270125"/>
  </clipPath>
  <clipPath id="p65ef2296d0">
   <rect height="17.28" width="357.12" x="15.129688" y="181.006125"/>
  </clipPath>
  <clipPath id="p8ef23525d4">
   <rect height="17.28" width="357.12" x="15.129688" y="201.742125"/>
  </clipPath>
  <clipPath id="p5052e6240a">
   <rect height="17.28" width="357.12" x="15.129688" y="222.478125"/>
  </clipPath>
  <clipPath id="pb09201dcdd">
   <rect height="17.28" width="357.12" x="15.129688" y="243.214125"/>
  </clipPath>
  <clipPath id="p0bef9a310a">
   <rect height="17.28" width="357.12" x="15.129688" y="263.950125"/>
  </clipPath>
 </defs>
</svg>
