<?xml version="1.0" encoding="utf-8" standalone="no"?>
<!DOCTYPE svg PUBLIC "-//W3C//DTD SVG 1.1//EN"
  "http://www.w3.org/Graphics/SVG/1.1/DTD/svg11.dtd">
<!-- Created with matplotlib (https://matplotlib.org/) -->
<svg height="262.914375pt" version="1.1" viewBox="0 0 388.273437 262.914375" width="388.273437pt" xmlns="http://www.w3.org/2000/svg" xmlns:xlink="http://www.w3.org/1999/xlink">
 <defs>
  <style type="text/css">
*{stroke-linecap:butt;stroke-linejoin:round;}
  </style>
 </defs>
 <g id="figure_1">
  <g id="patch_1">
   <path d="M 0 262.914375 
L 388.273437 262.914375 
L 388.273437 0 
L 0 0 
z
" style="fill:none;"/>
  </g>
  <g id="axes_1">
   <g id="patch_2">
    <path d="M 53.473438 29.237606 
L 388.273438 29.237606 
L 388.273438 15.118125 
L 53.473438 15.118125 
z
" style="fill:none;"/>
   </g>
   <g id="patch_3">
    <path clip-path="url(#pf15203ba3c)" d="M 66.006058 27.825657 
L 146.572903 27.825657 
L 146.572903 20.765917 
L 66.006058 20.765917 
z
" style="fill:#ff0000;stroke:#000000;stroke-linejoin:miter;"/>
   </g>
   <g id="patch_4">
    <path clip-path="url(#pf15203ba3c)" d="M 146.572903 27.825657 
L 191.332261 27.825657 
L 191.332261 20.765917 
L 146.572903 20.765917 
z
" style="fill:#00ff00;stroke:#000000;stroke-linejoin:miter;"/>
   </g>
   <g id="patch_5">
    <path clip-path="url(#pf15203ba3c)" d="M 191.332261 27.825657 
L 325.610336 27.825657 
L 325.610336 20.765917 
L 191.332261 20.765917 
z
" style="fill:#ff1ab9;stroke:#000000;stroke-linejoin:miter;"/>
   </g>
   <g id="patch_6">
    <path clip-path="url(#pf15203ba3c)" d="M 325.610336 27.825657 
L 370.369694 27.825657 
L 370.369694 20.765917 
L 325.610336 20.765917 
z
" style="fill:#ffd300;stroke:#000000;stroke-linejoin:miter;"/>
   </g>
   <g id="matplotlib.axis_1"/>
   <g id="matplotlib.axis_2">
    <g id="ytick_1"/>
    <g id="ytick_2"/>
    <g id="text_1">
     <text style="font-family:DejaVu Sans;font-size:10px;font-style:normal;font-weight:normal;text-anchor:middle;" transform="rotate(-0, 49.473438, 20.098178)" x="49.473438" y="20.098178">Embryo 1                </text>
    </g>
   </g>
   <g id="patch_7">
    <path d="M 53.473438 29.237606 
L 53.473438 15.118125 
" style="fill:none;stroke:#000000;stroke-linecap:square;stroke-linejoin:miter;stroke-width:0.8;"/>
   </g>
   <g id="patch_8">
    <path d="M 388.273438 29.237606 
L 388.273438 15.118125 
" style="fill:none;stroke:#000000;stroke-linecap:square;stroke-linejoin:miter;stroke-width:0.8;"/>
   </g>
   <g id="patch_9">
    <path d="M 53.473438 29.237606 
L 388.273438 29.237606 
" style="fill:none;stroke:#000000;stroke-linecap:square;stroke-linejoin:miter;stroke-width:0.8;"/>
   </g>
   <g id="patch_10">
    <path d="M 53.473438 15.118125 
L 388.273438 15.118125 
" style="fill:none;stroke:#000000;stroke-linecap:square;stroke-linejoin:miter;stroke-width:0.8;"/>
   </g>
   <g id="text_2">
    <text style="font-family:DejaVu Sans;font-size:12px;font-style:normal;font-weight:normal;text-anchor:middle;" transform="rotate(-0, 220.873438, 9.118125)" x="220.873438" y="9.118125">Chr 18</text>
   </g>
  </g>
  <g id="axes_2">
   <g id="patch_11">
    <path d="M 53.473438 46.180982 
L 388.273438 46.180982 
L 388.273438 32.061502 
L 53.473438 32.061502 
z
" style="fill:none;"/>
   </g>
   <g id="patch_12">
    <path clip-path="url(#pcb40aff0e2)" d="M 66.006058 44.769034 
L 146.572903 44.769034 
L 146.572903 37.709294 
L 66.006058 37.709294 
z
" style="fill:#ff0000;stroke:#000000;stroke-linejoin:miter;"/>
   </g>
   <g id="patch_13">
    <path clip-path="url(#pcb40aff0e2)" d="M 146.572903 44.769034 
L 200.284133 44.769034 
L 200.284133 37.709294 
L 146.572903 37.709294 
z
" style="fill:#00ff00;stroke:#000000;stroke-linejoin:miter;"/>
   </g>
   <g id="patch_14">
    <path clip-path="url(#pcb40aff0e2)" d="M 200.284133 44.769034 
L 245.043491 44.769034 
L 245.043491 37.709294 
L 200.284133 37.709294 
z
" style="fill:#ff1ab9;stroke:#000000;stroke-linejoin:miter;"/>
   </g>
   <g id="patch_15">
    <path clip-path="url(#pcb40aff0e2)" d="M 245.043491 44.769034 
L 298.754721 44.769034 
L 298.754721 37.709294 
L 245.043491 37.709294 
z
" style="fill:#ffd300;stroke:#000000;stroke-linejoin:miter;"/>
   </g>
   <g id="patch_16">
    <path clip-path="url(#pcb40aff0e2)" d="M 298.754721 44.769034 
L 379.321566 44.769034 
L 379.321566 37.709294 
L 298.754721 37.709294 
z
" style="fill:#005800;stroke:#000000;stroke-linejoin:miter;"/>
   </g>
   <g id="matplotlib.axis_3"/>
   <g id="matplotlib.axis_4">
    <g id="ytick_3"/>
    <g id="ytick_4"/>
    <g id="text_3">
     <text style="font-family:DejaVu Sans;font-size:10px;font-style:normal;font-weight:normal;" transform="translate(49.473438 25.843742)"/>
     <text style="font-family:DejaVu Sans;font-size:10px;font-style:normal;font-weight:normal;" transform="translate(41.525 37.041554)">6   </text>
    </g>
   </g>
   <g id="patch_17">
    <path d="M 53.473438 46.180982 
L 53.473438 32.061502 
" style="fill:none;stroke:#000000;stroke-linecap:square;stroke-linejoin:miter;stroke-width:0.8;"/>
   </g>
   <g id="patch_18">
    <path d="M 388.273438 46.180982 
L 388.273438 32.061502 
" style="fill:none;stroke:#000000;stroke-linecap:square;stroke-linejoin:miter;stroke-width:0.8;"/>
   </g>
   <g id="patch_19">
    <path d="M 53.473438 46.180982 
L 388.273438 46.180982 
" style="fill:none;stroke:#000000;stroke-linecap:square;stroke-linejoin:miter;stroke-width:0.8;"/>
   </g>
   <g id="patch_20">
    <path d="M 53.473438 32.061502 
L 388.273438 32.061502 
" style="fill:none;stroke:#000000;stroke-linecap:square;stroke-linejoin:miter;stroke-width:0.8;"/>
   </g>
  </g>
  <g id="axes_3">
   <g id="patch_21">
    <path d="M 53.473438 63.124359 
L 388.273438 63.124359 
L 388.273438 49.004878 
L 53.473438 49.004878 
z
" style="fill:none;"/>
   </g>
   <g id="patch_22">
    <path clip-path="url(#pc802b96397)" d="M 66.006058 61.712411 
L 137.621031 61.712411 
L 137.621031 54.65267 
L 66.006058 54.65267 
z
" style="fill:#ff0000;stroke:#000000;stroke-linejoin:miter;"/>
   </g>
   <g id="patch_23">
    <path clip-path="url(#pc802b96397)" d="M 137.621031 61.712411 
L 262.947234 61.712411 
L 262.947234 54.65267 
L 137.621031 54.65267 
z
" style="fill:#00ff00;stroke:#000000;stroke-linejoin:miter;"/>
   </g>
   <g id="patch_24">
    <path clip-path="url(#pc802b96397)" d="M 262.947234 61.712411 
L 370.369694 61.712411 
L 370.369694 54.65267 
L 262.947234 54.65267 
z
" style="fill:#ff1ab9;stroke:#000000;stroke-linejoin:miter;"/>
   </g>
   <g id="matplotlib.axis_5"/>
   <g id="matplotlib.axis_6">
    <g id="ytick_5"/>
    <g id="ytick_6"/>
    <g id="text_4">
     <text style="font-family:DejaVu Sans;font-size:10px;font-style:normal;font-weight:normal;" transform="translate(49.473438 42.787119)"/>
     <text style="font-family:DejaVu Sans;font-size:10px;font-style:normal;font-weight:normal;" transform="translate(41.525 53.984931)">7   </text>
    </g>
   </g>
   <g id="patch_25">
    <path d="M 53.473438 63.124359 
L 53.473438 49.004878 
" style="fill:none;stroke:#000000;stroke-linecap:square;stroke-linejoin:miter;stroke-width:0.8;"/>
   </g>
   <g id="patch_26">
    <path d="M 388.273438 63.124359 
L 388.273438 49.004878 
" style="fill:none;stroke:#000000;stroke-linecap:square;stroke-linejoin:miter;stroke-width:0.8;"/>
   </g>
   <g id="patch_27">
    <path d="M 53.473438 63.124359 
L 388.273438 63.124359 
" style="fill:none;stroke:#000000;stroke-linecap:square;stroke-linejoin:miter;stroke-width:0.8;"/>
   </g>
   <g id="patch_28">
    <path d="M 53.473438 49.004878 
L 388.273438 49.004878 
" style="fill:none;stroke:#000000;stroke-linecap:square;stroke-linejoin:miter;stroke-width:0.8;"/>
   </g>
  </g>
  <g id="axes_4">
   <g id="patch_29">
    <path d="M 53.473438 80.067735 
L 388.273438 80.067735 
L 388.273438 65.948255 
L 53.473438 65.948255 
z
" style="fill:none;"/>
   </g>
   <g id="patch_30">
    <path clip-path="url(#p8b5ae206ed)" d="M 66.006058 78.655787 
L 164.476646 78.655787 
L 164.476646 71.596047 
L 66.006058 71.596047 
z
" style="fill:#ff0000;stroke:#000000;stroke-linejoin:miter;"/>
   </g>
   <g id="patch_31">
    <path clip-path="url(#p8b5ae206ed)" d="M 164.476646 78.655787 
L 236.091619 78.655787 
L 236.091619 71.596047 
L 164.476646 71.596047 
z
" style="fill:#00ff00;stroke:#000000;stroke-linejoin:miter;"/>
   </g>
   <g id="patch_32">
    <path clip-path="url(#p8b5ae206ed)" d="M 236.091619 78.655787 
L 280.850978 78.655787 
L 280.850978 71.596047 
L 236.091619 71.596047 
z
" style="fill:#ff1ab9;stroke:#000000;stroke-linejoin:miter;"/>
   </g>
   <g id="patch_33">
    <path clip-path="url(#p8b5ae206ed)" d="M 280.850978 78.655787 
L 334.562208 78.655787 
L 334.562208 71.596047 
L 280.850978 71.596047 
z
" style="fill:#ffd300;stroke:#000000;stroke-linejoin:miter;"/>
   </g>
   <g id="patch_34">
    <path clip-path="url(#p8b5ae206ed)" d="M 334.562208 78.655787 
L 370.369694 78.655787 
L 370.369694 71.596047 
L 334.562208 71.596047 
z
" style="fill:#005800;stroke:#000000;stroke-linejoin:miter;"/>
   </g>
   <g id="matplotlib.axis_7"/>
   <g id="matplotlib.axis_8">
    <g id="ytick_7"/>
    <g id="ytick_8"/>
    <g id="text_5">
     <text style="font-family:DejaVu Sans;font-size:10px;font-style:normal;font-weight:normal;" transform="translate(49.473438 59.730495)"/>
     <text style="font-family:DejaVu Sans;font-size:10px;font-style:normal;font-weight:normal;" transform="translate(41.525 70.928308)">8   </text>
    </g>
   </g>
   <g id="patch_35">
    <path d="M 53.473438 80.067735 
L 53.473438 65.948255 
" style="fill:none;stroke:#000000;stroke-linecap:square;stroke-linejoin:miter;stroke-width:0.8;"/>
   </g>
   <g id="patch_36">
    <path d="M 388.273438 80.067735 
L 388.273438 65.948255 
" style="fill:none;stroke:#000000;stroke-linecap:square;stroke-linejoin:miter;stroke-width:0.8;"/>
   </g>
   <g id="patch_37">
    <path d="M 53.473438 80.067735 
L 388.273438 80.067735 
" style="fill:none;stroke:#000000;stroke-linecap:square;stroke-linejoin:miter;stroke-width:0.8;"/>
   </g>
   <g id="patch_38">
    <path d="M 53.473438 65.948255 
L 388.273438 65.948255 
" style="fill:none;stroke:#000000;stroke-linecap:square;stroke-linejoin:miter;stroke-width:0.8;"/>
   </g>
  </g>
  <g id="axes_5">
   <g id="patch_39">
    <path d="M 53.473438 97.011112 
L 388.273438 97.011112 
L 388.273438 82.891631 
L 53.473438 82.891631 
z
" style="fill:none;"/>
   </g>
   <g id="patch_40">
    <path clip-path="url(#pffeb05b875)" d="M 66.006058 95.599164 
L 101.813544 95.599164 
L 101.813544 88.539424 
L 66.006058 88.539424 
z
" style="fill:#ff0000;stroke:#000000;stroke-linejoin:miter;"/>
   </g>
   <g id="patch_41">
    <path clip-path="url(#pffeb05b875)" d="M 101.813544 95.599164 
L 155.524774 95.599164 
L 155.524774 88.539424 
L 101.813544 88.539424 
z
" style="fill:#00ff00;stroke:#000000;stroke-linejoin:miter;"/>
   </g>
   <g id="patch_42">
    <path clip-path="url(#pffeb05b875)" d="M 155.524774 95.599164 
L 253.995363 95.599164 
L 253.995363 88.539424 
L 155.524774 88.539424 
z
" style="fill:#ff1ab9;stroke:#000000;stroke-linejoin:miter;"/>
   </g>
   <g id="patch_43">
    <path clip-path="url(#pffeb05b875)" d="M 253.995363 95.599164 
L 298.754721 95.599164 
L 298.754721 88.539424 
L 253.995363 88.539424 
z
" style="fill:#ffd300;stroke:#000000;stroke-linejoin:miter;"/>
   </g>
   <g id="patch_44">
    <path clip-path="url(#pffeb05b875)" d="M 298.754721 95.599164 
L 379.321566 95.599164 
L 379.321566 88.539424 
L 298.754721 88.539424 
z
" style="fill:#005800;stroke:#000000;stroke-linejoin:miter;"/>
   </g>
   <g id="matplotlib.axis_9"/>
   <g id="matplotlib.axis_10">
    <g id="ytick_9"/>
    <g id="ytick_10"/>
    <g id="text_6">
     <text style="font-family:DejaVu Sans;font-size:10px;font-style:normal;font-weight:normal;" transform="translate(49.473438 76.673872)"/>
     <text style="font-family:DejaVu Sans;font-size:10px;font-style:normal;font-weight:normal;" transform="translate(38.34375 87.871684)">10   </text>
    </g>
   </g>
   <g id="patch_45">
    <path d="M 53.473438 97.011112 
L 53.473438 82.891631 
" style="fill:none;stroke:#000000;stroke-linecap:square;stroke-linejoin:miter;stroke-width:0.8;"/>
   </g>
   <g id="patch_46">
    <path d="M 388.273438 97.011112 
L 388.273438 82.891631 
" style="fill:none;stroke:#000000;stroke-linecap:square;stroke-linejoin:miter;stroke-width:0.8;"/>
   </g>
   <g id="patch_47">
    <path d="M 53.473438 97.011112 
L 388.273438 97.011112 
" style="fill:none;stroke:#000000;stroke-linecap:square;stroke-linejoin:miter;stroke-width:0.8;"/>
   </g>
   <g id="patch_48">
    <path d="M 53.473438 82.891631 
L 388.273438 82.891631 
" style="fill:none;stroke:#000000;stroke-linecap:square;stroke-linejoin:miter;stroke-width:0.8;"/>
   </g>
  </g>
  <g id="axes_6">
   <g id="patch_49">
    <path d="M 53.473438 113.954489 
L 388.273438 113.954489 
L 388.273438 99.835008 
L 53.473438 99.835008 
z
" style="fill:none;"/>
   </g>
   <g id="patch_50">
    <path clip-path="url(#p780520ca35)" d="M 66.006058 112.542541 
L 101.813544 112.542541 
L 101.813544 105.4828 
L 66.006058 105.4828 
z
" style="fill:#ff0000;stroke:#000000;stroke-linejoin:miter;"/>
   </g>
   <g id="patch_51">
    <path clip-path="url(#p780520ca35)" d="M 101.813544 112.542541 
L 164.476646 112.542541 
L 164.476646 105.4828 
L 101.813544 105.4828 
z
" style="fill:#00ff00;stroke:#000000;stroke-linejoin:miter;"/>
   </g>
   <g id="patch_52">
    <path clip-path="url(#p780520ca35)" d="M 164.476646 112.542541 
L 209.236004 112.542541 
L 209.236004 105.4828 
L 164.476646 105.4828 
z
" style="fill:#ff1ab9;stroke:#000000;stroke-linejoin:miter;"/>
   </g>
   <g id="patch_53">
    <path clip-path="url(#p780520ca35)" d="M 209.236004 112.542541 
L 298.754721 112.542541 
L 298.754721 105.4828 
L 209.236004 105.4828 
z
" style="fill:#ffd300;stroke:#000000;stroke-linejoin:miter;"/>
   </g>
   <g id="patch_54">
    <path clip-path="url(#p780520ca35)" d="M 298.754721 112.542541 
L 343.514079 112.542541 
L 343.514079 105.4828 
L 298.754721 105.4828 
z
" style="fill:#005800;stroke:#000000;stroke-linejoin:miter;"/>
   </g>
   <g id="patch_55">
    <path clip-path="url(#p780520ca35)" d="M 343.514079 112.542541 
L 379.321566 112.542541 
L 379.321566 105.4828 
L 343.514079 105.4828 
z
" style="fill:#8484ff;stroke:#000000;stroke-linejoin:miter;"/>
   </g>
   <g id="matplotlib.axis_11"/>
   <g id="matplotlib.axis_12">
    <g id="ytick_11"/>
    <g id="ytick_12"/>
    <g id="text_7">
     <text style="font-family:DejaVu Sans;font-size:10px;font-style:normal;font-weight:normal;" transform="translate(49.473438 93.617248)"/>
     <text style="font-family:DejaVu Sans;font-size:10px;font-style:normal;font-weight:normal;" transform="translate(38.34375 104.815061)">11   </text>
    </g>
   </g>
   <g id="patch_56">
    <path d="M 53.473438 113.954489 
L 53.473438 99.835008 
" style="fill:none;stroke:#000000;stroke-linecap:square;stroke-linejoin:miter;stroke-width:0.8;"/>
   </g>
   <g id="patch_57">
    <path d="M 388.273438 113.954489 
L 388.273438 99.835008 
" style="fill:none;stroke:#000000;stroke-linecap:square;stroke-linejoin:miter;stroke-width:0.8;"/>
   </g>
   <g id="patch_58">
    <path d="M 53.473438 113.954489 
L 388.273438 113.954489 
" style="fill:none;stroke:#000000;stroke-linecap:square;stroke-linejoin:miter;stroke-width:0.8;"/>
   </g>
   <g id="patch_59">
    <path d="M 53.473438 99.835008 
L 388.273438 99.835008 
" style="fill:none;stroke:#000000;stroke-linecap:square;stroke-linejoin:miter;stroke-width:0.8;"/>
   </g>
  </g>
  <g id="axes_7">
   <g id="patch_60">
    <path d="M 53.473438 130.897865 
L 388.273438 130.897865 
L 388.273438 116.778385 
L 53.473438 116.778385 
z
" style="fill:none;"/>
   </g>
   <g id="patch_61">
    <path clip-path="url(#pec092cf273)" d="M 74.957929 129.485917 
L 119.717288 129.485917 
L 119.717288 122.426177 
L 74.957929 122.426177 
z
" style="fill:#ff0000;stroke:#000000;stroke-linejoin:miter;"/>
   </g>
   <g id="patch_62">
    <path clip-path="url(#pec092cf273)" d="M 119.717288 129.485917 
L 155.524774 129.485917 
L 155.524774 122.426177 
L 119.717288 122.426177 
z
" style="fill:#00ff00;stroke:#000000;stroke-linejoin:miter;"/>
   </g>
   <g id="patch_63">
    <path clip-path="url(#pec092cf273)" d="M 155.524774 129.485917 
L 253.995363 129.485917 
L 253.995363 122.426177 
L 155.524774 122.426177 
z
" style="fill:#ff1ab9;stroke:#000000;stroke-linejoin:miter;"/>
   </g>
   <g id="patch_64">
    <path clip-path="url(#pec092cf273)" d="M 253.995363 129.485917 
L 370.369694 129.485917 
L 370.369694 122.426177 
L 253.995363 122.426177 
z
" style="fill:#ffd300;stroke:#000000;stroke-linejoin:miter;"/>
   </g>
   <g id="matplotlib.axis_13"/>
   <g id="matplotlib.axis_14">
    <g id="ytick_13"/>
    <g id="ytick_14"/>
    <g id="text_8">
     <text style="font-family:DejaVu Sans;font-size:10px;font-style:normal;font-weight:normal;" transform="translate(49.473438 110.560625)"/>
     <text style="font-family:DejaVu Sans;font-size:10px;font-style:normal;font-weight:normal;" transform="translate(38.34375 121.758438)">13   </text>
    </g>
   </g>
   <g id="patch_65">
    <path d="M 53.473438 130.897865 
L 53.473438 116.778385 
" style="fill:none;stroke:#000000;stroke-linecap:square;stroke-linejoin:miter;stroke-width:0.8;"/>
   </g>
   <g id="patch_66">
    <path d="M 388.273438 130.897865 
L 388.273438 116.778385 
" style="fill:none;stroke:#000000;stroke-linecap:square;stroke-linejoin:miter;stroke-width:0.8;"/>
   </g>
   <g id="patch_67">
    <path d="M 53.473438 130.897865 
L 388.273438 130.897865 
" style="fill:none;stroke:#000000;stroke-linecap:square;stroke-linejoin:miter;stroke-width:0.8;"/>
   </g>
   <g id="patch_68">
    <path d="M 53.473438 116.778385 
L 388.273438 116.778385 
" style="fill:none;stroke:#000000;stroke-linecap:square;stroke-linejoin:miter;stroke-width:0.8;"/>
   </g>
  </g>
  <g id="axes_8">
   <g id="patch_69">
    <path d="M 53.473438 147.841242 
L 388.273438 147.841242 
L 388.273438 133.721761 
L 53.473438 133.721761 
z
" style="fill:none;"/>
   </g>
   <g id="patch_70">
    <path clip-path="url(#p02f04ecae5)" d="M 66.006058 146.429294 
L 191.332261 146.429294 
L 191.332261 139.369554 
L 66.006058 139.369554 
z
" style="fill:#ff0000;stroke:#000000;stroke-linejoin:miter;"/>
   </g>
   <g id="patch_71">
    <path clip-path="url(#p02f04ecae5)" d="M 191.332261 146.429294 
L 271.899106 146.429294 
L 271.899106 139.369554 
L 191.332261 139.369554 
z
" style="fill:#00ff00;stroke:#000000;stroke-linejoin:miter;"/>
   </g>
   <g id="patch_72">
    <path clip-path="url(#p02f04ecae5)" d="M 271.899106 146.429294 
L 334.562208 146.429294 
L 334.562208 139.369554 
L 271.899106 139.369554 
z
" style="fill:#ff1ab9;stroke:#000000;stroke-linejoin:miter;"/>
   </g>
   <g id="patch_73">
    <path clip-path="url(#p02f04ecae5)" d="M 334.562208 146.429294 
L 379.321566 146.429294 
L 379.321566 139.369554 
L 334.562208 139.369554 
z
" style="fill:#ffd300;stroke:#000000;stroke-linejoin:miter;"/>
   </g>
   <g id="matplotlib.axis_15"/>
   <g id="matplotlib.axis_16">
    <g id="ytick_15"/>
    <g id="ytick_16"/>
    <g id="text_9">
     <text style="font-family:DejaVu Sans;font-size:10px;font-style:normal;font-weight:normal;" transform="translate(49.473438 127.504002)"/>
     <text style="font-family:DejaVu Sans;font-size:10px;font-style:normal;font-weight:normal;" transform="translate(38.34375 138.701814)">14   </text>
    </g>
   </g>
   <g id="patch_74">
    <path d="M 53.473438 147.841242 
L 53.473438 133.721761 
" style="fill:none;stroke:#000000;stroke-linecap:square;stroke-linejoin:miter;stroke-width:0.8;"/>
   </g>
   <g id="patch_75">
    <path d="M 388.273438 147.841242 
L 388.273438 133.721761 
" style="fill:none;stroke:#000000;stroke-linecap:square;stroke-linejoin:miter;stroke-width:0.8;"/>
   </g>
   <g id="patch_76">
    <path d="M 53.473438 147.841242 
L 388.273438 147.841242 
" style="fill:none;stroke:#000000;stroke-linecap:square;stroke-linejoin:miter;stroke-width:0.8;"/>
   </g>
   <g id="patch_77">
    <path d="M 53.473438 133.721761 
L 388.273438 133.721761 
" style="fill:none;stroke:#000000;stroke-linecap:square;stroke-linejoin:miter;stroke-width:0.8;"/>
   </g>
  </g>
  <g id="axes_9">
   <g id="patch_78">
    <path d="M 53.473438 164.784619 
L 388.273438 164.784619 
L 388.273438 150.665138 
L 53.473438 150.665138 
z
" style="fill:none;"/>
   </g>
   <g id="patch_79">
    <path clip-path="url(#pfb96071f50)" d="M 66.006058 163.37267 
L 119.717288 163.37267 
L 119.717288 156.31293 
L 66.006058 156.31293 
z
" style="fill:#ff0000;stroke:#000000;stroke-linejoin:miter;"/>
   </g>
   <g id="patch_80">
    <path clip-path="url(#pfb96071f50)" d="M 119.717288 163.37267 
L 191.332261 163.37267 
L 191.332261 156.31293 
L 119.717288 156.31293 
z
" style="fill:#00ff00;stroke:#000000;stroke-linejoin:miter;"/>
   </g>
   <g id="patch_81">
    <path clip-path="url(#pfb96071f50)" d="M 191.332261 163.37267 
L 289.802849 163.37267 
L 289.802849 156.31293 
L 191.332261 156.31293 
z
" style="fill:#ff1ab9;stroke:#000000;stroke-linejoin:miter;"/>
   </g>
   <g id="patch_82">
    <path clip-path="url(#pfb96071f50)" d="M 289.802849 163.37267 
L 370.369694 163.37267 
L 370.369694 156.31293 
L 289.802849 156.31293 
z
" style="fill:#ffd300;stroke:#000000;stroke-linejoin:miter;"/>
   </g>
   <g id="matplotlib.axis_17"/>
   <g id="matplotlib.axis_18">
    <g id="ytick_17"/>
    <g id="ytick_18"/>
    <g id="text_10">
     <text style="font-family:DejaVu Sans;font-size:10px;font-style:normal;font-weight:normal;" transform="translate(49.473438 144.447378)"/>
     <text style="font-family:DejaVu Sans;font-size:10px;font-style:normal;font-weight:normal;" transform="translate(38.34375 155.645191)">15   </text>
    </g>
   </g>
   <g id="patch_83">
    <path d="M 53.473438 164.784619 
L 53.473438 150.665138 
" style="fill:none;stroke:#000000;stroke-linecap:square;stroke-linejoin:miter;stroke-width:0.8;"/>
   </g>
   <g id="patch_84">
    <path d="M 388.273438 164.784619 
L 388.273438 150.665138 
" style="fill:none;stroke:#000000;stroke-linecap:square;stroke-linejoin:miter;stroke-width:0.8;"/>
   </g>
   <g id="patch_85">
    <path d="M 53.473438 164.784619 
L 388.273438 164.784619 
" style="fill:none;stroke:#000000;stroke-linecap:square;stroke-linejoin:miter;stroke-width:0.8;"/>
   </g>
   <g id="patch_86">
    <path d="M 53.473438 150.665138 
L 388.273438 150.665138 
" style="fill:none;stroke:#000000;stroke-linecap:square;stroke-linejoin:miter;stroke-width:0.8;"/>
   </g>
  </g>
  <g id="axes_10">
   <g id="patch_87">
    <path d="M 53.473438 181.727995 
L 388.273438 181.727995 
L 388.273438 167.608515 
L 53.473438 167.608515 
z
" style="fill:none;"/>
   </g>
   <g id="patch_88">
    <path clip-path="url(#p94d0e49ca9)" d="M 66.006058 180.316047 
L 110.765416 180.316047 
L 110.765416 173.256307 
L 66.006058 173.256307 
z
" style="fill:#ff0000;stroke:#000000;stroke-linejoin:miter;"/>
   </g>
   <g id="patch_89">
    <path clip-path="url(#p94d0e49ca9)" d="M 110.765416 180.316047 
L 155.524774 180.316047 
L 155.524774 173.256307 
L 110.765416 173.256307 
z
" style="fill:#00ff00;stroke:#000000;stroke-linejoin:miter;"/>
   </g>
   <g id="patch_90">
    <path clip-path="url(#p94d0e49ca9)" d="M 155.524774 180.316047 
L 218.187876 180.316047 
L 218.187876 173.256307 
L 155.524774 173.256307 
z
" style="fill:#ff1ab9;stroke:#000000;stroke-linejoin:miter;"/>
   </g>
   <g id="patch_91">
    <path clip-path="url(#p94d0e49ca9)" d="M 218.187876 180.316047 
L 271.899106 180.316047 
L 271.899106 173.256307 
L 218.187876 173.256307 
z
" style="fill:#ffd300;stroke:#000000;stroke-linejoin:miter;"/>
   </g>
   <g id="patch_92">
    <path clip-path="url(#p94d0e49ca9)" d="M 271.899106 180.316047 
L 379.321566 180.316047 
L 379.321566 173.256307 
L 271.899106 173.256307 
z
" style="fill:#005800;stroke:#000000;stroke-linejoin:miter;"/>
   </g>
   <g id="matplotlib.axis_19"/>
   <g id="matplotlib.axis_20">
    <g id="ytick_19"/>
    <g id="ytick_20"/>
    <g id="text_11">
     <text style="font-family:DejaVu Sans;font-size:10px;font-style:normal;font-weight:normal;" transform="translate(49.473438 161.390755)"/>
     <text style="font-family:DejaVu Sans;font-size:10px;font-style:normal;font-weight:normal;" transform="translate(38.34375 172.588567)">18   </text>
    </g>
   </g>
   <g id="patch_93">
    <path d="M 53.473438 181.727995 
L 53.473438 167.608515 
" style="fill:none;stroke:#000000;stroke-linecap:square;stroke-linejoin:miter;stroke-width:0.8;"/>
   </g>
   <g id="patch_94">
    <path d="M 388.273438 181.727995 
L 388.273438 167.608515 
" style="fill:none;stroke:#000000;stroke-linecap:square;stroke-linejoin:miter;stroke-width:0.8;"/>
   </g>
   <g id="patch_95">
    <path d="M 53.473438 181.727995 
L 388.273438 181.727995 
" style="fill:none;stroke:#000000;stroke-linecap:square;stroke-linejoin:miter;stroke-width:0.8;"/>
   </g>
   <g id="patch_96">
    <path d="M 53.473438 167.608515 
L 388.273438 167.608515 
" style="fill:none;stroke:#000000;stroke-linecap:square;stroke-linejoin:miter;stroke-width:0.8;"/>
   </g>
  </g>
  <g id="axes_11">
   <g id="patch_97">
    <path d="M 53.473438 198.671372 
L 388.273438 198.671372 
L 388.273438 184.551891 
L 53.473438 184.551891 
z
" style="fill:none;"/>
   </g>
   <g id="patch_98">
    <path clip-path="url(#p505edbbffc)" d="M 66.006058 197.259424 
L 119.717288 197.259424 
L 119.717288 190.199683 
L 66.006058 190.199683 
z
" style="fill:#ff0000;stroke:#000000;stroke-linejoin:miter;"/>
   </g>
   <g id="patch_99">
    <path clip-path="url(#p505edbbffc)" d="M 119.717288 197.259424 
L 218.187876 197.259424 
L 218.187876 190.199683 
L 119.717288 190.199683 
z
" style="fill:#00ff00;stroke:#000000;stroke-linejoin:miter;"/>
   </g>
   <g id="patch_100">
    <path clip-path="url(#p505edbbffc)" d="M 218.187876 197.259424 
L 289.802849 197.259424 
L 289.802849 190.199683 
L 218.187876 190.199683 
z
" style="fill:#ff1ab9;stroke:#000000;stroke-linejoin:miter;"/>
   </g>
   <g id="patch_101">
    <path clip-path="url(#p505edbbffc)" d="M 289.802849 197.259424 
L 361.417823 197.259424 
L 361.417823 190.199683 
L 289.802849 190.199683 
z
" style="fill:#ffd300;stroke:#000000;stroke-linejoin:miter;"/>
   </g>
   <g id="matplotlib.axis_21"/>
   <g id="matplotlib.axis_22">
    <g id="ytick_21"/>
    <g id="ytick_22"/>
    <g id="text_12">
     <text style="font-family:DejaVu Sans;font-size:10px;font-style:normal;font-weight:normal;" transform="translate(49.473438 178.334131)"/>
     <text style="font-family:DejaVu Sans;font-size:10px;font-style:normal;font-weight:normal;" transform="translate(38.34375 189.531944)">20   </text>
    </g>
   </g>
   <g id="patch_102">
    <path d="M 53.473438 198.671372 
L 53.473438 184.551891 
" style="fill:none;stroke:#000000;stroke-linecap:square;stroke-linejoin:miter;stroke-width:0.8;"/>
   </g>
   <g id="patch_103">
    <path d="M 388.273438 198.671372 
L 388.273438 184.551891 
" style="fill:none;stroke:#000000;stroke-linecap:square;stroke-linejoin:miter;stroke-width:0.8;"/>
   </g>
   <g id="patch_104">
    <path d="M 53.473438 198.671372 
L 388.273438 198.671372 
" style="fill:none;stroke:#000000;stroke-linecap:square;stroke-linejoin:miter;stroke-width:0.8;"/>
   </g>
   <g id="patch_105">
    <path d="M 53.473438 184.551891 
L 388.273438 184.551891 
" style="fill:none;stroke:#000000;stroke-linecap:square;stroke-linejoin:miter;stroke-width:0.8;"/>
   </g>
  </g>
  <g id="axes_12">
   <g id="patch_106">
    <path d="M 53.473438 215.614748 
L 388.273438 215.614748 
L 388.273438 201.495268 
L 53.473438 201.495268 
z
" style="fill:none;"/>
   </g>
   <g id="patch_107">
    <path clip-path="url(#p1206e82bf5)" d="M 66.006058 214.2028 
L 101.813544 214.2028 
L 101.813544 207.14306 
L 66.006058 207.14306 
z
" style="fill:#ff0000;stroke:#000000;stroke-linejoin:miter;"/>
   </g>
   <g id="patch_108">
    <path clip-path="url(#p1206e82bf5)" d="M 101.813544 214.2028 
L 191.332261 214.2028 
L 191.332261 207.14306 
L 101.813544 207.14306 
z
" style="fill:#00ff00;stroke:#000000;stroke-linejoin:miter;"/>
   </g>
   <g id="patch_109">
    <path clip-path="url(#p1206e82bf5)" d="M 191.332261 214.2028 
L 253.995363 214.2028 
L 253.995363 207.14306 
L 191.332261 207.14306 
z
" style="fill:#ff1ab9;stroke:#000000;stroke-linejoin:miter;"/>
   </g>
   <g id="patch_110">
    <path clip-path="url(#p1206e82bf5)" d="M 253.995363 214.2028 
L 370.369694 214.2028 
L 370.369694 207.14306 
L 253.995363 207.14306 
z
" style="fill:#ffd300;stroke:#000000;stroke-linejoin:miter;"/>
   </g>
   <g id="matplotlib.axis_23"/>
   <g id="matplotlib.axis_24">
    <g id="ytick_23"/>
    <g id="ytick_24"/>
    <g id="text_13">
     <text style="font-family:DejaVu Sans;font-size:10px;font-style:normal;font-weight:normal;" transform="translate(49.473438 195.277508)"/>
     <text style="font-family:DejaVu Sans;font-size:10px;font-style:normal;font-weight:normal;" transform="translate(38.34375 206.475321)">21   </text>
    </g>
   </g>
   <g id="patch_111">
    <path d="M 53.473438 215.614748 
L 53.473438 201.495268 
" style="fill:none;stroke:#000000;stroke-linecap:square;stroke-linejoin:miter;stroke-width:0.8;"/>
   </g>
   <g id="patch_112">
    <path d="M 388.273438 215.614748 
L 388.273438 201.495268 
" style="fill:none;stroke:#000000;stroke-linecap:square;stroke-linejoin:miter;stroke-width:0.8;"/>
   </g>
   <g id="patch_113">
    <path d="M 53.473438 215.614748 
L 388.273438 215.614748 
" style="fill:none;stroke:#000000;stroke-linecap:square;stroke-linejoin:miter;stroke-width:0.8;"/>
   </g>
   <g id="patch_114">
    <path d="M 53.473438 201.495268 
L 388.273438 201.495268 
" style="fill:none;stroke:#000000;stroke-linecap:square;stroke-linejoin:miter;stroke-width:0.8;"/>
   </g>
  </g>
  <g id="axes_13">
   <g id="patch_115">
    <path d="M 53.473438 232.558125 
L 388.273438 232.558125 
L 388.273438 218.438644 
L 53.473438 218.438644 
z
" style="fill:none;"/>
   </g>
   <g id="patch_116">
    <path clip-path="url(#pb61d1b4ea3)" d="M 66.006058 231.146177 
L 110.765416 231.146177 
L 110.765416 224.086437 
L 66.006058 224.086437 
z
" style="fill:#ff0000;stroke:#000000;stroke-linejoin:miter;"/>
   </g>
   <g id="patch_117">
    <path clip-path="url(#pb61d1b4ea3)" d="M 110.765416 231.146177 
L 191.332261 231.146177 
L 191.332261 224.086437 
L 110.765416 224.086437 
z
" style="fill:#00ff00;stroke:#000000;stroke-linejoin:miter;"/>
   </g>
   <g id="patch_118">
    <path clip-path="url(#pb61d1b4ea3)" d="M 191.332261 231.146177 
L 289.802849 231.146177 
L 289.802849 224.086437 
L 191.332261 224.086437 
z
" style="fill:#ff1ab9;stroke:#000000;stroke-linejoin:miter;"/>
   </g>
   <g id="patch_119">
    <path clip-path="url(#pb61d1b4ea3)" d="M 289.802849 231.146177 
L 370.369694 231.146177 
L 370.369694 224.086437 
L 289.802849 224.086437 
z
" style="fill:#ffd300;stroke:#000000;stroke-linejoin:miter;"/>
   </g>
   <g id="matplotlib.axis_25">
    <g id="xtick_1">
     <g id="line2d_1">
      <defs>
       <path d="M 0 0 
L 0 3.5 
" id="m4c5f9ad403" style="stroke:#000000;stroke-width:0.8;"/>
      </defs>
      <g>
       <use style="stroke:#000000;stroke-width:0.8;" x="57.054186" xlink:href="#m4c5f9ad403" y="232.558125"/>
      </g>
     </g>
     <g id="text_14">
      <text style="font-family:DejaVu Sans;font-size:10px;font-style:normal;font-weight:normal;text-anchor:middle;" transform="rotate(-0, 57.054186, 247.156563)" x="57.054186" y="247.156563">0</text>
     </g>
    </g>
    <g id="xtick_2">
     <g id="line2d_2">
      <g>
       <use style="stroke:#000000;stroke-width:0.8;" x="128.669159" xlink:href="#m4c5f9ad403" y="232.558125"/>
      </g>
     </g>
     <g id="text_15">
      <text style="font-family:DejaVu Sans;font-size:10px;font-style:normal;font-weight:normal;text-anchor:middle;" transform="rotate(-0, 128.669159, 247.156563)" x="128.669159" y="247.156563">20</text>
     </g>
    </g>
    <g id="xtick_3">
     <g id="line2d_3">
      <g>
       <use style="stroke:#000000;stroke-width:0.8;" x="200.284133" xlink:href="#m4c5f9ad403" y="232.558125"/>
      </g>
     </g>
     <g id="text_16">
      <text style="font-family:DejaVu Sans;font-size:10px;font-style:normal;font-weight:normal;text-anchor:middle;" transform="rotate(-0, 200.284133, 247.156563)" x="200.284133" y="247.156563">40</text>
     </g>
    </g>
    <g id="xtick_4">
     <g id="line2d_4">
      <g>
       <use style="stroke:#000000;stroke-width:0.8;" x="271.899106" xlink:href="#m4c5f9ad403" y="232.558125"/>
      </g>
     </g>
     <g id="text_17">
      <text style="font-family:DejaVu Sans;font-size:10px;font-style:normal;font-weight:normal;text-anchor:middle;" transform="rotate(-0, 271.899106, 247.156563)" x="271.899106" y="247.156563">60</text>
     </g>
    </g>
    <g id="xtick_5">
     <g id="line2d_5">
      <g>
       <use style="stroke:#000000;stroke-width:0.8;" x="343.514079" xlink:href="#m4c5f9ad403" y="232.558125"/>
      </g>
     </g>
     <g id="text_18">
      <text style="font-family:DejaVu Sans;font-size:10px;font-style:normal;font-weight:normal;text-anchor:middle;" transform="rotate(-0, 343.514079, 247.156563)" x="343.514079" y="247.156563">80</text>
     </g>
    </g>
    <g id="text_19">
     <text style="font-family:DejaVu Sans;font-size:10px;font-style:normal;font-weight:normal;text-anchor:middle;" transform="rotate(-0, 220.873438, 260.834688)" x="220.873438" y="260.834688">Genomic Position [Mb]</text>
    </g>
   </g>
   <g id="matplotlib.axis_26">
    <g id="ytick_25"/>
    <g id="ytick_26"/>
    <g id="text_20">
     <text style="font-family:DejaVu Sans;font-size:10px;font-style:normal;font-weight:normal;" transform="translate(49.473438 212.220885)"/>
     <text style="font-family:DejaVu Sans;font-size:10px;font-style:normal;font-weight:normal;" transform="translate(38.34375 223.418697)">24   </text>
    </g>
   </g>
   <g id="patch_120">
    <path d="M 53.473438 232.558125 
L 53.473438 218.438644 
" style="fill:none;stroke:#000000;stroke-linecap:square;stroke-linejoin:miter;stroke-width:0.8;"/>
   </g>
   <g id="patch_121">
    <path d="M 388.273438 232.558125 
L 388.273438 218.438644 
" style="fill:none;stroke:#000000;stroke-linecap:square;stroke-linejoin:miter;stroke-width:0.8;"/>
   </g>
   <g id="patch_122">
    <path d="M 53.473438 232.558125 
L 388.273438 232.558125 
" style="fill:none;stroke:#000000;stroke-linecap:square;stroke-linejoin:miter;stroke-width:0.8;"/>
   </g>
   <g id="patch_123">
    <path d="M 53.473438 218.438644 
L 388.273438 218.438644 
" style="fill:none;stroke:#000000;stroke-linecap:square;stroke-linejoin:miter;stroke-width:0.8;"/>
   </g>
  </g>
 </g>
 <defs>
  <clipPath id="pf15203ba3c">
   <rect height="14.119481" width="334.8" x="53.473438" y="15.118125"/>
  </clipPath>
  <clipPath id="pcb40aff0e2">
   <rect height="14.119481" width="334.8" x="53.473438" y="32.061502"/>
  </clipPath>
  <clipPath id="pc802b96397">
   <rect height="14.119481" width="334.8" x="53.473438" y="49.004878"/>
  </clipPath>
  <clipPath id="p8b5ae206ed">
   <rect height="14.119481" width="334.8" x="53.473438" y="65.948255"/>
  </clipPath>
  <clipPath id="pffeb05b875">
   <rect height="14.119481" width="334.8" x="53.473438" y="82.891631"/>
  </clipPath>
  <clipPath id="p780520ca35">
   <rect height="14.119481" width="334.8" x="53.473438" y="99.835008"/>
  </clipPath>
  <clipPath id="pec092cf273">
   <rect height="14.119481" width="334.8" x="53.473438" y="116.778385"/>
  </clipPath>
  <clipPath id="p02f04ecae5">
   <rect height="14.119481" width="334.8" x="53.473438" y="133.721761"/>
  </clipPath>
  <clipPath id="pfb96071f50">
   <rect height="14.119481" width="334.8" x="53.473438" y="150.665138"/>
  </clipPath>
  <clipPath id="p94d0e49ca9">
   <rect height="14.119481" width="334.8" x="53.473438" y="167.608515"/>
  </clipPath>
  <clipPath id="p505edbbffc">
   <rect height="14.119481" width="334.8" x="53.473438" y="184.551891"/>
  </clipPath>
  <clipPath id="p1206e82bf5">
   <rect height="14.119481" width="334.8" x="53.473438" y="201.495268"/>
  </clipPath>
  <clipPath id="pb61d1b4ea3">
   <rect height="14.119481" width="334.8" x="53.473438" y="218.438644"/>
  </clipPath>
 </defs>
</svg>
