<?xml version="1.0" encoding="utf-8" standalone="no"?>
<!DOCTYPE svg PUBLIC "-//W3C//DTD SVG 1.1//EN"
  "http://www.w3.org/Graphics/SVG/1.1/DTD/svg11.dtd">
<!-- Created with matplotlib (https://matplotlib.org/) -->
<svg height="297.90825pt" version="1.1" viewBox="0 0 372.249687 297.90825" width="372.249687pt" xmlns="http://www.w3.org/2000/svg" xmlns:xlink="http://www.w3.org/1999/xlink">
 <defs>
  <style type="text/css">
*{stroke-linecap:butt;stroke-linejoin:round;}
  </style>
 </defs>
 <g id="figure_1">
  <g id="patch_1">
   <path d="M 0 297.90825 
L 372.249687 297.90825 
L 372.249687 -0 
L 0 -0 
z
" style="fill:none;"/>
  </g>
  <g id="axes_1">
   <g id="patch_2">
    <path d="M 15.129688 32.398125 
L 372.249688 32.398125 
L 372.249688 15.118125 
L 15.129688 15.118125 
z
" style="fill:none;"/>
   </g>
   <g id="patch_3">
    <path clip-path="url(#pfde2b31db1)" d="M 23.407303 30.670125 
L 88.445714 30.670125 
L 88.445714 22.030125 
L 23.407303 22.030125 
z
" style="fill:#ff0000;stroke:#000000;stroke-linejoin:miter;"/>
   </g>
   <g id="patch_4">
    <path clip-path="url(#pfde2b31db1)" d="M 88.445714 30.670125 
L 141.658959 30.670125 
L 141.658959 22.030125 
L 88.445714 22.030125 
z
" style="fill:#00ff00;stroke:#000000;stroke-linejoin:miter;"/>
   </g>
   <g id="patch_5">
    <path clip-path="url(#pfde2b31db1)" d="M 141.658959 30.670125 
L 183.047038 30.670125 
L 183.047038 22.030125 
L 141.658959 22.030125 
z
" style="fill:#ff1ab9;stroke:#000000;stroke-linejoin:miter;"/>
   </g>
   <g id="patch_6">
    <path clip-path="url(#pfde2b31db1)" d="M 183.047038 30.670125 
L 224.435118 30.670125 
L 224.435118 22.030125 
L 183.047038 22.030125 
z
" style="fill:#ffd300;stroke:#000000;stroke-linejoin:miter;"/>
   </g>
   <g id="patch_7">
    <path clip-path="url(#pfde2b31db1)" d="M 224.435118 30.670125 
L 242.172866 30.670125 
L 242.172866 22.030125 
L 224.435118 22.030125 
z
" style="fill:#005800;stroke:#000000;stroke-linejoin:miter;"/>
   </g>
   <g id="patch_8">
    <path clip-path="url(#pfde2b31db1)" d="M 242.172866 30.670125 
L 271.73578 30.670125 
L 271.73578 22.030125 
L 242.172866 22.030125 
z
" style="fill:#8484ff;stroke:#000000;stroke-linejoin:miter;"/>
   </g>
   <g id="patch_9">
    <path clip-path="url(#pfde2b31db1)" d="M 271.73578 30.670125 
L 324.949025 30.670125 
L 324.949025 22.030125 
L 271.73578 22.030125 
z
" style="fill:#9e4f46;stroke:#000000;stroke-linejoin:miter;"/>
   </g>
   <g id="patch_10">
    <path clip-path="url(#pfde2b31db1)" d="M 324.949025 30.670125 
L 372.249688 30.670125 
L 372.249688 22.030125 
L 324.949025 22.030125 
z
" style="fill:#00ffc1;stroke:#000000;stroke-linejoin:miter;"/>
   </g>
   <g id="matplotlib.axis_1"/>
   <g id="matplotlib.axis_2">
    <g id="ytick_1"/>
    <g id="ytick_2"/>
   </g>
   <g id="patch_11">
    <path d="M 15.129688 32.398125 
L 15.129688 15.118125 
" style="fill:none;stroke:#000000;stroke-linecap:square;stroke-linejoin:miter;stroke-width:0.8;"/>
   </g>
   <g id="patch_12">
    <path d="M 372.249688 32.398125 
L 372.249688 15.118125 
" style="fill:none;stroke:#000000;stroke-linecap:square;stroke-linejoin:miter;stroke-width:0.8;"/>
   </g>
   <g id="patch_13">
    <path d="M 15.129688 32.398125 
L 372.249688 32.398125 
" style="fill:none;stroke:#000000;stroke-linecap:square;stroke-linejoin:miter;stroke-width:0.8;"/>
   </g>
   <g id="patch_14">
    <path d="M 15.129688 15.118125 
L 372.249688 15.118125 
" style="fill:none;stroke:#000000;stroke-linecap:square;stroke-linejoin:miter;stroke-width:0.8;"/>
   </g>
   <g id="text_1">
    <text style="font-family:DejaVu Sans;font-size:12px;font-style:normal;font-weight:normal;text-anchor:middle;" transform="rotate(-0, 193.689688, 9.118125)" x="193.689688" y="9.118125">Chr 6</text>
   </g>
  </g>
  <g id="axes_2">
   <g id="patch_15">
    <path d="M 15.129688 53.134125 
L 372.249688 53.134125 
L 372.249688 35.854125 
L 15.129688 35.854125 
z
" style="fill:none;"/>
   </g>
   <g id="patch_16">
    <path clip-path="url(#pc8439058c4)" d="M 23.407303 51.406125 
L 129.833793 51.406125 
L 129.833793 42.766125 
L 23.407303 42.766125 
z
" style="fill:#ff0000;stroke:#000000;stroke-linejoin:miter;"/>
   </g>
   <g id="patch_17">
    <path clip-path="url(#pc8439058c4)" d="M 129.833793 51.406125 
L 183.047038 51.406125 
L 183.047038 42.766125 
L 129.833793 42.766125 
z
" style="fill:#00ff00;stroke:#000000;stroke-linejoin:miter;"/>
   </g>
   <g id="patch_18">
    <path clip-path="url(#pc8439058c4)" d="M 183.047038 51.406125 
L 224.435118 51.406125 
L 224.435118 42.766125 
L 183.047038 42.766125 
z
" style="fill:#ff1ab9;stroke:#000000;stroke-linejoin:miter;"/>
   </g>
   <g id="patch_19">
    <path clip-path="url(#pc8439058c4)" d="M 224.435118 51.406125 
L 324.949025 51.406125 
L 324.949025 42.766125 
L 224.435118 42.766125 
z
" style="fill:#ffd300;stroke:#000000;stroke-linejoin:miter;"/>
   </g>
   <g id="patch_20">
    <path clip-path="url(#pc8439058c4)" d="M 324.949025 51.406125 
L 372.249688 51.406125 
L 372.249688 42.766125 
L 324.949025 42.766125 
z
" style="fill:#005800;stroke:#000000;stroke-linejoin:miter;"/>
   </g>
   <g id="matplotlib.axis_3"/>
   <g id="matplotlib.axis_4">
    <g id="ytick_3"/>
    <g id="ytick_4"/>
    <g id="text_2">
     <text style="font-family:DejaVu Sans;font-size:10px;font-style:normal;font-weight:normal;" transform="translate(11.129688 31.216625)"/>
     <text style="font-family:DejaVu Sans;font-size:10px;font-style:normal;font-weight:normal;" transform="translate(3.18125 42.414437)">2   </text>
    </g>
   </g>
   <g id="patch_21">
    <path d="M 15.129688 53.134125 
L 15.129688 35.854125 
" style="fill:none;stroke:#000000;stroke-linecap:square;stroke-linejoin:miter;stroke-width:0.8;"/>
   </g>
   <g id="patch_22">
    <path d="M 372.249688 53.134125 
L 372.249688 35.854125 
" style="fill:none;stroke:#000000;stroke-linecap:square;stroke-linejoin:miter;stroke-width:0.8;"/>
   </g>
   <g id="patch_23">
    <path d="M 15.129688 53.134125 
L 372.249688 53.134125 
" style="fill:none;stroke:#000000;stroke-linecap:square;stroke-linejoin:miter;stroke-width:0.8;"/>
   </g>
   <g id="patch_24">
    <path d="M 15.129688 35.854125 
L 372.249688 35.854125 
" style="fill:none;stroke:#000000;stroke-linecap:square;stroke-linejoin:miter;stroke-width:0.8;"/>
   </g>
  </g>
  <g id="axes_3">
   <g id="patch_25">
    <path d="M 15.129688 73.870125 
L 372.249688 73.870125 
L 372.249688 56.590125 
L 15.129688 56.590125 
z
" style="fill:none;"/>
   </g>
   <g id="patch_26">
    <path clip-path="url(#p01898574d6)" d="M 29.319886 72.142125 
L 58.8828 72.142125 
L 58.8828 63.502125 
L 29.319886 63.502125 
z
" style="fill:#ff0000;stroke:#000000;stroke-linejoin:miter;"/>
   </g>
   <g id="patch_27">
    <path clip-path="url(#p01898574d6)" d="M 58.8828 72.142125 
L 94.358297 72.142125 
L 94.358297 63.502125 
L 58.8828 63.502125 
z
" style="fill:#00ff00;stroke:#000000;stroke-linejoin:miter;"/>
   </g>
   <g id="patch_28">
    <path clip-path="url(#p01898574d6)" d="M 94.358297 72.142125 
L 171.221873 72.142125 
L 171.221873 63.502125 
L 94.358297 63.502125 
z
" style="fill:#ff1ab9;stroke:#000000;stroke-linejoin:miter;"/>
   </g>
   <g id="patch_29">
    <path clip-path="url(#p01898574d6)" d="M 171.221873 72.142125 
L 271.73578 72.142125 
L 271.73578 63.502125 
L 171.221873 63.502125 
z
" style="fill:#ffd300;stroke:#000000;stroke-linejoin:miter;"/>
   </g>
   <g id="patch_30">
    <path clip-path="url(#p01898574d6)" d="M 271.73578 72.142125 
L 301.298694 72.142125 
L 301.298694 63.502125 
L 271.73578 63.502125 
z
" style="fill:#005800;stroke:#000000;stroke-linejoin:miter;"/>
   </g>
   <g id="patch_31">
    <path clip-path="url(#p01898574d6)" d="M 301.298694 72.142125 
L 336.774191 72.142125 
L 336.774191 63.502125 
L 301.298694 63.502125 
z
" style="fill:#8484ff;stroke:#000000;stroke-linejoin:miter;"/>
   </g>
   <g id="patch_32">
    <path clip-path="url(#p01898574d6)" d="M 336.774191 72.142125 
L 372.249688 72.142125 
L 372.249688 63.502125 
L 336.774191 63.502125 
z
" style="fill:#9e4f46;stroke:#000000;stroke-linejoin:miter;"/>
   </g>
   <g id="matplotlib.axis_5"/>
   <g id="matplotlib.axis_6">
    <g id="ytick_5"/>
    <g id="ytick_6"/>
    <g id="text_3">
     <text style="font-family:DejaVu Sans;font-size:10px;font-style:normal;font-weight:normal;" transform="translate(11.129688 51.952625)"/>
     <text style="font-family:DejaVu Sans;font-size:10px;font-style:normal;font-weight:normal;" transform="translate(3.18125 63.150437)">3   </text>
    </g>
   </g>
   <g id="patch_33">
    <path d="M 15.129688 73.870125 
L 15.129688 56.590125 
" style="fill:none;stroke:#000000;stroke-linecap:square;stroke-linejoin:miter;stroke-width:0.8;"/>
   </g>
   <g id="patch_34">
    <path d="M 372.249688 73.870125 
L 372.249688 56.590125 
" style="fill:none;stroke:#000000;stroke-linecap:square;stroke-linejoin:miter;stroke-width:0.8;"/>
   </g>
   <g id="patch_35">
    <path d="M 15.129688 73.870125 
L 372.249688 73.870125 
" style="fill:none;stroke:#000000;stroke-linecap:square;stroke-linejoin:miter;stroke-width:0.8;"/>
   </g>
   <g id="patch_36">
    <path d="M 15.129688 56.590125 
L 372.249688 56.590125 
" style="fill:none;stroke:#000000;stroke-linecap:square;stroke-linejoin:miter;stroke-width:0.8;"/>
   </g>
  </g>
  <g id="axes_4">
   <g id="patch_37">
    <path d="M 15.129688 94.606125 
L 372.249688 94.606125 
L 372.249688 77.326125 
L 15.129688 77.326125 
z
" style="fill:none;"/>
   </g>
   <g id="patch_38">
    <path clip-path="url(#p3822120b96)" d="M 23.407303 92.878125 
L 88.445714 92.878125 
L 88.445714 84.238125 
L 23.407303 84.238125 
z
" style="fill:#ff0000;stroke:#000000;stroke-linejoin:miter;"/>
   </g>
   <g id="patch_39">
    <path clip-path="url(#p3822120b96)" d="M 88.445714 92.878125 
L 141.658959 92.878125 
L 141.658959 84.238125 
L 88.445714 84.238125 
z
" style="fill:#00ff00;stroke:#000000;stroke-linejoin:miter;"/>
   </g>
   <g id="patch_40">
    <path clip-path="url(#p3822120b96)" d="M 141.658959 92.878125 
L 171.221873 92.878125 
L 171.221873 84.238125 
L 141.658959 84.238125 
z
" style="fill:#ff1ab9;stroke:#000000;stroke-linejoin:miter;"/>
   </g>
   <g id="patch_41">
    <path clip-path="url(#p3822120b96)" d="M 171.221873 92.878125 
L 200.784787 92.878125 
L 200.784787 84.238125 
L 171.221873 84.238125 
z
" style="fill:#ffd300;stroke:#000000;stroke-linejoin:miter;"/>
   </g>
   <g id="patch_42">
    <path clip-path="url(#p3822120b96)" d="M 200.784787 92.878125 
L 236.260284 92.878125 
L 236.260284 84.238125 
L 200.784787 84.238125 
z
" style="fill:#005800;stroke:#000000;stroke-linejoin:miter;"/>
   </g>
   <g id="patch_43">
    <path clip-path="url(#p3822120b96)" d="M 236.260284 92.878125 
L 289.473529 92.878125 
L 289.473529 84.238125 
L 236.260284 84.238125 
z
" style="fill:#8484ff;stroke:#000000;stroke-linejoin:miter;"/>
   </g>
   <g id="patch_44">
    <path clip-path="url(#p3822120b96)" d="M 289.473529 92.878125 
L 324.949025 92.878125 
L 324.949025 84.238125 
L 289.473529 84.238125 
z
" style="fill:#9e4f46;stroke:#000000;stroke-linejoin:miter;"/>
   </g>
   <g id="patch_45">
    <path clip-path="url(#p3822120b96)" d="M 324.949025 92.878125 
L 372.249688 92.878125 
L 372.249688 84.238125 
L 324.949025 84.238125 
z
" style="fill:#00ffc1;stroke:#000000;stroke-linejoin:miter;"/>
   </g>
   <g id="matplotlib.axis_7"/>
   <g id="matplotlib.axis_8">
    <g id="ytick_7"/>
    <g id="ytick_8"/>
    <g id="text_4">
     <text style="font-family:DejaVu Sans;font-size:10px;font-style:normal;font-weight:normal;" transform="translate(11.129688 72.688625)"/>
     <text style="font-family:DejaVu Sans;font-size:10px;font-style:normal;font-weight:normal;" transform="translate(3.18125 83.886437)">4   </text>
    </g>
   </g>
   <g id="patch_46">
    <path d="M 15.129688 94.606125 
L 15.129688 77.326125 
" style="fill:none;stroke:#000000;stroke-linecap:square;stroke-linejoin:miter;stroke-width:0.8;"/>
   </g>
   <g id="patch_47">
    <path d="M 372.249688 94.606125 
L 372.249688 77.326125 
" style="fill:none;stroke:#000000;stroke-linecap:square;stroke-linejoin:miter;stroke-width:0.8;"/>
   </g>
   <g id="patch_48">
    <path d="M 15.129688 94.606125 
L 372.249688 94.606125 
" style="fill:none;stroke:#000000;stroke-linecap:square;stroke-linejoin:miter;stroke-width:0.8;"/>
   </g>
   <g id="patch_49">
    <path d="M 15.129688 77.326125 
L 372.249688 77.326125 
" style="fill:none;stroke:#000000;stroke-linecap:square;stroke-linejoin:miter;stroke-width:0.8;"/>
   </g>
  </g>
  <g id="axes_5">
   <g id="patch_50">
    <path d="M 15.129688 115.342125 
L 372.249688 115.342125 
L 372.249688 98.062125 
L 15.129688 98.062125 
z
" style="fill:none;"/>
   </g>
   <g id="patch_51">
    <path clip-path="url(#p350f79d915)" d="M 23.407303 113.614125 
L 52.970217 113.614125 
L 52.970217 104.974125 
L 23.407303 104.974125 
z
" style="fill:#ff0000;stroke:#000000;stroke-linejoin:miter;"/>
   </g>
   <g id="patch_52">
    <path clip-path="url(#p350f79d915)" d="M 52.970217 113.614125 
L 129.833793 113.614125 
L 129.833793 104.974125 
L 52.970217 104.974125 
z
" style="fill:#00ff00;stroke:#000000;stroke-linejoin:miter;"/>
   </g>
   <g id="patch_53">
    <path clip-path="url(#p350f79d915)" d="M 129.833793 113.614125 
L 183.047038 113.614125 
L 183.047038 104.974125 
L 129.833793 104.974125 
z
" style="fill:#ff1ab9;stroke:#000000;stroke-linejoin:miter;"/>
   </g>
   <g id="patch_54">
    <path clip-path="url(#p350f79d915)" d="M 183.047038 113.614125 
L 242.172866 113.614125 
L 242.172866 104.974125 
L 183.047038 104.974125 
z
" style="fill:#ffd300;stroke:#000000;stroke-linejoin:miter;"/>
   </g>
   <g id="patch_55">
    <path clip-path="url(#p350f79d915)" d="M 242.172866 113.614125 
L 283.560946 113.614125 
L 283.560946 104.974125 
L 242.172866 104.974125 
z
" style="fill:#005800;stroke:#000000;stroke-linejoin:miter;"/>
   </g>
   <g id="patch_56">
    <path clip-path="url(#p350f79d915)" d="M 283.560946 113.614125 
L 319.036442 113.614125 
L 319.036442 104.974125 
L 283.560946 104.974125 
z
" style="fill:#8484ff;stroke:#000000;stroke-linejoin:miter;"/>
   </g>
   <g id="patch_57">
    <path clip-path="url(#p350f79d915)" d="M 319.036442 113.614125 
L 366.337105 113.614125 
L 366.337105 104.974125 
L 319.036442 104.974125 
z
" style="fill:#9e4f46;stroke:#000000;stroke-linejoin:miter;"/>
   </g>
   <g id="matplotlib.axis_9"/>
   <g id="matplotlib.axis_10">
    <g id="ytick_9"/>
    <g id="ytick_10"/>
    <g id="text_5">
     <text style="font-family:DejaVu Sans;font-size:10px;font-style:normal;font-weight:normal;" transform="translate(11.129688 93.424625)"/>
     <text style="font-family:DejaVu Sans;font-size:10px;font-style:normal;font-weight:normal;" transform="translate(3.18125 104.622437)">5   </text>
    </g>
   </g>
   <g id="patch_58">
    <path d="M 15.129688 115.342125 
L 15.129688 98.062125 
" style="fill:none;stroke:#000000;stroke-linecap:square;stroke-linejoin:miter;stroke-width:0.8;"/>
   </g>
   <g id="patch_59">
    <path d="M 372.249688 115.342125 
L 372.249688 98.062125 
" style="fill:none;stroke:#000000;stroke-linecap:square;stroke-linejoin:miter;stroke-width:0.8;"/>
   </g>
   <g id="patch_60">
    <path d="M 15.129688 115.342125 
L 372.249688 115.342125 
" style="fill:none;stroke:#000000;stroke-linecap:square;stroke-linejoin:miter;stroke-width:0.8;"/>
   </g>
   <g id="patch_61">
    <path d="M 15.129688 98.062125 
L 372.249688 98.062125 
" style="fill:none;stroke:#000000;stroke-linecap:square;stroke-linejoin:miter;stroke-width:0.8;"/>
   </g>
  </g>
  <g id="axes_6">
   <g id="patch_62">
    <path d="M 15.129688 136.078125 
L 372.249688 136.078125 
L 372.249688 118.798125 
L 15.129688 118.798125 
z
" style="fill:none;"/>
   </g>
   <g id="patch_63">
    <path clip-path="url(#p179afd1b3e)" d="M 23.407303 134.350125 
L 76.620548 134.350125 
L 76.620548 125.710125 
L 23.407303 125.710125 
z
" style="fill:#ff0000;stroke:#000000;stroke-linejoin:miter;"/>
   </g>
   <g id="patch_64">
    <path clip-path="url(#p179afd1b3e)" d="M 76.620548 134.350125 
L 94.358297 134.350125 
L 94.358297 125.710125 
L 76.620548 125.710125 
z
" style="fill:#00ff00;stroke:#000000;stroke-linejoin:miter;"/>
   </g>
   <g id="patch_65">
    <path clip-path="url(#p179afd1b3e)" d="M 94.358297 134.350125 
L 159.396707 134.350125 
L 159.396707 125.710125 
L 94.358297 125.710125 
z
" style="fill:#ff1ab9;stroke:#000000;stroke-linejoin:miter;"/>
   </g>
   <g id="patch_66">
    <path clip-path="url(#p179afd1b3e)" d="M 159.396707 134.350125 
L 200.784787 134.350125 
L 200.784787 125.710125 
L 159.396707 125.710125 
z
" style="fill:#ffd300;stroke:#000000;stroke-linejoin:miter;"/>
   </g>
   <g id="patch_67">
    <path clip-path="url(#p179afd1b3e)" d="M 200.784787 134.350125 
L 242.172866 134.350125 
L 242.172866 125.710125 
L 200.784787 125.710125 
z
" style="fill:#005800;stroke:#000000;stroke-linejoin:miter;"/>
   </g>
   <g id="patch_68">
    <path clip-path="url(#p179afd1b3e)" d="M 242.172866 134.350125 
L 301.298694 134.350125 
L 301.298694 125.710125 
L 242.172866 125.710125 
z
" style="fill:#8484ff;stroke:#000000;stroke-linejoin:miter;"/>
   </g>
   <g id="patch_69">
    <path clip-path="url(#p179afd1b3e)" d="M 301.298694 134.350125 
L 330.861608 134.350125 
L 330.861608 125.710125 
L 301.298694 125.710125 
z
" style="fill:#9e4f46;stroke:#000000;stroke-linejoin:miter;"/>
   </g>
   <g id="patch_70">
    <path clip-path="url(#p179afd1b3e)" d="M 330.861608 134.350125 
L 372.249688 134.350125 
L 372.249688 125.710125 
L 330.861608 125.710125 
z
" style="fill:#00ffc1;stroke:#000000;stroke-linejoin:miter;"/>
   </g>
   <g id="matplotlib.axis_11"/>
   <g id="matplotlib.axis_12">
    <g id="ytick_11"/>
    <g id="ytick_12"/>
    <g id="text_6">
     <text style="font-family:DejaVu Sans;font-size:10px;font-style:normal;font-weight:normal;" transform="translate(11.129688 114.160625)"/>
     <text style="font-family:DejaVu Sans;font-size:10px;font-style:normal;font-weight:normal;" transform="translate(3.18125 125.358437)">6   </text>
    </g>
   </g>
   <g id="patch_71">
    <path d="M 15.129688 136.078125 
L 15.129688 118.798125 
" style="fill:none;stroke:#000000;stroke-linecap:square;stroke-linejoin:miter;stroke-width:0.8;"/>
   </g>
   <g id="patch_72">
    <path d="M 372.249688 136.078125 
L 372.249688 118.798125 
" style="fill:none;stroke:#000000;stroke-linecap:square;stroke-linejoin:miter;stroke-width:0.8;"/>
   </g>
   <g id="patch_73">
    <path d="M 15.129688 136.078125 
L 372.249688 136.078125 
" style="fill:none;stroke:#000000;stroke-linecap:square;stroke-linejoin:miter;stroke-width:0.8;"/>
   </g>
   <g id="patch_74">
    <path d="M 15.129688 118.798125 
L 372.249688 118.798125 
" style="fill:none;stroke:#000000;stroke-linecap:square;stroke-linejoin:miter;stroke-width:0.8;"/>
   </g>
  </g>
  <g id="axes_7">
   <g id="patch_75">
    <path d="M 15.129688 156.814125 
L 372.249688 156.814125 
L 372.249688 139.534125 
L 15.129688 139.534125 
z
" style="fill:none;"/>
   </g>
   <g id="patch_76">
    <path clip-path="url(#pbe319b51a1)" d="M 23.407303 155.086125 
L 58.8828 155.086125 
L 58.8828 146.446125 
L 23.407303 146.446125 
z
" style="fill:#ff0000;stroke:#000000;stroke-linejoin:miter;"/>
   </g>
   <g id="patch_77">
    <path clip-path="url(#pbe319b51a1)" d="M 58.8828 155.086125 
L 129.833793 155.086125 
L 129.833793 146.446125 
L 58.8828 146.446125 
z
" style="fill:#00ff00;stroke:#000000;stroke-linejoin:miter;"/>
   </g>
   <g id="patch_78">
    <path clip-path="url(#pbe319b51a1)" d="M 129.833793 155.086125 
L 171.221873 155.086125 
L 171.221873 146.446125 
L 129.833793 146.446125 
z
" style="fill:#ff1ab9;stroke:#000000;stroke-linejoin:miter;"/>
   </g>
   <g id="patch_79">
    <path clip-path="url(#pbe319b51a1)" d="M 171.221873 155.086125 
L 224.435118 155.086125 
L 224.435118 146.446125 
L 171.221873 146.446125 
z
" style="fill:#ffd300;stroke:#000000;stroke-linejoin:miter;"/>
   </g>
   <g id="patch_80">
    <path clip-path="url(#pbe319b51a1)" d="M 224.435118 155.086125 
L 259.910615 155.086125 
L 259.910615 146.446125 
L 224.435118 146.446125 
z
" style="fill:#005800;stroke:#000000;stroke-linejoin:miter;"/>
   </g>
   <g id="patch_81">
    <path clip-path="url(#pbe319b51a1)" d="M 259.910615 155.086125 
L 313.12386 155.086125 
L 313.12386 146.446125 
L 259.910615 146.446125 
z
" style="fill:#8484ff;stroke:#000000;stroke-linejoin:miter;"/>
   </g>
   <g id="patch_82">
    <path clip-path="url(#pbe319b51a1)" d="M 313.12386 155.086125 
L 366.337105 155.086125 
L 366.337105 146.446125 
L 313.12386 146.446125 
z
" style="fill:#9e4f46;stroke:#000000;stroke-linejoin:miter;"/>
   </g>
   <g id="matplotlib.axis_13"/>
   <g id="matplotlib.axis_14">
    <g id="ytick_13"/>
    <g id="ytick_14"/>
    <g id="text_7">
     <text style="font-family:DejaVu Sans;font-size:10px;font-style:normal;font-weight:normal;" transform="translate(11.129688 134.896625)"/>
     <text style="font-family:DejaVu Sans;font-size:10px;font-style:normal;font-weight:normal;" transform="translate(3.18125 146.094437)">7   </text>
    </g>
   </g>
   <g id="patch_83">
    <path d="M 15.129688 156.814125 
L 15.129688 139.534125 
" style="fill:none;stroke:#000000;stroke-linecap:square;stroke-linejoin:miter;stroke-width:0.8;"/>
   </g>
   <g id="patch_84">
    <path d="M 372.249688 156.814125 
L 372.249688 139.534125 
" style="fill:none;stroke:#000000;stroke-linecap:square;stroke-linejoin:miter;stroke-width:0.8;"/>
   </g>
   <g id="patch_85">
    <path d="M 15.129688 156.814125 
L 372.249688 156.814125 
" style="fill:none;stroke:#000000;stroke-linecap:square;stroke-linejoin:miter;stroke-width:0.8;"/>
   </g>
   <g id="patch_86">
    <path d="M 15.129688 139.534125 
L 372.249688 139.534125 
" style="fill:none;stroke:#000000;stroke-linecap:square;stroke-linejoin:miter;stroke-width:0.8;"/>
   </g>
  </g>
  <g id="axes_8">
   <g id="patch_87">
    <path d="M 15.129688 177.550125 
L 372.249688 177.550125 
L 372.249688 160.270125 
L 15.129688 160.270125 
z
" style="fill:none;"/>
   </g>
   <g id="patch_88">
    <path clip-path="url(#p029ea14753)" d="M 29.319886 175.822125 
L 94.358297 175.822125 
L 94.358297 167.182125 
L 29.319886 167.182125 
z
" style="fill:#ff0000;stroke:#000000;stroke-linejoin:miter;"/>
   </g>
   <g id="patch_89">
    <path clip-path="url(#p029ea14753)" d="M 94.358297 175.822125 
L 129.833793 175.822125 
L 129.833793 167.182125 
L 94.358297 167.182125 
z
" style="fill:#00ff00;stroke:#000000;stroke-linejoin:miter;"/>
   </g>
   <g id="patch_90">
    <path clip-path="url(#p029ea14753)" d="M 129.833793 175.822125 
L 183.047038 175.822125 
L 183.047038 167.182125 
L 129.833793 167.182125 
z
" style="fill:#ff1ab9;stroke:#000000;stroke-linejoin:miter;"/>
   </g>
   <g id="patch_91">
    <path clip-path="url(#p029ea14753)" d="M 183.047038 175.822125 
L 218.522535 175.822125 
L 218.522535 167.182125 
L 183.047038 167.182125 
z
" style="fill:#ffd300;stroke:#000000;stroke-linejoin:miter;"/>
   </g>
   <g id="patch_92">
    <path clip-path="url(#p029ea14753)" d="M 218.522535 175.822125 
L 271.73578 175.822125 
L 271.73578 167.182125 
L 218.522535 167.182125 
z
" style="fill:#005800;stroke:#000000;stroke-linejoin:miter;"/>
   </g>
   <g id="patch_93">
    <path clip-path="url(#p029ea14753)" d="M 271.73578 175.822125 
L 307.211277 175.822125 
L 307.211277 167.182125 
L 271.73578 167.182125 
z
" style="fill:#8484ff;stroke:#000000;stroke-linejoin:miter;"/>
   </g>
   <g id="patch_94">
    <path clip-path="url(#p029ea14753)" d="M 307.211277 175.822125 
L 348.599356 175.822125 
L 348.599356 167.182125 
L 307.211277 167.182125 
z
" style="fill:#9e4f46;stroke:#000000;stroke-linejoin:miter;"/>
   </g>
   <g id="patch_95">
    <path clip-path="url(#p029ea14753)" d="M 348.599356 175.822125 
L 372.249688 175.822125 
L 372.249688 167.182125 
L 348.599356 167.182125 
z
" style="fill:#00ffc1;stroke:#000000;stroke-linejoin:miter;"/>
   </g>
   <g id="matplotlib.axis_15"/>
   <g id="matplotlib.axis_16">
    <g id="ytick_15"/>
    <g id="ytick_16"/>
    <g id="text_8">
     <text style="font-family:DejaVu Sans;font-size:10px;font-style:normal;font-weight:normal;" transform="translate(11.129688 155.632625)"/>
     <text style="font-family:DejaVu Sans;font-size:10px;font-style:normal;font-weight:normal;" transform="translate(3.18125 166.830437)">8   </text>
    </g>
   </g>
   <g id="patch_96">
    <path d="M 15.129688 177.550125 
L 15.129688 160.270125 
" style="fill:none;stroke:#000000;stroke-linecap:square;stroke-linejoin:miter;stroke-width:0.8;"/>
   </g>
   <g id="patch_97">
    <path d="M 372.249688 177.550125 
L 372.249688 160.270125 
" style="fill:none;stroke:#000000;stroke-linecap:square;stroke-linejoin:miter;stroke-width:0.8;"/>
   </g>
   <g id="patch_98">
    <path d="M 15.129688 177.550125 
L 372.249688 177.550125 
" style="fill:none;stroke:#000000;stroke-linecap:square;stroke-linejoin:miter;stroke-width:0.8;"/>
   </g>
   <g id="patch_99">
    <path d="M 15.129688 160.270125 
L 372.249688 160.270125 
" style="fill:none;stroke:#000000;stroke-linecap:square;stroke-linejoin:miter;stroke-width:0.8;"/>
   </g>
  </g>
  <g id="axes_9">
   <g id="patch_100">
    <path d="M 15.129688 198.286125 
L 372.249688 198.286125 
L 372.249688 181.006125 
L 15.129688 181.006125 
z
" style="fill:none;"/>
   </g>
   <g id="patch_101">
    <path clip-path="url(#p8927137d12)" d="M 23.407303 196.558125 
L 76.620548 196.558125 
L 76.620548 187.918125 
L 23.407303 187.918125 
z
" style="fill:#ff0000;stroke:#000000;stroke-linejoin:miter;"/>
   </g>
   <g id="patch_102">
    <path clip-path="url(#p8927137d12)" d="M 76.620548 196.558125 
L 112.096045 196.558125 
L 112.096045 187.918125 
L 76.620548 187.918125 
z
" style="fill:#00ff00;stroke:#000000;stroke-linejoin:miter;"/>
   </g>
   <g id="patch_103">
    <path clip-path="url(#p8927137d12)" d="M 112.096045 196.558125 
L 177.134456 196.558125 
L 177.134456 187.918125 
L 112.096045 187.918125 
z
" style="fill:#ff1ab9;stroke:#000000;stroke-linejoin:miter;"/>
   </g>
   <g id="patch_104">
    <path clip-path="url(#p8927137d12)" d="M 177.134456 196.558125 
L 248.085449 196.558125 
L 248.085449 187.918125 
L 177.134456 187.918125 
z
" style="fill:#ffd300;stroke:#000000;stroke-linejoin:miter;"/>
   </g>
   <g id="patch_105">
    <path clip-path="url(#p8927137d12)" d="M 248.085449 196.558125 
L 295.386111 196.558125 
L 295.386111 187.918125 
L 248.085449 187.918125 
z
" style="fill:#005800;stroke:#000000;stroke-linejoin:miter;"/>
   </g>
   <g id="patch_106">
    <path clip-path="url(#p8927137d12)" d="M 295.386111 196.558125 
L 342.686774 196.558125 
L 342.686774 187.918125 
L 295.386111 187.918125 
z
" style="fill:#8484ff;stroke:#000000;stroke-linejoin:miter;"/>
   </g>
   <g id="patch_107">
    <path clip-path="url(#p8927137d12)" d="M 342.686774 196.558125 
L 372.249688 196.558125 
L 372.249688 187.918125 
L 342.686774 187.918125 
z
" style="fill:#9e4f46;stroke:#000000;stroke-linejoin:miter;"/>
   </g>
   <g id="matplotlib.axis_17"/>
   <g id="matplotlib.axis_18">
    <g id="ytick_17"/>
    <g id="ytick_18"/>
    <g id="text_9">
     <text style="font-family:DejaVu Sans;font-size:10px;font-style:normal;font-weight:normal;" transform="translate(11.129688 176.368625)"/>
     <text style="font-family:DejaVu Sans;font-size:10px;font-style:normal;font-weight:normal;" transform="translate(3.18125 187.566437)">9   </text>
    </g>
   </g>
   <g id="patch_108">
    <path d="M 15.129688 198.286125 
L 15.129688 181.006125 
" style="fill:none;stroke:#000000;stroke-linecap:square;stroke-linejoin:miter;stroke-width:0.8;"/>
   </g>
   <g id="patch_109">
    <path d="M 372.249688 198.286125 
L 372.249688 181.006125 
" style="fill:none;stroke:#000000;stroke-linecap:square;stroke-linejoin:miter;stroke-width:0.8;"/>
   </g>
   <g id="patch_110">
    <path d="M 15.129688 198.286125 
L 372.249688 198.286125 
" style="fill:none;stroke:#000000;stroke-linecap:square;stroke-linejoin:miter;stroke-width:0.8;"/>
   </g>
   <g id="patch_111">
    <path d="M 15.129688 181.006125 
L 372.249688 181.006125 
" style="fill:none;stroke:#000000;stroke-linecap:square;stroke-linejoin:miter;stroke-width:0.8;"/>
   </g>
  </g>
  <g id="axes_10">
   <g id="patch_112">
    <path d="M 15.129688 219.022125 
L 372.249688 219.022125 
L 372.249688 201.742125 
L 15.129688 201.742125 
z
" style="fill:none;"/>
   </g>
   <g id="patch_113">
    <path clip-path="url(#p882ae5e7aa)" d="M 23.407303 217.294125 
L 47.057635 217.294125 
L 47.057635 208.654125 
L 23.407303 208.654125 
z
" style="fill:#ff0000;stroke:#000000;stroke-linejoin:miter;"/>
   </g>
   <g id="patch_114">
    <path clip-path="url(#p882ae5e7aa)" d="M 47.057635 217.294125 
L 76.620548 217.294125 
L 76.620548 208.654125 
L 47.057635 208.654125 
z
" style="fill:#00ff00;stroke:#000000;stroke-linejoin:miter;"/>
   </g>
   <g id="patch_115">
    <path clip-path="url(#p882ae5e7aa)" d="M 76.620548 217.294125 
L 135.746376 217.294125 
L 135.746376 208.654125 
L 76.620548 208.654125 
z
" style="fill:#ff1ab9;stroke:#000000;stroke-linejoin:miter;"/>
   </g>
   <g id="patch_116">
    <path clip-path="url(#p882ae5e7aa)" d="M 135.746376 217.294125 
L 188.959621 217.294125 
L 188.959621 208.654125 
L 135.746376 208.654125 
z
" style="fill:#ffd300;stroke:#000000;stroke-linejoin:miter;"/>
   </g>
   <g id="patch_117">
    <path clip-path="url(#p882ae5e7aa)" d="M 188.959621 217.294125 
L 230.347701 217.294125 
L 230.347701 208.654125 
L 188.959621 208.654125 
z
" style="fill:#005800;stroke:#000000;stroke-linejoin:miter;"/>
   </g>
   <g id="patch_118">
    <path clip-path="url(#p882ae5e7aa)" d="M 230.347701 217.294125 
L 265.823197 217.294125 
L 265.823197 208.654125 
L 230.347701 208.654125 
z
" style="fill:#8484ff;stroke:#000000;stroke-linejoin:miter;"/>
   </g>
   <g id="patch_119">
    <path clip-path="url(#p882ae5e7aa)" d="M 265.823197 217.294125 
L 301.298694 217.294125 
L 301.298694 208.654125 
L 265.823197 208.654125 
z
" style="fill:#9e4f46;stroke:#000000;stroke-linejoin:miter;"/>
   </g>
   <g id="patch_120">
    <path clip-path="url(#p882ae5e7aa)" d="M 301.298694 217.294125 
L 336.774191 217.294125 
L 336.774191 208.654125 
L 301.298694 208.654125 
z
" style="fill:#00ffc1;stroke:#000000;stroke-linejoin:miter;"/>
   </g>
   <g id="patch_121">
    <path clip-path="url(#p882ae5e7aa)" d="M 336.774191 217.294125 
L 372.249688 217.294125 
L 372.249688 208.654125 
L 336.774191 208.654125 
z
" style="fill:#008495;stroke:#000000;stroke-linejoin:miter;"/>
   </g>
   <g id="matplotlib.axis_19"/>
   <g id="matplotlib.axis_20">
    <g id="ytick_19"/>
    <g id="ytick_20"/>
    <g id="text_10">
     <text style="font-family:DejaVu Sans;font-size:10px;font-style:normal;font-weight:normal;" transform="translate(11.129688 197.104625)"/>
     <text style="font-family:DejaVu Sans;font-size:10px;font-style:normal;font-weight:normal;" transform="translate(0 208.302437)">10   </text>
    </g>
   </g>
   <g id="patch_122">
    <path d="M 15.129688 219.022125 
L 15.129688 201.742125 
" style="fill:none;stroke:#000000;stroke-linecap:square;stroke-linejoin:miter;stroke-width:0.8;"/>
   </g>
   <g id="patch_123">
    <path d="M 372.249688 219.022125 
L 372.249688 201.742125 
" style="fill:none;stroke:#000000;stroke-linecap:square;stroke-linejoin:miter;stroke-width:0.8;"/>
   </g>
   <g id="patch_124">
    <path d="M 15.129688 219.022125 
L 372.249688 219.022125 
" style="fill:none;stroke:#000000;stroke-linecap:square;stroke-linejoin:miter;stroke-width:0.8;"/>
   </g>
   <g id="patch_125">
    <path d="M 15.129688 201.742125 
L 372.249688 201.742125 
" style="fill:none;stroke:#000000;stroke-linecap:square;stroke-linejoin:miter;stroke-width:0.8;"/>
   </g>
  </g>
  <g id="axes_11">
   <g id="patch_126">
    <path d="M 15.129688 239.758125 
L 372.249688 239.758125 
L 372.249688 222.478125 
L 15.129688 222.478125 
z
" style="fill:none;"/>
   </g>
   <g id="patch_127">
    <path clip-path="url(#p8cc0915b1b)" d="M 29.319886 238.030125 
L 64.795383 238.030125 
L 64.795383 229.390125 
L 29.319886 229.390125 
z
" style="fill:#ff0000;stroke:#000000;stroke-linejoin:miter;"/>
   </g>
   <g id="patch_128">
    <path clip-path="url(#p8cc0915b1b)" d="M 64.795383 238.030125 
L 106.183462 238.030125 
L 106.183462 229.390125 
L 64.795383 229.390125 
z
" style="fill:#00ff00;stroke:#000000;stroke-linejoin:miter;"/>
   </g>
   <g id="patch_129">
    <path clip-path="url(#p8cc0915b1b)" d="M 106.183462 238.030125 
L 147.571542 238.030125 
L 147.571542 229.390125 
L 106.183462 229.390125 
z
" style="fill:#ff1ab9;stroke:#000000;stroke-linejoin:miter;"/>
   </g>
   <g id="patch_130">
    <path clip-path="url(#p8cc0915b1b)" d="M 147.571542 238.030125 
L 200.784787 238.030125 
L 200.784787 229.390125 
L 147.571542 229.390125 
z
" style="fill:#ffd300;stroke:#000000;stroke-linejoin:miter;"/>
   </g>
   <g id="patch_131">
    <path clip-path="url(#p8cc0915b1b)" d="M 200.784787 238.030125 
L 230.347701 238.030125 
L 230.347701 229.390125 
L 200.784787 229.390125 
z
" style="fill:#005800;stroke:#000000;stroke-linejoin:miter;"/>
   </g>
   <g id="patch_132">
    <path clip-path="url(#p8cc0915b1b)" d="M 230.347701 238.030125 
L 289.473529 238.030125 
L 289.473529 229.390125 
L 230.347701 229.390125 
z
" style="fill:#8484ff;stroke:#000000;stroke-linejoin:miter;"/>
   </g>
   <g id="patch_133">
    <path clip-path="url(#p8cc0915b1b)" d="M 289.473529 238.030125 
L 372.249688 238.030125 
L 372.249688 229.390125 
L 289.473529 229.390125 
z
" style="fill:#9e4f46;stroke:#000000;stroke-linejoin:miter;"/>
   </g>
   <g id="matplotlib.axis_21"/>
   <g id="matplotlib.axis_22">
    <g id="ytick_21"/>
    <g id="ytick_22"/>
    <g id="text_11">
     <text style="font-family:DejaVu Sans;font-size:10px;font-style:normal;font-weight:normal;" transform="translate(11.129688 217.840625)"/>
     <text style="font-family:DejaVu Sans;font-size:10px;font-style:normal;font-weight:normal;" transform="translate(0 229.038438)">11   </text>
    </g>
   </g>
   <g id="patch_134">
    <path d="M 15.129688 239.758125 
L 15.129688 222.478125 
" style="fill:none;stroke:#000000;stroke-linecap:square;stroke-linejoin:miter;stroke-width:0.8;"/>
   </g>
   <g id="patch_135">
    <path d="M 372.249688 239.758125 
L 372.249688 222.478125 
" style="fill:none;stroke:#000000;stroke-linecap:square;stroke-linejoin:miter;stroke-width:0.8;"/>
   </g>
   <g id="patch_136">
    <path d="M 15.129688 239.758125 
L 372.249688 239.758125 
" style="fill:none;stroke:#000000;stroke-linecap:square;stroke-linejoin:miter;stroke-width:0.8;"/>
   </g>
   <g id="patch_137">
    <path d="M 15.129688 222.478125 
L 372.249688 222.478125 
" style="fill:none;stroke:#000000;stroke-linecap:square;stroke-linejoin:miter;stroke-width:0.8;"/>
   </g>
  </g>
  <g id="axes_12">
   <g id="patch_138">
    <path d="M 15.129688 260.494125 
L 372.249688 260.494125 
L 372.249688 243.214125 
L 15.129688 243.214125 
z
" style="fill:none;"/>
   </g>
   <g id="patch_139">
    <path clip-path="url(#pdbe8e0f608)" d="M 23.407303 258.766125 
L 52.970217 258.766125 
L 52.970217 250.126125 
L 23.407303 250.126125 
z
" style="fill:#ff0000;stroke:#000000;stroke-linejoin:miter;"/>
   </g>
   <g id="patch_140">
    <path clip-path="url(#pdbe8e0f608)" d="M 52.970217 258.766125 
L 82.533131 258.766125 
L 82.533131 250.126125 
L 52.970217 250.126125 
z
" style="fill:#00ff00;stroke:#000000;stroke-linejoin:miter;"/>
   </g>
   <g id="patch_141">
    <path clip-path="url(#pdbe8e0f608)" d="M 82.533131 258.766125 
L 141.658959 258.766125 
L 141.658959 250.126125 
L 82.533131 250.126125 
z
" style="fill:#ff1ab9;stroke:#000000;stroke-linejoin:miter;"/>
   </g>
   <g id="patch_142">
    <path clip-path="url(#pdbe8e0f608)" d="M 141.658959 258.766125 
L 212.609952 258.766125 
L 212.609952 250.126125 
L 141.658959 250.126125 
z
" style="fill:#ffd300;stroke:#000000;stroke-linejoin:miter;"/>
   </g>
   <g id="patch_143">
    <path clip-path="url(#pdbe8e0f608)" d="M 212.609952 258.766125 
L 248.085449 258.766125 
L 248.085449 250.126125 
L 212.609952 250.126125 
z
" style="fill:#005800;stroke:#000000;stroke-linejoin:miter;"/>
   </g>
   <g id="patch_144">
    <path clip-path="url(#pdbe8e0f608)" d="M 248.085449 258.766125 
L 289.473529 258.766125 
L 289.473529 250.126125 
L 248.085449 250.126125 
z
" style="fill:#8484ff;stroke:#000000;stroke-linejoin:miter;"/>
   </g>
   <g id="patch_145">
    <path clip-path="url(#pdbe8e0f608)" d="M 289.473529 258.766125 
L 336.774191 258.766125 
L 336.774191 250.126125 
L 289.473529 250.126125 
z
" style="fill:#9e4f46;stroke:#000000;stroke-linejoin:miter;"/>
   </g>
   <g id="patch_146">
    <path clip-path="url(#pdbe8e0f608)" d="M 336.774191 258.766125 
L 372.249688 258.766125 
L 372.249688 250.126125 
L 336.774191 250.126125 
z
" style="fill:#00ffc1;stroke:#000000;stroke-linejoin:miter;"/>
   </g>
   <g id="matplotlib.axis_23"/>
   <g id="matplotlib.axis_24">
    <g id="ytick_23"/>
    <g id="ytick_24"/>
    <g id="text_12">
     <text style="font-family:DejaVu Sans;font-size:10px;font-style:normal;font-weight:normal;" transform="translate(11.129688 238.576625)"/>
     <text style="font-family:DejaVu Sans;font-size:10px;font-style:normal;font-weight:normal;" transform="translate(0 249.774438)">12   </text>
    </g>
   </g>
   <g id="patch_147">
    <path d="M 15.129688 260.494125 
L 15.129688 243.214125 
" style="fill:none;stroke:#000000;stroke-linecap:square;stroke-linejoin:miter;stroke-width:0.8;"/>
   </g>
   <g id="patch_148">
    <path d="M 372.249688 260.494125 
L 372.249688 243.214125 
" style="fill:none;stroke:#000000;stroke-linecap:square;stroke-linejoin:miter;stroke-width:0.8;"/>
   </g>
   <g id="patch_149">
    <path d="M 15.129688 260.494125 
L 372.249688 260.494125 
" style="fill:none;stroke:#000000;stroke-linecap:square;stroke-linejoin:miter;stroke-width:0.8;"/>
   </g>
   <g id="patch_150">
    <path d="M 15.129688 243.214125 
L 372.249688 243.214125 
" style="fill:none;stroke:#000000;stroke-linecap:square;stroke-linejoin:miter;stroke-width:0.8;"/>
   </g>
  </g>
  <g id="axes_13">
   <g id="patch_151">
    <path d="M 15.129688 281.230125 
L 372.249688 281.230125 
L 372.249688 263.950125 
L 15.129688 263.950125 
z
" style="fill:none;"/>
   </g>
   <g id="patch_152">
    <path clip-path="url(#p8246e40303)" d="M 23.407303 279.502125 
L 64.795383 279.502125 
L 64.795383 270.862125 
L 23.407303 270.862125 
z
" style="fill:#ff0000;stroke:#000000;stroke-linejoin:miter;"/>
   </g>
   <g id="patch_153">
    <path clip-path="url(#p8246e40303)" d="M 64.795383 279.502125 
L 94.358297 279.502125 
L 94.358297 270.862125 
L 64.795383 270.862125 
z
" style="fill:#00ff00;stroke:#000000;stroke-linejoin:miter;"/>
   </g>
   <g id="patch_154">
    <path clip-path="url(#p8246e40303)" d="M 94.358297 279.502125 
L 123.921211 279.502125 
L 123.921211 270.862125 
L 94.358297 270.862125 
z
" style="fill:#ff1ab9;stroke:#000000;stroke-linejoin:miter;"/>
   </g>
   <g id="patch_155">
    <path clip-path="url(#p8246e40303)" d="M 123.921211 279.502125 
L 153.484125 279.502125 
L 153.484125 270.862125 
L 123.921211 270.862125 
z
" style="fill:#ffd300;stroke:#000000;stroke-linejoin:miter;"/>
   </g>
   <g id="patch_156">
    <path clip-path="url(#p8246e40303)" d="M 153.484125 279.502125 
L 188.959621 279.502125 
L 188.959621 270.862125 
L 153.484125 270.862125 
z
" style="fill:#005800;stroke:#000000;stroke-linejoin:miter;"/>
   </g>
   <g id="patch_157">
    <path clip-path="url(#p8246e40303)" d="M 188.959621 279.502125 
L 224.435118 279.502125 
L 224.435118 270.862125 
L 188.959621 270.862125 
z
" style="fill:#8484ff;stroke:#000000;stroke-linejoin:miter;"/>
   </g>
   <g id="patch_158">
    <path clip-path="url(#p8246e40303)" d="M 224.435118 279.502125 
L 265.823197 279.502125 
L 265.823197 270.862125 
L 224.435118 270.862125 
z
" style="fill:#9e4f46;stroke:#000000;stroke-linejoin:miter;"/>
   </g>
   <g id="patch_159">
    <path clip-path="url(#p8246e40303)" d="M 265.823197 279.502125 
L 330.861608 279.502125 
L 330.861608 270.862125 
L 265.823197 270.862125 
z
" style="fill:#00ffc1;stroke:#000000;stroke-linejoin:miter;"/>
   </g>
   <g id="patch_160">
    <path clip-path="url(#p8246e40303)" d="M 330.861608 279.502125 
L 372.249688 279.502125 
L 372.249688 270.862125 
L 330.861608 270.862125 
z
" style="fill:#008495;stroke:#000000;stroke-linejoin:miter;"/>
   </g>
   <g id="matplotlib.axis_25">
    <g id="xtick_1">
     <g id="line2d_1">
      <defs>
       <path d="M 0 0 
L 0 3.5 
" id="m3e09492a3c" style="stroke:#000000;stroke-width:0.8;"/>
      </defs>
      <g>
       <use style="stroke:#000000;stroke-width:0.8;" x="17.494721" xlink:href="#m3e09492a3c" y="281.230125"/>
      </g>
     </g>
     <g id="text_13">
      <text style="font-family:DejaVu Sans;font-size:10px;font-style:normal;font-weight:normal;text-anchor:middle;" transform="rotate(-0, 17.494721, 295.828563)" x="17.494721" y="295.828563">0</text>
     </g>
    </g>
    <g id="xtick_2">
     <g id="line2d_2">
      <g>
       <use style="stroke:#000000;stroke-width:0.8;" x="64.795383" xlink:href="#m3e09492a3c" y="281.230125"/>
      </g>
     </g>
     <g id="text_14">
      <text style="font-family:DejaVu Sans;font-size:10px;font-style:normal;font-weight:normal;text-anchor:middle;" transform="rotate(-0, 64.795383, 295.828563)" x="64.795383" y="295.828563">20</text>
     </g>
    </g>
    <g id="xtick_3">
     <g id="line2d_3">
      <g>
       <use style="stroke:#000000;stroke-width:0.8;" x="112.096045" xlink:href="#m3e09492a3c" y="281.230125"/>
      </g>
     </g>
     <g id="text_15">
      <text style="font-family:DejaVu Sans;font-size:10px;font-style:normal;font-weight:normal;text-anchor:middle;" transform="rotate(-0, 112.096045, 295.828563)" x="112.096045" y="295.828563">40</text>
     </g>
    </g>
    <g id="xtick_4">
     <g id="line2d_4">
      <g>
       <use style="stroke:#000000;stroke-width:0.8;" x="159.396707" xlink:href="#m3e09492a3c" y="281.230125"/>
      </g>
     </g>
     <g id="text_16">
      <text style="font-family:DejaVu Sans;font-size:10px;font-style:normal;font-weight:normal;text-anchor:middle;" transform="rotate(-0, 159.396707, 295.828563)" x="159.396707" y="295.828563">60</text>
     </g>
    </g>
    <g id="xtick_5">
     <g id="line2d_5">
      <g>
       <use style="stroke:#000000;stroke-width:0.8;" x="206.69737" xlink:href="#m3e09492a3c" y="281.230125"/>
      </g>
     </g>
     <g id="text_17">
      <text style="font-family:DejaVu Sans;font-size:10px;font-style:normal;font-weight:normal;text-anchor:middle;" transform="rotate(-0, 206.69737, 295.828563)" x="206.69737" y="295.828563">80</text>
     </g>
    </g>
    <g id="xtick_6">
     <g id="line2d_6">
      <g>
       <use style="stroke:#000000;stroke-width:0.8;" x="253.998032" xlink:href="#m3e09492a3c" y="281.230125"/>
      </g>
     </g>
     <g id="text_18">
      <text style="font-family:DejaVu Sans;font-size:10px;font-style:normal;font-weight:normal;text-anchor:middle;" transform="rotate(-0, 253.998032, 295.828563)" x="253.998032" y="295.828563">100</text>
     </g>
    </g>
    <g id="xtick_7">
     <g id="line2d_7">
      <g>
       <use style="stroke:#000000;stroke-width:0.8;" x="301.298694" xlink:href="#m3e09492a3c" y="281.230125"/>
      </g>
     </g>
     <g id="text_19">
      <text style="font-family:DejaVu Sans;font-size:10px;font-style:normal;font-weight:normal;text-anchor:middle;" transform="rotate(-0, 301.298694, 295.828563)" x="301.298694" y="295.828563">120</text>
     </g>
    </g>
    <g id="xtick_8">
     <g id="line2d_8">
      <g>
       <use style="stroke:#000000;stroke-width:0.8;" x="348.599356" xlink:href="#m3e09492a3c" y="281.230125"/>
      </g>
     </g>
     <g id="text_20">
      <text style="font-family:DejaVu Sans;font-size:10px;font-style:normal;font-weight:normal;text-anchor:middle;" transform="rotate(-0, 348.599356, 295.828563)" x="348.599356" y="295.828563">140</text>
     </g>
    </g>
   </g>
   <g id="matplotlib.axis_26">
    <g id="ytick_25"/>
    <g id="ytick_26"/>
    <g id="text_21">
     <text style="font-family:DejaVu Sans;font-size:10px;font-style:normal;font-weight:normal;" transform="translate(11.129688 259.312625)"/>
     <text style="font-family:DejaVu Sans;font-size:10px;font-style:normal;font-weight:normal;" transform="translate(0 270.510438)">13   </text>
    </g>
   </g>
   <g id="patch_161">
    <path d="M 15.129688 281.230125 
L 15.129688 263.950125 
" style="fill:none;stroke:#000000;stroke-linecap:square;stroke-linejoin:miter;stroke-width:0.8;"/>
   </g>
   <g id="patch_162">
    <path d="M 372.249688 281.230125 
L 372.249688 263.950125 
" style="fill:none;stroke:#000000;stroke-linecap:square;stroke-linejoin:miter;stroke-width:0.8;"/>
   </g>
   <g id="patch_163">
    <path d="M 15.129688 281.230125 
L 372.249688 281.230125 
" style="fill:none;stroke:#000000;stroke-linecap:square;stroke-linejoin:miter;stroke-width:0.8;"/>
   </g>
   <g id="patch_164">
    <path d="M 15.129688 263.950125 
L 372.249688 263.950125 
" style="fill:none;stroke:#000000;stroke-linecap:square;stroke-linejoin:miter;stroke-width:0.8;"/>
   </g>
  </g>
 </g>
 <defs>
  <clipPath id="pfde2b31db1">
   <rect height="17.28" width="357.12" x="15.129688" y="15.118125"/>
  </clipPath>
  <clipPath id="pc8439058c4">
   <rect height="17.28" width="357.12" x="15.129688" y="35.854125"/>
  </clipPath>
  <clipPath id="p01898574d6">
   <rect height="17.28" width="357.12" x="15.129688" y="56.590125"/>
  </clipPath>
  <clipPath id="p3822120b96">
   <rect height="17.28" width="357.12" x="15.129688" y="77.326125"/>
  </clipPath>
  <clipPath id="p350f79d915">
   <rect height="17.28" width="357.12" x="15.129688" y="98.062125"/>
  </clipPath>
  <clipPath id="p179afd1b3e">
   <rect height="17.28" width="357.12" x="15.129688" y="118.798125"/>
  </clipPath>
  <clipPath id="pbe319b51a1">
   <rect height="17.28" width="357.12" x="15.129688" y="139.534125"/>
  </clipPath>
  <clipPath id="p029ea14753">
   <rect height="17.28" width="357.12" x="15.129688" y="160.270125"/>
  </clipPath>
  <clipPath id="p8927137d12">
   <rect height="17.28" width="357.12" x="15.129688" y="181.006125"/>
  </clipPath>
  <clipPath id="p882ae5e7aa">
   <rect height="17.28" width="357.12" x="15.129688" y="201.742125"/>
  </clipPath>
  <clipPath id="p8cc0915b1b">
   <rect height="17.28" width="357.12" x="15.129688" y="222.478125"/>
  </clipPath>
  <clipPath id="pdbe8e0f608">
   <rect height="17.28" width="357.12" x="15.129688" y="243.214125"/>
  </clipPath>
  <clipPath id="p8246e40303">
   <rect height="17.28" width="357.12" x="15.129688" y="263.950125"/>
  </clipPath>
 </defs>
</svg>
