<?xml version="1.0" encoding="utf-8" standalone="no"?>
<!DOCTYPE svg PUBLIC "-//W3C//DTD SVG 1.1//EN"
  "http://www.w3.org/Graphics/SVG/1.1/DTD/svg11.dtd">
<!-- Created with matplotlib (https://matplotlib.org/) -->
<svg height="262.914375pt" version="1.1" viewBox="0 0 388.273437 262.914375" width="388.273437pt" xmlns="http://www.w3.org/2000/svg" xmlns:xlink="http://www.w3.org/1999/xlink">
 <defs>
  <style type="text/css">
*{stroke-linecap:butt;stroke-linejoin:round;}
  </style>
 </defs>
 <g id="figure_1">
  <g id="patch_1">
   <path d="M 0 262.914375 
L 388.273437 262.914375 
L 388.273437 0 
L 0 0 
z
" style="fill:none;"/>
  </g>
  <g id="axes_1">
   <g id="patch_2">
    <path d="M 53.473438 29.237606 
L 388.273438 29.237606 
L 388.273438 15.118125 
L 53.473438 15.118125 
z
" style="fill:none;"/>
   </g>
   <g id="patch_3">
    <path clip-path="url(#p03885d997f)" d="M 61.233702 27.825657 
L 122.207212 27.825657 
L 122.207212 20.765917 
L 61.233702 20.765917 
z
" style="fill:#ff0000;stroke:#000000;stroke-linejoin:miter;"/>
   </g>
   <g id="patch_4">
    <path clip-path="url(#p03885d997f)" d="M 122.207212 27.825657 
L 172.09463 27.825657 
L 172.09463 20.765917 
L 122.207212 20.765917 
z
" style="fill:#00ff00;stroke:#000000;stroke-linejoin:miter;"/>
   </g>
   <g id="patch_5">
    <path clip-path="url(#p03885d997f)" d="M 172.09463 27.825657 
L 210.895954 27.825657 
L 210.895954 20.765917 
L 172.09463 20.765917 
z
" style="fill:#ff1ab9;stroke:#000000;stroke-linejoin:miter;"/>
   </g>
   <g id="patch_6">
    <path clip-path="url(#p03885d997f)" d="M 210.895954 27.825657 
L 249.697279 27.825657 
L 249.697279 20.765917 
L 210.895954 20.765917 
z
" style="fill:#ffd300;stroke:#000000;stroke-linejoin:miter;"/>
   </g>
   <g id="patch_7">
    <path clip-path="url(#p03885d997f)" d="M 249.697279 27.825657 
L 266.326418 27.825657 
L 266.326418 20.765917 
L 249.697279 20.765917 
z
" style="fill:#005800;stroke:#000000;stroke-linejoin:miter;"/>
   </g>
   <g id="patch_8">
    <path clip-path="url(#p03885d997f)" d="M 266.326418 27.825657 
L 294.041649 27.825657 
L 294.041649 20.765917 
L 266.326418 20.765917 
z
" style="fill:#8484ff;stroke:#000000;stroke-linejoin:miter;"/>
   </g>
   <g id="patch_9">
    <path clip-path="url(#p03885d997f)" d="M 294.041649 27.825657 
L 343.929067 27.825657 
L 343.929067 20.765917 
L 294.041649 20.765917 
z
" style="fill:#9e4f46;stroke:#000000;stroke-linejoin:miter;"/>
   </g>
   <g id="patch_10">
    <path clip-path="url(#p03885d997f)" d="M 343.929067 27.825657 
L 382.730391 27.825657 
L 382.730391 20.765917 
L 343.929067 20.765917 
z
" style="fill:#00ffc1;stroke:#000000;stroke-linejoin:miter;"/>
   </g>
   <g id="matplotlib.axis_1"/>
   <g id="matplotlib.axis_2">
    <g id="ytick_1"/>
    <g id="ytick_2"/>
    <g id="text_1">
     <text style="font-family:DejaVu Sans;font-size:10px;font-style:normal;font-weight:normal;text-anchor:middle;" transform="rotate(-0, 49.473438, 20.098178)" x="49.473438" y="20.098178">Embryo 1                </text>
    </g>
   </g>
   <g id="patch_11">
    <path d="M 53.473438 29.237606 
L 53.473438 15.118125 
" style="fill:none;stroke:#000000;stroke-linecap:square;stroke-linejoin:miter;stroke-width:0.8;"/>
   </g>
   <g id="patch_12">
    <path d="M 388.273438 29.237606 
L 388.273438 15.118125 
" style="fill:none;stroke:#000000;stroke-linecap:square;stroke-linejoin:miter;stroke-width:0.8;"/>
   </g>
   <g id="patch_13">
    <path d="M 53.473438 29.237606 
L 388.273438 29.237606 
" style="fill:none;stroke:#000000;stroke-linecap:square;stroke-linejoin:miter;stroke-width:0.8;"/>
   </g>
   <g id="patch_14">
    <path d="M 53.473438 15.118125 
L 388.273438 15.118125 
" style="fill:none;stroke:#000000;stroke-linecap:square;stroke-linejoin:miter;stroke-width:0.8;"/>
   </g>
   <g id="text_2">
    <text style="font-family:DejaVu Sans;font-size:12px;font-style:normal;font-weight:normal;text-anchor:middle;" transform="rotate(-0, 220.873438, 9.118125)" x="220.873438" y="9.118125">Chr 6</text>
   </g>
  </g>
  <g id="axes_2">
   <g id="patch_15">
    <path d="M 53.473438 46.180982 
L 388.273438 46.180982 
L 388.273438 32.061502 
L 53.473438 32.061502 
z
" style="fill:none;"/>
   </g>
   <g id="patch_16">
    <path clip-path="url(#pa27c5e5c98)" d="M 61.233702 44.769034 
L 161.008537 44.769034 
L 161.008537 37.709294 
L 61.233702 37.709294 
z
" style="fill:#ff0000;stroke:#000000;stroke-linejoin:miter;"/>
   </g>
   <g id="patch_17">
    <path clip-path="url(#pa27c5e5c98)" d="M 161.008537 44.769034 
L 210.895954 44.769034 
L 210.895954 37.709294 
L 161.008537 37.709294 
z
" style="fill:#00ff00;stroke:#000000;stroke-linejoin:miter;"/>
   </g>
   <g id="patch_18">
    <path clip-path="url(#pa27c5e5c98)" d="M 210.895954 44.769034 
L 249.697279 44.769034 
L 249.697279 37.709294 
L 210.895954 37.709294 
z
" style="fill:#ff1ab9;stroke:#000000;stroke-linejoin:miter;"/>
   </g>
   <g id="patch_19">
    <path clip-path="url(#pa27c5e5c98)" d="M 249.697279 44.769034 
L 343.929067 44.769034 
L 343.929067 37.709294 
L 249.697279 37.709294 
z
" style="fill:#ffd300;stroke:#000000;stroke-linejoin:miter;"/>
   </g>
   <g id="patch_20">
    <path clip-path="url(#pa27c5e5c98)" d="M 343.929067 44.769034 
L 382.730391 44.769034 
L 382.730391 37.709294 
L 343.929067 37.709294 
z
" style="fill:#005800;stroke:#000000;stroke-linejoin:miter;"/>
   </g>
   <g id="matplotlib.axis_3"/>
   <g id="matplotlib.axis_4">
    <g id="ytick_3"/>
    <g id="ytick_4"/>
    <g id="text_3">
     <text style="font-family:DejaVu Sans;font-size:10px;font-style:normal;font-weight:normal;" transform="translate(49.473438 25.843742)"/>
     <text style="font-family:DejaVu Sans;font-size:10px;font-style:normal;font-weight:normal;" transform="translate(41.525 37.041554)">7   </text>
    </g>
   </g>
   <g id="patch_21">
    <path d="M 53.473438 46.180982 
L 53.473438 32.061502 
" style="fill:none;stroke:#000000;stroke-linecap:square;stroke-linejoin:miter;stroke-width:0.8;"/>
   </g>
   <g id="patch_22">
    <path d="M 388.273438 46.180982 
L 388.273438 32.061502 
" style="fill:none;stroke:#000000;stroke-linecap:square;stroke-linejoin:miter;stroke-width:0.8;"/>
   </g>
   <g id="patch_23">
    <path d="M 53.473438 46.180982 
L 388.273438 46.180982 
" style="fill:none;stroke:#000000;stroke-linecap:square;stroke-linejoin:miter;stroke-width:0.8;"/>
   </g>
   <g id="patch_24">
    <path d="M 53.473438 32.061502 
L 388.273438 32.061502 
" style="fill:none;stroke:#000000;stroke-linecap:square;stroke-linejoin:miter;stroke-width:0.8;"/>
   </g>
  </g>
  <g id="axes_3">
   <g id="patch_25">
    <path d="M 53.473438 63.124359 
L 388.273438 63.124359 
L 388.273438 49.004878 
L 53.473438 49.004878 
z
" style="fill:none;"/>
   </g>
   <g id="patch_26">
    <path clip-path="url(#pfcb5a60133)" d="M 66.776749 61.712411 
L 94.491981 61.712411 
L 94.491981 54.65267 
L 66.776749 54.65267 
z
" style="fill:#ff0000;stroke:#000000;stroke-linejoin:miter;"/>
   </g>
   <g id="patch_27">
    <path clip-path="url(#pfcb5a60133)" d="M 94.491981 61.712411 
L 127.750259 61.712411 
L 127.750259 54.65267 
L 94.491981 54.65267 
z
" style="fill:#00ff00;stroke:#000000;stroke-linejoin:miter;"/>
   </g>
   <g id="patch_28">
    <path clip-path="url(#pfcb5a60133)" d="M 127.750259 61.712411 
L 199.809861 61.712411 
L 199.809861 54.65267 
L 127.750259 54.65267 
z
" style="fill:#ff1ab9;stroke:#000000;stroke-linejoin:miter;"/>
   </g>
   <g id="patch_29">
    <path clip-path="url(#pfcb5a60133)" d="M 199.809861 61.712411 
L 294.041649 61.712411 
L 294.041649 54.65267 
L 199.809861 54.65267 
z
" style="fill:#ffd300;stroke:#000000;stroke-linejoin:miter;"/>
   </g>
   <g id="patch_30">
    <path clip-path="url(#pfcb5a60133)" d="M 294.041649 61.712411 
L 321.756881 61.712411 
L 321.756881 54.65267 
L 294.041649 54.65267 
z
" style="fill:#005800;stroke:#000000;stroke-linejoin:miter;"/>
   </g>
   <g id="patch_31">
    <path clip-path="url(#pfcb5a60133)" d="M 321.756881 61.712411 
L 355.015159 61.712411 
L 355.015159 54.65267 
L 321.756881 54.65267 
z
" style="fill:#8484ff;stroke:#000000;stroke-linejoin:miter;"/>
   </g>
   <g id="patch_32">
    <path clip-path="url(#pfcb5a60133)" d="M 355.015159 61.712411 
L 382.730391 61.712411 
L 382.730391 54.65267 
L 355.015159 54.65267 
z
" style="fill:#9e4f46;stroke:#000000;stroke-linejoin:miter;"/>
   </g>
   <g id="matplotlib.axis_5"/>
   <g id="matplotlib.axis_6">
    <g id="ytick_5"/>
    <g id="ytick_6"/>
    <g id="text_4">
     <text style="font-family:DejaVu Sans;font-size:10px;font-style:normal;font-weight:normal;" transform="translate(49.473438 42.787119)"/>
     <text style="font-family:DejaVu Sans;font-size:10px;font-style:normal;font-weight:normal;" transform="translate(41.525 53.984931)">8   </text>
    </g>
   </g>
   <g id="patch_33">
    <path d="M 53.473438 63.124359 
L 53.473438 49.004878 
" style="fill:none;stroke:#000000;stroke-linecap:square;stroke-linejoin:miter;stroke-width:0.8;"/>
   </g>
   <g id="patch_34">
    <path d="M 388.273438 63.124359 
L 388.273438 49.004878 
" style="fill:none;stroke:#000000;stroke-linecap:square;stroke-linejoin:miter;stroke-width:0.8;"/>
   </g>
   <g id="patch_35">
    <path d="M 53.473438 63.124359 
L 388.273438 63.124359 
" style="fill:none;stroke:#000000;stroke-linecap:square;stroke-linejoin:miter;stroke-width:0.8;"/>
   </g>
   <g id="patch_36">
    <path d="M 53.473438 49.004878 
L 388.273438 49.004878 
" style="fill:none;stroke:#000000;stroke-linecap:square;stroke-linejoin:miter;stroke-width:0.8;"/>
   </g>
  </g>
  <g id="axes_4">
   <g id="patch_37">
    <path d="M 53.473438 80.067735 
L 388.273438 80.067735 
L 388.273438 65.948255 
L 53.473438 65.948255 
z
" style="fill:none;"/>
   </g>
   <g id="patch_38">
    <path clip-path="url(#p20a392f27b)" d="M 61.233702 78.655787 
L 122.207212 78.655787 
L 122.207212 71.596047 
L 61.233702 71.596047 
z
" style="fill:#ff0000;stroke:#000000;stroke-linejoin:miter;"/>
   </g>
   <g id="patch_39">
    <path clip-path="url(#p20a392f27b)" d="M 122.207212 78.655787 
L 172.09463 78.655787 
L 172.09463 71.596047 
L 122.207212 71.596047 
z
" style="fill:#00ff00;stroke:#000000;stroke-linejoin:miter;"/>
   </g>
   <g id="patch_40">
    <path clip-path="url(#p20a392f27b)" d="M 172.09463 78.655787 
L 199.809861 78.655787 
L 199.809861 71.596047 
L 172.09463 71.596047 
z
" style="fill:#ff1ab9;stroke:#000000;stroke-linejoin:miter;"/>
   </g>
   <g id="patch_41">
    <path clip-path="url(#p20a392f27b)" d="M 199.809861 78.655787 
L 227.525093 78.655787 
L 227.525093 71.596047 
L 199.809861 71.596047 
z
" style="fill:#ffd300;stroke:#000000;stroke-linejoin:miter;"/>
   </g>
   <g id="patch_42">
    <path clip-path="url(#p20a392f27b)" d="M 227.525093 78.655787 
L 260.783371 78.655787 
L 260.783371 71.596047 
L 227.525093 71.596047 
z
" style="fill:#005800;stroke:#000000;stroke-linejoin:miter;"/>
   </g>
   <g id="patch_43">
    <path clip-path="url(#p20a392f27b)" d="M 260.783371 78.655787 
L 310.670788 78.655787 
L 310.670788 71.596047 
L 260.783371 71.596047 
z
" style="fill:#8484ff;stroke:#000000;stroke-linejoin:miter;"/>
   </g>
   <g id="patch_44">
    <path clip-path="url(#p20a392f27b)" d="M 310.670788 78.655787 
L 343.929067 78.655787 
L 343.929067 71.596047 
L 310.670788 71.596047 
z
" style="fill:#9e4f46;stroke:#000000;stroke-linejoin:miter;"/>
   </g>
   <g id="patch_45">
    <path clip-path="url(#p20a392f27b)" d="M 343.929067 78.655787 
L 382.730391 78.655787 
L 382.730391 71.596047 
L 343.929067 71.596047 
z
" style="fill:#00ffc1;stroke:#000000;stroke-linejoin:miter;"/>
   </g>
   <g id="matplotlib.axis_7"/>
   <g id="matplotlib.axis_8">
    <g id="ytick_7"/>
    <g id="ytick_8"/>
    <g id="text_5">
     <text style="font-family:DejaVu Sans;font-size:10px;font-style:normal;font-weight:normal;" transform="translate(49.473438 59.730495)"/>
     <text style="font-family:DejaVu Sans;font-size:10px;font-style:normal;font-weight:normal;" transform="translate(38.34375 70.928308)">10   </text>
    </g>
   </g>
   <g id="patch_46">
    <path d="M 53.473438 80.067735 
L 53.473438 65.948255 
" style="fill:none;stroke:#000000;stroke-linecap:square;stroke-linejoin:miter;stroke-width:0.8;"/>
   </g>
   <g id="patch_47">
    <path d="M 388.273438 80.067735 
L 388.273438 65.948255 
" style="fill:none;stroke:#000000;stroke-linecap:square;stroke-linejoin:miter;stroke-width:0.8;"/>
   </g>
   <g id="patch_48">
    <path d="M 53.473438 80.067735 
L 388.273438 80.067735 
" style="fill:none;stroke:#000000;stroke-linecap:square;stroke-linejoin:miter;stroke-width:0.8;"/>
   </g>
   <g id="patch_49">
    <path d="M 53.473438 65.948255 
L 388.273438 65.948255 
" style="fill:none;stroke:#000000;stroke-linecap:square;stroke-linejoin:miter;stroke-width:0.8;"/>
   </g>
  </g>
  <g id="axes_5">
   <g id="patch_50">
    <path d="M 53.473438 97.011112 
L 388.273438 97.011112 
L 388.273438 82.891631 
L 53.473438 82.891631 
z
" style="fill:none;"/>
   </g>
   <g id="patch_51">
    <path clip-path="url(#pbbd2184846)" d="M 61.233702 95.599164 
L 88.948934 95.599164 
L 88.948934 88.539424 
L 61.233702 88.539424 
z
" style="fill:#ff0000;stroke:#000000;stroke-linejoin:miter;"/>
   </g>
   <g id="patch_52">
    <path clip-path="url(#pbbd2184846)" d="M 88.948934 95.599164 
L 161.008537 95.599164 
L 161.008537 88.539424 
L 88.948934 88.539424 
z
" style="fill:#00ff00;stroke:#000000;stroke-linejoin:miter;"/>
   </g>
   <g id="patch_53">
    <path clip-path="url(#pbbd2184846)" d="M 161.008537 95.599164 
L 210.895954 95.599164 
L 210.895954 88.539424 
L 161.008537 88.539424 
z
" style="fill:#ff1ab9;stroke:#000000;stroke-linejoin:miter;"/>
   </g>
   <g id="patch_54">
    <path clip-path="url(#pbbd2184846)" d="M 210.895954 95.599164 
L 266.326418 95.599164 
L 266.326418 88.539424 
L 210.895954 88.539424 
z
" style="fill:#ffd300;stroke:#000000;stroke-linejoin:miter;"/>
   </g>
   <g id="patch_55">
    <path clip-path="url(#pbbd2184846)" d="M 266.326418 95.599164 
L 305.127742 95.599164 
L 305.127742 88.539424 
L 266.326418 88.539424 
z
" style="fill:#005800;stroke:#000000;stroke-linejoin:miter;"/>
   </g>
   <g id="patch_56">
    <path clip-path="url(#pbbd2184846)" d="M 305.127742 95.599164 
L 338.38602 95.599164 
L 338.38602 88.539424 
L 305.127742 88.539424 
z
" style="fill:#8484ff;stroke:#000000;stroke-linejoin:miter;"/>
   </g>
   <g id="patch_57">
    <path clip-path="url(#pbbd2184846)" d="M 338.38602 95.599164 
L 377.187345 95.599164 
L 377.187345 88.539424 
L 338.38602 88.539424 
z
" style="fill:#9e4f46;stroke:#000000;stroke-linejoin:miter;"/>
   </g>
   <g id="matplotlib.axis_9"/>
   <g id="matplotlib.axis_10">
    <g id="ytick_9"/>
    <g id="ytick_10"/>
    <g id="text_6">
     <text style="font-family:DejaVu Sans;font-size:10px;font-style:normal;font-weight:normal;" transform="translate(49.473438 76.673872)"/>
     <text style="font-family:DejaVu Sans;font-size:10px;font-style:normal;font-weight:normal;" transform="translate(38.34375 87.871684)">11   </text>
    </g>
   </g>
   <g id="patch_58">
    <path d="M 53.473438 97.011112 
L 53.473438 82.891631 
" style="fill:none;stroke:#000000;stroke-linecap:square;stroke-linejoin:miter;stroke-width:0.8;"/>
   </g>
   <g id="patch_59">
    <path d="M 388.273438 97.011112 
L 388.273438 82.891631 
" style="fill:none;stroke:#000000;stroke-linecap:square;stroke-linejoin:miter;stroke-width:0.8;"/>
   </g>
   <g id="patch_60">
    <path d="M 53.473438 97.011112 
L 388.273438 97.011112 
" style="fill:none;stroke:#000000;stroke-linecap:square;stroke-linejoin:miter;stroke-width:0.8;"/>
   </g>
   <g id="patch_61">
    <path d="M 53.473438 82.891631 
L 388.273438 82.891631 
" style="fill:none;stroke:#000000;stroke-linecap:square;stroke-linejoin:miter;stroke-width:0.8;"/>
   </g>
  </g>
  <g id="axes_6">
   <g id="patch_62">
    <path d="M 53.473438 113.954489 
L 388.273438 113.954489 
L 388.273438 99.835008 
L 53.473438 99.835008 
z
" style="fill:none;"/>
   </g>
   <g id="patch_63">
    <path clip-path="url(#p2fc8367971)" d="M 61.233702 112.542541 
L 111.12112 112.542541 
L 111.12112 105.4828 
L 61.233702 105.4828 
z
" style="fill:#ff0000;stroke:#000000;stroke-linejoin:miter;"/>
   </g>
   <g id="patch_64">
    <path clip-path="url(#p2fc8367971)" d="M 111.12112 112.542541 
L 127.750259 112.542541 
L 127.750259 105.4828 
L 111.12112 105.4828 
z
" style="fill:#00ff00;stroke:#000000;stroke-linejoin:miter;"/>
   </g>
   <g id="patch_65">
    <path clip-path="url(#p2fc8367971)" d="M 127.750259 112.542541 
L 188.723769 112.542541 
L 188.723769 105.4828 
L 127.750259 105.4828 
z
" style="fill:#ff1ab9;stroke:#000000;stroke-linejoin:miter;"/>
   </g>
   <g id="patch_66">
    <path clip-path="url(#p2fc8367971)" d="M 188.723769 112.542541 
L 227.525093 112.542541 
L 227.525093 105.4828 
L 188.723769 105.4828 
z
" style="fill:#ffd300;stroke:#000000;stroke-linejoin:miter;"/>
   </g>
   <g id="patch_67">
    <path clip-path="url(#p2fc8367971)" d="M 227.525093 112.542541 
L 266.326418 112.542541 
L 266.326418 105.4828 
L 227.525093 105.4828 
z
" style="fill:#005800;stroke:#000000;stroke-linejoin:miter;"/>
   </g>
   <g id="patch_68">
    <path clip-path="url(#p2fc8367971)" d="M 266.326418 112.542541 
L 321.756881 112.542541 
L 321.756881 105.4828 
L 266.326418 105.4828 
z
" style="fill:#8484ff;stroke:#000000;stroke-linejoin:miter;"/>
   </g>
   <g id="patch_69">
    <path clip-path="url(#p2fc8367971)" d="M 321.756881 112.542541 
L 349.472113 112.542541 
L 349.472113 105.4828 
L 321.756881 105.4828 
z
" style="fill:#9e4f46;stroke:#000000;stroke-linejoin:miter;"/>
   </g>
   <g id="patch_70">
    <path clip-path="url(#p2fc8367971)" d="M 349.472113 112.542541 
L 382.730391 112.542541 
L 382.730391 105.4828 
L 349.472113 105.4828 
z
" style="fill:#00ffc1;stroke:#000000;stroke-linejoin:miter;"/>
   </g>
   <g id="matplotlib.axis_11"/>
   <g id="matplotlib.axis_12">
    <g id="ytick_11"/>
    <g id="ytick_12"/>
    <g id="text_7">
     <text style="font-family:DejaVu Sans;font-size:10px;font-style:normal;font-weight:normal;" transform="translate(49.473438 93.617248)"/>
     <text style="font-family:DejaVu Sans;font-size:10px;font-style:normal;font-weight:normal;" transform="translate(38.34375 104.815061)">13   </text>
    </g>
   </g>
   <g id="patch_71">
    <path d="M 53.473438 113.954489 
L 53.473438 99.835008 
" style="fill:none;stroke:#000000;stroke-linecap:square;stroke-linejoin:miter;stroke-width:0.8;"/>
   </g>
   <g id="patch_72">
    <path d="M 388.273438 113.954489 
L 388.273438 99.835008 
" style="fill:none;stroke:#000000;stroke-linecap:square;stroke-linejoin:miter;stroke-width:0.8;"/>
   </g>
   <g id="patch_73">
    <path d="M 53.473438 113.954489 
L 388.273438 113.954489 
" style="fill:none;stroke:#000000;stroke-linecap:square;stroke-linejoin:miter;stroke-width:0.8;"/>
   </g>
   <g id="patch_74">
    <path d="M 53.473438 99.835008 
L 388.273438 99.835008 
" style="fill:none;stroke:#000000;stroke-linecap:square;stroke-linejoin:miter;stroke-width:0.8;"/>
   </g>
  </g>
  <g id="axes_7">
   <g id="patch_75">
    <path d="M 53.473438 130.897865 
L 388.273438 130.897865 
L 388.273438 116.778385 
L 53.473438 116.778385 
z
" style="fill:none;"/>
   </g>
   <g id="patch_76">
    <path clip-path="url(#p7c89a9aaa5)" d="M 61.233702 129.485917 
L 94.491981 129.485917 
L 94.491981 122.426177 
L 61.233702 122.426177 
z
" style="fill:#ff0000;stroke:#000000;stroke-linejoin:miter;"/>
   </g>
   <g id="patch_77">
    <path clip-path="url(#p7c89a9aaa5)" d="M 94.491981 129.485917 
L 161.008537 129.485917 
L 161.008537 122.426177 
L 94.491981 122.426177 
z
" style="fill:#00ff00;stroke:#000000;stroke-linejoin:miter;"/>
   </g>
   <g id="patch_78">
    <path clip-path="url(#p7c89a9aaa5)" d="M 161.008537 129.485917 
L 199.809861 129.485917 
L 199.809861 122.426177 
L 161.008537 122.426177 
z
" style="fill:#ff1ab9;stroke:#000000;stroke-linejoin:miter;"/>
   </g>
   <g id="patch_79">
    <path clip-path="url(#p7c89a9aaa5)" d="M 199.809861 129.485917 
L 249.697279 129.485917 
L 249.697279 122.426177 
L 199.809861 122.426177 
z
" style="fill:#ffd300;stroke:#000000;stroke-linejoin:miter;"/>
   </g>
   <g id="patch_80">
    <path clip-path="url(#p7c89a9aaa5)" d="M 249.697279 129.485917 
L 282.955557 129.485917 
L 282.955557 122.426177 
L 249.697279 122.426177 
z
" style="fill:#005800;stroke:#000000;stroke-linejoin:miter;"/>
   </g>
   <g id="patch_81">
    <path clip-path="url(#p7c89a9aaa5)" d="M 282.955557 129.485917 
L 332.842974 129.485917 
L 332.842974 122.426177 
L 282.955557 122.426177 
z
" style="fill:#8484ff;stroke:#000000;stroke-linejoin:miter;"/>
   </g>
   <g id="patch_82">
    <path clip-path="url(#p7c89a9aaa5)" d="M 332.842974 129.485917 
L 382.730391 129.485917 
L 382.730391 122.426177 
L 332.842974 122.426177 
z
" style="fill:#9e4f46;stroke:#000000;stroke-linejoin:miter;"/>
   </g>
   <g id="matplotlib.axis_13"/>
   <g id="matplotlib.axis_14">
    <g id="ytick_13"/>
    <g id="ytick_14"/>
    <g id="text_8">
     <text style="font-family:DejaVu Sans;font-size:10px;font-style:normal;font-weight:normal;" transform="translate(49.473438 110.560625)"/>
     <text style="font-family:DejaVu Sans;font-size:10px;font-style:normal;font-weight:normal;" transform="translate(38.34375 121.758438)">14   </text>
    </g>
   </g>
   <g id="patch_83">
    <path d="M 53.473438 130.897865 
L 53.473438 116.778385 
" style="fill:none;stroke:#000000;stroke-linecap:square;stroke-linejoin:miter;stroke-width:0.8;"/>
   </g>
   <g id="patch_84">
    <path d="M 388.273438 130.897865 
L 388.273438 116.778385 
" style="fill:none;stroke:#000000;stroke-linecap:square;stroke-linejoin:miter;stroke-width:0.8;"/>
   </g>
   <g id="patch_85">
    <path d="M 53.473438 130.897865 
L 388.273438 130.897865 
" style="fill:none;stroke:#000000;stroke-linecap:square;stroke-linejoin:miter;stroke-width:0.8;"/>
   </g>
   <g id="patch_86">
    <path d="M 53.473438 116.778385 
L 388.273438 116.778385 
" style="fill:none;stroke:#000000;stroke-linecap:square;stroke-linejoin:miter;stroke-width:0.8;"/>
   </g>
  </g>
  <g id="axes_8">
   <g id="patch_87">
    <path d="M 53.473438 147.841242 
L 388.273438 147.841242 
L 388.273438 133.721761 
L 53.473438 133.721761 
z
" style="fill:none;"/>
   </g>
   <g id="patch_88">
    <path clip-path="url(#p0e771dd444)" d="M 66.776749 146.429294 
L 127.750259 146.429294 
L 127.750259 139.369554 
L 66.776749 139.369554 
z
" style="fill:#ff0000;stroke:#000000;stroke-linejoin:miter;"/>
   </g>
   <g id="patch_89">
    <path clip-path="url(#p0e771dd444)" d="M 127.750259 146.429294 
L 161.008537 146.429294 
L 161.008537 139.369554 
L 127.750259 139.369554 
z
" style="fill:#00ff00;stroke:#000000;stroke-linejoin:miter;"/>
   </g>
   <g id="patch_90">
    <path clip-path="url(#p0e771dd444)" d="M 161.008537 146.429294 
L 210.895954 146.429294 
L 210.895954 139.369554 
L 161.008537 139.369554 
z
" style="fill:#ff1ab9;stroke:#000000;stroke-linejoin:miter;"/>
   </g>
   <g id="patch_91">
    <path clip-path="url(#p0e771dd444)" d="M 210.895954 146.429294 
L 244.154232 146.429294 
L 244.154232 139.369554 
L 210.895954 139.369554 
z
" style="fill:#ffd300;stroke:#000000;stroke-linejoin:miter;"/>
   </g>
   <g id="patch_92">
    <path clip-path="url(#p0e771dd444)" d="M 244.154232 146.429294 
L 294.041649 146.429294 
L 294.041649 139.369554 
L 244.154232 139.369554 
z
" style="fill:#005800;stroke:#000000;stroke-linejoin:miter;"/>
   </g>
   <g id="patch_93">
    <path clip-path="url(#p0e771dd444)" d="M 294.041649 146.429294 
L 327.299928 146.429294 
L 327.299928 139.369554 
L 294.041649 139.369554 
z
" style="fill:#8484ff;stroke:#000000;stroke-linejoin:miter;"/>
   </g>
   <g id="patch_94">
    <path clip-path="url(#p0e771dd444)" d="M 327.299928 146.429294 
L 382.730391 146.429294 
L 382.730391 139.369554 
L 327.299928 139.369554 
z
" style="fill:#9e4f46;stroke:#000000;stroke-linejoin:miter;"/>
   </g>
   <g id="matplotlib.axis_15"/>
   <g id="matplotlib.axis_16">
    <g id="ytick_15"/>
    <g id="ytick_16"/>
    <g id="text_9">
     <text style="font-family:DejaVu Sans;font-size:10px;font-style:normal;font-weight:normal;" transform="translate(49.473438 127.504002)"/>
     <text style="font-family:DejaVu Sans;font-size:10px;font-style:normal;font-weight:normal;" transform="translate(38.34375 138.701814)">16   </text>
    </g>
   </g>
   <g id="patch_95">
    <path d="M 53.473438 147.841242 
L 53.473438 133.721761 
" style="fill:none;stroke:#000000;stroke-linecap:square;stroke-linejoin:miter;stroke-width:0.8;"/>
   </g>
   <g id="patch_96">
    <path d="M 388.273438 147.841242 
L 388.273438 133.721761 
" style="fill:none;stroke:#000000;stroke-linecap:square;stroke-linejoin:miter;stroke-width:0.8;"/>
   </g>
   <g id="patch_97">
    <path d="M 53.473438 147.841242 
L 388.273438 147.841242 
" style="fill:none;stroke:#000000;stroke-linecap:square;stroke-linejoin:miter;stroke-width:0.8;"/>
   </g>
   <g id="patch_98">
    <path d="M 53.473438 133.721761 
L 388.273438 133.721761 
" style="fill:none;stroke:#000000;stroke-linecap:square;stroke-linejoin:miter;stroke-width:0.8;"/>
   </g>
  </g>
  <g id="axes_9">
   <g id="patch_99">
    <path d="M 53.473438 164.784619 
L 388.273438 164.784619 
L 388.273438 150.665138 
L 53.473438 150.665138 
z
" style="fill:none;"/>
   </g>
   <g id="patch_100">
    <path clip-path="url(#pb9bf4210b7)" d="M 61.233702 163.37267 
L 111.12112 163.37267 
L 111.12112 156.31293 
L 61.233702 156.31293 
z
" style="fill:#ff0000;stroke:#000000;stroke-linejoin:miter;"/>
   </g>
   <g id="patch_101">
    <path clip-path="url(#pb9bf4210b7)" d="M 111.12112 163.37267 
L 144.379398 163.37267 
L 144.379398 156.31293 
L 111.12112 156.31293 
z
" style="fill:#00ff00;stroke:#000000;stroke-linejoin:miter;"/>
   </g>
   <g id="patch_102">
    <path clip-path="url(#pb9bf4210b7)" d="M 144.379398 163.37267 
L 205.352908 163.37267 
L 205.352908 156.31293 
L 144.379398 156.31293 
z
" style="fill:#ff1ab9;stroke:#000000;stroke-linejoin:miter;"/>
   </g>
   <g id="patch_103">
    <path clip-path="url(#pb9bf4210b7)" d="M 205.352908 163.37267 
L 271.869464 163.37267 
L 271.869464 156.31293 
L 205.352908 156.31293 
z
" style="fill:#ffd300;stroke:#000000;stroke-linejoin:miter;"/>
   </g>
   <g id="patch_104">
    <path clip-path="url(#pb9bf4210b7)" d="M 271.869464 163.37267 
L 316.213835 163.37267 
L 316.213835 156.31293 
L 271.869464 156.31293 
z
" style="fill:#005800;stroke:#000000;stroke-linejoin:miter;"/>
   </g>
   <g id="patch_105">
    <path clip-path="url(#pb9bf4210b7)" d="M 316.213835 163.37267 
L 360.558206 163.37267 
L 360.558206 156.31293 
L 316.213835 156.31293 
z
" style="fill:#8484ff;stroke:#000000;stroke-linejoin:miter;"/>
   </g>
   <g id="patch_106">
    <path clip-path="url(#pb9bf4210b7)" d="M 360.558206 163.37267 
L 382.730391 163.37267 
L 382.730391 156.31293 
L 360.558206 156.31293 
z
" style="fill:#9e4f46;stroke:#000000;stroke-linejoin:miter;"/>
   </g>
   <g id="matplotlib.axis_17"/>
   <g id="matplotlib.axis_18">
    <g id="ytick_17"/>
    <g id="ytick_18"/>
    <g id="text_10">
     <text style="font-family:DejaVu Sans;font-size:10px;font-style:normal;font-weight:normal;" transform="translate(49.473438 144.447378)"/>
     <text style="font-family:DejaVu Sans;font-size:10px;font-style:normal;font-weight:normal;" transform="translate(38.34375 155.645191)">17   </text>
    </g>
   </g>
   <g id="patch_107">
    <path d="M 53.473438 164.784619 
L 53.473438 150.665138 
" style="fill:none;stroke:#000000;stroke-linecap:square;stroke-linejoin:miter;stroke-width:0.8;"/>
   </g>
   <g id="patch_108">
    <path d="M 388.273438 164.784619 
L 388.273438 150.665138 
" style="fill:none;stroke:#000000;stroke-linecap:square;stroke-linejoin:miter;stroke-width:0.8;"/>
   </g>
   <g id="patch_109">
    <path d="M 53.473438 164.784619 
L 388.273438 164.784619 
" style="fill:none;stroke:#000000;stroke-linecap:square;stroke-linejoin:miter;stroke-width:0.8;"/>
   </g>
   <g id="patch_110">
    <path d="M 53.473438 150.665138 
L 388.273438 150.665138 
" style="fill:none;stroke:#000000;stroke-linecap:square;stroke-linejoin:miter;stroke-width:0.8;"/>
   </g>
  </g>
  <g id="axes_10">
   <g id="patch_111">
    <path d="M 53.473438 181.727995 
L 388.273438 181.727995 
L 388.273438 167.608515 
L 53.473438 167.608515 
z
" style="fill:none;"/>
   </g>
   <g id="patch_112">
    <path clip-path="url(#pf296111428)" d="M 61.233702 180.316047 
L 83.405888 180.316047 
L 83.405888 173.256307 
L 61.233702 173.256307 
z
" style="fill:#ff0000;stroke:#000000;stroke-linejoin:miter;"/>
   </g>
   <g id="patch_113">
    <path clip-path="url(#pf296111428)" d="M 83.405888 180.316047 
L 111.12112 180.316047 
L 111.12112 173.256307 
L 83.405888 173.256307 
z
" style="fill:#00ff00;stroke:#000000;stroke-linejoin:miter;"/>
   </g>
   <g id="patch_114">
    <path clip-path="url(#pf296111428)" d="M 111.12112 180.316047 
L 166.551583 180.316047 
L 166.551583 173.256307 
L 111.12112 173.256307 
z
" style="fill:#ff1ab9;stroke:#000000;stroke-linejoin:miter;"/>
   </g>
   <g id="patch_115">
    <path clip-path="url(#pf296111428)" d="M 166.551583 180.316047 
L 216.439 180.316047 
L 216.439 173.256307 
L 166.551583 173.256307 
z
" style="fill:#ffd300;stroke:#000000;stroke-linejoin:miter;"/>
   </g>
   <g id="patch_116">
    <path clip-path="url(#pf296111428)" d="M 216.439 180.316047 
L 255.240325 180.316047 
L 255.240325 173.256307 
L 216.439 173.256307 
z
" style="fill:#005800;stroke:#000000;stroke-linejoin:miter;"/>
   </g>
   <g id="patch_117">
    <path clip-path="url(#pf296111428)" d="M 255.240325 180.316047 
L 288.498603 180.316047 
L 288.498603 173.256307 
L 255.240325 173.256307 
z
" style="fill:#8484ff;stroke:#000000;stroke-linejoin:miter;"/>
   </g>
   <g id="patch_118">
    <path clip-path="url(#pf296111428)" d="M 288.498603 180.316047 
L 321.756881 180.316047 
L 321.756881 173.256307 
L 288.498603 173.256307 
z
" style="fill:#9e4f46;stroke:#000000;stroke-linejoin:miter;"/>
   </g>
   <g id="patch_119">
    <path clip-path="url(#pf296111428)" d="M 321.756881 180.316047 
L 355.015159 180.316047 
L 355.015159 173.256307 
L 321.756881 173.256307 
z
" style="fill:#00ffc1;stroke:#000000;stroke-linejoin:miter;"/>
   </g>
   <g id="patch_120">
    <path clip-path="url(#pf296111428)" d="M 355.015159 180.316047 
L 382.730391 180.316047 
L 382.730391 173.256307 
L 355.015159 173.256307 
z
" style="fill:#008495;stroke:#000000;stroke-linejoin:miter;"/>
   </g>
   <g id="matplotlib.axis_19"/>
   <g id="matplotlib.axis_20">
    <g id="ytick_19"/>
    <g id="ytick_20"/>
    <g id="text_11">
     <text style="font-family:DejaVu Sans;font-size:10px;font-style:normal;font-weight:normal;" transform="translate(49.473438 161.390755)"/>
     <text style="font-family:DejaVu Sans;font-size:10px;font-style:normal;font-weight:normal;" transform="translate(38.34375 172.588567)">18   </text>
    </g>
   </g>
   <g id="patch_121">
    <path d="M 53.473438 181.727995 
L 53.473438 167.608515 
" style="fill:none;stroke:#000000;stroke-linecap:square;stroke-linejoin:miter;stroke-width:0.8;"/>
   </g>
   <g id="patch_122">
    <path d="M 388.273438 181.727995 
L 388.273438 167.608515 
" style="fill:none;stroke:#000000;stroke-linecap:square;stroke-linejoin:miter;stroke-width:0.8;"/>
   </g>
   <g id="patch_123">
    <path d="M 53.473438 181.727995 
L 388.273438 181.727995 
" style="fill:none;stroke:#000000;stroke-linecap:square;stroke-linejoin:miter;stroke-width:0.8;"/>
   </g>
   <g id="patch_124">
    <path d="M 53.473438 167.608515 
L 388.273438 167.608515 
" style="fill:none;stroke:#000000;stroke-linecap:square;stroke-linejoin:miter;stroke-width:0.8;"/>
   </g>
  </g>
  <g id="axes_11">
   <g id="patch_125">
    <path d="M 53.473438 198.671372 
L 388.273438 198.671372 
L 388.273438 184.551891 
L 53.473438 184.551891 
z
" style="fill:none;"/>
   </g>
   <g id="patch_126">
    <path clip-path="url(#pd7896c93e4)" d="M 66.776749 197.259424 
L 100.035027 197.259424 
L 100.035027 190.199683 
L 66.776749 190.199683 
z
" style="fill:#ff0000;stroke:#000000;stroke-linejoin:miter;"/>
   </g>
   <g id="patch_127">
    <path clip-path="url(#pd7896c93e4)" d="M 100.035027 197.259424 
L 138.836351 197.259424 
L 138.836351 190.199683 
L 100.035027 190.199683 
z
" style="fill:#00ff00;stroke:#000000;stroke-linejoin:miter;"/>
   </g>
   <g id="patch_128">
    <path clip-path="url(#pd7896c93e4)" d="M 138.836351 197.259424 
L 177.637676 197.259424 
L 177.637676 190.199683 
L 138.836351 190.199683 
z
" style="fill:#ff1ab9;stroke:#000000;stroke-linejoin:miter;"/>
   </g>
   <g id="patch_129">
    <path clip-path="url(#pd7896c93e4)" d="M 177.637676 197.259424 
L 227.525093 197.259424 
L 227.525093 190.199683 
L 177.637676 190.199683 
z
" style="fill:#ffd300;stroke:#000000;stroke-linejoin:miter;"/>
   </g>
   <g id="patch_130">
    <path clip-path="url(#pd7896c93e4)" d="M 227.525093 197.259424 
L 255.240325 197.259424 
L 255.240325 190.199683 
L 227.525093 190.199683 
z
" style="fill:#005800;stroke:#000000;stroke-linejoin:miter;"/>
   </g>
   <g id="patch_131">
    <path clip-path="url(#pd7896c93e4)" d="M 255.240325 197.259424 
L 310.670788 197.259424 
L 310.670788 190.199683 
L 255.240325 190.199683 
z
" style="fill:#8484ff;stroke:#000000;stroke-linejoin:miter;"/>
   </g>
   <g id="patch_132">
    <path clip-path="url(#pd7896c93e4)" d="M 310.670788 197.259424 
L 382.730391 197.259424 
L 382.730391 190.199683 
L 310.670788 190.199683 
z
" style="fill:#9e4f46;stroke:#000000;stroke-linejoin:miter;"/>
   </g>
   <g id="matplotlib.axis_21"/>
   <g id="matplotlib.axis_22">
    <g id="ytick_21"/>
    <g id="ytick_22"/>
    <g id="text_12">
     <text style="font-family:DejaVu Sans;font-size:10px;font-style:normal;font-weight:normal;" transform="translate(49.473438 178.334131)"/>
     <text style="font-family:DejaVu Sans;font-size:10px;font-style:normal;font-weight:normal;" transform="translate(38.34375 189.531944)">20   </text>
    </g>
   </g>
   <g id="patch_133">
    <path d="M 53.473438 198.671372 
L 53.473438 184.551891 
" style="fill:none;stroke:#000000;stroke-linecap:square;stroke-linejoin:miter;stroke-width:0.8;"/>
   </g>
   <g id="patch_134">
    <path d="M 388.273438 198.671372 
L 388.273438 184.551891 
" style="fill:none;stroke:#000000;stroke-linecap:square;stroke-linejoin:miter;stroke-width:0.8;"/>
   </g>
   <g id="patch_135">
    <path d="M 53.473438 198.671372 
L 388.273438 198.671372 
" style="fill:none;stroke:#000000;stroke-linecap:square;stroke-linejoin:miter;stroke-width:0.8;"/>
   </g>
   <g id="patch_136">
    <path d="M 53.473438 184.551891 
L 388.273438 184.551891 
" style="fill:none;stroke:#000000;stroke-linecap:square;stroke-linejoin:miter;stroke-width:0.8;"/>
   </g>
  </g>
  <g id="axes_12">
   <g id="patch_137">
    <path d="M 53.473438 215.614748 
L 388.273438 215.614748 
L 388.273438 201.495268 
L 53.473438 201.495268 
z
" style="fill:none;"/>
   </g>
   <g id="patch_138">
    <path clip-path="url(#p4fdde975af)" d="M 61.233702 214.2028 
L 88.948934 214.2028 
L 88.948934 207.14306 
L 61.233702 207.14306 
z
" style="fill:#ff0000;stroke:#000000;stroke-linejoin:miter;"/>
   </g>
   <g id="patch_139">
    <path clip-path="url(#p4fdde975af)" d="M 88.948934 214.2028 
L 116.664166 214.2028 
L 116.664166 207.14306 
L 88.948934 207.14306 
z
" style="fill:#00ff00;stroke:#000000;stroke-linejoin:miter;"/>
   </g>
   <g id="patch_140">
    <path clip-path="url(#p4fdde975af)" d="M 116.664166 214.2028 
L 172.09463 214.2028 
L 172.09463 207.14306 
L 116.664166 207.14306 
z
" style="fill:#ff1ab9;stroke:#000000;stroke-linejoin:miter;"/>
   </g>
   <g id="patch_141">
    <path clip-path="url(#p4fdde975af)" d="M 172.09463 214.2028 
L 238.611186 214.2028 
L 238.611186 207.14306 
L 172.09463 207.14306 
z
" style="fill:#ffd300;stroke:#000000;stroke-linejoin:miter;"/>
   </g>
   <g id="patch_142">
    <path clip-path="url(#p4fdde975af)" d="M 238.611186 214.2028 
L 271.869464 214.2028 
L 271.869464 207.14306 
L 238.611186 207.14306 
z
" style="fill:#005800;stroke:#000000;stroke-linejoin:miter;"/>
   </g>
   <g id="patch_143">
    <path clip-path="url(#p4fdde975af)" d="M 271.869464 214.2028 
L 310.670788 214.2028 
L 310.670788 207.14306 
L 271.869464 207.14306 
z
" style="fill:#8484ff;stroke:#000000;stroke-linejoin:miter;"/>
   </g>
   <g id="patch_144">
    <path clip-path="url(#p4fdde975af)" d="M 310.670788 214.2028 
L 355.015159 214.2028 
L 355.015159 207.14306 
L 310.670788 207.14306 
z
" style="fill:#9e4f46;stroke:#000000;stroke-linejoin:miter;"/>
   </g>
   <g id="patch_145">
    <path clip-path="url(#p4fdde975af)" d="M 355.015159 214.2028 
L 382.730391 214.2028 
L 382.730391 207.14306 
L 355.015159 207.14306 
z
" style="fill:#00ffc1;stroke:#000000;stroke-linejoin:miter;"/>
   </g>
   <g id="matplotlib.axis_23"/>
   <g id="matplotlib.axis_24">
    <g id="ytick_23"/>
    <g id="ytick_24"/>
    <g id="text_13">
     <text style="font-family:DejaVu Sans;font-size:10px;font-style:normal;font-weight:normal;" transform="translate(49.473438 195.277508)"/>
     <text style="font-family:DejaVu Sans;font-size:10px;font-style:normal;font-weight:normal;" transform="translate(38.34375 206.475321)">21   </text>
    </g>
   </g>
   <g id="patch_146">
    <path d="M 53.473438 215.614748 
L 53.473438 201.495268 
" style="fill:none;stroke:#000000;stroke-linecap:square;stroke-linejoin:miter;stroke-width:0.8;"/>
   </g>
   <g id="patch_147">
    <path d="M 388.273438 215.614748 
L 388.273438 201.495268 
" style="fill:none;stroke:#000000;stroke-linecap:square;stroke-linejoin:miter;stroke-width:0.8;"/>
   </g>
   <g id="patch_148">
    <path d="M 53.473438 215.614748 
L 388.273438 215.614748 
" style="fill:none;stroke:#000000;stroke-linecap:square;stroke-linejoin:miter;stroke-width:0.8;"/>
   </g>
   <g id="patch_149">
    <path d="M 53.473438 201.495268 
L 388.273438 201.495268 
" style="fill:none;stroke:#000000;stroke-linecap:square;stroke-linejoin:miter;stroke-width:0.8;"/>
   </g>
  </g>
  <g id="axes_13">
   <g id="patch_150">
    <path d="M 53.473438 232.558125 
L 388.273438 232.558125 
L 388.273438 218.438644 
L 53.473438 218.438644 
z
" style="fill:none;"/>
   </g>
   <g id="patch_151">
    <path clip-path="url(#pdd7e421029)" d="M 61.233702 231.146177 
L 100.035027 231.146177 
L 100.035027 224.086437 
L 61.233702 224.086437 
z
" style="fill:#ff0000;stroke:#000000;stroke-linejoin:miter;"/>
   </g>
   <g id="patch_152">
    <path clip-path="url(#pdd7e421029)" d="M 100.035027 231.146177 
L 127.750259 231.146177 
L 127.750259 224.086437 
L 100.035027 224.086437 
z
" style="fill:#00ff00;stroke:#000000;stroke-linejoin:miter;"/>
   </g>
   <g id="patch_153">
    <path clip-path="url(#pdd7e421029)" d="M 127.750259 231.146177 
L 155.46549 231.146177 
L 155.46549 224.086437 
L 127.750259 224.086437 
z
" style="fill:#ff1ab9;stroke:#000000;stroke-linejoin:miter;"/>
   </g>
   <g id="patch_154">
    <path clip-path="url(#pdd7e421029)" d="M 155.46549 231.146177 
L 183.180722 231.146177 
L 183.180722 224.086437 
L 155.46549 224.086437 
z
" style="fill:#ffd300;stroke:#000000;stroke-linejoin:miter;"/>
   </g>
   <g id="patch_155">
    <path clip-path="url(#pdd7e421029)" d="M 183.180722 231.146177 
L 216.439 231.146177 
L 216.439 224.086437 
L 183.180722 224.086437 
z
" style="fill:#005800;stroke:#000000;stroke-linejoin:miter;"/>
   </g>
   <g id="patch_156">
    <path clip-path="url(#pdd7e421029)" d="M 216.439 231.146177 
L 249.697279 231.146177 
L 249.697279 224.086437 
L 216.439 224.086437 
z
" style="fill:#8484ff;stroke:#000000;stroke-linejoin:miter;"/>
   </g>
   <g id="patch_157">
    <path clip-path="url(#pdd7e421029)" d="M 249.697279 231.146177 
L 288.498603 231.146177 
L 288.498603 224.086437 
L 249.697279 224.086437 
z
" style="fill:#9e4f46;stroke:#000000;stroke-linejoin:miter;"/>
   </g>
   <g id="patch_158">
    <path clip-path="url(#pdd7e421029)" d="M 288.498603 231.146177 
L 349.472113 231.146177 
L 349.472113 224.086437 
L 288.498603 224.086437 
z
" style="fill:#00ffc1;stroke:#000000;stroke-linejoin:miter;"/>
   </g>
   <g id="patch_159">
    <path clip-path="url(#pdd7e421029)" d="M 349.472113 231.146177 
L 382.730391 231.146177 
L 382.730391 224.086437 
L 349.472113 224.086437 
z
" style="fill:#008495;stroke:#000000;stroke-linejoin:miter;"/>
   </g>
   <g id="matplotlib.axis_25">
    <g id="xtick_1">
     <g id="line2d_1">
      <defs>
       <path d="M 0 0 
L 0 3.5 
" id="m74887c5d56" style="stroke:#000000;stroke-width:0.8;"/>
      </defs>
      <g>
       <use style="stroke:#000000;stroke-width:0.8;" x="55.690656" xlink:href="#m74887c5d56" y="232.558125"/>
      </g>
     </g>
     <g id="text_14">
      <text style="font-family:DejaVu Sans;font-size:10px;font-style:normal;font-weight:normal;text-anchor:middle;" transform="rotate(-0, 55.690656, 247.156563)" x="55.690656" y="247.156563">0</text>
     </g>
    </g>
    <g id="xtick_2">
     <g id="line2d_2">
      <g>
       <use style="stroke:#000000;stroke-width:0.8;" x="100.035027" xlink:href="#m74887c5d56" y="232.558125"/>
      </g>
     </g>
     <g id="text_15">
      <text style="font-family:DejaVu Sans;font-size:10px;font-style:normal;font-weight:normal;text-anchor:middle;" transform="rotate(-0, 100.035027, 247.156563)" x="100.035027" y="247.156563">20</text>
     </g>
    </g>
    <g id="xtick_3">
     <g id="line2d_3">
      <g>
       <use style="stroke:#000000;stroke-width:0.8;" x="144.379398" xlink:href="#m74887c5d56" y="232.558125"/>
      </g>
     </g>
     <g id="text_16">
      <text style="font-family:DejaVu Sans;font-size:10px;font-style:normal;font-weight:normal;text-anchor:middle;" transform="rotate(-0, 144.379398, 247.156563)" x="144.379398" y="247.156563">40</text>
     </g>
    </g>
    <g id="xtick_4">
     <g id="line2d_4">
      <g>
       <use style="stroke:#000000;stroke-width:0.8;" x="188.723769" xlink:href="#m74887c5d56" y="232.558125"/>
      </g>
     </g>
     <g id="text_17">
      <text style="font-family:DejaVu Sans;font-size:10px;font-style:normal;font-weight:normal;text-anchor:middle;" transform="rotate(-0, 188.723769, 247.156563)" x="188.723769" y="247.156563">60</text>
     </g>
    </g>
    <g id="xtick_5">
     <g id="line2d_5">
      <g>
       <use style="stroke:#000000;stroke-width:0.8;" x="233.068139" xlink:href="#m74887c5d56" y="232.558125"/>
      </g>
     </g>
     <g id="text_18">
      <text style="font-family:DejaVu Sans;font-size:10px;font-style:normal;font-weight:normal;text-anchor:middle;" transform="rotate(-0, 233.068139, 247.156563)" x="233.068139" y="247.156563">80</text>
     </g>
    </g>
    <g id="xtick_6">
     <g id="line2d_6">
      <g>
       <use style="stroke:#000000;stroke-width:0.8;" x="277.41251" xlink:href="#m74887c5d56" y="232.558125"/>
      </g>
     </g>
     <g id="text_19">
      <text style="font-family:DejaVu Sans;font-size:10px;font-style:normal;font-weight:normal;text-anchor:middle;" transform="rotate(-0, 277.41251, 247.156563)" x="277.41251" y="247.156563">100</text>
     </g>
    </g>
    <g id="xtick_7">
     <g id="line2d_7">
      <g>
       <use style="stroke:#000000;stroke-width:0.8;" x="321.756881" xlink:href="#m74887c5d56" y="232.558125"/>
      </g>
     </g>
     <g id="text_20">
      <text style="font-family:DejaVu Sans;font-size:10px;font-style:normal;font-weight:normal;text-anchor:middle;" transform="rotate(-0, 321.756881, 247.156563)" x="321.756881" y="247.156563">120</text>
     </g>
    </g>
    <g id="xtick_8">
     <g id="line2d_8">
      <g>
       <use style="stroke:#000000;stroke-width:0.8;" x="366.101252" xlink:href="#m74887c5d56" y="232.558125"/>
      </g>
     </g>
     <g id="text_21">
      <text style="font-family:DejaVu Sans;font-size:10px;font-style:normal;font-weight:normal;text-anchor:middle;" transform="rotate(-0, 366.101252, 247.156563)" x="366.101252" y="247.156563">140</text>
     </g>
    </g>
    <g id="text_22">
     <text style="font-family:DejaVu Sans;font-size:10px;font-style:normal;font-weight:normal;text-anchor:middle;" transform="rotate(-0, 220.873438, 260.834688)" x="220.873438" y="260.834688">Genomic Position [Mb]</text>
    </g>
   </g>
   <g id="matplotlib.axis_26">
    <g id="ytick_25"/>
    <g id="ytick_26"/>
    <g id="text_23">
     <text style="font-family:DejaVu Sans;font-size:10px;font-style:normal;font-weight:normal;" transform="translate(49.473438 212.220885)"/>
     <text style="font-family:DejaVu Sans;font-size:10px;font-style:normal;font-weight:normal;" transform="translate(38.34375 223.418697)">24   </text>
    </g>
   </g>
   <g id="patch_160">
    <path d="M 53.473438 232.558125 
L 53.473438 218.438644 
" style="fill:none;stroke:#000000;stroke-linecap:square;stroke-linejoin:miter;stroke-width:0.8;"/>
   </g>
   <g id="patch_161">
    <path d="M 388.273438 232.558125 
L 388.273438 218.438644 
" style="fill:none;stroke:#000000;stroke-linecap:square;stroke-linejoin:miter;stroke-width:0.8;"/>
   </g>
   <g id="patch_162">
    <path d="M 53.473438 232.558125 
L 388.273438 232.558125 
" style="fill:none;stroke:#000000;stroke-linecap:square;stroke-linejoin:miter;stroke-width:0.8;"/>
   </g>
   <g id="patch_163">
    <path d="M 53.473438 218.438644 
L 388.273438 218.438644 
" style="fill:none;stroke:#000000;stroke-linecap:square;stroke-linejoin:miter;stroke-width:0.8;"/>
   </g>
  </g>
 </g>
 <defs>
  <clipPath id="p03885d997f">
   <rect height="14.119481" width="334.8" x="53.473438" y="15.118125"/>
  </clipPath>
  <clipPath id="pa27c5e5c98">
   <rect height="14.119481" width="334.8" x="53.473438" y="32.061502"/>
  </clipPath>
  <clipPath id="pfcb5a60133">
   <rect height="14.119481" width="334.8" x="53.473438" y="49.004878"/>
  </clipPath>
  <clipPath id="p20a392f27b">
   <rect height="14.119481" width="334.8" x="53.473438" y="65.948255"/>
  </clipPath>
  <clipPath id="pbbd2184846">
   <rect height="14.119481" width="334.8" x="53.473438" y="82.891631"/>
  </clipPath>
  <clipPath id="p2fc8367971">
   <rect height="14.119481" width="334.8" x="53.473438" y="99.835008"/>
  </clipPath>
  <clipPath id="p7c89a9aaa5">
   <rect height="14.119481" width="334.8" x="53.473438" y="116.778385"/>
  </clipPath>
  <clipPath id="p0e771dd444">
   <rect height="14.119481" width="334.8" x="53.473438" y="133.721761"/>
  </clipPath>
  <clipPath id="pb9bf4210b7">
   <rect height="14.119481" width="334.8" x="53.473438" y="150.665138"/>
  </clipPath>
  <clipPath id="pf296111428">
   <rect height="14.119481" width="334.8" x="53.473438" y="167.608515"/>
  </clipPath>
  <clipPath id="pd7896c93e4">
   <rect height="14.119481" width="334.8" x="53.473438" y="184.551891"/>
  </clipPath>
  <clipPath id="p4fdde975af">
   <rect height="14.119481" width="334.8" x="53.473438" y="201.495268"/>
  </clipPath>
  <clipPath id="pdd7e421029">
   <rect height="14.119481" width="334.8" x="53.473438" y="218.438644"/>
  </clipPath>
 </defs>
</svg>
