<?xml version="1.0" encoding="utf-8" standalone="no"?>
<!DOCTYPE svg PUBLIC "-//W3C//DTD SVG 1.1//EN"
  "http://www.w3.org/Graphics/SVG/1.1/DTD/svg11.dtd">
<!-- Created with matplotlib (https://matplotlib.org/) -->
<svg height="297.90825pt" version="1.1" viewBox="0 0 372.249687 297.90825" width="372.249687pt" xmlns="http://www.w3.org/2000/svg" xmlns:xlink="http://www.w3.org/1999/xlink">
 <defs>
  <style type="text/css">
*{stroke-linecap:butt;stroke-linejoin:round;}
  </style>
 </defs>
 <g id="figure_1">
  <g id="patch_1">
   <path d="M 0 297.90825 
L 372.249687 297.90825 
L 372.249687 0 
L 0 0 
z
" style="fill:none;"/>
  </g>
  <g id="axes_1">
   <g id="patch_2">
    <path d="M 15.129688 35.588279 
L 372.249688 35.588279 
L 372.249688 15.118125 
L 15.129688 15.118125 
z
" style="fill:none;"/>
   </g>
   <g id="patch_3">
    <path clip-path="url(#pb99de76e61)" d="M 26.921386 33.541263 
L 94.302518 33.541263 
L 94.302518 23.306187 
L 26.921386 23.306187 
z
" style="fill:#ff0000;stroke:#000000;stroke-linejoin:miter;"/>
   </g>
   <g id="patch_4">
    <path clip-path="url(#pb99de76e61)" d="M 94.302518 33.541263 
L 153.261008 33.541263 
L 153.261008 23.306187 
L 94.302518 23.306187 
z
" style="fill:#00ff00;stroke:#000000;stroke-linejoin:miter;"/>
   </g>
   <g id="patch_5">
    <path clip-path="url(#pb99de76e61)" d="M 153.261008 33.541263 
L 203.796857 33.541263 
L 203.796857 23.306187 
L 153.261008 23.306187 
z
" style="fill:#ff1ab9;stroke:#000000;stroke-linejoin:miter;"/>
   </g>
   <g id="patch_6">
    <path clip-path="url(#pb99de76e61)" d="M 203.796857 33.541263 
L 262.755348 33.541263 
L 262.755348 23.306187 
L 203.796857 23.306187 
z
" style="fill:#ffd300;stroke:#000000;stroke-linejoin:miter;"/>
   </g>
   <g id="patch_7">
    <path clip-path="url(#pb99de76e61)" d="M 262.755348 33.541263 
L 372.249688 33.541263 
L 372.249688 23.306187 
L 262.755348 23.306187 
z
" style="fill:#005800;stroke:#000000;stroke-linejoin:miter;"/>
   </g>
   <g id="matplotlib.axis_1"/>
   <g id="matplotlib.axis_2">
    <g id="ytick_1"/>
    <g id="ytick_2"/>
   </g>
   <g id="patch_8">
    <path d="M 15.129688 35.588279 
L 15.129688 15.118125 
" style="fill:none;stroke:#000000;stroke-linecap:square;stroke-linejoin:miter;stroke-width:0.8;"/>
   </g>
   <g id="patch_9">
    <path d="M 372.249688 35.588279 
L 372.249688 15.118125 
" style="fill:none;stroke:#000000;stroke-linecap:square;stroke-linejoin:miter;stroke-width:0.8;"/>
   </g>
   <g id="patch_10">
    <path d="M 15.129688 35.588279 
L 372.249688 35.588279 
" style="fill:none;stroke:#000000;stroke-linecap:square;stroke-linejoin:miter;stroke-width:0.8;"/>
   </g>
   <g id="patch_11">
    <path d="M 15.129688 15.118125 
L 372.249688 15.118125 
" style="fill:none;stroke:#000000;stroke-linecap:square;stroke-linejoin:miter;stroke-width:0.8;"/>
   </g>
   <g id="text_1">
    <text style="font-family:DejaVu Sans;font-size:12px;font-style:normal;font-weight:normal;text-anchor:middle;" transform="rotate(-0, 193.689688, 9.118125)" x="193.689688" y="9.118125">Chr 15</text>
   </g>
  </g>
  <g id="axes_2">
   <g id="patch_12">
    <path d="M 15.129688 60.152463 
L 372.249688 60.152463 
L 372.249688 39.68231 
L 15.129688 39.68231 
z
" style="fill:none;"/>
   </g>
   <g id="patch_13">
    <path clip-path="url(#p3eb335c42c)" d="M 26.921386 58.105448 
L 94.302518 58.105448 
L 94.302518 47.870371 
L 26.921386 47.870371 
z
" style="fill:#ff0000;stroke:#000000;stroke-linejoin:miter;"/>
   </g>
   <g id="patch_14">
    <path clip-path="url(#p3eb335c42c)" d="M 94.302518 58.105448 
L 119.570442 58.105448 
L 119.570442 47.870371 
L 94.302518 47.870371 
z
" style="fill:#00ff00;stroke:#000000;stroke-linejoin:miter;"/>
   </g>
   <g id="patch_15">
    <path clip-path="url(#p3eb335c42c)" d="M 119.570442 58.105448 
L 245.910065 58.105448 
L 245.910065 47.870371 
L 119.570442 47.870371 
z
" style="fill:#ff1ab9;stroke:#000000;stroke-linejoin:miter;"/>
   </g>
   <g id="patch_16">
    <path clip-path="url(#p3eb335c42c)" d="M 245.910065 58.105448 
L 304.868555 58.105448 
L 304.868555 47.870371 
L 245.910065 47.870371 
z
" style="fill:#ffd300;stroke:#000000;stroke-linejoin:miter;"/>
   </g>
   <g id="patch_17">
    <path clip-path="url(#p3eb335c42c)" d="M 304.868555 58.105448 
L 372.249688 58.105448 
L 372.249688 47.870371 
L 304.868555 47.870371 
z
" style="fill:#005800;stroke:#000000;stroke-linejoin:miter;"/>
   </g>
   <g id="matplotlib.axis_3"/>
   <g id="matplotlib.axis_4">
    <g id="ytick_3"/>
    <g id="ytick_4"/>
    <g id="text_2">
     <text style="font-family:DejaVu Sans;font-size:10px;font-style:normal;font-weight:normal;" transform="translate(11.129688 36.639887)"/>
     <text style="font-family:DejaVu Sans;font-size:10px;font-style:normal;font-weight:normal;" transform="translate(3.18125 47.837699)">2   </text>
    </g>
   </g>
   <g id="patch_18">
    <path d="M 15.129688 60.152463 
L 15.129688 39.68231 
" style="fill:none;stroke:#000000;stroke-linecap:square;stroke-linejoin:miter;stroke-width:0.8;"/>
   </g>
   <g id="patch_19">
    <path d="M 372.249688 60.152463 
L 372.249688 39.68231 
" style="fill:none;stroke:#000000;stroke-linecap:square;stroke-linejoin:miter;stroke-width:0.8;"/>
   </g>
   <g id="patch_20">
    <path d="M 15.129688 60.152463 
L 372.249688 60.152463 
" style="fill:none;stroke:#000000;stroke-linecap:square;stroke-linejoin:miter;stroke-width:0.8;"/>
   </g>
   <g id="patch_21">
    <path d="M 15.129688 39.68231 
L 372.249688 39.68231 
" style="fill:none;stroke:#000000;stroke-linecap:square;stroke-linejoin:miter;stroke-width:0.8;"/>
   </g>
  </g>
  <g id="axes_3">
   <g id="patch_22">
    <path d="M 15.129688 84.716648 
L 372.249688 84.716648 
L 372.249688 64.246494 
L 15.129688 64.246494 
z
" style="fill:none;"/>
   </g>
   <g id="patch_23">
    <path clip-path="url(#p03f55c6722)" d="M 26.921386 82.669633 
L 77.457235 82.669633 
L 77.457235 72.434556 
L 26.921386 72.434556 
z
" style="fill:#ff0000;stroke:#000000;stroke-linejoin:miter;"/>
   </g>
   <g id="patch_24">
    <path clip-path="url(#p03f55c6722)" d="M 77.457235 82.669633 
L 161.68365 82.669633 
L 161.68365 72.434556 
L 77.457235 72.434556 
z
" style="fill:#00ff00;stroke:#000000;stroke-linejoin:miter;"/>
   </g>
   <g id="patch_25">
    <path clip-path="url(#p03f55c6722)" d="M 161.68365 82.669633 
L 220.64214 82.669633 
L 220.64214 72.434556 
L 161.68365 72.434556 
z
" style="fill:#ff1ab9;stroke:#000000;stroke-linejoin:miter;"/>
   </g>
   <g id="patch_26">
    <path clip-path="url(#p03f55c6722)" d="M 220.64214 82.669633 
L 288.023272 82.669633 
L 288.023272 72.434556 
L 220.64214 72.434556 
z
" style="fill:#ffd300;stroke:#000000;stroke-linejoin:miter;"/>
   </g>
   <g id="patch_27">
    <path clip-path="url(#p03f55c6722)" d="M 288.023272 82.669633 
L 372.249688 82.669633 
L 372.249688 72.434556 
L 288.023272 72.434556 
z
" style="fill:#005800;stroke:#000000;stroke-linejoin:miter;"/>
   </g>
   <g id="matplotlib.axis_5"/>
   <g id="matplotlib.axis_6">
    <g id="ytick_5"/>
    <g id="ytick_6"/>
    <g id="text_3">
     <text style="font-family:DejaVu Sans;font-size:10px;font-style:normal;font-weight:normal;" transform="translate(11.129688 61.204071)"/>
     <text style="font-family:DejaVu Sans;font-size:10px;font-style:normal;font-weight:normal;" transform="translate(3.18125 72.401884)">3   </text>
    </g>
   </g>
   <g id="patch_28">
    <path d="M 15.129688 84.716648 
L 15.129688 64.246494 
" style="fill:none;stroke:#000000;stroke-linecap:square;stroke-linejoin:miter;stroke-width:0.8;"/>
   </g>
   <g id="patch_29">
    <path d="M 372.249688 84.716648 
L 372.249688 64.246494 
" style="fill:none;stroke:#000000;stroke-linecap:square;stroke-linejoin:miter;stroke-width:0.8;"/>
   </g>
   <g id="patch_30">
    <path d="M 15.129688 84.716648 
L 372.249688 84.716648 
" style="fill:none;stroke:#000000;stroke-linecap:square;stroke-linejoin:miter;stroke-width:0.8;"/>
   </g>
   <g id="patch_31">
    <path d="M 15.129688 64.246494 
L 372.249688 64.246494 
" style="fill:none;stroke:#000000;stroke-linecap:square;stroke-linejoin:miter;stroke-width:0.8;"/>
   </g>
  </g>
  <g id="axes_4">
   <g id="patch_32">
    <path d="M 15.129688 109.280833 
L 372.249688 109.280833 
L 372.249688 88.810679 
L 15.129688 88.810679 
z
" style="fill:none;"/>
   </g>
   <g id="patch_33">
    <path clip-path="url(#p3f1c755948)" d="M 26.921386 107.233817 
L 94.302518 107.233817 
L 94.302518 96.99874 
L 26.921386 96.99874 
z
" style="fill:#ff0000;stroke:#000000;stroke-linejoin:miter;"/>
   </g>
   <g id="patch_34">
    <path clip-path="url(#p3f1c755948)" d="M 94.302518 107.233817 
L 170.106291 107.233817 
L 170.106291 96.99874 
L 94.302518 96.99874 
z
" style="fill:#00ff00;stroke:#000000;stroke-linejoin:miter;"/>
   </g>
   <g id="patch_35">
    <path clip-path="url(#p3f1c755948)" d="M 170.106291 107.233817 
L 220.64214 107.233817 
L 220.64214 96.99874 
L 170.106291 96.99874 
z
" style="fill:#ff1ab9;stroke:#000000;stroke-linejoin:miter;"/>
   </g>
   <g id="patch_36">
    <path clip-path="url(#p3f1c755948)" d="M 220.64214 107.233817 
L 271.177989 107.233817 
L 271.177989 96.99874 
L 220.64214 96.99874 
z
" style="fill:#ffd300;stroke:#000000;stroke-linejoin:miter;"/>
   </g>
   <g id="patch_37">
    <path clip-path="url(#p3f1c755948)" d="M 271.177989 107.233817 
L 321.713838 107.233817 
L 321.713838 96.99874 
L 271.177989 96.99874 
z
" style="fill:#005800;stroke:#000000;stroke-linejoin:miter;"/>
   </g>
   <g id="patch_38">
    <path clip-path="url(#p3f1c755948)" d="M 321.713838 107.233817 
L 372.249688 107.233817 
L 372.249688 96.99874 
L 321.713838 96.99874 
z
" style="fill:#8484ff;stroke:#000000;stroke-linejoin:miter;"/>
   </g>
   <g id="matplotlib.axis_7"/>
   <g id="matplotlib.axis_8">
    <g id="ytick_7"/>
    <g id="ytick_8"/>
    <g id="text_4">
     <text style="font-family:DejaVu Sans;font-size:10px;font-style:normal;font-weight:normal;" transform="translate(11.129688 85.768256)"/>
     <text style="font-family:DejaVu Sans;font-size:10px;font-style:normal;font-weight:normal;" transform="translate(3.18125 96.966068)">4   </text>
    </g>
   </g>
   <g id="patch_39">
    <path d="M 15.129688 109.280833 
L 15.129688 88.810679 
" style="fill:none;stroke:#000000;stroke-linecap:square;stroke-linejoin:miter;stroke-width:0.8;"/>
   </g>
   <g id="patch_40">
    <path d="M 372.249688 109.280833 
L 372.249688 88.810679 
" style="fill:none;stroke:#000000;stroke-linecap:square;stroke-linejoin:miter;stroke-width:0.8;"/>
   </g>
   <g id="patch_41">
    <path d="M 15.129688 109.280833 
L 372.249688 109.280833 
" style="fill:none;stroke:#000000;stroke-linecap:square;stroke-linejoin:miter;stroke-width:0.8;"/>
   </g>
   <g id="patch_42">
    <path d="M 15.129688 88.810679 
L 372.249688 88.810679 
" style="fill:none;stroke:#000000;stroke-linecap:square;stroke-linejoin:miter;stroke-width:0.8;"/>
   </g>
  </g>
  <g id="axes_5">
   <g id="patch_43">
    <path d="M 15.129688 133.845017 
L 372.249688 133.845017 
L 372.249688 113.374863 
L 15.129688 113.374863 
z
" style="fill:none;"/>
   </g>
   <g id="patch_44">
    <path clip-path="url(#p713f051f09)" d="M 35.344027 131.798002 
L 111.147801 131.798002 
L 111.147801 121.562925 
L 35.344027 121.562925 
z
" style="fill:#ff0000;stroke:#000000;stroke-linejoin:miter;"/>
   </g>
   <g id="patch_45">
    <path clip-path="url(#p713f051f09)" d="M 111.147801 131.798002 
L 144.838367 131.798002 
L 144.838367 121.562925 
L 111.147801 121.562925 
z
" style="fill:#00ff00;stroke:#000000;stroke-linejoin:miter;"/>
   </g>
   <g id="patch_46">
    <path clip-path="url(#p713f051f09)" d="M 144.838367 131.798002 
L 220.64214 131.798002 
L 220.64214 121.562925 
L 144.838367 121.562925 
z
" style="fill:#ff1ab9;stroke:#000000;stroke-linejoin:miter;"/>
   </g>
   <g id="patch_47">
    <path clip-path="url(#p713f051f09)" d="M 220.64214 131.798002 
L 313.291197 131.798002 
L 313.291197 121.562925 
L 220.64214 121.562925 
z
" style="fill:#ffd300;stroke:#000000;stroke-linejoin:miter;"/>
   </g>
   <g id="patch_48">
    <path clip-path="url(#p713f051f09)" d="M 313.291197 131.798002 
L 372.249688 131.798002 
L 372.249688 121.562925 
L 313.291197 121.562925 
z
" style="fill:#005800;stroke:#000000;stroke-linejoin:miter;"/>
   </g>
   <g id="matplotlib.axis_9"/>
   <g id="matplotlib.axis_10">
    <g id="ytick_9"/>
    <g id="ytick_10"/>
    <g id="text_5">
     <text style="font-family:DejaVu Sans;font-size:10px;font-style:normal;font-weight:normal;" transform="translate(11.129688 110.33244)"/>
     <text style="font-family:DejaVu Sans;font-size:10px;font-style:normal;font-weight:normal;" transform="translate(3.18125 121.530253)">5   </text>
    </g>
   </g>
   <g id="patch_49">
    <path d="M 15.129688 133.845017 
L 15.129688 113.374863 
" style="fill:none;stroke:#000000;stroke-linecap:square;stroke-linejoin:miter;stroke-width:0.8;"/>
   </g>
   <g id="patch_50">
    <path d="M 372.249688 133.845017 
L 372.249688 113.374863 
" style="fill:none;stroke:#000000;stroke-linecap:square;stroke-linejoin:miter;stroke-width:0.8;"/>
   </g>
   <g id="patch_51">
    <path d="M 15.129688 133.845017 
L 372.249688 133.845017 
" style="fill:none;stroke:#000000;stroke-linecap:square;stroke-linejoin:miter;stroke-width:0.8;"/>
   </g>
   <g id="patch_52">
    <path d="M 15.129688 113.374863 
L 372.249688 113.374863 
" style="fill:none;stroke:#000000;stroke-linecap:square;stroke-linejoin:miter;stroke-width:0.8;"/>
   </g>
  </g>
  <g id="axes_6">
   <g id="patch_53">
    <path d="M 15.129688 158.409202 
L 372.249688 158.409202 
L 372.249688 137.939048 
L 15.129688 137.939048 
z
" style="fill:none;"/>
   </g>
   <g id="patch_54">
    <path clip-path="url(#p643cb9c676)" d="M 26.921386 156.362187 
L 85.879876 156.362187 
L 85.879876 146.12711 
L 26.921386 146.12711 
z
" style="fill:#ff0000;stroke:#000000;stroke-linejoin:miter;"/>
   </g>
   <g id="patch_55">
    <path clip-path="url(#p643cb9c676)" d="M 85.879876 156.362187 
L 136.415725 156.362187 
L 136.415725 146.12711 
L 85.879876 146.12711 
z
" style="fill:#00ff00;stroke:#000000;stroke-linejoin:miter;"/>
   </g>
   <g id="patch_56">
    <path clip-path="url(#p643cb9c676)" d="M 136.415725 156.362187 
L 186.951574 156.362187 
L 186.951574 146.12711 
L 136.415725 146.12711 
z
" style="fill:#ff1ab9;stroke:#000000;stroke-linejoin:miter;"/>
   </g>
   <g id="patch_57">
    <path clip-path="url(#p643cb9c676)" d="M 186.951574 156.362187 
L 271.177989 156.362187 
L 271.177989 146.12711 
L 186.951574 146.12711 
z
" style="fill:#ffd300;stroke:#000000;stroke-linejoin:miter;"/>
   </g>
   <g id="patch_58">
    <path clip-path="url(#p643cb9c676)" d="M 271.177989 156.362187 
L 321.713838 156.362187 
L 321.713838 146.12711 
L 271.177989 146.12711 
z
" style="fill:#005800;stroke:#000000;stroke-linejoin:miter;"/>
   </g>
   <g id="patch_59">
    <path clip-path="url(#p643cb9c676)" d="M 321.713838 156.362187 
L 372.249688 156.362187 
L 372.249688 146.12711 
L 321.713838 146.12711 
z
" style="fill:#8484ff;stroke:#000000;stroke-linejoin:miter;"/>
   </g>
   <g id="matplotlib.axis_11"/>
   <g id="matplotlib.axis_12">
    <g id="ytick_11"/>
    <g id="ytick_12"/>
    <g id="text_6">
     <text style="font-family:DejaVu Sans;font-size:10px;font-style:normal;font-weight:normal;" transform="translate(11.129688 134.896625)"/>
     <text style="font-family:DejaVu Sans;font-size:10px;font-style:normal;font-weight:normal;" transform="translate(3.18125 146.094437)">6   </text>
    </g>
   </g>
   <g id="patch_60">
    <path d="M 15.129688 158.409202 
L 15.129688 137.939048 
" style="fill:none;stroke:#000000;stroke-linecap:square;stroke-linejoin:miter;stroke-width:0.8;"/>
   </g>
   <g id="patch_61">
    <path d="M 372.249688 158.409202 
L 372.249688 137.939048 
" style="fill:none;stroke:#000000;stroke-linecap:square;stroke-linejoin:miter;stroke-width:0.8;"/>
   </g>
   <g id="patch_62">
    <path d="M 15.129688 158.409202 
L 372.249688 158.409202 
" style="fill:none;stroke:#000000;stroke-linecap:square;stroke-linejoin:miter;stroke-width:0.8;"/>
   </g>
   <g id="patch_63">
    <path d="M 15.129688 137.939048 
L 372.249688 137.939048 
" style="fill:none;stroke:#000000;stroke-linecap:square;stroke-linejoin:miter;stroke-width:0.8;"/>
   </g>
  </g>
  <g id="axes_7">
   <g id="patch_64">
    <path d="M 15.129688 182.973387 
L 372.249688 182.973387 
L 372.249688 162.503233 
L 15.129688 162.503233 
z
" style="fill:none;"/>
   </g>
   <g id="patch_65">
    <path clip-path="url(#pbe5205fb95)" d="M 26.921386 180.926371 
L 85.879876 180.926371 
L 85.879876 170.691294 
L 26.921386 170.691294 
z
" style="fill:#ff0000;stroke:#000000;stroke-linejoin:miter;"/>
   </g>
   <g id="patch_66">
    <path clip-path="url(#pbe5205fb95)" d="M 85.879876 180.926371 
L 195.374216 180.926371 
L 195.374216 170.691294 
L 85.879876 170.691294 
z
" style="fill:#00ff00;stroke:#000000;stroke-linejoin:miter;"/>
   </g>
   <g id="patch_67">
    <path clip-path="url(#pbe5205fb95)" d="M 195.374216 180.926371 
L 254.332706 180.926371 
L 254.332706 170.691294 
L 195.374216 170.691294 
z
" style="fill:#ff1ab9;stroke:#000000;stroke-linejoin:miter;"/>
   </g>
   <g id="patch_68">
    <path clip-path="url(#pbe5205fb95)" d="M 254.332706 180.926371 
L 304.868555 180.926371 
L 304.868555 170.691294 
L 254.332706 170.691294 
z
" style="fill:#ffd300;stroke:#000000;stroke-linejoin:miter;"/>
   </g>
   <g id="patch_69">
    <path clip-path="url(#pbe5205fb95)" d="M 304.868555 180.926371 
L 363.827046 180.926371 
L 363.827046 170.691294 
L 304.868555 170.691294 
z
" style="fill:#005800;stroke:#000000;stroke-linejoin:miter;"/>
   </g>
   <g id="matplotlib.axis_13"/>
   <g id="matplotlib.axis_14">
    <g id="ytick_13"/>
    <g id="ytick_14"/>
    <g id="text_7">
     <text style="font-family:DejaVu Sans;font-size:10px;font-style:normal;font-weight:normal;" transform="translate(11.129688 159.46081)"/>
     <text style="font-family:DejaVu Sans;font-size:10px;font-style:normal;font-weight:normal;" transform="translate(3.18125 170.658622)">7   </text>
    </g>
   </g>
   <g id="patch_70">
    <path d="M 15.129688 182.973387 
L 15.129688 162.503233 
" style="fill:none;stroke:#000000;stroke-linecap:square;stroke-linejoin:miter;stroke-width:0.8;"/>
   </g>
   <g id="patch_71">
    <path d="M 372.249688 182.973387 
L 372.249688 162.503233 
" style="fill:none;stroke:#000000;stroke-linecap:square;stroke-linejoin:miter;stroke-width:0.8;"/>
   </g>
   <g id="patch_72">
    <path d="M 15.129688 182.973387 
L 372.249688 182.973387 
" style="fill:none;stroke:#000000;stroke-linecap:square;stroke-linejoin:miter;stroke-width:0.8;"/>
   </g>
   <g id="patch_73">
    <path d="M 15.129688 162.503233 
L 372.249688 162.503233 
" style="fill:none;stroke:#000000;stroke-linecap:square;stroke-linejoin:miter;stroke-width:0.8;"/>
   </g>
  </g>
  <g id="axes_8">
   <g id="patch_74">
    <path d="M 15.129688 207.537571 
L 372.249688 207.537571 
L 372.249688 187.067417 
L 15.129688 187.067417 
z
" style="fill:none;"/>
   </g>
   <g id="patch_75">
    <path clip-path="url(#p91c88a981e)" d="M 26.921386 205.490556 
L 69.034593 205.490556 
L 69.034593 195.255479 
L 26.921386 195.255479 
z
" style="fill:#ff0000;stroke:#000000;stroke-linejoin:miter;"/>
   </g>
   <g id="patch_76">
    <path clip-path="url(#p91c88a981e)" d="M 69.034593 205.490556 
L 136.415725 205.490556 
L 136.415725 195.255479 
L 69.034593 195.255479 
z
" style="fill:#00ff00;stroke:#000000;stroke-linejoin:miter;"/>
   </g>
   <g id="patch_77">
    <path clip-path="url(#p91c88a981e)" d="M 136.415725 205.490556 
L 186.951574 205.490556 
L 186.951574 195.255479 
L 136.415725 195.255479 
z
" style="fill:#ff1ab9;stroke:#000000;stroke-linejoin:miter;"/>
   </g>
   <g id="patch_78">
    <path clip-path="url(#p91c88a981e)" d="M 186.951574 205.490556 
L 262.755348 205.490556 
L 262.755348 195.255479 
L 186.951574 195.255479 
z
" style="fill:#ffd300;stroke:#000000;stroke-linejoin:miter;"/>
   </g>
   <g id="patch_79">
    <path clip-path="url(#p91c88a981e)" d="M 262.755348 205.490556 
L 372.249688 205.490556 
L 372.249688 195.255479 
L 262.755348 195.255479 
z
" style="fill:#005800;stroke:#000000;stroke-linejoin:miter;"/>
   </g>
   <g id="matplotlib.axis_15"/>
   <g id="matplotlib.axis_16">
    <g id="ytick_15"/>
    <g id="ytick_16"/>
    <g id="text_8">
     <text style="font-family:DejaVu Sans;font-size:10px;font-style:normal;font-weight:normal;" transform="translate(11.129688 184.024994)"/>
     <text style="font-family:DejaVu Sans;font-size:10px;font-style:normal;font-weight:normal;" transform="translate(3.18125 195.222807)">8   </text>
    </g>
   </g>
   <g id="patch_80">
    <path d="M 15.129688 207.537571 
L 15.129688 187.067417 
" style="fill:none;stroke:#000000;stroke-linecap:square;stroke-linejoin:miter;stroke-width:0.8;"/>
   </g>
   <g id="patch_81">
    <path d="M 372.249688 207.537571 
L 372.249688 187.067417 
" style="fill:none;stroke:#000000;stroke-linecap:square;stroke-linejoin:miter;stroke-width:0.8;"/>
   </g>
   <g id="patch_82">
    <path d="M 15.129688 207.537571 
L 372.249688 207.537571 
" style="fill:none;stroke:#000000;stroke-linecap:square;stroke-linejoin:miter;stroke-width:0.8;"/>
   </g>
   <g id="patch_83">
    <path d="M 15.129688 187.067417 
L 372.249688 187.067417 
" style="fill:none;stroke:#000000;stroke-linecap:square;stroke-linejoin:miter;stroke-width:0.8;"/>
   </g>
  </g>
  <g id="axes_9">
   <g id="patch_84">
    <path d="M 15.129688 232.101756 
L 372.249688 232.101756 
L 372.249688 211.631602 
L 15.129688 211.631602 
z
" style="fill:none;"/>
   </g>
   <g id="patch_85">
    <path clip-path="url(#p4f462191b8)" d="M 26.921386 230.05474 
L 77.457235 230.05474 
L 77.457235 219.819663 
L 26.921386 219.819663 
z
" style="fill:#ff0000;stroke:#000000;stroke-linejoin:miter;"/>
   </g>
   <g id="patch_86">
    <path clip-path="url(#p4f462191b8)" d="M 77.457235 230.05474 
L 144.838367 230.05474 
L 144.838367 219.819663 
L 77.457235 219.819663 
z
" style="fill:#00ff00;stroke:#000000;stroke-linejoin:miter;"/>
   </g>
   <g id="patch_87">
    <path clip-path="url(#p4f462191b8)" d="M 144.838367 230.05474 
L 195.374216 230.05474 
L 195.374216 219.819663 
L 144.838367 219.819663 
z
" style="fill:#ff1ab9;stroke:#000000;stroke-linejoin:miter;"/>
   </g>
   <g id="patch_88">
    <path clip-path="url(#p4f462191b8)" d="M 195.374216 230.05474 
L 262.755348 230.05474 
L 262.755348 219.819663 
L 195.374216 219.819663 
z
" style="fill:#ffd300;stroke:#000000;stroke-linejoin:miter;"/>
   </g>
   <g id="patch_89">
    <path clip-path="url(#p4f462191b8)" d="M 262.755348 230.05474 
L 338.559121 230.05474 
L 338.559121 219.819663 
L 262.755348 219.819663 
z
" style="fill:#005800;stroke:#000000;stroke-linejoin:miter;"/>
   </g>
   <g id="patch_90">
    <path clip-path="url(#p4f462191b8)" d="M 338.559121 230.05474 
L 372.249688 230.05474 
L 372.249688 219.819663 
L 338.559121 219.819663 
z
" style="fill:#8484ff;stroke:#000000;stroke-linejoin:miter;"/>
   </g>
   <g id="matplotlib.axis_17"/>
   <g id="matplotlib.axis_18">
    <g id="ytick_17"/>
    <g id="ytick_18"/>
    <g id="text_9">
     <text style="font-family:DejaVu Sans;font-size:10px;font-style:normal;font-weight:normal;" transform="translate(11.129688 208.589179)"/>
     <text style="font-family:DejaVu Sans;font-size:10px;font-style:normal;font-weight:normal;" transform="translate(3.18125 219.786991)">9   </text>
    </g>
   </g>
   <g id="patch_91">
    <path d="M 15.129688 232.101756 
L 15.129688 211.631602 
" style="fill:none;stroke:#000000;stroke-linecap:square;stroke-linejoin:miter;stroke-width:0.8;"/>
   </g>
   <g id="patch_92">
    <path d="M 372.249688 232.101756 
L 372.249688 211.631602 
" style="fill:none;stroke:#000000;stroke-linecap:square;stroke-linejoin:miter;stroke-width:0.8;"/>
   </g>
   <g id="patch_93">
    <path d="M 15.129688 232.101756 
L 372.249688 232.101756 
" style="fill:none;stroke:#000000;stroke-linecap:square;stroke-linejoin:miter;stroke-width:0.8;"/>
   </g>
   <g id="patch_94">
    <path d="M 15.129688 211.631602 
L 372.249688 211.631602 
" style="fill:none;stroke:#000000;stroke-linecap:square;stroke-linejoin:miter;stroke-width:0.8;"/>
   </g>
  </g>
  <g id="axes_10">
   <g id="patch_95">
    <path d="M 15.129688 256.66594 
L 372.249688 256.66594 
L 372.249688 236.195787 
L 15.129688 236.195787 
z
" style="fill:none;"/>
   </g>
   <g id="patch_96">
    <path clip-path="url(#pe8f39907f8)" d="M 26.921386 254.618925 
L 170.106291 254.618925 
L 170.106291 244.383848 
L 26.921386 244.383848 
z
" style="fill:#ff0000;stroke:#000000;stroke-linejoin:miter;"/>
   </g>
   <g id="patch_97">
    <path clip-path="url(#pe8f39907f8)" d="M 170.106291 254.618925 
L 220.64214 254.618925 
L 220.64214 244.383848 
L 170.106291 244.383848 
z
" style="fill:#00ff00;stroke:#000000;stroke-linejoin:miter;"/>
   </g>
   <g id="patch_98">
    <path clip-path="url(#pe8f39907f8)" d="M 220.64214 254.618925 
L 271.177989 254.618925 
L 271.177989 244.383848 
L 220.64214 244.383848 
z
" style="fill:#ff1ab9;stroke:#000000;stroke-linejoin:miter;"/>
   </g>
   <g id="patch_99">
    <path clip-path="url(#pe8f39907f8)" d="M 271.177989 254.618925 
L 313.291197 254.618925 
L 313.291197 244.383848 
L 271.177989 244.383848 
z
" style="fill:#ffd300;stroke:#000000;stroke-linejoin:miter;"/>
   </g>
   <g id="patch_100">
    <path clip-path="url(#pe8f39907f8)" d="M 313.291197 254.618925 
L 363.827046 254.618925 
L 363.827046 244.383848 
L 313.291197 244.383848 
z
" style="fill:#005800;stroke:#000000;stroke-linejoin:miter;"/>
   </g>
   <g id="matplotlib.axis_19"/>
   <g id="matplotlib.axis_20">
    <g id="ytick_19"/>
    <g id="ytick_20"/>
    <g id="text_10">
     <text style="font-family:DejaVu Sans;font-size:10px;font-style:normal;font-weight:normal;" transform="translate(11.129688 233.153363)"/>
     <text style="font-family:DejaVu Sans;font-size:10px;font-style:normal;font-weight:normal;" transform="translate(0 244.351176)">10   </text>
    </g>
   </g>
   <g id="patch_101">
    <path d="M 15.129688 256.66594 
L 15.129688 236.195787 
" style="fill:none;stroke:#000000;stroke-linecap:square;stroke-linejoin:miter;stroke-width:0.8;"/>
   </g>
   <g id="patch_102">
    <path d="M 372.249688 256.66594 
L 372.249688 236.195787 
" style="fill:none;stroke:#000000;stroke-linecap:square;stroke-linejoin:miter;stroke-width:0.8;"/>
   </g>
   <g id="patch_103">
    <path d="M 15.129688 256.66594 
L 372.249688 256.66594 
" style="fill:none;stroke:#000000;stroke-linecap:square;stroke-linejoin:miter;stroke-width:0.8;"/>
   </g>
   <g id="patch_104">
    <path d="M 15.129688 236.195787 
L 372.249688 236.195787 
" style="fill:none;stroke:#000000;stroke-linecap:square;stroke-linejoin:miter;stroke-width:0.8;"/>
   </g>
  </g>
  <g id="axes_11">
   <g id="patch_105">
    <path d="M 15.129688 281.230125 
L 372.249688 281.230125 
L 372.249688 260.759971 
L 15.129688 260.759971 
z
" style="fill:none;"/>
   </g>
   <g id="patch_106">
    <path clip-path="url(#p86f181b730)" d="M 43.766669 279.18311 
L 119.570442 279.18311 
L 119.570442 268.948033 
L 43.766669 268.948033 
z
" style="fill:#ff0000;stroke:#000000;stroke-linejoin:miter;"/>
   </g>
   <g id="patch_107">
    <path clip-path="url(#p86f181b730)" d="M 119.570442 279.18311 
L 170.106291 279.18311 
L 170.106291 268.948033 
L 119.570442 268.948033 
z
" style="fill:#00ff00;stroke:#000000;stroke-linejoin:miter;"/>
   </g>
   <g id="patch_108">
    <path clip-path="url(#p86f181b730)" d="M 170.106291 279.18311 
L 229.064782 279.18311 
L 229.064782 268.948033 
L 170.106291 268.948033 
z
" style="fill:#ff1ab9;stroke:#000000;stroke-linejoin:miter;"/>
   </g>
   <g id="patch_109">
    <path clip-path="url(#p86f181b730)" d="M 229.064782 279.18311 
L 279.600631 279.18311 
L 279.600631 268.948033 
L 229.064782 268.948033 
z
" style="fill:#ffd300;stroke:#000000;stroke-linejoin:miter;"/>
   </g>
   <g id="patch_110">
    <path clip-path="url(#p86f181b730)" d="M 279.600631 279.18311 
L 372.249688 279.18311 
L 372.249688 268.948033 
L 279.600631 268.948033 
z
" style="fill:#005800;stroke:#000000;stroke-linejoin:miter;"/>
   </g>
   <g id="matplotlib.axis_21">
    <g id="xtick_1">
     <g id="line2d_1">
      <defs>
       <path d="M 0 0 
L 0 3.5 
" id="m6cd2c45a08" style="stroke:#000000;stroke-width:0.8;"/>
      </defs>
      <g>
       <use style="stroke:#000000;stroke-width:0.8;" x="18.498744" xlink:href="#m6cd2c45a08" y="281.230125"/>
      </g>
     </g>
     <g id="text_11">
      <text style="font-family:DejaVu Sans;font-size:10px;font-style:normal;font-weight:normal;text-anchor:middle;" transform="rotate(-0, 18.498744, 295.828562)" x="18.498744" y="295.828562">0</text>
     </g>
    </g>
    <g id="xtick_2">
     <g id="line2d_2">
      <g>
       <use style="stroke:#000000;stroke-width:0.8;" x="85.879876" xlink:href="#m6cd2c45a08" y="281.230125"/>
      </g>
     </g>
     <g id="text_12">
      <text style="font-family:DejaVu Sans;font-size:10px;font-style:normal;font-weight:normal;text-anchor:middle;" transform="rotate(-0, 85.879876, 295.828562)" x="85.879876" y="295.828562">20</text>
     </g>
    </g>
    <g id="xtick_3">
     <g id="line2d_3">
      <g>
       <use style="stroke:#000000;stroke-width:0.8;" x="153.261008" xlink:href="#m6cd2c45a08" y="281.230125"/>
      </g>
     </g>
     <g id="text_13">
      <text style="font-family:DejaVu Sans;font-size:10px;font-style:normal;font-weight:normal;text-anchor:middle;" transform="rotate(-0, 153.261008, 295.828562)" x="153.261008" y="295.828562">40</text>
     </g>
    </g>
    <g id="xtick_4">
     <g id="line2d_4">
      <g>
       <use style="stroke:#000000;stroke-width:0.8;" x="220.64214" xlink:href="#m6cd2c45a08" y="281.230125"/>
      </g>
     </g>
     <g id="text_14">
      <text style="font-family:DejaVu Sans;font-size:10px;font-style:normal;font-weight:normal;text-anchor:middle;" transform="rotate(-0, 220.64214, 295.828562)" x="220.64214" y="295.828562">60</text>
     </g>
    </g>
    <g id="xtick_5">
     <g id="line2d_5">
      <g>
       <use style="stroke:#000000;stroke-width:0.8;" x="288.023272" xlink:href="#m6cd2c45a08" y="281.230125"/>
      </g>
     </g>
     <g id="text_15">
      <text style="font-family:DejaVu Sans;font-size:10px;font-style:normal;font-weight:normal;text-anchor:middle;" transform="rotate(-0, 288.023272, 295.828562)" x="288.023272" y="295.828562">80</text>
     </g>
    </g>
    <g id="xtick_6">
     <g id="line2d_6">
      <g>
       <use style="stroke:#000000;stroke-width:0.8;" x="355.404404" xlink:href="#m6cd2c45a08" y="281.230125"/>
      </g>
     </g>
     <g id="text_16">
      <text style="font-family:DejaVu Sans;font-size:10px;font-style:normal;font-weight:normal;text-anchor:middle;" transform="rotate(-0, 355.404404, 295.828562)" x="355.404404" y="295.828562">100</text>
     </g>
    </g>
   </g>
   <g id="matplotlib.axis_22">
    <g id="ytick_21"/>
    <g id="ytick_22"/>
    <g id="text_17">
     <text style="font-family:DejaVu Sans;font-size:10px;font-style:normal;font-weight:normal;" transform="translate(11.129688 257.717548)"/>
     <text style="font-family:DejaVu Sans;font-size:10px;font-style:normal;font-weight:normal;" transform="translate(0 268.915361)">11   </text>
    </g>
   </g>
   <g id="patch_111">
    <path d="M 15.129688 281.230125 
L 15.129688 260.759971 
" style="fill:none;stroke:#000000;stroke-linecap:square;stroke-linejoin:miter;stroke-width:0.8;"/>
   </g>
   <g id="patch_112">
    <path d="M 372.249688 281.230125 
L 372.249688 260.759971 
" style="fill:none;stroke:#000000;stroke-linecap:square;stroke-linejoin:miter;stroke-width:0.8;"/>
   </g>
   <g id="patch_113">
    <path d="M 15.129688 281.230125 
L 372.249688 281.230125 
" style="fill:none;stroke:#000000;stroke-linecap:square;stroke-linejoin:miter;stroke-width:0.8;"/>
   </g>
   <g id="patch_114">
    <path d="M 15.129688 260.759971 
L 372.249688 260.759971 
" style="fill:none;stroke:#000000;stroke-linecap:square;stroke-linejoin:miter;stroke-width:0.8;"/>
   </g>
  </g>
 </g>
 <defs>
  <clipPath id="pb99de76e61">
   <rect height="20.470154" width="357.12" x="15.129688" y="15.118125"/>
  </clipPath>
  <clipPath id="p3eb335c42c">
   <rect height="20.470154" width="357.12" x="15.129688" y="39.68231"/>
  </clipPath>
  <clipPath id="p03f55c6722">
   <rect height="20.470154" width="357.12" x="15.129688" y="64.246494"/>
  </clipPath>
  <clipPath id="p3f1c755948">
   <rect height="20.470154" width="357.12" x="15.129688" y="88.810679"/>
  </clipPath>
  <clipPath id="p713f051f09">
   <rect height="20.470154" width="357.12" x="15.129688" y="113.374863"/>
  </clipPath>
  <clipPath id="p643cb9c676">
   <rect height="20.470154" width="357.12" x="15.129688" y="137.939048"/>
  </clipPath>
  <clipPath id="pbe5205fb95">
   <rect height="20.470154" width="357.12" x="15.129688" y="162.503233"/>
  </clipPath>
  <clipPath id="p91c88a981e">
   <rect height="20.470154" width="357.12" x="15.129688" y="187.067417"/>
  </clipPath>
  <clipPath id="p4f462191b8">
   <rect height="20.470154" width="357.12" x="15.129688" y="211.631602"/>
  </clipPath>
  <clipPath id="pe8f39907f8">
   <rect height="20.470154" width="357.12" x="15.129688" y="236.195787"/>
  </clipPath>
  <clipPath id="p86f181b730">
   <rect height="20.470154" width="357.12" x="15.129688" y="260.759971"/>
  </clipPath>
 </defs>
</svg>
