<?xml version="1.0" encoding="utf-8" standalone="no"?>
<!DOCTYPE svg PUBLIC "-//W3C//DTD SVG 1.1//EN"
  "http://www.w3.org/Graphics/SVG/1.1/DTD/svg11.dtd">
<!-- Created with matplotlib (https://matplotlib.org/) -->
<svg height="262.914375pt" version="1.1" viewBox="0 0 388.273437 262.914375" width="388.273437pt" xmlns="http://www.w3.org/2000/svg" xmlns:xlink="http://www.w3.org/1999/xlink">
 <defs>
  <style type="text/css">
*{stroke-linecap:butt;stroke-linejoin:round;}
  </style>
 </defs>
 <g id="figure_1">
  <g id="patch_1">
   <path d="M 0 262.914375 
L 388.273437 262.914375 
L 388.273437 0 
L 0 0 
z
" style="fill:none;"/>
  </g>
  <g id="axes_1">
   <g id="patch_2">
    <path d="M 53.473438 31.844279 
L 388.273438 31.844279 
L 388.273438 15.118125 
L 53.473438 15.118125 
z
" style="fill:none;"/>
   </g>
   <g id="patch_3">
    <path clip-path="url(#pa01ab9b25b)" d="M 64.528154 30.171663 
L 127.697966 30.171663 
L 127.697966 21.808587 
L 64.528154 21.808587 
z
" style="fill:#ff0000;stroke:#000000;stroke-linejoin:miter;"/>
   </g>
   <g id="patch_4">
    <path clip-path="url(#pa01ab9b25b)" d="M 127.697966 30.171663 
L 182.971551 30.171663 
L 182.971551 21.808587 
L 127.697966 21.808587 
z
" style="fill:#00ff00;stroke:#000000;stroke-linejoin:miter;"/>
   </g>
   <g id="patch_5">
    <path clip-path="url(#pa01ab9b25b)" d="M 182.971551 30.171663 
L 230.348909 30.171663 
L 230.348909 21.808587 
L 182.971551 21.808587 
z
" style="fill:#ff1ab9;stroke:#000000;stroke-linejoin:miter;"/>
   </g>
   <g id="patch_6">
    <path clip-path="url(#pa01ab9b25b)" d="M 230.348909 30.171663 
L 285.622494 30.171663 
L 285.622494 21.808587 
L 230.348909 21.808587 
z
" style="fill:#ffd300;stroke:#000000;stroke-linejoin:miter;"/>
   </g>
   <g id="patch_7">
    <path clip-path="url(#pa01ab9b25b)" d="M 285.622494 30.171663 
L 380.377211 30.171663 
L 380.377211 21.808587 
L 285.622494 21.808587 
z
" style="fill:#005800;stroke:#000000;stroke-linejoin:miter;"/>
   </g>
   <g id="matplotlib.axis_1"/>
   <g id="matplotlib.axis_2">
    <g id="ytick_1"/>
    <g id="ytick_2"/>
    <g id="text_1">
     <text style="font-family:DejaVu Sans;font-size:10px;font-style:normal;font-weight:normal;text-anchor:middle;" transform="rotate(-0, 49.473438, 21.401514)" x="49.473438" y="21.401514">Embryo 1                </text>
    </g>
   </g>
   <g id="patch_8">
    <path d="M 53.473438 31.844279 
L 53.473438 15.118125 
" style="fill:none;stroke:#000000;stroke-linecap:square;stroke-linejoin:miter;stroke-width:0.8;"/>
   </g>
   <g id="patch_9">
    <path d="M 388.273438 31.844279 
L 388.273438 15.118125 
" style="fill:none;stroke:#000000;stroke-linecap:square;stroke-linejoin:miter;stroke-width:0.8;"/>
   </g>
   <g id="patch_10">
    <path d="M 53.473438 31.844279 
L 388.273438 31.844279 
" style="fill:none;stroke:#000000;stroke-linecap:square;stroke-linejoin:miter;stroke-width:0.8;"/>
   </g>
   <g id="patch_11">
    <path d="M 53.473438 15.118125 
L 388.273438 15.118125 
" style="fill:none;stroke:#000000;stroke-linecap:square;stroke-linejoin:miter;stroke-width:0.8;"/>
   </g>
   <g id="text_2">
    <text style="font-family:DejaVu Sans;font-size:12px;font-style:normal;font-weight:normal;text-anchor:middle;" transform="rotate(-0, 220.873438, 9.118125)" x="220.873438" y="9.118125">Chr 15</text>
   </g>
  </g>
  <g id="axes_2">
   <g id="patch_12">
    <path d="M 53.473438 51.915663 
L 388.273438 51.915663 
L 388.273438 35.18951 
L 53.473438 35.18951 
z
" style="fill:none;"/>
   </g>
   <g id="patch_13">
    <path clip-path="url(#pe570a1b3e4)" d="M 64.528154 50.243048 
L 127.697966 50.243048 
L 127.697966 41.879971 
L 64.528154 41.879971 
z
" style="fill:#ff0000;stroke:#000000;stroke-linejoin:miter;"/>
   </g>
   <g id="patch_14">
    <path clip-path="url(#pe570a1b3e4)" d="M 127.697966 50.243048 
L 151.386645 50.243048 
L 151.386645 41.879971 
L 127.697966 41.879971 
z
" style="fill:#00ff00;stroke:#000000;stroke-linejoin:miter;"/>
   </g>
   <g id="patch_15">
    <path clip-path="url(#pe570a1b3e4)" d="M 151.386645 50.243048 
L 269.830041 50.243048 
L 269.830041 41.879971 
L 151.386645 41.879971 
z
" style="fill:#ff1ab9;stroke:#000000;stroke-linejoin:miter;"/>
   </g>
   <g id="patch_16">
    <path clip-path="url(#pe570a1b3e4)" d="M 269.830041 50.243048 
L 325.103626 50.243048 
L 325.103626 41.879971 
L 269.830041 41.879971 
z
" style="fill:#ffd300;stroke:#000000;stroke-linejoin:miter;"/>
   </g>
   <g id="patch_17">
    <path clip-path="url(#pe570a1b3e4)" d="M 325.103626 50.243048 
L 380.377211 50.243048 
L 380.377211 41.879971 
L 325.103626 41.879971 
z
" style="fill:#005800;stroke:#000000;stroke-linejoin:miter;"/>
   </g>
   <g id="matplotlib.axis_3"/>
   <g id="matplotlib.axis_4">
    <g id="ytick_3"/>
    <g id="ytick_4"/>
    <g id="text_3">
     <text style="font-family:DejaVu Sans;font-size:10px;font-style:normal;font-weight:normal;" transform="translate(49.473438 30.275087)"/>
     <text style="font-family:DejaVu Sans;font-size:10px;font-style:normal;font-weight:normal;" transform="translate(41.525 41.472899)">7   </text>
    </g>
   </g>
   <g id="patch_18">
    <path d="M 53.473438 51.915663 
L 53.473438 35.18951 
" style="fill:none;stroke:#000000;stroke-linecap:square;stroke-linejoin:miter;stroke-width:0.8;"/>
   </g>
   <g id="patch_19">
    <path d="M 388.273438 51.915663 
L 388.273438 35.18951 
" style="fill:none;stroke:#000000;stroke-linecap:square;stroke-linejoin:miter;stroke-width:0.8;"/>
   </g>
   <g id="patch_20">
    <path d="M 53.473438 51.915663 
L 388.273438 51.915663 
" style="fill:none;stroke:#000000;stroke-linecap:square;stroke-linejoin:miter;stroke-width:0.8;"/>
   </g>
   <g id="patch_21">
    <path d="M 53.473438 35.18951 
L 388.273438 35.18951 
" style="fill:none;stroke:#000000;stroke-linecap:square;stroke-linejoin:miter;stroke-width:0.8;"/>
   </g>
  </g>
  <g id="axes_3">
   <g id="patch_22">
    <path d="M 53.473438 71.987048 
L 388.273438 71.987048 
L 388.273438 55.260894 
L 53.473438 55.260894 
z
" style="fill:none;"/>
   </g>
   <g id="patch_23">
    <path clip-path="url(#p9f9079f3be)" d="M 64.528154 70.314433 
L 111.905513 70.314433 
L 111.905513 61.951356 
L 64.528154 61.951356 
z
" style="fill:#ff0000;stroke:#000000;stroke-linejoin:miter;"/>
   </g>
   <g id="patch_24">
    <path clip-path="url(#p9f9079f3be)" d="M 111.905513 70.314433 
L 190.867777 70.314433 
L 190.867777 61.951356 
L 111.905513 61.951356 
z
" style="fill:#00ff00;stroke:#000000;stroke-linejoin:miter;"/>
   </g>
   <g id="patch_25">
    <path clip-path="url(#p9f9079f3be)" d="M 190.867777 70.314433 
L 246.141362 70.314433 
L 246.141362 61.951356 
L 190.867777 61.951356 
z
" style="fill:#ff1ab9;stroke:#000000;stroke-linejoin:miter;"/>
   </g>
   <g id="patch_26">
    <path clip-path="url(#p9f9079f3be)" d="M 246.141362 70.314433 
L 309.311173 70.314433 
L 309.311173 61.951356 
L 246.141362 61.951356 
z
" style="fill:#ffd300;stroke:#000000;stroke-linejoin:miter;"/>
   </g>
   <g id="patch_27">
    <path clip-path="url(#p9f9079f3be)" d="M 309.311173 70.314433 
L 380.377211 70.314433 
L 380.377211 61.951356 
L 309.311173 61.951356 
z
" style="fill:#005800;stroke:#000000;stroke-linejoin:miter;"/>
   </g>
   <g id="matplotlib.axis_5"/>
   <g id="matplotlib.axis_6">
    <g id="ytick_5"/>
    <g id="ytick_6"/>
    <g id="text_4">
     <text style="font-family:DejaVu Sans;font-size:10px;font-style:normal;font-weight:normal;" transform="translate(49.473438 50.346471)"/>
     <text style="font-family:DejaVu Sans;font-size:10px;font-style:normal;font-weight:normal;" transform="translate(41.525 61.544284)">8   </text>
    </g>
   </g>
   <g id="patch_28">
    <path d="M 53.473438 71.987048 
L 53.473438 55.260894 
" style="fill:none;stroke:#000000;stroke-linecap:square;stroke-linejoin:miter;stroke-width:0.8;"/>
   </g>
   <g id="patch_29">
    <path d="M 388.273438 71.987048 
L 388.273438 55.260894 
" style="fill:none;stroke:#000000;stroke-linecap:square;stroke-linejoin:miter;stroke-width:0.8;"/>
   </g>
   <g id="patch_30">
    <path d="M 53.473438 71.987048 
L 388.273438 71.987048 
" style="fill:none;stroke:#000000;stroke-linecap:square;stroke-linejoin:miter;stroke-width:0.8;"/>
   </g>
   <g id="patch_31">
    <path d="M 53.473438 55.260894 
L 388.273438 55.260894 
" style="fill:none;stroke:#000000;stroke-linecap:square;stroke-linejoin:miter;stroke-width:0.8;"/>
   </g>
  </g>
  <g id="axes_4">
   <g id="patch_32">
    <path d="M 53.473438 92.058433 
L 388.273438 92.058433 
L 388.273438 75.332279 
L 53.473438 75.332279 
z
" style="fill:none;"/>
   </g>
   <g id="patch_33">
    <path clip-path="url(#p49a0877d2c)" d="M 64.528154 90.385817 
L 127.697966 90.385817 
L 127.697966 82.02274 
L 64.528154 82.02274 
z
" style="fill:#ff0000;stroke:#000000;stroke-linejoin:miter;"/>
   </g>
   <g id="patch_34">
    <path clip-path="url(#p49a0877d2c)" d="M 127.697966 90.385817 
L 198.764004 90.385817 
L 198.764004 82.02274 
L 127.697966 82.02274 
z
" style="fill:#00ff00;stroke:#000000;stroke-linejoin:miter;"/>
   </g>
   <g id="patch_35">
    <path clip-path="url(#p49a0877d2c)" d="M 198.764004 90.385817 
L 246.141362 90.385817 
L 246.141362 82.02274 
L 198.764004 82.02274 
z
" style="fill:#ff1ab9;stroke:#000000;stroke-linejoin:miter;"/>
   </g>
   <g id="patch_36">
    <path clip-path="url(#p49a0877d2c)" d="M 246.141362 90.385817 
L 293.518721 90.385817 
L 293.518721 82.02274 
L 246.141362 82.02274 
z
" style="fill:#ffd300;stroke:#000000;stroke-linejoin:miter;"/>
   </g>
   <g id="patch_37">
    <path clip-path="url(#p49a0877d2c)" d="M 293.518721 90.385817 
L 340.896079 90.385817 
L 340.896079 82.02274 
L 293.518721 82.02274 
z
" style="fill:#005800;stroke:#000000;stroke-linejoin:miter;"/>
   </g>
   <g id="patch_38">
    <path clip-path="url(#p49a0877d2c)" d="M 340.896079 90.385817 
L 380.377211 90.385817 
L 380.377211 82.02274 
L 340.896079 82.02274 
z
" style="fill:#8484ff;stroke:#000000;stroke-linejoin:miter;"/>
   </g>
   <g id="matplotlib.axis_7"/>
   <g id="matplotlib.axis_8">
    <g id="ytick_7"/>
    <g id="ytick_8"/>
    <g id="text_5">
     <text style="font-family:DejaVu Sans;font-size:10px;font-style:normal;font-weight:normal;" transform="translate(49.473438 70.417856)"/>
     <text style="font-family:DejaVu Sans;font-size:10px;font-style:normal;font-weight:normal;" transform="translate(38.34375 81.615668)">10   </text>
    </g>
   </g>
   <g id="patch_39">
    <path d="M 53.473438 92.058433 
L 53.473438 75.332279 
" style="fill:none;stroke:#000000;stroke-linecap:square;stroke-linejoin:miter;stroke-width:0.8;"/>
   </g>
   <g id="patch_40">
    <path d="M 388.273438 92.058433 
L 388.273438 75.332279 
" style="fill:none;stroke:#000000;stroke-linecap:square;stroke-linejoin:miter;stroke-width:0.8;"/>
   </g>
   <g id="patch_41">
    <path d="M 53.473438 92.058433 
L 388.273438 92.058433 
" style="fill:none;stroke:#000000;stroke-linecap:square;stroke-linejoin:miter;stroke-width:0.8;"/>
   </g>
   <g id="patch_42">
    <path d="M 53.473438 75.332279 
L 388.273438 75.332279 
" style="fill:none;stroke:#000000;stroke-linecap:square;stroke-linejoin:miter;stroke-width:0.8;"/>
   </g>
  </g>
  <g id="axes_5">
   <g id="patch_43">
    <path d="M 53.473438 112.129817 
L 388.273438 112.129817 
L 388.273438 95.403663 
L 53.473438 95.403663 
z
" style="fill:none;"/>
   </g>
   <g id="patch_44">
    <path clip-path="url(#p3bebec26b1)" d="M 72.424381 110.457202 
L 143.490419 110.457202 
L 143.490419 102.094125 
L 72.424381 102.094125 
z
" style="fill:#ff0000;stroke:#000000;stroke-linejoin:miter;"/>
   </g>
   <g id="patch_45">
    <path clip-path="url(#p3bebec26b1)" d="M 143.490419 110.457202 
L 175.075324 110.457202 
L 175.075324 102.094125 
L 143.490419 102.094125 
z
" style="fill:#00ff00;stroke:#000000;stroke-linejoin:miter;"/>
   </g>
   <g id="patch_46">
    <path clip-path="url(#p3bebec26b1)" d="M 175.075324 110.457202 
L 246.141362 110.457202 
L 246.141362 102.094125 
L 175.075324 102.094125 
z
" style="fill:#ff1ab9;stroke:#000000;stroke-linejoin:miter;"/>
   </g>
   <g id="patch_47">
    <path clip-path="url(#p3bebec26b1)" d="M 246.141362 110.457202 
L 332.999853 110.457202 
L 332.999853 102.094125 
L 246.141362 102.094125 
z
" style="fill:#ffd300;stroke:#000000;stroke-linejoin:miter;"/>
   </g>
   <g id="patch_48">
    <path clip-path="url(#p3bebec26b1)" d="M 332.999853 110.457202 
L 380.377211 110.457202 
L 380.377211 102.094125 
L 332.999853 102.094125 
z
" style="fill:#005800;stroke:#000000;stroke-linejoin:miter;"/>
   </g>
   <g id="matplotlib.axis_9"/>
   <g id="matplotlib.axis_10">
    <g id="ytick_9"/>
    <g id="ytick_10"/>
    <g id="text_6">
     <text style="font-family:DejaVu Sans;font-size:10px;font-style:normal;font-weight:normal;" transform="translate(49.473438 90.48924)"/>
     <text style="font-family:DejaVu Sans;font-size:10px;font-style:normal;font-weight:normal;" transform="translate(38.34375 101.687053)">13   </text>
    </g>
   </g>
   <g id="patch_49">
    <path d="M 53.473438 112.129817 
L 53.473438 95.403663 
" style="fill:none;stroke:#000000;stroke-linecap:square;stroke-linejoin:miter;stroke-width:0.8;"/>
   </g>
   <g id="patch_50">
    <path d="M 388.273438 112.129817 
L 388.273438 95.403663 
" style="fill:none;stroke:#000000;stroke-linecap:square;stroke-linejoin:miter;stroke-width:0.8;"/>
   </g>
   <g id="patch_51">
    <path d="M 53.473438 112.129817 
L 388.273438 112.129817 
" style="fill:none;stroke:#000000;stroke-linecap:square;stroke-linejoin:miter;stroke-width:0.8;"/>
   </g>
   <g id="patch_52">
    <path d="M 53.473438 95.403663 
L 388.273438 95.403663 
" style="fill:none;stroke:#000000;stroke-linecap:square;stroke-linejoin:miter;stroke-width:0.8;"/>
   </g>
  </g>
  <g id="axes_6">
   <g id="patch_53">
    <path d="M 53.473438 132.201202 
L 388.273438 132.201202 
L 388.273438 115.475048 
L 53.473438 115.475048 
z
" style="fill:none;"/>
   </g>
   <g id="patch_54">
    <path clip-path="url(#p24813f34e6)" d="M 64.528154 130.528587 
L 119.801739 130.528587 
L 119.801739 122.16551 
L 64.528154 122.16551 
z
" style="fill:#ff0000;stroke:#000000;stroke-linejoin:miter;"/>
   </g>
   <g id="patch_55">
    <path clip-path="url(#p24813f34e6)" d="M 119.801739 130.528587 
L 167.179098 130.528587 
L 167.179098 122.16551 
L 119.801739 122.16551 
z
" style="fill:#00ff00;stroke:#000000;stroke-linejoin:miter;"/>
   </g>
   <g id="patch_56">
    <path clip-path="url(#p24813f34e6)" d="M 167.179098 130.528587 
L 214.556456 130.528587 
L 214.556456 122.16551 
L 167.179098 122.16551 
z
" style="fill:#ff1ab9;stroke:#000000;stroke-linejoin:miter;"/>
   </g>
   <g id="patch_57">
    <path clip-path="url(#p24813f34e6)" d="M 214.556456 130.528587 
L 293.518721 130.528587 
L 293.518721 122.16551 
L 214.556456 122.16551 
z
" style="fill:#ffd300;stroke:#000000;stroke-linejoin:miter;"/>
   </g>
   <g id="patch_58">
    <path clip-path="url(#p24813f34e6)" d="M 293.518721 130.528587 
L 340.896079 130.528587 
L 340.896079 122.16551 
L 293.518721 122.16551 
z
" style="fill:#005800;stroke:#000000;stroke-linejoin:miter;"/>
   </g>
   <g id="patch_59">
    <path clip-path="url(#p24813f34e6)" d="M 340.896079 130.528587 
L 380.377211 130.528587 
L 380.377211 122.16551 
L 340.896079 122.16551 
z
" style="fill:#8484ff;stroke:#000000;stroke-linejoin:miter;"/>
   </g>
   <g id="matplotlib.axis_11"/>
   <g id="matplotlib.axis_12">
    <g id="ytick_11"/>
    <g id="ytick_12"/>
    <g id="text_7">
     <text style="font-family:DejaVu Sans;font-size:10px;font-style:normal;font-weight:normal;" transform="translate(49.473438 110.560625)"/>
     <text style="font-family:DejaVu Sans;font-size:10px;font-style:normal;font-weight:normal;" transform="translate(38.34375 121.758438)">14   </text>
    </g>
   </g>
   <g id="patch_60">
    <path d="M 53.473438 132.201202 
L 53.473438 115.475048 
" style="fill:none;stroke:#000000;stroke-linecap:square;stroke-linejoin:miter;stroke-width:0.8;"/>
   </g>
   <g id="patch_61">
    <path d="M 388.273438 132.201202 
L 388.273438 115.475048 
" style="fill:none;stroke:#000000;stroke-linecap:square;stroke-linejoin:miter;stroke-width:0.8;"/>
   </g>
   <g id="patch_62">
    <path d="M 53.473438 132.201202 
L 388.273438 132.201202 
" style="fill:none;stroke:#000000;stroke-linecap:square;stroke-linejoin:miter;stroke-width:0.8;"/>
   </g>
   <g id="patch_63">
    <path d="M 53.473438 115.475048 
L 388.273438 115.475048 
" style="fill:none;stroke:#000000;stroke-linecap:square;stroke-linejoin:miter;stroke-width:0.8;"/>
   </g>
  </g>
  <g id="axes_7">
   <g id="patch_64">
    <path d="M 53.473438 152.272587 
L 388.273438 152.272587 
L 388.273438 135.546433 
L 53.473438 135.546433 
z
" style="fill:none;"/>
   </g>
   <g id="patch_65">
    <path clip-path="url(#p3cd11b83c8)" d="M 64.528154 150.599971 
L 119.801739 150.599971 
L 119.801739 142.236894 
L 64.528154 142.236894 
z
" style="fill:#ff0000;stroke:#000000;stroke-linejoin:miter;"/>
   </g>
   <g id="patch_66">
    <path clip-path="url(#p3cd11b83c8)" d="M 119.801739 150.599971 
L 222.452683 150.599971 
L 222.452683 142.236894 
L 119.801739 142.236894 
z
" style="fill:#00ff00;stroke:#000000;stroke-linejoin:miter;"/>
   </g>
   <g id="patch_67">
    <path clip-path="url(#p3cd11b83c8)" d="M 222.452683 150.599971 
L 277.726268 150.599971 
L 277.726268 142.236894 
L 222.452683 142.236894 
z
" style="fill:#ff1ab9;stroke:#000000;stroke-linejoin:miter;"/>
   </g>
   <g id="patch_68">
    <path clip-path="url(#p3cd11b83c8)" d="M 277.726268 150.599971 
L 325.103626 150.599971 
L 325.103626 142.236894 
L 277.726268 142.236894 
z
" style="fill:#ffd300;stroke:#000000;stroke-linejoin:miter;"/>
   </g>
   <g id="patch_69">
    <path clip-path="url(#p3cd11b83c8)" d="M 325.103626 150.599971 
L 372.480985 150.599971 
L 372.480985 142.236894 
L 325.103626 142.236894 
z
" style="fill:#005800;stroke:#000000;stroke-linejoin:miter;"/>
   </g>
   <g id="matplotlib.axis_13"/>
   <g id="matplotlib.axis_14">
    <g id="ytick_13"/>
    <g id="ytick_14"/>
    <g id="text_8">
     <text style="font-family:DejaVu Sans;font-size:10px;font-style:normal;font-weight:normal;" transform="translate(49.473438 130.63201)"/>
     <text style="font-family:DejaVu Sans;font-size:10px;font-style:normal;font-weight:normal;" transform="translate(38.34375 141.829822)">17   </text>
    </g>
   </g>
   <g id="patch_70">
    <path d="M 53.473438 152.272587 
L 53.473438 135.546433 
" style="fill:none;stroke:#000000;stroke-linecap:square;stroke-linejoin:miter;stroke-width:0.8;"/>
   </g>
   <g id="patch_71">
    <path d="M 388.273438 152.272587 
L 388.273438 135.546433 
" style="fill:none;stroke:#000000;stroke-linecap:square;stroke-linejoin:miter;stroke-width:0.8;"/>
   </g>
   <g id="patch_72">
    <path d="M 53.473438 152.272587 
L 388.273438 152.272587 
" style="fill:none;stroke:#000000;stroke-linecap:square;stroke-linejoin:miter;stroke-width:0.8;"/>
   </g>
   <g id="patch_73">
    <path d="M 53.473438 135.546433 
L 388.273438 135.546433 
" style="fill:none;stroke:#000000;stroke-linecap:square;stroke-linejoin:miter;stroke-width:0.8;"/>
   </g>
  </g>
  <g id="axes_8">
   <g id="patch_74">
    <path d="M 53.473438 172.343971 
L 388.273438 172.343971 
L 388.273438 155.617817 
L 53.473438 155.617817 
z
" style="fill:none;"/>
   </g>
   <g id="patch_75">
    <path clip-path="url(#p5c8e3206f4)" d="M 64.528154 170.671356 
L 104.009287 170.671356 
L 104.009287 162.308279 
L 64.528154 162.308279 
z
" style="fill:#ff0000;stroke:#000000;stroke-linejoin:miter;"/>
   </g>
   <g id="patch_76">
    <path clip-path="url(#p5c8e3206f4)" d="M 104.009287 170.671356 
L 167.179098 170.671356 
L 167.179098 162.308279 
L 104.009287 162.308279 
z
" style="fill:#00ff00;stroke:#000000;stroke-linejoin:miter;"/>
   </g>
   <g id="patch_77">
    <path clip-path="url(#p5c8e3206f4)" d="M 167.179098 170.671356 
L 214.556456 170.671356 
L 214.556456 162.308279 
L 167.179098 162.308279 
z
" style="fill:#ff1ab9;stroke:#000000;stroke-linejoin:miter;"/>
   </g>
   <g id="patch_78">
    <path clip-path="url(#p5c8e3206f4)" d="M 214.556456 170.671356 
L 285.622494 170.671356 
L 285.622494 162.308279 
L 214.556456 162.308279 
z
" style="fill:#ffd300;stroke:#000000;stroke-linejoin:miter;"/>
   </g>
   <g id="patch_79">
    <path clip-path="url(#p5c8e3206f4)" d="M 285.622494 170.671356 
L 380.377211 170.671356 
L 380.377211 162.308279 
L 285.622494 162.308279 
z
" style="fill:#005800;stroke:#000000;stroke-linejoin:miter;"/>
   </g>
   <g id="matplotlib.axis_15"/>
   <g id="matplotlib.axis_16">
    <g id="ytick_15"/>
    <g id="ytick_16"/>
    <g id="text_9">
     <text style="font-family:DejaVu Sans;font-size:10px;font-style:normal;font-weight:normal;" transform="translate(49.473438 150.703394)"/>
     <text style="font-family:DejaVu Sans;font-size:10px;font-style:normal;font-weight:normal;" transform="translate(38.34375 161.901207)">18   </text>
    </g>
   </g>
   <g id="patch_80">
    <path d="M 53.473438 172.343971 
L 53.473438 155.617817 
" style="fill:none;stroke:#000000;stroke-linecap:square;stroke-linejoin:miter;stroke-width:0.8;"/>
   </g>
   <g id="patch_81">
    <path d="M 388.273438 172.343971 
L 388.273438 155.617817 
" style="fill:none;stroke:#000000;stroke-linecap:square;stroke-linejoin:miter;stroke-width:0.8;"/>
   </g>
   <g id="patch_82">
    <path d="M 53.473438 172.343971 
L 388.273438 172.343971 
" style="fill:none;stroke:#000000;stroke-linecap:square;stroke-linejoin:miter;stroke-width:0.8;"/>
   </g>
   <g id="patch_83">
    <path d="M 53.473438 155.617817 
L 388.273438 155.617817 
" style="fill:none;stroke:#000000;stroke-linecap:square;stroke-linejoin:miter;stroke-width:0.8;"/>
   </g>
  </g>
  <g id="axes_9">
   <g id="patch_84">
    <path d="M 53.473438 192.415356 
L 388.273438 192.415356 
L 388.273438 175.689202 
L 53.473438 175.689202 
z
" style="fill:none;"/>
   </g>
   <g id="patch_85">
    <path clip-path="url(#pf8f89e96d7)" d="M 64.528154 190.74274 
L 111.905513 190.74274 
L 111.905513 182.379663 
L 64.528154 182.379663 
z
" style="fill:#ff0000;stroke:#000000;stroke-linejoin:miter;"/>
   </g>
   <g id="patch_86">
    <path clip-path="url(#pf8f89e96d7)" d="M 111.905513 190.74274 
L 175.075324 190.74274 
L 175.075324 182.379663 
L 111.905513 182.379663 
z
" style="fill:#00ff00;stroke:#000000;stroke-linejoin:miter;"/>
   </g>
   <g id="patch_87">
    <path clip-path="url(#pf8f89e96d7)" d="M 175.075324 190.74274 
L 222.452683 190.74274 
L 222.452683 182.379663 
L 175.075324 182.379663 
z
" style="fill:#ff1ab9;stroke:#000000;stroke-linejoin:miter;"/>
   </g>
   <g id="patch_88">
    <path clip-path="url(#pf8f89e96d7)" d="M 222.452683 190.74274 
L 285.622494 190.74274 
L 285.622494 182.379663 
L 222.452683 182.379663 
z
" style="fill:#ffd300;stroke:#000000;stroke-linejoin:miter;"/>
   </g>
   <g id="patch_89">
    <path clip-path="url(#pf8f89e96d7)" d="M 285.622494 190.74274 
L 380.377211 190.74274 
L 380.377211 182.379663 
L 285.622494 182.379663 
z
" style="fill:#005800;stroke:#000000;stroke-linejoin:miter;"/>
   </g>
   <g id="matplotlib.axis_17"/>
   <g id="matplotlib.axis_18">
    <g id="ytick_17"/>
    <g id="ytick_18"/>
    <g id="text_10">
     <text style="font-family:DejaVu Sans;font-size:10px;font-style:normal;font-weight:normal;" transform="translate(49.473438 170.774779)"/>
     <text style="font-family:DejaVu Sans;font-size:10px;font-style:normal;font-weight:normal;" transform="translate(38.34375 181.972591)">20   </text>
    </g>
   </g>
   <g id="patch_90">
    <path d="M 53.473438 192.415356 
L 53.473438 175.689202 
" style="fill:none;stroke:#000000;stroke-linecap:square;stroke-linejoin:miter;stroke-width:0.8;"/>
   </g>
   <g id="patch_91">
    <path d="M 388.273438 192.415356 
L 388.273438 175.689202 
" style="fill:none;stroke:#000000;stroke-linecap:square;stroke-linejoin:miter;stroke-width:0.8;"/>
   </g>
   <g id="patch_92">
    <path d="M 53.473438 192.415356 
L 388.273438 192.415356 
" style="fill:none;stroke:#000000;stroke-linecap:square;stroke-linejoin:miter;stroke-width:0.8;"/>
   </g>
   <g id="patch_93">
    <path d="M 53.473438 175.689202 
L 388.273438 175.689202 
" style="fill:none;stroke:#000000;stroke-linecap:square;stroke-linejoin:miter;stroke-width:0.8;"/>
   </g>
  </g>
  <g id="axes_10">
   <g id="patch_94">
    <path d="M 53.473438 212.48674 
L 388.273438 212.48674 
L 388.273438 195.760587 
L 53.473438 195.760587 
z
" style="fill:none;"/>
   </g>
   <g id="patch_95">
    <path clip-path="url(#p95defa85a1)" d="M 64.528154 210.814125 
L 198.764004 210.814125 
L 198.764004 202.451048 
L 64.528154 202.451048 
z
" style="fill:#ff0000;stroke:#000000;stroke-linejoin:miter;"/>
   </g>
   <g id="patch_96">
    <path clip-path="url(#p95defa85a1)" d="M 198.764004 210.814125 
L 246.141362 210.814125 
L 246.141362 202.451048 
L 198.764004 202.451048 
z
" style="fill:#00ff00;stroke:#000000;stroke-linejoin:miter;"/>
   </g>
   <g id="patch_97">
    <path clip-path="url(#p95defa85a1)" d="M 246.141362 210.814125 
L 293.518721 210.814125 
L 293.518721 202.451048 
L 246.141362 202.451048 
z
" style="fill:#ff1ab9;stroke:#000000;stroke-linejoin:miter;"/>
   </g>
   <g id="patch_98">
    <path clip-path="url(#p95defa85a1)" d="M 293.518721 210.814125 
L 332.999853 210.814125 
L 332.999853 202.451048 
L 293.518721 202.451048 
z
" style="fill:#ffd300;stroke:#000000;stroke-linejoin:miter;"/>
   </g>
   <g id="patch_99">
    <path clip-path="url(#p95defa85a1)" d="M 332.999853 210.814125 
L 372.480985 210.814125 
L 372.480985 202.451048 
L 332.999853 202.451048 
z
" style="fill:#005800;stroke:#000000;stroke-linejoin:miter;"/>
   </g>
   <g id="matplotlib.axis_19"/>
   <g id="matplotlib.axis_20">
    <g id="ytick_19"/>
    <g id="ytick_20"/>
    <g id="text_11">
     <text style="font-family:DejaVu Sans;font-size:10px;font-style:normal;font-weight:normal;" transform="translate(49.473438 190.846163)"/>
     <text style="font-family:DejaVu Sans;font-size:10px;font-style:normal;font-weight:normal;" transform="translate(38.34375 202.043976)">21   </text>
    </g>
   </g>
   <g id="patch_100">
    <path d="M 53.473438 212.48674 
L 53.473438 195.760587 
" style="fill:none;stroke:#000000;stroke-linecap:square;stroke-linejoin:miter;stroke-width:0.8;"/>
   </g>
   <g id="patch_101">
    <path d="M 388.273438 212.48674 
L 388.273438 195.760587 
" style="fill:none;stroke:#000000;stroke-linecap:square;stroke-linejoin:miter;stroke-width:0.8;"/>
   </g>
   <g id="patch_102">
    <path d="M 53.473438 212.48674 
L 388.273438 212.48674 
" style="fill:none;stroke:#000000;stroke-linecap:square;stroke-linejoin:miter;stroke-width:0.8;"/>
   </g>
   <g id="patch_103">
    <path d="M 53.473438 195.760587 
L 388.273438 195.760587 
" style="fill:none;stroke:#000000;stroke-linecap:square;stroke-linejoin:miter;stroke-width:0.8;"/>
   </g>
  </g>
  <g id="axes_11">
   <g id="patch_104">
    <path d="M 53.473438 232.558125 
L 388.273438 232.558125 
L 388.273438 215.831971 
L 53.473438 215.831971 
z
" style="fill:none;"/>
   </g>
   <g id="patch_105">
    <path clip-path="url(#p4fca52a8f4)" d="M 80.320607 230.88551 
L 151.386645 230.88551 
L 151.386645 222.522433 
L 80.320607 222.522433 
z
" style="fill:#ff0000;stroke:#000000;stroke-linejoin:miter;"/>
   </g>
   <g id="patch_106">
    <path clip-path="url(#p4fca52a8f4)" d="M 151.386645 230.88551 
L 198.764004 230.88551 
L 198.764004 222.522433 
L 151.386645 222.522433 
z
" style="fill:#00ff00;stroke:#000000;stroke-linejoin:miter;"/>
   </g>
   <g id="patch_107">
    <path clip-path="url(#p4fca52a8f4)" d="M 198.764004 230.88551 
L 254.037588 230.88551 
L 254.037588 222.522433 
L 198.764004 222.522433 
z
" style="fill:#ff1ab9;stroke:#000000;stroke-linejoin:miter;"/>
   </g>
   <g id="patch_108">
    <path clip-path="url(#p4fca52a8f4)" d="M 254.037588 230.88551 
L 301.414947 230.88551 
L 301.414947 222.522433 
L 254.037588 222.522433 
z
" style="fill:#ffd300;stroke:#000000;stroke-linejoin:miter;"/>
   </g>
   <g id="patch_109">
    <path clip-path="url(#p4fca52a8f4)" d="M 301.414947 230.88551 
L 380.377211 230.88551 
L 380.377211 222.522433 
L 301.414947 222.522433 
z
" style="fill:#005800;stroke:#000000;stroke-linejoin:miter;"/>
   </g>
   <g id="matplotlib.axis_21">
    <g id="xtick_1">
     <g id="line2d_1">
      <defs>
       <path d="M 0 0 
L 0 3.5 
" id="md3b43463d0" style="stroke:#000000;stroke-width:0.8;"/>
      </defs>
      <g>
       <use style="stroke:#000000;stroke-width:0.8;" x="56.631928" xlink:href="#md3b43463d0" y="232.558125"/>
      </g>
     </g>
     <g id="text_12">
      <text style="font-family:DejaVu Sans;font-size:10px;font-style:normal;font-weight:normal;text-anchor:middle;" transform="rotate(-0, 56.631928, 247.156562)" x="56.631928" y="247.156562">0</text>
     </g>
    </g>
    <g id="xtick_2">
     <g id="line2d_2">
      <g>
       <use style="stroke:#000000;stroke-width:0.8;" x="119.801739" xlink:href="#md3b43463d0" y="232.558125"/>
      </g>
     </g>
     <g id="text_13">
      <text style="font-family:DejaVu Sans;font-size:10px;font-style:normal;font-weight:normal;text-anchor:middle;" transform="rotate(-0, 119.801739, 247.156562)" x="119.801739" y="247.156562">20</text>
     </g>
    </g>
    <g id="xtick_3">
     <g id="line2d_3">
      <g>
       <use style="stroke:#000000;stroke-width:0.8;" x="182.971551" xlink:href="#md3b43463d0" y="232.558125"/>
      </g>
     </g>
     <g id="text_14">
      <text style="font-family:DejaVu Sans;font-size:10px;font-style:normal;font-weight:normal;text-anchor:middle;" transform="rotate(-0, 182.971551, 247.156562)" x="182.971551" y="247.156562">40</text>
     </g>
    </g>
    <g id="xtick_4">
     <g id="line2d_4">
      <g>
       <use style="stroke:#000000;stroke-width:0.8;" x="246.141362" xlink:href="#md3b43463d0" y="232.558125"/>
      </g>
     </g>
     <g id="text_15">
      <text style="font-family:DejaVu Sans;font-size:10px;font-style:normal;font-weight:normal;text-anchor:middle;" transform="rotate(-0, 246.141362, 247.156562)" x="246.141362" y="247.156562">60</text>
     </g>
    </g>
    <g id="xtick_5">
     <g id="line2d_5">
      <g>
       <use style="stroke:#000000;stroke-width:0.8;" x="309.311173" xlink:href="#md3b43463d0" y="232.558125"/>
      </g>
     </g>
     <g id="text_16">
      <text style="font-family:DejaVu Sans;font-size:10px;font-style:normal;font-weight:normal;text-anchor:middle;" transform="rotate(-0, 309.311173, 247.156562)" x="309.311173" y="247.156562">80</text>
     </g>
    </g>
    <g id="xtick_6">
     <g id="line2d_6">
      <g>
       <use style="stroke:#000000;stroke-width:0.8;" x="372.480985" xlink:href="#md3b43463d0" y="232.558125"/>
      </g>
     </g>
     <g id="text_17">
      <text style="font-family:DejaVu Sans;font-size:10px;font-style:normal;font-weight:normal;text-anchor:middle;" transform="rotate(-0, 372.480985, 247.156562)" x="372.480985" y="247.156562">100</text>
     </g>
    </g>
    <g id="text_18">
     <text style="font-family:DejaVu Sans;font-size:10px;font-style:normal;font-weight:normal;text-anchor:middle;" transform="rotate(-0, 220.873438, 260.834687)" x="220.873438" y="260.834687">Genomic Position [Mb]</text>
    </g>
   </g>
   <g id="matplotlib.axis_22">
    <g id="ytick_21"/>
    <g id="ytick_22"/>
    <g id="text_19">
     <text style="font-family:DejaVu Sans;font-size:10px;font-style:normal;font-weight:normal;" transform="translate(49.473438 210.917548)"/>
     <text style="font-family:DejaVu Sans;font-size:10px;font-style:normal;font-weight:normal;" transform="translate(38.34375 222.115361)">24   </text>
    </g>
   </g>
   <g id="patch_110">
    <path d="M 53.473438 232.558125 
L 53.473438 215.831971 
" style="fill:none;stroke:#000000;stroke-linecap:square;stroke-linejoin:miter;stroke-width:0.8;"/>
   </g>
   <g id="patch_111">
    <path d="M 388.273438 232.558125 
L 388.273438 215.831971 
" style="fill:none;stroke:#000000;stroke-linecap:square;stroke-linejoin:miter;stroke-width:0.8;"/>
   </g>
   <g id="patch_112">
    <path d="M 53.473438 232.558125 
L 388.273438 232.558125 
" style="fill:none;stroke:#000000;stroke-linecap:square;stroke-linejoin:miter;stroke-width:0.8;"/>
   </g>
   <g id="patch_113">
    <path d="M 53.473438 215.831971 
L 388.273438 215.831971 
" style="fill:none;stroke:#000000;stroke-linecap:square;stroke-linejoin:miter;stroke-width:0.8;"/>
   </g>
  </g>
 </g>
 <defs>
  <clipPath id="pa01ab9b25b">
   <rect height="16.726154" width="334.8" x="53.473438" y="15.118125"/>
  </clipPath>
  <clipPath id="pe570a1b3e4">
   <rect height="16.726154" width="334.8" x="53.473438" y="35.18951"/>
  </clipPath>
  <clipPath id="p9f9079f3be">
   <rect height="16.726154" width="334.8" x="53.473438" y="55.260894"/>
  </clipPath>
  <clipPath id="p49a0877d2c">
   <rect height="16.726154" width="334.8" x="53.473438" y="75.332279"/>
  </clipPath>
  <clipPath id="p3bebec26b1">
   <rect height="16.726154" width="334.8" x="53.473438" y="95.403663"/>
  </clipPath>
  <clipPath id="p24813f34e6">
   <rect height="16.726154" width="334.8" x="53.473438" y="115.475048"/>
  </clipPath>
  <clipPath id="p3cd11b83c8">
   <rect height="16.726154" width="334.8" x="53.473438" y="135.546433"/>
  </clipPath>
  <clipPath id="p5c8e3206f4">
   <rect height="16.726154" width="334.8" x="53.473438" y="155.617817"/>
  </clipPath>
  <clipPath id="pf8f89e96d7">
   <rect height="16.726154" width="334.8" x="53.473438" y="175.689202"/>
  </clipPath>
  <clipPath id="p95defa85a1">
   <rect height="16.726154" width="334.8" x="53.473438" y="195.760587"/>
  </clipPath>
  <clipPath id="p4fca52a8f4">
   <rect height="16.726154" width="334.8" x="53.473438" y="215.831971"/>
  </clipPath>
 </defs>
</svg>
