<?xml version="1.0" encoding="utf-8" standalone="no"?>
<!DOCTYPE svg PUBLIC "-//W3C//DTD SVG 1.1//EN"
  "http://www.w3.org/Graphics/SVG/1.1/DTD/svg11.dtd">
<!-- Created with matplotlib (https://matplotlib.org/) -->
<svg height="262.914375pt" version="1.1" viewBox="0 0 388.273438 262.914375" width="388.273438pt" xmlns="http://www.w3.org/2000/svg" xmlns:xlink="http://www.w3.org/1999/xlink">
 <defs>
  <style type="text/css">
*{stroke-linecap:butt;stroke-linejoin:round;}
  </style>
 </defs>
 <g id="figure_1">
  <g id="patch_1">
   <path d="M 0 262.914375 
L 388.273438 262.914375 
L 388.273438 0 
L 0 0 
z
" style="fill:none;"/>
  </g>
  <g id="axes_1">
   <g id="patch_2">
    <path d="M 53.473438 33.545244 
L 388.273438 33.545244 
L 388.273438 15.118125 
L 53.473438 15.118125 
z
" style="fill:none;"/>
   </g>
   <g id="patch_3">
    <path clip-path="url(#p675258b7d3)" d="M 60.866497 31.702532 
L 113.674068 31.702532 
L 113.674068 22.488972 
L 60.866497 22.488972 
z
" style="fill:#ff0000;stroke:#000000;stroke-linejoin:miter;"/>
   </g>
   <g id="patch_4">
    <path clip-path="url(#p675258b7d3)" d="M 113.674068 31.702532 
L 140.077854 31.702532 
L 140.077854 22.488972 
L 113.674068 22.488972 
z
" style="fill:#00ff00;stroke:#000000;stroke-linejoin:miter;"/>
   </g>
   <g id="patch_5">
    <path clip-path="url(#p675258b7d3)" d="M 140.077854 31.702532 
L 182.323911 31.702532 
L 182.323911 22.488972 
L 140.077854 22.488972 
z
" style="fill:#ff1ab9;stroke:#000000;stroke-linejoin:miter;"/>
   </g>
   <g id="patch_6">
    <path clip-path="url(#p675258b7d3)" d="M 182.323911 31.702532 
L 229.850725 31.702532 
L 229.850725 22.488972 
L 182.323911 22.488972 
z
" style="fill:#ffd300;stroke:#000000;stroke-linejoin:miter;"/>
   </g>
   <g id="patch_7">
    <path clip-path="url(#p675258b7d3)" d="M 229.850725 31.702532 
L 277.377538 31.702532 
L 277.377538 22.488972 
L 229.850725 22.488972 
z
" style="fill:#005800;stroke:#000000;stroke-linejoin:miter;"/>
   </g>
   <g id="patch_8">
    <path clip-path="url(#p675258b7d3)" d="M 277.377538 31.702532 
L 314.342838 31.702532 
L 314.342838 22.488972 
L 277.377538 22.488972 
z
" style="fill:#8484ff;stroke:#000000;stroke-linejoin:miter;"/>
   </g>
   <g id="patch_9">
    <path clip-path="url(#p675258b7d3)" d="M 314.342838 31.702532 
L 361.869652 31.702532 
L 361.869652 22.488972 
L 314.342838 22.488972 
z
" style="fill:#9e4f46;stroke:#000000;stroke-linejoin:miter;"/>
   </g>
   <g id="patch_10">
    <path clip-path="url(#p675258b7d3)" d="M 361.869652 31.702532 
L 382.99268 31.702532 
L 382.99268 22.488972 
L 361.869652 22.488972 
z
" style="fill:#00ffc1;stroke:#000000;stroke-linejoin:miter;"/>
   </g>
   <g id="matplotlib.axis_1"/>
   <g id="matplotlib.axis_2">
    <g id="ytick_1"/>
    <g id="ytick_2"/>
    <g id="text_1">
     <text style="font-family:DejaVu Sans;font-size:10px;font-style:normal;font-weight:normal;text-anchor:middle;" transform="rotate(-0, 49.473438, 22.251997)" x="49.473438" y="22.251997">Embryo 1                </text>
    </g>
   </g>
   <g id="patch_11">
    <path d="M 53.473438 33.545244 
L 53.473438 15.118125 
" style="fill:none;stroke:#000000;stroke-linecap:square;stroke-linejoin:miter;stroke-width:0.8;"/>
   </g>
   <g id="patch_12">
    <path d="M 388.273438 33.545244 
L 388.273438 15.118125 
" style="fill:none;stroke:#000000;stroke-linecap:square;stroke-linejoin:miter;stroke-width:0.8;"/>
   </g>
   <g id="patch_13">
    <path d="M 53.473438 33.545244 
L 388.273438 33.545244 
" style="fill:none;stroke:#000000;stroke-linecap:square;stroke-linejoin:miter;stroke-width:0.8;"/>
   </g>
   <g id="patch_14">
    <path d="M 53.473438 15.118125 
L 388.273438 15.118125 
" style="fill:none;stroke:#000000;stroke-linecap:square;stroke-linejoin:miter;stroke-width:0.8;"/>
   </g>
   <g id="text_2">
    <text style="font-family:DejaVu Sans;font-size:12px;font-style:normal;font-weight:normal;text-anchor:middle;" transform="rotate(-0, 220.873438, 9.118125)" x="220.873438" y="9.118125">Chr 4</text>
   </g>
  </g>
  <g id="axes_2">
   <g id="patch_15">
    <path d="M 53.473438 55.657786 
L 388.273438 55.657786 
L 388.273438 37.230667 
L 53.473438 37.230667 
z
" style="fill:none;"/>
   </g>
   <g id="patch_16">
    <path clip-path="url(#p91ffcb5391)" d="M 60.866497 53.815074 
L 124.235583 53.815074 
L 124.235583 44.601515 
L 60.866497 44.601515 
z
" style="fill:#ff0000;stroke:#000000;stroke-linejoin:miter;"/>
   </g>
   <g id="patch_17">
    <path clip-path="url(#p91ffcb5391)" d="M 124.235583 53.815074 
L 182.323911 53.815074 
L 182.323911 44.601515 
L 124.235583 44.601515 
z
" style="fill:#00ff00;stroke:#000000;stroke-linejoin:miter;"/>
   </g>
   <g id="patch_18">
    <path clip-path="url(#p91ffcb5391)" d="M 182.323911 53.815074 
L 245.692996 53.815074 
L 245.692996 44.601515 
L 182.323911 44.601515 
z
" style="fill:#ff1ab9;stroke:#000000;stroke-linejoin:miter;"/>
   </g>
   <g id="patch_19">
    <path clip-path="url(#p91ffcb5391)" d="M 245.692996 53.815074 
L 277.377538 53.815074 
L 277.377538 44.601515 
L 245.692996 44.601515 
z
" style="fill:#ffd300;stroke:#000000;stroke-linejoin:miter;"/>
   </g>
   <g id="patch_20">
    <path clip-path="url(#p91ffcb5391)" d="M 277.377538 53.815074 
L 330.185109 53.815074 
L 330.185109 44.601515 
L 277.377538 44.601515 
z
" style="fill:#005800;stroke:#000000;stroke-linejoin:miter;"/>
   </g>
   <g id="patch_21">
    <path clip-path="url(#p91ffcb5391)" d="M 330.185109 53.815074 
L 382.99268 53.815074 
L 382.99268 44.601515 
L 330.185109 44.601515 
z
" style="fill:#8484ff;stroke:#000000;stroke-linejoin:miter;"/>
   </g>
   <g id="matplotlib.axis_3"/>
   <g id="matplotlib.axis_4">
    <g id="ytick_3"/>
    <g id="ytick_4"/>
    <g id="text_3">
     <text style="font-family:DejaVu Sans;font-size:10px;font-style:normal;font-weight:normal;" transform="translate(49.473438 33.166727)"/>
     <text style="font-family:DejaVu Sans;font-size:10px;font-style:normal;font-weight:normal;" transform="translate(41.525 44.364539)">7   </text>
    </g>
   </g>
   <g id="patch_22">
    <path d="M 53.473438 55.657786 
L 53.473438 37.230667 
" style="fill:none;stroke:#000000;stroke-linecap:square;stroke-linejoin:miter;stroke-width:0.8;"/>
   </g>
   <g id="patch_23">
    <path d="M 388.273438 55.657786 
L 388.273438 37.230667 
" style="fill:none;stroke:#000000;stroke-linecap:square;stroke-linejoin:miter;stroke-width:0.8;"/>
   </g>
   <g id="patch_24">
    <path d="M 53.473438 55.657786 
L 388.273438 55.657786 
" style="fill:none;stroke:#000000;stroke-linecap:square;stroke-linejoin:miter;stroke-width:0.8;"/>
   </g>
   <g id="patch_25">
    <path d="M 53.473438 37.230667 
L 388.273438 37.230667 
" style="fill:none;stroke:#000000;stroke-linecap:square;stroke-linejoin:miter;stroke-width:0.8;"/>
   </g>
  </g>
  <g id="axes_3">
   <g id="patch_26">
    <path d="M 53.473438 77.770328 
L 388.273438 77.770328 
L 388.273438 59.34321 
L 53.473438 59.34321 
z
" style="fill:none;"/>
   </g>
   <g id="patch_27">
    <path clip-path="url(#p106d74da1d)" d="M 60.866497 75.927617 
L 124.235583 75.927617 
L 124.235583 66.714057 
L 60.866497 66.714057 
z
" style="fill:#ff0000;stroke:#000000;stroke-linejoin:miter;"/>
   </g>
   <g id="patch_28">
    <path clip-path="url(#p106d74da1d)" d="M 124.235583 75.927617 
L 203.446939 75.927617 
L 203.446939 66.714057 
L 124.235583 66.714057 
z
" style="fill:#00ff00;stroke:#000000;stroke-linejoin:miter;"/>
   </g>
   <g id="patch_29">
    <path clip-path="url(#p106d74da1d)" d="M 203.446939 75.927617 
L 245.692996 75.927617 
L 245.692996 66.714057 
L 203.446939 66.714057 
z
" style="fill:#ff1ab9;stroke:#000000;stroke-linejoin:miter;"/>
   </g>
   <g id="patch_30">
    <path clip-path="url(#p106d74da1d)" d="M 245.692996 75.927617 
L 282.658296 75.927617 
L 282.658296 66.714057 
L 245.692996 66.714057 
z
" style="fill:#ffd300;stroke:#000000;stroke-linejoin:miter;"/>
   </g>
   <g id="patch_31">
    <path clip-path="url(#p106d74da1d)" d="M 282.658296 75.927617 
L 324.904352 75.927617 
L 324.904352 66.714057 
L 282.658296 66.714057 
z
" style="fill:#005800;stroke:#000000;stroke-linejoin:miter;"/>
   </g>
   <g id="patch_32">
    <path clip-path="url(#p106d74da1d)" d="M 324.904352 75.927617 
L 382.99268 75.927617 
L 382.99268 66.714057 
L 324.904352 66.714057 
z
" style="fill:#8484ff;stroke:#000000;stroke-linejoin:miter;"/>
   </g>
   <g id="matplotlib.axis_5"/>
   <g id="matplotlib.axis_6">
    <g id="ytick_5"/>
    <g id="ytick_6"/>
    <g id="text_4">
     <text style="font-family:DejaVu Sans;font-size:10px;font-style:normal;font-weight:normal;" transform="translate(49.473438 55.279269)"/>
     <text style="font-family:DejaVu Sans;font-size:10px;font-style:normal;font-weight:normal;" transform="translate(41.525 66.477082)">8   </text>
    </g>
   </g>
   <g id="patch_33">
    <path d="M 53.473438 77.770328 
L 53.473438 59.34321 
" style="fill:none;stroke:#000000;stroke-linecap:square;stroke-linejoin:miter;stroke-width:0.8;"/>
   </g>
   <g id="patch_34">
    <path d="M 388.273438 77.770328 
L 388.273438 59.34321 
" style="fill:none;stroke:#000000;stroke-linecap:square;stroke-linejoin:miter;stroke-width:0.8;"/>
   </g>
   <g id="patch_35">
    <path d="M 53.473438 77.770328 
L 388.273438 77.770328 
" style="fill:none;stroke:#000000;stroke-linecap:square;stroke-linejoin:miter;stroke-width:0.8;"/>
   </g>
   <g id="patch_36">
    <path d="M 53.473438 59.34321 
L 388.273438 59.34321 
" style="fill:none;stroke:#000000;stroke-linecap:square;stroke-linejoin:miter;stroke-width:0.8;"/>
   </g>
  </g>
  <g id="axes_4">
   <g id="patch_37">
    <path d="M 53.473438 99.882871 
L 388.273438 99.882871 
L 388.273438 81.455752 
L 53.473438 81.455752 
z
" style="fill:none;"/>
   </g>
   <g id="patch_38">
    <path clip-path="url(#p0421e9c138)" d="M 60.866497 98.040159 
L 113.674068 98.040159 
L 113.674068 88.8266 
L 60.866497 88.8266 
z
" style="fill:#ff0000;stroke:#000000;stroke-linejoin:miter;"/>
   </g>
   <g id="patch_39">
    <path clip-path="url(#p0421e9c138)" d="M 113.674068 98.040159 
L 177.043154 98.040159 
L 177.043154 88.8266 
L 113.674068 88.8266 
z
" style="fill:#00ff00;stroke:#000000;stroke-linejoin:miter;"/>
   </g>
   <g id="patch_40">
    <path clip-path="url(#p0421e9c138)" d="M 177.043154 98.040159 
L 214.008453 98.040159 
L 214.008453 88.8266 
L 177.043154 88.8266 
z
" style="fill:#ff1ab9;stroke:#000000;stroke-linejoin:miter;"/>
   </g>
   <g id="patch_41">
    <path clip-path="url(#p0421e9c138)" d="M 214.008453 98.040159 
L 293.21981 98.040159 
L 293.21981 88.8266 
L 214.008453 88.8266 
z
" style="fill:#ffd300;stroke:#000000;stroke-linejoin:miter;"/>
   </g>
   <g id="patch_42">
    <path clip-path="url(#p0421e9c138)" d="M 293.21981 98.040159 
L 324.904352 98.040159 
L 324.904352 88.8266 
L 293.21981 88.8266 
z
" style="fill:#005800;stroke:#000000;stroke-linejoin:miter;"/>
   </g>
   <g id="patch_43">
    <path clip-path="url(#p0421e9c138)" d="M 324.904352 98.040159 
L 382.99268 98.040159 
L 382.99268 88.8266 
L 324.904352 88.8266 
z
" style="fill:#8484ff;stroke:#000000;stroke-linejoin:miter;"/>
   </g>
   <g id="matplotlib.axis_7"/>
   <g id="matplotlib.axis_8">
    <g id="ytick_7"/>
    <g id="ytick_8"/>
    <g id="text_5">
     <text style="font-family:DejaVu Sans;font-size:10px;font-style:normal;font-weight:normal;" transform="translate(49.473438 77.391811)"/>
     <text style="font-family:DejaVu Sans;font-size:10px;font-style:normal;font-weight:normal;" transform="translate(38.34375 88.589624)">10   </text>
    </g>
   </g>
   <g id="patch_44">
    <path d="M 53.473438 99.882871 
L 53.473438 81.455752 
" style="fill:none;stroke:#000000;stroke-linecap:square;stroke-linejoin:miter;stroke-width:0.8;"/>
   </g>
   <g id="patch_45">
    <path d="M 388.273438 99.882871 
L 388.273438 81.455752 
" style="fill:none;stroke:#000000;stroke-linecap:square;stroke-linejoin:miter;stroke-width:0.8;"/>
   </g>
   <g id="patch_46">
    <path d="M 53.473438 99.882871 
L 388.273438 99.882871 
" style="fill:none;stroke:#000000;stroke-linecap:square;stroke-linejoin:miter;stroke-width:0.8;"/>
   </g>
   <g id="patch_47">
    <path d="M 53.473438 81.455752 
L 388.273438 81.455752 
" style="fill:none;stroke:#000000;stroke-linecap:square;stroke-linejoin:miter;stroke-width:0.8;"/>
   </g>
  </g>
  <g id="axes_5">
   <g id="patch_48">
    <path d="M 53.473438 121.995413 
L 388.273438 121.995413 
L 388.273438 103.568294 
L 53.473438 103.568294 
z
" style="fill:none;"/>
   </g>
   <g id="patch_49">
    <path clip-path="url(#pd63229ead5)" d="M 60.866497 120.152701 
L 129.51634 120.152701 
L 129.51634 110.939142 
L 60.866497 110.939142 
z
" style="fill:#ff0000;stroke:#000000;stroke-linejoin:miter;"/>
   </g>
   <g id="patch_50">
    <path clip-path="url(#pd63229ead5)" d="M 129.51634 120.152701 
L 161.200882 120.152701 
L 161.200882 110.939142 
L 129.51634 110.939142 
z
" style="fill:#00ff00;stroke:#000000;stroke-linejoin:miter;"/>
   </g>
   <g id="patch_51">
    <path clip-path="url(#pd63229ead5)" d="M 161.200882 120.152701 
L 208.727696 120.152701 
L 208.727696 110.939142 
L 161.200882 110.939142 
z
" style="fill:#ff1ab9;stroke:#000000;stroke-linejoin:miter;"/>
   </g>
   <g id="patch_52">
    <path clip-path="url(#pd63229ead5)" d="M 208.727696 120.152701 
L 240.412239 120.152701 
L 240.412239 110.939142 
L 208.727696 110.939142 
z
" style="fill:#ffd300;stroke:#000000;stroke-linejoin:miter;"/>
   </g>
   <g id="patch_53">
    <path clip-path="url(#pd63229ead5)" d="M 240.412239 120.152701 
L 335.465867 120.152701 
L 335.465867 110.939142 
L 240.412239 110.939142 
z
" style="fill:#005800;stroke:#000000;stroke-linejoin:miter;"/>
   </g>
   <g id="patch_54">
    <path clip-path="url(#pd63229ead5)" d="M 335.465867 120.152701 
L 382.99268 120.152701 
L 382.99268 110.939142 
L 335.465867 110.939142 
z
" style="fill:#8484ff;stroke:#000000;stroke-linejoin:miter;"/>
   </g>
   <g id="matplotlib.axis_9"/>
   <g id="matplotlib.axis_10">
    <g id="ytick_9"/>
    <g id="ytick_10"/>
    <g id="text_6">
     <text style="font-family:DejaVu Sans;font-size:10px;font-style:normal;font-weight:normal;" transform="translate(49.473438 99.504354)"/>
     <text style="font-family:DejaVu Sans;font-size:10px;font-style:normal;font-weight:normal;" transform="translate(38.34375 110.702166)">13   </text>
    </g>
   </g>
   <g id="patch_55">
    <path d="M 53.473438 121.995413 
L 53.473438 103.568294 
" style="fill:none;stroke:#000000;stroke-linecap:square;stroke-linejoin:miter;stroke-width:0.8;"/>
   </g>
   <g id="patch_56">
    <path d="M 388.273438 121.995413 
L 388.273438 103.568294 
" style="fill:none;stroke:#000000;stroke-linecap:square;stroke-linejoin:miter;stroke-width:0.8;"/>
   </g>
   <g id="patch_57">
    <path d="M 53.473438 121.995413 
L 388.273438 121.995413 
" style="fill:none;stroke:#000000;stroke-linecap:square;stroke-linejoin:miter;stroke-width:0.8;"/>
   </g>
   <g id="patch_58">
    <path d="M 53.473438 103.568294 
L 388.273438 103.568294 
" style="fill:none;stroke:#000000;stroke-linecap:square;stroke-linejoin:miter;stroke-width:0.8;"/>
   </g>
  </g>
  <g id="axes_6">
   <g id="patch_59">
    <path d="M 53.473438 144.107956 
L 388.273438 144.107956 
L 388.273438 125.680837 
L 53.473438 125.680837 
z
" style="fill:none;"/>
   </g>
   <g id="patch_60">
    <path clip-path="url(#pd6ded2d044)" d="M 60.866497 142.265244 
L 92.55104 142.265244 
L 92.55104 133.051684 
L 60.866497 133.051684 
z
" style="fill:#ff0000;stroke:#000000;stroke-linejoin:miter;"/>
   </g>
   <g id="patch_61">
    <path clip-path="url(#pd6ded2d044)" d="M 92.55104 142.265244 
L 118.954826 142.265244 
L 118.954826 133.051684 
L 92.55104 133.051684 
z
" style="fill:#00ff00;stroke:#000000;stroke-linejoin:miter;"/>
   </g>
   <g id="patch_62">
    <path clip-path="url(#pd6ded2d044)" d="M 118.954826 142.265244 
L 150.639368 142.265244 
L 150.639368 133.051684 
L 118.954826 133.051684 
z
" style="fill:#ff1ab9;stroke:#000000;stroke-linejoin:miter;"/>
   </g>
   <g id="patch_63">
    <path clip-path="url(#pd6ded2d044)" d="M 150.639368 142.265244 
L 177.043154 142.265244 
L 177.043154 133.051684 
L 150.639368 133.051684 
z
" style="fill:#ffd300;stroke:#000000;stroke-linejoin:miter;"/>
   </g>
   <g id="patch_64">
    <path clip-path="url(#pd6ded2d044)" d="M 177.043154 142.265244 
L 219.28921 142.265244 
L 219.28921 133.051684 
L 177.043154 133.051684 
z
" style="fill:#005800;stroke:#000000;stroke-linejoin:miter;"/>
   </g>
   <g id="patch_65">
    <path clip-path="url(#pd6ded2d044)" d="M 219.28921 142.265244 
L 272.096781 142.265244 
L 272.096781 133.051684 
L 219.28921 133.051684 
z
" style="fill:#8484ff;stroke:#000000;stroke-linejoin:miter;"/>
   </g>
   <g id="patch_66">
    <path clip-path="url(#pd6ded2d044)" d="M 272.096781 142.265244 
L 324.904352 142.265244 
L 324.904352 133.051684 
L 272.096781 133.051684 
z
" style="fill:#9e4f46;stroke:#000000;stroke-linejoin:miter;"/>
   </g>
   <g id="patch_67">
    <path clip-path="url(#pd6ded2d044)" d="M 324.904352 142.265244 
L 382.99268 142.265244 
L 382.99268 133.051684 
L 324.904352 133.051684 
z
" style="fill:#00ffc1;stroke:#000000;stroke-linejoin:miter;"/>
   </g>
   <g id="matplotlib.axis_11"/>
   <g id="matplotlib.axis_12">
    <g id="ytick_11"/>
    <g id="ytick_12"/>
    <g id="text_7">
     <text style="font-family:DejaVu Sans;font-size:10px;font-style:normal;font-weight:normal;" transform="translate(49.473438 121.616896)"/>
     <text style="font-family:DejaVu Sans;font-size:10px;font-style:normal;font-weight:normal;" transform="translate(38.34375 132.814709)">14   </text>
    </g>
   </g>
   <g id="patch_68">
    <path d="M 53.473438 144.107956 
L 53.473438 125.680837 
" style="fill:none;stroke:#000000;stroke-linecap:square;stroke-linejoin:miter;stroke-width:0.8;"/>
   </g>
   <g id="patch_69">
    <path d="M 388.273438 144.107956 
L 388.273438 125.680837 
" style="fill:none;stroke:#000000;stroke-linecap:square;stroke-linejoin:miter;stroke-width:0.8;"/>
   </g>
   <g id="patch_70">
    <path d="M 53.473438 144.107956 
L 388.273438 144.107956 
" style="fill:none;stroke:#000000;stroke-linecap:square;stroke-linejoin:miter;stroke-width:0.8;"/>
   </g>
   <g id="patch_71">
    <path d="M 53.473438 125.680837 
L 388.273438 125.680837 
" style="fill:none;stroke:#000000;stroke-linecap:square;stroke-linejoin:miter;stroke-width:0.8;"/>
   </g>
  </g>
  <g id="axes_7">
   <g id="patch_72">
    <path d="M 53.473438 166.220498 
L 388.273438 166.220498 
L 388.273438 147.793379 
L 53.473438 147.793379 
z
" style="fill:none;"/>
   </g>
   <g id="patch_73">
    <path clip-path="url(#p83bfacfd4d)" d="M 60.866497 164.377786 
L 92.55104 164.377786 
L 92.55104 155.164227 
L 60.866497 155.164227 
z
" style="fill:#ff0000;stroke:#000000;stroke-linejoin:miter;"/>
   </g>
   <g id="patch_74">
    <path clip-path="url(#p83bfacfd4d)" d="M 92.55104 164.377786 
L 145.358611 164.377786 
L 145.358611 155.164227 
L 92.55104 155.164227 
z
" style="fill:#00ff00;stroke:#000000;stroke-linejoin:miter;"/>
   </g>
   <g id="patch_75">
    <path clip-path="url(#p83bfacfd4d)" d="M 145.358611 164.377786 
L 171.762396 164.377786 
L 171.762396 155.164227 
L 145.358611 155.164227 
z
" style="fill:#ff1ab9;stroke:#000000;stroke-linejoin:miter;"/>
   </g>
   <g id="patch_76">
    <path clip-path="url(#p83bfacfd4d)" d="M 171.762396 164.377786 
L 261.535267 164.377786 
L 261.535267 155.164227 
L 171.762396 155.164227 
z
" style="fill:#ffd300;stroke:#000000;stroke-linejoin:miter;"/>
   </g>
   <g id="patch_77">
    <path clip-path="url(#p83bfacfd4d)" d="M 261.535267 164.377786 
L 324.904352 164.377786 
L 324.904352 155.164227 
L 261.535267 155.164227 
z
" style="fill:#005800;stroke:#000000;stroke-linejoin:miter;"/>
   </g>
   <g id="patch_78">
    <path clip-path="url(#p83bfacfd4d)" d="M 324.904352 164.377786 
L 377.711923 164.377786 
L 377.711923 155.164227 
L 324.904352 155.164227 
z
" style="fill:#8484ff;stroke:#000000;stroke-linejoin:miter;"/>
   </g>
   <g id="matplotlib.axis_13"/>
   <g id="matplotlib.axis_14">
    <g id="ytick_13"/>
    <g id="ytick_14"/>
    <g id="text_8">
     <text style="font-family:DejaVu Sans;font-size:10px;font-style:normal;font-weight:normal;" transform="translate(49.473438 143.729439)"/>
     <text style="font-family:DejaVu Sans;font-size:10px;font-style:normal;font-weight:normal;" transform="translate(38.34375 154.927251)">18   </text>
    </g>
   </g>
   <g id="patch_79">
    <path d="M 53.473438 166.220498 
L 53.473438 147.793379 
" style="fill:none;stroke:#000000;stroke-linecap:square;stroke-linejoin:miter;stroke-width:0.8;"/>
   </g>
   <g id="patch_80">
    <path d="M 388.273438 166.220498 
L 388.273438 147.793379 
" style="fill:none;stroke:#000000;stroke-linecap:square;stroke-linejoin:miter;stroke-width:0.8;"/>
   </g>
   <g id="patch_81">
    <path d="M 53.473438 166.220498 
L 388.273438 166.220498 
" style="fill:none;stroke:#000000;stroke-linecap:square;stroke-linejoin:miter;stroke-width:0.8;"/>
   </g>
   <g id="patch_82">
    <path d="M 53.473438 147.793379 
L 388.273438 147.793379 
" style="fill:none;stroke:#000000;stroke-linecap:square;stroke-linejoin:miter;stroke-width:0.8;"/>
   </g>
  </g>
  <g id="axes_8">
   <g id="patch_83">
    <path d="M 53.473438 188.33304 
L 388.273438 188.33304 
L 388.273438 169.905922 
L 53.473438 169.905922 
z
" style="fill:none;"/>
   </g>
   <g id="patch_84">
    <path clip-path="url(#pbddde09f45)" d="M 60.866497 186.490328 
L 108.393311 186.490328 
L 108.393311 177.276769 
L 60.866497 177.276769 
z
" style="fill:#ff0000;stroke:#000000;stroke-linejoin:miter;"/>
   </g>
   <g id="patch_85">
    <path clip-path="url(#pbddde09f45)" d="M 108.393311 186.490328 
L 140.077854 186.490328 
L 140.077854 177.276769 
L 108.393311 177.276769 
z
" style="fill:#00ff00;stroke:#000000;stroke-linejoin:miter;"/>
   </g>
   <g id="patch_86">
    <path clip-path="url(#pbddde09f45)" d="M 140.077854 186.490328 
L 171.762396 186.490328 
L 171.762396 177.276769 
L 140.077854 177.276769 
z
" style="fill:#ff1ab9;stroke:#000000;stroke-linejoin:miter;"/>
   </g>
   <g id="patch_87">
    <path clip-path="url(#pbddde09f45)" d="M 171.762396 186.490328 
L 203.446939 186.490328 
L 203.446939 177.276769 
L 171.762396 177.276769 
z
" style="fill:#ffd300;stroke:#000000;stroke-linejoin:miter;"/>
   </g>
   <g id="patch_88">
    <path clip-path="url(#pbddde09f45)" d="M 203.446939 186.490328 
L 266.816024 186.490328 
L 266.816024 177.276769 
L 203.446939 177.276769 
z
" style="fill:#005800;stroke:#000000;stroke-linejoin:miter;"/>
   </g>
   <g id="patch_89">
    <path clip-path="url(#pbddde09f45)" d="M 266.816024 186.490328 
L 314.342838 186.490328 
L 314.342838 177.276769 
L 266.816024 177.276769 
z
" style="fill:#8484ff;stroke:#000000;stroke-linejoin:miter;"/>
   </g>
   <g id="patch_90">
    <path clip-path="url(#pbddde09f45)" d="M 314.342838 186.490328 
L 382.99268 186.490328 
L 382.99268 177.276769 
L 314.342838 177.276769 
z
" style="fill:#9e4f46;stroke:#000000;stroke-linejoin:miter;"/>
   </g>
   <g id="matplotlib.axis_15"/>
   <g id="matplotlib.axis_16">
    <g id="ytick_15"/>
    <g id="ytick_16"/>
    <g id="text_9">
     <text style="font-family:DejaVu Sans;font-size:10px;font-style:normal;font-weight:normal;" transform="translate(49.473438 165.841981)"/>
     <text style="font-family:DejaVu Sans;font-size:10px;font-style:normal;font-weight:normal;" transform="translate(38.34375 177.039793)">20   </text>
    </g>
   </g>
   <g id="patch_91">
    <path d="M 53.473438 188.33304 
L 53.473438 169.905922 
" style="fill:none;stroke:#000000;stroke-linecap:square;stroke-linejoin:miter;stroke-width:0.8;"/>
   </g>
   <g id="patch_92">
    <path d="M 388.273438 188.33304 
L 388.273438 169.905922 
" style="fill:none;stroke:#000000;stroke-linecap:square;stroke-linejoin:miter;stroke-width:0.8;"/>
   </g>
   <g id="patch_93">
    <path d="M 53.473438 188.33304 
L 388.273438 188.33304 
" style="fill:none;stroke:#000000;stroke-linecap:square;stroke-linejoin:miter;stroke-width:0.8;"/>
   </g>
   <g id="patch_94">
    <path d="M 53.473438 169.905922 
L 388.273438 169.905922 
" style="fill:none;stroke:#000000;stroke-linecap:square;stroke-linejoin:miter;stroke-width:0.8;"/>
   </g>
  </g>
  <g id="axes_9">
   <g id="patch_95">
    <path d="M 53.473438 210.445583 
L 388.273438 210.445583 
L 388.273438 192.018464 
L 53.473438 192.018464 
z
" style="fill:none;"/>
   </g>
   <g id="patch_96">
    <path clip-path="url(#pfda0be1c62)" d="M 60.866497 208.602871 
L 103.112554 208.602871 
L 103.112554 199.389311 
L 60.866497 199.389311 
z
" style="fill:#ff0000;stroke:#000000;stroke-linejoin:miter;"/>
   </g>
   <g id="patch_97">
    <path clip-path="url(#pfda0be1c62)" d="M 103.112554 208.602871 
L 161.200882 208.602871 
L 161.200882 199.389311 
L 103.112554 199.389311 
z
" style="fill:#00ff00;stroke:#000000;stroke-linejoin:miter;"/>
   </g>
   <g id="patch_98">
    <path clip-path="url(#pfda0be1c62)" d="M 161.200882 208.602871 
L 219.28921 208.602871 
L 219.28921 199.389311 
L 161.200882 199.389311 
z
" style="fill:#ff1ab9;stroke:#000000;stroke-linejoin:miter;"/>
   </g>
   <g id="patch_99">
    <path clip-path="url(#pfda0be1c62)" d="M 219.28921 208.602871 
L 256.25451 208.602871 
L 256.25451 199.389311 
L 219.28921 199.389311 
z
" style="fill:#ffd300;stroke:#000000;stroke-linejoin:miter;"/>
   </g>
   <g id="patch_100">
    <path clip-path="url(#pfda0be1c62)" d="M 256.25451 208.602871 
L 319.623595 208.602871 
L 319.623595 199.389311 
L 256.25451 199.389311 
z
" style="fill:#005800;stroke:#000000;stroke-linejoin:miter;"/>
   </g>
   <g id="patch_101">
    <path clip-path="url(#pfda0be1c62)" d="M 319.623595 208.602871 
L 377.711923 208.602871 
L 377.711923 199.389311 
L 319.623595 199.389311 
z
" style="fill:#8484ff;stroke:#000000;stroke-linejoin:miter;"/>
   </g>
   <g id="matplotlib.axis_17"/>
   <g id="matplotlib.axis_18">
    <g id="ytick_17"/>
    <g id="ytick_18"/>
    <g id="text_10">
     <text style="font-family:DejaVu Sans;font-size:10px;font-style:normal;font-weight:normal;" transform="translate(49.473438 187.954523)"/>
     <text style="font-family:DejaVu Sans;font-size:10px;font-style:normal;font-weight:normal;" transform="translate(38.34375 199.152336)">21   </text>
    </g>
   </g>
   <g id="patch_102">
    <path d="M 53.473438 210.445583 
L 53.473438 192.018464 
" style="fill:none;stroke:#000000;stroke-linecap:square;stroke-linejoin:miter;stroke-width:0.8;"/>
   </g>
   <g id="patch_103">
    <path d="M 388.273438 210.445583 
L 388.273438 192.018464 
" style="fill:none;stroke:#000000;stroke-linecap:square;stroke-linejoin:miter;stroke-width:0.8;"/>
   </g>
   <g id="patch_104">
    <path d="M 53.473438 210.445583 
L 388.273438 210.445583 
" style="fill:none;stroke:#000000;stroke-linecap:square;stroke-linejoin:miter;stroke-width:0.8;"/>
   </g>
   <g id="patch_105">
    <path d="M 53.473438 192.018464 
L 388.273438 192.018464 
" style="fill:none;stroke:#000000;stroke-linecap:square;stroke-linejoin:miter;stroke-width:0.8;"/>
   </g>
  </g>
  <g id="axes_10">
   <g id="patch_106">
    <path d="M 53.473438 232.558125 
L 388.273438 232.558125 
L 388.273438 214.131006 
L 53.473438 214.131006 
z
" style="fill:none;"/>
   </g>
   <g id="patch_107">
    <path clip-path="url(#pdadb24a8ba)" d="M 60.866497 230.715413 
L 87.270283 230.715413 
L 87.270283 221.501854 
L 60.866497 221.501854 
z
" style="fill:#ff0000;stroke:#000000;stroke-linejoin:miter;"/>
   </g>
   <g id="patch_108">
    <path clip-path="url(#pdadb24a8ba)" d="M 87.270283 230.715413 
L 113.674068 230.715413 
L 113.674068 221.501854 
L 87.270283 221.501854 
z
" style="fill:#00ff00;stroke:#000000;stroke-linejoin:miter;"/>
   </g>
   <g id="patch_109">
    <path clip-path="url(#pdadb24a8ba)" d="M 113.674068 230.715413 
L 145.358611 230.715413 
L 145.358611 221.501854 
L 113.674068 221.501854 
z
" style="fill:#ff1ab9;stroke:#000000;stroke-linejoin:miter;"/>
   </g>
   <g id="patch_110">
    <path clip-path="url(#pdadb24a8ba)" d="M 145.358611 230.715413 
L 187.604668 230.715413 
L 187.604668 221.501854 
L 145.358611 221.501854 
z
" style="fill:#ffd300;stroke:#000000;stroke-linejoin:miter;"/>
   </g>
   <g id="patch_111">
    <path clip-path="url(#pdadb24a8ba)" d="M 187.604668 230.715413 
L 224.569967 230.715413 
L 224.569967 221.501854 
L 187.604668 221.501854 
z
" style="fill:#005800;stroke:#000000;stroke-linejoin:miter;"/>
   </g>
   <g id="patch_112">
    <path clip-path="url(#pdadb24a8ba)" d="M 224.569967 230.715413 
L 261.535267 230.715413 
L 261.535267 221.501854 
L 224.569967 221.501854 
z
" style="fill:#8484ff;stroke:#000000;stroke-linejoin:miter;"/>
   </g>
   <g id="patch_113">
    <path clip-path="url(#pdadb24a8ba)" d="M 261.535267 230.715413 
L 314.342838 230.715413 
L 314.342838 221.501854 
L 261.535267 221.501854 
z
" style="fill:#9e4f46;stroke:#000000;stroke-linejoin:miter;"/>
   </g>
   <g id="patch_114">
    <path clip-path="url(#pdadb24a8ba)" d="M 314.342838 230.715413 
L 382.99268 230.715413 
L 382.99268 221.501854 
L 314.342838 221.501854 
z
" style="fill:#00ffc1;stroke:#000000;stroke-linejoin:miter;"/>
   </g>
   <g id="matplotlib.axis_19">
    <g id="xtick_1">
     <g id="line2d_1">
      <defs>
       <path d="M 0 0 
L 0 3.5 
" id="m09165eaf96" style="stroke:#000000;stroke-width:0.8;"/>
      </defs>
      <g>
       <use style="stroke:#000000;stroke-width:0.8;" x="55.58574" xlink:href="#m09165eaf96" y="232.558125"/>
      </g>
     </g>
     <g id="text_11">
      <text style="font-family:DejaVu Sans;font-size:10px;font-style:normal;font-weight:normal;text-anchor:middle;" transform="rotate(-0, 55.58574, 247.156562)" x="55.58574" y="247.156562">0</text>
     </g>
    </g>
    <g id="xtick_2">
     <g id="line2d_2">
      <g>
       <use style="stroke:#000000;stroke-width:0.8;" x="97.831797" xlink:href="#m09165eaf96" y="232.558125"/>
      </g>
     </g>
     <g id="text_12">
      <text style="font-family:DejaVu Sans;font-size:10px;font-style:normal;font-weight:normal;text-anchor:middle;" transform="rotate(-0, 97.831797, 247.156562)" x="97.831797" y="247.156562">20</text>
     </g>
    </g>
    <g id="xtick_3">
     <g id="line2d_3">
      <g>
       <use style="stroke:#000000;stroke-width:0.8;" x="140.077854" xlink:href="#m09165eaf96" y="232.558125"/>
      </g>
     </g>
     <g id="text_13">
      <text style="font-family:DejaVu Sans;font-size:10px;font-style:normal;font-weight:normal;text-anchor:middle;" transform="rotate(-0, 140.077854, 247.156562)" x="140.077854" y="247.156562">40</text>
     </g>
    </g>
    <g id="xtick_4">
     <g id="line2d_4">
      <g>
       <use style="stroke:#000000;stroke-width:0.8;" x="182.323911" xlink:href="#m09165eaf96" y="232.558125"/>
      </g>
     </g>
     <g id="text_14">
      <text style="font-family:DejaVu Sans;font-size:10px;font-style:normal;font-weight:normal;text-anchor:middle;" transform="rotate(-0, 182.323911, 247.156562)" x="182.323911" y="247.156562">60</text>
     </g>
    </g>
    <g id="xtick_5">
     <g id="line2d_5">
      <g>
       <use style="stroke:#000000;stroke-width:0.8;" x="224.569967" xlink:href="#m09165eaf96" y="232.558125"/>
      </g>
     </g>
     <g id="text_15">
      <text style="font-family:DejaVu Sans;font-size:10px;font-style:normal;font-weight:normal;text-anchor:middle;" transform="rotate(-0, 224.569967, 247.156562)" x="224.569967" y="247.156562">80</text>
     </g>
    </g>
    <g id="xtick_6">
     <g id="line2d_6">
      <g>
       <use style="stroke:#000000;stroke-width:0.8;" x="266.816024" xlink:href="#m09165eaf96" y="232.558125"/>
      </g>
     </g>
     <g id="text_16">
      <text style="font-family:DejaVu Sans;font-size:10px;font-style:normal;font-weight:normal;text-anchor:middle;" transform="rotate(-0, 266.816024, 247.156562)" x="266.816024" y="247.156562">100</text>
     </g>
    </g>
    <g id="xtick_7">
     <g id="line2d_7">
      <g>
       <use style="stroke:#000000;stroke-width:0.8;" x="309.062081" xlink:href="#m09165eaf96" y="232.558125"/>
      </g>
     </g>
     <g id="text_17">
      <text style="font-family:DejaVu Sans;font-size:10px;font-style:normal;font-weight:normal;text-anchor:middle;" transform="rotate(-0, 309.062081, 247.156562)" x="309.062081" y="247.156562">120</text>
     </g>
    </g>
    <g id="xtick_8">
     <g id="line2d_8">
      <g>
       <use style="stroke:#000000;stroke-width:0.8;" x="351.308138" xlink:href="#m09165eaf96" y="232.558125"/>
      </g>
     </g>
     <g id="text_18">
      <text style="font-family:DejaVu Sans;font-size:10px;font-style:normal;font-weight:normal;text-anchor:middle;" transform="rotate(-0, 351.308138, 247.156562)" x="351.308138" y="247.156562">140</text>
     </g>
    </g>
    <g id="text_19">
     <text style="font-family:DejaVu Sans;font-size:10px;font-style:normal;font-weight:normal;text-anchor:middle;" transform="rotate(-0, 220.873438, 260.834687)" x="220.873438" y="260.834687">Genomic Position [Mb]</text>
    </g>
   </g>
   <g id="matplotlib.axis_20">
    <g id="ytick_19"/>
    <g id="ytick_20"/>
    <g id="text_20">
     <text style="font-family:DejaVu Sans;font-size:10px;font-style:normal;font-weight:normal;" transform="translate(49.473438 210.067066)"/>
     <text style="font-family:DejaVu Sans;font-size:10px;font-style:normal;font-weight:normal;" transform="translate(38.34375 221.264878)">24   </text>
    </g>
   </g>
   <g id="patch_115">
    <path d="M 53.473438 232.558125 
L 53.473438 214.131006 
" style="fill:none;stroke:#000000;stroke-linecap:square;stroke-linejoin:miter;stroke-width:0.8;"/>
   </g>
   <g id="patch_116">
    <path d="M 388.273438 232.558125 
L 388.273438 214.131006 
" style="fill:none;stroke:#000000;stroke-linecap:square;stroke-linejoin:miter;stroke-width:0.8;"/>
   </g>
   <g id="patch_117">
    <path d="M 53.473438 232.558125 
L 388.273438 232.558125 
" style="fill:none;stroke:#000000;stroke-linecap:square;stroke-linejoin:miter;stroke-width:0.8;"/>
   </g>
   <g id="patch_118">
    <path d="M 53.473438 214.131006 
L 388.273438 214.131006 
" style="fill:none;stroke:#000000;stroke-linecap:square;stroke-linejoin:miter;stroke-width:0.8;"/>
   </g>
  </g>
 </g>
 <defs>
  <clipPath id="p675258b7d3">
   <rect height="18.427119" width="334.8" x="53.473438" y="15.118125"/>
  </clipPath>
  <clipPath id="p91ffcb5391">
   <rect height="18.427119" width="334.8" x="53.473438" y="37.230667"/>
  </clipPath>
  <clipPath id="p106d74da1d">
   <rect height="18.427119" width="334.8" x="53.473438" y="59.34321"/>
  </clipPath>
  <clipPath id="p0421e9c138">
   <rect height="18.427119" width="334.8" x="53.473438" y="81.455752"/>
  </clipPath>
  <clipPath id="pd63229ead5">
   <rect height="18.427119" width="334.8" x="53.473438" y="103.568294"/>
  </clipPath>
  <clipPath id="pd6ded2d044">
   <rect height="18.427119" width="334.8" x="53.473438" y="125.680837"/>
  </clipPath>
  <clipPath id="p83bfacfd4d">
   <rect height="18.427119" width="334.8" x="53.473438" y="147.793379"/>
  </clipPath>
  <clipPath id="pbddde09f45">
   <rect height="18.427119" width="334.8" x="53.473438" y="169.905922"/>
  </clipPath>
  <clipPath id="pfda0be1c62">
   <rect height="18.427119" width="334.8" x="53.473438" y="192.018464"/>
  </clipPath>
  <clipPath id="pdadb24a8ba">
   <rect height="18.427119" width="334.8" x="53.473438" y="214.131006"/>
  </clipPath>
 </defs>
</svg>
