<?xml version="1.0" encoding="utf-8" standalone="no"?>
<!DOCTYPE svg PUBLIC "-//W3C//DTD SVG 1.1//EN"
  "http://www.w3.org/Graphics/SVG/1.1/DTD/svg11.dtd">
<!-- Created with matplotlib (https://matplotlib.org/) -->
<svg height="262.914375pt" version="1.1" viewBox="0 0 388.273437 262.914375" width="388.273437pt" xmlns="http://www.w3.org/2000/svg" xmlns:xlink="http://www.w3.org/1999/xlink">
 <defs>
  <style type="text/css">
*{stroke-linecap:butt;stroke-linejoin:round;}
  </style>
 </defs>
 <g id="figure_1">
  <g id="patch_1">
   <path d="M 0 262.914375 
L 388.273437 262.914375 
L 388.273437 0 
L 0 0 
z
" style="fill:none;"/>
  </g>
  <g id="axes_1">
   <g id="patch_2">
    <path d="M 53.473438 31.844279 
L 388.273438 31.844279 
L 388.273438 15.118125 
L 53.473438 15.118125 
z
" style="fill:none;"/>
   </g>
   <g id="patch_3">
    <path clip-path="url(#p5d29b56eed)" d="M 62.418476 30.171663 
L 94.365041 30.171663 
L 94.365041 21.808587 
L 62.418476 21.808587 
z
" style="fill:#ff0000;stroke:#000000;stroke-linejoin:miter;"/>
   </g>
   <g id="patch_4">
    <path clip-path="url(#p5d29b56eed)" d="M 94.365041 30.171663 
L 139.090231 30.171663 
L 139.090231 21.808587 
L 94.365041 21.808587 
z
" style="fill:#00ff00;stroke:#000000;stroke-linejoin:miter;"/>
   </g>
   <g id="patch_5">
    <path clip-path="url(#p5d29b56eed)" d="M 139.090231 30.171663 
L 183.815422 30.171663 
L 183.815422 21.808587 
L 139.090231 21.808587 
z
" style="fill:#ff1ab9;stroke:#000000;stroke-linejoin:miter;"/>
   </g>
   <g id="patch_6">
    <path clip-path="url(#p5d29b56eed)" d="M 183.815422 30.171663 
L 215.761987 30.171663 
L 215.761987 21.808587 
L 183.815422 21.808587 
z
" style="fill:#ffd300;stroke:#000000;stroke-linejoin:miter;"/>
   </g>
   <g id="patch_7">
    <path clip-path="url(#p5d29b56eed)" d="M 215.761987 30.171663 
L 286.04443 30.171663 
L 286.04443 21.808587 
L 215.761987 21.808587 
z
" style="fill:#005800;stroke:#000000;stroke-linejoin:miter;"/>
   </g>
   <g id="patch_8">
    <path clip-path="url(#p5d29b56eed)" d="M 286.04443 30.171663 
L 337.158934 30.171663 
L 337.158934 21.808587 
L 286.04443 21.808587 
z
" style="fill:#8484ff;stroke:#000000;stroke-linejoin:miter;"/>
   </g>
   <g id="patch_9">
    <path clip-path="url(#p5d29b56eed)" d="M 337.158934 30.171663 
L 381.884125 30.171663 
L 381.884125 21.808587 
L 337.158934 21.808587 
z
" style="fill:#9e4f46;stroke:#000000;stroke-linejoin:miter;"/>
   </g>
   <g id="matplotlib.axis_1"/>
   <g id="matplotlib.axis_2">
    <g id="ytick_1"/>
    <g id="ytick_2"/>
    <g id="text_1">
     <text style="font-family:DejaVu Sans;font-size:10px;font-style:normal;font-weight:normal;text-anchor:middle;" transform="rotate(-0, 49.473438, 21.401514)" x="49.473438" y="21.401514">Embryo 1                </text>
    </g>
   </g>
   <g id="patch_10">
    <path d="M 53.473438 31.844279 
L 53.473438 15.118125 
" style="fill:none;stroke:#000000;stroke-linecap:square;stroke-linejoin:miter;stroke-width:0.8;"/>
   </g>
   <g id="patch_11">
    <path d="M 388.273438 31.844279 
L 388.273438 15.118125 
" style="fill:none;stroke:#000000;stroke-linecap:square;stroke-linejoin:miter;stroke-width:0.8;"/>
   </g>
   <g id="patch_12">
    <path d="M 53.473438 31.844279 
L 388.273438 31.844279 
" style="fill:none;stroke:#000000;stroke-linecap:square;stroke-linejoin:miter;stroke-width:0.8;"/>
   </g>
   <g id="patch_13">
    <path d="M 53.473438 15.118125 
L 388.273438 15.118125 
" style="fill:none;stroke:#000000;stroke-linecap:square;stroke-linejoin:miter;stroke-width:0.8;"/>
   </g>
   <g id="text_2">
    <text style="font-family:DejaVu Sans;font-size:12px;font-style:normal;font-weight:normal;text-anchor:middle;" transform="rotate(-0, 220.873438, 9.118125)" x="220.873438" y="9.118125">Chr 8</text>
   </g>
  </g>
  <g id="axes_2">
   <g id="patch_14">
    <path d="M 53.473438 51.915663 
L 388.273438 51.915663 
L 388.273438 35.18951 
L 53.473438 35.18951 
z
" style="fill:none;"/>
   </g>
   <g id="patch_15">
    <path clip-path="url(#pb81998c7d6)" d="M 68.807789 50.243048 
L 107.143667 50.243048 
L 107.143667 41.879971 
L 68.807789 41.879971 
z
" style="fill:#ff0000;stroke:#000000;stroke-linejoin:miter;"/>
   </g>
   <g id="patch_16">
    <path clip-path="url(#pb81998c7d6)" d="M 107.143667 50.243048 
L 171.036796 50.243048 
L 171.036796 41.879971 
L 107.143667 41.879971 
z
" style="fill:#00ff00;stroke:#000000;stroke-linejoin:miter;"/>
   </g>
   <g id="patch_17">
    <path clip-path="url(#pb81998c7d6)" d="M 171.036796 50.243048 
L 298.823056 50.243048 
L 298.823056 41.879971 
L 171.036796 41.879971 
z
" style="fill:#ff1ab9;stroke:#000000;stroke-linejoin:miter;"/>
   </g>
   <g id="patch_18">
    <path clip-path="url(#pb81998c7d6)" d="M 298.823056 50.243048 
L 337.158934 50.243048 
L 337.158934 41.879971 
L 298.823056 41.879971 
z
" style="fill:#ffd300;stroke:#000000;stroke-linejoin:miter;"/>
   </g>
   <g id="patch_19">
    <path clip-path="url(#pb81998c7d6)" d="M 337.158934 50.243048 
L 381.884125 50.243048 
L 381.884125 41.879971 
L 337.158934 41.879971 
z
" style="fill:#005800;stroke:#000000;stroke-linejoin:miter;"/>
   </g>
   <g id="matplotlib.axis_3"/>
   <g id="matplotlib.axis_4">
    <g id="ytick_3"/>
    <g id="ytick_4"/>
    <g id="text_3">
     <text style="font-family:DejaVu Sans;font-size:10px;font-style:normal;font-weight:normal;" transform="translate(49.473438 30.275087)"/>
     <text style="font-family:DejaVu Sans;font-size:10px;font-style:normal;font-weight:normal;" transform="translate(41.525 41.472899)">7   </text>
    </g>
   </g>
   <g id="patch_20">
    <path d="M 53.473438 51.915663 
L 53.473438 35.18951 
" style="fill:none;stroke:#000000;stroke-linecap:square;stroke-linejoin:miter;stroke-width:0.8;"/>
   </g>
   <g id="patch_21">
    <path d="M 388.273438 51.915663 
L 388.273438 35.18951 
" style="fill:none;stroke:#000000;stroke-linecap:square;stroke-linejoin:miter;stroke-width:0.8;"/>
   </g>
   <g id="patch_22">
    <path d="M 53.473438 51.915663 
L 388.273438 51.915663 
" style="fill:none;stroke:#000000;stroke-linecap:square;stroke-linejoin:miter;stroke-width:0.8;"/>
   </g>
   <g id="patch_23">
    <path d="M 53.473438 35.18951 
L 388.273438 35.18951 
" style="fill:none;stroke:#000000;stroke-linecap:square;stroke-linejoin:miter;stroke-width:0.8;"/>
   </g>
  </g>
  <g id="axes_3">
   <g id="patch_24">
    <path d="M 53.473438 71.987048 
L 388.273438 71.987048 
L 388.273438 55.260894 
L 53.473438 55.260894 
z
" style="fill:none;"/>
   </g>
   <g id="patch_25">
    <path clip-path="url(#p5ff0dd0269)" d="M 62.418476 70.314433 
L 119.922292 70.314433 
L 119.922292 61.951356 
L 62.418476 61.951356 
z
" style="fill:#ff0000;stroke:#000000;stroke-linejoin:miter;"/>
   </g>
   <g id="patch_26">
    <path clip-path="url(#p5ff0dd0269)" d="M 119.922292 70.314433 
L 145.479544 70.314433 
L 145.479544 61.951356 
L 119.922292 61.951356 
z
" style="fill:#00ff00;stroke:#000000;stroke-linejoin:miter;"/>
   </g>
   <g id="patch_27">
    <path clip-path="url(#p5ff0dd0269)" d="M 145.479544 70.314433 
L 234.929926 70.314433 
L 234.929926 61.951356 
L 145.479544 61.951356 
z
" style="fill:#ff1ab9;stroke:#000000;stroke-linejoin:miter;"/>
   </g>
   <g id="patch_28">
    <path clip-path="url(#p5ff0dd0269)" d="M 234.929926 70.314433 
L 266.876491 70.314433 
L 266.876491 61.951356 
L 234.929926 61.951356 
z
" style="fill:#ffd300;stroke:#000000;stroke-linejoin:miter;"/>
   </g>
   <g id="patch_29">
    <path clip-path="url(#p5ff0dd0269)" d="M 266.876491 70.314433 
L 324.380308 70.314433 
L 324.380308 61.951356 
L 266.876491 61.951356 
z
" style="fill:#005800;stroke:#000000;stroke-linejoin:miter;"/>
   </g>
   <g id="patch_30">
    <path clip-path="url(#p5ff0dd0269)" d="M 324.380308 70.314433 
L 356.326873 70.314433 
L 356.326873 61.951356 
L 324.380308 61.951356 
z
" style="fill:#8484ff;stroke:#000000;stroke-linejoin:miter;"/>
   </g>
   <g id="patch_31">
    <path clip-path="url(#p5ff0dd0269)" d="M 356.326873 70.314433 
L 381.884125 70.314433 
L 381.884125 61.951356 
L 356.326873 61.951356 
z
" style="fill:#9e4f46;stroke:#000000;stroke-linejoin:miter;"/>
   </g>
   <g id="matplotlib.axis_5"/>
   <g id="matplotlib.axis_6">
    <g id="ytick_5"/>
    <g id="ytick_6"/>
    <g id="text_4">
     <text style="font-family:DejaVu Sans;font-size:10px;font-style:normal;font-weight:normal;" transform="translate(49.473438 50.346471)"/>
     <text style="font-family:DejaVu Sans;font-size:10px;font-style:normal;font-weight:normal;" transform="translate(41.525 61.544284)">8   </text>
    </g>
   </g>
   <g id="patch_32">
    <path d="M 53.473438 71.987048 
L 53.473438 55.260894 
" style="fill:none;stroke:#000000;stroke-linecap:square;stroke-linejoin:miter;stroke-width:0.8;"/>
   </g>
   <g id="patch_33">
    <path d="M 388.273438 71.987048 
L 388.273438 55.260894 
" style="fill:none;stroke:#000000;stroke-linecap:square;stroke-linejoin:miter;stroke-width:0.8;"/>
   </g>
   <g id="patch_34">
    <path d="M 53.473438 71.987048 
L 388.273438 71.987048 
" style="fill:none;stroke:#000000;stroke-linecap:square;stroke-linejoin:miter;stroke-width:0.8;"/>
   </g>
   <g id="patch_35">
    <path d="M 53.473438 55.260894 
L 388.273438 55.260894 
" style="fill:none;stroke:#000000;stroke-linecap:square;stroke-linejoin:miter;stroke-width:0.8;"/>
   </g>
  </g>
  <g id="axes_4">
   <g id="patch_36">
    <path d="M 53.473438 92.058433 
L 388.273438 92.058433 
L 388.273438 75.332279 
L 53.473438 75.332279 
z
" style="fill:none;"/>
   </g>
   <g id="patch_37">
    <path clip-path="url(#pe6ab7b1d48)" d="M 62.418476 90.385817 
L 139.090231 90.385817 
L 139.090231 82.02274 
L 62.418476 82.02274 
z
" style="fill:#ff0000;stroke:#000000;stroke-linejoin:miter;"/>
   </g>
   <g id="patch_38">
    <path clip-path="url(#pe6ab7b1d48)" d="M 139.090231 90.385817 
L 171.036796 90.385817 
L 171.036796 82.02274 
L 139.090231 82.02274 
z
" style="fill:#00ff00;stroke:#000000;stroke-linejoin:miter;"/>
   </g>
   <g id="patch_39">
    <path clip-path="url(#pe6ab7b1d48)" d="M 171.036796 90.385817 
L 234.929926 90.385817 
L 234.929926 82.02274 
L 171.036796 82.02274 
z
" style="fill:#ff1ab9;stroke:#000000;stroke-linejoin:miter;"/>
   </g>
   <g id="patch_40">
    <path clip-path="url(#pe6ab7b1d48)" d="M 234.929926 90.385817 
L 375.494812 90.385817 
L 375.494812 82.02274 
L 234.929926 82.02274 
z
" style="fill:#ffd300;stroke:#000000;stroke-linejoin:miter;"/>
   </g>
   <g id="matplotlib.axis_7"/>
   <g id="matplotlib.axis_8">
    <g id="ytick_7"/>
    <g id="ytick_8"/>
    <g id="text_5">
     <text style="font-family:DejaVu Sans;font-size:10px;font-style:normal;font-weight:normal;" transform="translate(49.473438 70.417856)"/>
     <text style="font-family:DejaVu Sans;font-size:10px;font-style:normal;font-weight:normal;" transform="translate(38.34375 81.615668)">10   </text>
    </g>
   </g>
   <g id="patch_41">
    <path d="M 53.473438 92.058433 
L 53.473438 75.332279 
" style="fill:none;stroke:#000000;stroke-linecap:square;stroke-linejoin:miter;stroke-width:0.8;"/>
   </g>
   <g id="patch_42">
    <path d="M 388.273438 92.058433 
L 388.273438 75.332279 
" style="fill:none;stroke:#000000;stroke-linecap:square;stroke-linejoin:miter;stroke-width:0.8;"/>
   </g>
   <g id="patch_43">
    <path d="M 53.473438 92.058433 
L 388.273438 92.058433 
" style="fill:none;stroke:#000000;stroke-linecap:square;stroke-linejoin:miter;stroke-width:0.8;"/>
   </g>
   <g id="patch_44">
    <path d="M 53.473438 75.332279 
L 388.273438 75.332279 
" style="fill:none;stroke:#000000;stroke-linecap:square;stroke-linejoin:miter;stroke-width:0.8;"/>
   </g>
  </g>
  <g id="axes_5">
   <g id="patch_45">
    <path d="M 53.473438 112.129817 
L 388.273438 112.129817 
L 388.273438 95.403663 
L 53.473438 95.403663 
z
" style="fill:none;"/>
   </g>
   <g id="patch_46">
    <path clip-path="url(#p60fbd2d044)" d="M 62.418476 110.457202 
L 139.090231 110.457202 
L 139.090231 102.094125 
L 62.418476 102.094125 
z
" style="fill:#ff0000;stroke:#000000;stroke-linejoin:miter;"/>
   </g>
   <g id="patch_47">
    <path clip-path="url(#p60fbd2d044)" d="M 139.090231 110.457202 
L 190.204735 110.457202 
L 190.204735 102.094125 
L 139.090231 102.094125 
z
" style="fill:#00ff00;stroke:#000000;stroke-linejoin:miter;"/>
   </g>
   <g id="patch_48">
    <path clip-path="url(#p60fbd2d044)" d="M 190.204735 110.457202 
L 228.540613 110.457202 
L 228.540613 102.094125 
L 190.204735 102.094125 
z
" style="fill:#ff1ab9;stroke:#000000;stroke-linejoin:miter;"/>
   </g>
   <g id="patch_49">
    <path clip-path="url(#p60fbd2d044)" d="M 228.540613 110.457202 
L 305.212369 110.457202 
L 305.212369 102.094125 
L 228.540613 102.094125 
z
" style="fill:#ffd300;stroke:#000000;stroke-linejoin:miter;"/>
   </g>
   <g id="patch_50">
    <path clip-path="url(#p60fbd2d044)" d="M 305.212369 110.457202 
L 343.548247 110.457202 
L 343.548247 102.094125 
L 305.212369 102.094125 
z
" style="fill:#005800;stroke:#000000;stroke-linejoin:miter;"/>
   </g>
   <g id="patch_51">
    <path clip-path="url(#p60fbd2d044)" d="M 343.548247 110.457202 
L 381.884125 110.457202 
L 381.884125 102.094125 
L 343.548247 102.094125 
z
" style="fill:#8484ff;stroke:#000000;stroke-linejoin:miter;"/>
   </g>
   <g id="matplotlib.axis_9"/>
   <g id="matplotlib.axis_10">
    <g id="ytick_9"/>
    <g id="ytick_10"/>
    <g id="text_6">
     <text style="font-family:DejaVu Sans;font-size:10px;font-style:normal;font-weight:normal;" transform="translate(49.473438 90.48924)"/>
     <text style="font-family:DejaVu Sans;font-size:10px;font-style:normal;font-weight:normal;" transform="translate(38.34375 101.687053)">11   </text>
    </g>
   </g>
   <g id="patch_52">
    <path d="M 53.473438 112.129817 
L 53.473438 95.403663 
" style="fill:none;stroke:#000000;stroke-linecap:square;stroke-linejoin:miter;stroke-width:0.8;"/>
   </g>
   <g id="patch_53">
    <path d="M 388.273438 112.129817 
L 388.273438 95.403663 
" style="fill:none;stroke:#000000;stroke-linecap:square;stroke-linejoin:miter;stroke-width:0.8;"/>
   </g>
   <g id="patch_54">
    <path d="M 53.473438 112.129817 
L 388.273438 112.129817 
" style="fill:none;stroke:#000000;stroke-linecap:square;stroke-linejoin:miter;stroke-width:0.8;"/>
   </g>
   <g id="patch_55">
    <path d="M 53.473438 95.403663 
L 388.273438 95.403663 
" style="fill:none;stroke:#000000;stroke-linecap:square;stroke-linejoin:miter;stroke-width:0.8;"/>
   </g>
  </g>
  <g id="axes_6">
   <g id="patch_56">
    <path d="M 53.473438 132.201202 
L 388.273438 132.201202 
L 388.273438 115.475048 
L 53.473438 115.475048 
z
" style="fill:none;"/>
   </g>
   <g id="patch_57">
    <path clip-path="url(#pd15f8a8a5c)" d="M 68.807789 130.528587 
L 113.532979 130.528587 
L 113.532979 122.16551 
L 68.807789 122.16551 
z
" style="fill:#ff0000;stroke:#000000;stroke-linejoin:miter;"/>
   </g>
   <g id="patch_58">
    <path clip-path="url(#pd15f8a8a5c)" d="M 113.532979 130.528587 
L 183.815422 130.528587 
L 183.815422 122.16551 
L 113.532979 122.16551 
z
" style="fill:#00ff00;stroke:#000000;stroke-linejoin:miter;"/>
   </g>
   <g id="patch_59">
    <path clip-path="url(#pd15f8a8a5c)" d="M 183.815422 130.528587 
L 247.708552 130.528587 
L 247.708552 122.16551 
L 183.815422 122.16551 
z
" style="fill:#ff1ab9;stroke:#000000;stroke-linejoin:miter;"/>
   </g>
   <g id="patch_60">
    <path clip-path="url(#pd15f8a8a5c)" d="M 247.708552 130.528587 
L 292.433743 130.528587 
L 292.433743 122.16551 
L 247.708552 122.16551 
z
" style="fill:#ffd300;stroke:#000000;stroke-linejoin:miter;"/>
   </g>
   <g id="patch_61">
    <path clip-path="url(#pd15f8a8a5c)" d="M 292.433743 130.528587 
L 381.884125 130.528587 
L 381.884125 122.16551 
L 292.433743 122.16551 
z
" style="fill:#005800;stroke:#000000;stroke-linejoin:miter;"/>
   </g>
   <g id="matplotlib.axis_11"/>
   <g id="matplotlib.axis_12">
    <g id="ytick_11"/>
    <g id="ytick_12"/>
    <g id="text_7">
     <text style="font-family:DejaVu Sans;font-size:10px;font-style:normal;font-weight:normal;" transform="translate(49.473438 110.560625)"/>
     <text style="font-family:DejaVu Sans;font-size:10px;font-style:normal;font-weight:normal;" transform="translate(38.34375 121.758438)">14   </text>
    </g>
   </g>
   <g id="patch_62">
    <path d="M 53.473438 132.201202 
L 53.473438 115.475048 
" style="fill:none;stroke:#000000;stroke-linecap:square;stroke-linejoin:miter;stroke-width:0.8;"/>
   </g>
   <g id="patch_63">
    <path d="M 388.273438 132.201202 
L 388.273438 115.475048 
" style="fill:none;stroke:#000000;stroke-linecap:square;stroke-linejoin:miter;stroke-width:0.8;"/>
   </g>
   <g id="patch_64">
    <path d="M 53.473438 132.201202 
L 388.273438 132.201202 
" style="fill:none;stroke:#000000;stroke-linecap:square;stroke-linejoin:miter;stroke-width:0.8;"/>
   </g>
   <g id="patch_65">
    <path d="M 53.473438 115.475048 
L 388.273438 115.475048 
" style="fill:none;stroke:#000000;stroke-linecap:square;stroke-linejoin:miter;stroke-width:0.8;"/>
   </g>
  </g>
  <g id="axes_7">
   <g id="patch_66">
    <path d="M 53.473438 152.272587 
L 388.273438 152.272587 
L 388.273438 135.546433 
L 53.473438 135.546433 
z
" style="fill:none;"/>
   </g>
   <g id="patch_67">
    <path clip-path="url(#pc9a3d4cfe4)" d="M 62.418476 150.599971 
L 100.754354 150.599971 
L 100.754354 142.236894 
L 62.418476 142.236894 
z
" style="fill:#ff0000;stroke:#000000;stroke-linejoin:miter;"/>
   </g>
   <g id="patch_68">
    <path clip-path="url(#pc9a3d4cfe4)" d="M 100.754354 150.599971 
L 164.647483 150.599971 
L 164.647483 142.236894 
L 100.754354 142.236894 
z
" style="fill:#00ff00;stroke:#000000;stroke-linejoin:miter;"/>
   </g>
   <g id="patch_69">
    <path clip-path="url(#pc9a3d4cfe4)" d="M 164.647483 150.599971 
L 222.1513 150.599971 
L 222.1513 142.236894 
L 164.647483 142.236894 
z
" style="fill:#ff1ab9;stroke:#000000;stroke-linejoin:miter;"/>
   </g>
   <g id="patch_70">
    <path clip-path="url(#pc9a3d4cfe4)" d="M 222.1513 150.599971 
L 273.265804 150.599971 
L 273.265804 142.236894 
L 222.1513 142.236894 
z
" style="fill:#ffd300;stroke:#000000;stroke-linejoin:miter;"/>
   </g>
   <g id="patch_71">
    <path clip-path="url(#pc9a3d4cfe4)" d="M 273.265804 150.599971 
L 330.769621 150.599971 
L 330.769621 142.236894 
L 273.265804 142.236894 
z
" style="fill:#005800;stroke:#000000;stroke-linejoin:miter;"/>
   </g>
   <g id="patch_72">
    <path clip-path="url(#pc9a3d4cfe4)" d="M 330.769621 150.599971 
L 375.494812 150.599971 
L 375.494812 142.236894 
L 330.769621 142.236894 
z
" style="fill:#8484ff;stroke:#000000;stroke-linejoin:miter;"/>
   </g>
   <g id="matplotlib.axis_13"/>
   <g id="matplotlib.axis_14">
    <g id="ytick_13"/>
    <g id="ytick_14"/>
    <g id="text_8">
     <text style="font-family:DejaVu Sans;font-size:10px;font-style:normal;font-weight:normal;" transform="translate(49.473438 130.63201)"/>
     <text style="font-family:DejaVu Sans;font-size:10px;font-style:normal;font-weight:normal;" transform="translate(38.34375 141.829822)">16   </text>
    </g>
   </g>
   <g id="patch_73">
    <path d="M 53.473438 152.272587 
L 53.473438 135.546433 
" style="fill:none;stroke:#000000;stroke-linecap:square;stroke-linejoin:miter;stroke-width:0.8;"/>
   </g>
   <g id="patch_74">
    <path d="M 388.273438 152.272587 
L 388.273438 135.546433 
" style="fill:none;stroke:#000000;stroke-linecap:square;stroke-linejoin:miter;stroke-width:0.8;"/>
   </g>
   <g id="patch_75">
    <path d="M 53.473438 152.272587 
L 388.273438 152.272587 
" style="fill:none;stroke:#000000;stroke-linecap:square;stroke-linejoin:miter;stroke-width:0.8;"/>
   </g>
   <g id="patch_76">
    <path d="M 53.473438 135.546433 
L 388.273438 135.546433 
" style="fill:none;stroke:#000000;stroke-linecap:square;stroke-linejoin:miter;stroke-width:0.8;"/>
   </g>
  </g>
  <g id="axes_8">
   <g id="patch_77">
    <path d="M 53.473438 172.343971 
L 388.273438 172.343971 
L 388.273438 155.617817 
L 53.473438 155.617817 
z
" style="fill:none;"/>
   </g>
   <g id="patch_78">
    <path clip-path="url(#p66a7c30901)" d="M 62.418476 170.671356 
L 100.754354 170.671356 
L 100.754354 162.308279 
L 62.418476 162.308279 
z
" style="fill:#ff0000;stroke:#000000;stroke-linejoin:miter;"/>
   </g>
   <g id="patch_79">
    <path clip-path="url(#p66a7c30901)" d="M 100.754354 170.671356 
L 151.868857 170.671356 
L 151.868857 162.308279 
L 100.754354 162.308279 
z
" style="fill:#00ff00;stroke:#000000;stroke-linejoin:miter;"/>
   </g>
   <g id="patch_80">
    <path clip-path="url(#p66a7c30901)" d="M 151.868857 170.671356 
L 209.372674 170.671356 
L 209.372674 162.308279 
L 151.868857 162.308279 
z
" style="fill:#ff1ab9;stroke:#000000;stroke-linejoin:miter;"/>
   </g>
   <g id="patch_81">
    <path clip-path="url(#p66a7c30901)" d="M 209.372674 170.671356 
L 234.929926 170.671356 
L 234.929926 162.308279 
L 209.372674 162.308279 
z
" style="fill:#ffd300;stroke:#000000;stroke-linejoin:miter;"/>
   </g>
   <g id="patch_82">
    <path clip-path="url(#p66a7c30901)" d="M 234.929926 170.671356 
L 279.655117 170.671356 
L 279.655117 162.308279 
L 234.929926 162.308279 
z
" style="fill:#005800;stroke:#000000;stroke-linejoin:miter;"/>
   </g>
   <g id="patch_83">
    <path clip-path="url(#p66a7c30901)" d="M 279.655117 170.671356 
L 330.769621 170.671356 
L 330.769621 162.308279 
L 279.655117 162.308279 
z
" style="fill:#8484ff;stroke:#000000;stroke-linejoin:miter;"/>
   </g>
   <g id="patch_84">
    <path clip-path="url(#p66a7c30901)" d="M 330.769621 170.671356 
L 362.716186 170.671356 
L 362.716186 162.308279 
L 330.769621 162.308279 
z
" style="fill:#9e4f46;stroke:#000000;stroke-linejoin:miter;"/>
   </g>
   <g id="matplotlib.axis_15"/>
   <g id="matplotlib.axis_16">
    <g id="ytick_15"/>
    <g id="ytick_16"/>
    <g id="text_9">
     <text style="font-family:DejaVu Sans;font-size:10px;font-style:normal;font-weight:normal;" transform="translate(49.473438 150.703394)"/>
     <text style="font-family:DejaVu Sans;font-size:10px;font-style:normal;font-weight:normal;" transform="translate(38.34375 161.901207)">18   </text>
    </g>
   </g>
   <g id="patch_85">
    <path d="M 53.473438 172.343971 
L 53.473438 155.617817 
" style="fill:none;stroke:#000000;stroke-linecap:square;stroke-linejoin:miter;stroke-width:0.8;"/>
   </g>
   <g id="patch_86">
    <path d="M 388.273438 172.343971 
L 388.273438 155.617817 
" style="fill:none;stroke:#000000;stroke-linecap:square;stroke-linejoin:miter;stroke-width:0.8;"/>
   </g>
   <g id="patch_87">
    <path d="M 53.473438 172.343971 
L 388.273438 172.343971 
" style="fill:none;stroke:#000000;stroke-linecap:square;stroke-linejoin:miter;stroke-width:0.8;"/>
   </g>
   <g id="patch_88">
    <path d="M 53.473438 155.617817 
L 388.273438 155.617817 
" style="fill:none;stroke:#000000;stroke-linecap:square;stroke-linejoin:miter;stroke-width:0.8;"/>
   </g>
  </g>
  <g id="axes_9">
   <g id="patch_89">
    <path d="M 53.473438 192.415356 
L 388.273438 192.415356 
L 388.273438 175.689202 
L 53.473438 175.689202 
z
" style="fill:none;"/>
   </g>
   <g id="patch_90">
    <path clip-path="url(#paf4c9b2a72)" d="M 68.807789 190.74274 
L 107.143667 190.74274 
L 107.143667 182.379663 
L 68.807789 182.379663 
z
" style="fill:#ff0000;stroke:#000000;stroke-linejoin:miter;"/>
   </g>
   <g id="patch_91">
    <path clip-path="url(#paf4c9b2a72)" d="M 107.143667 190.74274 
L 145.479544 190.74274 
L 145.479544 182.379663 
L 107.143667 182.379663 
z
" style="fill:#00ff00;stroke:#000000;stroke-linejoin:miter;"/>
   </g>
   <g id="patch_92">
    <path clip-path="url(#paf4c9b2a72)" d="M 145.479544 190.74274 
L 228.540613 190.74274 
L 228.540613 182.379663 
L 145.479544 182.379663 
z
" style="fill:#ff1ab9;stroke:#000000;stroke-linejoin:miter;"/>
   </g>
   <g id="patch_93">
    <path clip-path="url(#paf4c9b2a72)" d="M 228.540613 190.74274 
L 266.876491 190.74274 
L 266.876491 182.379663 
L 228.540613 182.379663 
z
" style="fill:#ffd300;stroke:#000000;stroke-linejoin:miter;"/>
   </g>
   <g id="patch_94">
    <path clip-path="url(#paf4c9b2a72)" d="M 266.876491 190.74274 
L 298.823056 190.74274 
L 298.823056 182.379663 
L 266.876491 182.379663 
z
" style="fill:#005800;stroke:#000000;stroke-linejoin:miter;"/>
   </g>
   <g id="patch_95">
    <path clip-path="url(#paf4c9b2a72)" d="M 298.823056 190.74274 
L 337.158934 190.74274 
L 337.158934 182.379663 
L 298.823056 182.379663 
z
" style="fill:#8484ff;stroke:#000000;stroke-linejoin:miter;"/>
   </g>
   <g id="patch_96">
    <path clip-path="url(#paf4c9b2a72)" d="M 337.158934 190.74274 
L 381.884125 190.74274 
L 381.884125 182.379663 
L 337.158934 182.379663 
z
" style="fill:#9e4f46;stroke:#000000;stroke-linejoin:miter;"/>
   </g>
   <g id="matplotlib.axis_17"/>
   <g id="matplotlib.axis_18">
    <g id="ytick_17"/>
    <g id="ytick_18"/>
    <g id="text_10">
     <text style="font-family:DejaVu Sans;font-size:10px;font-style:normal;font-weight:normal;" transform="translate(49.473438 170.774779)"/>
     <text style="font-family:DejaVu Sans;font-size:10px;font-style:normal;font-weight:normal;" transform="translate(38.34375 181.972591)">20   </text>
    </g>
   </g>
   <g id="patch_97">
    <path d="M 53.473438 192.415356 
L 53.473438 175.689202 
" style="fill:none;stroke:#000000;stroke-linecap:square;stroke-linejoin:miter;stroke-width:0.8;"/>
   </g>
   <g id="patch_98">
    <path d="M 388.273438 192.415356 
L 388.273438 175.689202 
" style="fill:none;stroke:#000000;stroke-linecap:square;stroke-linejoin:miter;stroke-width:0.8;"/>
   </g>
   <g id="patch_99">
    <path d="M 53.473438 192.415356 
L 388.273438 192.415356 
" style="fill:none;stroke:#000000;stroke-linecap:square;stroke-linejoin:miter;stroke-width:0.8;"/>
   </g>
   <g id="patch_100">
    <path d="M 53.473438 175.689202 
L 388.273438 175.689202 
" style="fill:none;stroke:#000000;stroke-linecap:square;stroke-linejoin:miter;stroke-width:0.8;"/>
   </g>
  </g>
  <g id="axes_10">
   <g id="patch_101">
    <path d="M 53.473438 212.48674 
L 388.273438 212.48674 
L 388.273438 195.760587 
L 53.473438 195.760587 
z
" style="fill:none;"/>
   </g>
   <g id="patch_102">
    <path clip-path="url(#pe07d3bd66e)" d="M 62.418476 210.814125 
L 100.754354 210.814125 
L 100.754354 202.451048 
L 62.418476 202.451048 
z
" style="fill:#ff0000;stroke:#000000;stroke-linejoin:miter;"/>
   </g>
   <g id="patch_103">
    <path clip-path="url(#pe07d3bd66e)" d="M 100.754354 210.814125 
L 183.815422 210.814125 
L 183.815422 202.451048 
L 100.754354 202.451048 
z
" style="fill:#00ff00;stroke:#000000;stroke-linejoin:miter;"/>
   </g>
   <g id="patch_104">
    <path clip-path="url(#pe07d3bd66e)" d="M 183.815422 210.814125 
L 209.372674 210.814125 
L 209.372674 202.451048 
L 183.815422 202.451048 
z
" style="fill:#ff1ab9;stroke:#000000;stroke-linejoin:miter;"/>
   </g>
   <g id="patch_105">
    <path clip-path="url(#pe07d3bd66e)" d="M 209.372674 210.814125 
L 254.097865 210.814125 
L 254.097865 202.451048 
L 209.372674 202.451048 
z
" style="fill:#ffd300;stroke:#000000;stroke-linejoin:miter;"/>
   </g>
   <g id="patch_106">
    <path clip-path="url(#pe07d3bd66e)" d="M 254.097865 210.814125 
L 298.823056 210.814125 
L 298.823056 202.451048 
L 254.097865 202.451048 
z
" style="fill:#005800;stroke:#000000;stroke-linejoin:miter;"/>
   </g>
   <g id="patch_107">
    <path clip-path="url(#pe07d3bd66e)" d="M 298.823056 210.814125 
L 330.769621 210.814125 
L 330.769621 202.451048 
L 298.823056 202.451048 
z
" style="fill:#8484ff;stroke:#000000;stroke-linejoin:miter;"/>
   </g>
   <g id="patch_108">
    <path clip-path="url(#pe07d3bd66e)" d="M 330.769621 210.814125 
L 381.884125 210.814125 
L 381.884125 202.451048 
L 330.769621 202.451048 
z
" style="fill:#9e4f46;stroke:#000000;stroke-linejoin:miter;"/>
   </g>
   <g id="matplotlib.axis_19"/>
   <g id="matplotlib.axis_20">
    <g id="ytick_19"/>
    <g id="ytick_20"/>
    <g id="text_11">
     <text style="font-family:DejaVu Sans;font-size:10px;font-style:normal;font-weight:normal;" transform="translate(49.473438 190.846163)"/>
     <text style="font-family:DejaVu Sans;font-size:10px;font-style:normal;font-weight:normal;" transform="translate(38.34375 202.043976)">21   </text>
    </g>
   </g>
   <g id="patch_109">
    <path d="M 53.473438 212.48674 
L 53.473438 195.760587 
" style="fill:none;stroke:#000000;stroke-linecap:square;stroke-linejoin:miter;stroke-width:0.8;"/>
   </g>
   <g id="patch_110">
    <path d="M 388.273438 212.48674 
L 388.273438 195.760587 
" style="fill:none;stroke:#000000;stroke-linecap:square;stroke-linejoin:miter;stroke-width:0.8;"/>
   </g>
   <g id="patch_111">
    <path d="M 53.473438 212.48674 
L 388.273438 212.48674 
" style="fill:none;stroke:#000000;stroke-linecap:square;stroke-linejoin:miter;stroke-width:0.8;"/>
   </g>
   <g id="patch_112">
    <path d="M 53.473438 195.760587 
L 388.273438 195.760587 
" style="fill:none;stroke:#000000;stroke-linecap:square;stroke-linejoin:miter;stroke-width:0.8;"/>
   </g>
  </g>
  <g id="axes_11">
   <g id="patch_113">
    <path d="M 53.473438 232.558125 
L 388.273438 232.558125 
L 388.273438 215.831971 
L 53.473438 215.831971 
z
" style="fill:none;"/>
   </g>
   <g id="patch_114">
    <path clip-path="url(#p67d6d48c85)" d="M 75.197102 230.88551 
L 107.143667 230.88551 
L 107.143667 222.522433 
L 75.197102 222.522433 
z
" style="fill:#ff0000;stroke:#000000;stroke-linejoin:miter;"/>
   </g>
   <g id="patch_115">
    <path clip-path="url(#p67d6d48c85)" d="M 107.143667 230.88551 
L 139.090231 230.88551 
L 139.090231 222.522433 
L 107.143667 222.522433 
z
" style="fill:#00ff00;stroke:#000000;stroke-linejoin:miter;"/>
   </g>
   <g id="patch_116">
    <path clip-path="url(#p67d6d48c85)" d="M 139.090231 230.88551 
L 196.594048 230.88551 
L 196.594048 222.522433 
L 139.090231 222.522433 
z
" style="fill:#ff1ab9;stroke:#000000;stroke-linejoin:miter;"/>
   </g>
   <g id="patch_117">
    <path clip-path="url(#p67d6d48c85)" d="M 196.594048 230.88551 
L 337.158934 230.88551 
L 337.158934 222.522433 
L 196.594048 222.522433 
z
" style="fill:#ffd300;stroke:#000000;stroke-linejoin:miter;"/>
   </g>
   <g id="patch_118">
    <path clip-path="url(#p67d6d48c85)" d="M 337.158934 230.88551 
L 381.884125 230.88551 
L 381.884125 222.522433 
L 337.158934 222.522433 
z
" style="fill:#005800;stroke:#000000;stroke-linejoin:miter;"/>
   </g>
   <g id="matplotlib.axis_21">
    <g id="xtick_1">
     <g id="line2d_1">
      <defs>
       <path d="M 0 0 
L 0 3.5 
" id="m90f8bed9ca" style="stroke:#000000;stroke-width:0.8;"/>
      </defs>
      <g>
       <use style="stroke:#000000;stroke-width:0.8;" x="56.029163" xlink:href="#m90f8bed9ca" y="232.558125"/>
      </g>
     </g>
     <g id="text_12">
      <text style="font-family:DejaVu Sans;font-size:10px;font-style:normal;font-weight:normal;text-anchor:middle;" transform="rotate(-0, 56.029163, 247.156562)" x="56.029163" y="247.156562">0</text>
     </g>
    </g>
    <g id="xtick_2">
     <g id="line2d_2">
      <g>
       <use style="stroke:#000000;stroke-width:0.8;" x="107.143667" xlink:href="#m90f8bed9ca" y="232.558125"/>
      </g>
     </g>
     <g id="text_13">
      <text style="font-family:DejaVu Sans;font-size:10px;font-style:normal;font-weight:normal;text-anchor:middle;" transform="rotate(-0, 107.143667, 247.156562)" x="107.143667" y="247.156562">20</text>
     </g>
    </g>
    <g id="xtick_3">
     <g id="line2d_3">
      <g>
       <use style="stroke:#000000;stroke-width:0.8;" x="158.25817" xlink:href="#m90f8bed9ca" y="232.558125"/>
      </g>
     </g>
     <g id="text_14">
      <text style="font-family:DejaVu Sans;font-size:10px;font-style:normal;font-weight:normal;text-anchor:middle;" transform="rotate(-0, 158.25817, 247.156562)" x="158.25817" y="247.156562">40</text>
     </g>
    </g>
    <g id="xtick_4">
     <g id="line2d_4">
      <g>
       <use style="stroke:#000000;stroke-width:0.8;" x="209.372674" xlink:href="#m90f8bed9ca" y="232.558125"/>
      </g>
     </g>
     <g id="text_15">
      <text style="font-family:DejaVu Sans;font-size:10px;font-style:normal;font-weight:normal;text-anchor:middle;" transform="rotate(-0, 209.372674, 247.156562)" x="209.372674" y="247.156562">60</text>
     </g>
    </g>
    <g id="xtick_5">
     <g id="line2d_5">
      <g>
       <use style="stroke:#000000;stroke-width:0.8;" x="260.487178" xlink:href="#m90f8bed9ca" y="232.558125"/>
      </g>
     </g>
     <g id="text_16">
      <text style="font-family:DejaVu Sans;font-size:10px;font-style:normal;font-weight:normal;text-anchor:middle;" transform="rotate(-0, 260.487178, 247.156562)" x="260.487178" y="247.156562">80</text>
     </g>
    </g>
    <g id="xtick_6">
     <g id="line2d_6">
      <g>
       <use style="stroke:#000000;stroke-width:0.8;" x="311.601682" xlink:href="#m90f8bed9ca" y="232.558125"/>
      </g>
     </g>
     <g id="text_17">
      <text style="font-family:DejaVu Sans;font-size:10px;font-style:normal;font-weight:normal;text-anchor:middle;" transform="rotate(-0, 311.601682, 247.156562)" x="311.601682" y="247.156562">100</text>
     </g>
    </g>
    <g id="xtick_7">
     <g id="line2d_7">
      <g>
       <use style="stroke:#000000;stroke-width:0.8;" x="362.716186" xlink:href="#m90f8bed9ca" y="232.558125"/>
      </g>
     </g>
     <g id="text_18">
      <text style="font-family:DejaVu Sans;font-size:10px;font-style:normal;font-weight:normal;text-anchor:middle;" transform="rotate(-0, 362.716186, 247.156562)" x="362.716186" y="247.156562">120</text>
     </g>
    </g>
    <g id="text_19">
     <text style="font-family:DejaVu Sans;font-size:10px;font-style:normal;font-weight:normal;text-anchor:middle;" transform="rotate(-0, 220.873438, 260.834687)" x="220.873438" y="260.834687">Genomic Position [Mb]</text>
    </g>
   </g>
   <g id="matplotlib.axis_22">
    <g id="ytick_21"/>
    <g id="ytick_22"/>
    <g id="text_20">
     <text style="font-family:DejaVu Sans;font-size:10px;font-style:normal;font-weight:normal;" transform="translate(49.473438 210.917548)"/>
     <text style="font-family:DejaVu Sans;font-size:10px;font-style:normal;font-weight:normal;" transform="translate(38.34375 222.115361)">24   </text>
    </g>
   </g>
   <g id="patch_119">
    <path d="M 53.473438 232.558125 
L 53.473438 215.831971 
" style="fill:none;stroke:#000000;stroke-linecap:square;stroke-linejoin:miter;stroke-width:0.8;"/>
   </g>
   <g id="patch_120">
    <path d="M 388.273438 232.558125 
L 388.273438 215.831971 
" style="fill:none;stroke:#000000;stroke-linecap:square;stroke-linejoin:miter;stroke-width:0.8;"/>
   </g>
   <g id="patch_121">
    <path d="M 53.473438 232.558125 
L 388.273438 232.558125 
" style="fill:none;stroke:#000000;stroke-linecap:square;stroke-linejoin:miter;stroke-width:0.8;"/>
   </g>
   <g id="patch_122">
    <path d="M 53.473438 215.831971 
L 388.273438 215.831971 
" style="fill:none;stroke:#000000;stroke-linecap:square;stroke-linejoin:miter;stroke-width:0.8;"/>
   </g>
  </g>
 </g>
 <defs>
  <clipPath id="p5d29b56eed">
   <rect height="16.726154" width="334.8" x="53.473438" y="15.118125"/>
  </clipPath>
  <clipPath id="pb81998c7d6">
   <rect height="16.726154" width="334.8" x="53.473438" y="35.18951"/>
  </clipPath>
  <clipPath id="p5ff0dd0269">
   <rect height="16.726154" width="334.8" x="53.473438" y="55.260894"/>
  </clipPath>
  <clipPath id="pe6ab7b1d48">
   <rect height="16.726154" width="334.8" x="53.473438" y="75.332279"/>
  </clipPath>
  <clipPath id="p60fbd2d044">
   <rect height="16.726154" width="334.8" x="53.473438" y="95.403663"/>
  </clipPath>
  <clipPath id="pd15f8a8a5c">
   <rect height="16.726154" width="334.8" x="53.473438" y="115.475048"/>
  </clipPath>
  <clipPath id="pc9a3d4cfe4">
   <rect height="16.726154" width="334.8" x="53.473438" y="135.546433"/>
  </clipPath>
  <clipPath id="p66a7c30901">
   <rect height="16.726154" width="334.8" x="53.473438" y="155.617817"/>
  </clipPath>
  <clipPath id="paf4c9b2a72">
   <rect height="16.726154" width="334.8" x="53.473438" y="175.689202"/>
  </clipPath>
  <clipPath id="pe07d3bd66e">
   <rect height="16.726154" width="334.8" x="53.473438" y="195.760587"/>
  </clipPath>
  <clipPath id="p67d6d48c85">
   <rect height="16.726154" width="334.8" x="53.473438" y="215.831971"/>
  </clipPath>
 </defs>
</svg>
