<?xml version="1.0" encoding="utf-8" standalone="no"?>
<!DOCTYPE svg PUBLIC "-//W3C//DTD SVG 1.1//EN"
  "http://www.w3.org/Graphics/SVG/1.1/DTD/svg11.dtd">
<!-- Created with matplotlib (https://matplotlib.org/) -->
<svg height="262.914375pt" version="1.1" viewBox="0 0 388.273437 262.914375" width="388.273437pt" xmlns="http://www.w3.org/2000/svg" xmlns:xlink="http://www.w3.org/1999/xlink">
 <defs>
  <style type="text/css">
*{stroke-linecap:butt;stroke-linejoin:round;}
  </style>
 </defs>
 <g id="figure_1">
  <g id="patch_1">
   <path d="M 0 262.914375 
L 388.273437 262.914375 
L 388.273437 0 
L 0 0 
z
" style="fill:none;"/>
  </g>
  <g id="axes_1">
   <g id="patch_2">
    <path d="M 53.473438 41.635198 
L 388.273438 41.635198 
L 388.273438 15.118125 
L 53.473438 15.118125 
z
" style="fill:none;"/>
   </g>
   <g id="patch_3">
    <path clip-path="url(#p54f2c4787e)" d="M 61.364347 38.983491 
L 95.182528 38.983491 
L 95.182528 25.724954 
L 61.364347 25.724954 
z
" style="fill:#ff0000;stroke:#000000;stroke-linejoin:miter;"/>
   </g>
   <g id="patch_4">
    <path clip-path="url(#p54f2c4787e)" d="M 95.182528 38.983491 
L 162.818892 38.983491 
L 162.818892 25.724954 
L 95.182528 25.724954 
z
" style="fill:#00ff00;stroke:#000000;stroke-linejoin:miter;"/>
   </g>
   <g id="patch_5">
    <path clip-path="url(#p54f2c4787e)" d="M 162.818892 38.983491 
L 202.273438 38.983491 
L 202.273438 25.724954 
L 162.818892 25.724954 
z
" style="fill:#ff1ab9;stroke:#000000;stroke-linejoin:miter;"/>
   </g>
   <g id="patch_6">
    <path clip-path="url(#p54f2c4787e)" d="M 202.273438 38.983491 
L 281.182528 38.983491 
L 281.182528 25.724954 
L 202.273438 25.724954 
z
" style="fill:#ffd300;stroke:#000000;stroke-linejoin:miter;"/>
   </g>
   <g id="patch_7">
    <path clip-path="url(#p54f2c4787e)" d="M 281.182528 38.983491 
L 298.091619 38.983491 
L 298.091619 25.724954 
L 281.182528 25.724954 
z
" style="fill:#005800;stroke:#000000;stroke-linejoin:miter;"/>
   </g>
   <g id="patch_8">
    <path clip-path="url(#p54f2c4787e)" d="M 298.091619 38.983491 
L 326.273438 38.983491 
L 326.273438 25.724954 
L 298.091619 25.724954 
z
" style="fill:#8484ff;stroke:#000000;stroke-linejoin:miter;"/>
   </g>
   <g id="patch_9">
    <path clip-path="url(#p54f2c4787e)" d="M 326.273437 38.983491 
L 377.00071 38.983491 
L 377.00071 25.724954 
L 326.273437 25.724954 
z
" style="fill:#9e4f46;stroke:#000000;stroke-linejoin:miter;"/>
   </g>
   <g id="matplotlib.axis_1"/>
   <g id="matplotlib.axis_2">
    <g id="ytick_1"/>
    <g id="ytick_2"/>
    <g id="text_1">
     <text style="font-family:DejaVu Sans;font-size:10px;font-style:normal;font-weight:normal;text-anchor:middle;" transform="rotate(-0, 49.473438, 26.296974)" x="49.473438" y="26.296974">Embryo 1                </text>
    </g>
   </g>
   <g id="patch_10">
    <path d="M 53.473438 41.635198 
L 53.473438 15.118125 
" style="fill:none;stroke:#000000;stroke-linecap:square;stroke-linejoin:miter;stroke-width:0.8;"/>
   </g>
   <g id="patch_11">
    <path d="M 388.273438 41.635198 
L 388.273438 15.118125 
" style="fill:none;stroke:#000000;stroke-linecap:square;stroke-linejoin:miter;stroke-width:0.8;"/>
   </g>
   <g id="patch_12">
    <path d="M 53.473438 41.635198 
L 388.273437 41.635198 
" style="fill:none;stroke:#000000;stroke-linecap:square;stroke-linejoin:miter;stroke-width:0.8;"/>
   </g>
   <g id="patch_13">
    <path d="M 53.473438 15.118125 
L 388.273437 15.118125 
" style="fill:none;stroke:#000000;stroke-linecap:square;stroke-linejoin:miter;stroke-width:0.8;"/>
   </g>
   <g id="text_2">
    <text style="font-family:DejaVu Sans;font-size:12px;font-style:normal;font-weight:normal;text-anchor:middle;" transform="rotate(-0, 220.873438, 9.118125)" x="220.873438" y="9.118125">Chr 7</text>
   </g>
  </g>
  <g id="axes_2">
   <g id="patch_14">
    <path d="M 53.473438 73.455686 
L 388.273438 73.455686 
L 388.273438 46.938613 
L 53.473438 46.938613 
z
" style="fill:none;"/>
   </g>
   <g id="patch_15">
    <path clip-path="url(#pd6fa85d17f)" d="M 61.364347 70.803979 
L 106.455256 70.803979 
L 106.455256 57.545442 
L 61.364347 57.545442 
z
" style="fill:#ff0000;stroke:#000000;stroke-linejoin:miter;"/>
   </g>
   <g id="patch_16">
    <path clip-path="url(#pd6fa85d17f)" d="M 106.455256 70.803979 
L 157.182528 70.803979 
L 157.182528 57.545442 
L 106.455256 57.545442 
z
" style="fill:#00ff00;stroke:#000000;stroke-linejoin:miter;"/>
   </g>
   <g id="patch_17">
    <path clip-path="url(#pd6fa85d17f)" d="M 157.182528 70.803979 
L 219.182528 70.803979 
L 219.182528 57.545442 
L 157.182528 57.545442 
z
" style="fill:#ff1ab9;stroke:#000000;stroke-linejoin:miter;"/>
   </g>
   <g id="patch_18">
    <path clip-path="url(#pd6fa85d17f)" d="M 219.182528 70.803979 
L 264.273438 70.803979 
L 264.273438 57.545442 
L 219.182528 57.545442 
z
" style="fill:#ffd300;stroke:#000000;stroke-linejoin:miter;"/>
   </g>
   <g id="patch_19">
    <path clip-path="url(#pd6fa85d17f)" d="M 264.273438 70.803979 
L 315.00071 70.803979 
L 315.00071 57.545442 
L 264.273438 57.545442 
z
" style="fill:#005800;stroke:#000000;stroke-linejoin:miter;"/>
   </g>
   <g id="patch_20">
    <path clip-path="url(#pd6fa85d17f)" d="M 315.00071 70.803979 
L 377.00071 70.803979 
L 377.00071 57.545442 
L 315.00071 57.545442 
z
" style="fill:#8484ff;stroke:#000000;stroke-linejoin:miter;"/>
   </g>
   <g id="matplotlib.axis_3"/>
   <g id="matplotlib.axis_4">
    <g id="ytick_3"/>
    <g id="ytick_4"/>
    <g id="text_3">
     <text style="font-family:DejaVu Sans;font-size:10px;font-style:normal;font-weight:normal;" transform="translate(49.473438 46.919649)"/>
     <text style="font-family:DejaVu Sans;font-size:10px;font-style:normal;font-weight:normal;" transform="translate(41.525 58.117462)">7   </text>
    </g>
   </g>
   <g id="patch_21">
    <path d="M 53.473438 73.455686 
L 53.473438 46.938613 
" style="fill:none;stroke:#000000;stroke-linecap:square;stroke-linejoin:miter;stroke-width:0.8;"/>
   </g>
   <g id="patch_22">
    <path d="M 388.273438 73.455686 
L 388.273438 46.938613 
" style="fill:none;stroke:#000000;stroke-linecap:square;stroke-linejoin:miter;stroke-width:0.8;"/>
   </g>
   <g id="patch_23">
    <path d="M 53.473438 73.455686 
L 388.273437 73.455686 
" style="fill:none;stroke:#000000;stroke-linecap:square;stroke-linejoin:miter;stroke-width:0.8;"/>
   </g>
   <g id="patch_24">
    <path d="M 53.473438 46.938613 
L 388.273437 46.938613 
" style="fill:none;stroke:#000000;stroke-linecap:square;stroke-linejoin:miter;stroke-width:0.8;"/>
   </g>
  </g>
  <g id="axes_3">
   <g id="patch_25">
    <path d="M 53.473438 105.276174 
L 388.273438 105.276174 
L 388.273438 78.759101 
L 53.473438 78.759101 
z
" style="fill:none;"/>
   </g>
   <g id="patch_26">
    <path clip-path="url(#p44704a3c5f)" d="M 61.364347 102.624466 
L 83.909801 102.624466 
L 83.909801 89.36593 
L 61.364347 89.36593 
z
" style="fill:#ff0000;stroke:#000000;stroke-linejoin:miter;"/>
   </g>
   <g id="patch_27">
    <path clip-path="url(#p44704a3c5f)" d="M 83.909801 102.624466 
L 117.727983 102.624466 
L 117.727983 89.36593 
L 83.909801 89.36593 
z
" style="fill:#00ff00;stroke:#000000;stroke-linejoin:miter;"/>
   </g>
   <g id="patch_28">
    <path clip-path="url(#p44704a3c5f)" d="M 117.727983 102.624466 
L 151.546165 102.624466 
L 151.546165 89.36593 
L 117.727983 89.36593 
z
" style="fill:#ff1ab9;stroke:#000000;stroke-linejoin:miter;"/>
   </g>
   <g id="patch_29">
    <path clip-path="url(#p44704a3c5f)" d="M 151.546165 102.624466 
L 196.637074 102.624466 
L 196.637074 89.36593 
L 151.546165 89.36593 
z
" style="fill:#ffd300;stroke:#000000;stroke-linejoin:miter;"/>
   </g>
   <g id="patch_30">
    <path clip-path="url(#p44704a3c5f)" d="M 196.637074 102.624466 
L 281.182528 102.624466 
L 281.182528 89.36593 
L 196.637074 89.36593 
z
" style="fill:#005800;stroke:#000000;stroke-linejoin:miter;"/>
   </g>
   <g id="patch_31">
    <path clip-path="url(#p44704a3c5f)" d="M 281.182528 102.624466 
L 309.364347 102.624466 
L 309.364347 89.36593 
L 281.182528 89.36593 
z
" style="fill:#8484ff;stroke:#000000;stroke-linejoin:miter;"/>
   </g>
   <g id="patch_32">
    <path clip-path="url(#p44704a3c5f)" d="M 309.364347 102.624466 
L 337.546165 102.624466 
L 337.546165 89.36593 
L 309.364347 89.36593 
z
" style="fill:#9e4f46;stroke:#000000;stroke-linejoin:miter;"/>
   </g>
   <g id="patch_33">
    <path clip-path="url(#p44704a3c5f)" d="M 337.546165 102.624466 
L 382.637074 102.624466 
L 382.637074 89.36593 
L 337.546165 89.36593 
z
" style="fill:#00ffc1;stroke:#000000;stroke-linejoin:miter;"/>
   </g>
   <g id="matplotlib.axis_5"/>
   <g id="matplotlib.axis_6">
    <g id="ytick_5"/>
    <g id="ytick_6"/>
    <g id="text_4">
     <text style="font-family:DejaVu Sans;font-size:10px;font-style:normal;font-weight:normal;" transform="translate(49.473438 78.740137)"/>
     <text style="font-family:DejaVu Sans;font-size:10px;font-style:normal;font-weight:normal;" transform="translate(41.525 89.93795)">8   </text>
    </g>
   </g>
   <g id="patch_34">
    <path d="M 53.473438 105.276174 
L 53.473438 78.759101 
" style="fill:none;stroke:#000000;stroke-linecap:square;stroke-linejoin:miter;stroke-width:0.8;"/>
   </g>
   <g id="patch_35">
    <path d="M 388.273438 105.276174 
L 388.273438 78.759101 
" style="fill:none;stroke:#000000;stroke-linecap:square;stroke-linejoin:miter;stroke-width:0.8;"/>
   </g>
   <g id="patch_36">
    <path d="M 53.473438 105.276174 
L 388.273437 105.276174 
" style="fill:none;stroke:#000000;stroke-linecap:square;stroke-linejoin:miter;stroke-width:0.8;"/>
   </g>
   <g id="patch_37">
    <path d="M 53.473438 78.759101 
L 388.273437 78.759101 
" style="fill:none;stroke:#000000;stroke-linecap:square;stroke-linejoin:miter;stroke-width:0.8;"/>
   </g>
  </g>
  <g id="axes_4">
   <g id="patch_38">
    <path d="M 53.473438 137.096662 
L 388.273438 137.096662 
L 388.273438 110.579588 
L 53.473438 110.579588 
z
" style="fill:none;"/>
   </g>
   <g id="patch_39">
    <path clip-path="url(#p896e2b3b2f)" d="M 61.364347 134.444954 
L 100.818892 134.444954 
L 100.818892 121.186418 
L 61.364347 121.186418 
z
" style="fill:#ff0000;stroke:#000000;stroke-linejoin:miter;"/>
   </g>
   <g id="patch_40">
    <path clip-path="url(#p896e2b3b2f)" d="M 100.818892 134.444954 
L 168.455256 134.444954 
L 168.455256 121.186418 
L 100.818892 121.186418 
z
" style="fill:#00ff00;stroke:#000000;stroke-linejoin:miter;"/>
   </g>
   <g id="patch_41">
    <path clip-path="url(#p896e2b3b2f)" d="M 168.455256 134.444954 
L 213.546165 134.444954 
L 213.546165 121.186418 
L 168.455256 121.186418 
z
" style="fill:#ff1ab9;stroke:#000000;stroke-linejoin:miter;"/>
   </g>
   <g id="patch_42">
    <path clip-path="url(#p896e2b3b2f)" d="M 213.546165 134.444954 
L 241.727983 134.444954 
L 241.727983 121.186418 
L 213.546165 121.186418 
z
" style="fill:#ffd300;stroke:#000000;stroke-linejoin:miter;"/>
   </g>
   <g id="patch_43">
    <path clip-path="url(#p896e2b3b2f)" d="M 241.727983 134.444954 
L 258.637074 134.444954 
L 258.637074 121.186418 
L 241.727983 121.186418 
z
" style="fill:#005800;stroke:#000000;stroke-linejoin:miter;"/>
   </g>
   <g id="patch_44">
    <path clip-path="url(#p896e2b3b2f)" d="M 258.637074 134.444954 
L 309.364347 134.444954 
L 309.364347 121.186418 
L 258.637074 121.186418 
z
" style="fill:#8484ff;stroke:#000000;stroke-linejoin:miter;"/>
   </g>
   <g id="patch_45">
    <path clip-path="url(#p896e2b3b2f)" d="M 309.364347 134.444954 
L 382.637074 134.444954 
L 382.637074 121.186418 
L 309.364347 121.186418 
z
" style="fill:#9e4f46;stroke:#000000;stroke-linejoin:miter;"/>
   </g>
   <g id="matplotlib.axis_7"/>
   <g id="matplotlib.axis_8">
    <g id="ytick_7"/>
    <g id="ytick_8"/>
    <g id="text_5">
     <text style="font-family:DejaVu Sans;font-size:10px;font-style:normal;font-weight:normal;" transform="translate(49.473438 110.560625)"/>
     <text style="font-family:DejaVu Sans;font-size:10px;font-style:normal;font-weight:normal;" transform="translate(38.34375 121.758437)">10   </text>
    </g>
   </g>
   <g id="patch_46">
    <path d="M 53.473438 137.096662 
L 53.473438 110.579588 
" style="fill:none;stroke:#000000;stroke-linecap:square;stroke-linejoin:miter;stroke-width:0.8;"/>
   </g>
   <g id="patch_47">
    <path d="M 388.273438 137.096662 
L 388.273438 110.579588 
" style="fill:none;stroke:#000000;stroke-linecap:square;stroke-linejoin:miter;stroke-width:0.8;"/>
   </g>
   <g id="patch_48">
    <path d="M 53.473438 137.096662 
L 388.273437 137.096662 
" style="fill:none;stroke:#000000;stroke-linecap:square;stroke-linejoin:miter;stroke-width:0.8;"/>
   </g>
   <g id="patch_49">
    <path d="M 53.473438 110.579588 
L 388.273437 110.579588 
" style="fill:none;stroke:#000000;stroke-linecap:square;stroke-linejoin:miter;stroke-width:0.8;"/>
   </g>
  </g>
  <g id="axes_5">
   <g id="patch_50">
    <path d="M 53.473438 168.917149 
L 388.273438 168.917149 
L 388.273438 142.400076 
L 53.473438 142.400076 
z
" style="fill:none;"/>
   </g>
   <g id="patch_51">
    <path clip-path="url(#p9398dd8d86)" d="M 61.364347 166.265442 
L 83.909801 166.265442 
L 83.909801 153.006905 
L 61.364347 153.006905 
z
" style="fill:#ff0000;stroke:#000000;stroke-linejoin:miter;"/>
   </g>
   <g id="patch_52">
    <path clip-path="url(#p9398dd8d86)" d="M 83.909801 166.265442 
L 112.091619 166.265442 
L 112.091619 153.006905 
L 83.909801 153.006905 
z
" style="fill:#00ff00;stroke:#000000;stroke-linejoin:miter;"/>
   </g>
   <g id="patch_53">
    <path clip-path="url(#p9398dd8d86)" d="M 112.091619 166.265442 
L 151.546165 166.265442 
L 151.546165 153.006905 
L 112.091619 153.006905 
z
" style="fill:#ff1ab9;stroke:#000000;stroke-linejoin:miter;"/>
   </g>
   <g id="patch_54">
    <path clip-path="url(#p9398dd8d86)" d="M 151.546165 166.265442 
L 207.909801 166.265442 
L 207.909801 153.006905 
L 151.546165 153.006905 
z
" style="fill:#ffd300;stroke:#000000;stroke-linejoin:miter;"/>
   </g>
   <g id="patch_55">
    <path clip-path="url(#p9398dd8d86)" d="M 207.909801 166.265442 
L 258.637074 166.265442 
L 258.637074 153.006905 
L 207.909801 153.006905 
z
" style="fill:#005800;stroke:#000000;stroke-linejoin:miter;"/>
   </g>
   <g id="patch_56">
    <path clip-path="url(#p9398dd8d86)" d="M 258.637074 166.265442 
L 292.455256 166.265442 
L 292.455256 153.006905 
L 258.637074 153.006905 
z
" style="fill:#8484ff;stroke:#000000;stroke-linejoin:miter;"/>
   </g>
   <g id="patch_57">
    <path clip-path="url(#p9398dd8d86)" d="M 292.455256 166.265442 
L 326.273438 166.265442 
L 326.273438 153.006905 
L 292.455256 153.006905 
z
" style="fill:#9e4f46;stroke:#000000;stroke-linejoin:miter;"/>
   </g>
   <g id="patch_58">
    <path clip-path="url(#p9398dd8d86)" d="M 326.273437 166.265442 
L 377.00071 166.265442 
L 377.00071 153.006905 
L 326.273437 153.006905 
z
" style="fill:#00ffc1;stroke:#000000;stroke-linejoin:miter;"/>
   </g>
   <g id="matplotlib.axis_9"/>
   <g id="matplotlib.axis_10">
    <g id="ytick_9"/>
    <g id="ytick_10"/>
    <g id="text_6">
     <text style="font-family:DejaVu Sans;font-size:10px;font-style:normal;font-weight:normal;" transform="translate(49.473438 142.381113)"/>
     <text style="font-family:DejaVu Sans;font-size:10px;font-style:normal;font-weight:normal;" transform="translate(38.34375 153.578925)">14   </text>
    </g>
   </g>
   <g id="patch_59">
    <path d="M 53.473438 168.917149 
L 53.473438 142.400076 
" style="fill:none;stroke:#000000;stroke-linecap:square;stroke-linejoin:miter;stroke-width:0.8;"/>
   </g>
   <g id="patch_60">
    <path d="M 388.273438 168.917149 
L 388.273438 142.400076 
" style="fill:none;stroke:#000000;stroke-linecap:square;stroke-linejoin:miter;stroke-width:0.8;"/>
   </g>
   <g id="patch_61">
    <path d="M 53.473438 168.917149 
L 388.273437 168.917149 
" style="fill:none;stroke:#000000;stroke-linecap:square;stroke-linejoin:miter;stroke-width:0.8;"/>
   </g>
   <g id="patch_62">
    <path d="M 53.473438 142.400076 
L 388.273437 142.400076 
" style="fill:none;stroke:#000000;stroke-linecap:square;stroke-linejoin:miter;stroke-width:0.8;"/>
   </g>
  </g>
  <g id="axes_6">
   <g id="patch_63">
    <path d="M 53.473438 200.737637 
L 388.273438 200.737637 
L 388.273438 174.220564 
L 53.473438 174.220564 
z
" style="fill:none;"/>
   </g>
   <g id="patch_64">
    <path clip-path="url(#p261ad397c2)" d="M 61.364347 198.08593 
L 100.818892 198.08593 
L 100.818892 184.827393 
L 61.364347 184.827393 
z
" style="fill:#ff0000;stroke:#000000;stroke-linejoin:miter;"/>
   </g>
   <g id="patch_65">
    <path clip-path="url(#p261ad397c2)" d="M 100.818892 198.08593 
L 151.546165 198.08593 
L 151.546165 184.827393 
L 100.818892 184.827393 
z
" style="fill:#00ff00;stroke:#000000;stroke-linejoin:miter;"/>
   </g>
   <g id="patch_66">
    <path clip-path="url(#p261ad397c2)" d="M 151.546165 198.08593 
L 191.00071 198.08593 
L 191.00071 184.827393 
L 151.546165 184.827393 
z
" style="fill:#ff1ab9;stroke:#000000;stroke-linejoin:miter;"/>
   </g>
   <g id="patch_67">
    <path clip-path="url(#p261ad397c2)" d="M 191.00071 198.08593 
L 264.273438 198.08593 
L 264.273438 184.827393 
L 191.00071 184.827393 
z
" style="fill:#ffd300;stroke:#000000;stroke-linejoin:miter;"/>
   </g>
   <g id="patch_68">
    <path clip-path="url(#p261ad397c2)" d="M 264.273438 198.08593 
L 303.727983 198.08593 
L 303.727983 184.827393 
L 264.273438 184.827393 
z
" style="fill:#005800;stroke:#000000;stroke-linejoin:miter;"/>
   </g>
   <g id="patch_69">
    <path clip-path="url(#p261ad397c2)" d="M 303.727983 198.08593 
L 331.909801 198.08593 
L 331.909801 184.827393 
L 303.727983 184.827393 
z
" style="fill:#8484ff;stroke:#000000;stroke-linejoin:miter;"/>
   </g>
   <g id="patch_70">
    <path clip-path="url(#p261ad397c2)" d="M 331.909801 198.08593 
L 371.364347 198.08593 
L 371.364347 184.827393 
L 331.909801 184.827393 
z
" style="fill:#9e4f46;stroke:#000000;stroke-linejoin:miter;"/>
   </g>
   <g id="matplotlib.axis_11"/>
   <g id="matplotlib.axis_12">
    <g id="ytick_11"/>
    <g id="ytick_12"/>
    <g id="text_7">
     <text style="font-family:DejaVu Sans;font-size:10px;font-style:normal;font-weight:normal;" transform="translate(49.473438 174.201601)"/>
     <text style="font-family:DejaVu Sans;font-size:10px;font-style:normal;font-weight:normal;" transform="translate(38.34375 185.399413)">18   </text>
    </g>
   </g>
   <g id="patch_71">
    <path d="M 53.473438 200.737637 
L 53.473438 174.220564 
" style="fill:none;stroke:#000000;stroke-linecap:square;stroke-linejoin:miter;stroke-width:0.8;"/>
   </g>
   <g id="patch_72">
    <path d="M 388.273438 200.737637 
L 388.273438 174.220564 
" style="fill:none;stroke:#000000;stroke-linecap:square;stroke-linejoin:miter;stroke-width:0.8;"/>
   </g>
   <g id="patch_73">
    <path d="M 53.473438 200.737637 
L 388.273437 200.737637 
" style="fill:none;stroke:#000000;stroke-linecap:square;stroke-linejoin:miter;stroke-width:0.8;"/>
   </g>
   <g id="patch_74">
    <path d="M 53.473438 174.220564 
L 388.273437 174.220564 
" style="fill:none;stroke:#000000;stroke-linecap:square;stroke-linejoin:miter;stroke-width:0.8;"/>
   </g>
  </g>
  <g id="axes_7">
   <g id="patch_75">
    <path d="M 53.473438 232.558125 
L 388.273438 232.558125 
L 388.273438 206.041052 
L 53.473438 206.041052 
z
" style="fill:none;"/>
   </g>
   <g id="patch_76">
    <path clip-path="url(#p87671cf1e9)" d="M 61.364347 229.906418 
L 123.364347 229.906418 
L 123.364347 216.647881 
L 61.364347 216.647881 
z
" style="fill:#ff0000;stroke:#000000;stroke-linejoin:miter;"/>
   </g>
   <g id="patch_77">
    <path clip-path="url(#p87671cf1e9)" d="M 123.364347 229.906418 
L 179.727983 229.906418 
L 179.727983 216.647881 
L 123.364347 216.647881 
z
" style="fill:#00ff00;stroke:#000000;stroke-linejoin:miter;"/>
   </g>
   <g id="patch_78">
    <path clip-path="url(#p87671cf1e9)" d="M 179.727983 229.906418 
L 207.909801 229.906418 
L 207.909801 216.647881 
L 179.727983 216.647881 
z
" style="fill:#ff1ab9;stroke:#000000;stroke-linejoin:miter;"/>
   </g>
   <g id="patch_79">
    <path clip-path="url(#p87671cf1e9)" d="M 207.909801 229.906418 
L 241.727983 229.906418 
L 241.727983 216.647881 
L 207.909801 216.647881 
z
" style="fill:#ffd300;stroke:#000000;stroke-linejoin:miter;"/>
   </g>
   <g id="patch_80">
    <path clip-path="url(#p87671cf1e9)" d="M 241.727983 229.906418 
L 281.182528 229.906418 
L 281.182528 216.647881 
L 241.727983 216.647881 
z
" style="fill:#005800;stroke:#000000;stroke-linejoin:miter;"/>
   </g>
   <g id="patch_81">
    <path clip-path="url(#p87671cf1e9)" d="M 281.182528 229.906418 
L 326.273437 229.906418 
L 326.273437 216.647881 
L 281.182528 216.647881 
z
" style="fill:#8484ff;stroke:#000000;stroke-linejoin:miter;"/>
   </g>
   <g id="patch_82">
    <path clip-path="url(#p87671cf1e9)" d="M 326.273437 229.906418 
L 382.637074 229.906418 
L 382.637074 216.647881 
L 326.273437 216.647881 
z
" style="fill:#9e4f46;stroke:#000000;stroke-linejoin:miter;"/>
   </g>
   <g id="matplotlib.axis_13">
    <g id="xtick_1">
     <g id="line2d_1">
      <defs>
       <path d="M 0 0 
L 0 3.5 
" id="mbe43b73b94" style="stroke:#000000;stroke-width:0.8;"/>
      </defs>
      <g>
       <use style="stroke:#000000;stroke-width:0.8;" x="55.727983" xlink:href="#mbe43b73b94" y="232.558125"/>
      </g>
     </g>
     <g id="text_8">
      <text style="font-family:DejaVu Sans;font-size:10px;font-style:normal;font-weight:normal;text-anchor:middle;" transform="rotate(-0, 55.727983, 247.156563)" x="55.727983" y="247.156563">0</text>
     </g>
    </g>
    <g id="xtick_2">
     <g id="line2d_2">
      <g>
       <use style="stroke:#000000;stroke-width:0.8;" x="100.818892" xlink:href="#mbe43b73b94" y="232.558125"/>
      </g>
     </g>
     <g id="text_9">
      <text style="font-family:DejaVu Sans;font-size:10px;font-style:normal;font-weight:normal;text-anchor:middle;" transform="rotate(-0, 100.818892, 247.156563)" x="100.818892" y="247.156563">20</text>
     </g>
    </g>
    <g id="xtick_3">
     <g id="line2d_3">
      <g>
       <use style="stroke:#000000;stroke-width:0.8;" x="145.909801" xlink:href="#mbe43b73b94" y="232.558125"/>
      </g>
     </g>
     <g id="text_10">
      <text style="font-family:DejaVu Sans;font-size:10px;font-style:normal;font-weight:normal;text-anchor:middle;" transform="rotate(-0, 145.909801, 247.156563)" x="145.909801" y="247.156563">40</text>
     </g>
    </g>
    <g id="xtick_4">
     <g id="line2d_4">
      <g>
       <use style="stroke:#000000;stroke-width:0.8;" x="191.00071" xlink:href="#mbe43b73b94" y="232.558125"/>
      </g>
     </g>
     <g id="text_11">
      <text style="font-family:DejaVu Sans;font-size:10px;font-style:normal;font-weight:normal;text-anchor:middle;" transform="rotate(-0, 191.00071, 247.156563)" x="191.00071" y="247.156563">60</text>
     </g>
    </g>
    <g id="xtick_5">
     <g id="line2d_5">
      <g>
       <use style="stroke:#000000;stroke-width:0.8;" x="236.091619" xlink:href="#mbe43b73b94" y="232.558125"/>
      </g>
     </g>
     <g id="text_12">
      <text style="font-family:DejaVu Sans;font-size:10px;font-style:normal;font-weight:normal;text-anchor:middle;" transform="rotate(-0, 236.091619, 247.156563)" x="236.091619" y="247.156563">80</text>
     </g>
    </g>
    <g id="xtick_6">
     <g id="line2d_6">
      <g>
       <use style="stroke:#000000;stroke-width:0.8;" x="281.182528" xlink:href="#mbe43b73b94" y="232.558125"/>
      </g>
     </g>
     <g id="text_13">
      <text style="font-family:DejaVu Sans;font-size:10px;font-style:normal;font-weight:normal;text-anchor:middle;" transform="rotate(-0, 281.182528, 247.156563)" x="281.182528" y="247.156563">100</text>
     </g>
    </g>
    <g id="xtick_7">
     <g id="line2d_7">
      <g>
       <use style="stroke:#000000;stroke-width:0.8;" x="326.273437" xlink:href="#mbe43b73b94" y="232.558125"/>
      </g>
     </g>
     <g id="text_14">
      <text style="font-family:DejaVu Sans;font-size:10px;font-style:normal;font-weight:normal;text-anchor:middle;" transform="rotate(-0, 326.273437, 247.156563)" x="326.273437" y="247.156563">120</text>
     </g>
    </g>
    <g id="xtick_8">
     <g id="line2d_8">
      <g>
       <use style="stroke:#000000;stroke-width:0.8;" x="371.364347" xlink:href="#mbe43b73b94" y="232.558125"/>
      </g>
     </g>
     <g id="text_15">
      <text style="font-family:DejaVu Sans;font-size:10px;font-style:normal;font-weight:normal;text-anchor:middle;" transform="rotate(-0, 371.364347, 247.156563)" x="371.364347" y="247.156563">140</text>
     </g>
    </g>
    <g id="text_16">
     <text style="font-family:DejaVu Sans;font-size:10px;font-style:normal;font-weight:normal;text-anchor:middle;" transform="rotate(-0, 220.873438, 260.834688)" x="220.873438" y="260.834688">Genomic Position [Mb]</text>
    </g>
   </g>
   <g id="matplotlib.axis_14">
    <g id="ytick_13"/>
    <g id="ytick_14"/>
    <g id="text_17">
     <text style="font-family:DejaVu Sans;font-size:10px;font-style:normal;font-weight:normal;" transform="translate(49.473438 206.022088)"/>
     <text style="font-family:DejaVu Sans;font-size:10px;font-style:normal;font-weight:normal;" transform="translate(38.34375 217.219901)">24   </text>
    </g>
   </g>
   <g id="patch_83">
    <path d="M 53.473438 232.558125 
L 53.473438 206.041052 
" style="fill:none;stroke:#000000;stroke-linecap:square;stroke-linejoin:miter;stroke-width:0.8;"/>
   </g>
   <g id="patch_84">
    <path d="M 388.273438 232.558125 
L 388.273438 206.041052 
" style="fill:none;stroke:#000000;stroke-linecap:square;stroke-linejoin:miter;stroke-width:0.8;"/>
   </g>
   <g id="patch_85">
    <path d="M 53.473438 232.558125 
L 388.273437 232.558125 
" style="fill:none;stroke:#000000;stroke-linecap:square;stroke-linejoin:miter;stroke-width:0.8;"/>
   </g>
   <g id="patch_86">
    <path d="M 53.473438 206.041052 
L 388.273437 206.041052 
" style="fill:none;stroke:#000000;stroke-linecap:square;stroke-linejoin:miter;stroke-width:0.8;"/>
   </g>
  </g>
 </g>
 <defs>
  <clipPath id="p54f2c4787e">
   <rect height="26.517073" width="334.8" x="53.473438" y="15.118125"/>
  </clipPath>
  <clipPath id="pd6fa85d17f">
   <rect height="26.517073" width="334.8" x="53.473438" y="46.938613"/>
  </clipPath>
  <clipPath id="p44704a3c5f">
   <rect height="26.517073" width="334.8" x="53.473438" y="78.759101"/>
  </clipPath>
  <clipPath id="p896e2b3b2f">
   <rect height="26.517073" width="334.8" x="53.473438" y="110.579588"/>
  </clipPath>
  <clipPath id="p9398dd8d86">
   <rect height="26.517073" width="334.8" x="53.473438" y="142.400076"/>
  </clipPath>
  <clipPath id="p261ad397c2">
   <rect height="26.517073" width="334.8" x="53.473438" y="174.220564"/>
  </clipPath>
  <clipPath id="p87671cf1e9">
   <rect height="26.517073" width="334.8" x="53.473438" y="206.041052"/>
  </clipPath>
 </defs>
</svg>
