<?xml version="1.0" encoding="utf-8" standalone="no"?>
<!DOCTYPE svg PUBLIC "-//W3C//DTD SVG 1.1//EN"
  "http://www.w3.org/Graphics/SVG/1.1/DTD/svg11.dtd">
<!-- Created with matplotlib (https://matplotlib.org/) -->
<svg height="262.914375pt" version="1.1" viewBox="0 0 391.03986 262.914375" width="391.03986pt" xmlns="http://www.w3.org/2000/svg" xmlns:xlink="http://www.w3.org/1999/xlink">
 <defs>
  <style type="text/css">
*{stroke-linecap:butt;stroke-linejoin:round;}
  </style>
 </defs>
 <g id="figure_1">
  <g id="patch_1">
   <path d="M 0 262.914375 
L 391.03986 262.914375 
L 391.03986 0 
L 0 0 
z
" style="fill:none;"/>
  </g>
  <g id="axes_1">
   <g id="patch_2">
    <path d="M 53.473438 31.844279 
L 388.273438 31.844279 
L 388.273438 15.118125 
L 53.473438 15.118125 
z
" style="fill:none;"/>
   </g>
   <g id="patch_3">
    <path clip-path="url(#pc83ae792b9)" d="M 62.961697 30.171663 
L 137.512304 30.171663 
L 137.512304 21.808587 
L 62.961697 21.808587 
z
" style="fill:#ff0000;stroke:#000000;stroke-linejoin:miter;"/>
   </g>
   <g id="patch_4">
    <path clip-path="url(#pc83ae792b9)" d="M 137.512304 30.171663 
L 198.508255 30.171663 
L 198.508255 21.808587 
L 137.512304 21.808587 
z
" style="fill:#00ff00;stroke:#000000;stroke-linejoin:miter;"/>
   </g>
   <g id="patch_5">
    <path clip-path="url(#pc83ae792b9)" d="M 198.508255 30.171663 
L 225.617567 30.171663 
L 225.617567 21.808587 
L 198.508255 21.808587 
z
" style="fill:#ff1ab9;stroke:#000000;stroke-linejoin:miter;"/>
   </g>
   <g id="patch_6">
    <path clip-path="url(#pc83ae792b9)" d="M 225.617567 30.171663 
L 306.945502 30.171663 
L 306.945502 21.808587 
L 225.617567 21.808587 
z
" style="fill:#ffd300;stroke:#000000;stroke-linejoin:miter;"/>
   </g>
   <g id="patch_7">
    <path clip-path="url(#pc83ae792b9)" d="M 306.945502 30.171663 
L 374.718782 30.171663 
L 374.718782 21.808587 
L 306.945502 21.808587 
z
" style="fill:#005800;stroke:#000000;stroke-linejoin:miter;"/>
   </g>
   <g id="matplotlib.axis_1"/>
   <g id="matplotlib.axis_2">
    <g id="ytick_1"/>
    <g id="ytick_2"/>
    <g id="text_1">
     <text style="font-family:DejaVu Sans;font-size:10px;font-style:normal;font-weight:normal;text-anchor:middle;" transform="rotate(-0, 49.473438, 21.401514)" x="49.473438" y="21.401514">Embryo 4                </text>
    </g>
   </g>
   <g id="patch_8">
    <path d="M 53.473438 31.844279 
L 53.473438 15.118125 
" style="fill:none;stroke:#000000;stroke-linecap:square;stroke-linejoin:miter;stroke-width:0.8;"/>
   </g>
   <g id="patch_9">
    <path d="M 388.273438 31.844279 
L 388.273438 15.118125 
" style="fill:none;stroke:#000000;stroke-linecap:square;stroke-linejoin:miter;stroke-width:0.8;"/>
   </g>
   <g id="patch_10">
    <path d="M 53.473438 31.844279 
L 388.273438 31.844279 
" style="fill:none;stroke:#000000;stroke-linecap:square;stroke-linejoin:miter;stroke-width:0.8;"/>
   </g>
   <g id="patch_11">
    <path d="M 53.473438 15.118125 
L 388.273438 15.118125 
" style="fill:none;stroke:#000000;stroke-linecap:square;stroke-linejoin:miter;stroke-width:0.8;"/>
   </g>
   <g id="text_2">
    <text style="font-family:DejaVu Sans;font-size:12px;font-style:normal;font-weight:normal;text-anchor:middle;" transform="rotate(-0, 220.873438, 9.118125)" x="220.873438" y="9.118125">Chr 13</text>
   </g>
  </g>
  <g id="axes_2">
   <g id="patch_12">
    <path d="M 53.473438 51.915663 
L 388.273438 51.915663 
L 388.273438 35.18951 
L 53.473438 35.18951 
z
" style="fill:none;"/>
   </g>
   <g id="patch_13">
    <path clip-path="url(#p121c4f7e6a)" d="M 62.961697 50.243048 
L 184.953599 50.243048 
L 184.953599 41.879971 
L 62.961697 41.879971 
z
" style="fill:#ff0000;stroke:#000000;stroke-linejoin:miter;"/>
   </g>
   <g id="patch_14">
    <path clip-path="url(#p121c4f7e6a)" d="M 184.953599 50.243048 
L 218.840239 50.243048 
L 218.840239 41.879971 
L 184.953599 41.879971 
z
" style="fill:#00ff00;stroke:#000000;stroke-linejoin:miter;"/>
   </g>
   <g id="patch_15">
    <path clip-path="url(#p121c4f7e6a)" d="M 218.840239 50.243048 
L 259.504207 50.243048 
L 259.504207 41.879971 
L 218.840239 41.879971 
z
" style="fill:#ff1ab9;stroke:#000000;stroke-linejoin:miter;"/>
   </g>
   <g id="patch_16">
    <path clip-path="url(#p121c4f7e6a)" d="M 259.504207 50.243048 
L 347.60947 50.243048 
L 347.60947 41.879971 
L 259.504207 41.879971 
z
" style="fill:#ffd300;stroke:#000000;stroke-linejoin:miter;"/>
   </g>
   <g id="patch_17">
    <path clip-path="url(#p121c4f7e6a)" d="M 347.60947 50.243048 
L 374.718782 50.243048 
L 374.718782 41.879971 
L 347.60947 41.879971 
z
" style="fill:#005800;stroke:#000000;stroke-linejoin:miter;"/>
   </g>
   <g id="matplotlib.axis_3"/>
   <g id="matplotlib.axis_4">
    <g id="ytick_3"/>
    <g id="ytick_4"/>
    <g id="text_3">
     <text style="font-family:DejaVu Sans;font-size:10px;font-style:normal;font-weight:normal;" transform="translate(49.473438 30.275087)"/>
     <text style="font-family:DejaVu Sans;font-size:10px;font-style:normal;font-weight:normal;" transform="translate(41.525 41.472899)">6   </text>
    </g>
   </g>
   <g id="patch_18">
    <path d="M 53.473438 51.915663 
L 53.473438 35.18951 
" style="fill:none;stroke:#000000;stroke-linecap:square;stroke-linejoin:miter;stroke-width:0.8;"/>
   </g>
   <g id="patch_19">
    <path d="M 388.273438 51.915663 
L 388.273438 35.18951 
" style="fill:none;stroke:#000000;stroke-linecap:square;stroke-linejoin:miter;stroke-width:0.8;"/>
   </g>
   <g id="patch_20">
    <path d="M 53.473438 51.915663 
L 388.273438 51.915663 
" style="fill:none;stroke:#000000;stroke-linecap:square;stroke-linejoin:miter;stroke-width:0.8;"/>
   </g>
   <g id="patch_21">
    <path d="M 53.473438 35.18951 
L 388.273438 35.18951 
" style="fill:none;stroke:#000000;stroke-linecap:square;stroke-linejoin:miter;stroke-width:0.8;"/>
   </g>
  </g>
  <g id="axes_3">
   <g id="patch_22">
    <path d="M 53.473438 71.987048 
L 388.273438 71.987048 
L 388.273438 55.260894 
L 53.473438 55.260894 
z
" style="fill:none;"/>
   </g>
   <g id="patch_23">
    <path clip-path="url(#pd5927a253b)" d="M 62.961697 70.314433 
L 117.18032 70.314433 
L 117.18032 61.951356 
L 62.961697 61.951356 
z
" style="fill:#ff0000;stroke:#000000;stroke-linejoin:miter;"/>
   </g>
   <g id="patch_24">
    <path clip-path="url(#pd5927a253b)" d="M 117.18032 70.314433 
L 225.617567 70.314433 
L 225.617567 61.951356 
L 117.18032 61.951356 
z
" style="fill:#00ff00;stroke:#000000;stroke-linejoin:miter;"/>
   </g>
   <g id="patch_25">
    <path clip-path="url(#pd5927a253b)" d="M 225.617567 70.314433 
L 266.281535 70.314433 
L 266.281535 61.951356 
L 225.617567 61.951356 
z
" style="fill:#ff1ab9;stroke:#000000;stroke-linejoin:miter;"/>
   </g>
   <g id="patch_26">
    <path clip-path="url(#pd5927a253b)" d="M 266.281535 70.314433 
L 374.718782 70.314433 
L 374.718782 61.951356 
L 266.281535 61.951356 
z
" style="fill:#ffd300;stroke:#000000;stroke-linejoin:miter;"/>
   </g>
   <g id="matplotlib.axis_5"/>
   <g id="matplotlib.axis_6">
    <g id="ytick_5"/>
    <g id="ytick_6"/>
    <g id="text_4">
     <text style="font-family:DejaVu Sans;font-size:10px;font-style:normal;font-weight:normal;" transform="translate(49.473438 50.346471)"/>
     <text style="font-family:DejaVu Sans;font-size:10px;font-style:normal;font-weight:normal;" transform="translate(41.525 61.544284)">7   </text>
    </g>
   </g>
   <g id="patch_27">
    <path d="M 53.473438 71.987048 
L 53.473438 55.260894 
" style="fill:none;stroke:#000000;stroke-linecap:square;stroke-linejoin:miter;stroke-width:0.8;"/>
   </g>
   <g id="patch_28">
    <path d="M 388.273438 71.987048 
L 388.273438 55.260894 
" style="fill:none;stroke:#000000;stroke-linecap:square;stroke-linejoin:miter;stroke-width:0.8;"/>
   </g>
   <g id="patch_29">
    <path d="M 53.473438 71.987048 
L 388.273438 71.987048 
" style="fill:none;stroke:#000000;stroke-linecap:square;stroke-linejoin:miter;stroke-width:0.8;"/>
   </g>
   <g id="patch_30">
    <path d="M 53.473438 55.260894 
L 388.273438 55.260894 
" style="fill:none;stroke:#000000;stroke-linecap:square;stroke-linejoin:miter;stroke-width:0.8;"/>
   </g>
  </g>
  <g id="axes_4">
   <g id="patch_31">
    <path d="M 53.473438 92.058433 
L 388.273438 92.058433 
L 388.273438 75.332279 
L 53.473438 75.332279 
z
" style="fill:none;"/>
   </g>
   <g id="patch_32">
    <path clip-path="url(#p6c7332d5df)" d="M 62.961697 90.385817 
L 130.734976 90.385817 
L 130.734976 82.02274 
L 62.961697 82.02274 
z
" style="fill:#ff0000;stroke:#000000;stroke-linejoin:miter;"/>
   </g>
   <g id="patch_33">
    <path clip-path="url(#p6c7332d5df)" d="M 130.734976 90.385817 
L 164.621616 90.385817 
L 164.621616 82.02274 
L 130.734976 82.02274 
z
" style="fill:#00ff00;stroke:#000000;stroke-linejoin:miter;"/>
   </g>
   <g id="patch_34">
    <path clip-path="url(#p6c7332d5df)" d="M 164.621616 90.385817 
L 232.394895 90.385817 
L 232.394895 82.02274 
L 164.621616 82.02274 
z
" style="fill:#ff1ab9;stroke:#000000;stroke-linejoin:miter;"/>
   </g>
   <g id="patch_35">
    <path clip-path="url(#p6c7332d5df)" d="M 232.394895 90.385817 
L 279.836191 90.385817 
L 279.836191 82.02274 
L 232.394895 82.02274 
z
" style="fill:#ffd300;stroke:#000000;stroke-linejoin:miter;"/>
   </g>
   <g id="patch_36">
    <path clip-path="url(#p6c7332d5df)" d="M 279.836191 90.385817 
L 340.832142 90.385817 
L 340.832142 82.02274 
L 279.836191 82.02274 
z
" style="fill:#005800;stroke:#000000;stroke-linejoin:miter;"/>
   </g>
   <g id="patch_37">
    <path clip-path="url(#p6c7332d5df)" d="M 340.832142 90.385817 
L 374.718782 90.385817 
L 374.718782 82.02274 
L 340.832142 82.02274 
z
" style="fill:#8484ff;stroke:#000000;stroke-linejoin:miter;"/>
   </g>
   <g id="matplotlib.axis_7"/>
   <g id="matplotlib.axis_8">
    <g id="ytick_7"/>
    <g id="ytick_8"/>
    <g id="text_5">
     <text style="font-family:DejaVu Sans;font-size:10px;font-style:normal;font-weight:normal;" transform="translate(49.473438 70.417856)"/>
     <text style="font-family:DejaVu Sans;font-size:10px;font-style:normal;font-weight:normal;" transform="translate(41.525 81.615668)">8   </text>
    </g>
   </g>
   <g id="patch_38">
    <path d="M 53.473438 92.058433 
L 53.473438 75.332279 
" style="fill:none;stroke:#000000;stroke-linecap:square;stroke-linejoin:miter;stroke-width:0.8;"/>
   </g>
   <g id="patch_39">
    <path d="M 388.273438 92.058433 
L 388.273438 75.332279 
" style="fill:none;stroke:#000000;stroke-linecap:square;stroke-linejoin:miter;stroke-width:0.8;"/>
   </g>
   <g id="patch_40">
    <path d="M 53.473438 92.058433 
L 388.273438 92.058433 
" style="fill:none;stroke:#000000;stroke-linecap:square;stroke-linejoin:miter;stroke-width:0.8;"/>
   </g>
   <g id="patch_41">
    <path d="M 53.473438 75.332279 
L 388.273438 75.332279 
" style="fill:none;stroke:#000000;stroke-linecap:square;stroke-linejoin:miter;stroke-width:0.8;"/>
   </g>
  </g>
  <g id="axes_5">
   <g id="patch_42">
    <path d="M 53.473438 112.129817 
L 388.273438 112.129817 
L 388.273438 95.403663 
L 53.473438 95.403663 
z
" style="fill:none;"/>
   </g>
   <g id="patch_43">
    <path clip-path="url(#p98dee54d3d)" d="M 62.961697 110.457202 
L 110.402992 110.457202 
L 110.402992 102.094125 
L 62.961697 102.094125 
z
" style="fill:#ff0000;stroke:#000000;stroke-linejoin:miter;"/>
   </g>
   <g id="patch_44">
    <path clip-path="url(#p98dee54d3d)" d="M 110.402992 110.457202 
L 225.617567 110.457202 
L 225.617567 102.094125 
L 110.402992 102.094125 
z
" style="fill:#00ff00;stroke:#000000;stroke-linejoin:miter;"/>
   </g>
   <g id="patch_45">
    <path clip-path="url(#p98dee54d3d)" d="M 225.617567 110.457202 
L 252.726879 110.457202 
L 252.726879 102.094125 
L 225.617567 102.094125 
z
" style="fill:#ff1ab9;stroke:#000000;stroke-linejoin:miter;"/>
   </g>
   <g id="patch_46">
    <path clip-path="url(#p98dee54d3d)" d="M 252.726879 110.457202 
L 286.613518 110.457202 
L 286.613518 102.094125 
L 252.726879 102.094125 
z
" style="fill:#ffd300;stroke:#000000;stroke-linejoin:miter;"/>
   </g>
   <g id="patch_47">
    <path clip-path="url(#p98dee54d3d)" d="M 286.613518 110.457202 
L 327.277486 110.457202 
L 327.277486 102.094125 
L 286.613518 102.094125 
z
" style="fill:#005800;stroke:#000000;stroke-linejoin:miter;"/>
   </g>
   <g id="patch_48">
    <path clip-path="url(#p98dee54d3d)" d="M 327.277486 110.457202 
L 374.718782 110.457202 
L 374.718782 102.094125 
L 327.277486 102.094125 
z
" style="fill:#8484ff;stroke:#000000;stroke-linejoin:miter;"/>
   </g>
   <g id="matplotlib.axis_9"/>
   <g id="matplotlib.axis_10">
    <g id="ytick_9"/>
    <g id="ytick_10"/>
    <g id="text_6">
     <text style="font-family:DejaVu Sans;font-size:10px;font-style:normal;font-weight:normal;" transform="translate(49.473438 90.48924)"/>
     <text style="font-family:DejaVu Sans;font-size:10px;font-style:normal;font-weight:normal;" transform="translate(38.34375 101.687053)">10   </text>
    </g>
   </g>
   <g id="patch_49">
    <path d="M 53.473438 112.129817 
L 53.473438 95.403663 
" style="fill:none;stroke:#000000;stroke-linecap:square;stroke-linejoin:miter;stroke-width:0.8;"/>
   </g>
   <g id="patch_50">
    <path d="M 388.273438 112.129817 
L 388.273438 95.403663 
" style="fill:none;stroke:#000000;stroke-linecap:square;stroke-linejoin:miter;stroke-width:0.8;"/>
   </g>
   <g id="patch_51">
    <path d="M 53.473438 112.129817 
L 388.273438 112.129817 
" style="fill:none;stroke:#000000;stroke-linecap:square;stroke-linejoin:miter;stroke-width:0.8;"/>
   </g>
   <g id="patch_52">
    <path d="M 53.473438 95.403663 
L 388.273438 95.403663 
" style="fill:none;stroke:#000000;stroke-linecap:square;stroke-linejoin:miter;stroke-width:0.8;"/>
   </g>
  </g>
  <g id="axes_6">
   <g id="patch_53">
    <path d="M 53.473438 132.201202 
L 388.273438 132.201202 
L 388.273438 115.475048 
L 53.473438 115.475048 
z
" style="fill:none;"/>
   </g>
   <g id="patch_54">
    <path clip-path="url(#p17cc1799cf)" d="M 62.961697 130.528587 
L 130.734976 130.528587 
L 130.734976 122.16551 
L 62.961697 122.16551 
z
" style="fill:#ff0000;stroke:#000000;stroke-linejoin:miter;"/>
   </g>
   <g id="patch_55">
    <path clip-path="url(#p17cc1799cf)" d="M 130.734976 130.528587 
L 191.730927 130.528587 
L 191.730927 122.16551 
L 130.734976 122.16551 
z
" style="fill:#00ff00;stroke:#000000;stroke-linejoin:miter;"/>
   </g>
   <g id="patch_56">
    <path clip-path="url(#p17cc1799cf)" d="M 191.730927 130.528587 
L 245.949551 130.528587 
L 245.949551 122.16551 
L 191.730927 122.16551 
z
" style="fill:#ff1ab9;stroke:#000000;stroke-linejoin:miter;"/>
   </g>
   <g id="patch_57">
    <path clip-path="url(#p17cc1799cf)" d="M 245.949551 130.528587 
L 320.500158 130.528587 
L 320.500158 122.16551 
L 245.949551 122.16551 
z
" style="fill:#ffd300;stroke:#000000;stroke-linejoin:miter;"/>
   </g>
   <g id="patch_58">
    <path clip-path="url(#p17cc1799cf)" d="M 320.500158 130.528587 
L 374.718782 130.528587 
L 374.718782 122.16551 
L 320.500158 122.16551 
z
" style="fill:#005800;stroke:#000000;stroke-linejoin:miter;"/>
   </g>
   <g id="matplotlib.axis_11"/>
   <g id="matplotlib.axis_12">
    <g id="ytick_11"/>
    <g id="ytick_12"/>
    <g id="text_7">
     <text style="font-family:DejaVu Sans;font-size:10px;font-style:normal;font-weight:normal;" transform="translate(49.473438 110.560625)"/>
     <text style="font-family:DejaVu Sans;font-size:10px;font-style:normal;font-weight:normal;" transform="translate(38.34375 121.758438)">11   </text>
    </g>
   </g>
   <g id="patch_59">
    <path d="M 53.473438 132.201202 
L 53.473438 115.475048 
" style="fill:none;stroke:#000000;stroke-linecap:square;stroke-linejoin:miter;stroke-width:0.8;"/>
   </g>
   <g id="patch_60">
    <path d="M 388.273438 132.201202 
L 388.273438 115.475048 
" style="fill:none;stroke:#000000;stroke-linecap:square;stroke-linejoin:miter;stroke-width:0.8;"/>
   </g>
   <g id="patch_61">
    <path d="M 53.473438 132.201202 
L 388.273438 132.201202 
" style="fill:none;stroke:#000000;stroke-linecap:square;stroke-linejoin:miter;stroke-width:0.8;"/>
   </g>
   <g id="patch_62">
    <path d="M 53.473438 115.475048 
L 388.273438 115.475048 
" style="fill:none;stroke:#000000;stroke-linecap:square;stroke-linejoin:miter;stroke-width:0.8;"/>
   </g>
  </g>
  <g id="axes_7">
   <g id="patch_63">
    <path d="M 53.473438 152.272587 
L 388.273438 152.272587 
L 388.273438 135.546433 
L 53.473438 135.546433 
z
" style="fill:none;"/>
   </g>
   <g id="patch_64">
    <path clip-path="url(#p35f98ae4d5)" d="M 62.961697 150.599971 
L 123.957648 150.599971 
L 123.957648 142.236894 
L 62.961697 142.236894 
z
" style="fill:#ff0000;stroke:#000000;stroke-linejoin:miter;"/>
   </g>
   <g id="patch_65">
    <path clip-path="url(#p35f98ae4d5)" d="M 123.957648 150.599971 
L 157.844288 150.599971 
L 157.844288 142.236894 
L 123.957648 142.236894 
z
" style="fill:#00ff00;stroke:#000000;stroke-linejoin:miter;"/>
   </g>
   <g id="patch_66">
    <path clip-path="url(#p35f98ae4d5)" d="M 157.844288 150.599971 
L 266.281535 150.599971 
L 266.281535 142.236894 
L 157.844288 142.236894 
z
" style="fill:#ff1ab9;stroke:#000000;stroke-linejoin:miter;"/>
   </g>
   <g id="patch_67">
    <path clip-path="url(#p35f98ae4d5)" d="M 266.281535 150.599971 
L 327.277486 150.599971 
L 327.277486 142.236894 
L 266.281535 142.236894 
z
" style="fill:#ffd300;stroke:#000000;stroke-linejoin:miter;"/>
   </g>
   <g id="patch_68">
    <path clip-path="url(#p35f98ae4d5)" d="M 327.277486 150.599971 
L 374.718782 150.599971 
L 374.718782 142.236894 
L 327.277486 142.236894 
z
" style="fill:#005800;stroke:#000000;stroke-linejoin:miter;"/>
   </g>
   <g id="matplotlib.axis_13"/>
   <g id="matplotlib.axis_14">
    <g id="ytick_13"/>
    <g id="ytick_14"/>
    <g id="text_8">
     <text style="font-family:DejaVu Sans;font-size:10px;font-style:normal;font-weight:normal;" transform="translate(49.473438 130.63201)"/>
     <text style="font-family:DejaVu Sans;font-size:10px;font-style:normal;font-weight:normal;" transform="translate(38.34375 141.829822)">13   </text>
    </g>
   </g>
   <g id="patch_69">
    <path d="M 53.473438 152.272587 
L 53.473438 135.546433 
" style="fill:none;stroke:#000000;stroke-linecap:square;stroke-linejoin:miter;stroke-width:0.8;"/>
   </g>
   <g id="patch_70">
    <path d="M 388.273438 152.272587 
L 388.273438 135.546433 
" style="fill:none;stroke:#000000;stroke-linecap:square;stroke-linejoin:miter;stroke-width:0.8;"/>
   </g>
   <g id="patch_71">
    <path d="M 53.473438 152.272587 
L 388.273438 152.272587 
" style="fill:none;stroke:#000000;stroke-linecap:square;stroke-linejoin:miter;stroke-width:0.8;"/>
   </g>
   <g id="patch_72">
    <path d="M 53.473438 135.546433 
L 388.273438 135.546433 
" style="fill:none;stroke:#000000;stroke-linecap:square;stroke-linejoin:miter;stroke-width:0.8;"/>
   </g>
  </g>
  <g id="axes_8">
   <g id="patch_73">
    <path d="M 53.473438 172.343971 
L 388.273438 172.343971 
L 388.273438 155.617817 
L 53.473438 155.617817 
z
" style="fill:none;"/>
   </g>
   <g id="patch_74">
    <path clip-path="url(#p06dc87b900)" d="M 62.961697 170.671356 
L 144.289632 170.671356 
L 144.289632 162.308279 
L 62.961697 162.308279 
z
" style="fill:#ff0000;stroke:#000000;stroke-linejoin:miter;"/>
   </g>
   <g id="patch_75">
    <path clip-path="url(#p06dc87b900)" d="M 144.289632 170.671356 
L 178.176272 170.671356 
L 178.176272 162.308279 
L 144.289632 162.308279 
z
" style="fill:#00ff00;stroke:#000000;stroke-linejoin:miter;"/>
   </g>
   <g id="patch_76">
    <path clip-path="url(#p06dc87b900)" d="M 178.176272 170.671356 
L 218.840239 170.671356 
L 218.840239 162.308279 
L 178.176272 162.308279 
z
" style="fill:#ff1ab9;stroke:#000000;stroke-linejoin:miter;"/>
   </g>
   <g id="patch_77">
    <path clip-path="url(#p06dc87b900)" d="M 218.840239 170.671356 
L 266.281535 170.671356 
L 266.281535 162.308279 
L 218.840239 162.308279 
z
" style="fill:#ffd300;stroke:#000000;stroke-linejoin:miter;"/>
   </g>
   <g id="patch_78">
    <path clip-path="url(#p06dc87b900)" d="M 266.281535 170.671356 
L 313.72283 170.671356 
L 313.72283 162.308279 
L 266.281535 162.308279 
z
" style="fill:#005800;stroke:#000000;stroke-linejoin:miter;"/>
   </g>
   <g id="patch_79">
    <path clip-path="url(#p06dc87b900)" d="M 313.72283 170.671356 
L 374.718782 170.671356 
L 374.718782 162.308279 
L 313.72283 162.308279 
z
" style="fill:#8484ff;stroke:#000000;stroke-linejoin:miter;"/>
   </g>
   <g id="matplotlib.axis_15"/>
   <g id="matplotlib.axis_16">
    <g id="ytick_15"/>
    <g id="ytick_16"/>
    <g id="text_9">
     <text style="font-family:DejaVu Sans;font-size:10px;font-style:normal;font-weight:normal;" transform="translate(49.473438 150.703394)"/>
     <text style="font-family:DejaVu Sans;font-size:10px;font-style:normal;font-weight:normal;" transform="translate(38.34375 161.901207)">14   </text>
    </g>
   </g>
   <g id="patch_80">
    <path d="M 53.473438 172.343971 
L 53.473438 155.617817 
" style="fill:none;stroke:#000000;stroke-linecap:square;stroke-linejoin:miter;stroke-width:0.8;"/>
   </g>
   <g id="patch_81">
    <path d="M 388.273438 172.343971 
L 388.273438 155.617817 
" style="fill:none;stroke:#000000;stroke-linecap:square;stroke-linejoin:miter;stroke-width:0.8;"/>
   </g>
   <g id="patch_82">
    <path d="M 53.473438 172.343971 
L 388.273438 172.343971 
" style="fill:none;stroke:#000000;stroke-linecap:square;stroke-linejoin:miter;stroke-width:0.8;"/>
   </g>
   <g id="patch_83">
    <path d="M 53.473438 155.617817 
L 388.273438 155.617817 
" style="fill:none;stroke:#000000;stroke-linecap:square;stroke-linejoin:miter;stroke-width:0.8;"/>
   </g>
  </g>
  <g id="axes_9">
   <g id="patch_84">
    <path d="M 53.473438 192.415356 
L 388.273438 192.415356 
L 388.273438 175.689202 
L 53.473438 175.689202 
z
" style="fill:none;"/>
   </g>
   <g id="patch_85">
    <path clip-path="url(#pe01b1f4d1a)" d="M 62.961697 190.74274 
L 96.848336 190.74274 
L 96.848336 182.379663 
L 62.961697 182.379663 
z
" style="fill:#ff0000;stroke:#000000;stroke-linejoin:miter;"/>
   </g>
   <g id="patch_86">
    <path clip-path="url(#pe01b1f4d1a)" d="M 96.848336 190.74274 
L 171.398944 190.74274 
L 171.398944 182.379663 
L 96.848336 182.379663 
z
" style="fill:#00ff00;stroke:#000000;stroke-linejoin:miter;"/>
   </g>
   <g id="patch_87">
    <path clip-path="url(#pe01b1f4d1a)" d="M 171.398944 190.74274 
L 205.285583 190.74274 
L 205.285583 182.379663 
L 171.398944 182.379663 
z
" style="fill:#ff1ab9;stroke:#000000;stroke-linejoin:miter;"/>
   </g>
   <g id="patch_88">
    <path clip-path="url(#pe01b1f4d1a)" d="M 205.285583 190.74274 
L 293.390846 190.74274 
L 293.390846 182.379663 
L 205.285583 182.379663 
z
" style="fill:#ffd300;stroke:#000000;stroke-linejoin:miter;"/>
   </g>
   <g id="patch_89">
    <path clip-path="url(#pe01b1f4d1a)" d="M 293.390846 190.74274 
L 320.500158 190.74274 
L 320.500158 182.379663 
L 293.390846 182.379663 
z
" style="fill:#005800;stroke:#000000;stroke-linejoin:miter;"/>
   </g>
   <g id="patch_90">
    <path clip-path="url(#pe01b1f4d1a)" d="M 320.500158 190.74274 
L 381.49611 190.74274 
L 381.49611 182.379663 
L 320.500158 182.379663 
z
" style="fill:#8484ff;stroke:#000000;stroke-linejoin:miter;"/>
   </g>
   <g id="matplotlib.axis_17"/>
   <g id="matplotlib.axis_18">
    <g id="ytick_17"/>
    <g id="ytick_18"/>
    <g id="text_10">
     <text style="font-family:DejaVu Sans;font-size:10px;font-style:normal;font-weight:normal;" transform="translate(49.473438 170.774779)"/>
     <text style="font-family:DejaVu Sans;font-size:10px;font-style:normal;font-weight:normal;" transform="translate(38.34375 181.972591)">18   </text>
    </g>
   </g>
   <g id="patch_91">
    <path d="M 53.473438 192.415356 
L 53.473438 175.689202 
" style="fill:none;stroke:#000000;stroke-linecap:square;stroke-linejoin:miter;stroke-width:0.8;"/>
   </g>
   <g id="patch_92">
    <path d="M 388.273438 192.415356 
L 388.273438 175.689202 
" style="fill:none;stroke:#000000;stroke-linecap:square;stroke-linejoin:miter;stroke-width:0.8;"/>
   </g>
   <g id="patch_93">
    <path d="M 53.473438 192.415356 
L 388.273438 192.415356 
" style="fill:none;stroke:#000000;stroke-linecap:square;stroke-linejoin:miter;stroke-width:0.8;"/>
   </g>
   <g id="patch_94">
    <path d="M 53.473438 175.689202 
L 388.273438 175.689202 
" style="fill:none;stroke:#000000;stroke-linecap:square;stroke-linejoin:miter;stroke-width:0.8;"/>
   </g>
  </g>
  <g id="axes_10">
   <g id="patch_95">
    <path d="M 53.473438 212.48674 
L 388.273438 212.48674 
L 388.273438 195.760587 
L 53.473438 195.760587 
z
" style="fill:none;"/>
   </g>
   <g id="patch_96">
    <path clip-path="url(#p2b702707f3)" d="M 62.961697 210.814125 
L 151.06696 210.814125 
L 151.06696 202.451048 
L 62.961697 202.451048 
z
" style="fill:#ff0000;stroke:#000000;stroke-linejoin:miter;"/>
   </g>
   <g id="patch_97">
    <path clip-path="url(#p2b702707f3)" d="M 151.06696 210.814125 
L 171.398944 210.814125 
L 171.398944 202.451048 
L 151.06696 202.451048 
z
" style="fill:#00ff00;stroke:#000000;stroke-linejoin:miter;"/>
   </g>
   <g id="patch_98">
    <path clip-path="url(#p2b702707f3)" d="M 171.398944 210.814125 
L 218.840239 210.814125 
L 218.840239 202.451048 
L 171.398944 202.451048 
z
" style="fill:#ff1ab9;stroke:#000000;stroke-linejoin:miter;"/>
   </g>
   <g id="patch_99">
    <path clip-path="url(#p2b702707f3)" d="M 218.840239 210.814125 
L 273.058863 210.814125 
L 273.058863 202.451048 
L 218.840239 202.451048 
z
" style="fill:#ffd300;stroke:#000000;stroke-linejoin:miter;"/>
   </g>
   <g id="patch_100">
    <path clip-path="url(#p2b702707f3)" d="M 273.058863 210.814125 
L 347.60947 210.814125 
L 347.60947 202.451048 
L 273.058863 202.451048 
z
" style="fill:#005800;stroke:#000000;stroke-linejoin:miter;"/>
   </g>
   <g id="patch_101">
    <path clip-path="url(#p2b702707f3)" d="M 347.60947 210.814125 
L 374.718782 210.814125 
L 374.718782 202.451048 
L 347.60947 202.451048 
z
" style="fill:#8484ff;stroke:#000000;stroke-linejoin:miter;"/>
   </g>
   <g id="matplotlib.axis_19"/>
   <g id="matplotlib.axis_20">
    <g id="ytick_19"/>
    <g id="ytick_20"/>
    <g id="text_11">
     <text style="font-family:DejaVu Sans;font-size:10px;font-style:normal;font-weight:normal;" transform="translate(49.473438 190.846163)"/>
     <text style="font-family:DejaVu Sans;font-size:10px;font-style:normal;font-weight:normal;" transform="translate(38.34375 202.043976)">21   </text>
    </g>
   </g>
   <g id="patch_102">
    <path d="M 53.473438 212.48674 
L 53.473438 195.760587 
" style="fill:none;stroke:#000000;stroke-linecap:square;stroke-linejoin:miter;stroke-width:0.8;"/>
   </g>
   <g id="patch_103">
    <path d="M 388.273438 212.48674 
L 388.273438 195.760587 
" style="fill:none;stroke:#000000;stroke-linecap:square;stroke-linejoin:miter;stroke-width:0.8;"/>
   </g>
   <g id="patch_104">
    <path d="M 53.473438 212.48674 
L 388.273438 212.48674 
" style="fill:none;stroke:#000000;stroke-linecap:square;stroke-linejoin:miter;stroke-width:0.8;"/>
   </g>
   <g id="patch_105">
    <path d="M 53.473438 195.760587 
L 388.273438 195.760587 
" style="fill:none;stroke:#000000;stroke-linecap:square;stroke-linejoin:miter;stroke-width:0.8;"/>
   </g>
  </g>
  <g id="axes_11">
   <g id="patch_106">
    <path d="M 53.473438 232.558125 
L 388.273438 232.558125 
L 388.273438 215.831971 
L 53.473438 215.831971 
z
" style="fill:none;"/>
   </g>
   <g id="patch_107">
    <path clip-path="url(#p90ad50e321)" d="M 69.739025 230.88551 
L 157.844288 230.88551 
L 157.844288 222.522433 
L 69.739025 222.522433 
z
" style="fill:#ff0000;stroke:#000000;stroke-linejoin:miter;"/>
   </g>
   <g id="patch_108">
    <path clip-path="url(#p90ad50e321)" d="M 157.844288 230.88551 
L 279.836191 230.88551 
L 279.836191 222.522433 
L 157.844288 222.522433 
z
" style="fill:#00ff00;stroke:#000000;stroke-linejoin:miter;"/>
   </g>
   <g id="patch_109">
    <path clip-path="url(#p90ad50e321)" d="M 279.836191 230.88551 
L 340.832142 230.88551 
L 340.832142 222.522433 
L 279.836191 222.522433 
z
" style="fill:#ff1ab9;stroke:#000000;stroke-linejoin:miter;"/>
   </g>
   <g id="patch_110">
    <path clip-path="url(#p90ad50e321)" d="M 340.832142 230.88551 
L 374.718782 230.88551 
L 374.718782 222.522433 
L 340.832142 222.522433 
z
" style="fill:#ffd300;stroke:#000000;stroke-linejoin:miter;"/>
   </g>
   <g id="matplotlib.axis_21">
    <g id="xtick_1">
     <g id="line2d_1">
      <defs>
       <path d="M 0 0 
L 0 3.5 
" id="mf3119137fd" style="stroke:#000000;stroke-width:0.8;"/>
      </defs>
      <g>
       <use style="stroke:#000000;stroke-width:0.8;" x="56.184369" xlink:href="#mf3119137fd" y="232.558125"/>
      </g>
     </g>
     <g id="text_12">
      <text style="font-family:DejaVu Sans;font-size:10px;font-style:normal;font-weight:normal;text-anchor:middle;" transform="rotate(-0, 56.184369, 247.156562)" x="56.184369" y="247.156562">0</text>
     </g>
    </g>
    <g id="xtick_2">
     <g id="line2d_2">
      <g>
       <use style="stroke:#000000;stroke-width:0.8;" x="110.402992" xlink:href="#mf3119137fd" y="232.558125"/>
      </g>
     </g>
     <g id="text_13">
      <text style="font-family:DejaVu Sans;font-size:10px;font-style:normal;font-weight:normal;text-anchor:middle;" transform="rotate(-0, 110.402992, 247.156562)" x="110.402992" y="247.156562">20</text>
     </g>
    </g>
    <g id="xtick_3">
     <g id="line2d_3">
      <g>
       <use style="stroke:#000000;stroke-width:0.8;" x="164.621616" xlink:href="#mf3119137fd" y="232.558125"/>
      </g>
     </g>
     <g id="text_14">
      <text style="font-family:DejaVu Sans;font-size:10px;font-style:normal;font-weight:normal;text-anchor:middle;" transform="rotate(-0, 164.621616, 247.156562)" x="164.621616" y="247.156562">40</text>
     </g>
    </g>
    <g id="xtick_4">
     <g id="line2d_4">
      <g>
       <use style="stroke:#000000;stroke-width:0.8;" x="218.840239" xlink:href="#mf3119137fd" y="232.558125"/>
      </g>
     </g>
     <g id="text_15">
      <text style="font-family:DejaVu Sans;font-size:10px;font-style:normal;font-weight:normal;text-anchor:middle;" transform="rotate(-0, 218.840239, 247.156562)" x="218.840239" y="247.156562">60</text>
     </g>
    </g>
    <g id="xtick_5">
     <g id="line2d_5">
      <g>
       <use style="stroke:#000000;stroke-width:0.8;" x="273.058863" xlink:href="#mf3119137fd" y="232.558125"/>
      </g>
     </g>
     <g id="text_16">
      <text style="font-family:DejaVu Sans;font-size:10px;font-style:normal;font-weight:normal;text-anchor:middle;" transform="rotate(-0, 273.058863, 247.156562)" x="273.058863" y="247.156562">80</text>
     </g>
    </g>
    <g id="xtick_6">
     <g id="line2d_6">
      <g>
       <use style="stroke:#000000;stroke-width:0.8;" x="327.277486" xlink:href="#mf3119137fd" y="232.558125"/>
      </g>
     </g>
     <g id="text_17">
      <text style="font-family:DejaVu Sans;font-size:10px;font-style:normal;font-weight:normal;text-anchor:middle;" transform="rotate(-0, 327.277486, 247.156562)" x="327.277486" y="247.156562">100</text>
     </g>
    </g>
    <g id="xtick_7">
     <g id="line2d_7">
      <g>
       <use style="stroke:#000000;stroke-width:0.8;" x="381.49611" xlink:href="#mf3119137fd" y="232.558125"/>
      </g>
     </g>
     <g id="text_18">
      <text style="font-family:DejaVu Sans;font-size:10px;font-style:normal;font-weight:normal;text-anchor:middle;" transform="rotate(-0, 381.49611, 247.156562)" x="381.49611" y="247.156562">120</text>
     </g>
    </g>
    <g id="text_19">
     <text style="font-family:DejaVu Sans;font-size:10px;font-style:normal;font-weight:normal;text-anchor:middle;" transform="rotate(-0, 220.873438, 260.834687)" x="220.873438" y="260.834687">Genomic Position [Mb]</text>
    </g>
   </g>
   <g id="matplotlib.axis_22">
    <g id="ytick_21"/>
    <g id="ytick_22"/>
    <g id="text_20">
     <text style="font-family:DejaVu Sans;font-size:10px;font-style:normal;font-weight:normal;" transform="translate(49.473438 210.917548)"/>
     <text style="font-family:DejaVu Sans;font-size:10px;font-style:normal;font-weight:normal;" transform="translate(38.34375 222.115361)">24   </text>
    </g>
   </g>
   <g id="patch_111">
    <path d="M 53.473438 232.558125 
L 53.473438 215.831971 
" style="fill:none;stroke:#000000;stroke-linecap:square;stroke-linejoin:miter;stroke-width:0.8;"/>
   </g>
   <g id="patch_112">
    <path d="M 388.273438 232.558125 
L 388.273438 215.831971 
" style="fill:none;stroke:#000000;stroke-linecap:square;stroke-linejoin:miter;stroke-width:0.8;"/>
   </g>
   <g id="patch_113">
    <path d="M 53.473438 232.558125 
L 388.273438 232.558125 
" style="fill:none;stroke:#000000;stroke-linecap:square;stroke-linejoin:miter;stroke-width:0.8;"/>
   </g>
   <g id="patch_114">
    <path d="M 53.473438 215.831971 
L 388.273438 215.831971 
" style="fill:none;stroke:#000000;stroke-linecap:square;stroke-linejoin:miter;stroke-width:0.8;"/>
   </g>
  </g>
 </g>
 <defs>
  <clipPath id="pc83ae792b9">
   <rect height="16.726154" width="334.8" x="53.473438" y="15.118125"/>
  </clipPath>
  <clipPath id="p121c4f7e6a">
   <rect height="16.726154" width="334.8" x="53.473438" y="35.18951"/>
  </clipPath>
  <clipPath id="pd5927a253b">
   <rect height="16.726154" width="334.8" x="53.473438" y="55.260894"/>
  </clipPath>
  <clipPath id="p6c7332d5df">
   <rect height="16.726154" width="334.8" x="53.473438" y="75.332279"/>
  </clipPath>
  <clipPath id="p98dee54d3d">
   <rect height="16.726154" width="334.8" x="53.473438" y="95.403663"/>
  </clipPath>
  <clipPath id="p17cc1799cf">
   <rect height="16.726154" width="334.8" x="53.473438" y="115.475048"/>
  </clipPath>
  <clipPath id="p35f98ae4d5">
   <rect height="16.726154" width="334.8" x="53.473438" y="135.546433"/>
  </clipPath>
  <clipPath id="p06dc87b900">
   <rect height="16.726154" width="334.8" x="53.473438" y="155.617817"/>
  </clipPath>
  <clipPath id="pe01b1f4d1a">
   <rect height="16.726154" width="334.8" x="53.473438" y="175.689202"/>
  </clipPath>
  <clipPath id="p2b702707f3">
   <rect height="16.726154" width="334.8" x="53.473438" y="195.760587"/>
  </clipPath>
  <clipPath id="p90ad50e321">
   <rect height="16.726154" width="334.8" x="53.473438" y="215.831971"/>
  </clipPath>
 </defs>
</svg>
