<?xml version="1.0" encoding="utf-8" standalone="no"?>
<!DOCTYPE svg PUBLIC "-//W3C//DTD SVG 1.1//EN"
  "http://www.w3.org/Graphics/SVG/1.1/DTD/svg11.dtd">
<!-- Created with matplotlib (https://matplotlib.org/) -->
<svg height="297.90825pt" version="1.1" viewBox="0 0 369.068438 297.90825" width="369.068438pt" xmlns="http://www.w3.org/2000/svg" xmlns:xlink="http://www.w3.org/1999/xlink">
 <defs>
  <style type="text/css">
*{stroke-linecap:butt;stroke-linejoin:round;}
  </style>
 </defs>
 <g id="figure_1">
  <g id="patch_1">
   <path d="M 0 297.90825 
L 369.068438 297.90825 
L 369.068438 0 
L 0 0 
z
" style="fill:none;"/>
  </g>
  <g id="axes_1">
   <g id="patch_2">
    <path d="M 11.948438 72.96856 
L 369.068438 72.96856 
L 369.068438 15.118125 
L 11.948438 15.118125 
z
" style="fill:none;"/>
   </g>
   <g id="patch_3">
    <path clip-path="url(#p7d377b151a)" d="M 24.298409 67.183516 
L 70.610801 67.183516 
L 70.610801 38.258299 
L 24.298409 38.258299 
z
" style="fill:#ff0000;stroke:#000000;stroke-linejoin:miter;"/>
   </g>
   <g id="patch_4">
    <path clip-path="url(#p7d377b151a)" d="M 70.610801 67.183516 
L 106.63155 67.183516 
L 106.63155 38.258299 
L 70.610801 38.258299 
z
" style="fill:#00ff00;stroke:#000000;stroke-linejoin:miter;"/>
   </g>
   <g id="patch_5">
    <path clip-path="url(#p7d377b151a)" d="M 106.63155 67.183516 
L 147.79812 67.183516 
L 147.79812 38.258299 
L 106.63155 38.258299 
z
" style="fill:#ff1ab9;stroke:#000000;stroke-linejoin:miter;"/>
   </g>
   <g id="patch_6">
    <path clip-path="url(#p7d377b151a)" d="M 147.79812 67.183516 
L 183.81887 67.183516 
L 183.81887 38.258299 
L 147.79812 38.258299 
z
" style="fill:#ffd300;stroke:#000000;stroke-linejoin:miter;"/>
   </g>
   <g id="patch_7">
    <path clip-path="url(#p7d377b151a)" d="M 183.81887 67.183516 
L 235.277083 67.183516 
L 235.277083 38.258299 
L 183.81887 38.258299 
z
" style="fill:#005800;stroke:#000000;stroke-linejoin:miter;"/>
   </g>
   <g id="patch_8">
    <path clip-path="url(#p7d377b151a)" d="M 235.277083 67.183516 
L 312.464403 67.183516 
L 312.464403 38.258299 
L 235.277083 38.258299 
z
" style="fill:#8484ff;stroke:#000000;stroke-linejoin:miter;"/>
   </g>
   <g id="patch_9">
    <path clip-path="url(#p7d377b151a)" d="M 312.464403 67.183516 
L 363.922616 67.183516 
L 363.922616 38.258299 
L 312.464403 38.258299 
z
" style="fill:#9e4f46;stroke:#000000;stroke-linejoin:miter;"/>
   </g>
   <g id="matplotlib.axis_1"/>
   <g id="matplotlib.axis_2">
    <g id="ytick_1"/>
    <g id="ytick_2"/>
    <g id="ytick_3"/>
   </g>
   <g id="patch_10">
    <path d="M 11.948438 72.96856 
L 11.948438 15.118125 
" style="fill:none;stroke:#000000;stroke-linecap:square;stroke-linejoin:miter;stroke-width:0.8;"/>
   </g>
   <g id="patch_11">
    <path d="M 369.068438 72.96856 
L 369.068438 15.118125 
" style="fill:none;stroke:#000000;stroke-linecap:square;stroke-linejoin:miter;stroke-width:0.8;"/>
   </g>
   <g id="patch_12">
    <path d="M 11.948438 72.96856 
L 369.068437 72.96856 
" style="fill:none;stroke:#000000;stroke-linecap:square;stroke-linejoin:miter;stroke-width:0.8;"/>
   </g>
   <g id="patch_13">
    <path d="M 11.948438 15.118125 
L 369.068437 15.118125 
" style="fill:none;stroke:#000000;stroke-linecap:square;stroke-linejoin:miter;stroke-width:0.8;"/>
   </g>
   <g id="text_1">
    <text style="font-family:DejaVu Sans;font-size:12px;font-style:normal;font-weight:normal;text-anchor:middle;" transform="rotate(-0, 190.508438, 9.118125)" x="190.508438" y="9.118125">Chr 20</text>
   </g>
  </g>
  <g id="axes_2">
   <g id="patch_14">
    <path d="M 11.948438 142.389082 
L 369.068438 142.389082 
L 369.068438 84.538647 
L 11.948438 84.538647 
z
" style="fill:none;"/>
   </g>
   <g id="patch_15">
    <path clip-path="url(#p93997cca42)" d="M 24.298409 136.604038 
L 86.048265 136.604038 
L 86.048265 107.678821 
L 24.298409 107.678821 
z
" style="fill:#ff0000;stroke:#000000;stroke-linejoin:miter;"/>
   </g>
   <g id="patch_16">
    <path clip-path="url(#p93997cca42)" d="M 86.048265 136.604038 
L 111.777371 136.604038 
L 111.777371 107.678821 
L 86.048265 107.678821 
z
" style="fill:#00ff00;stroke:#000000;stroke-linejoin:miter;"/>
   </g>
   <g id="patch_17">
    <path clip-path="url(#p93997cca42)" d="M 111.777371 136.604038 
L 147.79812 136.604038 
L 147.79812 107.678821 
L 111.777371 107.678821 
z
" style="fill:#ff1ab9;stroke:#000000;stroke-linejoin:miter;"/>
   </g>
   <g id="patch_18">
    <path clip-path="url(#p93997cca42)" d="M 147.79812 136.604038 
L 219.839619 136.604038 
L 219.839619 107.678821 
L 147.79812 107.678821 
z
" style="fill:#ffd300;stroke:#000000;stroke-linejoin:miter;"/>
   </g>
   <g id="patch_19">
    <path clip-path="url(#p93997cca42)" d="M 219.839619 136.604038 
L 250.714547 136.604038 
L 250.714547 107.678821 
L 219.839619 107.678821 
z
" style="fill:#005800;stroke:#000000;stroke-linejoin:miter;"/>
   </g>
   <g id="patch_20">
    <path clip-path="url(#p93997cca42)" d="M 250.714547 136.604038 
L 291.881118 136.604038 
L 291.881118 107.678821 
L 250.714547 107.678821 
z
" style="fill:#8484ff;stroke:#000000;stroke-linejoin:miter;"/>
   </g>
   <g id="patch_21">
    <path clip-path="url(#p93997cca42)" d="M 291.881118 136.604038 
L 317.610224 136.604038 
L 317.610224 107.678821 
L 291.881118 107.678821 
z
" style="fill:#9e4f46;stroke:#000000;stroke-linejoin:miter;"/>
   </g>
   <g id="patch_22">
    <path clip-path="url(#p93997cca42)" d="M 317.610224 136.604038 
L 363.922616 136.604038 
L 363.922616 107.678821 
L 317.610224 107.678821 
z
" style="fill:#00ffc1;stroke:#000000;stroke-linejoin:miter;"/>
   </g>
   <g id="matplotlib.axis_3"/>
   <g id="matplotlib.axis_4">
    <g id="ytick_4"/>
    <g id="ytick_5"/>
    <g id="ytick_6"/>
    <g id="text_2">
     <text style="font-family:DejaVu Sans;font-size:10px;font-style:normal;font-weight:normal;" transform="translate(7.948438 100.186364)"/>
     <text style="font-family:DejaVu Sans;font-size:10px;font-style:normal;font-weight:normal;" transform="translate(0 111.384177)">2   </text>
    </g>
   </g>
   <g id="patch_23">
    <path d="M 11.948438 142.389082 
L 11.948438 84.538647 
" style="fill:none;stroke:#000000;stroke-linecap:square;stroke-linejoin:miter;stroke-width:0.8;"/>
   </g>
   <g id="patch_24">
    <path d="M 369.068438 142.389082 
L 369.068438 84.538647 
" style="fill:none;stroke:#000000;stroke-linecap:square;stroke-linejoin:miter;stroke-width:0.8;"/>
   </g>
   <g id="patch_25">
    <path d="M 11.948438 142.389082 
L 369.068437 142.389082 
" style="fill:none;stroke:#000000;stroke-linecap:square;stroke-linejoin:miter;stroke-width:0.8;"/>
   </g>
   <g id="patch_26">
    <path d="M 11.948438 84.538647 
L 369.068437 84.538647 
" style="fill:none;stroke:#000000;stroke-linecap:square;stroke-linejoin:miter;stroke-width:0.8;"/>
   </g>
  </g>
  <g id="axes_3">
   <g id="patch_27">
    <path d="M 11.948438 211.809603 
L 369.068438 211.809603 
L 369.068438 153.959168 
L 11.948438 153.959168 
z
" style="fill:none;"/>
   </g>
   <g id="patch_28">
    <path clip-path="url(#pffea25a7fe)" d="M 24.298409 206.02456 
L 55.173337 206.02456 
L 55.173337 177.099342 
L 24.298409 177.099342 
z
" style="fill:#ff0000;stroke:#000000;stroke-linejoin:miter;"/>
   </g>
   <g id="patch_29">
    <path clip-path="url(#pffea25a7fe)" d="M 55.173337 206.02456 
L 86.048265 206.02456 
L 86.048265 177.099342 
L 55.173337 177.099342 
z
" style="fill:#00ff00;stroke:#000000;stroke-linejoin:miter;"/>
   </g>
   <g id="patch_30">
    <path clip-path="url(#pffea25a7fe)" d="M 86.048265 206.02456 
L 132.360657 206.02456 
L 132.360657 177.099342 
L 86.048265 177.099342 
z
" style="fill:#ff1ab9;stroke:#000000;stroke-linejoin:miter;"/>
   </g>
   <g id="patch_31">
    <path clip-path="url(#pffea25a7fe)" d="M 132.360657 206.02456 
L 178.673048 206.02456 
L 178.673048 177.099342 
L 132.360657 177.099342 
z
" style="fill:#ffd300;stroke:#000000;stroke-linejoin:miter;"/>
   </g>
   <g id="patch_32">
    <path clip-path="url(#pffea25a7fe)" d="M 178.673048 206.02456 
L 199.256334 206.02456 
L 199.256334 177.099342 
L 178.673048 177.099342 
z
" style="fill:#005800;stroke:#000000;stroke-linejoin:miter;"/>
   </g>
   <g id="patch_33">
    <path clip-path="url(#pffea25a7fe)" d="M 199.256334 206.02456 
L 266.152011 206.02456 
L 266.152011 177.099342 
L 199.256334 177.099342 
z
" style="fill:#8484ff;stroke:#000000;stroke-linejoin:miter;"/>
   </g>
   <g id="patch_34">
    <path clip-path="url(#pffea25a7fe)" d="M 266.152011 206.02456 
L 297.026939 206.02456 
L 297.026939 177.099342 
L 266.152011 177.099342 
z
" style="fill:#9e4f46;stroke:#000000;stroke-linejoin:miter;"/>
   </g>
   <g id="patch_35">
    <path clip-path="url(#pffea25a7fe)" d="M 297.026939 206.02456 
L 322.756046 206.02456 
L 322.756046 177.099342 
L 297.026939 177.099342 
z
" style="fill:#00ffc1;stroke:#000000;stroke-linejoin:miter;"/>
   </g>
   <g id="patch_36">
    <path clip-path="url(#pffea25a7fe)" d="M 322.756046 206.02456 
L 363.922616 206.02456 
L 363.922616 177.099342 
L 322.756046 177.099342 
z
" style="fill:#008495;stroke:#000000;stroke-linejoin:miter;"/>
   </g>
   <g id="matplotlib.axis_5"/>
   <g id="matplotlib.axis_6">
    <g id="ytick_7"/>
    <g id="ytick_8"/>
    <g id="ytick_9"/>
    <g id="text_3">
     <text style="font-family:DejaVu Sans;font-size:10px;font-style:normal;font-weight:normal;" transform="translate(7.948438 169.606886)"/>
     <text style="font-family:DejaVu Sans;font-size:10px;font-style:normal;font-weight:normal;" transform="translate(0 180.804698)">3   </text>
    </g>
   </g>
   <g id="patch_37">
    <path d="M 11.948438 211.809603 
L 11.948438 153.959168 
" style="fill:none;stroke:#000000;stroke-linecap:square;stroke-linejoin:miter;stroke-width:0.8;"/>
   </g>
   <g id="patch_38">
    <path d="M 369.068438 211.809603 
L 369.068438 153.959168 
" style="fill:none;stroke:#000000;stroke-linecap:square;stroke-linejoin:miter;stroke-width:0.8;"/>
   </g>
   <g id="patch_39">
    <path d="M 11.948438 211.809603 
L 369.068437 211.809603 
" style="fill:none;stroke:#000000;stroke-linecap:square;stroke-linejoin:miter;stroke-width:0.8;"/>
   </g>
   <g id="patch_40">
    <path d="M 11.948438 153.959168 
L 369.068437 153.959168 
" style="fill:none;stroke:#000000;stroke-linecap:square;stroke-linejoin:miter;stroke-width:0.8;"/>
   </g>
  </g>
  <g id="axes_4">
   <g id="patch_41">
    <path d="M 11.948438 281.230125 
L 369.068438 281.230125 
L 369.068438 223.37969 
L 11.948438 223.37969 
z
" style="fill:none;"/>
   </g>
   <g id="patch_42">
    <path clip-path="url(#p83d81e64b4)" d="M 19.152587 275.445082 
L 44.881694 275.445082 
L 44.881694 246.519864 
L 19.152587 246.519864 
z
" style="fill:#ff0000;stroke:#000000;stroke-linejoin:miter;"/>
   </g>
   <g id="patch_43">
    <path clip-path="url(#p83d81e64b4)" d="M 44.881694 275.445082 
L 86.048265 275.445082 
L 86.048265 246.519864 
L 44.881694 246.519864 
z
" style="fill:#00ff00;stroke:#000000;stroke-linejoin:miter;"/>
   </g>
   <g id="patch_44">
    <path clip-path="url(#p83d81e64b4)" d="M 86.048265 275.445082 
L 116.923193 275.445082 
L 116.923193 246.519864 
L 86.048265 246.519864 
z
" style="fill:#ff1ab9;stroke:#000000;stroke-linejoin:miter;"/>
   </g>
   <g id="patch_45">
    <path clip-path="url(#p83d81e64b4)" d="M 116.923193 275.445082 
L 158.089763 275.445082 
L 158.089763 246.519864 
L 116.923193 246.519864 
z
" style="fill:#ffd300;stroke:#000000;stroke-linejoin:miter;"/>
   </g>
   <g id="patch_46">
    <path clip-path="url(#p83d81e64b4)" d="M 158.089763 275.445082 
L 199.256334 275.445082 
L 199.256334 246.519864 
L 158.089763 246.519864 
z
" style="fill:#005800;stroke:#000000;stroke-linejoin:miter;"/>
   </g>
   <g id="patch_47">
    <path clip-path="url(#p83d81e64b4)" d="M 199.256334 275.445082 
L 245.568726 275.445082 
L 245.568726 246.519864 
L 199.256334 246.519864 
z
" style="fill:#8484ff;stroke:#000000;stroke-linejoin:miter;"/>
   </g>
   <g id="patch_48">
    <path clip-path="url(#p83d81e64b4)" d="M 245.568726 275.445082 
L 281.589475 275.445082 
L 281.589475 246.519864 
L 245.568726 246.519864 
z
" style="fill:#9e4f46;stroke:#000000;stroke-linejoin:miter;"/>
   </g>
   <g id="patch_49">
    <path clip-path="url(#p83d81e64b4)" d="M 281.589475 275.445082 
L 322.756046 275.445082 
L 322.756046 246.519864 
L 281.589475 246.519864 
z
" style="fill:#00ffc1;stroke:#000000;stroke-linejoin:miter;"/>
   </g>
   <g id="patch_50">
    <path clip-path="url(#p83d81e64b4)" d="M 322.756046 275.445082 
L 363.922616 275.445082 
L 363.922616 246.519864 
L 322.756046 246.519864 
z
" style="fill:#008495;stroke:#000000;stroke-linejoin:miter;"/>
   </g>
   <g id="matplotlib.axis_7">
    <g id="xtick_1">
     <g id="line2d_1">
      <defs>
       <path d="M 0 0 
L 0 3.5 
" id="m705a76461c" style="stroke:#000000;stroke-width:0.8;"/>
      </defs>
      <g>
       <use style="stroke:#000000;stroke-width:0.8;" x="14.006766" xlink:href="#m705a76461c" y="281.230125"/>
      </g>
     </g>
     <g id="text_4">
      <text style="font-family:DejaVu Sans;font-size:10px;font-style:normal;font-weight:normal;text-anchor:middle;" transform="rotate(-0, 14.006766, 295.828563)" x="14.006766" y="295.828563">0</text>
     </g>
    </g>
    <g id="xtick_2">
     <g id="line2d_2">
      <g>
       <use style="stroke:#000000;stroke-width:0.8;" x="55.173337" xlink:href="#m705a76461c" y="281.230125"/>
      </g>
     </g>
     <g id="text_5">
      <text style="font-family:DejaVu Sans;font-size:10px;font-style:normal;font-weight:normal;text-anchor:middle;" transform="rotate(-0, 55.173337, 295.828563)" x="55.173337" y="295.828563">20</text>
     </g>
    </g>
    <g id="xtick_3">
     <g id="line2d_3">
      <g>
       <use style="stroke:#000000;stroke-width:0.8;" x="96.339907" xlink:href="#m705a76461c" y="281.230125"/>
      </g>
     </g>
     <g id="text_6">
      <text style="font-family:DejaVu Sans;font-size:10px;font-style:normal;font-weight:normal;text-anchor:middle;" transform="rotate(-0, 96.339907, 295.828563)" x="96.339907" y="295.828563">40</text>
     </g>
    </g>
    <g id="xtick_4">
     <g id="line2d_4">
      <g>
       <use style="stroke:#000000;stroke-width:0.8;" x="137.506478" xlink:href="#m705a76461c" y="281.230125"/>
      </g>
     </g>
     <g id="text_7">
      <text style="font-family:DejaVu Sans;font-size:10px;font-style:normal;font-weight:normal;text-anchor:middle;" transform="rotate(-0, 137.506478, 295.828563)" x="137.506478" y="295.828563">60</text>
     </g>
    </g>
    <g id="xtick_5">
     <g id="line2d_5">
      <g>
       <use style="stroke:#000000;stroke-width:0.8;" x="178.673048" xlink:href="#m705a76461c" y="281.230125"/>
      </g>
     </g>
     <g id="text_8">
      <text style="font-family:DejaVu Sans;font-size:10px;font-style:normal;font-weight:normal;text-anchor:middle;" transform="rotate(-0, 178.673048, 295.828563)" x="178.673048" y="295.828563">80</text>
     </g>
    </g>
    <g id="xtick_6">
     <g id="line2d_6">
      <g>
       <use style="stroke:#000000;stroke-width:0.8;" x="219.839619" xlink:href="#m705a76461c" y="281.230125"/>
      </g>
     </g>
     <g id="text_9">
      <text style="font-family:DejaVu Sans;font-size:10px;font-style:normal;font-weight:normal;text-anchor:middle;" transform="rotate(-0, 219.839619, 295.828563)" x="219.839619" y="295.828563">100</text>
     </g>
    </g>
    <g id="xtick_7">
     <g id="line2d_7">
      <g>
       <use style="stroke:#000000;stroke-width:0.8;" x="261.00619" xlink:href="#m705a76461c" y="281.230125"/>
      </g>
     </g>
     <g id="text_10">
      <text style="font-family:DejaVu Sans;font-size:10px;font-style:normal;font-weight:normal;text-anchor:middle;" transform="rotate(-0, 261.00619, 295.828563)" x="261.00619" y="295.828563">120</text>
     </g>
    </g>
    <g id="xtick_8">
     <g id="line2d_8">
      <g>
       <use style="stroke:#000000;stroke-width:0.8;" x="302.17276" xlink:href="#m705a76461c" y="281.230125"/>
      </g>
     </g>
     <g id="text_11">
      <text style="font-family:DejaVu Sans;font-size:10px;font-style:normal;font-weight:normal;text-anchor:middle;" transform="rotate(-0, 302.17276, 295.828563)" x="302.17276" y="295.828563">140</text>
     </g>
    </g>
    <g id="xtick_9">
     <g id="line2d_9">
      <g>
       <use style="stroke:#000000;stroke-width:0.8;" x="343.339331" xlink:href="#m705a76461c" y="281.230125"/>
      </g>
     </g>
     <g id="text_12">
      <text style="font-family:DejaVu Sans;font-size:10px;font-style:normal;font-weight:normal;text-anchor:middle;" transform="rotate(-0, 343.339331, 295.828563)" x="343.339331" y="295.828563">160</text>
     </g>
    </g>
   </g>
   <g id="matplotlib.axis_8">
    <g id="ytick_10"/>
    <g id="ytick_11"/>
    <g id="ytick_12"/>
    <g id="text_13">
     <text style="font-family:DejaVu Sans;font-size:10px;font-style:normal;font-weight:normal;" transform="translate(7.948438 239.027408)"/>
     <text style="font-family:DejaVu Sans;font-size:10px;font-style:normal;font-weight:normal;" transform="translate(0 250.22522)">4   </text>
    </g>
   </g>
   <g id="patch_51">
    <path d="M 11.948438 281.230125 
L 11.948438 223.37969 
" style="fill:none;stroke:#000000;stroke-linecap:square;stroke-linejoin:miter;stroke-width:0.8;"/>
   </g>
   <g id="patch_52">
    <path d="M 369.068438 281.230125 
L 369.068438 223.37969 
" style="fill:none;stroke:#000000;stroke-linecap:square;stroke-linejoin:miter;stroke-width:0.8;"/>
   </g>
   <g id="patch_53">
    <path d="M 11.948438 281.230125 
L 369.068437 281.230125 
" style="fill:none;stroke:#000000;stroke-linecap:square;stroke-linejoin:miter;stroke-width:0.8;"/>
   </g>
   <g id="patch_54">
    <path d="M 11.948438 223.37969 
L 369.068437 223.37969 
" style="fill:none;stroke:#000000;stroke-linecap:square;stroke-linejoin:miter;stroke-width:0.8;"/>
   </g>
  </g>
 </g>
 <defs>
  <clipPath id="p7d377b151a">
   <rect height="57.850435" width="357.12" x="11.948438" y="15.118125"/>
  </clipPath>
  <clipPath id="p93997cca42">
   <rect height="57.850435" width="357.12" x="11.948438" y="84.538647"/>
  </clipPath>
  <clipPath id="pffea25a7fe">
   <rect height="57.850435" width="357.12" x="11.948438" y="153.959168"/>
  </clipPath>
  <clipPath id="p83d81e64b4">
   <rect height="57.850435" width="357.12" x="11.948438" y="223.37969"/>
  </clipPath>
 </defs>
</svg>
