<?xml version="1.0" encoding="utf-8" standalone="no"?>
<!DOCTYPE svg PUBLIC "-//W3C//DTD SVG 1.1//EN"
  "http://www.w3.org/Graphics/SVG/1.1/DTD/svg11.dtd">
<!-- Created with matplotlib (https://matplotlib.org/) -->
<svg height="262.914375pt" version="1.1" viewBox="0 0 388.273437 262.914375" width="388.273437pt" xmlns="http://www.w3.org/2000/svg" xmlns:xlink="http://www.w3.org/1999/xlink">
 <defs>
  <style type="text/css">
*{stroke-linecap:butt;stroke-linejoin:round;}
  </style>
 </defs>
 <g id="figure_1">
  <g id="patch_1">
   <path d="M 0 262.914375 
L 388.273437 262.914375 
L 388.273437 0 
L 0 0 
z
" style="fill:none;"/>
  </g>
  <g id="axes_1">
   <g id="patch_2">
    <path d="M 53.473438 38.25004 
L 388.273438 38.25004 
L 388.273438 15.118125 
L 53.473438 15.118125 
z
" style="fill:none;"/>
   </g>
   <g id="patch_3">
    <path clip-path="url(#p8a70b5c38b)" d="M 61.107314 35.936848 
L 142.898845 35.936848 
L 142.898845 24.370891 
L 61.107314 24.370891 
z
" style="fill:#ff0000;stroke:#000000;stroke-linejoin:miter;"/>
   </g>
   <g id="patch_4">
    <path clip-path="url(#p8a70b5c38b)" d="M 142.898845 35.936848 
L 219.237607 35.936848 
L 219.237607 24.370891 
L 142.898845 24.370891 
z
" style="fill:#00ff00;stroke:#000000;stroke-linejoin:miter;"/>
   </g>
   <g id="patch_5">
    <path clip-path="url(#p8a70b5c38b)" d="M 219.237607 35.936848 
L 262.859757 35.936848 
L 262.859757 24.370891 
L 219.237607 24.370891 
z
" style="fill:#ff1ab9;stroke:#000000;stroke-linejoin:miter;"/>
   </g>
   <g id="patch_6">
    <path clip-path="url(#p8a70b5c38b)" d="M 262.859757 35.936848 
L 311.934675 35.936848 
L 311.934675 24.370891 
L 262.859757 24.370891 
z
" style="fill:#ffd300;stroke:#000000;stroke-linejoin:miter;"/>
   </g>
   <g id="patch_7">
    <path clip-path="url(#p8a70b5c38b)" d="M 311.934675 35.936848 
L 382.820669 35.936848 
L 382.820669 24.370891 
L 311.934675 24.370891 
z
" style="fill:#005800;stroke:#000000;stroke-linejoin:miter;"/>
   </g>
   <g id="matplotlib.axis_1"/>
   <g id="matplotlib.axis_2">
    <g id="ytick_1"/>
    <g id="ytick_2"/>
    <g id="text_1">
     <text style="font-family:DejaVu Sans;font-size:10px;font-style:normal;font-weight:normal;text-anchor:middle;" transform="rotate(-0, 49.473438, 24.604395)" x="49.473438" y="24.604395">Embryo 1                </text>
    </g>
   </g>
   <g id="patch_8">
    <path d="M 53.473438 38.25004 
L 53.473438 15.118125 
" style="fill:none;stroke:#000000;stroke-linecap:square;stroke-linejoin:miter;stroke-width:0.8;"/>
   </g>
   <g id="patch_9">
    <path d="M 388.273438 38.25004 
L 388.273438 15.118125 
" style="fill:none;stroke:#000000;stroke-linecap:square;stroke-linejoin:miter;stroke-width:0.8;"/>
   </g>
   <g id="patch_10">
    <path d="M 53.473438 38.25004 
L 388.273438 38.25004 
" style="fill:none;stroke:#000000;stroke-linecap:square;stroke-linejoin:miter;stroke-width:0.8;"/>
   </g>
   <g id="patch_11">
    <path d="M 53.473438 15.118125 
L 388.273438 15.118125 
" style="fill:none;stroke:#000000;stroke-linecap:square;stroke-linejoin:miter;stroke-width:0.8;"/>
   </g>
   <g id="text_2">
    <text style="font-family:DejaVu Sans;font-size:12px;font-style:normal;font-weight:normal;text-anchor:middle;" transform="rotate(-0, 220.873438, 9.118125)" x="220.873438" y="9.118125">Chr 5</text>
   </g>
  </g>
  <g id="axes_2">
   <g id="patch_12">
    <path d="M 53.473438 66.008338 
L 388.273438 66.008338 
L 388.273438 42.876423 
L 53.473438 42.876423 
z
" style="fill:none;"/>
   </g>
   <g id="patch_13">
    <path clip-path="url(#p7421fa48ab)" d="M 61.107314 63.695146 
L 131.993307 63.695146 
L 131.993307 52.129189 
L 61.107314 52.129189 
z
" style="fill:#ff0000;stroke:#000000;stroke-linejoin:miter;"/>
   </g>
   <g id="patch_14">
    <path clip-path="url(#p7421fa48ab)" d="M 131.993307 63.695146 
L 181.068226 63.695146 
L 181.068226 52.129189 
L 131.993307 52.129189 
z
" style="fill:#00ff00;stroke:#000000;stroke-linejoin:miter;"/>
   </g>
   <g id="patch_15">
    <path clip-path="url(#p7421fa48ab)" d="M 181.068226 63.695146 
L 224.690376 63.695146 
L 224.690376 52.129189 
L 181.068226 52.129189 
z
" style="fill:#ff1ab9;stroke:#000000;stroke-linejoin:miter;"/>
   </g>
   <g id="patch_16">
    <path clip-path="url(#p7421fa48ab)" d="M 224.690376 63.695146 
L 268.312525 63.695146 
L 268.312525 52.129189 
L 224.690376 52.129189 
z
" style="fill:#ffd300;stroke:#000000;stroke-linejoin:miter;"/>
   </g>
   <g id="patch_17">
    <path clip-path="url(#p7421fa48ab)" d="M 268.312525 63.695146 
L 317.387444 63.695146 
L 317.387444 52.129189 
L 268.312525 52.129189 
z
" style="fill:#005800;stroke:#000000;stroke-linejoin:miter;"/>
   </g>
   <g id="patch_18">
    <path clip-path="url(#p7421fa48ab)" d="M 317.387444 63.695146 
L 382.820669 63.695146 
L 382.820669 52.129189 
L 317.387444 52.129189 
z
" style="fill:#8484ff;stroke:#000000;stroke-linejoin:miter;"/>
   </g>
   <g id="matplotlib.axis_3"/>
   <g id="matplotlib.axis_4">
    <g id="ytick_3"/>
    <g id="ytick_4"/>
    <g id="text_3">
     <text style="font-family:DejaVu Sans;font-size:10px;font-style:normal;font-weight:normal;" transform="translate(49.473438 41.16488)"/>
     <text style="font-family:DejaVu Sans;font-size:10px;font-style:normal;font-weight:normal;" transform="translate(41.525 52.362693)">7   </text>
    </g>
   </g>
   <g id="patch_19">
    <path d="M 53.473438 66.008338 
L 53.473438 42.876423 
" style="fill:none;stroke:#000000;stroke-linecap:square;stroke-linejoin:miter;stroke-width:0.8;"/>
   </g>
   <g id="patch_20">
    <path d="M 388.273438 66.008338 
L 388.273438 42.876423 
" style="fill:none;stroke:#000000;stroke-linecap:square;stroke-linejoin:miter;stroke-width:0.8;"/>
   </g>
   <g id="patch_21">
    <path d="M 53.473438 66.008338 
L 388.273438 66.008338 
" style="fill:none;stroke:#000000;stroke-linecap:square;stroke-linejoin:miter;stroke-width:0.8;"/>
   </g>
   <g id="patch_22">
    <path d="M 53.473438 42.876423 
L 388.273438 42.876423 
" style="fill:none;stroke:#000000;stroke-linecap:square;stroke-linejoin:miter;stroke-width:0.8;"/>
   </g>
  </g>
  <g id="axes_3">
   <g id="patch_23">
    <path d="M 53.473438 93.766636 
L 388.273438 93.766636 
L 388.273438 70.634721 
L 53.473438 70.634721 
z
" style="fill:none;"/>
   </g>
   <g id="patch_24">
    <path clip-path="url(#p1ccb52b240)" d="M 61.107314 91.453444 
L 142.898845 91.453444 
L 142.898845 79.887487 
L 61.107314 79.887487 
z
" style="fill:#ff0000;stroke:#000000;stroke-linejoin:miter;"/>
   </g>
   <g id="patch_25">
    <path clip-path="url(#p1ccb52b240)" d="M 142.898845 91.453444 
L 170.162688 91.453444 
L 170.162688 79.887487 
L 142.898845 79.887487 
z
" style="fill:#00ff00;stroke:#000000;stroke-linejoin:miter;"/>
   </g>
   <g id="patch_26">
    <path clip-path="url(#p1ccb52b240)" d="M 170.162688 91.453444 
L 219.237607 91.453444 
L 219.237607 79.887487 
L 170.162688 79.887487 
z
" style="fill:#ff1ab9;stroke:#000000;stroke-linejoin:miter;"/>
   </g>
   <g id="patch_27">
    <path clip-path="url(#p1ccb52b240)" d="M 219.237607 91.453444 
L 246.501451 91.453444 
L 246.501451 79.887487 
L 219.237607 79.887487 
z
" style="fill:#ffd300;stroke:#000000;stroke-linejoin:miter;"/>
   </g>
   <g id="patch_28">
    <path clip-path="url(#p1ccb52b240)" d="M 246.501451 91.453444 
L 306.481907 91.453444 
L 306.481907 79.887487 
L 246.501451 79.887487 
z
" style="fill:#005800;stroke:#000000;stroke-linejoin:miter;"/>
   </g>
   <g id="patch_29">
    <path clip-path="url(#p1ccb52b240)" d="M 306.481907 91.453444 
L 382.820669 91.453444 
L 382.820669 79.887487 
L 306.481907 79.887487 
z
" style="fill:#8484ff;stroke:#000000;stroke-linejoin:miter;"/>
   </g>
   <g id="matplotlib.axis_5"/>
   <g id="matplotlib.axis_6">
    <g id="ytick_5"/>
    <g id="ytick_6"/>
    <g id="text_4">
     <text style="font-family:DejaVu Sans;font-size:10px;font-style:normal;font-weight:normal;" transform="translate(49.473438 68.923178)"/>
     <text style="font-family:DejaVu Sans;font-size:10px;font-style:normal;font-weight:normal;" transform="translate(41.525 80.120991)">8   </text>
    </g>
   </g>
   <g id="patch_30">
    <path d="M 53.473438 93.766636 
L 53.473438 70.634721 
" style="fill:none;stroke:#000000;stroke-linecap:square;stroke-linejoin:miter;stroke-width:0.8;"/>
   </g>
   <g id="patch_31">
    <path d="M 388.273438 93.766636 
L 388.273438 70.634721 
" style="fill:none;stroke:#000000;stroke-linecap:square;stroke-linejoin:miter;stroke-width:0.8;"/>
   </g>
   <g id="patch_32">
    <path d="M 53.473438 93.766636 
L 388.273438 93.766636 
" style="fill:none;stroke:#000000;stroke-linecap:square;stroke-linejoin:miter;stroke-width:0.8;"/>
   </g>
   <g id="patch_33">
    <path d="M 53.473438 70.634721 
L 388.273438 70.634721 
" style="fill:none;stroke:#000000;stroke-linecap:square;stroke-linejoin:miter;stroke-width:0.8;"/>
   </g>
  </g>
  <g id="axes_4">
   <g id="patch_34">
    <path d="M 53.473438 121.524934 
L 388.273438 121.524934 
L 388.273438 98.393019 
L 53.473438 98.393019 
z
" style="fill:none;"/>
   </g>
   <g id="patch_35">
    <path clip-path="url(#pfafe5a7614)" d="M 61.107314 119.211742 
L 104.729464 119.211742 
L 104.729464 107.645785 
L 61.107314 107.645785 
z
" style="fill:#ff0000;stroke:#000000;stroke-linejoin:miter;"/>
   </g>
   <g id="patch_36">
    <path clip-path="url(#pfafe5a7614)" d="M 104.729464 119.211742 
L 170.162688 119.211742 
L 170.162688 107.645785 
L 104.729464 107.645785 
z
" style="fill:#00ff00;stroke:#000000;stroke-linejoin:miter;"/>
   </g>
   <g id="patch_37">
    <path clip-path="url(#pfafe5a7614)" d="M 170.162688 119.211742 
L 230.143144 119.211742 
L 230.143144 107.645785 
L 170.162688 107.645785 
z
" style="fill:#ff1ab9;stroke:#000000;stroke-linejoin:miter;"/>
   </g>
   <g id="patch_38">
    <path clip-path="url(#pfafe5a7614)" d="M 230.143144 119.211742 
L 284.670832 119.211742 
L 284.670832 107.645785 
L 230.143144 107.645785 
z
" style="fill:#ffd300;stroke:#000000;stroke-linejoin:miter;"/>
   </g>
   <g id="patch_39">
    <path clip-path="url(#pfafe5a7614)" d="M 284.670832 119.211742 
L 322.840213 119.211742 
L 322.840213 107.645785 
L 284.670832 107.645785 
z
" style="fill:#005800;stroke:#000000;stroke-linejoin:miter;"/>
   </g>
   <g id="patch_40">
    <path clip-path="url(#pfafe5a7614)" d="M 322.840213 119.211742 
L 350.104056 119.211742 
L 350.104056 107.645785 
L 322.840213 107.645785 
z
" style="fill:#8484ff;stroke:#000000;stroke-linejoin:miter;"/>
   </g>
   <g id="patch_41">
    <path clip-path="url(#pfafe5a7614)" d="M 350.104056 119.211742 
L 382.820669 119.211742 
L 382.820669 107.645785 
L 350.104056 107.645785 
z
" style="fill:#9e4f46;stroke:#000000;stroke-linejoin:miter;"/>
   </g>
   <g id="matplotlib.axis_7"/>
   <g id="matplotlib.axis_8">
    <g id="ytick_7"/>
    <g id="ytick_8"/>
    <g id="text_5">
     <text style="font-family:DejaVu Sans;font-size:10px;font-style:normal;font-weight:normal;" transform="translate(49.473438 96.681476)"/>
     <text style="font-family:DejaVu Sans;font-size:10px;font-style:normal;font-weight:normal;" transform="translate(38.34375 107.879289)">10   </text>
    </g>
   </g>
   <g id="patch_42">
    <path d="M 53.473438 121.524934 
L 53.473438 98.393019 
" style="fill:none;stroke:#000000;stroke-linecap:square;stroke-linejoin:miter;stroke-width:0.8;"/>
   </g>
   <g id="patch_43">
    <path d="M 388.273438 121.524934 
L 388.273438 98.393019 
" style="fill:none;stroke:#000000;stroke-linecap:square;stroke-linejoin:miter;stroke-width:0.8;"/>
   </g>
   <g id="patch_44">
    <path d="M 53.473438 121.524934 
L 388.273438 121.524934 
" style="fill:none;stroke:#000000;stroke-linecap:square;stroke-linejoin:miter;stroke-width:0.8;"/>
   </g>
   <g id="patch_45">
    <path d="M 53.473438 98.393019 
L 388.273438 98.393019 
" style="fill:none;stroke:#000000;stroke-linecap:square;stroke-linejoin:miter;stroke-width:0.8;"/>
   </g>
  </g>
  <g id="axes_5">
   <g id="patch_46">
    <path d="M 53.473438 149.283231 
L 388.273438 149.283231 
L 388.273438 126.151316 
L 53.473438 126.151316 
z
" style="fill:none;"/>
   </g>
   <g id="patch_47">
    <path clip-path="url(#p4302f0476d)" d="M 61.107314 146.97004 
L 82.918389 146.97004 
L 82.918389 135.404082 
L 61.107314 135.404082 
z
" style="fill:#ff0000;stroke:#000000;stroke-linejoin:miter;"/>
   </g>
   <g id="patch_48">
    <path clip-path="url(#p4302f0476d)" d="M 82.918389 146.97004 
L 137.446076 146.97004 
L 137.446076 135.404082 
L 82.918389 135.404082 
z
" style="fill:#00ff00;stroke:#000000;stroke-linejoin:miter;"/>
   </g>
   <g id="patch_49">
    <path clip-path="url(#p4302f0476d)" d="M 137.446076 146.97004 
L 197.426532 146.97004 
L 197.426532 135.404082 
L 137.446076 135.404082 
z
" style="fill:#ff1ab9;stroke:#000000;stroke-linejoin:miter;"/>
   </g>
   <g id="patch_50">
    <path clip-path="url(#p4302f0476d)" d="M 197.426532 146.97004 
L 257.406988 146.97004 
L 257.406988 135.404082 
L 197.426532 135.404082 
z
" style="fill:#ffd300;stroke:#000000;stroke-linejoin:miter;"/>
   </g>
   <g id="patch_51">
    <path clip-path="url(#p4302f0476d)" d="M 257.406988 146.97004 
L 279.218063 146.97004 
L 279.218063 135.404082 
L 257.406988 135.404082 
z
" style="fill:#005800;stroke:#000000;stroke-linejoin:miter;"/>
   </g>
   <g id="patch_52">
    <path clip-path="url(#p4302f0476d)" d="M 279.218063 146.97004 
L 317.387444 146.97004 
L 317.387444 135.404082 
L 279.218063 135.404082 
z
" style="fill:#8484ff;stroke:#000000;stroke-linejoin:miter;"/>
   </g>
   <g id="patch_53">
    <path clip-path="url(#p4302f0476d)" d="M 317.387444 146.97004 
L 344.651288 146.97004 
L 344.651288 135.404082 
L 317.387444 135.404082 
z
" style="fill:#9e4f46;stroke:#000000;stroke-linejoin:miter;"/>
   </g>
   <g id="patch_54">
    <path clip-path="url(#p4302f0476d)" d="M 344.651288 146.97004 
L 382.820669 146.97004 
L 382.820669 135.404082 
L 344.651288 135.404082 
z
" style="fill:#00ffc1;stroke:#000000;stroke-linejoin:miter;"/>
   </g>
   <g id="matplotlib.axis_9"/>
   <g id="matplotlib.axis_10">
    <g id="ytick_9"/>
    <g id="ytick_10"/>
    <g id="text_6">
     <text style="font-family:DejaVu Sans;font-size:10px;font-style:normal;font-weight:normal;" transform="translate(49.473438 124.439774)"/>
     <text style="font-family:DejaVu Sans;font-size:10px;font-style:normal;font-weight:normal;" transform="translate(38.34375 135.637586)">13   </text>
    </g>
   </g>
   <g id="patch_55">
    <path d="M 53.473438 149.283231 
L 53.473438 126.151316 
" style="fill:none;stroke:#000000;stroke-linecap:square;stroke-linejoin:miter;stroke-width:0.8;"/>
   </g>
   <g id="patch_56">
    <path d="M 388.273438 149.283231 
L 388.273438 126.151316 
" style="fill:none;stroke:#000000;stroke-linecap:square;stroke-linejoin:miter;stroke-width:0.8;"/>
   </g>
   <g id="patch_57">
    <path d="M 53.473438 149.283231 
L 388.273438 149.283231 
" style="fill:none;stroke:#000000;stroke-linecap:square;stroke-linejoin:miter;stroke-width:0.8;"/>
   </g>
   <g id="patch_58">
    <path d="M 53.473438 126.151316 
L 388.273438 126.151316 
" style="fill:none;stroke:#000000;stroke-linecap:square;stroke-linejoin:miter;stroke-width:0.8;"/>
   </g>
  </g>
  <g id="axes_6">
   <g id="patch_59">
    <path d="M 53.473438 177.041529 
L 388.273438 177.041529 
L 388.273438 153.909614 
L 53.473438 153.909614 
z
" style="fill:none;"/>
   </g>
   <g id="patch_60">
    <path clip-path="url(#p2278d0c7f8)" d="M 61.107314 174.728338 
L 142.898845 174.728338 
L 142.898845 163.16238 
L 61.107314 163.16238 
z
" style="fill:#ff0000;stroke:#000000;stroke-linejoin:miter;"/>
   </g>
   <g id="patch_61">
    <path clip-path="url(#p2278d0c7f8)" d="M 142.898845 174.728338 
L 197.426532 174.728338 
L 197.426532 163.16238 
L 142.898845 163.16238 
z
" style="fill:#00ff00;stroke:#000000;stroke-linejoin:miter;"/>
   </g>
   <g id="patch_62">
    <path clip-path="url(#p2278d0c7f8)" d="M 197.426532 174.728338 
L 224.690376 174.728338 
L 224.690376 163.16238 
L 197.426532 163.16238 
z
" style="fill:#ff1ab9;stroke:#000000;stroke-linejoin:miter;"/>
   </g>
   <g id="patch_63">
    <path clip-path="url(#p2278d0c7f8)" d="M 224.690376 174.728338 
L 268.312525 174.728338 
L 268.312525 163.16238 
L 224.690376 163.16238 
z
" style="fill:#ffd300;stroke:#000000;stroke-linejoin:miter;"/>
   </g>
   <g id="patch_64">
    <path clip-path="url(#p2278d0c7f8)" d="M 268.312525 174.728338 
L 301.029138 174.728338 
L 301.029138 163.16238 
L 268.312525 163.16238 
z
" style="fill:#005800;stroke:#000000;stroke-linejoin:miter;"/>
   </g>
   <g id="patch_65">
    <path clip-path="url(#p2278d0c7f8)" d="M 301.029138 174.728338 
L 328.292981 174.728338 
L 328.292981 163.16238 
L 301.029138 163.16238 
z
" style="fill:#8484ff;stroke:#000000;stroke-linejoin:miter;"/>
   </g>
   <g id="patch_66">
    <path clip-path="url(#p2278d0c7f8)" d="M 328.292981 174.728338 
L 382.820669 174.728338 
L 382.820669 163.16238 
L 328.292981 163.16238 
z
" style="fill:#9e4f46;stroke:#000000;stroke-linejoin:miter;"/>
   </g>
   <g id="matplotlib.axis_11"/>
   <g id="matplotlib.axis_12">
    <g id="ytick_11"/>
    <g id="ytick_12"/>
    <g id="text_7">
     <text style="font-family:DejaVu Sans;font-size:10px;font-style:normal;font-weight:normal;" transform="translate(49.473438 152.198072)"/>
     <text style="font-family:DejaVu Sans;font-size:10px;font-style:normal;font-weight:normal;" transform="translate(38.34375 163.395884)">18   </text>
    </g>
   </g>
   <g id="patch_67">
    <path d="M 53.473438 177.041529 
L 53.473438 153.909614 
" style="fill:none;stroke:#000000;stroke-linecap:square;stroke-linejoin:miter;stroke-width:0.8;"/>
   </g>
   <g id="patch_68">
    <path d="M 388.273438 177.041529 
L 388.273438 153.909614 
" style="fill:none;stroke:#000000;stroke-linecap:square;stroke-linejoin:miter;stroke-width:0.8;"/>
   </g>
   <g id="patch_69">
    <path d="M 53.473438 177.041529 
L 388.273438 177.041529 
" style="fill:none;stroke:#000000;stroke-linecap:square;stroke-linejoin:miter;stroke-width:0.8;"/>
   </g>
   <g id="patch_70">
    <path d="M 53.473438 153.909614 
L 388.273438 153.909614 
" style="fill:none;stroke:#000000;stroke-linecap:square;stroke-linejoin:miter;stroke-width:0.8;"/>
   </g>
  </g>
  <g id="axes_7">
   <g id="patch_71">
    <path d="M 53.473438 204.799827 
L 388.273438 204.799827 
L 388.273438 181.667912 
L 53.473438 181.667912 
z
" style="fill:none;"/>
   </g>
   <g id="patch_72">
    <path clip-path="url(#p9ec6cbae47)" d="M 61.107314 202.486636 
L 137.446076 202.486636 
L 137.446076 190.920678 
L 61.107314 190.920678 
z
" style="fill:#ff0000;stroke:#000000;stroke-linejoin:miter;"/>
   </g>
   <g id="patch_73">
    <path clip-path="url(#p9ec6cbae47)" d="M 137.446076 202.486636 
L 186.520995 202.486636 
L 186.520995 190.920678 
L 137.446076 190.920678 
z
" style="fill:#00ff00;stroke:#000000;stroke-linejoin:miter;"/>
   </g>
   <g id="patch_74">
    <path clip-path="url(#p9ec6cbae47)" d="M 186.520995 202.486636 
L 224.690376 202.486636 
L 224.690376 190.920678 
L 186.520995 190.920678 
z
" style="fill:#ff1ab9;stroke:#000000;stroke-linejoin:miter;"/>
   </g>
   <g id="patch_75">
    <path clip-path="url(#p9ec6cbae47)" d="M 224.690376 202.486636 
L 262.859757 202.486636 
L 262.859757 190.920678 
L 224.690376 190.920678 
z
" style="fill:#ffd300;stroke:#000000;stroke-linejoin:miter;"/>
   </g>
   <g id="patch_76">
    <path clip-path="url(#p9ec6cbae47)" d="M 262.859757 202.486636 
L 350.104056 202.486636 
L 350.104056 190.920678 
L 262.859757 190.920678 
z
" style="fill:#005800;stroke:#000000;stroke-linejoin:miter;"/>
   </g>
   <g id="patch_77">
    <path clip-path="url(#p9ec6cbae47)" d="M 350.104056 202.486636 
L 382.820669 202.486636 
L 382.820669 190.920678 
L 350.104056 190.920678 
z
" style="fill:#8484ff;stroke:#000000;stroke-linejoin:miter;"/>
   </g>
   <g id="matplotlib.axis_13"/>
   <g id="matplotlib.axis_14">
    <g id="ytick_13"/>
    <g id="ytick_14"/>
    <g id="text_8">
     <text style="font-family:DejaVu Sans;font-size:10px;font-style:normal;font-weight:normal;" transform="translate(49.473438 179.95637)"/>
     <text style="font-family:DejaVu Sans;font-size:10px;font-style:normal;font-weight:normal;" transform="translate(38.34375 191.154182)">21   </text>
    </g>
   </g>
   <g id="patch_78">
    <path d="M 53.473438 204.799827 
L 53.473438 181.667912 
" style="fill:none;stroke:#000000;stroke-linecap:square;stroke-linejoin:miter;stroke-width:0.8;"/>
   </g>
   <g id="patch_79">
    <path d="M 388.273438 204.799827 
L 388.273438 181.667912 
" style="fill:none;stroke:#000000;stroke-linecap:square;stroke-linejoin:miter;stroke-width:0.8;"/>
   </g>
   <g id="patch_80">
    <path d="M 53.473438 204.799827 
L 388.273438 204.799827 
" style="fill:none;stroke:#000000;stroke-linecap:square;stroke-linejoin:miter;stroke-width:0.8;"/>
   </g>
   <g id="patch_81">
    <path d="M 53.473438 181.667912 
L 388.273438 181.667912 
" style="fill:none;stroke:#000000;stroke-linecap:square;stroke-linejoin:miter;stroke-width:0.8;"/>
   </g>
  </g>
  <g id="axes_8">
   <g id="patch_82">
    <path d="M 53.473438 232.558125 
L 388.273438 232.558125 
L 388.273438 209.42621 
L 53.473438 209.42621 
z
" style="fill:none;"/>
   </g>
   <g id="patch_83">
    <path clip-path="url(#p8324a15f09)" d="M 61.107314 230.244934 
L 110.182232 230.244934 
L 110.182232 218.678976 
L 61.107314 218.678976 
z
" style="fill:#ff0000;stroke:#000000;stroke-linejoin:miter;"/>
   </g>
   <g id="patch_84">
    <path clip-path="url(#p8324a15f09)" d="M 110.182232 230.244934 
L 164.70992 230.244934 
L 164.70992 218.678976 
L 110.182232 218.678976 
z
" style="fill:#00ff00;stroke:#000000;stroke-linejoin:miter;"/>
   </g>
   <g id="patch_85">
    <path clip-path="url(#p8324a15f09)" d="M 164.70992 230.244934 
L 208.332069 230.244934 
L 208.332069 218.678976 
L 164.70992 218.678976 
z
" style="fill:#ff1ab9;stroke:#000000;stroke-linejoin:miter;"/>
   </g>
   <g id="patch_86">
    <path clip-path="url(#p8324a15f09)" d="M 208.332069 230.244934 
L 262.859757 230.244934 
L 262.859757 218.678976 
L 208.332069 218.678976 
z
" style="fill:#ffd300;stroke:#000000;stroke-linejoin:miter;"/>
   </g>
   <g id="patch_87">
    <path clip-path="url(#p8324a15f09)" d="M 262.859757 230.244934 
L 295.576369 230.244934 
L 295.576369 218.678976 
L 262.859757 218.678976 
z
" style="fill:#005800;stroke:#000000;stroke-linejoin:miter;"/>
   </g>
   <g id="patch_88">
    <path clip-path="url(#p8324a15f09)" d="M 295.576369 230.244934 
L 322.840213 230.244934 
L 322.840213 218.678976 
L 295.576369 218.678976 
z
" style="fill:#8484ff;stroke:#000000;stroke-linejoin:miter;"/>
   </g>
   <g id="patch_89">
    <path clip-path="url(#p8324a15f09)" d="M 322.840213 230.244934 
L 382.820669 230.244934 
L 382.820669 218.678976 
L 322.840213 218.678976 
z
" style="fill:#9e4f46;stroke:#000000;stroke-linejoin:miter;"/>
   </g>
   <g id="matplotlib.axis_15">
    <g id="xtick_1">
     <g id="line2d_1">
      <defs>
       <path d="M 0 0 
L 0 3.5 
" id="mee79255f6d" style="stroke:#000000;stroke-width:0.8;"/>
      </defs>
      <g>
       <use style="stroke:#000000;stroke-width:0.8;" x="55.654545" xlink:href="#mee79255f6d" y="232.558125"/>
      </g>
     </g>
     <g id="text_9">
      <text style="font-family:DejaVu Sans;font-size:10px;font-style:normal;font-weight:normal;text-anchor:middle;" transform="rotate(-0, 55.654545, 247.156563)" x="55.654545" y="247.156563">0</text>
     </g>
    </g>
    <g id="xtick_2">
     <g id="line2d_2">
      <g>
       <use style="stroke:#000000;stroke-width:0.8;" x="99.276695" xlink:href="#mee79255f6d" y="232.558125"/>
      </g>
     </g>
     <g id="text_10">
      <text style="font-family:DejaVu Sans;font-size:10px;font-style:normal;font-weight:normal;text-anchor:middle;" transform="rotate(-0, 99.276695, 247.156563)" x="99.276695" y="247.156563">20</text>
     </g>
    </g>
    <g id="xtick_3">
     <g id="line2d_3">
      <g>
       <use style="stroke:#000000;stroke-width:0.8;" x="142.898845" xlink:href="#mee79255f6d" y="232.558125"/>
      </g>
     </g>
     <g id="text_11">
      <text style="font-family:DejaVu Sans;font-size:10px;font-style:normal;font-weight:normal;text-anchor:middle;" transform="rotate(-0, 142.898845, 247.156563)" x="142.898845" y="247.156563">40</text>
     </g>
    </g>
    <g id="xtick_4">
     <g id="line2d_4">
      <g>
       <use style="stroke:#000000;stroke-width:0.8;" x="186.520995" xlink:href="#mee79255f6d" y="232.558125"/>
      </g>
     </g>
     <g id="text_12">
      <text style="font-family:DejaVu Sans;font-size:10px;font-style:normal;font-weight:normal;text-anchor:middle;" transform="rotate(-0, 186.520995, 247.156563)" x="186.520995" y="247.156563">60</text>
     </g>
    </g>
    <g id="xtick_5">
     <g id="line2d_5">
      <g>
       <use style="stroke:#000000;stroke-width:0.8;" x="230.143144" xlink:href="#mee79255f6d" y="232.558125"/>
      </g>
     </g>
     <g id="text_13">
      <text style="font-family:DejaVu Sans;font-size:10px;font-style:normal;font-weight:normal;text-anchor:middle;" transform="rotate(-0, 230.143144, 247.156563)" x="230.143144" y="247.156563">80</text>
     </g>
    </g>
    <g id="xtick_6">
     <g id="line2d_6">
      <g>
       <use style="stroke:#000000;stroke-width:0.8;" x="273.765294" xlink:href="#mee79255f6d" y="232.558125"/>
      </g>
     </g>
     <g id="text_14">
      <text style="font-family:DejaVu Sans;font-size:10px;font-style:normal;font-weight:normal;text-anchor:middle;" transform="rotate(-0, 273.765294, 247.156563)" x="273.765294" y="247.156563">100</text>
     </g>
    </g>
    <g id="xtick_7">
     <g id="line2d_7">
      <g>
       <use style="stroke:#000000;stroke-width:0.8;" x="317.387444" xlink:href="#mee79255f6d" y="232.558125"/>
      </g>
     </g>
     <g id="text_15">
      <text style="font-family:DejaVu Sans;font-size:10px;font-style:normal;font-weight:normal;text-anchor:middle;" transform="rotate(-0, 317.387444, 247.156563)" x="317.387444" y="247.156563">120</text>
     </g>
    </g>
    <g id="xtick_8">
     <g id="line2d_8">
      <g>
       <use style="stroke:#000000;stroke-width:0.8;" x="361.009594" xlink:href="#mee79255f6d" y="232.558125"/>
      </g>
     </g>
     <g id="text_16">
      <text style="font-family:DejaVu Sans;font-size:10px;font-style:normal;font-weight:normal;text-anchor:middle;" transform="rotate(-0, 361.009594, 247.156563)" x="361.009594" y="247.156563">140</text>
     </g>
    </g>
    <g id="text_17">
     <text style="font-family:DejaVu Sans;font-size:10px;font-style:normal;font-weight:normal;text-anchor:middle;" transform="rotate(-0, 220.873438, 260.834688)" x="220.873438" y="260.834688">Genomic Position [Mb]</text>
    </g>
   </g>
   <g id="matplotlib.axis_16">
    <g id="ytick_15"/>
    <g id="ytick_16"/>
    <g id="text_18">
     <text style="font-family:DejaVu Sans;font-size:10px;font-style:normal;font-weight:normal;" transform="translate(49.473438 207.714668)"/>
     <text style="font-family:DejaVu Sans;font-size:10px;font-style:normal;font-weight:normal;" transform="translate(38.34375 218.91248)">24   </text>
    </g>
   </g>
   <g id="patch_90">
    <path d="M 53.473438 232.558125 
L 53.473438 209.42621 
" style="fill:none;stroke:#000000;stroke-linecap:square;stroke-linejoin:miter;stroke-width:0.8;"/>
   </g>
   <g id="patch_91">
    <path d="M 388.273438 232.558125 
L 388.273438 209.42621 
" style="fill:none;stroke:#000000;stroke-linecap:square;stroke-linejoin:miter;stroke-width:0.8;"/>
   </g>
   <g id="patch_92">
    <path d="M 53.473438 232.558125 
L 388.273438 232.558125 
" style="fill:none;stroke:#000000;stroke-linecap:square;stroke-linejoin:miter;stroke-width:0.8;"/>
   </g>
   <g id="patch_93">
    <path d="M 53.473438 209.42621 
L 388.273438 209.42621 
" style="fill:none;stroke:#000000;stroke-linecap:square;stroke-linejoin:miter;stroke-width:0.8;"/>
   </g>
  </g>
 </g>
 <defs>
  <clipPath id="p8a70b5c38b">
   <rect height="23.131915" width="334.8" x="53.473438" y="15.118125"/>
  </clipPath>
  <clipPath id="p7421fa48ab">
   <rect height="23.131915" width="334.8" x="53.473438" y="42.876423"/>
  </clipPath>
  <clipPath id="p1ccb52b240">
   <rect height="23.131915" width="334.8" x="53.473438" y="70.634721"/>
  </clipPath>
  <clipPath id="pfafe5a7614">
   <rect height="23.131915" width="334.8" x="53.473438" y="98.393019"/>
  </clipPath>
  <clipPath id="p4302f0476d">
   <rect height="23.131915" width="334.8" x="53.473438" y="126.151316"/>
  </clipPath>
  <clipPath id="p2278d0c7f8">
   <rect height="23.131915" width="334.8" x="53.473438" y="153.909614"/>
  </clipPath>
  <clipPath id="p9ec6cbae47">
   <rect height="23.131915" width="334.8" x="53.473438" y="181.667912"/>
  </clipPath>
  <clipPath id="p8324a15f09">
   <rect height="23.131915" width="334.8" x="53.473438" y="209.42621"/>
  </clipPath>
 </defs>
</svg>
