<?xml version="1.0" encoding="utf-8" standalone="no"?>
<!DOCTYPE svg PUBLIC "-//W3C//DTD SVG 1.1//EN"
  "http://www.w3.org/Graphics/SVG/1.1/DTD/svg11.dtd">
<!-- Created with matplotlib (https://matplotlib.org/) -->
<svg height="262.914375pt" version="1.1" viewBox="0 0 388.273437 262.914375" width="388.273437pt" xmlns="http://www.w3.org/2000/svg" xmlns:xlink="http://www.w3.org/1999/xlink">
 <defs>
  <style type="text/css">
*{stroke-linecap:butt;stroke-linejoin:round;}
  </style>
 </defs>
 <g id="figure_1">
  <g id="patch_1">
   <path d="M 0 262.914375 
L 388.273437 262.914375 
L 388.273437 0 
L 0 0 
z
" style="fill:none;"/>
  </g>
  <g id="axes_1">
   <g id="patch_2">
    <path d="M 53.473438 33.545244 
L 388.273438 33.545244 
L 388.273438 15.118125 
L 53.473438 15.118125 
z
" style="fill:none;"/>
   </g>
   <g id="patch_3">
    <path clip-path="url(#p9502ea5222)" d="M 59.376712 31.702532 
L 101.542959 31.702532 
L 101.542959 22.488972 
L 59.376712 22.488972 
z
" style="fill:#ff0000;stroke:#000000;stroke-linejoin:miter;"/>
   </g>
   <g id="patch_4">
    <path clip-path="url(#p9502ea5222)" d="M 101.542959 31.702532 
L 126.842707 31.702532 
L 126.842707 22.488972 
L 101.542959 22.488972 
z
" style="fill:#00ff00;stroke:#000000;stroke-linejoin:miter;"/>
   </g>
   <g id="patch_5">
    <path clip-path="url(#p9502ea5222)" d="M 126.842707 31.702532 
L 177.442203 31.702532 
L 177.442203 22.488972 
L 126.842707 22.488972 
z
" style="fill:#ff1ab9;stroke:#000000;stroke-linejoin:miter;"/>
   </g>
   <g id="patch_6">
    <path clip-path="url(#p9502ea5222)" d="M 177.442203 31.702532 
L 198.525327 31.702532 
L 198.525327 22.488972 
L 177.442203 22.488972 
z
" style="fill:#ffd300;stroke:#000000;stroke-linejoin:miter;"/>
   </g>
   <g id="patch_7">
    <path clip-path="url(#p9502ea5222)" d="M 198.525327 31.702532 
L 223.825075 31.702532 
L 223.825075 22.488972 
L 198.525327 22.488972 
z
" style="fill:#005800;stroke:#000000;stroke-linejoin:miter;"/>
   </g>
   <g id="patch_8">
    <path clip-path="url(#p9502ea5222)" d="M 223.825075 31.702532 
L 265.991322 31.702532 
L 265.991322 22.488972 
L 223.825075 22.488972 
z
" style="fill:#8484ff;stroke:#000000;stroke-linejoin:miter;"/>
   </g>
   <g id="patch_9">
    <path clip-path="url(#p9502ea5222)" d="M 265.991322 31.702532 
L 316.590818 31.702532 
L 316.590818 22.488972 
L 265.991322 22.488972 
z
" style="fill:#9e4f46;stroke:#000000;stroke-linejoin:miter;"/>
   </g>
   <g id="patch_10">
    <path clip-path="url(#p9502ea5222)" d="M 316.590818 31.702532 
L 358.757065 31.702532 
L 358.757065 22.488972 
L 316.590818 22.488972 
z
" style="fill:#00ffc1;stroke:#000000;stroke-linejoin:miter;"/>
   </g>
   <g id="patch_11">
    <path clip-path="url(#p9502ea5222)" d="M 358.757065 31.702532 
L 379.840188 31.702532 
L 379.840188 22.488972 
L 358.757065 22.488972 
z
" style="fill:#008495;stroke:#000000;stroke-linejoin:miter;"/>
   </g>
   <g id="matplotlib.axis_1"/>
   <g id="matplotlib.axis_2">
    <g id="ytick_1"/>
    <g id="ytick_2"/>
    <g id="text_1">
     <text style="font-family:DejaVu Sans;font-size:10px;font-style:normal;font-weight:normal;text-anchor:middle;" transform="rotate(-0, 49.473438, 22.251997)" x="49.473438" y="22.251997">Embryo 1                </text>
    </g>
   </g>
   <g id="patch_12">
    <path d="M 53.473438 33.545244 
L 53.473438 15.118125 
" style="fill:none;stroke:#000000;stroke-linecap:square;stroke-linejoin:miter;stroke-width:0.8;"/>
   </g>
   <g id="patch_13">
    <path d="M 388.273438 33.545244 
L 388.273438 15.118125 
" style="fill:none;stroke:#000000;stroke-linecap:square;stroke-linejoin:miter;stroke-width:0.8;"/>
   </g>
   <g id="patch_14">
    <path d="M 53.473438 33.545244 
L 388.273438 33.545244 
" style="fill:none;stroke:#000000;stroke-linecap:square;stroke-linejoin:miter;stroke-width:0.8;"/>
   </g>
   <g id="patch_15">
    <path d="M 53.473438 15.118125 
L 388.273438 15.118125 
" style="fill:none;stroke:#000000;stroke-linecap:square;stroke-linejoin:miter;stroke-width:0.8;"/>
   </g>
   <g id="text_2">
    <text style="font-family:DejaVu Sans;font-size:12px;font-style:normal;font-weight:normal;text-anchor:middle;" transform="rotate(-0, 220.873438, 9.118125)" x="220.873438" y="9.118125">Chr 1</text>
   </g>
  </g>
  <g id="axes_2">
   <g id="patch_16">
    <path d="M 53.473438 55.657786 
L 388.273438 55.657786 
L 388.273438 37.230667 
L 53.473438 37.230667 
z
" style="fill:none;"/>
   </g>
   <g id="patch_17">
    <path clip-path="url(#p7430018e1c)" d="M 59.376712 53.815074 
L 84.67646 53.815074 
L 84.67646 44.601515 
L 59.376712 44.601515 
z
" style="fill:#ff0000;stroke:#000000;stroke-linejoin:miter;"/>
   </g>
   <g id="patch_18">
    <path clip-path="url(#p7430018e1c)" d="M 84.67646 53.815074 
L 109.976208 53.815074 
L 109.976208 44.601515 
L 84.67646 44.601515 
z
" style="fill:#00ff00;stroke:#000000;stroke-linejoin:miter;"/>
   </g>
   <g id="patch_19">
    <path clip-path="url(#p7430018e1c)" d="M 109.976208 53.815074 
L 198.525327 53.815074 
L 198.525327 44.601515 
L 109.976208 44.601515 
z
" style="fill:#ff1ab9;stroke:#000000;stroke-linejoin:miter;"/>
   </g>
   <g id="patch_20">
    <path clip-path="url(#p7430018e1c)" d="M 198.525327 53.815074 
L 274.424571 53.815074 
L 274.424571 44.601515 
L 198.525327 44.601515 
z
" style="fill:#ffd300;stroke:#000000;stroke-linejoin:miter;"/>
   </g>
   <g id="patch_21">
    <path clip-path="url(#p7430018e1c)" d="M 274.424571 53.815074 
L 346.107191 53.815074 
L 346.107191 44.601515 
L 274.424571 44.601515 
z
" style="fill:#005800;stroke:#000000;stroke-linejoin:miter;"/>
   </g>
   <g id="patch_22">
    <path clip-path="url(#p7430018e1c)" d="M 346.107191 53.815074 
L 379.840188 53.815074 
L 379.840188 44.601515 
L 346.107191 44.601515 
z
" style="fill:#8484ff;stroke:#000000;stroke-linejoin:miter;"/>
   </g>
   <g id="matplotlib.axis_3"/>
   <g id="matplotlib.axis_4">
    <g id="ytick_3"/>
    <g id="ytick_4"/>
    <g id="text_3">
     <text style="font-family:DejaVu Sans;font-size:10px;font-style:normal;font-weight:normal;" transform="translate(49.473438 33.166727)"/>
     <text style="font-family:DejaVu Sans;font-size:10px;font-style:normal;font-weight:normal;" transform="translate(41.525 44.364539)">7   </text>
    </g>
   </g>
   <g id="patch_23">
    <path d="M 53.473438 55.657786 
L 53.473438 37.230667 
" style="fill:none;stroke:#000000;stroke-linecap:square;stroke-linejoin:miter;stroke-width:0.8;"/>
   </g>
   <g id="patch_24">
    <path d="M 388.273438 55.657786 
L 388.273438 37.230667 
" style="fill:none;stroke:#000000;stroke-linecap:square;stroke-linejoin:miter;stroke-width:0.8;"/>
   </g>
   <g id="patch_25">
    <path d="M 53.473438 55.657786 
L 388.273438 55.657786 
" style="fill:none;stroke:#000000;stroke-linecap:square;stroke-linejoin:miter;stroke-width:0.8;"/>
   </g>
   <g id="patch_26">
    <path d="M 53.473438 37.230667 
L 388.273438 37.230667 
" style="fill:none;stroke:#000000;stroke-linecap:square;stroke-linejoin:miter;stroke-width:0.8;"/>
   </g>
  </g>
  <g id="axes_3">
   <g id="patch_27">
    <path d="M 53.473438 77.770328 
L 388.273438 77.770328 
L 388.273438 59.34321 
L 53.473438 59.34321 
z
" style="fill:none;"/>
   </g>
   <g id="patch_28">
    <path clip-path="url(#pd9df701011)" d="M 59.376712 75.927617 
L 152.142455 75.927617 
L 152.142455 66.714057 
L 59.376712 66.714057 
z
" style="fill:#ff0000;stroke:#000000;stroke-linejoin:miter;"/>
   </g>
   <g id="patch_29">
    <path clip-path="url(#pd9df701011)" d="M 152.142455 75.927617 
L 202.741951 75.927617 
L 202.741951 66.714057 
L 152.142455 66.714057 
z
" style="fill:#00ff00;stroke:#000000;stroke-linejoin:miter;"/>
   </g>
   <g id="patch_30">
    <path clip-path="url(#pd9df701011)" d="M 202.741951 75.927617 
L 244.908198 75.927617 
L 244.908198 66.714057 
L 202.741951 66.714057 
z
" style="fill:#ff1ab9;stroke:#000000;stroke-linejoin:miter;"/>
   </g>
   <g id="patch_31">
    <path clip-path="url(#pd9df701011)" d="M 244.908198 75.927617 
L 274.424571 75.927617 
L 274.424571 66.714057 
L 244.908198 66.714057 
z
" style="fill:#ffd300;stroke:#000000;stroke-linejoin:miter;"/>
   </g>
   <g id="patch_32">
    <path clip-path="url(#pd9df701011)" d="M 274.424571 75.927617 
L 299.724319 75.927617 
L 299.724319 66.714057 
L 274.424571 66.714057 
z
" style="fill:#005800;stroke:#000000;stroke-linejoin:miter;"/>
   </g>
   <g id="patch_33">
    <path clip-path="url(#pd9df701011)" d="M 299.724319 75.927617 
L 337.673941 75.927617 
L 337.673941 66.714057 
L 299.724319 66.714057 
z
" style="fill:#8484ff;stroke:#000000;stroke-linejoin:miter;"/>
   </g>
   <g id="patch_34">
    <path clip-path="url(#pd9df701011)" d="M 337.673941 75.927617 
L 384.056813 75.927617 
L 384.056813 66.714057 
L 337.673941 66.714057 
z
" style="fill:#9e4f46;stroke:#000000;stroke-linejoin:miter;"/>
   </g>
   <g id="matplotlib.axis_5"/>
   <g id="matplotlib.axis_6">
    <g id="ytick_5"/>
    <g id="ytick_6"/>
    <g id="text_4">
     <text style="font-family:DejaVu Sans;font-size:10px;font-style:normal;font-weight:normal;" transform="translate(49.473438 55.279269)"/>
     <text style="font-family:DejaVu Sans;font-size:10px;font-style:normal;font-weight:normal;" transform="translate(41.525 66.477082)">8   </text>
    </g>
   </g>
   <g id="patch_35">
    <path d="M 53.473438 77.770328 
L 53.473438 59.34321 
" style="fill:none;stroke:#000000;stroke-linecap:square;stroke-linejoin:miter;stroke-width:0.8;"/>
   </g>
   <g id="patch_36">
    <path d="M 388.273438 77.770328 
L 388.273438 59.34321 
" style="fill:none;stroke:#000000;stroke-linecap:square;stroke-linejoin:miter;stroke-width:0.8;"/>
   </g>
   <g id="patch_37">
    <path d="M 53.473438 77.770328 
L 388.273438 77.770328 
" style="fill:none;stroke:#000000;stroke-linecap:square;stroke-linejoin:miter;stroke-width:0.8;"/>
   </g>
   <g id="patch_38">
    <path d="M 53.473438 59.34321 
L 388.273438 59.34321 
" style="fill:none;stroke:#000000;stroke-linecap:square;stroke-linejoin:miter;stroke-width:0.8;"/>
   </g>
  </g>
  <g id="axes_4">
   <g id="patch_39">
    <path d="M 53.473438 99.882871 
L 388.273438 99.882871 
L 388.273438 81.455752 
L 53.473438 81.455752 
z
" style="fill:none;"/>
   </g>
   <g id="patch_40">
    <path clip-path="url(#pf54bdaf861)" d="M 59.376712 98.040159 
L 93.10971 98.040159 
L 93.10971 88.8266 
L 59.376712 88.8266 
z
" style="fill:#ff0000;stroke:#000000;stroke-linejoin:miter;"/>
   </g>
   <g id="patch_41">
    <path clip-path="url(#pf54bdaf861)" d="M 93.10971 98.040159 
L 118.409458 98.040159 
L 118.409458 88.8266 
L 93.10971 88.8266 
z
" style="fill:#00ff00;stroke:#000000;stroke-linejoin:miter;"/>
   </g>
   <g id="patch_42">
    <path clip-path="url(#pf54bdaf861)" d="M 118.409458 98.040159 
L 147.92583 98.040159 
L 147.92583 88.8266 
L 118.409458 88.8266 
z
" style="fill:#ff1ab9;stroke:#000000;stroke-linejoin:miter;"/>
   </g>
   <g id="patch_43">
    <path clip-path="url(#pf54bdaf861)" d="M 147.92583 98.040159 
L 177.442203 98.040159 
L 177.442203 88.8266 
L 147.92583 88.8266 
z
" style="fill:#ffd300;stroke:#000000;stroke-linejoin:miter;"/>
   </g>
   <g id="patch_44">
    <path clip-path="url(#pf54bdaf861)" d="M 177.442203 98.040159 
L 202.741951 98.040159 
L 202.741951 88.8266 
L 177.442203 88.8266 
z
" style="fill:#005800;stroke:#000000;stroke-linejoin:miter;"/>
   </g>
   <g id="patch_45">
    <path clip-path="url(#pf54bdaf861)" d="M 202.741951 98.040159 
L 223.825075 98.040159 
L 223.825075 88.8266 
L 202.741951 88.8266 
z
" style="fill:#8484ff;stroke:#000000;stroke-linejoin:miter;"/>
   </g>
   <g id="patch_46">
    <path clip-path="url(#pf54bdaf861)" d="M 223.825075 98.040159 
L 278.641196 98.040159 
L 278.641196 88.8266 
L 223.825075 88.8266 
z
" style="fill:#9e4f46;stroke:#000000;stroke-linejoin:miter;"/>
   </g>
   <g id="patch_47">
    <path clip-path="url(#pf54bdaf861)" d="M 278.641196 98.040159 
L 299.724319 98.040159 
L 299.724319 88.8266 
L 278.641196 88.8266 
z
" style="fill:#00ffc1;stroke:#000000;stroke-linejoin:miter;"/>
   </g>
   <g id="patch_48">
    <path clip-path="url(#pf54bdaf861)" d="M 299.724319 98.040159 
L 358.757065 98.040159 
L 358.757065 88.8266 
L 299.724319 88.8266 
z
" style="fill:#008495;stroke:#000000;stroke-linejoin:miter;"/>
   </g>
   <g id="patch_49">
    <path clip-path="url(#pf54bdaf861)" d="M 358.757065 98.040159 
L 384.056813 98.040159 
L 384.056813 88.8266 
L 358.757065 88.8266 
z
" style="fill:#00007b;stroke:#000000;stroke-linejoin:miter;"/>
   </g>
   <g id="matplotlib.axis_7"/>
   <g id="matplotlib.axis_8">
    <g id="ytick_7"/>
    <g id="ytick_8"/>
    <g id="text_5">
     <text style="font-family:DejaVu Sans;font-size:10px;font-style:normal;font-weight:normal;" transform="translate(49.473438 77.391811)"/>
     <text style="font-family:DejaVu Sans;font-size:10px;font-style:normal;font-weight:normal;" transform="translate(38.34375 88.589624)">10   </text>
    </g>
   </g>
   <g id="patch_50">
    <path d="M 53.473438 99.882871 
L 53.473438 81.455752 
" style="fill:none;stroke:#000000;stroke-linecap:square;stroke-linejoin:miter;stroke-width:0.8;"/>
   </g>
   <g id="patch_51">
    <path d="M 388.273438 99.882871 
L 388.273438 81.455752 
" style="fill:none;stroke:#000000;stroke-linecap:square;stroke-linejoin:miter;stroke-width:0.8;"/>
   </g>
   <g id="patch_52">
    <path d="M 53.473438 99.882871 
L 388.273438 99.882871 
" style="fill:none;stroke:#000000;stroke-linecap:square;stroke-linejoin:miter;stroke-width:0.8;"/>
   </g>
   <g id="patch_53">
    <path d="M 53.473438 81.455752 
L 388.273438 81.455752 
" style="fill:none;stroke:#000000;stroke-linecap:square;stroke-linejoin:miter;stroke-width:0.8;"/>
   </g>
  </g>
  <g id="axes_5">
   <g id="patch_54">
    <path d="M 53.473438 121.995413 
L 388.273438 121.995413 
L 388.273438 103.568294 
L 53.473438 103.568294 
z
" style="fill:none;"/>
   </g>
   <g id="patch_55">
    <path clip-path="url(#p2dcb525ef9)" d="M 59.376712 120.152701 
L 88.893085 120.152701 
L 88.893085 110.939142 
L 59.376712 110.939142 
z
" style="fill:#ff0000;stroke:#000000;stroke-linejoin:miter;"/>
   </g>
   <g id="patch_56">
    <path clip-path="url(#p2dcb525ef9)" d="M 88.893085 120.152701 
L 152.142455 120.152701 
L 152.142455 110.939142 
L 88.893085 110.939142 
z
" style="fill:#00ff00;stroke:#000000;stroke-linejoin:miter;"/>
   </g>
   <g id="patch_57">
    <path clip-path="url(#p2dcb525ef9)" d="M 152.142455 120.152701 
L 190.092077 120.152701 
L 190.092077 110.939142 
L 152.142455 110.939142 
z
" style="fill:#ff1ab9;stroke:#000000;stroke-linejoin:miter;"/>
   </g>
   <g id="patch_58">
    <path clip-path="url(#p2dcb525ef9)" d="M 190.092077 120.152701 
L 211.175201 120.152701 
L 211.175201 110.939142 
L 190.092077 110.939142 
z
" style="fill:#ffd300;stroke:#000000;stroke-linejoin:miter;"/>
   </g>
   <g id="patch_59">
    <path clip-path="url(#p2dcb525ef9)" d="M 211.175201 120.152701 
L 232.258324 120.152701 
L 232.258324 110.939142 
L 211.175201 110.939142 
z
" style="fill:#005800;stroke:#000000;stroke-linejoin:miter;"/>
   </g>
   <g id="patch_60">
    <path clip-path="url(#p2dcb525ef9)" d="M 232.258324 120.152701 
L 257.558072 120.152701 
L 257.558072 110.939142 
L 232.258324 110.939142 
z
" style="fill:#8484ff;stroke:#000000;stroke-linejoin:miter;"/>
   </g>
   <g id="patch_61">
    <path clip-path="url(#p2dcb525ef9)" d="M 257.558072 120.152701 
L 291.29107 120.152701 
L 291.29107 110.939142 
L 257.558072 110.939142 
z
" style="fill:#9e4f46;stroke:#000000;stroke-linejoin:miter;"/>
   </g>
   <g id="patch_62">
    <path clip-path="url(#p2dcb525ef9)" d="M 291.29107 120.152701 
L 325.024067 120.152701 
L 325.024067 110.939142 
L 291.29107 110.939142 
z
" style="fill:#00ffc1;stroke:#000000;stroke-linejoin:miter;"/>
   </g>
   <g id="patch_63">
    <path clip-path="url(#p2dcb525ef9)" d="M 325.024067 120.152701 
L 354.54044 120.152701 
L 354.54044 110.939142 
L 325.024067 110.939142 
z
" style="fill:#008495;stroke:#000000;stroke-linejoin:miter;"/>
   </g>
   <g id="patch_64">
    <path clip-path="url(#p2dcb525ef9)" d="M 354.54044 120.152701 
L 379.840188 120.152701 
L 379.840188 110.939142 
L 354.54044 110.939142 
z
" style="fill:#00007b;stroke:#000000;stroke-linejoin:miter;"/>
   </g>
   <g id="matplotlib.axis_9"/>
   <g id="matplotlib.axis_10">
    <g id="ytick_9"/>
    <g id="ytick_10"/>
    <g id="text_6">
     <text style="font-family:DejaVu Sans;font-size:10px;font-style:normal;font-weight:normal;" transform="translate(49.473438 99.504354)"/>
     <text style="font-family:DejaVu Sans;font-size:10px;font-style:normal;font-weight:normal;" transform="translate(38.34375 110.702166)">11   </text>
    </g>
   </g>
   <g id="patch_65">
    <path d="M 53.473438 121.995413 
L 53.473438 103.568294 
" style="fill:none;stroke:#000000;stroke-linecap:square;stroke-linejoin:miter;stroke-width:0.8;"/>
   </g>
   <g id="patch_66">
    <path d="M 388.273438 121.995413 
L 388.273438 103.568294 
" style="fill:none;stroke:#000000;stroke-linecap:square;stroke-linejoin:miter;stroke-width:0.8;"/>
   </g>
   <g id="patch_67">
    <path d="M 53.473438 121.995413 
L 388.273438 121.995413 
" style="fill:none;stroke:#000000;stroke-linecap:square;stroke-linejoin:miter;stroke-width:0.8;"/>
   </g>
   <g id="patch_68">
    <path d="M 53.473438 103.568294 
L 388.273438 103.568294 
" style="fill:none;stroke:#000000;stroke-linecap:square;stroke-linejoin:miter;stroke-width:0.8;"/>
   </g>
  </g>
  <g id="axes_6">
   <g id="patch_69">
    <path d="M 53.473438 144.107956 
L 388.273438 144.107956 
L 388.273438 125.680837 
L 53.473438 125.680837 
z
" style="fill:none;"/>
   </g>
   <g id="patch_70">
    <path clip-path="url(#p28a321961a)" d="M 59.376712 142.265244 
L 97.326334 142.265244 
L 97.326334 133.051684 
L 59.376712 133.051684 
z
" style="fill:#ff0000;stroke:#000000;stroke-linejoin:miter;"/>
   </g>
   <g id="patch_71">
    <path clip-path="url(#p28a321961a)" d="M 97.326334 142.265244 
L 135.275956 142.265244 
L 135.275956 133.051684 
L 97.326334 133.051684 
z
" style="fill:#00ff00;stroke:#000000;stroke-linejoin:miter;"/>
   </g>
   <g id="patch_72">
    <path clip-path="url(#p28a321961a)" d="M 135.275956 142.265244 
L 173.225579 142.265244 
L 173.225579 133.051684 
L 135.275956 133.051684 
z
" style="fill:#ff1ab9;stroke:#000000;stroke-linejoin:miter;"/>
   </g>
   <g id="patch_73">
    <path clip-path="url(#p28a321961a)" d="M 173.225579 142.265244 
L 190.092077 142.265244 
L 190.092077 133.051684 
L 173.225579 133.051684 
z
" style="fill:#ffd300;stroke:#000000;stroke-linejoin:miter;"/>
   </g>
   <g id="patch_74">
    <path clip-path="url(#p28a321961a)" d="M 190.092077 142.265244 
L 219.60845 142.265244 
L 219.60845 133.051684 
L 190.092077 133.051684 
z
" style="fill:#005800;stroke:#000000;stroke-linejoin:miter;"/>
   </g>
   <g id="patch_75">
    <path clip-path="url(#p28a321961a)" d="M 219.60845 142.265244 
L 249.124823 142.265244 
L 249.124823 133.051684 
L 219.60845 133.051684 
z
" style="fill:#8484ff;stroke:#000000;stroke-linejoin:miter;"/>
   </g>
   <g id="patch_76">
    <path clip-path="url(#p28a321961a)" d="M 249.124823 142.265244 
L 274.424571 142.265244 
L 274.424571 133.051684 
L 249.124823 133.051684 
z
" style="fill:#9e4f46;stroke:#000000;stroke-linejoin:miter;"/>
   </g>
   <g id="patch_77">
    <path clip-path="url(#p28a321961a)" d="M 274.424571 142.265244 
L 325.024067 142.265244 
L 325.024067 133.051684 
L 274.424571 133.051684 
z
" style="fill:#00ffc1;stroke:#000000;stroke-linejoin:miter;"/>
   </g>
   <g id="patch_78">
    <path clip-path="url(#p28a321961a)" d="M 325.024067 142.265244 
L 341.890566 142.265244 
L 341.890566 133.051684 
L 325.024067 133.051684 
z
" style="fill:#008495;stroke:#000000;stroke-linejoin:miter;"/>
   </g>
   <g id="patch_79">
    <path clip-path="url(#p28a321961a)" d="M 341.890566 142.265244 
L 367.190314 142.265244 
L 367.190314 133.051684 
L 341.890566 133.051684 
z
" style="fill:#00007b;stroke:#000000;stroke-linejoin:miter;"/>
   </g>
   <g id="patch_80">
    <path clip-path="url(#p28a321961a)" d="M 367.190314 142.265244 
L 384.056813 142.265244 
L 384.056813 133.051684 
L 367.190314 133.051684 
z
" style="fill:#95d34f;stroke:#000000;stroke-linejoin:miter;"/>
   </g>
   <g id="matplotlib.axis_11"/>
   <g id="matplotlib.axis_12">
    <g id="ytick_11"/>
    <g id="ytick_12"/>
    <g id="text_7">
     <text style="font-family:DejaVu Sans;font-size:10px;font-style:normal;font-weight:normal;" transform="translate(49.473438 121.616896)"/>
     <text style="font-family:DejaVu Sans;font-size:10px;font-style:normal;font-weight:normal;" transform="translate(38.34375 132.814709)">13   </text>
    </g>
   </g>
   <g id="patch_81">
    <path d="M 53.473438 144.107956 
L 53.473438 125.680837 
" style="fill:none;stroke:#000000;stroke-linecap:square;stroke-linejoin:miter;stroke-width:0.8;"/>
   </g>
   <g id="patch_82">
    <path d="M 388.273438 144.107956 
L 388.273438 125.680837 
" style="fill:none;stroke:#000000;stroke-linecap:square;stroke-linejoin:miter;stroke-width:0.8;"/>
   </g>
   <g id="patch_83">
    <path d="M 53.473438 144.107956 
L 388.273438 144.107956 
" style="fill:none;stroke:#000000;stroke-linecap:square;stroke-linejoin:miter;stroke-width:0.8;"/>
   </g>
   <g id="patch_84">
    <path d="M 53.473438 125.680837 
L 388.273438 125.680837 
" style="fill:none;stroke:#000000;stroke-linecap:square;stroke-linejoin:miter;stroke-width:0.8;"/>
   </g>
  </g>
  <g id="axes_7">
   <g id="patch_85">
    <path d="M 53.473438 166.220498 
L 388.273438 166.220498 
L 388.273438 147.793379 
L 53.473438 147.793379 
z
" style="fill:none;"/>
   </g>
   <g id="patch_86">
    <path clip-path="url(#p7a320db3e5)" d="M 59.376712 164.377786 
L 76.243211 164.377786 
L 76.243211 155.164227 
L 59.376712 155.164227 
z
" style="fill:#ff0000;stroke:#000000;stroke-linejoin:miter;"/>
   </g>
   <g id="patch_87">
    <path clip-path="url(#p7a320db3e5)" d="M 76.243211 164.377786 
L 93.10971 164.377786 
L 93.10971 155.164227 
L 76.243211 155.164227 
z
" style="fill:#00ff00;stroke:#000000;stroke-linejoin:miter;"/>
   </g>
   <g id="patch_88">
    <path clip-path="url(#p7a320db3e5)" d="M 93.10971 164.377786 
L 122.626082 164.377786 
L 122.626082 155.164227 
L 93.10971 155.164227 
z
" style="fill:#ff1ab9;stroke:#000000;stroke-linejoin:miter;"/>
   </g>
   <g id="patch_89">
    <path clip-path="url(#p7a320db3e5)" d="M 122.626082 164.377786 
L 156.35908 164.377786 
L 156.35908 155.164227 
L 122.626082 155.164227 
z
" style="fill:#ffd300;stroke:#000000;stroke-linejoin:miter;"/>
   </g>
   <g id="patch_90">
    <path clip-path="url(#p7a320db3e5)" d="M 156.35908 164.377786 
L 194.308702 164.377786 
L 194.308702 155.164227 
L 156.35908 155.164227 
z
" style="fill:#005800;stroke:#000000;stroke-linejoin:miter;"/>
   </g>
   <g id="patch_91">
    <path clip-path="url(#p7a320db3e5)" d="M 194.308702 164.377786 
L 219.60845 164.377786 
L 219.60845 155.164227 
L 194.308702 155.164227 
z
" style="fill:#8484ff;stroke:#000000;stroke-linejoin:miter;"/>
   </g>
   <g id="patch_92">
    <path clip-path="url(#p7a320db3e5)" d="M 219.60845 164.377786 
L 249.124823 164.377786 
L 249.124823 155.164227 
L 219.60845 155.164227 
z
" style="fill:#9e4f46;stroke:#000000;stroke-linejoin:miter;"/>
   </g>
   <g id="patch_93">
    <path clip-path="url(#p7a320db3e5)" d="M 249.124823 164.377786 
L 287.074445 164.377786 
L 287.074445 155.164227 
L 249.124823 155.164227 
z
" style="fill:#00ffc1;stroke:#000000;stroke-linejoin:miter;"/>
   </g>
   <g id="patch_94">
    <path clip-path="url(#p7a320db3e5)" d="M 287.074445 164.377786 
L 320.807443 164.377786 
L 320.807443 155.164227 
L 287.074445 155.164227 
z
" style="fill:#008495;stroke:#000000;stroke-linejoin:miter;"/>
   </g>
   <g id="patch_95">
    <path clip-path="url(#p7a320db3e5)" d="M 320.807443 164.377786 
L 367.190314 164.377786 
L 367.190314 155.164227 
L 320.807443 155.164227 
z
" style="fill:#00007b;stroke:#000000;stroke-linejoin:miter;"/>
   </g>
   <g id="patch_96">
    <path clip-path="url(#p7a320db3e5)" d="M 367.190314 164.377786 
L 384.056813 164.377786 
L 384.056813 155.164227 
L 367.190314 155.164227 
z
" style="fill:#95d34f;stroke:#000000;stroke-linejoin:miter;"/>
   </g>
   <g id="matplotlib.axis_13"/>
   <g id="matplotlib.axis_14">
    <g id="ytick_13"/>
    <g id="ytick_14"/>
    <g id="text_8">
     <text style="font-family:DejaVu Sans;font-size:10px;font-style:normal;font-weight:normal;" transform="translate(49.473438 143.729439)"/>
     <text style="font-family:DejaVu Sans;font-size:10px;font-style:normal;font-weight:normal;" transform="translate(38.34375 154.927251)">14   </text>
    </g>
   </g>
   <g id="patch_97">
    <path d="M 53.473438 166.220498 
L 53.473438 147.793379 
" style="fill:none;stroke:#000000;stroke-linecap:square;stroke-linejoin:miter;stroke-width:0.8;"/>
   </g>
   <g id="patch_98">
    <path d="M 388.273438 166.220498 
L 388.273438 147.793379 
" style="fill:none;stroke:#000000;stroke-linecap:square;stroke-linejoin:miter;stroke-width:0.8;"/>
   </g>
   <g id="patch_99">
    <path d="M 53.473438 166.220498 
L 388.273438 166.220498 
" style="fill:none;stroke:#000000;stroke-linecap:square;stroke-linejoin:miter;stroke-width:0.8;"/>
   </g>
   <g id="patch_100">
    <path d="M 53.473438 147.793379 
L 388.273438 147.793379 
" style="fill:none;stroke:#000000;stroke-linecap:square;stroke-linejoin:miter;stroke-width:0.8;"/>
   </g>
  </g>
  <g id="axes_8">
   <g id="patch_101">
    <path d="M 53.473438 188.33304 
L 388.273438 188.33304 
L 388.273438 169.905922 
L 53.473438 169.905922 
z
" style="fill:none;"/>
   </g>
   <g id="patch_102">
    <path clip-path="url(#pf89cca65b0)" d="M 59.376712 186.490328 
L 84.67646 186.490328 
L 84.67646 177.276769 
L 59.376712 177.276769 
z
" style="fill:#ff0000;stroke:#000000;stroke-linejoin:miter;"/>
   </g>
   <g id="patch_103">
    <path clip-path="url(#pf89cca65b0)" d="M 84.67646 186.490328 
L 147.92583 186.490328 
L 147.92583 177.276769 
L 84.67646 177.276769 
z
" style="fill:#00ff00;stroke:#000000;stroke-linejoin:miter;"/>
   </g>
   <g id="patch_104">
    <path clip-path="url(#pf89cca65b0)" d="M 147.92583 186.490328 
L 181.658828 186.490328 
L 181.658828 177.276769 
L 147.92583 177.276769 
z
" style="fill:#ff1ab9;stroke:#000000;stroke-linejoin:miter;"/>
   </g>
   <g id="patch_105">
    <path clip-path="url(#pf89cca65b0)" d="M 181.658828 186.490328 
L 202.741951 186.490328 
L 202.741951 177.276769 
L 181.658828 177.276769 
z
" style="fill:#ffd300;stroke:#000000;stroke-linejoin:miter;"/>
   </g>
   <g id="patch_106">
    <path clip-path="url(#pf89cca65b0)" d="M 202.741951 186.490328 
L 228.041699 186.490328 
L 228.041699 177.276769 
L 202.741951 177.276769 
z
" style="fill:#005800;stroke:#000000;stroke-linejoin:miter;"/>
   </g>
   <g id="patch_107">
    <path clip-path="url(#pf89cca65b0)" d="M 228.041699 186.490328 
L 257.558072 186.490328 
L 257.558072 177.276769 
L 228.041699 177.276769 
z
" style="fill:#8484ff;stroke:#000000;stroke-linejoin:miter;"/>
   </g>
   <g id="patch_108">
    <path clip-path="url(#pf89cca65b0)" d="M 257.558072 186.490328 
L 291.29107 186.490328 
L 291.29107 177.276769 
L 257.558072 177.276769 
z
" style="fill:#9e4f46;stroke:#000000;stroke-linejoin:miter;"/>
   </g>
   <g id="patch_109">
    <path clip-path="url(#pf89cca65b0)" d="M 291.29107 186.490328 
L 316.590818 186.490328 
L 316.590818 177.276769 
L 291.29107 177.276769 
z
" style="fill:#00ffc1;stroke:#000000;stroke-linejoin:miter;"/>
   </g>
   <g id="patch_110">
    <path clip-path="url(#pf89cca65b0)" d="M 316.590818 186.490328 
L 362.973689 186.490328 
L 362.973689 177.276769 
L 316.590818 177.276769 
z
" style="fill:#008495;stroke:#000000;stroke-linejoin:miter;"/>
   </g>
   <g id="patch_111">
    <path clip-path="url(#pf89cca65b0)" d="M 362.973689 186.490328 
L 384.056813 186.490328 
L 384.056813 177.276769 
L 362.973689 177.276769 
z
" style="fill:#00007b;stroke:#000000;stroke-linejoin:miter;"/>
   </g>
   <g id="matplotlib.axis_15"/>
   <g id="matplotlib.axis_16">
    <g id="ytick_15"/>
    <g id="ytick_16"/>
    <g id="text_9">
     <text style="font-family:DejaVu Sans;font-size:10px;font-style:normal;font-weight:normal;" transform="translate(49.473438 165.841981)"/>
     <text style="font-family:DejaVu Sans;font-size:10px;font-style:normal;font-weight:normal;" transform="translate(38.34375 177.039793)">17   </text>
    </g>
   </g>
   <g id="patch_112">
    <path d="M 53.473438 188.33304 
L 53.473438 169.905922 
" style="fill:none;stroke:#000000;stroke-linecap:square;stroke-linejoin:miter;stroke-width:0.8;"/>
   </g>
   <g id="patch_113">
    <path d="M 388.273438 188.33304 
L 388.273438 169.905922 
" style="fill:none;stroke:#000000;stroke-linecap:square;stroke-linejoin:miter;stroke-width:0.8;"/>
   </g>
   <g id="patch_114">
    <path d="M 53.473438 188.33304 
L 388.273438 188.33304 
" style="fill:none;stroke:#000000;stroke-linecap:square;stroke-linejoin:miter;stroke-width:0.8;"/>
   </g>
   <g id="patch_115">
    <path d="M 53.473438 169.905922 
L 388.273438 169.905922 
" style="fill:none;stroke:#000000;stroke-linecap:square;stroke-linejoin:miter;stroke-width:0.8;"/>
   </g>
  </g>
  <g id="axes_9">
   <g id="patch_116">
    <path d="M 53.473438 210.445583 
L 388.273438 210.445583 
L 388.273438 192.018464 
L 53.473438 192.018464 
z
" style="fill:none;"/>
   </g>
   <g id="patch_117">
    <path clip-path="url(#p0fbc0e98ac)" d="M 59.376712 208.602871 
L 76.243211 208.602871 
L 76.243211 199.389311 
L 59.376712 199.389311 
z
" style="fill:#ff0000;stroke:#000000;stroke-linejoin:miter;"/>
   </g>
   <g id="patch_118">
    <path clip-path="url(#p0fbc0e98ac)" d="M 76.243211 208.602871 
L 114.192833 208.602871 
L 114.192833 199.389311 
L 76.243211 199.389311 
z
" style="fill:#00ff00;stroke:#000000;stroke-linejoin:miter;"/>
   </g>
   <g id="patch_119">
    <path clip-path="url(#p0fbc0e98ac)" d="M 114.192833 208.602871 
L 131.059332 208.602871 
L 131.059332 199.389311 
L 114.192833 199.389311 
z
" style="fill:#ff1ab9;stroke:#000000;stroke-linejoin:miter;"/>
   </g>
   <g id="patch_120">
    <path clip-path="url(#p0fbc0e98ac)" d="M 131.059332 208.602871 
L 198.525327 208.602871 
L 198.525327 199.389311 
L 131.059332 199.389311 
z
" style="fill:#ffd300;stroke:#000000;stroke-linejoin:miter;"/>
   </g>
   <g id="patch_121">
    <path clip-path="url(#p0fbc0e98ac)" d="M 198.525327 208.602871 
L 253.341448 208.602871 
L 253.341448 199.389311 
L 198.525327 199.389311 
z
" style="fill:#005800;stroke:#000000;stroke-linejoin:miter;"/>
   </g>
   <g id="patch_122">
    <path clip-path="url(#p0fbc0e98ac)" d="M 253.341448 208.602871 
L 282.85782 208.602871 
L 282.85782 199.389311 
L 253.341448 199.389311 
z
" style="fill:#8484ff;stroke:#000000;stroke-linejoin:miter;"/>
   </g>
   <g id="patch_123">
    <path clip-path="url(#p0fbc0e98ac)" d="M 282.85782 208.602871 
L 333.457317 208.602871 
L 333.457317 199.389311 
L 282.85782 199.389311 
z
" style="fill:#9e4f46;stroke:#000000;stroke-linejoin:miter;"/>
   </g>
   <g id="patch_124">
    <path clip-path="url(#p0fbc0e98ac)" d="M 333.457317 208.602871 
L 367.190314 208.602871 
L 367.190314 199.389311 
L 333.457317 199.389311 
z
" style="fill:#00ffc1;stroke:#000000;stroke-linejoin:miter;"/>
   </g>
   <g id="patch_125">
    <path clip-path="url(#p0fbc0e98ac)" d="M 367.190314 208.602871 
L 384.056813 208.602871 
L 384.056813 199.389311 
L 367.190314 199.389311 
z
" style="fill:#008495;stroke:#000000;stroke-linejoin:miter;"/>
   </g>
   <g id="matplotlib.axis_17"/>
   <g id="matplotlib.axis_18">
    <g id="ytick_17"/>
    <g id="ytick_18"/>
    <g id="text_10">
     <text style="font-family:DejaVu Sans;font-size:10px;font-style:normal;font-weight:normal;" transform="translate(49.473438 187.954523)"/>
     <text style="font-family:DejaVu Sans;font-size:10px;font-style:normal;font-weight:normal;" transform="translate(38.34375 199.152336)">21   </text>
    </g>
   </g>
   <g id="patch_126">
    <path d="M 53.473438 210.445583 
L 53.473438 192.018464 
" style="fill:none;stroke:#000000;stroke-linecap:square;stroke-linejoin:miter;stroke-width:0.8;"/>
   </g>
   <g id="patch_127">
    <path d="M 388.273438 210.445583 
L 388.273438 192.018464 
" style="fill:none;stroke:#000000;stroke-linecap:square;stroke-linejoin:miter;stroke-width:0.8;"/>
   </g>
   <g id="patch_128">
    <path d="M 53.473438 210.445583 
L 388.273438 210.445583 
" style="fill:none;stroke:#000000;stroke-linecap:square;stroke-linejoin:miter;stroke-width:0.8;"/>
   </g>
   <g id="patch_129">
    <path d="M 53.473438 192.018464 
L 388.273438 192.018464 
" style="fill:none;stroke:#000000;stroke-linecap:square;stroke-linejoin:miter;stroke-width:0.8;"/>
   </g>
  </g>
  <g id="axes_10">
   <g id="patch_130">
    <path d="M 53.473438 232.558125 
L 388.273438 232.558125 
L 388.273438 214.131006 
L 53.473438 214.131006 
z
" style="fill:none;"/>
   </g>
   <g id="patch_131">
    <path clip-path="url(#pd8d8227ce9)" d="M 59.376712 230.715413 
L 88.893085 230.715413 
L 88.893085 221.501854 
L 59.376712 221.501854 
z
" style="fill:#ff0000;stroke:#000000;stroke-linejoin:miter;"/>
   </g>
   <g id="patch_132">
    <path clip-path="url(#pd8d8227ce9)" d="M 88.893085 230.715413 
L 126.842707 230.715413 
L 126.842707 221.501854 
L 88.893085 221.501854 
z
" style="fill:#00ff00;stroke:#000000;stroke-linejoin:miter;"/>
   </g>
   <g id="patch_133">
    <path clip-path="url(#pd8d8227ce9)" d="M 126.842707 230.715413 
L 143.709206 230.715413 
L 143.709206 221.501854 
L 126.842707 221.501854 
z
" style="fill:#ff1ab9;stroke:#000000;stroke-linejoin:miter;"/>
   </g>
   <g id="patch_134">
    <path clip-path="url(#pd8d8227ce9)" d="M 143.709206 230.715413 
L 160.575705 230.715413 
L 160.575705 221.501854 
L 143.709206 221.501854 
z
" style="fill:#ffd300;stroke:#000000;stroke-linejoin:miter;"/>
   </g>
   <g id="patch_135">
    <path clip-path="url(#pd8d8227ce9)" d="M 160.575705 230.715413 
L 206.958576 230.715413 
L 206.958576 221.501854 
L 160.575705 221.501854 
z
" style="fill:#005800;stroke:#000000;stroke-linejoin:miter;"/>
   </g>
   <g id="patch_136">
    <path clip-path="url(#pd8d8227ce9)" d="M 206.958576 230.715413 
L 253.341448 230.715413 
L 253.341448 221.501854 
L 206.958576 221.501854 
z
" style="fill:#8484ff;stroke:#000000;stroke-linejoin:miter;"/>
   </g>
   <g id="patch_137">
    <path clip-path="url(#pd8d8227ce9)" d="M 253.341448 230.715413 
L 287.074445 230.715413 
L 287.074445 221.501854 
L 253.341448 221.501854 
z
" style="fill:#9e4f46;stroke:#000000;stroke-linejoin:miter;"/>
   </g>
   <g id="patch_138">
    <path clip-path="url(#pd8d8227ce9)" d="M 287.074445 230.715413 
L 308.157568 230.715413 
L 308.157568 221.501854 
L 287.074445 221.501854 
z
" style="fill:#00ffc1;stroke:#000000;stroke-linejoin:miter;"/>
   </g>
   <g id="patch_139">
    <path clip-path="url(#pd8d8227ce9)" d="M 308.157568 230.715413 
L 337.673941 230.715413 
L 337.673941 221.501854 
L 308.157568 221.501854 
z
" style="fill:#008495;stroke:#000000;stroke-linejoin:miter;"/>
   </g>
   <g id="patch_140">
    <path clip-path="url(#pd8d8227ce9)" d="M 337.673941 230.715413 
L 367.190314 230.715413 
L 367.190314 221.501854 
L 337.673941 221.501854 
z
" style="fill:#00007b;stroke:#000000;stroke-linejoin:miter;"/>
   </g>
   <g id="patch_141">
    <path clip-path="url(#pd8d8227ce9)" d="M 367.190314 230.715413 
L 384.056813 230.715413 
L 384.056813 221.501854 
L 367.190314 221.501854 
z
" style="fill:#95d34f;stroke:#000000;stroke-linejoin:miter;"/>
   </g>
   <g id="matplotlib.axis_19">
    <g id="xtick_1">
     <g id="line2d_1">
      <defs>
       <path d="M 0 0 
L 0 3.5 
" id="m4b6bca74b6" style="stroke:#000000;stroke-width:0.8;"/>
      </defs>
      <g>
       <use style="stroke:#000000;stroke-width:0.8;" x="55.160087" xlink:href="#m4b6bca74b6" y="232.558125"/>
      </g>
     </g>
     <g id="text_11">
      <text style="font-family:DejaVu Sans;font-size:10px;font-style:normal;font-weight:normal;text-anchor:middle;" transform="rotate(-0, 55.160087, 247.156562)" x="55.160087" y="247.156562">0</text>
     </g>
    </g>
    <g id="xtick_2">
     <g id="line2d_2">
      <g>
       <use style="stroke:#000000;stroke-width:0.8;" x="97.326334" xlink:href="#m4b6bca74b6" y="232.558125"/>
      </g>
     </g>
     <g id="text_12">
      <text style="font-family:DejaVu Sans;font-size:10px;font-style:normal;font-weight:normal;text-anchor:middle;" transform="rotate(-0, 97.326334, 247.156562)" x="97.326334" y="247.156562">25</text>
     </g>
    </g>
    <g id="xtick_3">
     <g id="line2d_3">
      <g>
       <use style="stroke:#000000;stroke-width:0.8;" x="139.492581" xlink:href="#m4b6bca74b6" y="232.558125"/>
      </g>
     </g>
     <g id="text_13">
      <text style="font-family:DejaVu Sans;font-size:10px;font-style:normal;font-weight:normal;text-anchor:middle;" transform="rotate(-0, 139.492581, 247.156562)" x="139.492581" y="247.156562">50</text>
     </g>
    </g>
    <g id="xtick_4">
     <g id="line2d_4">
      <g>
       <use style="stroke:#000000;stroke-width:0.8;" x="181.658828" xlink:href="#m4b6bca74b6" y="232.558125"/>
      </g>
     </g>
     <g id="text_14">
      <text style="font-family:DejaVu Sans;font-size:10px;font-style:normal;font-weight:normal;text-anchor:middle;" transform="rotate(-0, 181.658828, 247.156562)" x="181.658828" y="247.156562">75</text>
     </g>
    </g>
    <g id="xtick_5">
     <g id="line2d_5">
      <g>
       <use style="stroke:#000000;stroke-width:0.8;" x="223.825075" xlink:href="#m4b6bca74b6" y="232.558125"/>
      </g>
     </g>
     <g id="text_15">
      <text style="font-family:DejaVu Sans;font-size:10px;font-style:normal;font-weight:normal;text-anchor:middle;" transform="rotate(-0, 223.825075, 247.156562)" x="223.825075" y="247.156562">100</text>
     </g>
    </g>
    <g id="xtick_6">
     <g id="line2d_6">
      <g>
       <use style="stroke:#000000;stroke-width:0.8;" x="265.991322" xlink:href="#m4b6bca74b6" y="232.558125"/>
      </g>
     </g>
     <g id="text_16">
      <text style="font-family:DejaVu Sans;font-size:10px;font-style:normal;font-weight:normal;text-anchor:middle;" transform="rotate(-0, 265.991322, 247.156562)" x="265.991322" y="247.156562">125</text>
     </g>
    </g>
    <g id="xtick_7">
     <g id="line2d_7">
      <g>
       <use style="stroke:#000000;stroke-width:0.8;" x="308.157568" xlink:href="#m4b6bca74b6" y="232.558125"/>
      </g>
     </g>
     <g id="text_17">
      <text style="font-family:DejaVu Sans;font-size:10px;font-style:normal;font-weight:normal;text-anchor:middle;" transform="rotate(-0, 308.157568, 247.156562)" x="308.157568" y="247.156562">150</text>
     </g>
    </g>
    <g id="xtick_8">
     <g id="line2d_8">
      <g>
       <use style="stroke:#000000;stroke-width:0.8;" x="350.323815" xlink:href="#m4b6bca74b6" y="232.558125"/>
      </g>
     </g>
     <g id="text_18">
      <text style="font-family:DejaVu Sans;font-size:10px;font-style:normal;font-weight:normal;text-anchor:middle;" transform="rotate(-0, 350.323815, 247.156562)" x="350.323815" y="247.156562">175</text>
     </g>
    </g>
    <g id="text_19">
     <text style="font-family:DejaVu Sans;font-size:10px;font-style:normal;font-weight:normal;text-anchor:middle;" transform="rotate(-0, 220.873438, 260.834687)" x="220.873438" y="260.834687">Genomic Position [Mb]</text>
    </g>
   </g>
   <g id="matplotlib.axis_20">
    <g id="ytick_19"/>
    <g id="ytick_20"/>
    <g id="text_20">
     <text style="font-family:DejaVu Sans;font-size:10px;font-style:normal;font-weight:normal;" transform="translate(49.473438 210.067066)"/>
     <text style="font-family:DejaVu Sans;font-size:10px;font-style:normal;font-weight:normal;" transform="translate(38.34375 221.264878)">24   </text>
    </g>
   </g>
   <g id="patch_142">
    <path d="M 53.473438 232.558125 
L 53.473438 214.131006 
" style="fill:none;stroke:#000000;stroke-linecap:square;stroke-linejoin:miter;stroke-width:0.8;"/>
   </g>
   <g id="patch_143">
    <path d="M 388.273438 232.558125 
L 388.273438 214.131006 
" style="fill:none;stroke:#000000;stroke-linecap:square;stroke-linejoin:miter;stroke-width:0.8;"/>
   </g>
   <g id="patch_144">
    <path d="M 53.473438 232.558125 
L 388.273438 232.558125 
" style="fill:none;stroke:#000000;stroke-linecap:square;stroke-linejoin:miter;stroke-width:0.8;"/>
   </g>
   <g id="patch_145">
    <path d="M 53.473438 214.131006 
L 388.273438 214.131006 
" style="fill:none;stroke:#000000;stroke-linecap:square;stroke-linejoin:miter;stroke-width:0.8;"/>
   </g>
  </g>
 </g>
 <defs>
  <clipPath id="p9502ea5222">
   <rect height="18.427119" width="334.8" x="53.473438" y="15.118125"/>
  </clipPath>
  <clipPath id="p7430018e1c">
   <rect height="18.427119" width="334.8" x="53.473438" y="37.230667"/>
  </clipPath>
  <clipPath id="pd9df701011">
   <rect height="18.427119" width="334.8" x="53.473438" y="59.34321"/>
  </clipPath>
  <clipPath id="pf54bdaf861">
   <rect height="18.427119" width="334.8" x="53.473438" y="81.455752"/>
  </clipPath>
  <clipPath id="p2dcb525ef9">
   <rect height="18.427119" width="334.8" x="53.473438" y="103.568294"/>
  </clipPath>
  <clipPath id="p28a321961a">
   <rect height="18.427119" width="334.8" x="53.473438" y="125.680837"/>
  </clipPath>
  <clipPath id="p7a320db3e5">
   <rect height="18.427119" width="334.8" x="53.473438" y="147.793379"/>
  </clipPath>
  <clipPath id="pf89cca65b0">
   <rect height="18.427119" width="334.8" x="53.473438" y="169.905922"/>
  </clipPath>
  <clipPath id="p0fbc0e98ac">
   <rect height="18.427119" width="334.8" x="53.473438" y="192.018464"/>
  </clipPath>
  <clipPath id="pd8d8227ce9">
   <rect height="18.427119" width="334.8" x="53.473438" y="214.131006"/>
  </clipPath>
 </defs>
</svg>
