<?xml version="1.0" encoding="utf-8" standalone="no"?>
<!DOCTYPE svg PUBLIC "-//W3C//DTD SVG 1.1//EN"
  "http://www.w3.org/Graphics/SVG/1.1/DTD/svg11.dtd">
<!-- Created with matplotlib (https://matplotlib.org/) -->
<svg height="262.914375pt" version="1.1" viewBox="0 0 388.273437 262.914375" width="388.273437pt" xmlns="http://www.w3.org/2000/svg" xmlns:xlink="http://www.w3.org/1999/xlink">
 <defs>
  <style type="text/css">
*{stroke-linecap:butt;stroke-linejoin:round;}
  </style>
 </defs>
 <g id="figure_1">
  <g id="patch_1">
   <path d="M 0 262.914375 
L 388.273437 262.914375 
L 388.273437 0 
L 0 0 
z
" style="fill:none;"/>
  </g>
  <g id="axes_1">
   <g id="patch_2">
    <path d="M 53.473438 31.844279 
L 388.273438 31.844279 
L 388.273438 15.118125 
L 53.473438 15.118125 
z
" style="fill:none;"/>
   </g>
   <g id="patch_3">
    <path clip-path="url(#p260b06c626)" d="M 65.679688 30.171663 
L 100.554688 30.171663 
L 100.554688 21.808587 
L 65.679688 21.808587 
z
" style="fill:#ff0000;stroke:#000000;stroke-linejoin:miter;"/>
   </g>
   <g id="patch_4">
    <path clip-path="url(#p260b06c626)" d="M 100.554688 30.171663 
L 170.304688 30.171663 
L 170.304688 21.808587 
L 100.554688 21.808587 
z
" style="fill:#00ff00;stroke:#000000;stroke-linejoin:miter;"/>
   </g>
   <g id="patch_5">
    <path clip-path="url(#p260b06c626)" d="M 170.304688 30.171663 
L 309.804688 30.171663 
L 309.804688 21.808587 
L 170.304688 21.808587 
z
" style="fill:#ff1ab9;stroke:#000000;stroke-linejoin:miter;"/>
   </g>
   <g id="patch_6">
    <path clip-path="url(#p260b06c626)" d="M 309.804688 30.171663 
L 379.554688 30.171663 
L 379.554688 21.808587 
L 309.804688 21.808587 
z
" style="fill:#ffd300;stroke:#000000;stroke-linejoin:miter;"/>
   </g>
   <g id="matplotlib.axis_1"/>
   <g id="matplotlib.axis_2">
    <g id="ytick_1"/>
    <g id="ytick_2"/>
    <g id="text_1">
     <text style="font-family:DejaVu Sans;font-size:10px;font-style:normal;font-weight:normal;text-anchor:middle;" transform="rotate(-0, 49.473438, 21.401514)" x="49.473438" y="21.401514">Embryo 1                </text>
    </g>
   </g>
   <g id="patch_7">
    <path d="M 53.473438 31.844279 
L 53.473438 15.118125 
" style="fill:none;stroke:#000000;stroke-linecap:square;stroke-linejoin:miter;stroke-width:0.8;"/>
   </g>
   <g id="patch_8">
    <path d="M 388.273438 31.844279 
L 388.273438 15.118125 
" style="fill:none;stroke:#000000;stroke-linecap:square;stroke-linejoin:miter;stroke-width:0.8;"/>
   </g>
   <g id="patch_9">
    <path d="M 53.473438 31.844279 
L 388.273438 31.844279 
" style="fill:none;stroke:#000000;stroke-linecap:square;stroke-linejoin:miter;stroke-width:0.8;"/>
   </g>
   <g id="patch_10">
    <path d="M 53.473438 15.118125 
L 388.273438 15.118125 
" style="fill:none;stroke:#000000;stroke-linecap:square;stroke-linejoin:miter;stroke-width:0.8;"/>
   </g>
   <g id="text_2">
    <text style="font-family:DejaVu Sans;font-size:12px;font-style:normal;font-weight:normal;text-anchor:middle;" transform="rotate(-0, 220.873438, 9.118125)" x="220.873438" y="9.118125">Chr 17</text>
   </g>
  </g>
  <g id="axes_2">
   <g id="patch_11">
    <path d="M 53.473438 51.915663 
L 388.273438 51.915663 
L 388.273438 35.18951 
L 53.473438 35.18951 
z
" style="fill:none;"/>
   </g>
   <g id="patch_12">
    <path clip-path="url(#pc13c4d2a08)" d="M 74.398438 50.243048 
L 109.273438 50.243048 
L 109.273438 41.879971 
L 74.398438 41.879971 
z
" style="fill:#ff0000;stroke:#000000;stroke-linejoin:miter;"/>
   </g>
   <g id="patch_13">
    <path clip-path="url(#pc13c4d2a08)" d="M 109.273438 50.243048 
L 179.023438 50.243048 
L 179.023438 41.879971 
L 109.273438 41.879971 
z
" style="fill:#00ff00;stroke:#000000;stroke-linejoin:miter;"/>
   </g>
   <g id="patch_14">
    <path clip-path="url(#pc13c4d2a08)" d="M 179.023438 50.243048 
L 231.335938 50.243048 
L 231.335938 41.879971 
L 179.023438 41.879971 
z
" style="fill:#ff1ab9;stroke:#000000;stroke-linejoin:miter;"/>
   </g>
   <g id="patch_15">
    <path clip-path="url(#pc13c4d2a08)" d="M 231.335938 50.243048 
L 301.085938 50.243048 
L 301.085938 41.879971 
L 231.335938 41.879971 
z
" style="fill:#ffd300;stroke:#000000;stroke-linejoin:miter;"/>
   </g>
   <g id="patch_16">
    <path clip-path="url(#pc13c4d2a08)" d="M 301.085938 50.243048 
L 379.554688 50.243048 
L 379.554688 41.879971 
L 301.085938 41.879971 
z
" style="fill:#005800;stroke:#000000;stroke-linejoin:miter;"/>
   </g>
   <g id="matplotlib.axis_3"/>
   <g id="matplotlib.axis_4">
    <g id="ytick_3"/>
    <g id="ytick_4"/>
    <g id="text_3">
     <text style="font-family:DejaVu Sans;font-size:10px;font-style:normal;font-weight:normal;" transform="translate(49.473438 30.275087)"/>
     <text style="font-family:DejaVu Sans;font-size:10px;font-style:normal;font-weight:normal;" transform="translate(41.525 41.472899)">7   </text>
    </g>
   </g>
   <g id="patch_17">
    <path d="M 53.473438 51.915663 
L 53.473438 35.18951 
" style="fill:none;stroke:#000000;stroke-linecap:square;stroke-linejoin:miter;stroke-width:0.8;"/>
   </g>
   <g id="patch_18">
    <path d="M 388.273438 51.915663 
L 388.273438 35.18951 
" style="fill:none;stroke:#000000;stroke-linecap:square;stroke-linejoin:miter;stroke-width:0.8;"/>
   </g>
   <g id="patch_19">
    <path d="M 53.473438 51.915663 
L 388.273438 51.915663 
" style="fill:none;stroke:#000000;stroke-linecap:square;stroke-linejoin:miter;stroke-width:0.8;"/>
   </g>
   <g id="patch_20">
    <path d="M 53.473438 35.18951 
L 388.273438 35.18951 
" style="fill:none;stroke:#000000;stroke-linecap:square;stroke-linejoin:miter;stroke-width:0.8;"/>
   </g>
  </g>
  <g id="axes_3">
   <g id="patch_21">
    <path d="M 53.473438 71.987048 
L 388.273438 71.987048 
L 388.273438 55.260894 
L 53.473438 55.260894 
z
" style="fill:none;"/>
   </g>
   <g id="patch_22">
    <path clip-path="url(#p2c33d9662e)" d="M 65.679688 70.314433 
L 152.867188 70.314433 
L 152.867188 61.951356 
L 65.679688 61.951356 
z
" style="fill:#ff0000;stroke:#000000;stroke-linejoin:miter;"/>
   </g>
   <g id="patch_23">
    <path clip-path="url(#p2c33d9662e)" d="M 152.867188 70.314433 
L 222.617188 70.314433 
L 222.617188 61.951356 
L 152.867188 61.951356 
z
" style="fill:#00ff00;stroke:#000000;stroke-linejoin:miter;"/>
   </g>
   <g id="patch_24">
    <path clip-path="url(#p2c33d9662e)" d="M 222.617188 70.314433 
L 283.648438 70.314433 
L 283.648438 61.951356 
L 222.617188 61.951356 
z
" style="fill:#ff1ab9;stroke:#000000;stroke-linejoin:miter;"/>
   </g>
   <g id="patch_25">
    <path clip-path="url(#p2c33d9662e)" d="M 283.648438 70.314433 
L 344.679688 70.314433 
L 344.679688 61.951356 
L 283.648438 61.951356 
z
" style="fill:#ffd300;stroke:#000000;stroke-linejoin:miter;"/>
   </g>
   <g id="patch_26">
    <path clip-path="url(#p2c33d9662e)" d="M 344.679688 70.314433 
L 379.554688 70.314433 
L 379.554688 61.951356 
L 344.679688 61.951356 
z
" style="fill:#005800;stroke:#000000;stroke-linejoin:miter;"/>
   </g>
   <g id="matplotlib.axis_5"/>
   <g id="matplotlib.axis_6">
    <g id="ytick_5"/>
    <g id="ytick_6"/>
    <g id="text_4">
     <text style="font-family:DejaVu Sans;font-size:10px;font-style:normal;font-weight:normal;" transform="translate(49.473438 50.346471)"/>
     <text style="font-family:DejaVu Sans;font-size:10px;font-style:normal;font-weight:normal;" transform="translate(41.525 61.544284)">8   </text>
    </g>
   </g>
   <g id="patch_27">
    <path d="M 53.473438 71.987048 
L 53.473438 55.260894 
" style="fill:none;stroke:#000000;stroke-linecap:square;stroke-linejoin:miter;stroke-width:0.8;"/>
   </g>
   <g id="patch_28">
    <path d="M 388.273438 71.987048 
L 388.273438 55.260894 
" style="fill:none;stroke:#000000;stroke-linecap:square;stroke-linejoin:miter;stroke-width:0.8;"/>
   </g>
   <g id="patch_29">
    <path d="M 53.473438 71.987048 
L 388.273438 71.987048 
" style="fill:none;stroke:#000000;stroke-linecap:square;stroke-linejoin:miter;stroke-width:0.8;"/>
   </g>
   <g id="patch_30">
    <path d="M 53.473438 55.260894 
L 388.273438 55.260894 
" style="fill:none;stroke:#000000;stroke-linecap:square;stroke-linejoin:miter;stroke-width:0.8;"/>
   </g>
  </g>
  <g id="axes_4">
   <g id="patch_31">
    <path d="M 53.473438 92.058433 
L 388.273438 92.058433 
L 388.273438 75.332279 
L 53.473438 75.332279 
z
" style="fill:none;"/>
   </g>
   <g id="patch_32">
    <path clip-path="url(#pb5c50b8d28)" d="M 65.679688 90.385817 
L 179.023438 90.385817 
L 179.023438 82.02274 
L 65.679688 82.02274 
z
" style="fill:#ff0000;stroke:#000000;stroke-linejoin:miter;"/>
   </g>
   <g id="patch_33">
    <path clip-path="url(#pb5c50b8d28)" d="M 179.023438 90.385817 
L 240.054688 90.385817 
L 240.054688 82.02274 
L 179.023438 82.02274 
z
" style="fill:#00ff00;stroke:#000000;stroke-linejoin:miter;"/>
   </g>
   <g id="patch_34">
    <path clip-path="url(#pb5c50b8d28)" d="M 240.054688 90.385817 
L 318.523438 90.385817 
L 318.523438 82.02274 
L 240.054688 82.02274 
z
" style="fill:#ff1ab9;stroke:#000000;stroke-linejoin:miter;"/>
   </g>
   <g id="patch_35">
    <path clip-path="url(#pb5c50b8d28)" d="M 318.523438 90.385817 
L 344.679688 90.385817 
L 344.679688 82.02274 
L 318.523438 82.02274 
z
" style="fill:#ffd300;stroke:#000000;stroke-linejoin:miter;"/>
   </g>
   <g id="patch_36">
    <path clip-path="url(#pb5c50b8d28)" d="M 344.679688 90.385817 
L 379.554688 90.385817 
L 379.554688 82.02274 
L 344.679688 82.02274 
z
" style="fill:#005800;stroke:#000000;stroke-linejoin:miter;"/>
   </g>
   <g id="matplotlib.axis_7"/>
   <g id="matplotlib.axis_8">
    <g id="ytick_7"/>
    <g id="ytick_8"/>
    <g id="text_5">
     <text style="font-family:DejaVu Sans;font-size:10px;font-style:normal;font-weight:normal;" transform="translate(49.473438 70.417856)"/>
     <text style="font-family:DejaVu Sans;font-size:10px;font-style:normal;font-weight:normal;" transform="translate(38.34375 81.615668)">10   </text>
    </g>
   </g>
   <g id="patch_37">
    <path d="M 53.473438 92.058433 
L 53.473438 75.332279 
" style="fill:none;stroke:#000000;stroke-linecap:square;stroke-linejoin:miter;stroke-width:0.8;"/>
   </g>
   <g id="patch_38">
    <path d="M 388.273438 92.058433 
L 388.273438 75.332279 
" style="fill:none;stroke:#000000;stroke-linecap:square;stroke-linejoin:miter;stroke-width:0.8;"/>
   </g>
   <g id="patch_39">
    <path d="M 53.473438 92.058433 
L 388.273438 92.058433 
" style="fill:none;stroke:#000000;stroke-linecap:square;stroke-linejoin:miter;stroke-width:0.8;"/>
   </g>
   <g id="patch_40">
    <path d="M 53.473438 75.332279 
L 388.273438 75.332279 
" style="fill:none;stroke:#000000;stroke-linecap:square;stroke-linejoin:miter;stroke-width:0.8;"/>
   </g>
  </g>
  <g id="axes_5">
   <g id="patch_41">
    <path d="M 53.473438 112.129817 
L 388.273438 112.129817 
L 388.273438 95.403663 
L 53.473438 95.403663 
z
" style="fill:none;"/>
   </g>
   <g id="patch_42">
    <path clip-path="url(#p4115532dda)" d="M 65.679688 110.457202 
L 100.554688 110.457202 
L 100.554688 102.094125 
L 65.679688 102.094125 
z
" style="fill:#ff0000;stroke:#000000;stroke-linejoin:miter;"/>
   </g>
   <g id="patch_43">
    <path clip-path="url(#p4115532dda)" d="M 100.554688 110.457202 
L 144.148438 110.457202 
L 144.148438 102.094125 
L 100.554688 102.094125 
z
" style="fill:#00ff00;stroke:#000000;stroke-linejoin:miter;"/>
   </g>
   <g id="patch_44">
    <path clip-path="url(#p4115532dda)" d="M 144.148438 110.457202 
L 196.460938 110.457202 
L 196.460938 102.094125 
L 144.148438 102.094125 
z
" style="fill:#ff1ab9;stroke:#000000;stroke-linejoin:miter;"/>
   </g>
   <g id="patch_45">
    <path clip-path="url(#p4115532dda)" d="M 196.460938 110.457202 
L 231.335938 110.457202 
L 231.335938 102.094125 
L 196.460938 102.094125 
z
" style="fill:#ffd300;stroke:#000000;stroke-linejoin:miter;"/>
   </g>
   <g id="patch_46">
    <path clip-path="url(#p4115532dda)" d="M 231.335938 110.457202 
L 379.554688 110.457202 
L 379.554688 102.094125 
L 231.335938 102.094125 
z
" style="fill:#005800;stroke:#000000;stroke-linejoin:miter;"/>
   </g>
   <g id="matplotlib.axis_9"/>
   <g id="matplotlib.axis_10">
    <g id="ytick_9"/>
    <g id="ytick_10"/>
    <g id="text_6">
     <text style="font-family:DejaVu Sans;font-size:10px;font-style:normal;font-weight:normal;" transform="translate(49.473438 90.48924)"/>
     <text style="font-family:DejaVu Sans;font-size:10px;font-style:normal;font-weight:normal;" transform="translate(38.34375 101.687053)">11   </text>
    </g>
   </g>
   <g id="patch_47">
    <path d="M 53.473438 112.129817 
L 53.473438 95.403663 
" style="fill:none;stroke:#000000;stroke-linecap:square;stroke-linejoin:miter;stroke-width:0.8;"/>
   </g>
   <g id="patch_48">
    <path d="M 388.273438 112.129817 
L 388.273438 95.403663 
" style="fill:none;stroke:#000000;stroke-linecap:square;stroke-linejoin:miter;stroke-width:0.8;"/>
   </g>
   <g id="patch_49">
    <path d="M 53.473438 112.129817 
L 388.273438 112.129817 
" style="fill:none;stroke:#000000;stroke-linecap:square;stroke-linejoin:miter;stroke-width:0.8;"/>
   </g>
   <g id="patch_50">
    <path d="M 53.473438 95.403663 
L 388.273438 95.403663 
" style="fill:none;stroke:#000000;stroke-linecap:square;stroke-linejoin:miter;stroke-width:0.8;"/>
   </g>
  </g>
  <g id="axes_6">
   <g id="patch_51">
    <path d="M 53.473438 132.201202 
L 388.273438 132.201202 
L 388.273438 115.475048 
L 53.473438 115.475048 
z
" style="fill:none;"/>
   </g>
   <g id="patch_52">
    <path clip-path="url(#pdea657771e)" d="M 65.679688 130.528587 
L 170.304688 130.528587 
L 170.304688 122.16551 
L 65.679688 122.16551 
z
" style="fill:#ff0000;stroke:#000000;stroke-linejoin:miter;"/>
   </g>
   <g id="patch_53">
    <path clip-path="url(#pdea657771e)" d="M 170.304688 130.528587 
L 266.210938 130.528587 
L 266.210938 122.16551 
L 170.304688 122.16551 
z
" style="fill:#00ff00;stroke:#000000;stroke-linejoin:miter;"/>
   </g>
   <g id="patch_54">
    <path clip-path="url(#pdea657771e)" d="M 266.210938 130.528587 
L 344.679688 130.528587 
L 344.679688 122.16551 
L 266.210938 122.16551 
z
" style="fill:#ff1ab9;stroke:#000000;stroke-linejoin:miter;"/>
   </g>
   <g id="patch_55">
    <path clip-path="url(#pdea657771e)" d="M 344.679688 130.528587 
L 379.554688 130.528587 
L 379.554688 122.16551 
L 344.679688 122.16551 
z
" style="fill:#ffd300;stroke:#000000;stroke-linejoin:miter;"/>
   </g>
   <g id="matplotlib.axis_11"/>
   <g id="matplotlib.axis_12">
    <g id="ytick_11"/>
    <g id="ytick_12"/>
    <g id="text_7">
     <text style="font-family:DejaVu Sans;font-size:10px;font-style:normal;font-weight:normal;" transform="translate(49.473438 110.560625)"/>
     <text style="font-family:DejaVu Sans;font-size:10px;font-style:normal;font-weight:normal;" transform="translate(38.34375 121.758438)">13   </text>
    </g>
   </g>
   <g id="patch_56">
    <path d="M 53.473438 132.201202 
L 53.473438 115.475048 
" style="fill:none;stroke:#000000;stroke-linecap:square;stroke-linejoin:miter;stroke-width:0.8;"/>
   </g>
   <g id="patch_57">
    <path d="M 388.273438 132.201202 
L 388.273438 115.475048 
" style="fill:none;stroke:#000000;stroke-linecap:square;stroke-linejoin:miter;stroke-width:0.8;"/>
   </g>
   <g id="patch_58">
    <path d="M 53.473438 132.201202 
L 388.273438 132.201202 
" style="fill:none;stroke:#000000;stroke-linecap:square;stroke-linejoin:miter;stroke-width:0.8;"/>
   </g>
   <g id="patch_59">
    <path d="M 53.473438 115.475048 
L 388.273438 115.475048 
" style="fill:none;stroke:#000000;stroke-linecap:square;stroke-linejoin:miter;stroke-width:0.8;"/>
   </g>
  </g>
  <g id="axes_7">
   <g id="patch_60">
    <path d="M 53.473438 152.272587 
L 388.273438 152.272587 
L 388.273438 135.546433 
L 53.473438 135.546433 
z
" style="fill:none;"/>
   </g>
   <g id="patch_61">
    <path clip-path="url(#p6a2294fd69)" d="M 65.679688 150.599971 
L 100.554688 150.599971 
L 100.554688 142.236894 
L 65.679688 142.236894 
z
" style="fill:#ff0000;stroke:#000000;stroke-linejoin:miter;"/>
   </g>
   <g id="patch_62">
    <path clip-path="url(#p6a2294fd69)" d="M 100.554688 150.599971 
L 161.585938 150.599971 
L 161.585938 142.236894 
L 100.554688 142.236894 
z
" style="fill:#00ff00;stroke:#000000;stroke-linejoin:miter;"/>
   </g>
   <g id="patch_63">
    <path clip-path="url(#p6a2294fd69)" d="M 161.585938 150.599971 
L 248.773438 150.599971 
L 248.773438 142.236894 
L 161.585938 142.236894 
z
" style="fill:#ff1ab9;stroke:#000000;stroke-linejoin:miter;"/>
   </g>
   <g id="patch_64">
    <path clip-path="url(#p6a2294fd69)" d="M 248.773438 150.599971 
L 292.367188 150.599971 
L 292.367188 142.236894 
L 248.773438 142.236894 
z
" style="fill:#ffd300;stroke:#000000;stroke-linejoin:miter;"/>
   </g>
   <g id="patch_65">
    <path clip-path="url(#p6a2294fd69)" d="M 292.367188 150.599971 
L 344.679688 150.599971 
L 344.679688 142.236894 
L 292.367188 142.236894 
z
" style="fill:#005800;stroke:#000000;stroke-linejoin:miter;"/>
   </g>
   <g id="patch_66">
    <path clip-path="url(#p6a2294fd69)" d="M 344.679688 150.599971 
L 379.554688 150.599971 
L 379.554688 142.236894 
L 344.679688 142.236894 
z
" style="fill:#8484ff;stroke:#000000;stroke-linejoin:miter;"/>
   </g>
   <g id="matplotlib.axis_13"/>
   <g id="matplotlib.axis_14">
    <g id="ytick_13"/>
    <g id="ytick_14"/>
    <g id="text_8">
     <text style="font-family:DejaVu Sans;font-size:10px;font-style:normal;font-weight:normal;" transform="translate(49.473438 130.63201)"/>
     <text style="font-family:DejaVu Sans;font-size:10px;font-style:normal;font-weight:normal;" transform="translate(38.34375 141.829822)">14   </text>
    </g>
   </g>
   <g id="patch_67">
    <path d="M 53.473438 152.272587 
L 53.473438 135.546433 
" style="fill:none;stroke:#000000;stroke-linecap:square;stroke-linejoin:miter;stroke-width:0.8;"/>
   </g>
   <g id="patch_68">
    <path d="M 388.273438 152.272587 
L 388.273438 135.546433 
" style="fill:none;stroke:#000000;stroke-linecap:square;stroke-linejoin:miter;stroke-width:0.8;"/>
   </g>
   <g id="patch_69">
    <path d="M 53.473438 152.272587 
L 388.273438 152.272587 
" style="fill:none;stroke:#000000;stroke-linecap:square;stroke-linejoin:miter;stroke-width:0.8;"/>
   </g>
   <g id="patch_70">
    <path d="M 53.473438 135.546433 
L 388.273438 135.546433 
" style="fill:none;stroke:#000000;stroke-linecap:square;stroke-linejoin:miter;stroke-width:0.8;"/>
   </g>
  </g>
  <g id="axes_8">
   <g id="patch_71">
    <path d="M 53.473438 172.343971 
L 388.273438 172.343971 
L 388.273438 155.617817 
L 53.473438 155.617817 
z
" style="fill:none;"/>
   </g>
   <g id="patch_72">
    <path clip-path="url(#pde6291b587)" d="M 65.679688 170.671356 
L 100.554688 170.671356 
L 100.554688 162.308279 
L 65.679688 162.308279 
z
" style="fill:#ff0000;stroke:#000000;stroke-linejoin:miter;"/>
   </g>
   <g id="patch_73">
    <path clip-path="url(#pde6291b587)" d="M 100.554688 170.671356 
L 144.148438 170.671356 
L 144.148438 162.308279 
L 100.554688 162.308279 
z
" style="fill:#00ff00;stroke:#000000;stroke-linejoin:miter;"/>
   </g>
   <g id="patch_74">
    <path clip-path="url(#pde6291b587)" d="M 144.148438 170.671356 
L 187.742188 170.671356 
L 187.742188 162.308279 
L 144.148438 162.308279 
z
" style="fill:#ff1ab9;stroke:#000000;stroke-linejoin:miter;"/>
   </g>
   <g id="patch_75">
    <path clip-path="url(#pde6291b587)" d="M 187.742188 170.671356 
L 213.898438 170.671356 
L 213.898438 162.308279 
L 187.742188 162.308279 
z
" style="fill:#ffd300;stroke:#000000;stroke-linejoin:miter;"/>
   </g>
   <g id="patch_76">
    <path clip-path="url(#pde6291b587)" d="M 213.898438 170.671356 
L 327.242188 170.671356 
L 327.242188 162.308279 
L 213.898438 162.308279 
z
" style="fill:#005800;stroke:#000000;stroke-linejoin:miter;"/>
   </g>
   <g id="patch_77">
    <path clip-path="url(#pde6291b587)" d="M 327.242188 170.671356 
L 379.554688 170.671356 
L 379.554688 162.308279 
L 327.242188 162.308279 
z
" style="fill:#8484ff;stroke:#000000;stroke-linejoin:miter;"/>
   </g>
   <g id="matplotlib.axis_15"/>
   <g id="matplotlib.axis_16">
    <g id="ytick_15"/>
    <g id="ytick_16"/>
    <g id="text_9">
     <text style="font-family:DejaVu Sans;font-size:10px;font-style:normal;font-weight:normal;" transform="translate(49.473438 150.703394)"/>
     <text style="font-family:DejaVu Sans;font-size:10px;font-style:normal;font-weight:normal;" transform="translate(38.34375 161.901207)">18   </text>
    </g>
   </g>
   <g id="patch_78">
    <path d="M 53.473438 172.343971 
L 53.473438 155.617817 
" style="fill:none;stroke:#000000;stroke-linecap:square;stroke-linejoin:miter;stroke-width:0.8;"/>
   </g>
   <g id="patch_79">
    <path d="M 388.273438 172.343971 
L 388.273438 155.617817 
" style="fill:none;stroke:#000000;stroke-linecap:square;stroke-linejoin:miter;stroke-width:0.8;"/>
   </g>
   <g id="patch_80">
    <path d="M 53.473438 172.343971 
L 388.273438 172.343971 
" style="fill:none;stroke:#000000;stroke-linecap:square;stroke-linejoin:miter;stroke-width:0.8;"/>
   </g>
   <g id="patch_81">
    <path d="M 53.473438 155.617817 
L 388.273438 155.617817 
" style="fill:none;stroke:#000000;stroke-linecap:square;stroke-linejoin:miter;stroke-width:0.8;"/>
   </g>
  </g>
  <g id="axes_9">
   <g id="patch_82">
    <path d="M 53.473438 192.415356 
L 388.273438 192.415356 
L 388.273438 175.689202 
L 53.473438 175.689202 
z
" style="fill:none;"/>
   </g>
   <g id="patch_83">
    <path clip-path="url(#p1b3315d944)" d="M 65.679688 190.74274 
L 152.867188 190.74274 
L 152.867188 182.379663 
L 65.679688 182.379663 
z
" style="fill:#ff0000;stroke:#000000;stroke-linejoin:miter;"/>
   </g>
   <g id="patch_84">
    <path clip-path="url(#p1b3315d944)" d="M 152.867188 190.74274 
L 231.335938 190.74274 
L 231.335938 182.379663 
L 152.867188 182.379663 
z
" style="fill:#00ff00;stroke:#000000;stroke-linejoin:miter;"/>
   </g>
   <g id="patch_85">
    <path clip-path="url(#p1b3315d944)" d="M 231.335938 190.74274 
L 292.367188 190.74274 
L 292.367188 182.379663 
L 231.335938 182.379663 
z
" style="fill:#ff1ab9;stroke:#000000;stroke-linejoin:miter;"/>
   </g>
   <g id="patch_86">
    <path clip-path="url(#p1b3315d944)" d="M 292.367188 190.74274 
L 344.679688 190.74274 
L 344.679688 182.379663 
L 292.367188 182.379663 
z
" style="fill:#ffd300;stroke:#000000;stroke-linejoin:miter;"/>
   </g>
   <g id="patch_87">
    <path clip-path="url(#p1b3315d944)" d="M 344.679688 190.74274 
L 379.554688 190.74274 
L 379.554688 182.379663 
L 344.679688 182.379663 
z
" style="fill:#005800;stroke:#000000;stroke-linejoin:miter;"/>
   </g>
   <g id="matplotlib.axis_17"/>
   <g id="matplotlib.axis_18">
    <g id="ytick_17"/>
    <g id="ytick_18"/>
    <g id="text_10">
     <text style="font-family:DejaVu Sans;font-size:10px;font-style:normal;font-weight:normal;" transform="translate(49.473438 170.774779)"/>
     <text style="font-family:DejaVu Sans;font-size:10px;font-style:normal;font-weight:normal;" transform="translate(38.34375 181.972591)">21   </text>
    </g>
   </g>
   <g id="patch_88">
    <path d="M 53.473438 192.415356 
L 53.473438 175.689202 
" style="fill:none;stroke:#000000;stroke-linecap:square;stroke-linejoin:miter;stroke-width:0.8;"/>
   </g>
   <g id="patch_89">
    <path d="M 388.273438 192.415356 
L 388.273438 175.689202 
" style="fill:none;stroke:#000000;stroke-linecap:square;stroke-linejoin:miter;stroke-width:0.8;"/>
   </g>
   <g id="patch_90">
    <path d="M 53.473438 192.415356 
L 388.273438 192.415356 
" style="fill:none;stroke:#000000;stroke-linecap:square;stroke-linejoin:miter;stroke-width:0.8;"/>
   </g>
   <g id="patch_91">
    <path d="M 53.473438 175.689202 
L 388.273438 175.689202 
" style="fill:none;stroke:#000000;stroke-linecap:square;stroke-linejoin:miter;stroke-width:0.8;"/>
   </g>
  </g>
  <g id="axes_10">
   <g id="patch_92">
    <path d="M 53.473438 212.48674 
L 388.273438 212.48674 
L 388.273438 195.760587 
L 53.473438 195.760587 
z
" style="fill:none;"/>
   </g>
   <g id="patch_93">
    <path clip-path="url(#p2a8e05b32c)" d="M 74.398438 210.814125 
L 117.992188 210.814125 
L 117.992188 202.451048 
L 74.398438 202.451048 
z
" style="fill:#ff0000;stroke:#000000;stroke-linejoin:miter;"/>
   </g>
   <g id="patch_94">
    <path clip-path="url(#p2a8e05b32c)" d="M 117.992188 210.814125 
L 179.023438 210.814125 
L 179.023438 202.451048 
L 117.992188 202.451048 
z
" style="fill:#00ff00;stroke:#000000;stroke-linejoin:miter;"/>
   </g>
   <g id="patch_95">
    <path clip-path="url(#p2a8e05b32c)" d="M 179.023438 210.814125 
L 231.335938 210.814125 
L 231.335938 202.451048 
L 179.023438 202.451048 
z
" style="fill:#ff1ab9;stroke:#000000;stroke-linejoin:miter;"/>
   </g>
   <g id="patch_96">
    <path clip-path="url(#p2a8e05b32c)" d="M 231.335938 210.814125 
L 301.085938 210.814125 
L 301.085938 202.451048 
L 231.335938 202.451048 
z
" style="fill:#ffd300;stroke:#000000;stroke-linejoin:miter;"/>
   </g>
   <g id="patch_97">
    <path clip-path="url(#p2a8e05b32c)" d="M 301.085938 210.814125 
L 379.554688 210.814125 
L 379.554688 202.451048 
L 301.085938 202.451048 
z
" style="fill:#005800;stroke:#000000;stroke-linejoin:miter;"/>
   </g>
   <g id="matplotlib.axis_19"/>
   <g id="matplotlib.axis_20">
    <g id="ytick_19"/>
    <g id="ytick_20"/>
    <g id="text_11">
     <text style="font-family:DejaVu Sans;font-size:10px;font-style:normal;font-weight:normal;" transform="translate(49.473438 190.846163)"/>
     <text style="font-family:DejaVu Sans;font-size:10px;font-style:normal;font-weight:normal;" transform="translate(38.34375 202.043976)">23   </text>
    </g>
   </g>
   <g id="patch_98">
    <path d="M 53.473438 212.48674 
L 53.473438 195.760587 
" style="fill:none;stroke:#000000;stroke-linecap:square;stroke-linejoin:miter;stroke-width:0.8;"/>
   </g>
   <g id="patch_99">
    <path d="M 388.273438 212.48674 
L 388.273438 195.760587 
" style="fill:none;stroke:#000000;stroke-linecap:square;stroke-linejoin:miter;stroke-width:0.8;"/>
   </g>
   <g id="patch_100">
    <path d="M 53.473438 212.48674 
L 388.273438 212.48674 
" style="fill:none;stroke:#000000;stroke-linecap:square;stroke-linejoin:miter;stroke-width:0.8;"/>
   </g>
   <g id="patch_101">
    <path d="M 53.473438 195.760587 
L 388.273438 195.760587 
" style="fill:none;stroke:#000000;stroke-linecap:square;stroke-linejoin:miter;stroke-width:0.8;"/>
   </g>
  </g>
  <g id="axes_11">
   <g id="patch_102">
    <path d="M 53.473438 232.558125 
L 388.273438 232.558125 
L 388.273438 215.831971 
L 53.473438 215.831971 
z
" style="fill:none;"/>
   </g>
   <g id="patch_103">
    <path clip-path="url(#p6c3b56a741)" d="M 65.679688 230.88551 
L 179.023438 230.88551 
L 179.023438 222.522433 
L 65.679688 222.522433 
z
" style="fill:#ff0000;stroke:#000000;stroke-linejoin:miter;"/>
   </g>
   <g id="patch_104">
    <path clip-path="url(#p6c3b56a741)" d="M 179.023438 230.88551 
L 248.773438 230.88551 
L 248.773438 222.522433 
L 179.023438 222.522433 
z
" style="fill:#00ff00;stroke:#000000;stroke-linejoin:miter;"/>
   </g>
   <g id="patch_105">
    <path clip-path="url(#p6c3b56a741)" d="M 248.773438 230.88551 
L 309.804688 230.88551 
L 309.804688 222.522433 
L 248.773438 222.522433 
z
" style="fill:#ff1ab9;stroke:#000000;stroke-linejoin:miter;"/>
   </g>
   <g id="patch_106">
    <path clip-path="url(#p6c3b56a741)" d="M 309.804688 230.88551 
L 379.554688 230.88551 
L 379.554688 222.522433 
L 309.804688 222.522433 
z
" style="fill:#ffd300;stroke:#000000;stroke-linejoin:miter;"/>
   </g>
   <g id="matplotlib.axis_21">
    <g id="xtick_1">
     <g id="line2d_1">
      <defs>
       <path d="M 0 0 
L 0 3.5 
" id="m550ea3e756" style="stroke:#000000;stroke-width:0.8;"/>
      </defs>
      <g>
       <use style="stroke:#000000;stroke-width:0.8;" x="56.960938" xlink:href="#m550ea3e756" y="232.558125"/>
      </g>
     </g>
     <g id="text_12">
      <text style="font-family:DejaVu Sans;font-size:10px;font-style:normal;font-weight:normal;text-anchor:middle;" transform="rotate(-0, 56.960938, 247.156562)" x="56.960938" y="247.156562">0</text>
     </g>
    </g>
    <g id="xtick_2">
     <g id="line2d_2">
      <g>
       <use style="stroke:#000000;stroke-width:0.8;" x="126.710938" xlink:href="#m550ea3e756" y="232.558125"/>
      </g>
     </g>
     <g id="text_13">
      <text style="font-family:DejaVu Sans;font-size:10px;font-style:normal;font-weight:normal;text-anchor:middle;" transform="rotate(-0, 126.710938, 247.156562)" x="126.710938" y="247.156562">20</text>
     </g>
    </g>
    <g id="xtick_3">
     <g id="line2d_3">
      <g>
       <use style="stroke:#000000;stroke-width:0.8;" x="196.460938" xlink:href="#m550ea3e756" y="232.558125"/>
      </g>
     </g>
     <g id="text_14">
      <text style="font-family:DejaVu Sans;font-size:10px;font-style:normal;font-weight:normal;text-anchor:middle;" transform="rotate(-0, 196.460938, 247.156562)" x="196.460938" y="247.156562">40</text>
     </g>
    </g>
    <g id="xtick_4">
     <g id="line2d_4">
      <g>
       <use style="stroke:#000000;stroke-width:0.8;" x="266.210938" xlink:href="#m550ea3e756" y="232.558125"/>
      </g>
     </g>
     <g id="text_15">
      <text style="font-family:DejaVu Sans;font-size:10px;font-style:normal;font-weight:normal;text-anchor:middle;" transform="rotate(-0, 266.210938, 247.156562)" x="266.210938" y="247.156562">60</text>
     </g>
    </g>
    <g id="xtick_5">
     <g id="line2d_5">
      <g>
       <use style="stroke:#000000;stroke-width:0.8;" x="335.960938" xlink:href="#m550ea3e756" y="232.558125"/>
      </g>
     </g>
     <g id="text_16">
      <text style="font-family:DejaVu Sans;font-size:10px;font-style:normal;font-weight:normal;text-anchor:middle;" transform="rotate(-0, 335.960938, 247.156562)" x="335.960938" y="247.156562">80</text>
     </g>
    </g>
    <g id="text_17">
     <text style="font-family:DejaVu Sans;font-size:10px;font-style:normal;font-weight:normal;text-anchor:middle;" transform="rotate(-0, 220.873438, 260.834687)" x="220.873438" y="260.834687">Genomic Position [Mb]</text>
    </g>
   </g>
   <g id="matplotlib.axis_22">
    <g id="ytick_21"/>
    <g id="ytick_22"/>
    <g id="text_18">
     <text style="font-family:DejaVu Sans;font-size:10px;font-style:normal;font-weight:normal;" transform="translate(49.473438 210.917548)"/>
     <text style="font-family:DejaVu Sans;font-size:10px;font-style:normal;font-weight:normal;" transform="translate(38.34375 222.115361)">24   </text>
    </g>
   </g>
   <g id="patch_107">
    <path d="M 53.473438 232.558125 
L 53.473438 215.831971 
" style="fill:none;stroke:#000000;stroke-linecap:square;stroke-linejoin:miter;stroke-width:0.8;"/>
   </g>
   <g id="patch_108">
    <path d="M 388.273438 232.558125 
L 388.273438 215.831971 
" style="fill:none;stroke:#000000;stroke-linecap:square;stroke-linejoin:miter;stroke-width:0.8;"/>
   </g>
   <g id="patch_109">
    <path d="M 53.473438 232.558125 
L 388.273438 232.558125 
" style="fill:none;stroke:#000000;stroke-linecap:square;stroke-linejoin:miter;stroke-width:0.8;"/>
   </g>
   <g id="patch_110">
    <path d="M 53.473438 215.831971 
L 388.273438 215.831971 
" style="fill:none;stroke:#000000;stroke-linecap:square;stroke-linejoin:miter;stroke-width:0.8;"/>
   </g>
  </g>
 </g>
 <defs>
  <clipPath id="p260b06c626">
   <rect height="16.726154" width="334.8" x="53.473438" y="15.118125"/>
  </clipPath>
  <clipPath id="pc13c4d2a08">
   <rect height="16.726154" width="334.8" x="53.473438" y="35.18951"/>
  </clipPath>
  <clipPath id="p2c33d9662e">
   <rect height="16.726154" width="334.8" x="53.473438" y="55.260894"/>
  </clipPath>
  <clipPath id="pb5c50b8d28">
   <rect height="16.726154" width="334.8" x="53.473438" y="75.332279"/>
  </clipPath>
  <clipPath id="p4115532dda">
   <rect height="16.726154" width="334.8" x="53.473438" y="95.403663"/>
  </clipPath>
  <clipPath id="pdea657771e">
   <rect height="16.726154" width="334.8" x="53.473438" y="115.475048"/>
  </clipPath>
  <clipPath id="p6a2294fd69">
   <rect height="16.726154" width="334.8" x="53.473438" y="135.546433"/>
  </clipPath>
  <clipPath id="pde6291b587">
   <rect height="16.726154" width="334.8" x="53.473438" y="155.617817"/>
  </clipPath>
  <clipPath id="p1b3315d944">
   <rect height="16.726154" width="334.8" x="53.473438" y="175.689202"/>
  </clipPath>
  <clipPath id="p2a8e05b32c">
   <rect height="16.726154" width="334.8" x="53.473438" y="195.760587"/>
  </clipPath>
  <clipPath id="p6c3b56a741">
   <rect height="16.726154" width="334.8" x="53.473438" y="215.831971"/>
  </clipPath>
 </defs>
</svg>
