<?xml version="1.0" encoding="utf-8" standalone="no"?>
<!DOCTYPE svg PUBLIC "-//W3C//DTD SVG 1.1//EN"
  "http://www.w3.org/Graphics/SVG/1.1/DTD/svg11.dtd">
<!-- Created with matplotlib (https://matplotlib.org/) -->
<svg height="262.914375pt" version="1.1" viewBox="0 0 388.273437 262.914375" width="388.273437pt" xmlns="http://www.w3.org/2000/svg" xmlns:xlink="http://www.w3.org/1999/xlink">
 <defs>
  <style type="text/css">
*{stroke-linecap:butt;stroke-linejoin:round;}
  </style>
 </defs>
 <g id="figure_1">
  <g id="patch_1">
   <path d="M 0 262.914375 
L 388.273437 262.914375 
L 388.273437 0 
L 0 0 
z
" style="fill:none;"/>
  </g>
  <g id="axes_1">
   <g id="patch_2">
    <path d="M 53.473438 30.430801 
L 388.273438 30.430801 
L 388.273438 15.118125 
L 53.473438 15.118125 
z
" style="fill:none;"/>
   </g>
   <g id="patch_3">
    <path clip-path="url(#p3953b71014)" d="M 62.773438 28.899533 
L 109.273438 28.899533 
L 109.273438 21.243195 
L 62.773438 21.243195 
z
" style="fill:#ff0000;stroke:#000000;stroke-linejoin:miter;"/>
   </g>
   <g id="patch_4">
    <path clip-path="url(#p3953b71014)" d="M 109.273438 28.899533 
L 182.344866 28.899533 
L 182.344866 21.243195 
L 109.273438 21.243195 
z
" style="fill:#00ff00;stroke:#000000;stroke-linejoin:miter;"/>
   </g>
   <g id="patch_5">
    <path clip-path="url(#p3953b71014)" d="M 182.344866 28.899533 
L 235.487723 28.899533 
L 235.487723 21.243195 
L 182.344866 21.243195 
z
" style="fill:#ff1ab9;stroke:#000000;stroke-linejoin:miter;"/>
   </g>
   <g id="patch_6">
    <path clip-path="url(#p3953b71014)" d="M 235.487723 28.899533 
L 281.987723 28.899533 
L 281.987723 21.243195 
L 235.487723 21.243195 
z
" style="fill:#ffd300;stroke:#000000;stroke-linejoin:miter;"/>
   </g>
   <g id="patch_7">
    <path clip-path="url(#p3953b71014)" d="M 281.987723 28.899533 
L 355.059152 28.899533 
L 355.059152 21.243195 
L 281.987723 21.243195 
z
" style="fill:#005800;stroke:#000000;stroke-linejoin:miter;"/>
   </g>
   <g id="patch_8">
    <path clip-path="url(#p3953b71014)" d="M 355.059152 28.899533 
L 381.63058 28.899533 
L 381.63058 21.243195 
L 355.059152 21.243195 
z
" style="fill:#8484ff;stroke:#000000;stroke-linejoin:miter;"/>
   </g>
   <g id="matplotlib.axis_1"/>
   <g id="matplotlib.axis_2">
    <g id="ytick_1"/>
    <g id="ytick_2"/>
    <g id="text_1">
     <text style="font-family:DejaVu Sans;font-size:10px;font-style:normal;font-weight:normal;text-anchor:middle;" transform="rotate(-0, 49.473438, 20.694776)" x="49.473438" y="20.694776">Embryo 1                </text>
    </g>
   </g>
   <g id="patch_9">
    <path d="M 53.473438 30.430801 
L 53.473438 15.118125 
" style="fill:none;stroke:#000000;stroke-linecap:square;stroke-linejoin:miter;stroke-width:0.8;"/>
   </g>
   <g id="patch_10">
    <path d="M 388.273438 30.430801 
L 388.273438 15.118125 
" style="fill:none;stroke:#000000;stroke-linecap:square;stroke-linejoin:miter;stroke-width:0.8;"/>
   </g>
   <g id="patch_11">
    <path d="M 53.473438 30.430801 
L 388.273438 30.430801 
" style="fill:none;stroke:#000000;stroke-linecap:square;stroke-linejoin:miter;stroke-width:0.8;"/>
   </g>
   <g id="patch_12">
    <path d="M 53.473438 15.118125 
L 388.273438 15.118125 
" style="fill:none;stroke:#000000;stroke-linecap:square;stroke-linejoin:miter;stroke-width:0.8;"/>
   </g>
   <g id="text_2">
    <text style="font-family:DejaVu Sans;font-size:12px;font-style:normal;font-weight:normal;text-anchor:middle;" transform="rotate(-0, 220.873438, 9.118125)" x="220.873438" y="9.118125">Chr 14</text>
   </g>
  </g>
  <g id="axes_2">
   <g id="patch_13">
    <path d="M 53.473438 48.806012 
L 388.273438 48.806012 
L 388.273438 33.493336 
L 53.473438 33.493336 
z
" style="fill:none;"/>
   </g>
   <g id="patch_14">
    <path clip-path="url(#p9d24798860)" d="M 62.773438 47.274745 
L 109.273438 47.274745 
L 109.273438 39.618407 
L 62.773438 39.618407 
z
" style="fill:#ff0000;stroke:#000000;stroke-linejoin:miter;"/>
   </g>
   <g id="patch_15">
    <path clip-path="url(#p9d24798860)" d="M 109.273438 47.274745 
L 195.63058 47.274745 
L 195.63058 39.618407 
L 109.273438 39.618407 
z
" style="fill:#00ff00;stroke:#000000;stroke-linejoin:miter;"/>
   </g>
   <g id="patch_16">
    <path clip-path="url(#p9d24798860)" d="M 195.63058 47.274745 
L 255.416295 47.274745 
L 255.416295 39.618407 
L 195.63058 39.618407 
z
" style="fill:#ff1ab9;stroke:#000000;stroke-linejoin:miter;"/>
   </g>
   <g id="patch_17">
    <path clip-path="url(#p9d24798860)" d="M 255.416295 47.274745 
L 295.273438 47.274745 
L 295.273438 39.618407 
L 255.416295 39.618407 
z
" style="fill:#ffd300;stroke:#000000;stroke-linejoin:miter;"/>
   </g>
   <g id="patch_18">
    <path clip-path="url(#p9d24798860)" d="M 295.273438 47.274745 
L 341.773438 47.274745 
L 341.773438 39.618407 
L 295.273438 39.618407 
z
" style="fill:#005800;stroke:#000000;stroke-linejoin:miter;"/>
   </g>
   <g id="patch_19">
    <path clip-path="url(#p9d24798860)" d="M 341.773438 47.274745 
L 381.63058 47.274745 
L 381.63058 39.618407 
L 341.773438 39.618407 
z
" style="fill:#8484ff;stroke:#000000;stroke-linejoin:miter;"/>
   </g>
   <g id="matplotlib.axis_3"/>
   <g id="matplotlib.axis_4">
    <g id="ytick_3"/>
    <g id="ytick_4"/>
    <g id="text_3">
     <text style="font-family:DejaVu Sans;font-size:10px;font-style:normal;font-weight:normal;" transform="translate(49.473438 27.872174)"/>
     <text style="font-family:DejaVu Sans;font-size:10px;font-style:normal;font-weight:normal;" transform="translate(41.525 39.069987)">6   </text>
    </g>
   </g>
   <g id="patch_20">
    <path d="M 53.473438 48.806012 
L 53.473438 33.493336 
" style="fill:none;stroke:#000000;stroke-linecap:square;stroke-linejoin:miter;stroke-width:0.8;"/>
   </g>
   <g id="patch_21">
    <path d="M 388.273438 48.806012 
L 388.273438 33.493336 
" style="fill:none;stroke:#000000;stroke-linecap:square;stroke-linejoin:miter;stroke-width:0.8;"/>
   </g>
   <g id="patch_22">
    <path d="M 53.473438 48.806012 
L 388.273438 48.806012 
" style="fill:none;stroke:#000000;stroke-linecap:square;stroke-linejoin:miter;stroke-width:0.8;"/>
   </g>
   <g id="patch_23">
    <path d="M 53.473438 33.493336 
L 388.273438 33.493336 
" style="fill:none;stroke:#000000;stroke-linecap:square;stroke-linejoin:miter;stroke-width:0.8;"/>
   </g>
  </g>
  <g id="axes_3">
   <g id="patch_24">
    <path d="M 53.473438 67.181224 
L 388.273438 67.181224 
L 388.273438 51.868548 
L 53.473438 51.868548 
z
" style="fill:none;"/>
   </g>
   <g id="patch_25">
    <path clip-path="url(#p579ee2d27b)" d="M 69.416295 65.649956 
L 142.487723 65.649956 
L 142.487723 57.993618 
L 69.416295 57.993618 
z
" style="fill:#ff0000;stroke:#000000;stroke-linejoin:miter;"/>
   </g>
   <g id="patch_26">
    <path clip-path="url(#p579ee2d27b)" d="M 142.487723 65.649956 
L 188.987723 65.649956 
L 188.987723 57.993618 
L 142.487723 57.993618 
z
" style="fill:#00ff00;stroke:#000000;stroke-linejoin:miter;"/>
   </g>
   <g id="patch_27">
    <path clip-path="url(#p579ee2d27b)" d="M 188.987723 65.649956 
L 242.13058 65.649956 
L 242.13058 57.993618 
L 188.987723 57.993618 
z
" style="fill:#ff1ab9;stroke:#000000;stroke-linejoin:miter;"/>
   </g>
   <g id="patch_28">
    <path clip-path="url(#p579ee2d27b)" d="M 242.13058 65.649956 
L 281.987723 65.649956 
L 281.987723 57.993618 
L 242.13058 57.993618 
z
" style="fill:#ffd300;stroke:#000000;stroke-linejoin:miter;"/>
   </g>
   <g id="patch_29">
    <path clip-path="url(#p579ee2d27b)" d="M 281.987723 65.649956 
L 335.13058 65.649956 
L 335.13058 57.993618 
L 281.987723 57.993618 
z
" style="fill:#005800;stroke:#000000;stroke-linejoin:miter;"/>
   </g>
   <g id="patch_30">
    <path clip-path="url(#p579ee2d27b)" d="M 335.13058 65.649956 
L 381.63058 65.649956 
L 381.63058 57.993618 
L 335.13058 57.993618 
z
" style="fill:#8484ff;stroke:#000000;stroke-linejoin:miter;"/>
   </g>
   <g id="matplotlib.axis_5"/>
   <g id="matplotlib.axis_6">
    <g id="ytick_5"/>
    <g id="ytick_6"/>
    <g id="text_4">
     <text style="font-family:DejaVu Sans;font-size:10px;font-style:normal;font-weight:normal;" transform="translate(49.473438 46.247386)"/>
     <text style="font-family:DejaVu Sans;font-size:10px;font-style:normal;font-weight:normal;" transform="translate(41.525 57.445198)">7   </text>
    </g>
   </g>
   <g id="patch_31">
    <path d="M 53.473438 67.181224 
L 53.473438 51.868548 
" style="fill:none;stroke:#000000;stroke-linecap:square;stroke-linejoin:miter;stroke-width:0.8;"/>
   </g>
   <g id="patch_32">
    <path d="M 388.273438 67.181224 
L 388.273438 51.868548 
" style="fill:none;stroke:#000000;stroke-linecap:square;stroke-linejoin:miter;stroke-width:0.8;"/>
   </g>
   <g id="patch_33">
    <path d="M 53.473438 67.181224 
L 388.273438 67.181224 
" style="fill:none;stroke:#000000;stroke-linecap:square;stroke-linejoin:miter;stroke-width:0.8;"/>
   </g>
   <g id="patch_34">
    <path d="M 53.473438 51.868548 
L 388.273438 51.868548 
" style="fill:none;stroke:#000000;stroke-linecap:square;stroke-linejoin:miter;stroke-width:0.8;"/>
   </g>
  </g>
  <g id="axes_4">
   <g id="patch_35">
    <path d="M 53.473438 85.556435 
L 388.273438 85.556435 
L 388.273438 70.243759 
L 53.473438 70.243759 
z
" style="fill:none;"/>
   </g>
   <g id="patch_36">
    <path clip-path="url(#p0f47b1153e)" d="M 76.059152 84.025167 
L 109.273438 84.025167 
L 109.273438 76.368829 
L 76.059152 76.368829 
z
" style="fill:#ff0000;stroke:#000000;stroke-linejoin:miter;"/>
   </g>
   <g id="patch_37">
    <path clip-path="url(#p0f47b1153e)" d="M 109.273438 84.025167 
L 142.487723 84.025167 
L 142.487723 76.368829 
L 109.273438 76.368829 
z
" style="fill:#00ff00;stroke:#000000;stroke-linejoin:miter;"/>
   </g>
   <g id="patch_38">
    <path clip-path="url(#p0f47b1153e)" d="M 142.487723 84.025167 
L 195.63058 84.025167 
L 195.63058 76.368829 
L 142.487723 76.368829 
z
" style="fill:#ff1ab9;stroke:#000000;stroke-linejoin:miter;"/>
   </g>
   <g id="patch_39">
    <path clip-path="url(#p0f47b1153e)" d="M 195.63058 84.025167 
L 242.13058 84.025167 
L 242.13058 76.368829 
L 195.63058 76.368829 
z
" style="fill:#ffd300;stroke:#000000;stroke-linejoin:miter;"/>
   </g>
   <g id="patch_40">
    <path clip-path="url(#p0f47b1153e)" d="M 242.13058 84.025167 
L 301.916295 84.025167 
L 301.916295 76.368829 
L 242.13058 76.368829 
z
" style="fill:#005800;stroke:#000000;stroke-linejoin:miter;"/>
   </g>
   <g id="patch_41">
    <path clip-path="url(#p0f47b1153e)" d="M 301.916295 84.025167 
L 335.13058 84.025167 
L 335.13058 76.368829 
L 301.916295 76.368829 
z
" style="fill:#8484ff;stroke:#000000;stroke-linejoin:miter;"/>
   </g>
   <g id="patch_42">
    <path clip-path="url(#p0f47b1153e)" d="M 335.13058 84.025167 
L 381.63058 84.025167 
L 381.63058 76.368829 
L 335.13058 76.368829 
z
" style="fill:#9e4f46;stroke:#000000;stroke-linejoin:miter;"/>
   </g>
   <g id="matplotlib.axis_7"/>
   <g id="matplotlib.axis_8">
    <g id="ytick_7"/>
    <g id="ytick_8"/>
    <g id="text_5">
     <text style="font-family:DejaVu Sans;font-size:10px;font-style:normal;font-weight:normal;" transform="translate(49.473438 64.622597)"/>
     <text style="font-family:DejaVu Sans;font-size:10px;font-style:normal;font-weight:normal;" transform="translate(41.525 75.820409)">8   </text>
    </g>
   </g>
   <g id="patch_43">
    <path d="M 53.473438 85.556435 
L 53.473438 70.243759 
" style="fill:none;stroke:#000000;stroke-linecap:square;stroke-linejoin:miter;stroke-width:0.8;"/>
   </g>
   <g id="patch_44">
    <path d="M 388.273438 85.556435 
L 388.273438 70.243759 
" style="fill:none;stroke:#000000;stroke-linecap:square;stroke-linejoin:miter;stroke-width:0.8;"/>
   </g>
   <g id="patch_45">
    <path d="M 53.473438 85.556435 
L 388.273438 85.556435 
" style="fill:none;stroke:#000000;stroke-linecap:square;stroke-linejoin:miter;stroke-width:0.8;"/>
   </g>
   <g id="patch_46">
    <path d="M 53.473438 70.243759 
L 388.273438 70.243759 
" style="fill:none;stroke:#000000;stroke-linecap:square;stroke-linejoin:miter;stroke-width:0.8;"/>
   </g>
  </g>
  <g id="axes_5">
   <g id="patch_47">
    <path d="M 53.473438 103.931646 
L 388.273438 103.931646 
L 388.273438 88.61897 
L 53.473438 88.61897 
z
" style="fill:none;"/>
   </g>
   <g id="patch_48">
    <path clip-path="url(#pe14de150c6)" d="M 76.059152 102.400379 
L 109.273438 102.400379 
L 109.273438 94.74404 
L 76.059152 94.74404 
z
" style="fill:#ff0000;stroke:#000000;stroke-linejoin:miter;"/>
   </g>
   <g id="patch_49">
    <path clip-path="url(#pe14de150c6)" d="M 109.273438 102.400379 
L 142.487723 102.400379 
L 142.487723 94.74404 
L 109.273438 94.74404 
z
" style="fill:#00ff00;stroke:#000000;stroke-linejoin:miter;"/>
   </g>
   <g id="patch_50">
    <path clip-path="url(#pe14de150c6)" d="M 142.487723 102.400379 
L 248.773438 102.400379 
L 248.773438 94.74404 
L 142.487723 94.74404 
z
" style="fill:#ff1ab9;stroke:#000000;stroke-linejoin:miter;"/>
   </g>
   <g id="patch_51">
    <path clip-path="url(#pe14de150c6)" d="M 248.773438 102.400379 
L 281.987723 102.400379 
L 281.987723 94.74404 
L 248.773438 94.74404 
z
" style="fill:#ffd300;stroke:#000000;stroke-linejoin:miter;"/>
   </g>
   <g id="patch_52">
    <path clip-path="url(#pe14de150c6)" d="M 281.987723 102.400379 
L 308.559152 102.400379 
L 308.559152 94.74404 
L 281.987723 94.74404 
z
" style="fill:#005800;stroke:#000000;stroke-linejoin:miter;"/>
   </g>
   <g id="patch_53">
    <path clip-path="url(#pe14de150c6)" d="M 308.559152 102.400379 
L 341.773438 102.400379 
L 341.773438 94.74404 
L 308.559152 94.74404 
z
" style="fill:#8484ff;stroke:#000000;stroke-linejoin:miter;"/>
   </g>
   <g id="patch_54">
    <path clip-path="url(#pe14de150c6)" d="M 341.773438 102.400379 
L 381.63058 102.400379 
L 381.63058 94.74404 
L 341.773438 94.74404 
z
" style="fill:#9e4f46;stroke:#000000;stroke-linejoin:miter;"/>
   </g>
   <g id="matplotlib.axis_9"/>
   <g id="matplotlib.axis_10">
    <g id="ytick_9"/>
    <g id="ytick_10"/>
    <g id="text_6">
     <text style="font-family:DejaVu Sans;font-size:10px;font-style:normal;font-weight:normal;" transform="translate(49.473438 82.997808)"/>
     <text style="font-family:DejaVu Sans;font-size:10px;font-style:normal;font-weight:normal;" transform="translate(41.525 94.195621)">9   </text>
    </g>
   </g>
   <g id="patch_55">
    <path d="M 53.473438 103.931646 
L 53.473438 88.61897 
" style="fill:none;stroke:#000000;stroke-linecap:square;stroke-linejoin:miter;stroke-width:0.8;"/>
   </g>
   <g id="patch_56">
    <path d="M 388.273438 103.931646 
L 388.273438 88.61897 
" style="fill:none;stroke:#000000;stroke-linecap:square;stroke-linejoin:miter;stroke-width:0.8;"/>
   </g>
   <g id="patch_57">
    <path d="M 53.473438 103.931646 
L 388.273438 103.931646 
" style="fill:none;stroke:#000000;stroke-linecap:square;stroke-linejoin:miter;stroke-width:0.8;"/>
   </g>
   <g id="patch_58">
    <path d="M 53.473438 88.61897 
L 388.273438 88.61897 
" style="fill:none;stroke:#000000;stroke-linecap:square;stroke-linejoin:miter;stroke-width:0.8;"/>
   </g>
  </g>
  <g id="axes_6">
   <g id="patch_59">
    <path d="M 53.473438 122.306857 
L 388.273438 122.306857 
L 388.273438 106.994181 
L 53.473438 106.994181 
z
" style="fill:none;"/>
   </g>
   <g id="patch_60">
    <path clip-path="url(#pfc199143fe)" d="M 62.773438 120.77559 
L 109.273438 120.77559 
L 109.273438 113.119252 
L 62.773438 113.119252 
z
" style="fill:#ff0000;stroke:#000000;stroke-linejoin:miter;"/>
   </g>
   <g id="patch_61">
    <path clip-path="url(#pfc199143fe)" d="M 109.273438 120.77559 
L 175.702009 120.77559 
L 175.702009 113.119252 
L 109.273438 113.119252 
z
" style="fill:#00ff00;stroke:#000000;stroke-linejoin:miter;"/>
   </g>
   <g id="patch_62">
    <path clip-path="url(#pfc199143fe)" d="M 175.702009 120.77559 
L 242.13058 120.77559 
L 242.13058 113.119252 
L 175.702009 113.119252 
z
" style="fill:#ff1ab9;stroke:#000000;stroke-linejoin:miter;"/>
   </g>
   <g id="patch_63">
    <path clip-path="url(#pfc199143fe)" d="M 242.13058 120.77559 
L 281.987723 120.77559 
L 281.987723 113.119252 
L 242.13058 113.119252 
z
" style="fill:#ffd300;stroke:#000000;stroke-linejoin:miter;"/>
   </g>
   <g id="patch_64">
    <path clip-path="url(#pfc199143fe)" d="M 281.987723 120.77559 
L 315.202009 120.77559 
L 315.202009 113.119252 
L 281.987723 113.119252 
z
" style="fill:#005800;stroke:#000000;stroke-linejoin:miter;"/>
   </g>
   <g id="patch_65">
    <path clip-path="url(#pfc199143fe)" d="M 315.202009 120.77559 
L 381.63058 120.77559 
L 381.63058 113.119252 
L 315.202009 113.119252 
z
" style="fill:#8484ff;stroke:#000000;stroke-linejoin:miter;"/>
   </g>
   <g id="matplotlib.axis_11"/>
   <g id="matplotlib.axis_12">
    <g id="ytick_11"/>
    <g id="ytick_12"/>
    <g id="text_7">
     <text style="font-family:DejaVu Sans;font-size:10px;font-style:normal;font-weight:normal;" transform="translate(49.473438 101.373019)"/>
     <text style="font-family:DejaVu Sans;font-size:10px;font-style:normal;font-weight:normal;" transform="translate(38.34375 112.570832)">10   </text>
    </g>
   </g>
   <g id="patch_66">
    <path d="M 53.473438 122.306857 
L 53.473438 106.994181 
" style="fill:none;stroke:#000000;stroke-linecap:square;stroke-linejoin:miter;stroke-width:0.8;"/>
   </g>
   <g id="patch_67">
    <path d="M 388.273438 122.306857 
L 388.273438 106.994181 
" style="fill:none;stroke:#000000;stroke-linecap:square;stroke-linejoin:miter;stroke-width:0.8;"/>
   </g>
   <g id="patch_68">
    <path d="M 53.473438 122.306857 
L 388.273438 122.306857 
" style="fill:none;stroke:#000000;stroke-linecap:square;stroke-linejoin:miter;stroke-width:0.8;"/>
   </g>
   <g id="patch_69">
    <path d="M 53.473438 106.994181 
L 388.273438 106.994181 
" style="fill:none;stroke:#000000;stroke-linecap:square;stroke-linejoin:miter;stroke-width:0.8;"/>
   </g>
  </g>
  <g id="axes_7">
   <g id="patch_70">
    <path d="M 53.473438 140.682069 
L 388.273438 140.682069 
L 388.273438 125.369393 
L 53.473438 125.369393 
z
" style="fill:none;"/>
   </g>
   <g id="patch_71">
    <path clip-path="url(#p0a24aa7d19)" d="M 69.416295 139.150801 
L 109.273438 139.150801 
L 109.273438 131.494463 
L 69.416295 131.494463 
z
" style="fill:#ff0000;stroke:#000000;stroke-linejoin:miter;"/>
   </g>
   <g id="patch_72">
    <path clip-path="url(#p0a24aa7d19)" d="M 109.273438 139.150801 
L 155.773438 139.150801 
L 155.773438 131.494463 
L 109.273438 131.494463 
z
" style="fill:#00ff00;stroke:#000000;stroke-linejoin:miter;"/>
   </g>
   <g id="patch_73">
    <path clip-path="url(#p0a24aa7d19)" d="M 155.773438 139.150801 
L 195.63058 139.150801 
L 195.63058 131.494463 
L 155.773438 131.494463 
z
" style="fill:#ff1ab9;stroke:#000000;stroke-linejoin:miter;"/>
   </g>
   <g id="patch_74">
    <path clip-path="url(#p0a24aa7d19)" d="M 195.63058 139.150801 
L 222.202009 139.150801 
L 222.202009 131.494463 
L 195.63058 131.494463 
z
" style="fill:#ffd300;stroke:#000000;stroke-linejoin:miter;"/>
   </g>
   <g id="patch_75">
    <path clip-path="url(#p0a24aa7d19)" d="M 222.202009 139.150801 
L 295.273438 139.150801 
L 295.273438 131.494463 
L 222.202009 131.494463 
z
" style="fill:#005800;stroke:#000000;stroke-linejoin:miter;"/>
   </g>
   <g id="patch_76">
    <path clip-path="url(#p0a24aa7d19)" d="M 295.273438 139.150801 
L 381.63058 139.150801 
L 381.63058 131.494463 
L 295.273438 131.494463 
z
" style="fill:#8484ff;stroke:#000000;stroke-linejoin:miter;"/>
   </g>
   <g id="matplotlib.axis_13"/>
   <g id="matplotlib.axis_14">
    <g id="ytick_13"/>
    <g id="ytick_14"/>
    <g id="text_8">
     <text style="font-family:DejaVu Sans;font-size:10px;font-style:normal;font-weight:normal;" transform="translate(49.473438 119.748231)"/>
     <text style="font-family:DejaVu Sans;font-size:10px;font-style:normal;font-weight:normal;" transform="translate(38.34375 130.946043)">11   </text>
    </g>
   </g>
   <g id="patch_77">
    <path d="M 53.473438 140.682069 
L 53.473438 125.369393 
" style="fill:none;stroke:#000000;stroke-linecap:square;stroke-linejoin:miter;stroke-width:0.8;"/>
   </g>
   <g id="patch_78">
    <path d="M 388.273438 140.682069 
L 388.273438 125.369393 
" style="fill:none;stroke:#000000;stroke-linecap:square;stroke-linejoin:miter;stroke-width:0.8;"/>
   </g>
   <g id="patch_79">
    <path d="M 53.473438 140.682069 
L 388.273438 140.682069 
" style="fill:none;stroke:#000000;stroke-linecap:square;stroke-linejoin:miter;stroke-width:0.8;"/>
   </g>
   <g id="patch_80">
    <path d="M 53.473438 125.369393 
L 388.273438 125.369393 
" style="fill:none;stroke:#000000;stroke-linecap:square;stroke-linejoin:miter;stroke-width:0.8;"/>
   </g>
  </g>
  <g id="axes_8">
   <g id="patch_81">
    <path d="M 53.473438 159.05728 
L 388.273438 159.05728 
L 388.273438 143.744604 
L 53.473438 143.744604 
z
" style="fill:none;"/>
   </g>
   <g id="patch_82">
    <path clip-path="url(#pdbb662e556)" d="M 69.416295 157.526012 
L 169.059152 157.526012 
L 169.059152 149.869674 
L 69.416295 149.869674 
z
" style="fill:#ff0000;stroke:#000000;stroke-linejoin:miter;"/>
   </g>
   <g id="patch_83">
    <path clip-path="url(#pdbb662e556)" d="M 169.059152 157.526012 
L 235.487723 157.526012 
L 235.487723 149.869674 
L 169.059152 149.869674 
z
" style="fill:#00ff00;stroke:#000000;stroke-linejoin:miter;"/>
   </g>
   <g id="patch_84">
    <path clip-path="url(#pdbb662e556)" d="M 235.487723 157.526012 
L 315.202009 157.526012 
L 315.202009 149.869674 
L 235.487723 149.869674 
z
" style="fill:#ff1ab9;stroke:#000000;stroke-linejoin:miter;"/>
   </g>
   <g id="patch_85">
    <path clip-path="url(#pdbb662e556)" d="M 315.202009 157.526012 
L 348.416295 157.526012 
L 348.416295 149.869674 
L 315.202009 149.869674 
z
" style="fill:#ffd300;stroke:#000000;stroke-linejoin:miter;"/>
   </g>
   <g id="patch_86">
    <path clip-path="url(#pdbb662e556)" d="M 348.416295 157.526012 
L 381.63058 157.526012 
L 381.63058 149.869674 
L 348.416295 149.869674 
z
" style="fill:#005800;stroke:#000000;stroke-linejoin:miter;"/>
   </g>
   <g id="matplotlib.axis_15"/>
   <g id="matplotlib.axis_16">
    <g id="ytick_15"/>
    <g id="ytick_16"/>
    <g id="text_9">
     <text style="font-family:DejaVu Sans;font-size:10px;font-style:normal;font-weight:normal;" transform="translate(49.473438 138.123442)"/>
     <text style="font-family:DejaVu Sans;font-size:10px;font-style:normal;font-weight:normal;" transform="translate(38.34375 149.321254)">13   </text>
    </g>
   </g>
   <g id="patch_87">
    <path d="M 53.473438 159.05728 
L 53.473438 143.744604 
" style="fill:none;stroke:#000000;stroke-linecap:square;stroke-linejoin:miter;stroke-width:0.8;"/>
   </g>
   <g id="patch_88">
    <path d="M 388.273438 159.05728 
L 388.273438 143.744604 
" style="fill:none;stroke:#000000;stroke-linecap:square;stroke-linejoin:miter;stroke-width:0.8;"/>
   </g>
   <g id="patch_89">
    <path d="M 53.473438 159.05728 
L 388.273438 159.05728 
" style="fill:none;stroke:#000000;stroke-linecap:square;stroke-linejoin:miter;stroke-width:0.8;"/>
   </g>
   <g id="patch_90">
    <path d="M 53.473438 143.744604 
L 388.273438 143.744604 
" style="fill:none;stroke:#000000;stroke-linecap:square;stroke-linejoin:miter;stroke-width:0.8;"/>
   </g>
  </g>
  <g id="axes_9">
   <g id="patch_91">
    <path d="M 53.473438 177.432491 
L 388.273438 177.432491 
L 388.273438 162.119815 
L 53.473438 162.119815 
z
" style="fill:none;"/>
   </g>
   <g id="patch_92">
    <path clip-path="url(#p7e72428718)" d="M 62.773438 175.901224 
L 115.916295 175.901224 
L 115.916295 168.244886 
L 62.773438 168.244886 
z
" style="fill:#ff0000;stroke:#000000;stroke-linejoin:miter;"/>
   </g>
   <g id="patch_93">
    <path clip-path="url(#p7e72428718)" d="M 115.916295 175.901224 
L 175.702009 175.901224 
L 175.702009 168.244886 
L 115.916295 168.244886 
z
" style="fill:#00ff00;stroke:#000000;stroke-linejoin:miter;"/>
   </g>
   <g id="patch_94">
    <path clip-path="url(#p7e72428718)" d="M 175.702009 175.901224 
L 222.202009 175.901224 
L 222.202009 168.244886 
L 175.702009 168.244886 
z
" style="fill:#ff1ab9;stroke:#000000;stroke-linejoin:miter;"/>
   </g>
   <g id="patch_95">
    <path clip-path="url(#p7e72428718)" d="M 222.202009 175.901224 
L 275.344866 175.901224 
L 275.344866 168.244886 
L 222.202009 168.244886 
z
" style="fill:#ffd300;stroke:#000000;stroke-linejoin:miter;"/>
   </g>
   <g id="patch_96">
    <path clip-path="url(#p7e72428718)" d="M 275.344866 175.901224 
L 308.559152 175.901224 
L 308.559152 168.244886 
L 275.344866 168.244886 
z
" style="fill:#005800;stroke:#000000;stroke-linejoin:miter;"/>
   </g>
   <g id="patch_97">
    <path clip-path="url(#p7e72428718)" d="M 308.559152 175.901224 
L 368.344866 175.901224 
L 368.344866 168.244886 
L 308.559152 168.244886 
z
" style="fill:#8484ff;stroke:#000000;stroke-linejoin:miter;"/>
   </g>
   <g id="matplotlib.axis_17"/>
   <g id="matplotlib.axis_18">
    <g id="ytick_17"/>
    <g id="ytick_18"/>
    <g id="text_10">
     <text style="font-family:DejaVu Sans;font-size:10px;font-style:normal;font-weight:normal;" transform="translate(49.473438 156.498653)"/>
     <text style="font-family:DejaVu Sans;font-size:10px;font-style:normal;font-weight:normal;" transform="translate(38.34375 167.696466)">14   </text>
    </g>
   </g>
   <g id="patch_98">
    <path d="M 53.473438 177.432491 
L 53.473438 162.119815 
" style="fill:none;stroke:#000000;stroke-linecap:square;stroke-linejoin:miter;stroke-width:0.8;"/>
   </g>
   <g id="patch_99">
    <path d="M 388.273438 177.432491 
L 388.273438 162.119815 
" style="fill:none;stroke:#000000;stroke-linecap:square;stroke-linejoin:miter;stroke-width:0.8;"/>
   </g>
   <g id="patch_100">
    <path d="M 53.473438 177.432491 
L 388.273438 177.432491 
" style="fill:none;stroke:#000000;stroke-linecap:square;stroke-linejoin:miter;stroke-width:0.8;"/>
   </g>
   <g id="patch_101">
    <path d="M 53.473438 162.119815 
L 388.273438 162.119815 
" style="fill:none;stroke:#000000;stroke-linecap:square;stroke-linejoin:miter;stroke-width:0.8;"/>
   </g>
  </g>
  <g id="axes_10">
   <g id="patch_102">
    <path d="M 53.473438 195.807702 
L 388.273438 195.807702 
L 388.273438 180.495026 
L 53.473438 180.495026 
z
" style="fill:none;"/>
   </g>
   <g id="patch_103">
    <path clip-path="url(#pda7ae73b54)" d="M 62.773438 194.276435 
L 129.202009 194.276435 
L 129.202009 186.620097 
L 62.773438 186.620097 
z
" style="fill:#ff0000;stroke:#000000;stroke-linejoin:miter;"/>
   </g>
   <g id="patch_104">
    <path clip-path="url(#pda7ae73b54)" d="M 129.202009 194.276435 
L 195.63058 194.276435 
L 195.63058 186.620097 
L 129.202009 186.620097 
z
" style="fill:#00ff00;stroke:#000000;stroke-linejoin:miter;"/>
   </g>
   <g id="patch_105">
    <path clip-path="url(#pda7ae73b54)" d="M 195.63058 194.276435 
L 255.416295 194.276435 
L 255.416295 186.620097 
L 195.63058 186.620097 
z
" style="fill:#ff1ab9;stroke:#000000;stroke-linejoin:miter;"/>
   </g>
   <g id="patch_106">
    <path clip-path="url(#pda7ae73b54)" d="M 255.416295 194.276435 
L 301.916295 194.276435 
L 301.916295 186.620097 
L 255.416295 186.620097 
z
" style="fill:#ffd300;stroke:#000000;stroke-linejoin:miter;"/>
   </g>
   <g id="patch_107">
    <path clip-path="url(#pda7ae73b54)" d="M 301.916295 194.276435 
L 355.059152 194.276435 
L 355.059152 186.620097 
L 301.916295 186.620097 
z
" style="fill:#005800;stroke:#000000;stroke-linejoin:miter;"/>
   </g>
   <g id="patch_108">
    <path clip-path="url(#pda7ae73b54)" d="M 355.059152 194.276435 
L 381.63058 194.276435 
L 381.63058 186.620097 
L 355.059152 186.620097 
z
" style="fill:#8484ff;stroke:#000000;stroke-linejoin:miter;"/>
   </g>
   <g id="matplotlib.axis_19"/>
   <g id="matplotlib.axis_20">
    <g id="ytick_19"/>
    <g id="ytick_20"/>
    <g id="text_11">
     <text style="font-family:DejaVu Sans;font-size:10px;font-style:normal;font-weight:normal;" transform="translate(49.473438 174.873864)"/>
     <text style="font-family:DejaVu Sans;font-size:10px;font-style:normal;font-weight:normal;" transform="translate(38.34375 186.071677)">17   </text>
    </g>
   </g>
   <g id="patch_109">
    <path d="M 53.473438 195.807702 
L 53.473438 180.495026 
" style="fill:none;stroke:#000000;stroke-linecap:square;stroke-linejoin:miter;stroke-width:0.8;"/>
   </g>
   <g id="patch_110">
    <path d="M 388.273438 195.807702 
L 388.273438 180.495026 
" style="fill:none;stroke:#000000;stroke-linecap:square;stroke-linejoin:miter;stroke-width:0.8;"/>
   </g>
   <g id="patch_111">
    <path d="M 53.473438 195.807702 
L 388.273438 195.807702 
" style="fill:none;stroke:#000000;stroke-linecap:square;stroke-linejoin:miter;stroke-width:0.8;"/>
   </g>
   <g id="patch_112">
    <path d="M 53.473438 180.495026 
L 388.273438 180.495026 
" style="fill:none;stroke:#000000;stroke-linecap:square;stroke-linejoin:miter;stroke-width:0.8;"/>
   </g>
  </g>
  <g id="axes_11">
   <g id="patch_113">
    <path d="M 53.473438 214.182914 
L 388.273438 214.182914 
L 388.273438 198.870238 
L 53.473438 198.870238 
z
" style="fill:none;"/>
   </g>
   <g id="patch_114">
    <path clip-path="url(#p64ea1bf66f)" d="M 62.773438 212.651646 
L 135.844866 212.651646 
L 135.844866 204.995308 
L 62.773438 204.995308 
z
" style="fill:#ff0000;stroke:#000000;stroke-linejoin:miter;"/>
   </g>
   <g id="patch_115">
    <path clip-path="url(#p64ea1bf66f)" d="M 135.844866 212.651646 
L 208.916295 212.651646 
L 208.916295 204.995308 
L 135.844866 204.995308 
z
" style="fill:#00ff00;stroke:#000000;stroke-linejoin:miter;"/>
   </g>
   <g id="patch_116">
    <path clip-path="url(#p64ea1bf66f)" d="M 208.916295 212.651646 
L 248.773438 212.651646 
L 248.773438 204.995308 
L 208.916295 204.995308 
z
" style="fill:#ff1ab9;stroke:#000000;stroke-linejoin:miter;"/>
   </g>
   <g id="patch_117">
    <path clip-path="url(#p64ea1bf66f)" d="M 248.773438 212.651646 
L 301.916295 212.651646 
L 301.916295 204.995308 
L 248.773438 204.995308 
z
" style="fill:#ffd300;stroke:#000000;stroke-linejoin:miter;"/>
   </g>
   <g id="patch_118">
    <path clip-path="url(#p64ea1bf66f)" d="M 301.916295 212.651646 
L 335.13058 212.651646 
L 335.13058 204.995308 
L 301.916295 204.995308 
z
" style="fill:#005800;stroke:#000000;stroke-linejoin:miter;"/>
   </g>
   <g id="patch_119">
    <path clip-path="url(#p64ea1bf66f)" d="M 335.13058 212.651646 
L 381.63058 212.651646 
L 381.63058 204.995308 
L 335.13058 204.995308 
z
" style="fill:#8484ff;stroke:#000000;stroke-linejoin:miter;"/>
   </g>
   <g id="matplotlib.axis_21"/>
   <g id="matplotlib.axis_22">
    <g id="ytick_21"/>
    <g id="ytick_22"/>
    <g id="text_12">
     <text style="font-family:DejaVu Sans;font-size:10px;font-style:normal;font-weight:normal;" transform="translate(49.473438 193.249076)"/>
     <text style="font-family:DejaVu Sans;font-size:10px;font-style:normal;font-weight:normal;" transform="translate(38.34375 204.446888)">21   </text>
    </g>
   </g>
   <g id="patch_120">
    <path d="M 53.473438 214.182914 
L 53.473438 198.870238 
" style="fill:none;stroke:#000000;stroke-linecap:square;stroke-linejoin:miter;stroke-width:0.8;"/>
   </g>
   <g id="patch_121">
    <path d="M 388.273438 214.182914 
L 388.273438 198.870238 
" style="fill:none;stroke:#000000;stroke-linecap:square;stroke-linejoin:miter;stroke-width:0.8;"/>
   </g>
   <g id="patch_122">
    <path d="M 53.473438 214.182914 
L 388.273438 214.182914 
" style="fill:none;stroke:#000000;stroke-linecap:square;stroke-linejoin:miter;stroke-width:0.8;"/>
   </g>
   <g id="patch_123">
    <path d="M 53.473438 198.870238 
L 388.273438 198.870238 
" style="fill:none;stroke:#000000;stroke-linecap:square;stroke-linejoin:miter;stroke-width:0.8;"/>
   </g>
  </g>
  <g id="axes_12">
   <g id="patch_124">
    <path d="M 53.473438 232.558125 
L 388.273438 232.558125 
L 388.273438 217.245449 
L 53.473438 217.245449 
z
" style="fill:none;"/>
   </g>
   <g id="patch_125">
    <path clip-path="url(#p45514cee8c)" d="M 69.416295 231.026857 
L 109.273438 231.026857 
L 109.273438 223.370519 
L 69.416295 223.370519 
z
" style="fill:#ff0000;stroke:#000000;stroke-linejoin:miter;"/>
   </g>
   <g id="patch_126">
    <path clip-path="url(#p45514cee8c)" d="M 109.273438 231.026857 
L 142.487723 231.026857 
L 142.487723 223.370519 
L 109.273438 223.370519 
z
" style="fill:#00ff00;stroke:#000000;stroke-linejoin:miter;"/>
   </g>
   <g id="patch_127">
    <path clip-path="url(#p45514cee8c)" d="M 142.487723 231.026857 
L 188.987723 231.026857 
L 188.987723 223.370519 
L 142.487723 223.370519 
z
" style="fill:#ff1ab9;stroke:#000000;stroke-linejoin:miter;"/>
   </g>
   <g id="patch_128">
    <path clip-path="url(#p45514cee8c)" d="M 188.987723 231.026857 
L 255.416295 231.026857 
L 255.416295 223.370519 
L 188.987723 223.370519 
z
" style="fill:#ffd300;stroke:#000000;stroke-linejoin:miter;"/>
   </g>
   <g id="patch_129">
    <path clip-path="url(#p45514cee8c)" d="M 255.416295 231.026857 
L 321.844866 231.026857 
L 321.844866 223.370519 
L 255.416295 223.370519 
z
" style="fill:#005800;stroke:#000000;stroke-linejoin:miter;"/>
   </g>
   <g id="patch_130">
    <path clip-path="url(#p45514cee8c)" d="M 321.844866 231.026857 
L 381.63058 231.026857 
L 381.63058 223.370519 
L 321.844866 223.370519 
z
" style="fill:#8484ff;stroke:#000000;stroke-linejoin:miter;"/>
   </g>
   <g id="matplotlib.axis_23">
    <g id="xtick_1">
     <g id="line2d_1">
      <defs>
       <path d="M 0 0 
L 0 3.5 
" id="m68cf5e9b61" style="stroke:#000000;stroke-width:0.8;"/>
      </defs>
      <g>
       <use style="stroke:#000000;stroke-width:0.8;" x="56.13058" xlink:href="#m68cf5e9b61" y="232.558125"/>
      </g>
     </g>
     <g id="text_13">
      <text style="font-family:DejaVu Sans;font-size:10px;font-style:normal;font-weight:normal;text-anchor:middle;" transform="rotate(-0, 56.13058, 247.156563)" x="56.13058" y="247.156563">0</text>
     </g>
    </g>
    <g id="xtick_2">
     <g id="line2d_2">
      <g>
       <use style="stroke:#000000;stroke-width:0.8;" x="109.273438" xlink:href="#m68cf5e9b61" y="232.558125"/>
      </g>
     </g>
     <g id="text_14">
      <text style="font-family:DejaVu Sans;font-size:10px;font-style:normal;font-weight:normal;text-anchor:middle;" transform="rotate(-0, 109.273438, 247.156563)" x="109.273438" y="247.156563">20</text>
     </g>
    </g>
    <g id="xtick_3">
     <g id="line2d_3">
      <g>
       <use style="stroke:#000000;stroke-width:0.8;" x="162.416295" xlink:href="#m68cf5e9b61" y="232.558125"/>
      </g>
     </g>
     <g id="text_15">
      <text style="font-family:DejaVu Sans;font-size:10px;font-style:normal;font-weight:normal;text-anchor:middle;" transform="rotate(-0, 162.416295, 247.156563)" x="162.416295" y="247.156563">40</text>
     </g>
    </g>
    <g id="xtick_4">
     <g id="line2d_4">
      <g>
       <use style="stroke:#000000;stroke-width:0.8;" x="215.559152" xlink:href="#m68cf5e9b61" y="232.558125"/>
      </g>
     </g>
     <g id="text_16">
      <text style="font-family:DejaVu Sans;font-size:10px;font-style:normal;font-weight:normal;text-anchor:middle;" transform="rotate(-0, 215.559152, 247.156563)" x="215.559152" y="247.156563">60</text>
     </g>
    </g>
    <g id="xtick_5">
     <g id="line2d_5">
      <g>
       <use style="stroke:#000000;stroke-width:0.8;" x="268.702009" xlink:href="#m68cf5e9b61" y="232.558125"/>
      </g>
     </g>
     <g id="text_17">
      <text style="font-family:DejaVu Sans;font-size:10px;font-style:normal;font-weight:normal;text-anchor:middle;" transform="rotate(-0, 268.702009, 247.156563)" x="268.702009" y="247.156563">80</text>
     </g>
    </g>
    <g id="xtick_6">
     <g id="line2d_6">
      <g>
       <use style="stroke:#000000;stroke-width:0.8;" x="321.844866" xlink:href="#m68cf5e9b61" y="232.558125"/>
      </g>
     </g>
     <g id="text_18">
      <text style="font-family:DejaVu Sans;font-size:10px;font-style:normal;font-weight:normal;text-anchor:middle;" transform="rotate(-0, 321.844866, 247.156563)" x="321.844866" y="247.156563">100</text>
     </g>
    </g>
    <g id="xtick_7">
     <g id="line2d_7">
      <g>
       <use style="stroke:#000000;stroke-width:0.8;" x="374.987723" xlink:href="#m68cf5e9b61" y="232.558125"/>
      </g>
     </g>
     <g id="text_19">
      <text style="font-family:DejaVu Sans;font-size:10px;font-style:normal;font-weight:normal;text-anchor:middle;" transform="rotate(-0, 374.987723, 247.156563)" x="374.987723" y="247.156563">120</text>
     </g>
    </g>
    <g id="text_20">
     <text style="font-family:DejaVu Sans;font-size:10px;font-style:normal;font-weight:normal;text-anchor:middle;" transform="rotate(-0, 220.873438, 260.834688)" x="220.873438" y="260.834688">Genomic Position [Mb]</text>
    </g>
   </g>
   <g id="matplotlib.axis_24">
    <g id="ytick_23"/>
    <g id="ytick_24"/>
    <g id="text_21">
     <text style="font-family:DejaVu Sans;font-size:10px;font-style:normal;font-weight:normal;" transform="translate(49.473438 211.624287)"/>
     <text style="font-family:DejaVu Sans;font-size:10px;font-style:normal;font-weight:normal;" transform="translate(38.34375 222.822099)">24   </text>
    </g>
   </g>
   <g id="patch_131">
    <path d="M 53.473438 232.558125 
L 53.473438 217.245449 
" style="fill:none;stroke:#000000;stroke-linecap:square;stroke-linejoin:miter;stroke-width:0.8;"/>
   </g>
   <g id="patch_132">
    <path d="M 388.273438 232.558125 
L 388.273438 217.245449 
" style="fill:none;stroke:#000000;stroke-linecap:square;stroke-linejoin:miter;stroke-width:0.8;"/>
   </g>
   <g id="patch_133">
    <path d="M 53.473438 232.558125 
L 388.273438 232.558125 
" style="fill:none;stroke:#000000;stroke-linecap:square;stroke-linejoin:miter;stroke-width:0.8;"/>
   </g>
   <g id="patch_134">
    <path d="M 53.473438 217.245449 
L 388.273438 217.245449 
" style="fill:none;stroke:#000000;stroke-linecap:square;stroke-linejoin:miter;stroke-width:0.8;"/>
   </g>
  </g>
 </g>
 <defs>
  <clipPath id="p3953b71014">
   <rect height="15.312676" width="334.8" x="53.473438" y="15.118125"/>
  </clipPath>
  <clipPath id="p9d24798860">
   <rect height="15.312676" width="334.8" x="53.473438" y="33.493336"/>
  </clipPath>
  <clipPath id="p579ee2d27b">
   <rect height="15.312676" width="334.8" x="53.473438" y="51.868548"/>
  </clipPath>
  <clipPath id="p0f47b1153e">
   <rect height="15.312676" width="334.8" x="53.473438" y="70.243759"/>
  </clipPath>
  <clipPath id="pe14de150c6">
   <rect height="15.312676" width="334.8" x="53.473438" y="88.61897"/>
  </clipPath>
  <clipPath id="pfc199143fe">
   <rect height="15.312676" width="334.8" x="53.473438" y="106.994181"/>
  </clipPath>
  <clipPath id="p0a24aa7d19">
   <rect height="15.312676" width="334.8" x="53.473438" y="125.369393"/>
  </clipPath>
  <clipPath id="pdbb662e556">
   <rect height="15.312676" width="334.8" x="53.473438" y="143.744604"/>
  </clipPath>
  <clipPath id="p7e72428718">
   <rect height="15.312676" width="334.8" x="53.473438" y="162.119815"/>
  </clipPath>
  <clipPath id="pda7ae73b54">
   <rect height="15.312676" width="334.8" x="53.473438" y="180.495026"/>
  </clipPath>
  <clipPath id="p64ea1bf66f">
   <rect height="15.312676" width="334.8" x="53.473438" y="198.870238"/>
  </clipPath>
  <clipPath id="p45514cee8c">
   <rect height="15.312676" width="334.8" x="53.473438" y="217.245449"/>
  </clipPath>
 </defs>
</svg>
