<?xml version="1.0" encoding="utf-8" standalone="no"?>
<!DOCTYPE svg PUBLIC "-//W3C//DTD SVG 1.1//EN"
  "http://www.w3.org/Graphics/SVG/1.1/DTD/svg11.dtd">
<!-- Created with matplotlib (https://matplotlib.org/) -->
<svg height="297.90825pt" version="1.1" viewBox="0 0 372.249687 297.90825" width="372.249687pt" xmlns="http://www.w3.org/2000/svg" xmlns:xlink="http://www.w3.org/1999/xlink">
 <defs>
  <style type="text/css">
*{stroke-linecap:butt;stroke-linejoin:round;}
  </style>
 </defs>
 <g id="figure_1">
  <g id="patch_1">
   <path d="M 0 297.90825 
L 372.249687 297.90825 
L 372.249687 0 
L 0 0 
z
" style="fill:none;"/>
  </g>
  <g id="axes_1">
   <g id="patch_2">
    <path d="M 15.129688 35.588279 
L 372.249688 35.588279 
L 372.249688 15.118125 
L 15.129688 15.118125 
z
" style="fill:none;"/>
   </g>
   <g id="patch_3">
    <path clip-path="url(#pb4381211cd)" d="M 21.941241 33.541263 
L 70.595192 33.541263 
L 70.595192 23.306187 
L 21.941241 23.306187 
z
" style="fill:#ff0000;stroke:#000000;stroke-linejoin:miter;"/>
   </g>
   <g id="patch_4">
    <path clip-path="url(#pb4381211cd)" d="M 70.595192 33.541263 
L 124.114538 33.541263 
L 124.114538 23.306187 
L 70.595192 23.306187 
z
" style="fill:#00ff00;stroke:#000000;stroke-linejoin:miter;"/>
   </g>
   <g id="patch_5">
    <path clip-path="url(#pb4381211cd)" d="M 124.114538 33.541263 
L 148.441513 33.541263 
L 148.441513 23.306187 
L 124.114538 23.306187 
z
" style="fill:#ff1ab9;stroke:#000000;stroke-linejoin:miter;"/>
   </g>
   <g id="patch_6">
    <path clip-path="url(#pb4381211cd)" d="M 148.441513 33.541263 
L 187.364674 33.541263 
L 187.364674 23.306187 
L 148.441513 23.306187 
z
" style="fill:#ffd300;stroke:#000000;stroke-linejoin:miter;"/>
   </g>
   <g id="patch_7">
    <path clip-path="url(#pb4381211cd)" d="M 187.364674 33.541263 
L 221.42244 33.541263 
L 221.42244 23.306187 
L 187.364674 23.306187 
z
" style="fill:#005800;stroke:#000000;stroke-linejoin:miter;"/>
   </g>
   <g id="patch_8">
    <path clip-path="url(#pb4381211cd)" d="M 221.42244 33.541263 
L 274.941786 33.541263 
L 274.941786 23.306187 
L 221.42244 23.306187 
z
" style="fill:#8484ff;stroke:#000000;stroke-linejoin:miter;"/>
   </g>
   <g id="patch_9">
    <path clip-path="url(#pb4381211cd)" d="M 274.941786 33.541263 
L 313.864946 33.541263 
L 313.864946 23.306187 
L 274.941786 23.306187 
z
" style="fill:#9e4f46;stroke:#000000;stroke-linejoin:miter;"/>
   </g>
   <g id="patch_10">
    <path clip-path="url(#pb4381211cd)" d="M 313.864946 33.541263 
L 372.249688 33.541263 
L 372.249688 23.306187 
L 313.864946 23.306187 
z
" style="fill:#00ffc1;stroke:#000000;stroke-linejoin:miter;"/>
   </g>
   <g id="matplotlib.axis_1"/>
   <g id="matplotlib.axis_2">
    <g id="ytick_1"/>
    <g id="ytick_2"/>
   </g>
   <g id="patch_11">
    <path d="M 15.129688 35.588279 
L 15.129688 15.118125 
" style="fill:none;stroke:#000000;stroke-linecap:square;stroke-linejoin:miter;stroke-width:0.8;"/>
   </g>
   <g id="patch_12">
    <path d="M 372.249688 35.588279 
L 372.249688 15.118125 
" style="fill:none;stroke:#000000;stroke-linecap:square;stroke-linejoin:miter;stroke-width:0.8;"/>
   </g>
   <g id="patch_13">
    <path d="M 15.129688 35.588279 
L 372.249688 35.588279 
" style="fill:none;stroke:#000000;stroke-linecap:square;stroke-linejoin:miter;stroke-width:0.8;"/>
   </g>
   <g id="patch_14">
    <path d="M 15.129688 15.118125 
L 372.249688 15.118125 
" style="fill:none;stroke:#000000;stroke-linecap:square;stroke-linejoin:miter;stroke-width:0.8;"/>
   </g>
   <g id="text_1">
    <text style="font-family:DejaVu Sans;font-size:12px;font-style:normal;font-weight:normal;text-anchor:middle;" transform="rotate(-0, 193.689688, 9.118125)" x="193.689688" y="9.118125">Chr 2</text>
   </g>
  </g>
  <g id="axes_2">
   <g id="patch_15">
    <path d="M 15.129688 60.152463 
L 372.249688 60.152463 
L 372.249688 39.68231 
L 15.129688 39.68231 
z
" style="fill:none;"/>
   </g>
   <g id="patch_16">
    <path clip-path="url(#pc76c4f7dc9)" d="M 26.806636 58.105448 
L 60.864401 58.105448 
L 60.864401 47.870371 
L 26.806636 47.870371 
z
" style="fill:#ff0000;stroke:#000000;stroke-linejoin:miter;"/>
   </g>
   <g id="patch_17">
    <path clip-path="url(#pc76c4f7dc9)" d="M 60.864401 58.105448 
L 85.191377 58.105448 
L 85.191377 47.870371 
L 60.864401 47.870371 
z
" style="fill:#00ff00;stroke:#000000;stroke-linejoin:miter;"/>
   </g>
   <g id="patch_18">
    <path clip-path="url(#pc76c4f7dc9)" d="M 85.191377 58.105448 
L 143.576118 58.105448 
L 143.576118 47.870371 
L 85.191377 47.870371 
z
" style="fill:#ff1ab9;stroke:#000000;stroke-linejoin:miter;"/>
   </g>
   <g id="patch_19">
    <path clip-path="url(#pc76c4f7dc9)" d="M 143.576118 58.105448 
L 163.037698 58.105448 
L 163.037698 47.870371 
L 143.576118 47.870371 
z
" style="fill:#ffd300;stroke:#000000;stroke-linejoin:miter;"/>
   </g>
   <g id="patch_20">
    <path clip-path="url(#pc76c4f7dc9)" d="M 163.037698 58.105448 
L 192.230069 58.105448 
L 192.230069 47.870371 
L 163.037698 47.870371 
z
" style="fill:#005800;stroke:#000000;stroke-linejoin:miter;"/>
   </g>
   <g id="patch_21">
    <path clip-path="url(#pc76c4f7dc9)" d="M 192.230069 58.105448 
L 216.557044 58.105448 
L 216.557044 47.870371 
L 192.230069 47.870371 
z
" style="fill:#8484ff;stroke:#000000;stroke-linejoin:miter;"/>
   </g>
   <g id="patch_22">
    <path clip-path="url(#pc76c4f7dc9)" d="M 216.557044 58.105448 
L 250.61481 58.105448 
L 250.61481 47.870371 
L 216.557044 47.870371 
z
" style="fill:#9e4f46;stroke:#000000;stroke-linejoin:miter;"/>
   </g>
   <g id="patch_23">
    <path clip-path="url(#pc76c4f7dc9)" d="M 250.61481 58.105448 
L 299.268761 58.105448 
L 299.268761 47.870371 
L 250.61481 47.870371 
z
" style="fill:#00ffc1;stroke:#000000;stroke-linejoin:miter;"/>
   </g>
   <g id="patch_24">
    <path clip-path="url(#pc76c4f7dc9)" d="M 299.268761 58.105448 
L 338.191922 58.105448 
L 338.191922 47.870371 
L 299.268761 47.870371 
z
" style="fill:#008495;stroke:#000000;stroke-linejoin:miter;"/>
   </g>
   <g id="patch_25">
    <path clip-path="url(#pc76c4f7dc9)" d="M 338.191922 58.105448 
L 372.249688 58.105448 
L 372.249688 47.870371 
L 338.191922 47.870371 
z
" style="fill:#00007b;stroke:#000000;stroke-linejoin:miter;"/>
   </g>
   <g id="matplotlib.axis_3"/>
   <g id="matplotlib.axis_4">
    <g id="ytick_3"/>
    <g id="ytick_4"/>
    <g id="text_2">
     <text style="font-family:DejaVu Sans;font-size:10px;font-style:normal;font-weight:normal;" transform="translate(11.129688 36.639887)"/>
     <text style="font-family:DejaVu Sans;font-size:10px;font-style:normal;font-weight:normal;" transform="translate(3.18125 47.837699)">2   </text>
    </g>
   </g>
   <g id="patch_26">
    <path d="M 15.129688 60.152463 
L 15.129688 39.68231 
" style="fill:none;stroke:#000000;stroke-linecap:square;stroke-linejoin:miter;stroke-width:0.8;"/>
   </g>
   <g id="patch_27">
    <path d="M 372.249688 60.152463 
L 372.249688 39.68231 
" style="fill:none;stroke:#000000;stroke-linecap:square;stroke-linejoin:miter;stroke-width:0.8;"/>
   </g>
   <g id="patch_28">
    <path d="M 15.129688 60.152463 
L 372.249688 60.152463 
" style="fill:none;stroke:#000000;stroke-linecap:square;stroke-linejoin:miter;stroke-width:0.8;"/>
   </g>
   <g id="patch_29">
    <path d="M 15.129688 39.68231 
L 372.249688 39.68231 
" style="fill:none;stroke:#000000;stroke-linecap:square;stroke-linejoin:miter;stroke-width:0.8;"/>
   </g>
  </g>
  <g id="axes_3">
   <g id="patch_30">
    <path d="M 15.129688 84.716648 
L 372.249688 84.716648 
L 372.249688 64.246494 
L 15.129688 64.246494 
z
" style="fill:none;"/>
   </g>
   <g id="patch_31">
    <path clip-path="url(#p276066b567)" d="M 21.941241 82.669633 
L 55.999006 82.669633 
L 55.999006 72.434556 
L 21.941241 72.434556 
z
" style="fill:#ff0000;stroke:#000000;stroke-linejoin:miter;"/>
   </g>
   <g id="patch_32">
    <path clip-path="url(#p276066b567)" d="M 55.999006 82.669633 
L 80.325982 82.669633 
L 80.325982 72.434556 
L 55.999006 72.434556 
z
" style="fill:#00ff00;stroke:#000000;stroke-linejoin:miter;"/>
   </g>
   <g id="patch_33">
    <path clip-path="url(#p276066b567)" d="M 80.325982 82.669633 
L 153.306908 82.669633 
L 153.306908 72.434556 
L 80.325982 72.434556 
z
" style="fill:#ff1ab9;stroke:#000000;stroke-linejoin:miter;"/>
   </g>
   <g id="patch_34">
    <path clip-path="url(#p276066b567)" d="M 153.306908 82.669633 
L 206.826254 82.669633 
L 206.826254 72.434556 
L 153.306908 72.434556 
z
" style="fill:#ffd300;stroke:#000000;stroke-linejoin:miter;"/>
   </g>
   <g id="patch_35">
    <path clip-path="url(#p276066b567)" d="M 206.826254 82.669633 
L 284.672576 82.669633 
L 284.672576 72.434556 
L 206.826254 72.434556 
z
" style="fill:#005800;stroke:#000000;stroke-linejoin:miter;"/>
   </g>
   <g id="patch_36">
    <path clip-path="url(#p276066b567)" d="M 284.672576 82.669633 
L 323.595737 82.669633 
L 323.595737 72.434556 
L 284.672576 72.434556 
z
" style="fill:#8484ff;stroke:#000000;stroke-linejoin:miter;"/>
   </g>
   <g id="patch_37">
    <path clip-path="url(#p276066b567)" d="M 323.595737 82.669633 
L 372.249688 82.669633 
L 372.249688 72.434556 
L 323.595737 72.434556 
z
" style="fill:#9e4f46;stroke:#000000;stroke-linejoin:miter;"/>
   </g>
   <g id="matplotlib.axis_5"/>
   <g id="matplotlib.axis_6">
    <g id="ytick_5"/>
    <g id="ytick_6"/>
    <g id="text_3">
     <text style="font-family:DejaVu Sans;font-size:10px;font-style:normal;font-weight:normal;" transform="translate(11.129688 61.204071)"/>
     <text style="font-family:DejaVu Sans;font-size:10px;font-style:normal;font-weight:normal;" transform="translate(3.18125 72.401884)">3   </text>
    </g>
   </g>
   <g id="patch_38">
    <path d="M 15.129688 84.716648 
L 15.129688 64.246494 
" style="fill:none;stroke:#000000;stroke-linecap:square;stroke-linejoin:miter;stroke-width:0.8;"/>
   </g>
   <g id="patch_39">
    <path d="M 372.249688 84.716648 
L 372.249688 64.246494 
" style="fill:none;stroke:#000000;stroke-linecap:square;stroke-linejoin:miter;stroke-width:0.8;"/>
   </g>
   <g id="patch_40">
    <path d="M 15.129688 84.716648 
L 372.249688 84.716648 
" style="fill:none;stroke:#000000;stroke-linecap:square;stroke-linejoin:miter;stroke-width:0.8;"/>
   </g>
   <g id="patch_41">
    <path d="M 15.129688 64.246494 
L 372.249688 64.246494 
" style="fill:none;stroke:#000000;stroke-linecap:square;stroke-linejoin:miter;stroke-width:0.8;"/>
   </g>
  </g>
  <g id="axes_4">
   <g id="patch_42">
    <path d="M 15.129688 109.280833 
L 372.249688 109.280833 
L 372.249688 88.810679 
L 15.129688 88.810679 
z
" style="fill:none;"/>
   </g>
   <g id="patch_43">
    <path clip-path="url(#pb5540243fe)" d="M 21.941241 107.233817 
L 46.268216 107.233817 
L 46.268216 96.99874 
L 21.941241 96.99874 
z
" style="fill:#ff0000;stroke:#000000;stroke-linejoin:miter;"/>
   </g>
   <g id="patch_44">
    <path clip-path="url(#pb5540243fe)" d="M 46.268216 107.233817 
L 90.056772 107.233817 
L 90.056772 96.99874 
L 46.268216 96.99874 
z
" style="fill:#00ff00;stroke:#000000;stroke-linejoin:miter;"/>
   </g>
   <g id="patch_45">
    <path clip-path="url(#pb5540243fe)" d="M 90.056772 107.233817 
L 163.037698 107.233817 
L 163.037698 96.99874 
L 90.056772 96.99874 
z
" style="fill:#ff1ab9;stroke:#000000;stroke-linejoin:miter;"/>
   </g>
   <g id="patch_46">
    <path clip-path="url(#pb5540243fe)" d="M 163.037698 107.233817 
L 187.364674 107.233817 
L 187.364674 96.99874 
L 163.037698 96.99874 
z
" style="fill:#ffd300;stroke:#000000;stroke-linejoin:miter;"/>
   </g>
   <g id="patch_47">
    <path clip-path="url(#pb5540243fe)" d="M 187.364674 107.233817 
L 211.691649 107.233817 
L 211.691649 96.99874 
L 187.364674 96.99874 
z
" style="fill:#005800;stroke:#000000;stroke-linejoin:miter;"/>
   </g>
   <g id="patch_48">
    <path clip-path="url(#pb5540243fe)" d="M 211.691649 107.233817 
L 250.61481 107.233817 
L 250.61481 96.99874 
L 211.691649 96.99874 
z
" style="fill:#8484ff;stroke:#000000;stroke-linejoin:miter;"/>
   </g>
   <g id="patch_49">
    <path clip-path="url(#pb5540243fe)" d="M 250.61481 107.233817 
L 304.134156 107.233817 
L 304.134156 96.99874 
L 250.61481 96.99874 
z
" style="fill:#9e4f46;stroke:#000000;stroke-linejoin:miter;"/>
   </g>
   <g id="patch_50">
    <path clip-path="url(#pb5540243fe)" d="M 304.134156 107.233817 
L 318.730341 107.233817 
L 318.730341 96.99874 
L 304.134156 96.99874 
z
" style="fill:#00ffc1;stroke:#000000;stroke-linejoin:miter;"/>
   </g>
   <g id="patch_51">
    <path clip-path="url(#pb5540243fe)" d="M 318.730341 107.233817 
L 352.788107 107.233817 
L 352.788107 96.99874 
L 318.730341 96.99874 
z
" style="fill:#008495;stroke:#000000;stroke-linejoin:miter;"/>
   </g>
   <g id="patch_52">
    <path clip-path="url(#pb5540243fe)" d="M 352.788107 107.233817 
L 372.249688 107.233817 
L 372.249688 96.99874 
L 352.788107 96.99874 
z
" style="fill:#00007b;stroke:#000000;stroke-linejoin:miter;"/>
   </g>
   <g id="matplotlib.axis_7"/>
   <g id="matplotlib.axis_8">
    <g id="ytick_7"/>
    <g id="ytick_8"/>
    <g id="text_4">
     <text style="font-family:DejaVu Sans;font-size:10px;font-style:normal;font-weight:normal;" transform="translate(11.129688 85.768256)"/>
     <text style="font-family:DejaVu Sans;font-size:10px;font-style:normal;font-weight:normal;" transform="translate(3.18125 96.966068)">4   </text>
    </g>
   </g>
   <g id="patch_53">
    <path d="M 15.129688 109.280833 
L 15.129688 88.810679 
" style="fill:none;stroke:#000000;stroke-linecap:square;stroke-linejoin:miter;stroke-width:0.8;"/>
   </g>
   <g id="patch_54">
    <path d="M 372.249688 109.280833 
L 372.249688 88.810679 
" style="fill:none;stroke:#000000;stroke-linecap:square;stroke-linejoin:miter;stroke-width:0.8;"/>
   </g>
   <g id="patch_55">
    <path d="M 15.129688 109.280833 
L 372.249688 109.280833 
" style="fill:none;stroke:#000000;stroke-linecap:square;stroke-linejoin:miter;stroke-width:0.8;"/>
   </g>
   <g id="patch_56">
    <path d="M 15.129688 88.810679 
L 372.249688 88.810679 
" style="fill:none;stroke:#000000;stroke-linecap:square;stroke-linejoin:miter;stroke-width:0.8;"/>
   </g>
  </g>
  <g id="axes_5">
   <g id="patch_57">
    <path d="M 15.129688 133.845017 
L 372.249688 133.845017 
L 372.249688 113.374863 
L 15.129688 113.374863 
z
" style="fill:none;"/>
   </g>
   <g id="patch_58">
    <path clip-path="url(#p5037f24961)" d="M 21.941241 131.798002 
L 41.402821 131.798002 
L 41.402821 121.562925 
L 21.941241 121.562925 
z
" style="fill:#ff0000;stroke:#000000;stroke-linejoin:miter;"/>
   </g>
   <g id="patch_59">
    <path clip-path="url(#p5037f24961)" d="M 41.402821 131.798002 
L 75.460587 131.798002 
L 75.460587 121.562925 
L 41.402821 121.562925 
z
" style="fill:#00ff00;stroke:#000000;stroke-linejoin:miter;"/>
   </g>
   <g id="patch_60">
    <path clip-path="url(#p5037f24961)" d="M 75.460587 131.798002 
L 104.652957 131.798002 
L 104.652957 121.562925 
L 75.460587 121.562925 
z
" style="fill:#ff1ab9;stroke:#000000;stroke-linejoin:miter;"/>
   </g>
   <g id="patch_61">
    <path clip-path="url(#p5037f24961)" d="M 104.652957 131.798002 
L 167.903093 131.798002 
L 167.903093 121.562925 
L 104.652957 121.562925 
z
" style="fill:#ffd300;stroke:#000000;stroke-linejoin:miter;"/>
   </g>
   <g id="patch_62">
    <path clip-path="url(#p5037f24961)" d="M 167.903093 131.798002 
L 192.230069 131.798002 
L 192.230069 121.562925 
L 167.903093 121.562925 
z
" style="fill:#005800;stroke:#000000;stroke-linejoin:miter;"/>
   </g>
   <g id="patch_63">
    <path clip-path="url(#p5037f24961)" d="M 192.230069 131.798002 
L 221.42244 131.798002 
L 221.42244 121.562925 
L 192.230069 121.562925 
z
" style="fill:#8484ff;stroke:#000000;stroke-linejoin:miter;"/>
   </g>
   <g id="patch_64">
    <path clip-path="url(#p5037f24961)" d="M 221.42244 131.798002 
L 245.749415 131.798002 
L 245.749415 121.562925 
L 221.42244 121.562925 
z
" style="fill:#9e4f46;stroke:#000000;stroke-linejoin:miter;"/>
   </g>
   <g id="patch_65">
    <path clip-path="url(#p5037f24961)" d="M 245.749415 131.798002 
L 279.807181 131.798002 
L 279.807181 121.562925 
L 245.749415 121.562925 
z
" style="fill:#00ffc1;stroke:#000000;stroke-linejoin:miter;"/>
   </g>
   <g id="patch_66">
    <path clip-path="url(#p5037f24961)" d="M 279.807181 131.798002 
L 347.922712 131.798002 
L 347.922712 121.562925 
L 279.807181 121.562925 
z
" style="fill:#008495;stroke:#000000;stroke-linejoin:miter;"/>
   </g>
   <g id="patch_67">
    <path clip-path="url(#p5037f24961)" d="M 347.922712 131.798002 
L 372.249688 131.798002 
L 372.249688 121.562925 
L 347.922712 121.562925 
z
" style="fill:#00007b;stroke:#000000;stroke-linejoin:miter;"/>
   </g>
   <g id="matplotlib.axis_9"/>
   <g id="matplotlib.axis_10">
    <g id="ytick_9"/>
    <g id="ytick_10"/>
    <g id="text_5">
     <text style="font-family:DejaVu Sans;font-size:10px;font-style:normal;font-weight:normal;" transform="translate(11.129688 110.33244)"/>
     <text style="font-family:DejaVu Sans;font-size:10px;font-style:normal;font-weight:normal;" transform="translate(3.18125 121.530253)">5   </text>
    </g>
   </g>
   <g id="patch_68">
    <path d="M 15.129688 133.845017 
L 15.129688 113.374863 
" style="fill:none;stroke:#000000;stroke-linecap:square;stroke-linejoin:miter;stroke-width:0.8;"/>
   </g>
   <g id="patch_69">
    <path d="M 372.249688 133.845017 
L 372.249688 113.374863 
" style="fill:none;stroke:#000000;stroke-linecap:square;stroke-linejoin:miter;stroke-width:0.8;"/>
   </g>
   <g id="patch_70">
    <path d="M 15.129688 133.845017 
L 372.249688 133.845017 
" style="fill:none;stroke:#000000;stroke-linecap:square;stroke-linejoin:miter;stroke-width:0.8;"/>
   </g>
   <g id="patch_71">
    <path d="M 15.129688 113.374863 
L 372.249688 113.374863 
" style="fill:none;stroke:#000000;stroke-linecap:square;stroke-linejoin:miter;stroke-width:0.8;"/>
   </g>
  </g>
  <g id="axes_6">
   <g id="patch_72">
    <path d="M 15.129688 158.409202 
L 372.249688 158.409202 
L 372.249688 137.939048 
L 15.129688 137.939048 
z
" style="fill:none;"/>
   </g>
   <g id="patch_73">
    <path clip-path="url(#pcdef06cee0)" d="M 21.941241 156.362187 
L 65.729796 156.362187 
L 65.729796 146.12711 
L 21.941241 146.12711 
z
" style="fill:#ff0000;stroke:#000000;stroke-linejoin:miter;"/>
   </g>
   <g id="patch_74">
    <path clip-path="url(#pcdef06cee0)" d="M 65.729796 156.362187 
L 114.383747 156.362187 
L 114.383747 146.12711 
L 65.729796 146.12711 
z
" style="fill:#00ff00;stroke:#000000;stroke-linejoin:miter;"/>
   </g>
   <g id="patch_75">
    <path clip-path="url(#pcdef06cee0)" d="M 114.383747 156.362187 
L 167.903093 156.362187 
L 167.903093 146.12711 
L 114.383747 146.12711 
z
" style="fill:#ff1ab9;stroke:#000000;stroke-linejoin:miter;"/>
   </g>
   <g id="patch_76">
    <path clip-path="url(#pcdef06cee0)" d="M 167.903093 156.362187 
L 255.480205 156.362187 
L 255.480205 146.12711 
L 167.903093 146.12711 
z
" style="fill:#ffd300;stroke:#000000;stroke-linejoin:miter;"/>
   </g>
   <g id="patch_77">
    <path clip-path="url(#pcdef06cee0)" d="M 255.480205 156.362187 
L 328.461132 156.362187 
L 328.461132 146.12711 
L 255.480205 146.12711 
z
" style="fill:#005800;stroke:#000000;stroke-linejoin:miter;"/>
   </g>
   <g id="patch_78">
    <path clip-path="url(#pcdef06cee0)" d="M 328.461132 156.362187 
L 372.249688 156.362187 
L 372.249688 146.12711 
L 328.461132 146.12711 
z
" style="fill:#8484ff;stroke:#000000;stroke-linejoin:miter;"/>
   </g>
   <g id="matplotlib.axis_11"/>
   <g id="matplotlib.axis_12">
    <g id="ytick_11"/>
    <g id="ytick_12"/>
    <g id="text_6">
     <text style="font-family:DejaVu Sans;font-size:10px;font-style:normal;font-weight:normal;" transform="translate(11.129688 134.896625)"/>
     <text style="font-family:DejaVu Sans;font-size:10px;font-style:normal;font-weight:normal;" transform="translate(3.18125 146.094437)">6   </text>
    </g>
   </g>
   <g id="patch_79">
    <path d="M 15.129688 158.409202 
L 15.129688 137.939048 
" style="fill:none;stroke:#000000;stroke-linecap:square;stroke-linejoin:miter;stroke-width:0.8;"/>
   </g>
   <g id="patch_80">
    <path d="M 372.249688 158.409202 
L 372.249688 137.939048 
" style="fill:none;stroke:#000000;stroke-linecap:square;stroke-linejoin:miter;stroke-width:0.8;"/>
   </g>
   <g id="patch_81">
    <path d="M 15.129688 158.409202 
L 372.249688 158.409202 
" style="fill:none;stroke:#000000;stroke-linecap:square;stroke-linejoin:miter;stroke-width:0.8;"/>
   </g>
   <g id="patch_82">
    <path d="M 15.129688 137.939048 
L 372.249688 137.939048 
" style="fill:none;stroke:#000000;stroke-linecap:square;stroke-linejoin:miter;stroke-width:0.8;"/>
   </g>
  </g>
  <g id="axes_7">
   <g id="patch_83">
    <path d="M 15.129688 182.973387 
L 372.249688 182.973387 
L 372.249688 162.503233 
L 15.129688 162.503233 
z
" style="fill:none;"/>
   </g>
   <g id="patch_84">
    <path clip-path="url(#pdda904e5df)" d="M 21.941241 180.926371 
L 51.133611 180.926371 
L 51.133611 170.691294 
L 21.941241 170.691294 
z
" style="fill:#ff0000;stroke:#000000;stroke-linejoin:miter;"/>
   </g>
   <g id="patch_85">
    <path clip-path="url(#pdda904e5df)" d="M 51.133611 180.926371 
L 70.595192 180.926371 
L 70.595192 170.691294 
L 51.133611 170.691294 
z
" style="fill:#00ff00;stroke:#000000;stroke-linejoin:miter;"/>
   </g>
   <g id="patch_86">
    <path clip-path="url(#pdda904e5df)" d="M 70.595192 180.926371 
L 119.249143 180.926371 
L 119.249143 170.691294 
L 70.595192 170.691294 
z
" style="fill:#ff1ab9;stroke:#000000;stroke-linejoin:miter;"/>
   </g>
   <g id="patch_87">
    <path clip-path="url(#pdda904e5df)" d="M 119.249143 180.926371 
L 172.768489 180.926371 
L 172.768489 170.691294 
L 119.249143 170.691294 
z
" style="fill:#ffd300;stroke:#000000;stroke-linejoin:miter;"/>
   </g>
   <g id="patch_88">
    <path clip-path="url(#pdda904e5df)" d="M 172.768489 180.926371 
L 206.826254 180.926371 
L 206.826254 170.691294 
L 172.768489 170.691294 
z
" style="fill:#005800;stroke:#000000;stroke-linejoin:miter;"/>
   </g>
   <g id="patch_89">
    <path clip-path="url(#pdda904e5df)" d="M 206.826254 180.926371 
L 240.88402 180.926371 
L 240.88402 170.691294 
L 206.826254 170.691294 
z
" style="fill:#8484ff;stroke:#000000;stroke-linejoin:miter;"/>
   </g>
   <g id="patch_90">
    <path clip-path="url(#pdda904e5df)" d="M 240.88402 180.926371 
L 270.07639 180.926371 
L 270.07639 170.691294 
L 240.88402 170.691294 
z
" style="fill:#9e4f46;stroke:#000000;stroke-linejoin:miter;"/>
   </g>
   <g id="patch_91">
    <path clip-path="url(#pdda904e5df)" d="M 270.07639 180.926371 
L 323.595737 180.926371 
L 323.595737 170.691294 
L 270.07639 170.691294 
z
" style="fill:#00ffc1;stroke:#000000;stroke-linejoin:miter;"/>
   </g>
   <g id="patch_92">
    <path clip-path="url(#pdda904e5df)" d="M 323.595737 180.926371 
L 352.788107 180.926371 
L 352.788107 170.691294 
L 323.595737 170.691294 
z
" style="fill:#008495;stroke:#000000;stroke-linejoin:miter;"/>
   </g>
   <g id="patch_93">
    <path clip-path="url(#pdda904e5df)" d="M 352.788107 180.926371 
L 372.249688 180.926371 
L 372.249688 170.691294 
L 352.788107 170.691294 
z
" style="fill:#00007b;stroke:#000000;stroke-linejoin:miter;"/>
   </g>
   <g id="matplotlib.axis_13"/>
   <g id="matplotlib.axis_14">
    <g id="ytick_13"/>
    <g id="ytick_14"/>
    <g id="text_7">
     <text style="font-family:DejaVu Sans;font-size:10px;font-style:normal;font-weight:normal;" transform="translate(11.129688 159.46081)"/>
     <text style="font-family:DejaVu Sans;font-size:10px;font-style:normal;font-weight:normal;" transform="translate(3.18125 170.658622)">7   </text>
    </g>
   </g>
   <g id="patch_94">
    <path d="M 15.129688 182.973387 
L 15.129688 162.503233 
" style="fill:none;stroke:#000000;stroke-linecap:square;stroke-linejoin:miter;stroke-width:0.8;"/>
   </g>
   <g id="patch_95">
    <path d="M 372.249688 182.973387 
L 372.249688 162.503233 
" style="fill:none;stroke:#000000;stroke-linecap:square;stroke-linejoin:miter;stroke-width:0.8;"/>
   </g>
   <g id="patch_96">
    <path d="M 15.129688 182.973387 
L 372.249688 182.973387 
" style="fill:none;stroke:#000000;stroke-linecap:square;stroke-linejoin:miter;stroke-width:0.8;"/>
   </g>
   <g id="patch_97">
    <path d="M 15.129688 162.503233 
L 372.249688 162.503233 
" style="fill:none;stroke:#000000;stroke-linecap:square;stroke-linejoin:miter;stroke-width:0.8;"/>
   </g>
  </g>
  <g id="axes_8">
   <g id="patch_98">
    <path d="M 15.129688 207.537571 
L 372.249688 207.537571 
L 372.249688 187.067417 
L 15.129688 187.067417 
z
" style="fill:none;"/>
   </g>
   <g id="patch_99">
    <path clip-path="url(#p410bca43dd)" d="M 21.941241 205.490556 
L 41.402821 205.490556 
L 41.402821 195.255479 
L 21.941241 195.255479 
z
" style="fill:#ff0000;stroke:#000000;stroke-linejoin:miter;"/>
   </g>
   <g id="patch_100">
    <path clip-path="url(#p410bca43dd)" d="M 41.402821 205.490556 
L 99.787562 205.490556 
L 99.787562 195.255479 
L 41.402821 195.255479 
z
" style="fill:#00ff00;stroke:#000000;stroke-linejoin:miter;"/>
   </g>
   <g id="patch_101">
    <path clip-path="url(#p410bca43dd)" d="M 99.787562 205.490556 
L 206.826254 205.490556 
L 206.826254 195.255479 
L 99.787562 195.255479 
z
" style="fill:#ff1ab9;stroke:#000000;stroke-linejoin:miter;"/>
   </g>
   <g id="patch_102">
    <path clip-path="url(#p410bca43dd)" d="M 206.826254 205.490556 
L 265.210995 205.490556 
L 265.210995 195.255479 
L 206.826254 195.255479 
z
" style="fill:#ffd300;stroke:#000000;stroke-linejoin:miter;"/>
   </g>
   <g id="patch_103">
    <path clip-path="url(#p410bca43dd)" d="M 265.210995 205.490556 
L 299.268761 205.490556 
L 299.268761 195.255479 
L 265.210995 195.255479 
z
" style="fill:#005800;stroke:#000000;stroke-linejoin:miter;"/>
   </g>
   <g id="patch_104">
    <path clip-path="url(#p410bca43dd)" d="M 299.268761 205.490556 
L 333.326527 205.490556 
L 333.326527 195.255479 
L 299.268761 195.255479 
z
" style="fill:#8484ff;stroke:#000000;stroke-linejoin:miter;"/>
   </g>
   <g id="patch_105">
    <path clip-path="url(#p410bca43dd)" d="M 333.326527 205.490556 
L 372.249688 205.490556 
L 372.249688 195.255479 
L 333.326527 195.255479 
z
" style="fill:#9e4f46;stroke:#000000;stroke-linejoin:miter;"/>
   </g>
   <g id="matplotlib.axis_15"/>
   <g id="matplotlib.axis_16">
    <g id="ytick_15"/>
    <g id="ytick_16"/>
    <g id="text_8">
     <text style="font-family:DejaVu Sans;font-size:10px;font-style:normal;font-weight:normal;" transform="translate(11.129688 184.024994)"/>
     <text style="font-family:DejaVu Sans;font-size:10px;font-style:normal;font-weight:normal;" transform="translate(3.18125 195.222807)">8   </text>
    </g>
   </g>
   <g id="patch_106">
    <path d="M 15.129688 207.537571 
L 15.129688 187.067417 
" style="fill:none;stroke:#000000;stroke-linecap:square;stroke-linejoin:miter;stroke-width:0.8;"/>
   </g>
   <g id="patch_107">
    <path d="M 372.249688 207.537571 
L 372.249688 187.067417 
" style="fill:none;stroke:#000000;stroke-linecap:square;stroke-linejoin:miter;stroke-width:0.8;"/>
   </g>
   <g id="patch_108">
    <path d="M 15.129688 207.537571 
L 372.249688 207.537571 
" style="fill:none;stroke:#000000;stroke-linecap:square;stroke-linejoin:miter;stroke-width:0.8;"/>
   </g>
   <g id="patch_109">
    <path d="M 15.129688 187.067417 
L 372.249688 187.067417 
" style="fill:none;stroke:#000000;stroke-linecap:square;stroke-linejoin:miter;stroke-width:0.8;"/>
   </g>
  </g>
  <g id="axes_9">
   <g id="patch_110">
    <path d="M 15.129688 232.101756 
L 372.249688 232.101756 
L 372.249688 211.631602 
L 15.129688 211.631602 
z
" style="fill:none;"/>
   </g>
   <g id="patch_111">
    <path clip-path="url(#pa557e4925f)" d="M 21.941241 230.05474 
L 55.999006 230.05474 
L 55.999006 219.819663 
L 21.941241 219.819663 
z
" style="fill:#ff0000;stroke:#000000;stroke-linejoin:miter;"/>
   </g>
   <g id="patch_112">
    <path clip-path="url(#pa557e4925f)" d="M 55.999006 230.05474 
L 75.460587 230.05474 
L 75.460587 219.819663 
L 55.999006 219.819663 
z
" style="fill:#00ff00;stroke:#000000;stroke-linejoin:miter;"/>
   </g>
   <g id="patch_113">
    <path clip-path="url(#pa557e4925f)" d="M 75.460587 230.05474 
L 109.518352 230.05474 
L 109.518352 219.819663 
L 75.460587 219.819663 
z
" style="fill:#ff1ab9;stroke:#000000;stroke-linejoin:miter;"/>
   </g>
   <g id="patch_114">
    <path clip-path="url(#pa557e4925f)" d="M 109.518352 230.05474 
L 153.306908 230.05474 
L 153.306908 219.819663 
L 109.518352 219.819663 
z
" style="fill:#ffd300;stroke:#000000;stroke-linejoin:miter;"/>
   </g>
   <g id="patch_115">
    <path clip-path="url(#pa557e4925f)" d="M 153.306908 230.05474 
L 211.691649 230.05474 
L 211.691649 219.819663 
L 153.306908 219.819663 
z
" style="fill:#005800;stroke:#000000;stroke-linejoin:miter;"/>
   </g>
   <g id="patch_116">
    <path clip-path="url(#pa557e4925f)" d="M 211.691649 230.05474 
L 260.3456 230.05474 
L 260.3456 219.819663 
L 211.691649 219.819663 
z
" style="fill:#8484ff;stroke:#000000;stroke-linejoin:miter;"/>
   </g>
   <g id="patch_117">
    <path clip-path="url(#pa557e4925f)" d="M 260.3456 230.05474 
L 299.268761 230.05474 
L 299.268761 219.819663 
L 260.3456 219.819663 
z
" style="fill:#9e4f46;stroke:#000000;stroke-linejoin:miter;"/>
   </g>
   <g id="patch_118">
    <path clip-path="url(#pa557e4925f)" d="M 299.268761 230.05474 
L 318.730341 230.05474 
L 318.730341 219.819663 
L 299.268761 219.819663 
z
" style="fill:#00ffc1;stroke:#000000;stroke-linejoin:miter;"/>
   </g>
   <g id="patch_119">
    <path clip-path="url(#pa557e4925f)" d="M 318.730341 230.05474 
L 343.057317 230.05474 
L 343.057317 219.819663 
L 318.730341 219.819663 
z
" style="fill:#008495;stroke:#000000;stroke-linejoin:miter;"/>
   </g>
   <g id="patch_120">
    <path clip-path="url(#pa557e4925f)" d="M 343.057317 230.05474 
L 372.249688 230.05474 
L 372.249688 219.819663 
L 343.057317 219.819663 
z
" style="fill:#00007b;stroke:#000000;stroke-linejoin:miter;"/>
   </g>
   <g id="matplotlib.axis_17"/>
   <g id="matplotlib.axis_18">
    <g id="ytick_17"/>
    <g id="ytick_18"/>
    <g id="text_9">
     <text style="font-family:DejaVu Sans;font-size:10px;font-style:normal;font-weight:normal;" transform="translate(11.129688 208.589179)"/>
     <text style="font-family:DejaVu Sans;font-size:10px;font-style:normal;font-weight:normal;" transform="translate(3.18125 219.786991)">9   </text>
    </g>
   </g>
   <g id="patch_121">
    <path d="M 15.129688 232.101756 
L 15.129688 211.631602 
" style="fill:none;stroke:#000000;stroke-linecap:square;stroke-linejoin:miter;stroke-width:0.8;"/>
   </g>
   <g id="patch_122">
    <path d="M 372.249688 232.101756 
L 372.249688 211.631602 
" style="fill:none;stroke:#000000;stroke-linecap:square;stroke-linejoin:miter;stroke-width:0.8;"/>
   </g>
   <g id="patch_123">
    <path d="M 15.129688 232.101756 
L 372.249688 232.101756 
" style="fill:none;stroke:#000000;stroke-linecap:square;stroke-linejoin:miter;stroke-width:0.8;"/>
   </g>
   <g id="patch_124">
    <path d="M 15.129688 211.631602 
L 372.249688 211.631602 
" style="fill:none;stroke:#000000;stroke-linecap:square;stroke-linejoin:miter;stroke-width:0.8;"/>
   </g>
  </g>
  <g id="axes_10">
   <g id="patch_125">
    <path d="M 15.129688 256.66594 
L 372.249688 256.66594 
L 372.249688 236.195787 
L 15.129688 236.195787 
z
" style="fill:none;"/>
   </g>
   <g id="patch_126">
    <path clip-path="url(#p55dd8a7c8b)" d="M 21.941241 254.618925 
L 70.595192 254.618925 
L 70.595192 244.383848 
L 21.941241 244.383848 
z
" style="fill:#ff0000;stroke:#000000;stroke-linejoin:miter;"/>
   </g>
   <g id="patch_127">
    <path clip-path="url(#p55dd8a7c8b)" d="M 70.595192 254.618925 
L 148.441513 254.618925 
L 148.441513 244.383848 
L 70.595192 244.383848 
z
" style="fill:#00ff00;stroke:#000000;stroke-linejoin:miter;"/>
   </g>
   <g id="patch_128">
    <path clip-path="url(#p55dd8a7c8b)" d="M 148.441513 254.618925 
L 197.095464 254.618925 
L 197.095464 244.383848 
L 148.441513 244.383848 
z
" style="fill:#ff1ab9;stroke:#000000;stroke-linejoin:miter;"/>
   </g>
   <g id="patch_129">
    <path clip-path="url(#p55dd8a7c8b)" d="M 197.095464 254.618925 
L 250.61481 254.618925 
L 250.61481 244.383848 
L 197.095464 244.383848 
z
" style="fill:#ffd300;stroke:#000000;stroke-linejoin:miter;"/>
   </g>
   <g id="patch_130">
    <path clip-path="url(#p55dd8a7c8b)" d="M 250.61481 254.618925 
L 274.941786 254.618925 
L 274.941786 244.383848 
L 250.61481 244.383848 
z
" style="fill:#005800;stroke:#000000;stroke-linejoin:miter;"/>
   </g>
   <g id="patch_131">
    <path clip-path="url(#p55dd8a7c8b)" d="M 274.941786 254.618925 
L 313.864946 254.618925 
L 313.864946 244.383848 
L 274.941786 244.383848 
z
" style="fill:#8484ff;stroke:#000000;stroke-linejoin:miter;"/>
   </g>
   <g id="patch_132">
    <path clip-path="url(#p55dd8a7c8b)" d="M 313.864946 254.618925 
L 338.191922 254.618925 
L 338.191922 244.383848 
L 313.864946 244.383848 
z
" style="fill:#9e4f46;stroke:#000000;stroke-linejoin:miter;"/>
   </g>
   <g id="patch_133">
    <path clip-path="url(#p55dd8a7c8b)" d="M 338.191922 254.618925 
L 372.249688 254.618925 
L 372.249688 244.383848 
L 338.191922 244.383848 
z
" style="fill:#00ffc1;stroke:#000000;stroke-linejoin:miter;"/>
   </g>
   <g id="matplotlib.axis_19"/>
   <g id="matplotlib.axis_20">
    <g id="ytick_19"/>
    <g id="ytick_20"/>
    <g id="text_10">
     <text style="font-family:DejaVu Sans;font-size:10px;font-style:normal;font-weight:normal;" transform="translate(11.129688 233.153363)"/>
     <text style="font-family:DejaVu Sans;font-size:10px;font-style:normal;font-weight:normal;" transform="translate(0 244.351176)">10   </text>
    </g>
   </g>
   <g id="patch_134">
    <path d="M 15.129688 256.66594 
L 15.129688 236.195787 
" style="fill:none;stroke:#000000;stroke-linecap:square;stroke-linejoin:miter;stroke-width:0.8;"/>
   </g>
   <g id="patch_135">
    <path d="M 372.249688 256.66594 
L 372.249688 236.195787 
" style="fill:none;stroke:#000000;stroke-linecap:square;stroke-linejoin:miter;stroke-width:0.8;"/>
   </g>
   <g id="patch_136">
    <path d="M 15.129688 256.66594 
L 372.249688 256.66594 
" style="fill:none;stroke:#000000;stroke-linecap:square;stroke-linejoin:miter;stroke-width:0.8;"/>
   </g>
   <g id="patch_137">
    <path d="M 15.129688 236.195787 
L 372.249688 236.195787 
" style="fill:none;stroke:#000000;stroke-linecap:square;stroke-linejoin:miter;stroke-width:0.8;"/>
   </g>
  </g>
  <g id="axes_11">
   <g id="patch_138">
    <path d="M 15.129688 281.230125 
L 372.249688 281.230125 
L 372.249688 260.759971 
L 15.129688 260.759971 
z
" style="fill:none;"/>
   </g>
   <g id="patch_139">
    <path clip-path="url(#pcc52b551c4)" d="M 21.941241 279.18311 
L 60.864401 279.18311 
L 60.864401 268.948033 
L 21.941241 268.948033 
z
" style="fill:#ff0000;stroke:#000000;stroke-linejoin:miter;"/>
   </g>
   <g id="patch_140">
    <path clip-path="url(#pcc52b551c4)" d="M 60.864401 279.18311 
L 94.922167 279.18311 
L 94.922167 268.948033 
L 60.864401 268.948033 
z
" style="fill:#00ff00;stroke:#000000;stroke-linejoin:miter;"/>
   </g>
   <g id="patch_141">
    <path clip-path="url(#pcc52b551c4)" d="M 94.922167 279.18311 
L 119.249143 279.18311 
L 119.249143 268.948033 
L 94.922167 268.948033 
z
" style="fill:#ff1ab9;stroke:#000000;stroke-linejoin:miter;"/>
   </g>
   <g id="patch_142">
    <path clip-path="url(#pcc52b551c4)" d="M 119.249143 279.18311 
L 153.306908 279.18311 
L 153.306908 268.948033 
L 119.249143 268.948033 
z
" style="fill:#ffd300;stroke:#000000;stroke-linejoin:miter;"/>
   </g>
   <g id="patch_143">
    <path clip-path="url(#pcc52b551c4)" d="M 153.306908 279.18311 
L 172.768489 279.18311 
L 172.768489 268.948033 
L 153.306908 268.948033 
z
" style="fill:#005800;stroke:#000000;stroke-linejoin:miter;"/>
   </g>
   <g id="patch_144">
    <path clip-path="url(#pcc52b551c4)" d="M 172.768489 279.18311 
L 211.691649 279.18311 
L 211.691649 268.948033 
L 172.768489 268.948033 
z
" style="fill:#8484ff;stroke:#000000;stroke-linejoin:miter;"/>
   </g>
   <g id="patch_145">
    <path clip-path="url(#pcc52b551c4)" d="M 211.691649 279.18311 
L 245.749415 279.18311 
L 245.749415 268.948033 
L 211.691649 268.948033 
z
" style="fill:#9e4f46;stroke:#000000;stroke-linejoin:miter;"/>
   </g>
   <g id="patch_146">
    <path clip-path="url(#pcc52b551c4)" d="M 245.749415 279.18311 
L 265.210995 279.18311 
L 265.210995 268.948033 
L 245.749415 268.948033 
z
" style="fill:#00ffc1;stroke:#000000;stroke-linejoin:miter;"/>
   </g>
   <g id="patch_147">
    <path clip-path="url(#pcc52b551c4)" d="M 265.210995 279.18311 
L 304.134156 279.18311 
L 304.134156 268.948033 
L 265.210995 268.948033 
z
" style="fill:#008495;stroke:#000000;stroke-linejoin:miter;"/>
   </g>
   <g id="patch_148">
    <path clip-path="url(#pcc52b551c4)" d="M 304.134156 279.18311 
L 328.461132 279.18311 
L 328.461132 268.948033 
L 304.134156 268.948033 
z
" style="fill:#00007b;stroke:#000000;stroke-linejoin:miter;"/>
   </g>
   <g id="patch_149">
    <path clip-path="url(#pcc52b551c4)" d="M 328.461132 279.18311 
L 372.249688 279.18311 
L 372.249688 268.948033 
L 328.461132 268.948033 
z
" style="fill:#95d34f;stroke:#000000;stroke-linejoin:miter;"/>
   </g>
   <g id="matplotlib.axis_21">
    <g id="xtick_1">
     <g id="line2d_1">
      <defs>
       <path d="M 0 0 
L 0 3.5 
" id="m9018785569" style="stroke:#000000;stroke-width:0.8;"/>
      </defs>
      <g>
       <use style="stroke:#000000;stroke-width:0.8;" x="17.075846" xlink:href="#m9018785569" y="281.230125"/>
      </g>
     </g>
     <g id="text_11">
      <text style="font-family:DejaVu Sans;font-size:10px;font-style:normal;font-weight:normal;text-anchor:middle;" transform="rotate(-0, 17.075846, 295.828562)" x="17.075846" y="295.828562">0</text>
     </g>
    </g>
    <g id="xtick_2">
     <g id="line2d_2">
      <g>
       <use style="stroke:#000000;stroke-width:0.8;" x="65.729796" xlink:href="#m9018785569" y="281.230125"/>
      </g>
     </g>
     <g id="text_12">
      <text style="font-family:DejaVu Sans;font-size:10px;font-style:normal;font-weight:normal;text-anchor:middle;" transform="rotate(-0, 65.729796, 295.828562)" x="65.729796" y="295.828562">25</text>
     </g>
    </g>
    <g id="xtick_3">
     <g id="line2d_3">
      <g>
       <use style="stroke:#000000;stroke-width:0.8;" x="114.383747" xlink:href="#m9018785569" y="281.230125"/>
      </g>
     </g>
     <g id="text_13">
      <text style="font-family:DejaVu Sans;font-size:10px;font-style:normal;font-weight:normal;text-anchor:middle;" transform="rotate(-0, 114.383747, 295.828562)" x="114.383747" y="295.828562">50</text>
     </g>
    </g>
    <g id="xtick_4">
     <g id="line2d_4">
      <g>
       <use style="stroke:#000000;stroke-width:0.8;" x="163.037698" xlink:href="#m9018785569" y="281.230125"/>
      </g>
     </g>
     <g id="text_14">
      <text style="font-family:DejaVu Sans;font-size:10px;font-style:normal;font-weight:normal;text-anchor:middle;" transform="rotate(-0, 163.037698, 295.828562)" x="163.037698" y="295.828562">75</text>
     </g>
    </g>
    <g id="xtick_5">
     <g id="line2d_5">
      <g>
       <use style="stroke:#000000;stroke-width:0.8;" x="211.691649" xlink:href="#m9018785569" y="281.230125"/>
      </g>
     </g>
     <g id="text_15">
      <text style="font-family:DejaVu Sans;font-size:10px;font-style:normal;font-weight:normal;text-anchor:middle;" transform="rotate(-0, 211.691649, 295.828562)" x="211.691649" y="295.828562">100</text>
     </g>
    </g>
    <g id="xtick_6">
     <g id="line2d_6">
      <g>
       <use style="stroke:#000000;stroke-width:0.8;" x="260.3456" xlink:href="#m9018785569" y="281.230125"/>
      </g>
     </g>
     <g id="text_16">
      <text style="font-family:DejaVu Sans;font-size:10px;font-style:normal;font-weight:normal;text-anchor:middle;" transform="rotate(-0, 260.3456, 295.828562)" x="260.3456" y="295.828562">125</text>
     </g>
    </g>
    <g id="xtick_7">
     <g id="line2d_7">
      <g>
       <use style="stroke:#000000;stroke-width:0.8;" x="308.999551" xlink:href="#m9018785569" y="281.230125"/>
      </g>
     </g>
     <g id="text_17">
      <text style="font-family:DejaVu Sans;font-size:10px;font-style:normal;font-weight:normal;text-anchor:middle;" transform="rotate(-0, 308.999551, 295.828562)" x="308.999551" y="295.828562">150</text>
     </g>
    </g>
    <g id="xtick_8">
     <g id="line2d_8">
      <g>
       <use style="stroke:#000000;stroke-width:0.8;" x="357.653502" xlink:href="#m9018785569" y="281.230125"/>
      </g>
     </g>
     <g id="text_18">
      <text style="font-family:DejaVu Sans;font-size:10px;font-style:normal;font-weight:normal;text-anchor:middle;" transform="rotate(-0, 357.653502, 295.828562)" x="357.653502" y="295.828562">175</text>
     </g>
    </g>
   </g>
   <g id="matplotlib.axis_22">
    <g id="ytick_21"/>
    <g id="ytick_22"/>
    <g id="text_19">
     <text style="font-family:DejaVu Sans;font-size:10px;font-style:normal;font-weight:normal;" transform="translate(11.129688 257.717548)"/>
     <text style="font-family:DejaVu Sans;font-size:10px;font-style:normal;font-weight:normal;" transform="translate(0 268.915361)">11   </text>
    </g>
   </g>
   <g id="patch_150">
    <path d="M 15.129688 281.230125 
L 15.129688 260.759971 
" style="fill:none;stroke:#000000;stroke-linecap:square;stroke-linejoin:miter;stroke-width:0.8;"/>
   </g>
   <g id="patch_151">
    <path d="M 372.249688 281.230125 
L 372.249688 260.759971 
" style="fill:none;stroke:#000000;stroke-linecap:square;stroke-linejoin:miter;stroke-width:0.8;"/>
   </g>
   <g id="patch_152">
    <path d="M 15.129688 281.230125 
L 372.249688 281.230125 
" style="fill:none;stroke:#000000;stroke-linecap:square;stroke-linejoin:miter;stroke-width:0.8;"/>
   </g>
   <g id="patch_153">
    <path d="M 15.129688 260.759971 
L 372.249688 260.759971 
" style="fill:none;stroke:#000000;stroke-linecap:square;stroke-linejoin:miter;stroke-width:0.8;"/>
   </g>
  </g>
 </g>
 <defs>
  <clipPath id="pb4381211cd">
   <rect height="20.470154" width="357.12" x="15.129688" y="15.118125"/>
  </clipPath>
  <clipPath id="pc76c4f7dc9">
   <rect height="20.470154" width="357.12" x="15.129688" y="39.68231"/>
  </clipPath>
  <clipPath id="p276066b567">
   <rect height="20.470154" width="357.12" x="15.129688" y="64.246494"/>
  </clipPath>
  <clipPath id="pb5540243fe">
   <rect height="20.470154" width="357.12" x="15.129688" y="88.810679"/>
  </clipPath>
  <clipPath id="p5037f24961">
   <rect height="20.470154" width="357.12" x="15.129688" y="113.374863"/>
  </clipPath>
  <clipPath id="pcdef06cee0">
   <rect height="20.470154" width="357.12" x="15.129688" y="137.939048"/>
  </clipPath>
  <clipPath id="pdda904e5df">
   <rect height="20.470154" width="357.12" x="15.129688" y="162.503233"/>
  </clipPath>
  <clipPath id="p410bca43dd">
   <rect height="20.470154" width="357.12" x="15.129688" y="187.067417"/>
  </clipPath>
  <clipPath id="pa557e4925f">
   <rect height="20.470154" width="357.12" x="15.129688" y="211.631602"/>
  </clipPath>
  <clipPath id="p55dd8a7c8b">
   <rect height="20.470154" width="357.12" x="15.129688" y="236.195787"/>
  </clipPath>
  <clipPath id="pcc52b551c4">
   <rect height="20.470154" width="357.12" x="15.129688" y="260.759971"/>
  </clipPath>
 </defs>
</svg>
