<?xml version="1.0" encoding="utf-8" standalone="no"?>
<!DOCTYPE svg PUBLIC "-//W3C//DTD SVG 1.1//EN"
  "http://www.w3.org/Graphics/SVG/1.1/DTD/svg11.dtd">
<!-- Created with matplotlib (https://matplotlib.org/) -->
<svg height="297.90825pt" version="1.1" viewBox="0 0 372.249687 297.90825" width="372.249687pt" xmlns="http://www.w3.org/2000/svg" xmlns:xlink="http://www.w3.org/1999/xlink">
 <defs>
  <style type="text/css">
*{stroke-linecap:butt;stroke-linejoin:round;}
  </style>
 </defs>
 <g id="figure_1">
  <g id="patch_1">
   <path d="M 0 297.90825 
L 372.249687 297.90825 
L 372.249687 -0 
L 0 -0 
z
" style="fill:none;"/>
  </g>
  <g id="axes_1">
   <g id="patch_2">
    <path d="M 15.129688 33.858407 
L 372.249688 33.858407 
L 372.249688 15.118125 
L 15.129688 15.118125 
z
" style="fill:none;"/>
   </g>
   <g id="patch_3">
    <path clip-path="url(#p0824f4047a)" d="M 32.135402 31.984379 
L 74.649688 31.984379 
L 74.649688 22.614238 
L 32.135402 22.614238 
z
" style="fill:#ff0000;stroke:#000000;stroke-linejoin:miter;"/>
   </g>
   <g id="patch_4">
    <path clip-path="url(#p0824f4047a)" d="M 74.649688 31.984379 
L 152.592545 31.984379 
L 152.592545 22.614238 
L 74.649688 22.614238 
z
" style="fill:#00ff00;stroke:#000000;stroke-linejoin:miter;"/>
   </g>
   <g id="patch_5">
    <path clip-path="url(#p0824f4047a)" d="M 152.592545 31.984379 
L 209.278259 31.984379 
L 209.278259 22.614238 
L 152.592545 22.614238 
z
" style="fill:#ff1ab9;stroke:#000000;stroke-linejoin:miter;"/>
   </g>
   <g id="patch_6">
    <path clip-path="url(#p0824f4047a)" d="M 209.278259 31.984379 
L 258.878259 31.984379 
L 258.878259 22.614238 
L 209.278259 22.614238 
z
" style="fill:#ffd300;stroke:#000000;stroke-linejoin:miter;"/>
   </g>
   <g id="patch_7">
    <path clip-path="url(#p0824f4047a)" d="M 258.878259 31.984379 
L 336.821116 31.984379 
L 336.821116 22.614238 
L 258.878259 22.614238 
z
" style="fill:#005800;stroke:#000000;stroke-linejoin:miter;"/>
   </g>
   <g id="patch_8">
    <path clip-path="url(#p0824f4047a)" d="M 336.821116 31.984379 
L 372.249688 31.984379 
L 372.249688 22.614238 
L 336.821116 22.614238 
z
" style="fill:#8484ff;stroke:#000000;stroke-linejoin:miter;"/>
   </g>
   <g id="matplotlib.axis_1"/>
   <g id="matplotlib.axis_2">
    <g id="ytick_1"/>
    <g id="ytick_2"/>
   </g>
   <g id="patch_9">
    <path d="M 15.129688 33.858407 
L 15.129688 15.118125 
" style="fill:none;stroke:#000000;stroke-linecap:square;stroke-linejoin:miter;stroke-width:0.8;"/>
   </g>
   <g id="patch_10">
    <path d="M 372.249688 33.858407 
L 372.249688 15.118125 
" style="fill:none;stroke:#000000;stroke-linecap:square;stroke-linejoin:miter;stroke-width:0.8;"/>
   </g>
   <g id="patch_11">
    <path d="M 15.129688 33.858407 
L 372.249688 33.858407 
" style="fill:none;stroke:#000000;stroke-linecap:square;stroke-linejoin:miter;stroke-width:0.8;"/>
   </g>
   <g id="patch_12">
    <path d="M 15.129688 15.118125 
L 372.249688 15.118125 
" style="fill:none;stroke:#000000;stroke-linecap:square;stroke-linejoin:miter;stroke-width:0.8;"/>
   </g>
   <g id="text_1">
    <text style="font-family:DejaVu Sans;font-size:12px;font-style:normal;font-weight:normal;text-anchor:middle;" transform="rotate(-0, 193.689688, 9.118125)" x="193.689688" y="9.118125">Chr 14</text>
   </g>
  </g>
  <g id="axes_2">
   <g id="patch_13">
    <path d="M 15.129688 56.346745 
L 372.249688 56.346745 
L 372.249688 37.606463 
L 15.129688 37.606463 
z
" style="fill:none;"/>
   </g>
   <g id="patch_14">
    <path clip-path="url(#p5b75e37454)" d="M 32.135402 54.472717 
L 74.649688 54.472717 
L 74.649688 45.102576 
L 32.135402 45.102576 
z
" style="fill:#ff0000;stroke:#000000;stroke-linejoin:miter;"/>
   </g>
   <g id="patch_15">
    <path clip-path="url(#p5b75e37454)" d="M 74.649688 54.472717 
L 166.763973 54.472717 
L 166.763973 45.102576 
L 74.649688 45.102576 
z
" style="fill:#00ff00;stroke:#000000;stroke-linejoin:miter;"/>
   </g>
   <g id="patch_16">
    <path clip-path="url(#p5b75e37454)" d="M 166.763973 54.472717 
L 230.535402 54.472717 
L 230.535402 45.102576 
L 166.763973 45.102576 
z
" style="fill:#ff1ab9;stroke:#000000;stroke-linejoin:miter;"/>
   </g>
   <g id="patch_17">
    <path clip-path="url(#p5b75e37454)" d="M 230.535402 54.472717 
L 273.049688 54.472717 
L 273.049688 45.102576 
L 230.535402 45.102576 
z
" style="fill:#ffd300;stroke:#000000;stroke-linejoin:miter;"/>
   </g>
   <g id="patch_18">
    <path clip-path="url(#p5b75e37454)" d="M 273.049688 54.472717 
L 322.649688 54.472717 
L 322.649688 45.102576 
L 273.049688 45.102576 
z
" style="fill:#005800;stroke:#000000;stroke-linejoin:miter;"/>
   </g>
   <g id="patch_19">
    <path clip-path="url(#p5b75e37454)" d="M 322.649688 54.472717 
L 372.249688 54.472717 
L 372.249688 45.102576 
L 322.649688 45.102576 
z
" style="fill:#8484ff;stroke:#000000;stroke-linejoin:miter;"/>
   </g>
   <g id="matplotlib.axis_3"/>
   <g id="matplotlib.axis_4">
    <g id="ytick_3"/>
    <g id="ytick_4"/>
    <g id="text_2">
     <text style="font-family:DejaVu Sans;font-size:10px;font-style:normal;font-weight:normal;" transform="translate(11.129688 33.699104)"/>
     <text style="font-family:DejaVu Sans;font-size:10px;font-style:normal;font-weight:normal;" transform="translate(3.18125 44.896916)">2   </text>
    </g>
   </g>
   <g id="patch_20">
    <path d="M 15.129688 56.346745 
L 15.129688 37.606463 
" style="fill:none;stroke:#000000;stroke-linecap:square;stroke-linejoin:miter;stroke-width:0.8;"/>
   </g>
   <g id="patch_21">
    <path d="M 372.249688 56.346745 
L 372.249688 37.606463 
" style="fill:none;stroke:#000000;stroke-linecap:square;stroke-linejoin:miter;stroke-width:0.8;"/>
   </g>
   <g id="patch_22">
    <path d="M 15.129688 56.346745 
L 372.249688 56.346745 
" style="fill:none;stroke:#000000;stroke-linecap:square;stroke-linejoin:miter;stroke-width:0.8;"/>
   </g>
   <g id="patch_23">
    <path d="M 15.129688 37.606463 
L 372.249688 37.606463 
" style="fill:none;stroke:#000000;stroke-linecap:square;stroke-linejoin:miter;stroke-width:0.8;"/>
   </g>
  </g>
  <g id="axes_3">
   <g id="patch_24">
    <path d="M 15.129688 78.835083 
L 372.249688 78.835083 
L 372.249688 60.094801 
L 15.129688 60.094801 
z
" style="fill:none;"/>
   </g>
   <g id="patch_25">
    <path clip-path="url(#pa68eae6cc7)" d="M 32.135402 76.961055 
L 110.078259 76.961055 
L 110.078259 67.590914 
L 32.135402 67.590914 
z
" style="fill:#ff0000;stroke:#000000;stroke-linejoin:miter;"/>
   </g>
   <g id="patch_26">
    <path clip-path="url(#pa68eae6cc7)" d="M 110.078259 76.961055 
L 159.678259 76.961055 
L 159.678259 67.590914 
L 110.078259 67.590914 
z
" style="fill:#00ff00;stroke:#000000;stroke-linejoin:miter;"/>
   </g>
   <g id="patch_27">
    <path clip-path="url(#pa68eae6cc7)" d="M 159.678259 76.961055 
L 216.363973 76.961055 
L 216.363973 67.590914 
L 159.678259 67.590914 
z
" style="fill:#ff1ab9;stroke:#000000;stroke-linejoin:miter;"/>
   </g>
   <g id="patch_28">
    <path clip-path="url(#pa68eae6cc7)" d="M 216.363973 76.961055 
L 258.878259 76.961055 
L 258.878259 67.590914 
L 216.363973 67.590914 
z
" style="fill:#ffd300;stroke:#000000;stroke-linejoin:miter;"/>
   </g>
   <g id="patch_29">
    <path clip-path="url(#pa68eae6cc7)" d="M 258.878259 76.961055 
L 315.563973 76.961055 
L 315.563973 67.590914 
L 258.878259 67.590914 
z
" style="fill:#005800;stroke:#000000;stroke-linejoin:miter;"/>
   </g>
   <g id="patch_30">
    <path clip-path="url(#pa68eae6cc7)" d="M 315.563973 76.961055 
L 372.249688 76.961055 
L 372.249688 67.590914 
L 315.563973 67.590914 
z
" style="fill:#8484ff;stroke:#000000;stroke-linejoin:miter;"/>
   </g>
   <g id="matplotlib.axis_5"/>
   <g id="matplotlib.axis_6">
    <g id="ytick_5"/>
    <g id="ytick_6"/>
    <g id="text_3">
     <text style="font-family:DejaVu Sans;font-size:10px;font-style:normal;font-weight:normal;" transform="translate(11.129688 56.187442)"/>
     <text style="font-family:DejaVu Sans;font-size:10px;font-style:normal;font-weight:normal;" transform="translate(3.18125 67.385254)">3   </text>
    </g>
   </g>
   <g id="patch_31">
    <path d="M 15.129688 78.835083 
L 15.129688 60.094801 
" style="fill:none;stroke:#000000;stroke-linecap:square;stroke-linejoin:miter;stroke-width:0.8;"/>
   </g>
   <g id="patch_32">
    <path d="M 372.249688 78.835083 
L 372.249688 60.094801 
" style="fill:none;stroke:#000000;stroke-linecap:square;stroke-linejoin:miter;stroke-width:0.8;"/>
   </g>
   <g id="patch_33">
    <path d="M 15.129688 78.835083 
L 372.249688 78.835083 
" style="fill:none;stroke:#000000;stroke-linecap:square;stroke-linejoin:miter;stroke-width:0.8;"/>
   </g>
   <g id="patch_34">
    <path d="M 15.129688 60.094801 
L 372.249688 60.094801 
" style="fill:none;stroke:#000000;stroke-linecap:square;stroke-linejoin:miter;stroke-width:0.8;"/>
   </g>
  </g>
  <g id="axes_4">
   <g id="patch_35">
    <path d="M 15.129688 101.323421 
L 372.249688 101.323421 
L 372.249688 82.583139 
L 15.129688 82.583139 
z
" style="fill:none;"/>
   </g>
   <g id="patch_36">
    <path clip-path="url(#pd9fb8f48ee)" d="M 39.221116 99.449393 
L 74.649688 99.449393 
L 74.649688 90.079252 
L 39.221116 90.079252 
z
" style="fill:#ff0000;stroke:#000000;stroke-linejoin:miter;"/>
   </g>
   <g id="patch_37">
    <path clip-path="url(#pd9fb8f48ee)" d="M 74.649688 99.449393 
L 110.078259 99.449393 
L 110.078259 90.079252 
L 74.649688 90.079252 
z
" style="fill:#00ff00;stroke:#000000;stroke-linejoin:miter;"/>
   </g>
   <g id="patch_38">
    <path clip-path="url(#pd9fb8f48ee)" d="M 110.078259 99.449393 
L 166.763973 99.449393 
L 166.763973 90.079252 
L 110.078259 90.079252 
z
" style="fill:#ff1ab9;stroke:#000000;stroke-linejoin:miter;"/>
   </g>
   <g id="patch_39">
    <path clip-path="url(#pd9fb8f48ee)" d="M 166.763973 99.449393 
L 216.363973 99.449393 
L 216.363973 90.079252 
L 166.763973 90.079252 
z
" style="fill:#ffd300;stroke:#000000;stroke-linejoin:miter;"/>
   </g>
   <g id="patch_40">
    <path clip-path="url(#pd9fb8f48ee)" d="M 216.363973 99.449393 
L 280.135402 99.449393 
L 280.135402 90.079252 
L 216.363973 90.079252 
z
" style="fill:#005800;stroke:#000000;stroke-linejoin:miter;"/>
   </g>
   <g id="patch_41">
    <path clip-path="url(#pd9fb8f48ee)" d="M 280.135402 99.449393 
L 315.563973 99.449393 
L 315.563973 90.079252 
L 280.135402 90.079252 
z
" style="fill:#8484ff;stroke:#000000;stroke-linejoin:miter;"/>
   </g>
   <g id="patch_42">
    <path clip-path="url(#pd9fb8f48ee)" d="M 315.563973 99.449393 
L 372.249688 99.449393 
L 372.249688 90.079252 
L 315.563973 90.079252 
z
" style="fill:#9e4f46;stroke:#000000;stroke-linejoin:miter;"/>
   </g>
   <g id="matplotlib.axis_7"/>
   <g id="matplotlib.axis_8">
    <g id="ytick_7"/>
    <g id="ytick_8"/>
    <g id="text_4">
     <text style="font-family:DejaVu Sans;font-size:10px;font-style:normal;font-weight:normal;" transform="translate(11.129688 78.67578)"/>
     <text style="font-family:DejaVu Sans;font-size:10px;font-style:normal;font-weight:normal;" transform="translate(3.18125 89.873592)">4   </text>
    </g>
   </g>
   <g id="patch_43">
    <path d="M 15.129688 101.323421 
L 15.129688 82.583139 
" style="fill:none;stroke:#000000;stroke-linecap:square;stroke-linejoin:miter;stroke-width:0.8;"/>
   </g>
   <g id="patch_44">
    <path d="M 372.249688 101.323421 
L 372.249688 82.583139 
" style="fill:none;stroke:#000000;stroke-linecap:square;stroke-linejoin:miter;stroke-width:0.8;"/>
   </g>
   <g id="patch_45">
    <path d="M 15.129688 101.323421 
L 372.249688 101.323421 
" style="fill:none;stroke:#000000;stroke-linecap:square;stroke-linejoin:miter;stroke-width:0.8;"/>
   </g>
   <g id="patch_46">
    <path d="M 15.129688 82.583139 
L 372.249688 82.583139 
" style="fill:none;stroke:#000000;stroke-linecap:square;stroke-linejoin:miter;stroke-width:0.8;"/>
   </g>
  </g>
  <g id="axes_5">
   <g id="patch_47">
    <path d="M 15.129688 123.811759 
L 372.249688 123.811759 
L 372.249688 105.071477 
L 15.129688 105.071477 
z
" style="fill:none;"/>
   </g>
   <g id="patch_48">
    <path clip-path="url(#p626c8f65c6)" d="M 39.221116 121.937731 
L 74.649688 121.937731 
L 74.649688 112.56759 
L 39.221116 112.56759 
z
" style="fill:#ff0000;stroke:#000000;stroke-linejoin:miter;"/>
   </g>
   <g id="patch_49">
    <path clip-path="url(#p626c8f65c6)" d="M 74.649688 121.937731 
L 110.078259 121.937731 
L 110.078259 112.56759 
L 74.649688 112.56759 
z
" style="fill:#00ff00;stroke:#000000;stroke-linejoin:miter;"/>
   </g>
   <g id="patch_50">
    <path clip-path="url(#p626c8f65c6)" d="M 110.078259 121.937731 
L 223.449688 121.937731 
L 223.449688 112.56759 
L 110.078259 112.56759 
z
" style="fill:#ff1ab9;stroke:#000000;stroke-linejoin:miter;"/>
   </g>
   <g id="patch_51">
    <path clip-path="url(#p626c8f65c6)" d="M 223.449688 121.937731 
L 258.878259 121.937731 
L 258.878259 112.56759 
L 223.449688 112.56759 
z
" style="fill:#ffd300;stroke:#000000;stroke-linejoin:miter;"/>
   </g>
   <g id="patch_52">
    <path clip-path="url(#p626c8f65c6)" d="M 258.878259 121.937731 
L 287.221116 121.937731 
L 287.221116 112.56759 
L 258.878259 112.56759 
z
" style="fill:#005800;stroke:#000000;stroke-linejoin:miter;"/>
   </g>
   <g id="patch_53">
    <path clip-path="url(#p626c8f65c6)" d="M 287.221116 121.937731 
L 322.649688 121.937731 
L 322.649688 112.56759 
L 287.221116 112.56759 
z
" style="fill:#8484ff;stroke:#000000;stroke-linejoin:miter;"/>
   </g>
   <g id="patch_54">
    <path clip-path="url(#p626c8f65c6)" d="M 322.649688 121.937731 
L 372.249688 121.937731 
L 372.249688 112.56759 
L 322.649688 112.56759 
z
" style="fill:#9e4f46;stroke:#000000;stroke-linejoin:miter;"/>
   </g>
   <g id="matplotlib.axis_9"/>
   <g id="matplotlib.axis_10">
    <g id="ytick_9"/>
    <g id="ytick_10"/>
    <g id="text_5">
     <text style="font-family:DejaVu Sans;font-size:10px;font-style:normal;font-weight:normal;" transform="translate(11.129688 101.164118)"/>
     <text style="font-family:DejaVu Sans;font-size:10px;font-style:normal;font-weight:normal;" transform="translate(3.18125 112.36193)">5   </text>
    </g>
   </g>
   <g id="patch_55">
    <path d="M 15.129688 123.811759 
L 15.129688 105.071477 
" style="fill:none;stroke:#000000;stroke-linecap:square;stroke-linejoin:miter;stroke-width:0.8;"/>
   </g>
   <g id="patch_56">
    <path d="M 372.249688 123.811759 
L 372.249688 105.071477 
" style="fill:none;stroke:#000000;stroke-linecap:square;stroke-linejoin:miter;stroke-width:0.8;"/>
   </g>
   <g id="patch_57">
    <path d="M 15.129688 123.811759 
L 372.249688 123.811759 
" style="fill:none;stroke:#000000;stroke-linecap:square;stroke-linejoin:miter;stroke-width:0.8;"/>
   </g>
   <g id="patch_58">
    <path d="M 15.129688 105.071477 
L 372.249688 105.071477 
" style="fill:none;stroke:#000000;stroke-linecap:square;stroke-linejoin:miter;stroke-width:0.8;"/>
   </g>
  </g>
  <g id="axes_6">
   <g id="patch_59">
    <path d="M 15.129688 146.300097 
L 372.249688 146.300097 
L 372.249688 127.559815 
L 15.129688 127.559815 
z
" style="fill:none;"/>
   </g>
   <g id="patch_60">
    <path clip-path="url(#p4399b3204b)" d="M 32.135402 144.426069 
L 74.649688 144.426069 
L 74.649688 135.055928 
L 32.135402 135.055928 
z
" style="fill:#ff0000;stroke:#000000;stroke-linejoin:miter;"/>
   </g>
   <g id="patch_61">
    <path clip-path="url(#p4399b3204b)" d="M 74.649688 144.426069 
L 145.50683 144.426069 
L 145.50683 135.055928 
L 74.649688 135.055928 
z
" style="fill:#00ff00;stroke:#000000;stroke-linejoin:miter;"/>
   </g>
   <g id="patch_62">
    <path clip-path="url(#p4399b3204b)" d="M 145.50683 144.426069 
L 216.363973 144.426069 
L 216.363973 135.055928 
L 145.50683 135.055928 
z
" style="fill:#ff1ab9;stroke:#000000;stroke-linejoin:miter;"/>
   </g>
   <g id="patch_63">
    <path clip-path="url(#p4399b3204b)" d="M 216.363973 144.426069 
L 258.878259 144.426069 
L 258.878259 135.055928 
L 216.363973 135.055928 
z
" style="fill:#ffd300;stroke:#000000;stroke-linejoin:miter;"/>
   </g>
   <g id="patch_64">
    <path clip-path="url(#p4399b3204b)" d="M 258.878259 144.426069 
L 294.30683 144.426069 
L 294.30683 135.055928 
L 258.878259 135.055928 
z
" style="fill:#005800;stroke:#000000;stroke-linejoin:miter;"/>
   </g>
   <g id="patch_65">
    <path clip-path="url(#p4399b3204b)" d="M 294.30683 144.426069 
L 372.249688 144.426069 
L 372.249688 135.055928 
L 294.30683 135.055928 
z
" style="fill:#8484ff;stroke:#000000;stroke-linejoin:miter;"/>
   </g>
   <g id="matplotlib.axis_11"/>
   <g id="matplotlib.axis_12">
    <g id="ytick_11"/>
    <g id="ytick_12"/>
    <g id="text_6">
     <text style="font-family:DejaVu Sans;font-size:10px;font-style:normal;font-weight:normal;" transform="translate(11.129688 123.652456)"/>
     <text style="font-family:DejaVu Sans;font-size:10px;font-style:normal;font-weight:normal;" transform="translate(3.18125 134.850268)">6   </text>
    </g>
   </g>
   <g id="patch_66">
    <path d="M 15.129688 146.300097 
L 15.129688 127.559815 
" style="fill:none;stroke:#000000;stroke-linecap:square;stroke-linejoin:miter;stroke-width:0.8;"/>
   </g>
   <g id="patch_67">
    <path d="M 372.249688 146.300097 
L 372.249688 127.559815 
" style="fill:none;stroke:#000000;stroke-linecap:square;stroke-linejoin:miter;stroke-width:0.8;"/>
   </g>
   <g id="patch_68">
    <path d="M 15.129688 146.300097 
L 372.249688 146.300097 
" style="fill:none;stroke:#000000;stroke-linecap:square;stroke-linejoin:miter;stroke-width:0.8;"/>
   </g>
   <g id="patch_69">
    <path d="M 15.129688 127.559815 
L 372.249688 127.559815 
" style="fill:none;stroke:#000000;stroke-linecap:square;stroke-linejoin:miter;stroke-width:0.8;"/>
   </g>
  </g>
  <g id="axes_7">
   <g id="patch_70">
    <path d="M 15.129688 168.788435 
L 372.249688 168.788435 
L 372.249688 150.048153 
L 15.129688 150.048153 
z
" style="fill:none;"/>
   </g>
   <g id="patch_71">
    <path clip-path="url(#pc730264550)" d="M 32.135402 166.914407 
L 74.649688 166.914407 
L 74.649688 157.544266 
L 32.135402 157.544266 
z
" style="fill:#ff0000;stroke:#000000;stroke-linejoin:miter;"/>
   </g>
   <g id="patch_72">
    <path clip-path="url(#pc730264550)" d="M 74.649688 166.914407 
L 124.249688 166.914407 
L 124.249688 157.544266 
L 74.649688 157.544266 
z
" style="fill:#00ff00;stroke:#000000;stroke-linejoin:miter;"/>
   </g>
   <g id="patch_73">
    <path clip-path="url(#pc730264550)" d="M 124.249688 166.914407 
L 166.763973 166.914407 
L 166.763973 157.544266 
L 124.249688 157.544266 
z
" style="fill:#ff1ab9;stroke:#000000;stroke-linejoin:miter;"/>
   </g>
   <g id="patch_74">
    <path clip-path="url(#pc730264550)" d="M 166.763973 166.914407 
L 195.10683 166.914407 
L 195.10683 157.544266 
L 166.763973 157.544266 
z
" style="fill:#ffd300;stroke:#000000;stroke-linejoin:miter;"/>
   </g>
   <g id="patch_75">
    <path clip-path="url(#pc730264550)" d="M 195.10683 166.914407 
L 273.049688 166.914407 
L 273.049688 157.544266 
L 195.10683 157.544266 
z
" style="fill:#005800;stroke:#000000;stroke-linejoin:miter;"/>
   </g>
   <g id="patch_76">
    <path clip-path="url(#pc730264550)" d="M 273.049688 166.914407 
L 343.90683 166.914407 
L 343.90683 157.544266 
L 273.049688 157.544266 
z
" style="fill:#8484ff;stroke:#000000;stroke-linejoin:miter;"/>
   </g>
   <g id="patch_77">
    <path clip-path="url(#pc730264550)" d="M 343.90683 166.914407 
L 372.249688 166.914407 
L 372.249688 157.544266 
L 343.90683 157.544266 
z
" style="fill:#9e4f46;stroke:#000000;stroke-linejoin:miter;"/>
   </g>
   <g id="matplotlib.axis_13"/>
   <g id="matplotlib.axis_14">
    <g id="ytick_13"/>
    <g id="ytick_14"/>
    <g id="text_7">
     <text style="font-family:DejaVu Sans;font-size:10px;font-style:normal;font-weight:normal;" transform="translate(11.129688 146.140794)"/>
     <text style="font-family:DejaVu Sans;font-size:10px;font-style:normal;font-weight:normal;" transform="translate(3.18125 157.338607)">7   </text>
    </g>
   </g>
   <g id="patch_78">
    <path d="M 15.129688 168.788435 
L 15.129688 150.048153 
" style="fill:none;stroke:#000000;stroke-linecap:square;stroke-linejoin:miter;stroke-width:0.8;"/>
   </g>
   <g id="patch_79">
    <path d="M 372.249688 168.788435 
L 372.249688 150.048153 
" style="fill:none;stroke:#000000;stroke-linecap:square;stroke-linejoin:miter;stroke-width:0.8;"/>
   </g>
   <g id="patch_80">
    <path d="M 15.129688 168.788435 
L 372.249688 168.788435 
" style="fill:none;stroke:#000000;stroke-linecap:square;stroke-linejoin:miter;stroke-width:0.8;"/>
   </g>
   <g id="patch_81">
    <path d="M 15.129688 150.048153 
L 372.249688 150.048153 
" style="fill:none;stroke:#000000;stroke-linecap:square;stroke-linejoin:miter;stroke-width:0.8;"/>
   </g>
  </g>
  <g id="axes_8">
   <g id="patch_82">
    <path d="M 15.129688 191.276773 
L 372.249688 191.276773 
L 372.249688 172.536491 
L 15.129688 172.536491 
z
" style="fill:none;"/>
   </g>
   <g id="patch_83">
    <path clip-path="url(#p5dbc4364ef)" d="M 32.135402 189.402745 
L 138.421116 189.402745 
L 138.421116 180.032604 
L 32.135402 180.032604 
z
" style="fill:#ff0000;stroke:#000000;stroke-linejoin:miter;"/>
   </g>
   <g id="patch_84">
    <path clip-path="url(#p5dbc4364ef)" d="M 138.421116 189.402745 
L 209.278259 189.402745 
L 209.278259 180.032604 
L 138.421116 180.032604 
z
" style="fill:#00ff00;stroke:#000000;stroke-linejoin:miter;"/>
   </g>
   <g id="patch_85">
    <path clip-path="url(#p5dbc4364ef)" d="M 209.278259 189.402745 
L 294.30683 189.402745 
L 294.30683 180.032604 
L 209.278259 180.032604 
z
" style="fill:#ff1ab9;stroke:#000000;stroke-linejoin:miter;"/>
   </g>
   <g id="patch_86">
    <path clip-path="url(#p5dbc4364ef)" d="M 294.30683 189.402745 
L 329.735402 189.402745 
L 329.735402 180.032604 
L 294.30683 180.032604 
z
" style="fill:#ffd300;stroke:#000000;stroke-linejoin:miter;"/>
   </g>
   <g id="patch_87">
    <path clip-path="url(#p5dbc4364ef)" d="M 329.735402 189.402745 
L 372.249688 189.402745 
L 372.249688 180.032604 
L 329.735402 180.032604 
z
" style="fill:#005800;stroke:#000000;stroke-linejoin:miter;"/>
   </g>
   <g id="matplotlib.axis_15"/>
   <g id="matplotlib.axis_16">
    <g id="ytick_15"/>
    <g id="ytick_16"/>
    <g id="text_8">
     <text style="font-family:DejaVu Sans;font-size:10px;font-style:normal;font-weight:normal;" transform="translate(11.129688 168.629132)"/>
     <text style="font-family:DejaVu Sans;font-size:10px;font-style:normal;font-weight:normal;" transform="translate(3.18125 179.826945)">8   </text>
    </g>
   </g>
   <g id="patch_88">
    <path d="M 15.129688 191.276773 
L 15.129688 172.536491 
" style="fill:none;stroke:#000000;stroke-linecap:square;stroke-linejoin:miter;stroke-width:0.8;"/>
   </g>
   <g id="patch_89">
    <path d="M 372.249688 191.276773 
L 372.249688 172.536491 
" style="fill:none;stroke:#000000;stroke-linecap:square;stroke-linejoin:miter;stroke-width:0.8;"/>
   </g>
   <g id="patch_90">
    <path d="M 15.129688 191.276773 
L 372.249688 191.276773 
" style="fill:none;stroke:#000000;stroke-linecap:square;stroke-linejoin:miter;stroke-width:0.8;"/>
   </g>
   <g id="patch_91">
    <path d="M 15.129688 172.536491 
L 372.249688 172.536491 
" style="fill:none;stroke:#000000;stroke-linecap:square;stroke-linejoin:miter;stroke-width:0.8;"/>
   </g>
  </g>
  <g id="axes_9">
   <g id="patch_92">
    <path d="M 15.129688 213.765111 
L 372.249688 213.765111 
L 372.249688 195.024829 
L 15.129688 195.024829 
z
" style="fill:none;"/>
   </g>
   <g id="patch_93">
    <path clip-path="url(#p0e5706a551)" d="M 32.135402 211.891083 
L 81.735402 211.891083 
L 81.735402 202.520942 
L 32.135402 202.520942 
z
" style="fill:#ff0000;stroke:#000000;stroke-linejoin:miter;"/>
   </g>
   <g id="patch_94">
    <path clip-path="url(#p0e5706a551)" d="M 81.735402 211.891083 
L 145.50683 211.891083 
L 145.50683 202.520942 
L 81.735402 202.520942 
z
" style="fill:#00ff00;stroke:#000000;stroke-linejoin:miter;"/>
   </g>
   <g id="patch_95">
    <path clip-path="url(#p0e5706a551)" d="M 145.50683 211.891083 
L 195.10683 211.891083 
L 195.10683 202.520942 
L 145.50683 202.520942 
z
" style="fill:#ff1ab9;stroke:#000000;stroke-linejoin:miter;"/>
   </g>
   <g id="patch_96">
    <path clip-path="url(#p0e5706a551)" d="M 195.10683 211.891083 
L 251.792545 211.891083 
L 251.792545 202.520942 
L 195.10683 202.520942 
z
" style="fill:#ffd300;stroke:#000000;stroke-linejoin:miter;"/>
   </g>
   <g id="patch_97">
    <path clip-path="url(#p0e5706a551)" d="M 251.792545 211.891083 
L 287.221116 211.891083 
L 287.221116 202.520942 
L 251.792545 202.520942 
z
" style="fill:#005800;stroke:#000000;stroke-linejoin:miter;"/>
   </g>
   <g id="patch_98">
    <path clip-path="url(#p0e5706a551)" d="M 287.221116 211.891083 
L 358.078259 211.891083 
L 358.078259 202.520942 
L 287.221116 202.520942 
z
" style="fill:#8484ff;stroke:#000000;stroke-linejoin:miter;"/>
   </g>
   <g id="matplotlib.axis_17"/>
   <g id="matplotlib.axis_18">
    <g id="ytick_17"/>
    <g id="ytick_18"/>
    <g id="text_9">
     <text style="font-family:DejaVu Sans;font-size:10px;font-style:normal;font-weight:normal;" transform="translate(11.129688 191.11747)"/>
     <text style="font-family:DejaVu Sans;font-size:10px;font-style:normal;font-weight:normal;" transform="translate(3.18125 202.315283)">9   </text>
    </g>
   </g>
   <g id="patch_99">
    <path d="M 15.129688 213.765111 
L 15.129688 195.024829 
" style="fill:none;stroke:#000000;stroke-linecap:square;stroke-linejoin:miter;stroke-width:0.8;"/>
   </g>
   <g id="patch_100">
    <path d="M 372.249688 213.765111 
L 372.249688 195.024829 
" style="fill:none;stroke:#000000;stroke-linecap:square;stroke-linejoin:miter;stroke-width:0.8;"/>
   </g>
   <g id="patch_101">
    <path d="M 15.129688 213.765111 
L 372.249688 213.765111 
" style="fill:none;stroke:#000000;stroke-linecap:square;stroke-linejoin:miter;stroke-width:0.8;"/>
   </g>
   <g id="patch_102">
    <path d="M 15.129688 195.024829 
L 372.249688 195.024829 
" style="fill:none;stroke:#000000;stroke-linecap:square;stroke-linejoin:miter;stroke-width:0.8;"/>
   </g>
  </g>
  <g id="axes_10">
   <g id="patch_103">
    <path d="M 15.129688 236.253449 
L 372.249688 236.253449 
L 372.249688 217.513167 
L 15.129688 217.513167 
z
" style="fill:none;"/>
   </g>
   <g id="patch_104">
    <path clip-path="url(#p18a238b6f6)" d="M 25.049688 234.379421 
L 95.90683 234.379421 
L 95.90683 225.00928 
L 25.049688 225.00928 
z
" style="fill:#ff0000;stroke:#000000;stroke-linejoin:miter;"/>
   </g>
   <g id="patch_105">
    <path clip-path="url(#p18a238b6f6)" d="M 95.90683 234.379421 
L 166.763973 234.379421 
L 166.763973 225.00928 
L 95.90683 225.00928 
z
" style="fill:#00ff00;stroke:#000000;stroke-linejoin:miter;"/>
   </g>
   <g id="patch_106">
    <path clip-path="url(#p18a238b6f6)" d="M 166.763973 234.379421 
L 230.535402 234.379421 
L 230.535402 225.00928 
L 166.763973 225.00928 
z
" style="fill:#ff1ab9;stroke:#000000;stroke-linejoin:miter;"/>
   </g>
   <g id="patch_107">
    <path clip-path="url(#p18a238b6f6)" d="M 230.535402 234.379421 
L 280.135402 234.379421 
L 280.135402 225.00928 
L 230.535402 225.00928 
z
" style="fill:#ffd300;stroke:#000000;stroke-linejoin:miter;"/>
   </g>
   <g id="patch_108">
    <path clip-path="url(#p18a238b6f6)" d="M 280.135402 234.379421 
L 336.821116 234.379421 
L 336.821116 225.00928 
L 280.135402 225.00928 
z
" style="fill:#005800;stroke:#000000;stroke-linejoin:miter;"/>
   </g>
   <g id="patch_109">
    <path clip-path="url(#p18a238b6f6)" d="M 336.821116 234.379421 
L 372.249688 234.379421 
L 372.249688 225.00928 
L 336.821116 225.00928 
z
" style="fill:#8484ff;stroke:#000000;stroke-linejoin:miter;"/>
   </g>
   <g id="matplotlib.axis_19"/>
   <g id="matplotlib.axis_20">
    <g id="ytick_19"/>
    <g id="ytick_20"/>
    <g id="text_10">
     <text style="font-family:DejaVu Sans;font-size:10px;font-style:normal;font-weight:normal;" transform="translate(11.129688 213.605808)"/>
     <text style="font-family:DejaVu Sans;font-size:10px;font-style:normal;font-weight:normal;" transform="translate(0 224.803621)">10   </text>
    </g>
   </g>
   <g id="patch_110">
    <path d="M 15.129688 236.253449 
L 15.129688 217.513167 
" style="fill:none;stroke:#000000;stroke-linecap:square;stroke-linejoin:miter;stroke-width:0.8;"/>
   </g>
   <g id="patch_111">
    <path d="M 372.249688 236.253449 
L 372.249688 217.513167 
" style="fill:none;stroke:#000000;stroke-linecap:square;stroke-linejoin:miter;stroke-width:0.8;"/>
   </g>
   <g id="patch_112">
    <path d="M 15.129688 236.253449 
L 372.249688 236.253449 
" style="fill:none;stroke:#000000;stroke-linecap:square;stroke-linejoin:miter;stroke-width:0.8;"/>
   </g>
   <g id="patch_113">
    <path d="M 15.129688 217.513167 
L 372.249688 217.513167 
" style="fill:none;stroke:#000000;stroke-linecap:square;stroke-linejoin:miter;stroke-width:0.8;"/>
   </g>
  </g>
  <g id="axes_11">
   <g id="patch_114">
    <path d="M 15.129688 258.741787 
L 372.249688 258.741787 
L 372.249688 240.001505 
L 15.129688 240.001505 
z
" style="fill:none;"/>
   </g>
   <g id="patch_115">
    <path clip-path="url(#p7d6f7b77c4)" d="M 25.049688 256.867759 
L 102.992545 256.867759 
L 102.992545 247.497618 
L 25.049688 247.497618 
z
" style="fill:#ff0000;stroke:#000000;stroke-linejoin:miter;"/>
   </g>
   <g id="patch_116">
    <path clip-path="url(#p7d6f7b77c4)" d="M 102.992545 256.867759 
L 180.935402 256.867759 
L 180.935402 247.497618 
L 102.992545 247.497618 
z
" style="fill:#00ff00;stroke:#000000;stroke-linejoin:miter;"/>
   </g>
   <g id="patch_117">
    <path clip-path="url(#p7d6f7b77c4)" d="M 180.935402 256.867759 
L 223.449688 256.867759 
L 223.449688 247.497618 
L 180.935402 247.497618 
z
" style="fill:#ff1ab9;stroke:#000000;stroke-linejoin:miter;"/>
   </g>
   <g id="patch_118">
    <path clip-path="url(#p7d6f7b77c4)" d="M 223.449688 256.867759 
L 280.135402 256.867759 
L 280.135402 247.497618 
L 223.449688 247.497618 
z
" style="fill:#ffd300;stroke:#000000;stroke-linejoin:miter;"/>
   </g>
   <g id="patch_119">
    <path clip-path="url(#p7d6f7b77c4)" d="M 280.135402 256.867759 
L 315.563973 256.867759 
L 315.563973 247.497618 
L 280.135402 247.497618 
z
" style="fill:#005800;stroke:#000000;stroke-linejoin:miter;"/>
   </g>
   <g id="patch_120">
    <path clip-path="url(#p7d6f7b77c4)" d="M 315.563973 256.867759 
L 372.249688 256.867759 
L 372.249688 247.497618 
L 315.563973 247.497618 
z
" style="fill:#8484ff;stroke:#000000;stroke-linejoin:miter;"/>
   </g>
   <g id="matplotlib.axis_21"/>
   <g id="matplotlib.axis_22">
    <g id="ytick_21"/>
    <g id="ytick_22"/>
    <g id="text_11">
     <text style="font-family:DejaVu Sans;font-size:10px;font-style:normal;font-weight:normal;" transform="translate(11.129688 236.094146)"/>
     <text style="font-family:DejaVu Sans;font-size:10px;font-style:normal;font-weight:normal;" transform="translate(0 247.291959)">11   </text>
    </g>
   </g>
   <g id="patch_121">
    <path d="M 15.129688 258.741787 
L 15.129688 240.001505 
" style="fill:none;stroke:#000000;stroke-linecap:square;stroke-linejoin:miter;stroke-width:0.8;"/>
   </g>
   <g id="patch_122">
    <path d="M 372.249688 258.741787 
L 372.249688 240.001505 
" style="fill:none;stroke:#000000;stroke-linecap:square;stroke-linejoin:miter;stroke-width:0.8;"/>
   </g>
   <g id="patch_123">
    <path d="M 15.129688 258.741787 
L 372.249688 258.741787 
" style="fill:none;stroke:#000000;stroke-linecap:square;stroke-linejoin:miter;stroke-width:0.8;"/>
   </g>
   <g id="patch_124">
    <path d="M 15.129688 240.001505 
L 372.249688 240.001505 
" style="fill:none;stroke:#000000;stroke-linecap:square;stroke-linejoin:miter;stroke-width:0.8;"/>
   </g>
  </g>
  <g id="axes_12">
   <g id="patch_125">
    <path d="M 15.129688 281.230125 
L 372.249688 281.230125 
L 372.249688 262.489843 
L 15.129688 262.489843 
z
" style="fill:none;"/>
   </g>
   <g id="patch_126">
    <path clip-path="url(#p628d89ec55)" d="M 32.135402 279.356097 
L 74.649688 279.356097 
L 74.649688 269.985956 
L 32.135402 269.985956 
z
" style="fill:#ff0000;stroke:#000000;stroke-linejoin:miter;"/>
   </g>
   <g id="patch_127">
    <path clip-path="url(#p628d89ec55)" d="M 74.649688 279.356097 
L 110.078259 279.356097 
L 110.078259 269.985956 
L 74.649688 269.985956 
z
" style="fill:#00ff00;stroke:#000000;stroke-linejoin:miter;"/>
   </g>
   <g id="patch_128">
    <path clip-path="url(#p628d89ec55)" d="M 110.078259 279.356097 
L 159.678259 279.356097 
L 159.678259 269.985956 
L 110.078259 269.985956 
z
" style="fill:#ff1ab9;stroke:#000000;stroke-linejoin:miter;"/>
   </g>
   <g id="patch_129">
    <path clip-path="url(#p628d89ec55)" d="M 159.678259 279.356097 
L 230.535402 279.356097 
L 230.535402 269.985956 
L 159.678259 269.985956 
z
" style="fill:#ffd300;stroke:#000000;stroke-linejoin:miter;"/>
   </g>
   <g id="patch_130">
    <path clip-path="url(#p628d89ec55)" d="M 230.535402 279.356097 
L 301.392545 279.356097 
L 301.392545 269.985956 
L 230.535402 269.985956 
z
" style="fill:#005800;stroke:#000000;stroke-linejoin:miter;"/>
   </g>
   <g id="patch_131">
    <path clip-path="url(#p628d89ec55)" d="M 301.392545 279.356097 
L 372.249688 279.356097 
L 372.249688 269.985956 
L 301.392545 269.985956 
z
" style="fill:#8484ff;stroke:#000000;stroke-linejoin:miter;"/>
   </g>
   <g id="matplotlib.axis_23">
    <g id="xtick_1">
     <g id="line2d_1">
      <defs>
       <path d="M 0 0 
L 0 3.5 
" id="m79d26bcea1" style="stroke:#000000;stroke-width:0.8;"/>
      </defs>
      <g>
       <use style="stroke:#000000;stroke-width:0.8;" x="17.963973" xlink:href="#m79d26bcea1" y="281.230125"/>
      </g>
     </g>
     <g id="text_12">
      <text style="font-family:DejaVu Sans;font-size:10px;font-style:normal;font-weight:normal;text-anchor:middle;" transform="rotate(-0, 17.963973, 295.828563)" x="17.963973" y="295.828563">0</text>
     </g>
    </g>
    <g id="xtick_2">
     <g id="line2d_2">
      <g>
       <use style="stroke:#000000;stroke-width:0.8;" x="74.649688" xlink:href="#m79d26bcea1" y="281.230125"/>
      </g>
     </g>
     <g id="text_13">
      <text style="font-family:DejaVu Sans;font-size:10px;font-style:normal;font-weight:normal;text-anchor:middle;" transform="rotate(-0, 74.649688, 295.828563)" x="74.649688" y="295.828563">20</text>
     </g>
    </g>
    <g id="xtick_3">
     <g id="line2d_3">
      <g>
       <use style="stroke:#000000;stroke-width:0.8;" x="131.335402" xlink:href="#m79d26bcea1" y="281.230125"/>
      </g>
     </g>
     <g id="text_14">
      <text style="font-family:DejaVu Sans;font-size:10px;font-style:normal;font-weight:normal;text-anchor:middle;" transform="rotate(-0, 131.335402, 295.828563)" x="131.335402" y="295.828563">40</text>
     </g>
    </g>
    <g id="xtick_4">
     <g id="line2d_4">
      <g>
       <use style="stroke:#000000;stroke-width:0.8;" x="188.021116" xlink:href="#m79d26bcea1" y="281.230125"/>
      </g>
     </g>
     <g id="text_15">
      <text style="font-family:DejaVu Sans;font-size:10px;font-style:normal;font-weight:normal;text-anchor:middle;" transform="rotate(-0, 188.021116, 295.828563)" x="188.021116" y="295.828563">60</text>
     </g>
    </g>
    <g id="xtick_5">
     <g id="line2d_5">
      <g>
       <use style="stroke:#000000;stroke-width:0.8;" x="244.70683" xlink:href="#m79d26bcea1" y="281.230125"/>
      </g>
     </g>
     <g id="text_16">
      <text style="font-family:DejaVu Sans;font-size:10px;font-style:normal;font-weight:normal;text-anchor:middle;" transform="rotate(-0, 244.70683, 295.828563)" x="244.70683" y="295.828563">80</text>
     </g>
    </g>
    <g id="xtick_6">
     <g id="line2d_6">
      <g>
       <use style="stroke:#000000;stroke-width:0.8;" x="301.392545" xlink:href="#m79d26bcea1" y="281.230125"/>
      </g>
     </g>
     <g id="text_17">
      <text style="font-family:DejaVu Sans;font-size:10px;font-style:normal;font-weight:normal;text-anchor:middle;" transform="rotate(-0, 301.392545, 295.828563)" x="301.392545" y="295.828563">100</text>
     </g>
    </g>
    <g id="xtick_7">
     <g id="line2d_7">
      <g>
       <use style="stroke:#000000;stroke-width:0.8;" x="358.078259" xlink:href="#m79d26bcea1" y="281.230125"/>
      </g>
     </g>
     <g id="text_18">
      <text style="font-family:DejaVu Sans;font-size:10px;font-style:normal;font-weight:normal;text-anchor:middle;" transform="rotate(-0, 358.078259, 295.828563)" x="358.078259" y="295.828563">120</text>
     </g>
    </g>
   </g>
   <g id="matplotlib.axis_24">
    <g id="ytick_23"/>
    <g id="ytick_24"/>
    <g id="text_19">
     <text style="font-family:DejaVu Sans;font-size:10px;font-style:normal;font-weight:normal;" transform="translate(11.129688 258.582484)"/>
     <text style="font-family:DejaVu Sans;font-size:10px;font-style:normal;font-weight:normal;" transform="translate(0 269.780297)">12   </text>
    </g>
   </g>
   <g id="patch_132">
    <path d="M 15.129688 281.230125 
L 15.129688 262.489843 
" style="fill:none;stroke:#000000;stroke-linecap:square;stroke-linejoin:miter;stroke-width:0.8;"/>
   </g>
   <g id="patch_133">
    <path d="M 372.249688 281.230125 
L 372.249688 262.489843 
" style="fill:none;stroke:#000000;stroke-linecap:square;stroke-linejoin:miter;stroke-width:0.8;"/>
   </g>
   <g id="patch_134">
    <path d="M 15.129688 281.230125 
L 372.249688 281.230125 
" style="fill:none;stroke:#000000;stroke-linecap:square;stroke-linejoin:miter;stroke-width:0.8;"/>
   </g>
   <g id="patch_135">
    <path d="M 15.129688 262.489843 
L 372.249688 262.489843 
" style="fill:none;stroke:#000000;stroke-linecap:square;stroke-linejoin:miter;stroke-width:0.8;"/>
   </g>
  </g>
 </g>
 <defs>
  <clipPath id="p0824f4047a">
   <rect height="18.740282" width="357.12" x="15.129688" y="15.118125"/>
  </clipPath>
  <clipPath id="p5b75e37454">
   <rect height="18.740282" width="357.12" x="15.129688" y="37.606463"/>
  </clipPath>
  <clipPath id="pa68eae6cc7">
   <rect height="18.740282" width="357.12" x="15.129688" y="60.094801"/>
  </clipPath>
  <clipPath id="pd9fb8f48ee">
   <rect height="18.740282" width="357.12" x="15.129688" y="82.583139"/>
  </clipPath>
  <clipPath id="p626c8f65c6">
   <rect height="18.740282" width="357.12" x="15.129688" y="105.071477"/>
  </clipPath>
  <clipPath id="p4399b3204b">
   <rect height="18.740282" width="357.12" x="15.129688" y="127.559815"/>
  </clipPath>
  <clipPath id="pc730264550">
   <rect height="18.740282" width="357.12" x="15.129688" y="150.048153"/>
  </clipPath>
  <clipPath id="p5dbc4364ef">
   <rect height="18.740282" width="357.12" x="15.129688" y="172.536491"/>
  </clipPath>
  <clipPath id="p0e5706a551">
   <rect height="18.740282" width="357.12" x="15.129688" y="195.024829"/>
  </clipPath>
  <clipPath id="p18a238b6f6">
   <rect height="18.740282" width="357.12" x="15.129688" y="217.513167"/>
  </clipPath>
  <clipPath id="p7d6f7b77c4">
   <rect height="18.740282" width="357.12" x="15.129688" y="240.001505"/>
  </clipPath>
  <clipPath id="p628d89ec55">
   <rect height="18.740282" width="357.12" x="15.129688" y="262.489843"/>
  </clipPath>
 </defs>
</svg>
