<?xml version="1.0" encoding="utf-8" standalone="no"?>
<!DOCTYPE svg PUBLIC "-//W3C//DTD SVG 1.1//EN"
  "http://www.w3.org/Graphics/SVG/1.1/DTD/svg11.dtd">
<!-- Created with matplotlib (https://matplotlib.org/) -->
<svg height="297.90825pt" version="1.1" viewBox="0 0 371.383038 297.90825" width="371.383038pt" xmlns="http://www.w3.org/2000/svg" xmlns:xlink="http://www.w3.org/1999/xlink">
 <defs>
  <style type="text/css">
*{stroke-linecap:butt;stroke-linejoin:round;}
  </style>
 </defs>
 <g id="figure_1">
  <g id="patch_1">
   <path d="M 0 297.90825 
L 371.383038 297.90825 
L 371.383038 0 
L 0 0 
z
" style="fill:none;"/>
  </g>
  <g id="axes_1">
   <g id="patch_2">
    <path d="M 11.948438 53.134125 
L 369.068438 53.134125 
L 369.068438 15.118125 
L 11.948438 15.118125 
z
" style="fill:none;"/>
   </g>
   <g id="patch_3">
    <path clip-path="url(#p52a5f5d777)" d="M 22.069247 49.332525 
L 72.673296 49.332525 
L 72.673296 30.324525 
L 22.069247 30.324525 
z
" style="fill:#ff0000;stroke:#000000;stroke-linejoin:miter;"/>
   </g>
   <g id="patch_4">
    <path clip-path="url(#p52a5f5d777)" d="M 72.673296 49.332525 
L 116.048195 49.332525 
L 116.048195 30.324525 
L 72.673296 30.324525 
z
" style="fill:#00ff00;stroke:#000000;stroke-linejoin:miter;"/>
   </g>
   <g id="patch_5">
    <path clip-path="url(#p52a5f5d777)" d="M 116.048195 49.332525 
L 173.881393 49.332525 
L 173.881393 30.324525 
L 116.048195 30.324525 
z
" style="fill:#ff1ab9;stroke:#000000;stroke-linejoin:miter;"/>
   </g>
   <g id="patch_6">
    <path clip-path="url(#p52a5f5d777)" d="M 173.881393 49.332525 
L 217.256292 49.332525 
L 217.256292 30.324525 
L 173.881393 30.324525 
z
" style="fill:#ffd300;stroke:#000000;stroke-linejoin:miter;"/>
   </g>
   <g id="patch_7">
    <path clip-path="url(#p52a5f5d777)" d="M 217.256292 49.332525 
L 296.77694 49.332525 
L 296.77694 30.324525 
L 217.256292 30.324525 
z
" style="fill:#005800;stroke:#000000;stroke-linejoin:miter;"/>
   </g>
   <g id="patch_8">
    <path clip-path="url(#p52a5f5d777)" d="M 296.77694 49.332525 
L 332.922689 49.332525 
L 332.922689 30.324525 
L 296.77694 30.324525 
z
" style="fill:#8484ff;stroke:#000000;stroke-linejoin:miter;"/>
   </g>
   <g id="patch_9">
    <path clip-path="url(#p52a5f5d777)" d="M 332.922689 49.332525 
L 369.068438 49.332525 
L 369.068438 30.324525 
L 332.922689 30.324525 
z
" style="fill:#9e4f46;stroke:#000000;stroke-linejoin:miter;"/>
   </g>
   <g id="matplotlib.axis_1"/>
   <g id="matplotlib.axis_2">
    <g id="ytick_1"/>
    <g id="ytick_2"/>
   </g>
   <g id="patch_10">
    <path d="M 11.948438 53.134125 
L 11.948438 15.118125 
" style="fill:none;stroke:#000000;stroke-linecap:square;stroke-linejoin:miter;stroke-width:0.8;"/>
   </g>
   <g id="patch_11">
    <path d="M 369.068438 53.134125 
L 369.068438 15.118125 
" style="fill:none;stroke:#000000;stroke-linecap:square;stroke-linejoin:miter;stroke-width:0.8;"/>
   </g>
   <g id="patch_12">
    <path d="M 11.948438 53.134125 
L 369.068438 53.134125 
" style="fill:none;stroke:#000000;stroke-linecap:square;stroke-linejoin:miter;stroke-width:0.8;"/>
   </g>
   <g id="patch_13">
    <path d="M 11.948438 15.118125 
L 369.068438 15.118125 
" style="fill:none;stroke:#000000;stroke-linecap:square;stroke-linejoin:miter;stroke-width:0.8;"/>
   </g>
   <g id="text_1">
    <text style="font-family:DejaVu Sans;font-size:12px;font-style:normal;font-weight:normal;text-anchor:middle;" transform="rotate(-0, 190.508438, 9.118125)" x="190.508438" y="9.118125">Chr 11</text>
   </g>
  </g>
  <g id="axes_2">
   <g id="patch_14">
    <path d="M 11.948438 98.753325 
L 369.068438 98.753325 
L 369.068438 60.737325 
L 11.948438 60.737325 
z
" style="fill:none;"/>
   </g>
   <g id="patch_15">
    <path clip-path="url(#p65e3ecc941)" d="M 22.069247 94.951725 
L 87.131595 94.951725 
L 87.131595 75.943725 
L 22.069247 75.943725 
z
" style="fill:#ff0000;stroke:#000000;stroke-linejoin:miter;"/>
   </g>
   <g id="patch_16">
    <path clip-path="url(#p65e3ecc941)" d="M 87.131595 94.951725 
L 159.423093 94.951725 
L 159.423093 75.943725 
L 87.131595 75.943725 
z
" style="fill:#00ff00;stroke:#000000;stroke-linejoin:miter;"/>
   </g>
   <g id="patch_17">
    <path clip-path="url(#p65e3ecc941)" d="M 159.423093 94.951725 
L 202.797992 94.951725 
L 202.797992 75.943725 
L 159.423093 75.943725 
z
" style="fill:#ff1ab9;stroke:#000000;stroke-linejoin:miter;"/>
   </g>
   <g id="patch_18">
    <path clip-path="url(#p65e3ecc941)" d="M 202.797992 94.951725 
L 253.402041 94.951725 
L 253.402041 75.943725 
L 202.797992 75.943725 
z
" style="fill:#ffd300;stroke:#000000;stroke-linejoin:miter;"/>
   </g>
   <g id="patch_19">
    <path clip-path="url(#p65e3ecc941)" d="M 253.402041 94.951725 
L 304.006089 94.951725 
L 304.006089 75.943725 
L 253.402041 75.943725 
z
" style="fill:#005800;stroke:#000000;stroke-linejoin:miter;"/>
   </g>
   <g id="patch_20">
    <path clip-path="url(#p65e3ecc941)" d="M 304.006089 94.951725 
L 369.068438 94.951725 
L 369.068438 75.943725 
L 304.006089 75.943725 
z
" style="fill:#8484ff;stroke:#000000;stroke-linejoin:miter;"/>
   </g>
   <g id="matplotlib.axis_3"/>
   <g id="matplotlib.axis_4">
    <g id="ytick_3"/>
    <g id="ytick_4"/>
    <g id="text_2">
     <text style="font-family:DejaVu Sans;font-size:10px;font-style:normal;font-weight:normal;" transform="translate(7.948438 66.467825)"/>
     <text style="font-family:DejaVu Sans;font-size:10px;font-style:normal;font-weight:normal;" transform="translate(0 77.665638)">2   </text>
    </g>
   </g>
   <g id="patch_21">
    <path d="M 11.948438 98.753325 
L 11.948438 60.737325 
" style="fill:none;stroke:#000000;stroke-linecap:square;stroke-linejoin:miter;stroke-width:0.8;"/>
   </g>
   <g id="patch_22">
    <path d="M 369.068438 98.753325 
L 369.068438 60.737325 
" style="fill:none;stroke:#000000;stroke-linecap:square;stroke-linejoin:miter;stroke-width:0.8;"/>
   </g>
   <g id="patch_23">
    <path d="M 11.948438 98.753325 
L 369.068438 98.753325 
" style="fill:none;stroke:#000000;stroke-linecap:square;stroke-linejoin:miter;stroke-width:0.8;"/>
   </g>
   <g id="patch_24">
    <path d="M 11.948438 60.737325 
L 369.068438 60.737325 
" style="fill:none;stroke:#000000;stroke-linecap:square;stroke-linejoin:miter;stroke-width:0.8;"/>
   </g>
  </g>
  <g id="axes_3">
   <g id="patch_25">
    <path d="M 11.948438 144.372525 
L 369.068438 144.372525 
L 369.068438 106.356525 
L 11.948438 106.356525 
z
" style="fill:none;"/>
   </g>
   <g id="patch_26">
    <path clip-path="url(#p3883e1ed54)" d="M 22.069247 140.570925 
L 87.131595 140.570925 
L 87.131595 121.562925 
L 22.069247 121.562925 
z
" style="fill:#ff0000;stroke:#000000;stroke-linejoin:miter;"/>
   </g>
   <g id="patch_27">
    <path clip-path="url(#p3883e1ed54)" d="M 87.131595 140.570925 
L 123.277344 140.570925 
L 123.277344 121.562925 
L 87.131595 121.562925 
z
" style="fill:#00ff00;stroke:#000000;stroke-linejoin:miter;"/>
   </g>
   <g id="patch_28">
    <path clip-path="url(#p3883e1ed54)" d="M 123.277344 140.570925 
L 173.881393 140.570925 
L 173.881393 121.562925 
L 123.277344 121.562925 
z
" style="fill:#ff1ab9;stroke:#000000;stroke-linejoin:miter;"/>
   </g>
   <g id="patch_29">
    <path clip-path="url(#p3883e1ed54)" d="M 173.881393 140.570925 
L 238.943741 140.570925 
L 238.943741 121.562925 
L 173.881393 121.562925 
z
" style="fill:#ffd300;stroke:#000000;stroke-linejoin:miter;"/>
   </g>
   <g id="patch_30">
    <path clip-path="url(#p3883e1ed54)" d="M 238.943741 140.570925 
L 304.006089 140.570925 
L 304.006089 121.562925 
L 238.943741 121.562925 
z
" style="fill:#005800;stroke:#000000;stroke-linejoin:miter;"/>
   </g>
   <g id="patch_31">
    <path clip-path="url(#p3883e1ed54)" d="M 304.006089 140.570925 
L 369.068438 140.570925 
L 369.068438 121.562925 
L 304.006089 121.562925 
z
" style="fill:#8484ff;stroke:#000000;stroke-linejoin:miter;"/>
   </g>
   <g id="matplotlib.axis_5"/>
   <g id="matplotlib.axis_6">
    <g id="ytick_5"/>
    <g id="ytick_6"/>
    <g id="text_3">
     <text style="font-family:DejaVu Sans;font-size:10px;font-style:normal;font-weight:normal;" transform="translate(7.948438 112.087025)"/>
     <text style="font-family:DejaVu Sans;font-size:10px;font-style:normal;font-weight:normal;" transform="translate(0 123.284838)">3   </text>
    </g>
   </g>
   <g id="patch_32">
    <path d="M 11.948438 144.372525 
L 11.948438 106.356525 
" style="fill:none;stroke:#000000;stroke-linecap:square;stroke-linejoin:miter;stroke-width:0.8;"/>
   </g>
   <g id="patch_33">
    <path d="M 369.068438 144.372525 
L 369.068438 106.356525 
" style="fill:none;stroke:#000000;stroke-linecap:square;stroke-linejoin:miter;stroke-width:0.8;"/>
   </g>
   <g id="patch_34">
    <path d="M 11.948438 144.372525 
L 369.068438 144.372525 
" style="fill:none;stroke:#000000;stroke-linecap:square;stroke-linejoin:miter;stroke-width:0.8;"/>
   </g>
   <g id="patch_35">
    <path d="M 11.948438 106.356525 
L 369.068438 106.356525 
" style="fill:none;stroke:#000000;stroke-linecap:square;stroke-linejoin:miter;stroke-width:0.8;"/>
   </g>
  </g>
  <g id="axes_4">
   <g id="patch_36">
    <path d="M 11.948438 189.991725 
L 369.068438 189.991725 
L 369.068438 151.975725 
L 11.948438 151.975725 
z
" style="fill:none;"/>
   </g>
   <g id="patch_37">
    <path clip-path="url(#p3e6d65cebc)" d="M 22.069247 186.190125 
L 108.819045 186.190125 
L 108.819045 167.182125 
L 22.069247 167.182125 
z
" style="fill:#ff0000;stroke:#000000;stroke-linejoin:miter;"/>
   </g>
   <g id="patch_38">
    <path clip-path="url(#p3e6d65cebc)" d="M 108.819045 186.190125 
L 181.110543 186.190125 
L 181.110543 167.182125 
L 108.819045 167.182125 
z
" style="fill:#00ff00;stroke:#000000;stroke-linejoin:miter;"/>
   </g>
   <g id="patch_39">
    <path clip-path="url(#p3e6d65cebc)" d="M 181.110543 186.190125 
L 238.943741 186.190125 
L 238.943741 167.182125 
L 181.110543 167.182125 
z
" style="fill:#ff1ab9;stroke:#000000;stroke-linejoin:miter;"/>
   </g>
   <g id="patch_40">
    <path clip-path="url(#p3e6d65cebc)" d="M 238.943741 186.190125 
L 275.08949 186.190125 
L 275.08949 167.182125 
L 238.943741 167.182125 
z
" style="fill:#ffd300;stroke:#000000;stroke-linejoin:miter;"/>
   </g>
   <g id="patch_41">
    <path clip-path="url(#p3e6d65cebc)" d="M 275.08949 186.190125 
L 332.922689 186.190125 
L 332.922689 167.182125 
L 275.08949 167.182125 
z
" style="fill:#005800;stroke:#000000;stroke-linejoin:miter;"/>
   </g>
   <g id="patch_42">
    <path clip-path="url(#p3e6d65cebc)" d="M 332.922689 186.190125 
L 369.068438 186.190125 
L 369.068438 167.182125 
L 332.922689 167.182125 
z
" style="fill:#8484ff;stroke:#000000;stroke-linejoin:miter;"/>
   </g>
   <g id="matplotlib.axis_7"/>
   <g id="matplotlib.axis_8">
    <g id="ytick_7"/>
    <g id="ytick_8"/>
    <g id="text_4">
     <text style="font-family:DejaVu Sans;font-size:10px;font-style:normal;font-weight:normal;" transform="translate(7.948438 157.706225)"/>
     <text style="font-family:DejaVu Sans;font-size:10px;font-style:normal;font-weight:normal;" transform="translate(0 168.904038)">4   </text>
    </g>
   </g>
   <g id="patch_43">
    <path d="M 11.948438 189.991725 
L 11.948438 151.975725 
" style="fill:none;stroke:#000000;stroke-linecap:square;stroke-linejoin:miter;stroke-width:0.8;"/>
   </g>
   <g id="patch_44">
    <path d="M 369.068438 189.991725 
L 369.068438 151.975725 
" style="fill:none;stroke:#000000;stroke-linecap:square;stroke-linejoin:miter;stroke-width:0.8;"/>
   </g>
   <g id="patch_45">
    <path d="M 11.948438 189.991725 
L 369.068438 189.991725 
" style="fill:none;stroke:#000000;stroke-linecap:square;stroke-linejoin:miter;stroke-width:0.8;"/>
   </g>
   <g id="patch_46">
    <path d="M 11.948438 151.975725 
L 369.068438 151.975725 
" style="fill:none;stroke:#000000;stroke-linecap:square;stroke-linejoin:miter;stroke-width:0.8;"/>
   </g>
  </g>
  <g id="axes_5">
   <g id="patch_47">
    <path d="M 11.948438 235.610925 
L 369.068438 235.610925 
L 369.068438 197.594925 
L 11.948438 197.594925 
z
" style="fill:none;"/>
   </g>
   <g id="patch_48">
    <path clip-path="url(#p7649480d4e)" d="M 22.069247 231.809325 
L 50.985846 231.809325 
L 50.985846 212.801325 
L 22.069247 212.801325 
z
" style="fill:#ff0000;stroke:#000000;stroke-linejoin:miter;"/>
   </g>
   <g id="patch_49">
    <path clip-path="url(#p7649480d4e)" d="M 50.985846 231.809325 
L 72.673296 231.809325 
L 72.673296 212.801325 
L 50.985846 212.801325 
z
" style="fill:#00ff00;stroke:#000000;stroke-linejoin:miter;"/>
   </g>
   <g id="patch_50">
    <path clip-path="url(#p7649480d4e)" d="M 72.673296 231.809325 
L 116.048195 231.809325 
L 116.048195 212.801325 
L 72.673296 212.801325 
z
" style="fill:#ff1ab9;stroke:#000000;stroke-linejoin:miter;"/>
   </g>
   <g id="patch_51">
    <path clip-path="url(#p7649480d4e)" d="M 116.048195 231.809325 
L 152.193944 231.809325 
L 152.193944 212.801325 
L 116.048195 212.801325 
z
" style="fill:#ffd300;stroke:#000000;stroke-linejoin:miter;"/>
   </g>
   <g id="patch_52">
    <path clip-path="url(#p7649480d4e)" d="M 152.193944 231.809325 
L 224.485442 231.809325 
L 224.485442 212.801325 
L 152.193944 212.801325 
z
" style="fill:#005800;stroke:#000000;stroke-linejoin:miter;"/>
   </g>
   <g id="patch_53">
    <path clip-path="url(#p7649480d4e)" d="M 224.485442 231.809325 
L 304.006089 231.809325 
L 304.006089 212.801325 
L 224.485442 212.801325 
z
" style="fill:#8484ff;stroke:#000000;stroke-linejoin:miter;"/>
   </g>
   <g id="patch_54">
    <path clip-path="url(#p7649480d4e)" d="M 304.006089 231.809325 
L 369.068438 231.809325 
L 369.068438 212.801325 
L 304.006089 212.801325 
z
" style="fill:#9e4f46;stroke:#000000;stroke-linejoin:miter;"/>
   </g>
   <g id="matplotlib.axis_9"/>
   <g id="matplotlib.axis_10">
    <g id="ytick_9"/>
    <g id="ytick_10"/>
    <g id="text_5">
     <text style="font-family:DejaVu Sans;font-size:10px;font-style:normal;font-weight:normal;" transform="translate(7.948438 203.325425)"/>
     <text style="font-family:DejaVu Sans;font-size:10px;font-style:normal;font-weight:normal;" transform="translate(0 214.523238)">5   </text>
    </g>
   </g>
   <g id="patch_55">
    <path d="M 11.948438 235.610925 
L 11.948438 197.594925 
" style="fill:none;stroke:#000000;stroke-linecap:square;stroke-linejoin:miter;stroke-width:0.8;"/>
   </g>
   <g id="patch_56">
    <path d="M 369.068438 235.610925 
L 369.068438 197.594925 
" style="fill:none;stroke:#000000;stroke-linecap:square;stroke-linejoin:miter;stroke-width:0.8;"/>
   </g>
   <g id="patch_57">
    <path d="M 11.948438 235.610925 
L 369.068438 235.610925 
" style="fill:none;stroke:#000000;stroke-linecap:square;stroke-linejoin:miter;stroke-width:0.8;"/>
   </g>
   <g id="patch_58">
    <path d="M 11.948438 197.594925 
L 369.068438 197.594925 
" style="fill:none;stroke:#000000;stroke-linecap:square;stroke-linejoin:miter;stroke-width:0.8;"/>
   </g>
  </g>
  <g id="axes_6">
   <g id="patch_59">
    <path d="M 11.948438 281.230125 
L 369.068438 281.230125 
L 369.068438 243.214125 
L 11.948438 243.214125 
z
" style="fill:none;"/>
   </g>
   <g id="patch_60">
    <path clip-path="url(#pc46eb119a1)" d="M 22.069247 277.428525 
L 72.673296 277.428525 
L 72.673296 258.420525 
L 22.069247 258.420525 
z
" style="fill:#ff0000;stroke:#000000;stroke-linejoin:miter;"/>
   </g>
   <g id="patch_61">
    <path clip-path="url(#pc46eb119a1)" d="M 72.673296 277.428525 
L 137.735644 277.428525 
L 137.735644 258.420525 
L 72.673296 258.420525 
z
" style="fill:#00ff00;stroke:#000000;stroke-linejoin:miter;"/>
   </g>
   <g id="patch_62">
    <path clip-path="url(#pc46eb119a1)" d="M 137.735644 277.428525 
L 195.568842 277.428525 
L 195.568842 258.420525 
L 137.735644 258.420525 
z
" style="fill:#ff1ab9;stroke:#000000;stroke-linejoin:miter;"/>
   </g>
   <g id="patch_63">
    <path clip-path="url(#pc46eb119a1)" d="M 195.568842 277.428525 
L 231.714591 277.428525 
L 231.714591 258.420525 
L 195.568842 258.420525 
z
" style="fill:#ffd300;stroke:#000000;stroke-linejoin:miter;"/>
   </g>
   <g id="patch_64">
    <path clip-path="url(#pc46eb119a1)" d="M 231.714591 277.428525 
L 282.31864 277.428525 
L 282.31864 258.420525 
L 231.714591 258.420525 
z
" style="fill:#005800;stroke:#000000;stroke-linejoin:miter;"/>
   </g>
   <g id="patch_65">
    <path clip-path="url(#pc46eb119a1)" d="M 282.31864 277.428525 
L 332.922689 277.428525 
L 332.922689 258.420525 
L 282.31864 258.420525 
z
" style="fill:#8484ff;stroke:#000000;stroke-linejoin:miter;"/>
   </g>
   <g id="patch_66">
    <path clip-path="url(#pc46eb119a1)" d="M 332.922689 277.428525 
L 369.068438 277.428525 
L 369.068438 258.420525 
L 332.922689 258.420525 
z
" style="fill:#9e4f46;stroke:#000000;stroke-linejoin:miter;"/>
   </g>
   <g id="matplotlib.axis_11">
    <g id="xtick_1">
     <g id="line2d_1">
      <defs>
       <path d="M 0 0 
L 0 3.5 
" id="m338e5b9a02" style="stroke:#000000;stroke-width:0.8;"/>
      </defs>
      <g>
       <use style="stroke:#000000;stroke-width:0.8;" x="14.840097" xlink:href="#m338e5b9a02" y="281.230125"/>
      </g>
     </g>
     <g id="text_6">
      <text style="font-family:DejaVu Sans;font-size:10px;font-style:normal;font-weight:normal;text-anchor:middle;" transform="rotate(-0, 14.840097, 295.828563)" x="14.840097" y="295.828563">0</text>
     </g>
    </g>
    <g id="xtick_2">
     <g id="line2d_2">
      <g>
       <use style="stroke:#000000;stroke-width:0.8;" x="72.673296" xlink:href="#m338e5b9a02" y="281.230125"/>
      </g>
     </g>
     <g id="text_7">
      <text style="font-family:DejaVu Sans;font-size:10px;font-style:normal;font-weight:normal;text-anchor:middle;" transform="rotate(-0, 72.673296, 295.828563)" x="72.673296" y="295.828563">20</text>
     </g>
    </g>
    <g id="xtick_3">
     <g id="line2d_3">
      <g>
       <use style="stroke:#000000;stroke-width:0.8;" x="130.506494" xlink:href="#m338e5b9a02" y="281.230125"/>
      </g>
     </g>
     <g id="text_8">
      <text style="font-family:DejaVu Sans;font-size:10px;font-style:normal;font-weight:normal;text-anchor:middle;" transform="rotate(-0, 130.506494, 295.828563)" x="130.506494" y="295.828563">40</text>
     </g>
    </g>
    <g id="xtick_4">
     <g id="line2d_4">
      <g>
       <use style="stroke:#000000;stroke-width:0.8;" x="188.339693" xlink:href="#m338e5b9a02" y="281.230125"/>
      </g>
     </g>
     <g id="text_9">
      <text style="font-family:DejaVu Sans;font-size:10px;font-style:normal;font-weight:normal;text-anchor:middle;" transform="rotate(-0, 188.339693, 295.828563)" x="188.339693" y="295.828563">60</text>
     </g>
    </g>
    <g id="xtick_5">
     <g id="line2d_5">
      <g>
       <use style="stroke:#000000;stroke-width:0.8;" x="246.172891" xlink:href="#m338e5b9a02" y="281.230125"/>
      </g>
     </g>
     <g id="text_10">
      <text style="font-family:DejaVu Sans;font-size:10px;font-style:normal;font-weight:normal;text-anchor:middle;" transform="rotate(-0, 246.172891, 295.828563)" x="246.172891" y="295.828563">80</text>
     </g>
    </g>
    <g id="xtick_6">
     <g id="line2d_6">
      <g>
       <use style="stroke:#000000;stroke-width:0.8;" x="304.006089" xlink:href="#m338e5b9a02" y="281.230125"/>
      </g>
     </g>
     <g id="text_11">
      <text style="font-family:DejaVu Sans;font-size:10px;font-style:normal;font-weight:normal;text-anchor:middle;" transform="rotate(-0, 304.006089, 295.828563)" x="304.006089" y="295.828563">100</text>
     </g>
    </g>
    <g id="xtick_7">
     <g id="line2d_7">
      <g>
       <use style="stroke:#000000;stroke-width:0.8;" x="361.839288" xlink:href="#m338e5b9a02" y="281.230125"/>
      </g>
     </g>
     <g id="text_12">
      <text style="font-family:DejaVu Sans;font-size:10px;font-style:normal;font-weight:normal;text-anchor:middle;" transform="rotate(-0, 361.839288, 295.828563)" x="361.839288" y="295.828563">120</text>
     </g>
    </g>
   </g>
   <g id="matplotlib.axis_12">
    <g id="ytick_11"/>
    <g id="ytick_12"/>
    <g id="text_13">
     <text style="font-family:DejaVu Sans;font-size:10px;font-style:normal;font-weight:normal;" transform="translate(7.948438 248.944625)"/>
     <text style="font-family:DejaVu Sans;font-size:10px;font-style:normal;font-weight:normal;" transform="translate(0 260.142438)">6   </text>
    </g>
   </g>
   <g id="patch_67">
    <path d="M 11.948438 281.230125 
L 11.948438 243.214125 
" style="fill:none;stroke:#000000;stroke-linecap:square;stroke-linejoin:miter;stroke-width:0.8;"/>
   </g>
   <g id="patch_68">
    <path d="M 369.068438 281.230125 
L 369.068438 243.214125 
" style="fill:none;stroke:#000000;stroke-linecap:square;stroke-linejoin:miter;stroke-width:0.8;"/>
   </g>
   <g id="patch_69">
    <path d="M 11.948438 281.230125 
L 369.068438 281.230125 
" style="fill:none;stroke:#000000;stroke-linecap:square;stroke-linejoin:miter;stroke-width:0.8;"/>
   </g>
   <g id="patch_70">
    <path d="M 11.948438 243.214125 
L 369.068438 243.214125 
" style="fill:none;stroke:#000000;stroke-linecap:square;stroke-linejoin:miter;stroke-width:0.8;"/>
   </g>
  </g>
 </g>
 <defs>
  <clipPath id="p52a5f5d777">
   <rect height="38.016" width="357.12" x="11.948438" y="15.118125"/>
  </clipPath>
  <clipPath id="p65e3ecc941">
   <rect height="38.016" width="357.12" x="11.948438" y="60.737325"/>
  </clipPath>
  <clipPath id="p3883e1ed54">
   <rect height="38.016" width="357.12" x="11.948438" y="106.356525"/>
  </clipPath>
  <clipPath id="p3e6d65cebc">
   <rect height="38.016" width="357.12" x="11.948438" y="151.975725"/>
  </clipPath>
  <clipPath id="p7649480d4e">
   <rect height="38.016" width="357.12" x="11.948438" y="197.594925"/>
  </clipPath>
  <clipPath id="pc46eb119a1">
   <rect height="38.016" width="357.12" x="11.948438" y="243.214125"/>
  </clipPath>
 </defs>
</svg>
