<?xml version="1.0" encoding="utf-8" standalone="no"?>
<!DOCTYPE svg PUBLIC "-//W3C//DTD SVG 1.1//EN"
  "http://www.w3.org/Graphics/SVG/1.1/DTD/svg11.dtd">
<!-- Created with matplotlib (https://matplotlib.org/) -->
<svg height="345.6pt" version="1.1" viewBox="0 0 460.8 345.6" width="460.8pt" xmlns="http://www.w3.org/2000/svg" xmlns:xlink="http://www.w3.org/1999/xlink">
 <defs>
  <style type="text/css">
*{stroke-linecap:butt;stroke-linejoin:round;}
  </style>
 </defs>
 <g id="figure_1">
  <g id="patch_1">
   <path d="M 0 345.6 
L 460.8 345.6 
L 460.8 0 
L 0 0 
z
" style="fill:#ffffff;"/>
  </g>
  <g id="axes_1">
   <g id="patch_2">
    <path d="M 57.6 307.584 
L 414.72 307.584 
L 414.72 41.472 
L 57.6 41.472 
z
" style="fill:#ffffff;"/>
   </g>
   <g id="PolyCollection_1">
    <defs>
     <path d="M 147.180976 -94.57443 
L 146.579024 -94.57443 
L 146.457913 -95.340528 
L 146.306237 -96.106627 
L 146.123955 -96.872725 
L 145.914204 -97.638824 
L 145.683792 -98.404922 
L 145.443161 -99.171021 
L 145.205657 -99.937119 
L 144.986078 -100.703218 
L 144.798609 -101.469316 
L 144.654432 -102.235415 
L 144.559407 -103.001513 
L 144.512263 -103.767612 
L 144.503691 -104.53371 
L 144.516551 -105.299809 
L 144.527242 -106.065907 
L 144.507997 -106.832006 
L 144.429754 -107.598104 
L 144.265059 -108.364203 
L 143.990519 -109.130301 
L 143.588366 -109.8964 
L 143.046851 -110.662498 
L 142.359428 -111.428597 
L 141.522891 -112.194695 
L 140.534836 -112.960794 
L 139.390962 -113.726892 
L 138.082771 -114.492991 
L 136.596195 -115.259089 
L 134.91152 -116.025188 
L 133.004776 -116.791286 
L 130.850525 -117.557385 
L 128.425724 -118.323483 
L 125.714171 -119.089582 
L 122.710862 -119.85568 
L 119.425601 -120.621779 
L 115.885202 -121.387877 
L 112.133834 -122.153976 
L 108.231334 -122.920074 
L 104.249682 -123.686173 
L 100.268186 -124.452271 
L 96.368219 -125.21837 
L 92.628425 -125.984468 
L 89.12114 -126.750567 
L 85.910451 -127.516665 
L 83.051801 -128.282764 
L 80.592645 -129.048862 
L 78.573396 -129.814961 
L 77.027908 -130.581059 
L 75.982974 -131.347158 
L 75.4567 -132.113256 
L 75.456 -132.879355 
L 75.973782 -133.645453 
L 76.986522 -134.411552 
L 78.452961 -135.17765 
L 80.314534 -135.943749 
L 82.497965 -136.709847 
L 84.920144 -137.475946 
L 87.495004 -138.242044 
L 90.141662 -139.008143 
L 92.792594 -139.774241 
L 95.400341 -140.54034 
L 97.94125 -141.306438 
L 100.415211 -142.072536 
L 102.841143 -142.838635 
L 105.249011 -143.604733 
L 107.670028 -144.370832 
L 110.127219 -145.13693 
L 112.628389 -145.903029 
L 115.162945 -146.669127 
L 117.702926 -147.435226 
L 120.207621 -148.201324 
L 122.630313 -148.967423 
L 124.925434 -149.733521 
L 127.05463 -150.49962 
L 128.990778 -151.265718 
L 130.719718 -152.031817 
L 132.239985 -152.797915 
L 133.561191 -153.564014 
L 134.701695 -154.330112 
L 135.686069 -155.096211 
L 136.542639 -155.862309 
L 137.301182 -156.628408 
L 137.99079 -157.394506 
L 138.637902 -158.160605 
L 139.264595 -158.926703 
L 139.887244 -159.692802 
L 140.515719 -160.4589 
L 141.153208 -161.224999 
L 141.796727 -161.991097 
L 142.438235 -162.757196 
L 143.066208 -163.523294 
L 143.667468 -164.289393 
L 144.22902 -165.055491 
L 144.739656 -165.82159 
L 145.191158 -166.587688 
L 145.578974 -167.353787 
L 145.902346 -168.119885 
L 146.163958 -168.885984 
L 146.369216 -169.652082 
L 146.525344 -170.418181 
L 147.234656 -170.418181 
L 147.234656 -170.418181 
L 147.390784 -169.652082 
L 147.596042 -168.885984 
L 147.857654 -168.119885 
L 148.181026 -167.353787 
L 148.568842 -166.587688 
L 149.020344 -165.82159 
L 149.53098 -165.055491 
L 150.092532 -164.289393 
L 150.693792 -163.523294 
L 151.321765 -162.757196 
L 151.963273 -161.991097 
L 152.606792 -161.224999 
L 153.244281 -160.4589 
L 153.872756 -159.692802 
L 154.495405 -158.926703 
L 155.122098 -158.160605 
L 155.76921 -157.394506 
L 156.458818 -156.628408 
L 157.217361 -155.862309 
L 158.073931 -155.096211 
L 159.058305 -154.330112 
L 160.198809 -153.564014 
L 161.520015 -152.797915 
L 163.040282 -152.031817 
L 164.769222 -151.265718 
L 166.70537 -150.49962 
L 168.834566 -149.733521 
L 171.129687 -148.967423 
L 173.552379 -148.201324 
L 176.057074 -147.435226 
L 178.597055 -146.669127 
L 181.131611 -145.903029 
L 183.632781 -145.13693 
L 186.089972 -144.370832 
L 188.510989 -143.604733 
L 190.918857 -142.838635 
L 193.344789 -142.072536 
L 195.81875 -141.306438 
L 198.359659 -140.54034 
L 200.967406 -139.774241 
L 203.618338 -139.008143 
L 206.264996 -138.242044 
L 208.839856 -137.475946 
L 211.262035 -136.709847 
L 213.445466 -135.943749 
L 215.307039 -135.17765 
L 216.773478 -134.411552 
L 217.786218 -133.645453 
L 218.304 -132.879355 
L 218.3033 -132.113256 
L 217.777026 -131.347158 
L 216.732092 -130.581059 
L 215.186604 -129.814961 
L 213.167355 -129.048862 
L 210.708199 -128.282764 
L 207.849549 -127.516665 
L 204.63886 -126.750567 
L 201.131575 -125.984468 
L 197.391781 -125.21837 
L 193.491814 -124.452271 
L 189.510318 -123.686173 
L 185.528666 -122.920074 
L 181.626166 -122.153976 
L 177.874798 -121.387877 
L 174.334399 -120.621779 
L 171.049138 -119.85568 
L 168.045829 -119.089582 
L 165.334276 -118.323483 
L 162.909475 -117.557385 
L 160.755224 -116.791286 
L 158.84848 -116.025188 
L 157.163805 -115.259089 
L 155.677229 -114.492991 
L 154.369038 -113.726892 
L 153.225164 -112.960794 
L 152.237109 -112.194695 
L 151.400572 -111.428597 
L 150.713149 -110.662498 
L 150.171634 -109.8964 
L 149.769481 -109.130301 
L 149.494941 -108.364203 
L 149.330246 -107.598104 
L 149.252003 -106.832006 
L 149.232758 -106.065907 
L 149.243449 -105.299809 
L 149.256309 -104.53371 
L 149.247737 -103.767612 
L 149.200593 -103.001513 
L 149.105568 -102.235415 
L 148.961391 -101.469316 
L 148.773922 -100.703218 
L 148.554343 -99.937119 
L 148.316839 -99.171021 
L 148.076208 -98.404922 
L 147.845796 -97.638824 
L 147.636045 -96.872725 
L 147.453763 -96.106627 
L 147.302087 -95.340528 
L 147.180976 -94.57443 
z
" id="m223e23124e" style="stroke:#262626;stroke-width:2.5;"/>
    </defs>
    <g clip-path="url(#p9f899be2b2)">
     <use style="fill:#008000;stroke:#262626;stroke-width:2.5;" x="0" xlink:href="#m223e23124e" y="345.6"/>
    </g>
   </g>
   <g id="PolyCollection_2">
    <defs>
     <path d="M 325.459872 -50.112 
L 325.420128 -50.112 
L 325.404055 -52.555636 
L 325.380138 -54.999273 
L 325.347586 -57.442909 
L 325.306257 -59.886545 
L 325.255429 -62.330182 
L 325.191551 -64.773818 
L 325.106019 -67.217455 
L 324.98468 -69.661091 
L 324.81026 -72.104727 
L 324.567284 -74.548364 
L 324.247164 -76.992 
L 323.850624 -79.435636 
L 323.386126 -81.879273 
L 322.865587 -84.322909 
L 322.300365 -86.766545 
L 321.699701 -89.210182 
L 321.071213 -91.653818 
L 320.421107 -94.097455 
L 319.752444 -96.541091 
L 319.062628 -98.984727 
L 318.343457 -101.428364 
L 317.586106 -103.872 
L 316.789664 -106.315636 
L 315.968346 -108.759273 
L 315.152309 -111.202909 
L 314.380356 -113.646545 
L 313.68744 -116.090182 
L 313.09247 -118.533818 
L 312.591229 -120.977455 
L 312.156274 -123.421091 
L 311.742841 -125.864727 
L 311.298568 -128.308364 
L 310.775088 -130.752 
L 310.140033 -133.195636 
L 309.387619 -135.639273 
L 308.544943 -138.082909 
L 307.670491 -140.526545 
L 306.842508 -142.970182 
L 306.138318 -145.413818 
L 305.610527 -147.857455 
L 305.26964 -150.301091 
L 305.082158 -152.744727 
L 304.987084 -155.188364 
L 304.924419 -157.632 
L 304.862036 -160.075636 
L 304.807492 -162.519273 
L 304.799707 -164.962909 
L 304.886762 -167.406545 
L 305.103155 -169.850182 
L 305.458556 -172.293818 
L 305.941944 -174.737455 
L 306.53572 -177.181091 
L 307.229536 -179.624727 
L 308.02553 -182.068364 
L 308.933192 -184.512 
L 309.958525 -186.955636 
L 311.094373 -189.399273 
L 312.316496 -191.842909 
L 313.585946 -194.286545 
L 314.85566 -196.730182 
L 316.078668 -199.173818 
L 317.215942 -201.617455 
L 318.242311 -204.061091 
L 319.149082 -206.504727 
L 319.942466 -208.948364 
L 320.638003 -211.392 
L 321.252784 -213.835636 
L 321.798535 -216.279273 
L 322.278749 -218.722909 
L 322.691293 -221.166545 
L 323.034967 -223.610182 
L 323.316026 -226.053818 
L 323.550468 -228.497455 
L 323.760323 -230.941091 
L 323.965784 -233.384727 
L 324.177562 -235.828364 
L 324.393619 -238.272 
L 324.601902 -240.715636 
L 324.787283 -243.159273 
L 324.938886 -245.602909 
L 325.054211 -248.046545 
L 325.138616 -250.490182 
L 325.201361 -252.933818 
L 325.250912 -255.377455 
L 325.29198 -257.821091 
L 325.325272 -260.264727 
L 325.349304 -262.708364 
L 325.362812 -265.152 
L 325.366473 -267.595636 
L 325.363316 -270.039273 
L 325.357905 -272.482909 
L 325.354822 -274.926545 
L 325.357156 -277.370182 
L 325.365659 -279.813818 
L 325.378872 -282.257455 
L 325.394077 -284.701091 
L 325.408516 -287.144727 
L 325.420312 -289.588364 
L 325.428773 -292.032 
L 325.451227 -292.032 
L 325.451227 -292.032 
L 325.459688 -289.588364 
L 325.471484 -287.144727 
L 325.485923 -284.701091 
L 325.501128 -282.257455 
L 325.514341 -279.813818 
L 325.522844 -277.370182 
L 325.525178 -274.926545 
L 325.522095 -272.482909 
L 325.516684 -270.039273 
L 325.513527 -267.595636 
L 325.517188 -265.152 
L 325.530696 -262.708364 
L 325.554728 -260.264727 
L 325.58802 -257.821091 
L 325.629088 -255.377455 
L 325.678639 -252.933818 
L 325.741384 -250.490182 
L 325.825789 -248.046545 
L 325.941114 -245.602909 
L 326.092717 -243.159273 
L 326.278098 -240.715636 
L 326.486381 -238.272 
L 326.702438 -235.828364 
L 326.914216 -233.384727 
L 327.119677 -230.941091 
L 327.329532 -228.497455 
L 327.563974 -226.053818 
L 327.845033 -223.610182 
L 328.188707 -221.166545 
L 328.601251 -218.722909 
L 329.081465 -216.279273 
L 329.627216 -213.835636 
L 330.241997 -211.392 
L 330.937534 -208.948364 
L 331.730918 -206.504727 
L 332.637689 -204.061091 
L 333.664058 -201.617455 
L 334.801332 -199.173818 
L 336.02434 -196.730182 
L 337.294054 -194.286545 
L 338.563504 -191.842909 
L 339.785627 -189.399273 
L 340.921475 -186.955636 
L 341.946808 -184.512 
L 342.85447 -182.068364 
L 343.650464 -179.624727 
L 344.34428 -177.181091 
L 344.938056 -174.737455 
L 345.421444 -172.293818 
L 345.776845 -169.850182 
L 345.993238 -167.406545 
L 346.080293 -164.962909 
L 346.072508 -162.519273 
L 346.017964 -160.075636 
L 345.955581 -157.632 
L 345.892916 -155.188364 
L 345.797842 -152.744727 
L 345.61036 -150.301091 
L 345.269473 -147.857455 
L 344.741682 -145.413818 
L 344.037492 -142.970182 
L 343.209509 -140.526545 
L 342.335057 -138.082909 
L 341.492381 -135.639273 
L 340.739967 -133.195636 
L 340.104912 -130.752 
L 339.581432 -128.308364 
L 339.137159 -125.864727 
L 338.723726 -123.421091 
L 338.288771 -120.977455 
L 337.78753 -118.533818 
L 337.19256 -116.090182 
L 336.499644 -113.646545 
L 335.727691 -111.202909 
L 334.911654 -108.759273 
L 334.090336 -106.315636 
L 333.293894 -103.872 
L 332.536543 -101.428364 
L 331.817372 -98.984727 
L 331.127556 -96.541091 
L 330.458893 -94.097455 
L 329.808787 -91.653818 
L 329.180299 -89.210182 
L 328.579635 -86.766545 
L 328.014413 -84.322909 
L 327.493874 -81.879273 
L 327.029376 -79.435636 
L 326.632836 -76.992 
L 326.312716 -74.548364 
L 326.06974 -72.104727 
L 325.89532 -69.661091 
L 325.773981 -67.217455 
L 325.688449 -64.773818 
L 325.624571 -62.330182 
L 325.573743 -59.886545 
L 325.532414 -57.442909 
L 325.499862 -54.999273 
L 325.475945 -52.555636 
L 325.459872 -50.112 
z
" id="mf1061e5cf0" style="stroke:#262626;stroke-width:2.5;"/>
    </defs>
    <g clip-path="url(#p9f899be2b2)">
     <use style="fill:#008000;stroke:#262626;stroke-width:2.5;" x="0" xlink:href="#mf1061e5cf0" y="345.6"/>
    </g>
   </g>
   <g id="matplotlib.axis_1">
    <g id="xtick_1">
     <g id="line2d_1">
      <defs>
       <path d="M 0 0 
L 0 3.5 
" id="m4944364e76" style="stroke:#000000;stroke-width:0.8;"/>
      </defs>
      <g>
       <use style="stroke:#000000;stroke-width:0.8;" x="146.88" xlink:href="#m4944364e76" y="307.584"/>
      </g>
     </g>
     <g id="text_1">
      <text style="font-family:DejaVu Sans;font-size:10px;font-style:normal;font-weight:normal;text-anchor:middle;" transform="rotate(-0, 146.88, 322.182437)" x="146.88" y="322.182437">0</text>
     </g>
    </g>
    <g id="xtick_2">
     <g id="line2d_2">
      <g>
       <use style="stroke:#000000;stroke-width:0.8;" x="325.44" xlink:href="#m4944364e76" y="307.584"/>
      </g>
     </g>
     <g id="text_2">
      <text style="font-family:DejaVu Sans;font-size:10px;font-style:normal;font-weight:normal;text-anchor:middle;" transform="rotate(-0, 325.44, 322.182437)" x="325.44" y="322.182437">1</text>
     </g>
    </g>
   </g>
   <g id="matplotlib.axis_2">
    <g id="ytick_1">
     <g id="line2d_3">
      <defs>
       <path d="M 0 0 
L -3.5 0 
" id="mc5e6372161" style="stroke:#000000;stroke-width:0.8;"/>
      </defs>
      <g>
       <use style="stroke:#000000;stroke-width:0.8;" x="57.6" xlink:href="#mc5e6372161" y="306.362196"/>
      </g>
     </g>
     <g id="text_3">
      <text style="font-family:DejaVu Sans;font-size:10px;font-style:normal;font-weight:normal;text-anchor:end;" transform="rotate(-0, 50.6, 310.161415)" x="50.6" y="310.161415">0.0</text>
     </g>
    </g>
    <g id="ytick_2">
     <g id="line2d_4">
      <g>
       <use style="stroke:#000000;stroke-width:0.8;" x="57.6" xlink:href="#mc5e6372161" y="271.043368"/>
      </g>
     </g>
     <g id="text_4">
      <text style="font-family:DejaVu Sans;font-size:10px;font-style:normal;font-weight:normal;text-anchor:end;" transform="rotate(-0, 50.6, 274.842587)" x="50.6" y="274.842587">0.1</text>
     </g>
    </g>
    <g id="ytick_3">
     <g id="line2d_5">
      <g>
       <use style="stroke:#000000;stroke-width:0.8;" x="57.6" xlink:href="#mc5e6372161" y="235.724541"/>
      </g>
     </g>
     <g id="text_5">
      <text style="font-family:DejaVu Sans;font-size:10px;font-style:normal;font-weight:normal;text-anchor:end;" transform="rotate(-0, 50.6, 239.523759)" x="50.6" y="239.523759">0.2</text>
     </g>
    </g>
    <g id="ytick_4">
     <g id="line2d_6">
      <g>
       <use style="stroke:#000000;stroke-width:0.8;" x="57.6" xlink:href="#mc5e6372161" y="200.405713"/>
      </g>
     </g>
     <g id="text_6">
      <text style="font-family:DejaVu Sans;font-size:10px;font-style:normal;font-weight:normal;text-anchor:end;" transform="rotate(-0, 50.6, 204.204932)" x="50.6" y="204.204932">0.3</text>
     </g>
    </g>
    <g id="ytick_5">
     <g id="line2d_7">
      <g>
       <use style="stroke:#000000;stroke-width:0.8;" x="57.6" xlink:href="#mc5e6372161" y="165.086885"/>
      </g>
     </g>
     <g id="text_7">
      <text style="font-family:DejaVu Sans;font-size:10px;font-style:normal;font-weight:normal;text-anchor:end;" transform="rotate(-0, 50.6, 168.886104)" x="50.6" y="168.886104">0.4</text>
     </g>
    </g>
    <g id="ytick_6">
     <g id="line2d_8">
      <g>
       <use style="stroke:#000000;stroke-width:0.8;" x="57.6" xlink:href="#mc5e6372161" y="129.768057"/>
      </g>
     </g>
     <g id="text_8">
      <text style="font-family:DejaVu Sans;font-size:10px;font-style:normal;font-weight:normal;text-anchor:end;" transform="rotate(-0, 50.6, 133.567276)" x="50.6" y="133.567276">0.5</text>
     </g>
    </g>
    <g id="ytick_7">
     <g id="line2d_9">
      <g>
       <use style="stroke:#000000;stroke-width:0.8;" x="57.6" xlink:href="#mc5e6372161" y="94.44923"/>
      </g>
     </g>
     <g id="text_9">
      <text style="font-family:DejaVu Sans;font-size:10px;font-style:normal;font-weight:normal;text-anchor:end;" transform="rotate(-0, 50.6, 98.248448)" x="50.6" y="98.248448">0.6</text>
     </g>
    </g>
    <g id="ytick_8">
     <g id="line2d_10">
      <g>
       <use style="stroke:#000000;stroke-width:0.8;" x="57.6" xlink:href="#mc5e6372161" y="59.130402"/>
      </g>
     </g>
     <g id="text_10">
      <text style="font-family:DejaVu Sans;font-size:10px;font-style:normal;font-weight:normal;text-anchor:end;" transform="rotate(-0, 50.6, 62.929621)" x="50.6" y="62.929621">0.7</text>
     </g>
    </g>
   </g>
   <g id="line2d_11">
    <path clip-path="url(#p9f899be2b2)" d="M 146.88 231.332332 
L 146.88 187.396105 
" style="fill:none;stroke:#262626;stroke-linecap:square;stroke-width:2.5;"/>
   </g>
   <g id="line2d_12">
    <path clip-path="url(#p9f899be2b2)" d="M 146.88 217.889039 
L 146.88 205.464344 
" style="fill:none;stroke:#262626;stroke-linecap:square;stroke-width:7.5;"/>
   </g>
   <g id="line2d_13">
    <path clip-path="url(#p9f899be2b2)" d="M 325.44 279.404651 
L 325.44 106.867026 
" style="fill:none;stroke:#262626;stroke-linecap:square;stroke-width:2.5;"/>
   </g>
   <g id="line2d_14">
    <path clip-path="url(#p9f899be2b2)" d="M 325.44 213.003589 
L 325.44 166.965542 
" style="fill:none;stroke:#262626;stroke-linecap:square;stroke-width:7.5;"/>
   </g>
   <g id="patch_3">
    <path d="M 57.6 307.584 
L 57.6 41.472 
" style="fill:none;stroke:#000000;stroke-linecap:square;stroke-linejoin:miter;stroke-width:0.8;"/>
   </g>
   <g id="patch_4">
    <path d="M 57.6 307.584 
L 414.72 307.584 
" style="fill:none;stroke:#000000;stroke-linecap:square;stroke-linejoin:miter;stroke-width:0.8;"/>
   </g>
   <g id="PathCollection_1">
    <defs>
     <path d="M 0 2.5 
C 0.663008 2.5 1.29895 2.236584 1.767767 1.767767 
C 2.236584 1.29895 2.5 0.663008 2.5 0 
C 2.5 -0.663008 2.236584 -1.29895 1.767767 -1.767767 
C 1.29895 -2.236584 0.663008 -2.5 0 -2.5 
C -0.663008 -2.5 -1.29895 -2.236584 -1.767767 -1.767767 
C -2.236584 -1.29895 -2.5 -0.663008 -2.5 0 
C -2.5 0.663008 -2.236584 1.29895 -1.767767 1.767767 
C -1.29895 2.236584 -0.663008 2.5 0 2.5 
z
" id="mddff54b5a6" style="stroke:#262626;"/>
    </defs>
    <g clip-path="url(#p9f899be2b2)">
     <use style="fill:#ffffff;stroke:#262626;" x="146.88" xlink:href="#mddff54b5a6" y="211.958511"/>
    </g>
   </g>
   <g id="PathCollection_2">
    <g clip-path="url(#p9f899be2b2)">
     <use style="fill:#ffffff;stroke:#262626;" x="325.44" xlink:href="#mddff54b5a6" y="189.696459"/>
    </g>
   </g>
  </g>
 </g>
 <defs>
  <clipPath id="p9f899be2b2">
   <rect height="266.112" width="357.12" x="57.6" y="41.472"/>
  </clipPath>
 </defs>
</svg>
