<?xml version="1.0" encoding="utf-8" standalone="no"?>
<!DOCTYPE svg PUBLIC "-//W3C//DTD SVG 1.1//EN"
  "http://www.w3.org/Graphics/SVG/1.1/DTD/svg11.dtd">
<!-- Created with matplotlib (https://matplotlib.org/) -->
<svg height="345.6pt" version="1.1" viewBox="0 0 460.8 345.6" width="460.8pt" xmlns="http://www.w3.org/2000/svg" xmlns:xlink="http://www.w3.org/1999/xlink">
 <defs>
  <style type="text/css">
*{stroke-linecap:butt;stroke-linejoin:round;}
  </style>
 </defs>
 <g id="figure_1">
  <g id="patch_1">
   <path d="M 0 345.6 
L 460.8 345.6 
L 460.8 0 
L 0 0 
z
" style="fill:#ffffff;"/>
  </g>
  <g id="axes_1">
   <g id="patch_2">
    <path d="M 57.6 119.740235 
L 414.72 119.740235 
L 414.72 41.472 
L 57.6 41.472 
z
" style="fill:#ffffff;"/>
   </g>
   <g id="PolyCollection_1">
    <path clip-path="url(#p092760b9c6)" d="M 76.140158 80.606118 
L 78.090492 80.606118 
L 81.017705 80.606118 
L 83.944918 80.606118 
L 86.872131 80.606118 
L 89.799344 80.606118 
L 92.726557 80.606118 
L 95.65377 80.606118 
L 98.580984 80.606118 
L 101.508197 80.606118 
L 104.43541 80.606118 
L 107.362623 80.606118 
L 110.289836 80.606118 
L 113.217049 80.606118 
L 114.589105 80.606118 
L 113.217049 73.787981 
L 110.289836 51.281533 
L 107.362623 52.464268 
L 104.43541 46.298208 
L 101.508197 45.763427 
L 98.580984 46.584863 
L 95.65377 46.209513 
L 92.726557 48.256436 
L 89.799344 49.680599 
L 86.872131 45.343922 
L 83.944918 47.862636 
L 81.017705 64.235483 
L 78.090492 64.648705 
z
" style="fill:#1f77b4;"/>
    <path clip-path="url(#p092760b9c6)" d="M 116.902508 80.606118 
L 119.071475 80.606118 
L 121.998689 80.606118 
L 124.925902 80.606118 
L 127.853115 80.606118 
L 130.780328 80.606118 
L 133.707541 80.606118 
L 136.634754 80.606118 
L 139.561967 80.606118 
L 142.48918 80.606118 
L 145.416393 80.606118 
L 148.343607 80.606118 
L 151.27082 80.606118 
L 154.198033 80.606118 
L 157.125246 80.606118 
L 160.052459 80.606118 
L 162.979672 80.606118 
L 165.906885 80.606118 
L 168.834098 80.606118 
L 171.761311 80.606118 
L 174.688525 80.606118 
L 177.615738 80.606118 
L 180.542951 80.606118 
L 183.470164 80.606118 
L 186.397377 80.606118 
L 189.32459 80.606118 
L 192.251803 80.606118 
L 195.179016 80.606118 
L 198.10623 80.606118 
L 201.033443 80.606118 
L 202.827394 80.606118 
L 201.033443 59.884639 
L 198.10623 48.788175 
L 195.179016 43.99982 
L 192.251803 60.028183 
L 189.32459 57.938596 
L 186.397377 60.125532 
L 183.470164 50.569515 
L 180.542951 42.969642 
L 177.615738 42.109237 
L 174.688525 42.277812 
L 171.761311 42.129733 
L 168.834098 41.284979 
L 165.906885 42.777421 
L 162.979672 44.586442 
L 160.052459 65.061633 
L 157.125246 59.363225 
L 154.198033 71.937199 
L 151.27082 79.669876 
L 148.343607 67.034627 
L 145.416393 53.090594 
L 142.48918 51.142279 
L 139.561967 43.213939 
L 136.634754 41.797837 
L 133.707541 43.353575 
L 130.780328 43.323254 
L 127.853115 53.522894 
L 124.925902 72.005767 
L 121.998689 72.980364 
L 119.071475 58.500061 
z
" style="fill:#1f77b4;"/>
    <path clip-path="url(#p092760b9c6)" d="M 305.798647 80.606118 
L 306.413115 80.606118 
L 307.888499 80.606118 
L 306.413115 77.336053 
z
" style="fill:#1f77b4;"/>
    <path clip-path="url(#p092760b9c6)" d="M 316.742744 80.606118 
L 318.121967 80.606118 
L 321.04918 80.606118 
L 323.976393 80.606118 
L 326.903607 80.606118 
L 329.83082 80.606118 
L 332.231712 80.606118 
L 329.83082 56.952071 
L 326.903607 50.060949 
L 323.976393 52.029315 
L 321.04918 62.366238 
L 318.121967 69.355691 
z
" style="fill:#1f77b4;"/>
    <path clip-path="url(#p092760b9c6)" d="M 378.60812 80.606118 
L 379.593443 80.606118 
L 382.520656 80.606118 
L 385.07048 80.606118 
L 382.520656 65.328233 
L 379.593443 75.352468 
z
" style="fill:#1f77b4;"/>
   </g>
   <g id="PolyCollection_2">
    <path clip-path="url(#p092760b9c6)" d="M 66.381639 80.606118 
L 66.381639 80.606118 
L 69.308852 80.606118 
L 72.236066 80.606118 
L 75.163279 80.606118 
L 76.140158 80.606118 
L 75.163279 88.598834 
L 72.236066 96.526306 
L 69.308852 92.676433 
L 66.381639 104.87288 
z
" style="fill:#ff7f0e;"/>
    <path clip-path="url(#p092760b9c6)" d="M 114.589105 80.606118 
L 116.144262 80.606118 
L 116.902508 80.606118 
L 116.144262 88.33414 
z
" style="fill:#ff7f0e;"/>
    <path clip-path="url(#p092760b9c6)" d="M 202.827394 80.606118 
L 203.960656 80.606118 
L 206.887869 80.606118 
L 209.815082 80.606118 
L 212.742295 80.606118 
L 215.669508 80.606118 
L 218.596721 80.606118 
L 221.523934 80.606118 
L 224.451148 80.606118 
L 227.378361 80.606118 
L 230.305574 80.606118 
L 233.232787 80.606118 
L 236.16 80.606118 
L 239.087213 80.606118 
L 242.014426 80.606118 
L 244.941639 80.606118 
L 247.868852 80.606118 
L 250.796066 80.606118 
L 253.723279 80.606118 
L 256.650492 80.606118 
L 259.577705 80.606118 
L 262.504918 80.606118 
L 265.432131 80.606118 
L 268.359344 80.606118 
L 271.286557 80.606118 
L 274.21377 80.606118 
L 277.140984 80.606118 
L 280.068197 80.606118 
L 282.99541 80.606118 
L 285.922623 80.606118 
L 288.849836 80.606118 
L 291.777049 80.606118 
L 294.704262 80.606118 
L 297.631475 80.606118 
L 300.558689 80.606118 
L 303.485902 80.606118 
L 305.798647 80.606118 
L 303.485902 92.914039 
L 300.558689 98.611325 
L 297.631475 100.004359 
L 294.704262 89.191923 
L 291.777049 103.6881 
L 288.849836 109.470213 
L 285.922623 107.755759 
L 282.99541 97.411708 
L 280.068197 108.11375 
L 277.140984 107.097079 
L 274.21377 98.968503 
L 271.286557 88.744466 
L 268.359344 103.366353 
L 265.432131 103.672791 
L 262.504918 109.429511 
L 259.577705 108.661738 
L 256.650492 110.182602 
L 253.723279 106.472913 
L 250.796066 88.255119 
L 247.868852 86.332218 
L 244.941639 87.730617 
L 242.014426 100.648916 
L 239.087213 105.807232 
L 236.16 102.559763 
L 233.232787 106.958229 
L 230.305574 109.28748 
L 227.378361 93.181094 
L 224.451148 86.51936 
L 221.523934 81.035409 
L 218.596721 85.024865 
L 215.669508 83.440962 
L 212.742295 98.568901 
L 209.815082 97.262497 
L 206.887869 99.55568 
L 203.960656 93.696136 
z
" style="fill:#ff7f0e;"/>
    <path clip-path="url(#p092760b9c6)" d="M 307.888499 80.606118 
L 309.340328 80.606118 
L 312.267541 80.606118 
L 315.194754 80.606118 
L 316.742744 80.606118 
L 315.194754 93.233193 
L 312.267541 101.371254 
L 309.340328 83.823975 
z
" style="fill:#ff7f0e;"/>
    <path clip-path="url(#p092760b9c6)" d="M 332.231712 80.606118 
L 332.758033 80.606118 
L 335.685246 80.606118 
L 338.612459 80.606118 
L 341.539672 80.606118 
L 344.466885 80.606118 
L 347.394098 80.606118 
L 350.321311 80.606118 
L 353.248525 80.606118 
L 356.175738 80.606118 
L 359.102951 80.606118 
L 362.030164 80.606118 
L 364.957377 80.606118 
L 367.88459 80.606118 
L 370.811803 80.606118 
L 373.739016 80.606118 
L 376.66623 80.606118 
L 378.60812 80.606118 
L 376.66623 90.960101 
L 373.739016 93.775322 
L 370.811803 102.982423 
L 367.88459 107.107819 
L 364.957377 87.660172 
L 362.030164 93.928412 
L 359.102951 105.347931 
L 356.175738 108.331761 
L 353.248525 111.87399 
L 350.321311 106.517624 
L 347.394098 97.563396 
L 344.466885 107.686825 
L 341.539672 101.575153 
L 338.612459 101.735268 
L 335.685246 100.045732 
L 332.758033 85.791531 
z
" style="fill:#ff7f0e;"/>
    <path clip-path="url(#p092760b9c6)" d="M 385.07048 80.606118 
L 385.447869 80.606118 
L 388.375082 80.606118 
L 391.302295 80.606118 
L 394.229508 80.606118 
L 397.156721 80.606118 
L 400.083934 80.606118 
L 403.011148 80.606118 
L 405.938361 80.606118 
L 408.865574 80.606118 
L 411.792787 80.606118 
L 411.792787 80.606118 
L 411.792787 108.432206 
L 408.865574 108.095456 
L 405.938361 109.891291 
L 403.011148 109.2389 
L 400.083934 107.899701 
L 397.156721 108.636143 
L 394.229508 106.726644 
L 391.302295 104.310059 
L 388.375082 97.422737 
L 385.447869 82.867335 
z
" style="fill:#ff7f0e;"/>
   </g>
   <g id="matplotlib.axis_1">
    <g id="xtick_1"/>
    <g id="xtick_2"/>
    <g id="xtick_3"/>
    <g id="xtick_4"/>
    <g id="xtick_5"/>
    <g id="xtick_6"/>
    <g id="xtick_7"/>
   </g>
   <g id="matplotlib.axis_2">
    <g id="ytick_1">
     <g id="line2d_1">
      <defs>
       <path d="M 0 0 
L -3.5 0 
" id="mf9151e5389" style="stroke:#000000;stroke-width:0.8;"/>
      </defs>
      <g>
       <use style="stroke:#000000;stroke-width:0.8;" x="57.6" xlink:href="#mf9151e5389" y="106.695529"/>
      </g>
     </g>
     <g id="text_1">
      <text style="font-family:DejaVu Sans;font-size:10px;font-style:normal;font-weight:normal;text-anchor:end;" transform="rotate(-0, 50.6, 110.494748)" x="50.6" y="110.494748">−0.1</text>
     </g>
    </g>
    <g id="ytick_2">
     <g id="line2d_2">
      <g>
       <use style="stroke:#000000;stroke-width:0.8;" x="57.6" xlink:href="#mf9151e5389" y="80.606118"/>
      </g>
     </g>
     <g id="text_2">
      <text style="font-family:DejaVu Sans;font-size:10px;font-style:normal;font-weight:normal;text-anchor:end;" transform="rotate(-0, 50.6, 84.405336)" x="50.6" y="84.405336">0.0</text>
     </g>
    </g>
    <g id="ytick_3">
     <g id="line2d_3">
      <g>
       <use style="stroke:#000000;stroke-width:0.8;" x="57.6" xlink:href="#mf9151e5389" y="54.516706"/>
      </g>
     </g>
     <g id="text_3">
      <text style="font-family:DejaVu Sans;font-size:10px;font-style:normal;font-weight:normal;text-anchor:end;" transform="rotate(-0, 50.6, 58.315925)" x="50.6" y="58.315925">0.1</text>
     </g>
    </g>
    <g id="text_4">
     <text style="font-family:DejaVu Sans;font-size:10px;font-style:normal;font-weight:normal;text-anchor:middle;" transform="rotate(-90, 20.2375, 80.606118)" x="20.2375" y="80.606118">Hi-C Eig</text>
    </g>
   </g>
   <g id="line2d_4">
    <path clip-path="url(#p092760b9c6)" d="M 66.381639 104.87288 
L 69.308852 92.676433 
L 72.236066 96.526306 
L 75.163279 88.598834 
L 78.090492 64.648705 
L 81.017705 64.235483 
L 83.944918 47.862636 
L 86.872131 45.343922 
L 89.799344 49.680599 
L 92.726557 48.256436 
L 95.65377 46.209513 
L 98.580984 46.584863 
L 101.508197 45.763427 
L 104.43541 46.298208 
L 107.362623 52.464268 
L 110.289836 51.281533 
L 113.217049 73.787981 
L 116.144262 88.33414 
L 119.071475 58.500061 
L 121.998689 72.980364 
L 124.925902 72.005767 
L 127.853115 53.522894 
L 130.780328 43.323254 
L 133.707541 43.353575 
L 136.634754 41.797837 
L 139.561967 43.213939 
L 142.48918 51.142279 
L 145.416393 53.090594 
L 148.343607 67.034627 
L 151.27082 79.669876 
L 154.198033 71.937199 
L 157.125246 59.363225 
L 160.052459 65.061633 
L 162.979672 44.586442 
L 165.906885 42.777421 
L 168.834098 41.284979 
L 171.761311 42.129733 
L 174.688525 42.277812 
L 177.615738 42.109237 
L 180.542951 42.969642 
L 183.470164 50.569515 
L 186.397377 60.125532 
L 189.32459 57.938596 
L 192.251803 60.028183 
L 195.179016 43.99982 
L 198.10623 48.788175 
L 201.033443 59.884639 
L 203.960656 93.696136 
L 206.887869 99.55568 
L 209.815082 97.262497 
L 212.742295 98.568901 
L 215.669508 83.440962 
L 218.596721 85.024865 
L 221.523934 81.035409 
L 224.451148 86.51936 
L 227.378361 93.181094 
L 230.305574 109.28748 
L 233.232787 106.958229 
L 236.16 102.559763 
L 239.087213 105.807232 
L 242.014426 100.648916 
L 244.941639 87.730617 
L 247.868852 86.332218 
L 250.796066 88.255119 
L 253.723279 106.472913 
L 256.650492 110.182602 
L 259.577705 108.661738 
L 262.504918 109.429511 
L 265.432131 103.672791 
L 268.359344 103.366353 
L 271.286557 88.744466 
L 274.21377 98.968503 
L 277.140984 107.097079 
L 280.068197 108.11375 
L 282.99541 97.411708 
L 285.922623 107.755759 
L 288.849836 109.470213 
L 291.777049 103.6881 
L 294.704262 89.191923 
L 297.631475 100.004359 
L 300.558689 98.611325 
L 303.485902 92.914039 
L 306.413115 77.336053 
L 309.340328 83.823975 
L 312.267541 101.371254 
L 315.194754 93.233193 
L 318.121967 69.355691 
L 321.04918 62.366238 
L 323.976393 52.029315 
L 326.903607 50.060949 
L 329.83082 56.952071 
L 332.758033 85.791531 
L 335.685246 100.045732 
L 338.612459 101.735268 
L 341.539672 101.575153 
L 344.466885 107.686825 
L 347.394098 97.563396 
L 350.321311 106.517624 
L 353.248525 111.87399 
L 356.175738 108.331761 
L 359.102951 105.347931 
L 362.030164 93.928412 
L 364.957377 87.660172 
L 367.88459 107.107819 
L 370.811803 102.982423 
L 373.739016 93.775322 
L 376.66623 90.960101 
L 379.593443 75.352468 
L 382.520656 65.328233 
L 385.447869 82.867335 
L 388.375082 97.422737 
L 391.302295 104.310059 
L 394.229508 106.726644 
L 397.156721 108.636143 
L 400.083934 107.899701 
L 403.011148 109.2389 
L 405.938361 109.891291 
L 408.865574 108.095456 
L 411.792787 108.432206 
" style="fill:none;stroke:#000000;stroke-linecap:square;stroke-opacity:0.5;"/>
   </g>
   <g id="line2d_5">
    <path clip-path="url(#p092760b9c6)" d="M 57.6 80.606118 
L 60.527213 80.606118 
L 63.454426 80.606118 
L 66.381639 80.606118 
L 69.308852 80.606118 
L 72.236066 80.606118 
L 75.163279 80.606118 
L 78.090492 80.606118 
L 81.017705 80.606118 
L 83.944918 80.606118 
L 86.872131 80.606118 
L 89.799344 80.606118 
L 92.726557 80.606118 
L 95.65377 80.606118 
L 98.580984 80.606118 
L 101.508197 80.606118 
L 104.43541 80.606118 
L 107.362623 80.606118 
L 110.289836 80.606118 
L 113.217049 80.606118 
L 116.144262 80.606118 
L 119.071475 80.606118 
L 121.998689 80.606118 
L 124.925902 80.606118 
L 127.853115 80.606118 
L 130.780328 80.606118 
L 133.707541 80.606118 
L 136.634754 80.606118 
L 139.561967 80.606118 
L 142.48918 80.606118 
L 145.416393 80.606118 
L 148.343607 80.606118 
L 151.27082 80.606118 
L 154.198033 80.606118 
L 157.125246 80.606118 
L 160.052459 80.606118 
L 162.979672 80.606118 
L 165.906885 80.606118 
L 168.834098 80.606118 
L 171.761311 80.606118 
L 174.688525 80.606118 
L 177.615738 80.606118 
L 180.542951 80.606118 
L 183.470164 80.606118 
L 186.397377 80.606118 
L 189.32459 80.606118 
L 192.251803 80.606118 
L 195.179016 80.606118 
L 198.10623 80.606118 
L 201.033443 80.606118 
L 203.960656 80.606118 
L 206.887869 80.606118 
L 209.815082 80.606118 
L 212.742295 80.606118 
L 215.669508 80.606118 
L 218.596721 80.606118 
L 221.523934 80.606118 
L 224.451148 80.606118 
L 227.378361 80.606118 
L 230.305574 80.606118 
L 233.232787 80.606118 
L 236.16 80.606118 
L 239.087213 80.606118 
L 242.014426 80.606118 
L 244.941639 80.606118 
L 247.868852 80.606118 
L 250.796066 80.606118 
L 253.723279 80.606118 
L 256.650492 80.606118 
L 259.577705 80.606118 
L 262.504918 80.606118 
L 265.432131 80.606118 
L 268.359344 80.606118 
L 271.286557 80.606118 
L 274.21377 80.606118 
L 277.140984 80.606118 
L 280.068197 80.606118 
L 282.99541 80.606118 
L 285.922623 80.606118 
L 288.849836 80.606118 
L 291.777049 80.606118 
L 294.704262 80.606118 
L 297.631475 80.606118 
L 300.558689 80.606118 
L 303.485902 80.606118 
L 306.413115 80.606118 
L 309.340328 80.606118 
L 312.267541 80.606118 
L 315.194754 80.606118 
L 318.121967 80.606118 
L 321.04918 80.606118 
L 323.976393 80.606118 
L 326.903607 80.606118 
L 329.83082 80.606118 
L 332.758033 80.606118 
L 335.685246 80.606118 
L 338.612459 80.606118 
L 341.539672 80.606118 
L 344.466885 80.606118 
L 347.394098 80.606118 
L 350.321311 80.606118 
L 353.248525 80.606118 
L 356.175738 80.606118 
L 359.102951 80.606118 
L 362.030164 80.606118 
L 364.957377 80.606118 
L 367.88459 80.606118 
L 370.811803 80.606118 
L 373.739016 80.606118 
L 376.66623 80.606118 
L 379.593443 80.606118 
L 382.520656 80.606118 
L 385.447869 80.606118 
L 388.375082 80.606118 
L 391.302295 80.606118 
L 394.229508 80.606118 
L 397.156721 80.606118 
L 400.083934 80.606118 
L 403.011148 80.606118 
L 405.938361 80.606118 
L 408.865574 80.606118 
L 411.792787 80.606118 
L 414.72 80.606118 
" style="fill:none;stroke:#000000;stroke-linecap:square;"/>
   </g>
   <g id="patch_3">
    <path d="M 57.6 119.740235 
L 57.6 41.472 
" style="fill:none;stroke:#000000;stroke-linecap:square;stroke-linejoin:miter;stroke-width:0.8;"/>
   </g>
  </g>
  <g id="axes_2">
   <g id="patch_4">
    <path d="M 57.6 213.662118 
L 414.72 213.662118 
L 414.72 135.393882 
L 57.6 135.393882 
z
" style="fill:#ffffff;"/>
   </g>
   <g id="patch_5">
    <path clip-path="url(#p10c6b3eae1)" d="M 83.944918 174.528 
L 89.799344 174.528 
L 89.799344 158.874353 
L 83.944918 158.874353 
z
" style="fill:#1f77b4;stroke:#000000;stroke-linejoin:miter;stroke-width:0.5;"/>
   </g>
   <g id="patch_6">
    <path clip-path="url(#p10c6b3eae1)" d="M 92.726557 174.528 
L 110.289836 174.528 
L 110.289836 158.874353 
L 92.726557 158.874353 
z
" style="fill:#1f77b4;stroke:#000000;stroke-linejoin:miter;stroke-width:0.5;"/>
   </g>
   <g id="patch_7">
    <path clip-path="url(#p10c6b3eae1)" d="M 130.780328 174.528 
L 139.561967 174.528 
L 139.561967 158.874353 
L 130.780328 158.874353 
z
" style="fill:#1f77b4;stroke:#000000;stroke-linejoin:miter;stroke-width:0.5;"/>
   </g>
   <g id="patch_8">
    <path clip-path="url(#p10c6b3eae1)" d="M 162.979672 174.528 
L 183.470164 174.528 
L 183.470164 158.874353 
L 162.979672 158.874353 
z
" style="fill:#1f77b4;stroke:#000000;stroke-linejoin:miter;stroke-width:0.5;"/>
   </g>
   <g id="patch_9">
    <path clip-path="url(#p10c6b3eae1)" d="M 195.179016 174.528 
L 198.10623 174.528 
L 198.10623 158.874353 
L 195.179016 158.874353 
z
" style="fill:#1f77b4;stroke:#000000;stroke-linejoin:miter;stroke-width:0.5;"/>
   </g>
   <g id="patch_10">
    <path clip-path="url(#p10c6b3eae1)" d="M 318.121967 174.528 
L 329.83082 174.528 
L 329.83082 158.874353 
L 318.121967 158.874353 
z
" style="fill:#1f77b4;stroke:#000000;stroke-linejoin:miter;stroke-width:0.5;"/>
   </g>
   <g id="patch_11">
    <path clip-path="url(#p10c6b3eae1)" d="M 379.593443 174.528 
L 385.447869 174.528 
L 385.447869 158.874353 
L 379.593443 158.874353 
z
" style="fill:#1f77b4;stroke:#000000;stroke-linejoin:miter;stroke-width:0.5;"/>
   </g>
   <g id="matplotlib.axis_3">
    <g id="xtick_8"/>
    <g id="xtick_9"/>
    <g id="xtick_10"/>
    <g id="xtick_11"/>
    <g id="xtick_12"/>
    <g id="xtick_13"/>
    <g id="xtick_14"/>
   </g>
   <g id="matplotlib.axis_4">
    <g id="ytick_4"/>
    <g id="ytick_5"/>
    <g id="ytick_6"/>
    <g id="text_5">
     <text style="font-family:DejaVu Sans;font-size:10px;font-style:normal;font-weight:normal;text-anchor:middle;" transform="rotate(-90, 51.520313, 174.528)" x="51.520313" y="174.528">LAD</text>
    </g>
   </g>
  </g>
  <g id="axes_3">
   <g id="patch_12">
    <path d="M 57.6 307.584 
L 414.72 307.584 
L 414.72 229.315765 
L 57.6 229.315765 
z
" style="fill:#ffffff;"/>
   </g>
   <g id="PolyCollection_3">
    <path clip-path="url(#p412cc962fe)" d="M 82.307855 268.449882 
L 83.944918 268.449882 
L 86.872131 268.449882 
L 89.799344 268.449882 
L 92.726557 268.449882 
L 95.65377 268.449882 
L 98.580984 268.449882 
L 101.508197 268.449882 
L 104.43541 268.449882 
L 107.362623 268.449882 
L 110.289836 268.449882 
L 113.177782 268.449882 
L 110.289836 239.326604 
L 107.362623 236.213662 
L 104.43541 257.915309 
L 101.508197 234.434839 
L 98.580984 217.766604 
L 95.65377 240.957192 
L 92.726557 245.305427 
L 89.799344 245.494481 
L 86.872131 247.095877 
L 83.944918 242.091514 
z
" style="fill:#1f77b4;"/>
    <path clip-path="url(#p412cc962fe)" d="M 113.39998 268.449882 
L 116.144262 268.449882 
L 118.1013 268.449882 
L 116.144262 262.509315 
z
" style="fill:#1f77b4;"/>
    <path clip-path="url(#p412cc962fe)" d="M 119.681485 268.449882 
L 121.998689 268.449882 
L 124.925902 268.449882 
L 127.853115 268.449882 
L 130.780328 268.449882 
L 133.707541 268.449882 
L 136.634754 268.449882 
L 139.561967 268.449882 
L 142.48918 268.449882 
L 145.416393 268.449882 
L 148.343607 268.449882 
L 151.27082 268.449882 
L 154.198033 268.449882 
L 155.508539 268.449882 
L 154.198033 264.30035 
L 151.27082 249.305804 
L 148.343607 255.865427 
L 145.416393 263.785427 
L 142.48918 254.001898 
L 139.561967 230.521427 
L 136.634754 236.608957 
L 133.707541 238.348251 
L 130.780328 234.434839 
L 127.853115 248.411309 
L 124.925902 257.012214 
L 121.998689 257.263074 
z
" style="fill:#1f77b4;"/>
    <path clip-path="url(#p412cc962fe)" d="M 160.761781 268.449882 
L 162.979672 268.449882 
L 165.906885 268.449882 
L 168.834098 268.449882 
L 171.761311 268.449882 
L 174.688525 268.449882 
L 177.615738 268.449882 
L 180.542951 268.449882 
L 182.980595 268.449882 
L 180.542951 237.230133 
L 177.615738 242.820721 
L 174.688525 235.159545 
L 171.761311 232.260721 
L 168.834098 247.822826 
L 165.906885 237.230133 
L 162.979672 243.703446 
z
" style="fill:#1f77b4;"/>
    <path clip-path="url(#p412cc962fe)" d="M 194.954092 268.449882 
L 195.179016 268.449882 
L 198.10623 268.449882 
L 200.048832 268.449882 
L 198.10623 258.350133 
L 195.179016 267.046604 
z
" style="fill:#1f77b4;"/>
    <path clip-path="url(#p412cc962fe)" d="M 271.281775 268.449882 
L 271.286557 268.449882 
L 271.29569 268.449882 
L 271.286557 268.419731 
z
" style="fill:#1f77b4;"/>
    <path clip-path="url(#p412cc962fe)" d="M 282.365622 268.449882 
L 282.99541 268.449882 
L 283.270942 268.449882 
L 282.99541 267.046604 
z
" style="fill:#1f77b4;"/>
    <path clip-path="url(#p412cc962fe)" d="M 296.223706 268.449882 
L 297.631475 268.449882 
L 299.556996 268.449882 
L 297.631475 261.117192 
z
" style="fill:#1f77b4;"/>
    <path clip-path="url(#p412cc962fe)" d="M 306.530502 268.449882 
L 309.340328 268.449882 
L 311.418601 268.449882 
L 309.340328 254.001898 
z
" style="fill:#1f77b4;"/>
    <path clip-path="url(#p412cc962fe)" d="M 316.402376 268.449882 
L 318.121967 268.449882 
L 321.04918 268.449882 
L 323.976393 268.449882 
L 326.903607 268.449882 
L 329.83082 268.449882 
L 332.566357 268.449882 
L 329.83082 235.285581 
L 326.903607 235.739309 
L 323.976393 243.703446 
L 321.04918 244.218368 
L 318.121967 250.444251 
z
" style="fill:#1f77b4;"/>
    <path clip-path="url(#p412cc962fe)" d="M 360.015493 268.449882 
L 362.030164 268.449882 
L 363.803074 268.449882 
L 362.030164 263.319545 
z
" style="fill:#1f77b4;"/>
    <path clip-path="url(#p412cc962fe)" d="M 377.189805 268.449882 
L 379.593443 268.449882 
L 382.520656 268.449882 
L 385.447869 268.449882 
L 386.660864 268.449882 
L 385.447869 258.893662 
L 382.520656 240.957192 
L 379.593443 236.782886 
z
" style="fill:#1f77b4;"/>
   </g>
   <g id="PolyCollection_4">
    <path clip-path="url(#p412cc962fe)" d="M 66.381639 268.449882 
L 66.381639 268.449882 
L 69.308852 268.449882 
L 72.236066 268.449882 
L 75.163279 268.449882 
L 78.090492 268.449882 
L 81.017705 268.449882 
L 82.307855 268.449882 
L 81.017705 289.222604 
L 78.090492 293.136015 
L 75.163279 282.463074 
L 72.236066 288.532002 
L 69.308852 284.105065 
L 66.381639 289.408957 
z
" style="fill:#ff7f0e;"/>
    <path clip-path="url(#p412cc962fe)" d="M 113.177782 268.449882 
L 113.217049 268.449882 
L 113.39998 268.449882 
L 113.217049 268.845873 
z
" style="fill:#ff7f0e;"/>
    <path clip-path="url(#p412cc962fe)" d="M 118.1013 268.449882 
L 119.071475 268.449882 
L 119.681485 268.449882 
L 119.071475 271.394839 
z
" style="fill:#ff7f0e;"/>
    <path clip-path="url(#p412cc962fe)" d="M 155.508539 268.449882 
L 157.125246 268.449882 
L 160.052459 268.449882 
L 160.761781 268.449882 
L 160.052459 276.364251 
L 157.125246 273.568957 
z
" style="fill:#ff7f0e;"/>
    <path clip-path="url(#p412cc962fe)" d="M 182.980595 268.449882 
L 183.470164 268.449882 
L 186.397377 268.449882 
L 189.32459 268.449882 
L 192.251803 268.449882 
L 194.954092 268.449882 
L 192.251803 285.309192 
L 189.32459 277.482368 
L 186.397377 272.264486 
L 183.470164 274.71996 
z
" style="fill:#ff7f0e;"/>
    <path clip-path="url(#p412cc962fe)" d="M 200.048832 268.449882 
L 201.033443 268.449882 
L 203.960656 268.449882 
L 206.887869 268.449882 
L 209.815082 268.449882 
L 212.742295 268.449882 
L 215.669508 268.449882 
L 218.596721 268.449882 
L 221.523934 268.449882 
L 224.451148 268.449882 
L 227.378361 268.449882 
L 230.305574 268.449882 
L 233.232787 268.449882 
L 236.16 268.449882 
L 239.087213 268.449882 
L 242.014426 268.449882 
L 244.941639 268.449882 
L 247.868852 268.449882 
L 250.796066 268.449882 
L 253.723279 268.449882 
L 256.650492 268.449882 
L 259.577705 268.449882 
L 262.504918 268.449882 
L 265.432131 268.449882 
L 268.359344 268.449882 
L 271.281775 268.449882 
L 268.359344 286.874557 
L 265.432131 274.500721 
L 262.504918 283.352486 
L 259.577705 289.408957 
L 256.650492 279.524148 
L 253.723279 288.532002 
L 250.796066 288.78778 
L 247.868852 280.777873 
L 244.941639 270.115946 
L 242.014426 287.738206 
L 239.087213 271.790133 
L 236.16 273.568957 
L 233.232787 293.136015 
L 230.305574 288.244251 
L 227.378361 283.352486 
L 224.451148 280.091309 
L 221.523934 284.897254 
L 218.596721 275.743074 
L 215.669508 277.482368 
L 212.742295 281.094748 
L 209.815082 278.460721 
L 206.887869 284.897254 
L 203.960656 275.074115 
L 201.033443 273.568957 
z
" style="fill:#ff7f0e;"/>
    <path clip-path="url(#p412cc962fe)" d="M 271.29569 268.449882 
L 274.21377 268.449882 
L 277.140984 268.449882 
L 280.068197 268.449882 
L 282.365622 268.449882 
L 280.068197 273.568957 
L 277.140984 274.500721 
L 274.21377 278.084432 
z
" style="fill:#ff7f0e;"/>
    <path clip-path="url(#p412cc962fe)" d="M 283.270942 268.449882 
L 285.922623 268.449882 
L 288.849836 268.449882 
L 291.777049 268.449882 
L 294.704262 268.449882 
L 296.223706 268.449882 
L 294.704262 276.364251 
L 291.777049 286.020721 
L 288.849836 293.136015 
L 285.922623 281.954839 
z
" style="fill:#ff7f0e;"/>
    <path clip-path="url(#p412cc962fe)" d="M 299.556996 268.449882 
L 300.558689 268.449882 
L 303.485902 268.449882 
L 306.413115 268.449882 
L 306.530502 268.449882 
L 306.413115 269.053481 
L 303.485902 277.482368 
L 300.558689 272.264486 
z
" style="fill:#ff7f0e;"/>
    <path clip-path="url(#p412cc962fe)" d="M 311.418601 268.449882 
L 312.267541 268.449882 
L 315.194754 268.449882 
L 316.402376 268.449882 
L 315.194754 281.094748 
L 312.267541 274.351639 
z
" style="fill:#ff7f0e;"/>
    <path clip-path="url(#p412cc962fe)" d="M 332.566357 268.449882 
L 332.758033 268.449882 
L 335.685246 268.449882 
L 338.612459 268.449882 
L 341.539672 268.449882 
L 344.466885 268.449882 
L 347.394098 268.449882 
L 350.321311 268.449882 
L 353.248525 268.449882 
L 356.175738 268.449882 
L 359.102951 268.449882 
L 360.015493 268.449882 
L 359.102951 270.773662 
L 356.175738 288.78778 
L 353.248525 289.578368 
L 350.321311 293.136015 
L 347.394098 278.905427 
L 344.466885 288.244251 
L 341.539672 287.918133 
L 338.612459 285.309192 
L 335.685246 271.394839 
L 332.758033 270.773662 
z
" style="fill:#ff7f0e;"/>
    <path clip-path="url(#p412cc962fe)" d="M 363.803074 268.449882 
L 364.957377 268.449882 
L 367.88459 268.449882 
L 370.811803 268.449882 
L 373.739016 268.449882 
L 376.66623 268.449882 
L 377.189805 268.449882 
L 376.66623 275.34778 
L 373.739016 270.30778 
L 370.811803 289.874839 
L 367.88459 272.718215 
L 364.957377 271.790133 
z
" style="fill:#ff7f0e;"/>
    <path clip-path="url(#p412cc962fe)" d="M 386.660864 268.449882 
L 388.375082 268.449882 
L 391.302295 268.449882 
L 394.229508 268.449882 
L 397.156721 268.449882 
L 400.083934 268.449882 
L 403.011148 268.449882 
L 405.938361 268.449882 
L 408.865574 268.449882 
L 411.792787 268.449882 
L 411.792787 268.449882 
L 411.792787 284.439545 
L 408.865574 289.016635 
L 405.938361 283.352486 
L 403.011148 293.136015 
L 400.083934 293.136015 
L 397.156721 293.136015 
L 394.229508 293.136015 
L 391.302295 293.136015 
L 388.375082 281.954839 
z
" style="fill:#ff7f0e;"/>
   </g>
   <g id="matplotlib.axis_5">
    <g id="xtick_15">
     <g id="line2d_6">
      <defs>
       <path d="M 0 0 
L 0 3.5 
" id="meb9d79acf8" style="stroke:#000000;stroke-width:0.8;"/>
      </defs>
      <g>
       <use style="stroke:#000000;stroke-width:0.8;" x="57.6" xlink:href="#meb9d79acf8" y="307.584"/>
      </g>
     </g>
     <g id="text_6">
      <text style="font-family:DejaVu Sans;font-size:10px;font-style:normal;font-weight:normal;text-anchor:middle;" transform="rotate(-0, 57.6, 322.182437)" x="57.6" y="322.182437">0</text>
     </g>
    </g>
    <g id="xtick_16">
     <g id="line2d_7">
      <g>
       <use style="stroke:#000000;stroke-width:0.8;" x="116.144262" xlink:href="#meb9d79acf8" y="307.584"/>
      </g>
     </g>
     <g id="text_7">
      <text style="font-family:DejaVu Sans;font-size:10px;font-style:normal;font-weight:normal;text-anchor:middle;" transform="rotate(-0, 116.144262, 322.182437)" x="116.144262" y="322.182437">20</text>
     </g>
    </g>
    <g id="xtick_17">
     <g id="line2d_8">
      <g>
       <use style="stroke:#000000;stroke-width:0.8;" x="174.688525" xlink:href="#meb9d79acf8" y="307.584"/>
      </g>
     </g>
     <g id="text_8">
      <text style="font-family:DejaVu Sans;font-size:10px;font-style:normal;font-weight:normal;text-anchor:middle;" transform="rotate(-0, 174.688525, 322.182437)" x="174.688525" y="322.182437">40</text>
     </g>
    </g>
    <g id="xtick_18">
     <g id="line2d_9">
      <g>
       <use style="stroke:#000000;stroke-width:0.8;" x="233.232787" xlink:href="#meb9d79acf8" y="307.584"/>
      </g>
     </g>
     <g id="text_9">
      <text style="font-family:DejaVu Sans;font-size:10px;font-style:normal;font-weight:normal;text-anchor:middle;" transform="rotate(-0, 233.232787, 322.182437)" x="233.232787" y="322.182437">60</text>
     </g>
    </g>
    <g id="xtick_19">
     <g id="line2d_10">
      <g>
       <use style="stroke:#000000;stroke-width:0.8;" x="291.777049" xlink:href="#meb9d79acf8" y="307.584"/>
      </g>
     </g>
     <g id="text_10">
      <text style="font-family:DejaVu Sans;font-size:10px;font-style:normal;font-weight:normal;text-anchor:middle;" transform="rotate(-0, 291.777049, 322.182437)" x="291.777049" y="322.182437">80</text>
     </g>
    </g>
    <g id="xtick_20">
     <g id="line2d_11">
      <g>
       <use style="stroke:#000000;stroke-width:0.8;" x="350.321311" xlink:href="#meb9d79acf8" y="307.584"/>
      </g>
     </g>
     <g id="text_11">
      <text style="font-family:DejaVu Sans;font-size:10px;font-style:normal;font-weight:normal;text-anchor:middle;" transform="rotate(-0, 350.321311, 322.182437)" x="350.321311" y="322.182437">100</text>
     </g>
    </g>
    <g id="xtick_21">
     <g id="line2d_12">
      <g>
       <use style="stroke:#000000;stroke-width:0.8;" x="408.865574" xlink:href="#meb9d79acf8" y="307.584"/>
      </g>
     </g>
     <g id="text_12">
      <text style="font-family:DejaVu Sans;font-size:10px;font-style:normal;font-weight:normal;text-anchor:middle;" transform="rotate(-0, 408.865574, 322.182437)" x="408.865574" y="322.182437">120</text>
     </g>
    </g>
    <g id="text_13">
     <text style="font-family:DejaVu Sans;font-size:10px;font-style:normal;font-weight:normal;text-anchor:middle;" transform="rotate(-0, 236.16, 335.860562)" x="236.16" y="335.860562">Chr 11 Genomic Coordinate [Mb]</text>
    </g>
   </g>
   <g id="matplotlib.axis_6">
    <g id="ytick_7">
     <g id="line2d_13">
      <g>
       <use style="stroke:#000000;stroke-width:0.8;" x="57.6" xlink:href="#mf9151e5389" y="307.584"/>
      </g>
     </g>
     <g id="text_14">
      <text style="font-family:DejaVu Sans;font-size:10px;font-style:normal;font-weight:normal;text-anchor:end;" transform="rotate(-0, 50.6, 311.383219)" x="50.6" y="311.383219">−0.5</text>
     </g>
    </g>
    <g id="ytick_8">
     <g id="line2d_14">
      <g>
       <use style="stroke:#000000;stroke-width:0.8;" x="57.6" xlink:href="#mf9151e5389" y="268.449882"/>
      </g>
     </g>
     <g id="text_15">
      <text style="font-family:DejaVu Sans;font-size:10px;font-style:normal;font-weight:normal;text-anchor:end;" transform="rotate(-0, 50.6, 272.249101)" x="50.6" y="272.249101">0.0</text>
     </g>
    </g>
    <g id="ytick_9">
     <g id="line2d_15">
      <g>
       <use style="stroke:#000000;stroke-width:0.8;" x="57.6" xlink:href="#mf9151e5389" y="229.315765"/>
      </g>
     </g>
     <g id="text_16">
      <text style="font-family:DejaVu Sans;font-size:10px;font-style:normal;font-weight:normal;text-anchor:end;" transform="rotate(-0, 50.6, 233.114983)" x="50.6" y="233.114983">0.5</text>
     </g>
    </g>
    <g id="text_17">
     <text style="font-family:DejaVu Sans;font-size:10px;font-style:normal;font-weight:normal;text-anchor:middle;" transform="rotate(-90, 20.2375, 268.449882)" x="20.2375" y="268.449882">Lamin spatial proximity</text>
    </g>
   </g>
   <g id="line2d_16">
    <path clip-path="url(#p412cc962fe)" d="M 66.381639 289.408957 
L 69.308852 284.105065 
L 72.236066 288.532002 
L 75.163279 282.463074 
L 78.090492 293.136015 
L 81.017705 289.222604 
L 83.944918 242.091514 
L 86.872131 247.095877 
L 89.799344 245.494481 
L 92.726557 245.305427 
L 95.65377 240.957192 
L 98.580984 217.766604 
L 101.508197 234.434839 
L 104.43541 257.915309 
L 107.362623 236.213662 
L 110.289836 239.326604 
L 113.217049 268.845873 
L 116.144262 262.509315 
L 119.071475 271.394839 
L 121.998689 257.263074 
L 124.925902 257.012214 
L 127.853115 248.411309 
L 130.780328 234.434839 
L 133.707541 238.348251 
L 136.634754 236.608957 
L 139.561967 230.521427 
L 142.48918 254.001898 
L 145.416393 263.785427 
L 148.343607 255.865427 
L 151.27082 249.305804 
L 154.198033 264.30035 
L 157.125246 273.568957 
L 160.052459 276.364251 
L 162.979672 243.703446 
L 165.906885 237.230133 
L 168.834098 247.822826 
L 171.761311 232.260721 
L 174.688525 235.159545 
L 177.615738 242.820721 
L 180.542951 237.230133 
L 183.470164 274.71996 
L 186.397377 272.264486 
L 189.32459 277.482368 
L 192.251803 285.309192 
L 195.179016 267.046604 
L 198.10623 258.350133 
L 201.033443 273.568957 
L 203.960656 275.074115 
L 206.887869 284.897254 
L 209.815082 278.460721 
L 212.742295 281.094748 
L 215.669508 277.482368 
L 218.596721 275.743074 
L 221.523934 284.897254 
L 224.451148 280.091309 
L 227.378361 283.352486 
L 230.305574 288.244251 
L 233.232787 293.136015 
L 236.16 273.568957 
L 239.087213 271.790133 
L 242.014426 287.738206 
L 244.941639 270.115946 
L 247.868852 280.777873 
L 250.796066 288.78778 
L 253.723279 288.532002 
L 256.650492 279.524148 
L 259.577705 289.408957 
L 262.504918 283.352486 
L 265.432131 274.500721 
L 268.359344 286.874557 
L 271.286557 268.419731 
L 274.21377 278.084432 
L 277.140984 274.500721 
L 280.068197 273.568957 
L 282.99541 267.046604 
L 285.922623 281.954839 
L 288.849836 293.136015 
L 291.777049 286.020721 
L 294.704262 276.364251 
L 297.631475 261.117192 
L 300.558689 272.264486 
L 303.485902 277.482368 
L 306.413115 269.053481 
L 309.340328 254.001898 
L 312.267541 274.351639 
L 315.194754 281.094748 
L 318.121967 250.444251 
L 321.04918 244.218368 
L 323.976393 243.703446 
L 326.903607 235.739309 
L 329.83082 235.285581 
L 332.758033 270.773662 
L 335.685246 271.394839 
L 338.612459 285.309192 
L 341.539672 287.918133 
L 344.466885 288.244251 
L 347.394098 278.905427 
L 350.321311 293.136015 
L 353.248525 289.578368 
L 356.175738 288.78778 
L 359.102951 270.773662 
L 362.030164 263.319545 
L 364.957377 271.790133 
L 367.88459 272.718215 
L 370.811803 289.874839 
L 373.739016 270.30778 
L 376.66623 275.34778 
L 379.593443 236.782886 
L 382.520656 240.957192 
L 385.447869 258.893662 
L 388.375082 281.954839 
L 391.302295 293.136015 
L 394.229508 293.136015 
L 397.156721 293.136015 
L 400.083934 293.136015 
L 403.011148 293.136015 
L 405.938361 283.352486 
L 408.865574 289.016635 
L 411.792787 284.439545 
" style="fill:none;stroke:#000000;stroke-linecap:square;stroke-opacity:0.5;"/>
   </g>
   <g id="line2d_17">
    <path clip-path="url(#p412cc962fe)" d="M 57.6 268.449882 
L 60.527213 268.449882 
L 63.454426 268.449882 
L 66.381639 268.449882 
L 69.308852 268.449882 
L 72.236066 268.449882 
L 75.163279 268.449882 
L 78.090492 268.449882 
L 81.017705 268.449882 
L 83.944918 268.449882 
L 86.872131 268.449882 
L 89.799344 268.449882 
L 92.726557 268.449882 
L 95.65377 268.449882 
L 98.580984 268.449882 
L 101.508197 268.449882 
L 104.43541 268.449882 
L 107.362623 268.449882 
L 110.289836 268.449882 
L 113.217049 268.449882 
L 116.144262 268.449882 
L 119.071475 268.449882 
L 121.998689 268.449882 
L 124.925902 268.449882 
L 127.853115 268.449882 
L 130.780328 268.449882 
L 133.707541 268.449882 
L 136.634754 268.449882 
L 139.561967 268.449882 
L 142.48918 268.449882 
L 145.416393 268.449882 
L 148.343607 268.449882 
L 151.27082 268.449882 
L 154.198033 268.449882 
L 157.125246 268.449882 
L 160.052459 268.449882 
L 162.979672 268.449882 
L 165.906885 268.449882 
L 168.834098 268.449882 
L 171.761311 268.449882 
L 174.688525 268.449882 
L 177.615738 268.449882 
L 180.542951 268.449882 
L 183.470164 268.449882 
L 186.397377 268.449882 
L 189.32459 268.449882 
L 192.251803 268.449882 
L 195.179016 268.449882 
L 198.10623 268.449882 
L 201.033443 268.449882 
L 203.960656 268.449882 
L 206.887869 268.449882 
L 209.815082 268.449882 
L 212.742295 268.449882 
L 215.669508 268.449882 
L 218.596721 268.449882 
L 221.523934 268.449882 
L 224.451148 268.449882 
L 227.378361 268.449882 
L 230.305574 268.449882 
L 233.232787 268.449882 
L 236.16 268.449882 
L 239.087213 268.449882 
L 242.014426 268.449882 
L 244.941639 268.449882 
L 247.868852 268.449882 
L 250.796066 268.449882 
L 253.723279 268.449882 
L 256.650492 268.449882 
L 259.577705 268.449882 
L 262.504918 268.449882 
L 265.432131 268.449882 
L 268.359344 268.449882 
L 271.286557 268.449882 
L 274.21377 268.449882 
L 277.140984 268.449882 
L 280.068197 268.449882 
L 282.99541 268.449882 
L 285.922623 268.449882 
L 288.849836 268.449882 
L 291.777049 268.449882 
L 294.704262 268.449882 
L 297.631475 268.449882 
L 300.558689 268.449882 
L 303.485902 268.449882 
L 306.413115 268.449882 
L 309.340328 268.449882 
L 312.267541 268.449882 
L 315.194754 268.449882 
L 318.121967 268.449882 
L 321.04918 268.449882 
L 323.976393 268.449882 
L 326.903607 268.449882 
L 329.83082 268.449882 
L 332.758033 268.449882 
L 335.685246 268.449882 
L 338.612459 268.449882 
L 341.539672 268.449882 
L 344.466885 268.449882 
L 347.394098 268.449882 
L 350.321311 268.449882 
L 353.248525 268.449882 
L 356.175738 268.449882 
L 359.102951 268.449882 
L 362.030164 268.449882 
L 364.957377 268.449882 
L 367.88459 268.449882 
L 370.811803 268.449882 
L 373.739016 268.449882 
L 376.66623 268.449882 
L 379.593443 268.449882 
L 382.520656 268.449882 
L 385.447869 268.449882 
L 388.375082 268.449882 
L 391.302295 268.449882 
L 394.229508 268.449882 
L 397.156721 268.449882 
L 400.083934 268.449882 
L 403.011148 268.449882 
L 405.938361 268.449882 
L 408.865574 268.449882 
L 411.792787 268.449882 
L 414.72 268.449882 
" style="fill:none;stroke:#000000;stroke-linecap:square;"/>
   </g>
   <g id="patch_13">
    <path d="M 57.6 307.584 
L 57.6 229.315765 
" style="fill:none;stroke:#000000;stroke-linecap:square;stroke-linejoin:miter;stroke-width:0.8;"/>
   </g>
   <g id="patch_14">
    <path d="M 57.6 307.584 
L 414.72 307.584 
" style="fill:none;stroke:#000000;stroke-linecap:square;stroke-linejoin:miter;stroke-width:0.8;"/>
   </g>
  </g>
 </g>
 <defs>
  <clipPath id="p092760b9c6">
   <rect height="78.268235" width="357.12" x="57.6" y="41.472"/>
  </clipPath>
  <clipPath id="p10c6b3eae1">
   <rect height="78.268235" width="357.12" x="57.6" y="135.393882"/>
  </clipPath>
  <clipPath id="p412cc962fe">
   <rect height="78.268235" width="357.12" x="57.6" y="229.315765"/>
  </clipPath>
 </defs>
</svg>
