<?xml version="1.0" encoding="utf-8" standalone="no"?>
<!DOCTYPE svg PUBLIC "-//W3C//DTD SVG 1.1//EN"
  "http://www.w3.org/Graphics/SVG/1.1/DTD/svg11.dtd">
<!-- Created with matplotlib (https://matplotlib.org/) -->
<svg height="288pt" version="1.1" viewBox="0 0 432 288" width="432pt" xmlns="http://www.w3.org/2000/svg" xmlns:xlink="http://www.w3.org/1999/xlink">
 <defs>
  <style type="text/css">
*{stroke-linecap:butt;stroke-linejoin:round;}
  </style>
 </defs>
 <g id="figure_1">
  <g id="patch_1">
   <path d="M 0 288 
L 432 288 
L 432 0 
L 0 0 
z
" style="fill:#ffffff;"/>
  </g>
  <g id="axes_1">
   <g id="patch_2">
    <path d="M 54 98.512941 
L 388.8 98.512941 
L 388.8 34.56 
L 54 34.56 
z
" style="fill:#ffffff;"/>
   </g>
   <g id="PolyCollection_1">
    <path clip-path="url(#pb8d5fca720)" d="M 71.381398 66.536471 
L 73.209836 66.536471 
L 75.954098 66.536471 
L 78.698361 66.536471 
L 81.442623 66.536471 
L 84.186885 66.536471 
L 86.931148 66.536471 
L 89.67541 66.536471 
L 92.419672 66.536471 
L 95.163934 66.536471 
L 97.908197 66.536471 
L 100.652459 66.536471 
L 103.396721 66.536471 
L 106.140984 66.536471 
L 107.427286 66.536471 
L 106.140984 60.965374 
L 103.396721 42.575365 
L 100.652459 43.541777 
L 97.908197 38.503493 
L 95.163934 38.066523 
L 92.419672 38.737718 
L 89.67541 38.43102 
L 86.931148 40.10356 
L 84.186885 41.267242 
L 81.442623 37.723746 
L 78.698361 39.781786 
L 75.954098 53.160032 
L 73.209836 53.497675 
z
" style="fill:#1f77b4;"/>
    <path clip-path="url(#pb8d5fca720)" d="M 109.596101 66.536471 
L 111.629508 66.536471 
L 114.37377 66.536471 
L 117.118033 66.536471 
L 119.862295 66.536471 
L 122.606557 66.536471 
L 125.35082 66.536471 
L 128.095082 66.536471 
L 130.839344 66.536471 
L 133.583607 66.536471 
L 136.327869 66.536471 
L 139.072131 66.536471 
L 141.816393 66.536471 
L 144.560656 66.536471 
L 147.304918 66.536471 
L 150.04918 66.536471 
L 152.793443 66.536471 
L 155.537705 66.536471 
L 158.281967 66.536471 
L 161.02623 66.536471 
L 163.770492 66.536471 
L 166.514754 66.536471 
L 169.259016 66.536471 
L 172.003279 66.536471 
L 174.747541 66.536471 
L 177.491803 66.536471 
L 180.236066 66.536471 
L 182.980328 66.536471 
L 185.72459 66.536471 
L 188.468852 66.536471 
L 190.150682 66.536471 
L 188.468852 49.60496 
L 185.72459 40.538044 
L 182.980328 36.62548 
L 180.236066 49.722249 
L 177.491803 48.014849 
L 174.747541 49.801793 
L 172.003279 41.993576 
L 169.259016 35.783723 
L 166.514754 35.080686 
L 163.770492 35.218429 
L 161.02623 35.097434 
L 158.281967 34.407186 
L 155.537705 35.626659 
L 152.793443 37.104809 
L 150.04918 53.835079 
L 147.304918 49.178912 
L 144.560656 59.453101 
L 141.816393 65.771468 
L 139.072131 55.447212 
L 136.327869 44.053548 
L 133.583607 42.461581 
L 130.839344 35.983337 
L 128.095082 34.826242 
L 125.35082 36.097434 
L 122.606557 36.072659 
L 119.862295 44.40678 
L 117.118033 59.509128 
L 114.37377 60.305471 
L 111.629508 48.473621 
z
" style="fill:#1f77b4;"/>
    <path clip-path="url(#pb8d5fca720)" d="M 286.686231 66.536471 
L 287.262295 66.536471 
L 288.645468 66.536471 
L 287.262295 63.864502 
z
" style="fill:#1f77b4;"/>
    <path clip-path="url(#pb8d5fca720)" d="M 296.946323 66.536471 
L 298.239344 66.536471 
L 300.983607 66.536471 
L 303.727869 66.536471 
L 306.472131 66.536471 
L 309.216393 66.536471 
L 311.46723 66.536471 
L 309.216393 47.20876 
L 306.472131 41.578027 
L 303.727869 43.186377 
L 300.983607 51.632673 
L 298.239344 57.343752 
z
" style="fill:#1f77b4;"/>
    <path clip-path="url(#pb8d5fca720)" d="M 354.945113 66.536471 
L 355.868852 66.536471 
L 358.613115 66.536471 
L 361.003575 66.536471 
L 358.613115 54.052918 
L 355.868852 62.243716 
z
" style="fill:#1f77b4;"/>
   </g>
   <g id="PolyCollection_2">
    <path clip-path="url(#pb8d5fca720)" d="M 62.232787 66.536471 
L 62.232787 66.536471 
L 64.977049 66.536471 
L 67.721311 66.536471 
L 70.465574 66.536471 
L 71.381398 66.536471 
L 70.465574 73.067316 
L 67.721311 79.544849 
L 64.977049 76.39912 
L 62.232787 86.364831 
z
" style="fill:#ff7f0e;"/>
    <path clip-path="url(#pb8d5fca720)" d="M 107.427286 66.536471 
L 108.885246 66.536471 
L 109.596101 66.536471 
L 108.885246 72.851035 
z
" style="fill:#ff7f0e;"/>
    <path clip-path="url(#pb8d5fca720)" d="M 190.150682 66.536471 
L 191.213115 66.536471 
L 193.957377 66.536471 
L 196.701639 66.536471 
L 199.445902 66.536471 
L 202.190164 66.536471 
L 204.934426 66.536471 
L 207.678689 66.536471 
L 210.422951 66.536471 
L 213.167213 66.536471 
L 215.911475 66.536471 
L 218.655738 66.536471 
L 221.4 66.536471 
L 224.144262 66.536471 
L 226.888525 66.536471 
L 229.632787 66.536471 
L 232.377049 66.536471 
L 235.121311 66.536471 
L 237.865574 66.536471 
L 240.609836 66.536471 
L 243.354098 66.536471 
L 246.098361 66.536471 
L 248.842623 66.536471 
L 251.586885 66.536471 
L 254.331148 66.536471 
L 257.07541 66.536471 
L 259.819672 66.536471 
L 262.563934 66.536471 
L 265.308197 66.536471 
L 268.052459 66.536471 
L 270.796721 66.536471 
L 273.540984 66.536471 
L 276.285246 66.536471 
L 279.029508 66.536471 
L 281.77377 66.536471 
L 284.518033 66.536471 
L 286.686231 66.536471 
L 284.518033 76.593268 
L 281.77377 81.248518 
L 279.029508 82.386766 
L 276.285246 73.551929 
L 273.540984 85.396749 
L 270.796721 90.12131 
L 268.052459 88.720431 
L 265.308197 80.268311 
L 262.563934 89.012945 
L 259.819672 88.182223 
L 257.07541 81.540368 
L 254.331148 73.186311 
L 251.586885 85.133849 
L 248.842623 85.38424 
L 246.098361 90.088053 
L 243.354098 89.460706 
L 240.609836 90.703403 
L 237.865574 87.672218 
L 235.121311 72.786466 
L 232.377049 71.215265 
L 229.632787 72.357896 
L 226.888525 82.913432 
L 224.144262 87.12829 
L 221.4 84.474785 
L 218.655738 88.068769 
L 215.911475 89.971999 
L 213.167213 76.811478 
L 210.422951 71.368178 
L 207.678689 66.887245 
L 204.934426 70.147027 
L 202.190164 68.85282 
L 199.445902 81.213853 
L 196.701639 80.146391 
L 193.957377 82.02015 
L 191.213115 77.232319 
z
" style="fill:#ff7f0e;"/>
    <path clip-path="url(#pb8d5fca720)" d="M 288.645468 66.536471 
L 290.006557 66.536471 
L 292.75082 66.536471 
L 295.495082 66.536471 
L 296.946323 66.536471 
L 295.495082 76.854048 
L 292.75082 83.503654 
L 290.006557 69.16578 
z
" style="fill:#ff7f0e;"/>
    <path clip-path="url(#pb8d5fca720)" d="M 311.46723 66.536471 
L 311.960656 66.536471 
L 314.704918 66.536471 
L 317.44918 66.536471 
L 320.193443 66.536471 
L 322.937705 66.536471 
L 325.681967 66.536471 
L 328.42623 66.536471 
L 331.170492 66.536471 
L 333.914754 66.536471 
L 336.659016 66.536471 
L 339.403279 66.536471 
L 342.147541 66.536471 
L 344.891803 66.536471 
L 347.636066 66.536471 
L 350.380328 66.536471 
L 353.12459 66.536471 
L 354.945113 66.536471 
L 353.12459 74.996706 
L 350.380328 77.297022 
L 347.636066 84.82014 
L 344.891803 88.190999 
L 342.147541 72.300335 
L 339.403279 77.422112 
L 336.659016 86.752995 
L 333.914754 89.191081 
L 331.170492 92.085435 
L 328.42623 87.708751 
L 325.681967 80.392256 
L 322.937705 88.664105 
L 320.193443 83.67026 
L 317.44918 83.80109 
L 314.704918 82.420571 
L 311.960656 70.773469 
z
" style="fill:#ff7f0e;"/>
    <path clip-path="url(#pb8d5fca720)" d="M 361.003575 66.536471 
L 361.357377 66.536471 
L 364.101639 66.536471 
L 366.845902 66.536471 
L 369.590164 66.536471 
L 372.334426 66.536471 
L 375.078689 66.536471 
L 377.822951 66.536471 
L 380.567213 66.536471 
L 383.311475 66.536471 
L 386.055738 66.536471 
L 386.055738 66.536471 
L 386.055738 89.273155 
L 383.311475 88.997997 
L 380.567213 90.465373 
L 377.822951 89.932305 
L 375.078689 88.838046 
L 372.334426 89.439792 
L 369.590164 87.879541 
L 366.845902 85.904951 
L 364.101639 80.277323 
L 361.357377 68.38411 
z
" style="fill:#ff7f0e;"/>
   </g>
   <g id="matplotlib.axis_1">
    <g id="xtick_1"/>
    <g id="xtick_2"/>
    <g id="xtick_3"/>
    <g id="xtick_4"/>
    <g id="xtick_5"/>
    <g id="xtick_6"/>
    <g id="xtick_7"/>
   </g>
   <g id="matplotlib.axis_2">
    <g id="ytick_1">
     <g id="line2d_1">
      <defs>
       <path d="M 0 0 
L -3.5 0 
" id="mc1de487234" style="stroke:#000000;stroke-width:0.8;"/>
      </defs>
      <g>
       <use style="stroke:#000000;stroke-width:0.8;" x="54" xlink:href="#mc1de487234" y="87.854118"/>
      </g>
     </g>
     <g id="text_1">
      <text style="font-family:DejaVu Sans;font-size:10px;font-style:normal;font-weight:normal;text-anchor:end;" transform="rotate(-0, 47, 91.653336)" x="47" y="91.653336">−0.1</text>
     </g>
    </g>
    <g id="ytick_2">
     <g id="line2d_2">
      <g>
       <use style="stroke:#000000;stroke-width:0.8;" x="54" xlink:href="#mc1de487234" y="66.536471"/>
      </g>
     </g>
     <g id="text_2">
      <text style="font-family:DejaVu Sans;font-size:10px;font-style:normal;font-weight:normal;text-anchor:end;" transform="rotate(-0, 47, 70.335689)" x="47" y="70.335689">0.0</text>
     </g>
    </g>
    <g id="ytick_3">
     <g id="line2d_3">
      <g>
       <use style="stroke:#000000;stroke-width:0.8;" x="54" xlink:href="#mc1de487234" y="45.218824"/>
      </g>
     </g>
     <g id="text_3">
      <text style="font-family:DejaVu Sans;font-size:10px;font-style:normal;font-weight:normal;text-anchor:end;" transform="rotate(-0, 47, 49.018042)" x="47" y="49.018042">0.1</text>
     </g>
    </g>
    <g id="text_4">
     <text style="font-family:DejaVu Sans;font-size:10px;font-style:normal;font-weight:normal;text-anchor:middle;" transform="rotate(-90, 16.6375, 66.536471)" x="16.6375" y="66.536471">Hi-C Eig</text>
    </g>
   </g>
   <g id="line2d_4">
    <path clip-path="url(#pb8d5fca720)" d="M 62.232787 86.364831 
L 64.977049 76.39912 
L 67.721311 79.544849 
L 70.465574 73.067316 
L 73.209836 53.497675 
L 75.954098 53.160032 
L 78.698361 39.781786 
L 81.442623 37.723746 
L 84.186885 41.267242 
L 86.931148 40.10356 
L 89.67541 38.43102 
L 92.419672 38.737718 
L 95.163934 38.066523 
L 97.908197 38.503493 
L 100.652459 43.541777 
L 103.396721 42.575365 
L 106.140984 60.965374 
L 108.885246 72.851035 
L 111.629508 48.473621 
L 114.37377 60.305471 
L 117.118033 59.509128 
L 119.862295 44.40678 
L 122.606557 36.072659 
L 125.35082 36.097434 
L 128.095082 34.826242 
L 130.839344 35.983337 
L 133.583607 42.461581 
L 136.327869 44.053548 
L 139.072131 55.447212 
L 141.816393 65.771468 
L 144.560656 59.453101 
L 147.304918 49.178912 
L 150.04918 53.835079 
L 152.793443 37.104809 
L 155.537705 35.626659 
L 158.281967 34.407186 
L 161.02623 35.097434 
L 163.770492 35.218429 
L 166.514754 35.080686 
L 169.259016 35.783723 
L 172.003279 41.993576 
L 174.747541 49.801793 
L 177.491803 48.014849 
L 180.236066 49.722249 
L 182.980328 36.62548 
L 185.72459 40.538044 
L 188.468852 49.60496 
L 191.213115 77.232319 
L 193.957377 82.02015 
L 196.701639 80.146391 
L 199.445902 81.213853 
L 202.190164 68.85282 
L 204.934426 70.147027 
L 207.678689 66.887245 
L 210.422951 71.368178 
L 213.167213 76.811478 
L 215.911475 89.971999 
L 218.655738 88.068769 
L 221.4 84.474785 
L 224.144262 87.12829 
L 226.888525 82.913432 
L 229.632787 72.357896 
L 232.377049 71.215265 
L 235.121311 72.786466 
L 237.865574 87.672218 
L 240.609836 90.703403 
L 243.354098 89.460706 
L 246.098361 90.088053 
L 248.842623 85.38424 
L 251.586885 85.133849 
L 254.331148 73.186311 
L 257.07541 81.540368 
L 259.819672 88.182223 
L 262.563934 89.012945 
L 265.308197 80.268311 
L 268.052459 88.720431 
L 270.796721 90.12131 
L 273.540984 85.396749 
L 276.285246 73.551929 
L 279.029508 82.386766 
L 281.77377 81.248518 
L 284.518033 76.593268 
L 287.262295 63.864502 
L 290.006557 69.16578 
L 292.75082 83.503654 
L 295.495082 76.854048 
L 298.239344 57.343752 
L 300.983607 51.632673 
L 303.727869 43.186377 
L 306.472131 41.578027 
L 309.216393 47.20876 
L 311.960656 70.773469 
L 314.704918 82.420571 
L 317.44918 83.80109 
L 320.193443 83.67026 
L 322.937705 88.664105 
L 325.681967 80.392256 
L 328.42623 87.708751 
L 331.170492 92.085435 
L 333.914754 89.191081 
L 336.659016 86.752995 
L 339.403279 77.422112 
L 342.147541 72.300335 
L 344.891803 88.190999 
L 347.636066 84.82014 
L 350.380328 77.297022 
L 353.12459 74.996706 
L 355.868852 62.243716 
L 358.613115 54.052918 
L 361.357377 68.38411 
L 364.101639 80.277323 
L 366.845902 85.904951 
L 369.590164 87.879541 
L 372.334426 89.439792 
L 375.078689 88.838046 
L 377.822951 89.932305 
L 380.567213 90.465373 
L 383.311475 88.997997 
L 386.055738 89.273155 
" style="fill:none;stroke:#000000;stroke-linecap:square;stroke-opacity:0.5;"/>
   </g>
   <g id="line2d_5">
    <path clip-path="url(#pb8d5fca720)" d="M 54 66.536471 
L 56.744262 66.536471 
L 59.488525 66.536471 
L 62.232787 66.536471 
L 64.977049 66.536471 
L 67.721311 66.536471 
L 70.465574 66.536471 
L 73.209836 66.536471 
L 75.954098 66.536471 
L 78.698361 66.536471 
L 81.442623 66.536471 
L 84.186885 66.536471 
L 86.931148 66.536471 
L 89.67541 66.536471 
L 92.419672 66.536471 
L 95.163934 66.536471 
L 97.908197 66.536471 
L 100.652459 66.536471 
L 103.396721 66.536471 
L 106.140984 66.536471 
L 108.885246 66.536471 
L 111.629508 66.536471 
L 114.37377 66.536471 
L 117.118033 66.536471 
L 119.862295 66.536471 
L 122.606557 66.536471 
L 125.35082 66.536471 
L 128.095082 66.536471 
L 130.839344 66.536471 
L 133.583607 66.536471 
L 136.327869 66.536471 
L 139.072131 66.536471 
L 141.816393 66.536471 
L 144.560656 66.536471 
L 147.304918 66.536471 
L 150.04918 66.536471 
L 152.793443 66.536471 
L 155.537705 66.536471 
L 158.281967 66.536471 
L 161.02623 66.536471 
L 163.770492 66.536471 
L 166.514754 66.536471 
L 169.259016 66.536471 
L 172.003279 66.536471 
L 174.747541 66.536471 
L 177.491803 66.536471 
L 180.236066 66.536471 
L 182.980328 66.536471 
L 185.72459 66.536471 
L 188.468852 66.536471 
L 191.213115 66.536471 
L 193.957377 66.536471 
L 196.701639 66.536471 
L 199.445902 66.536471 
L 202.190164 66.536471 
L 204.934426 66.536471 
L 207.678689 66.536471 
L 210.422951 66.536471 
L 213.167213 66.536471 
L 215.911475 66.536471 
L 218.655738 66.536471 
L 221.4 66.536471 
L 224.144262 66.536471 
L 226.888525 66.536471 
L 229.632787 66.536471 
L 232.377049 66.536471 
L 235.121311 66.536471 
L 237.865574 66.536471 
L 240.609836 66.536471 
L 243.354098 66.536471 
L 246.098361 66.536471 
L 248.842623 66.536471 
L 251.586885 66.536471 
L 254.331148 66.536471 
L 257.07541 66.536471 
L 259.819672 66.536471 
L 262.563934 66.536471 
L 265.308197 66.536471 
L 268.052459 66.536471 
L 270.796721 66.536471 
L 273.540984 66.536471 
L 276.285246 66.536471 
L 279.029508 66.536471 
L 281.77377 66.536471 
L 284.518033 66.536471 
L 287.262295 66.536471 
L 290.006557 66.536471 
L 292.75082 66.536471 
L 295.495082 66.536471 
L 298.239344 66.536471 
L 300.983607 66.536471 
L 303.727869 66.536471 
L 306.472131 66.536471 
L 309.216393 66.536471 
L 311.960656 66.536471 
L 314.704918 66.536471 
L 317.44918 66.536471 
L 320.193443 66.536471 
L 322.937705 66.536471 
L 325.681967 66.536471 
L 328.42623 66.536471 
L 331.170492 66.536471 
L 333.914754 66.536471 
L 336.659016 66.536471 
L 339.403279 66.536471 
L 342.147541 66.536471 
L 344.891803 66.536471 
L 347.636066 66.536471 
L 350.380328 66.536471 
L 353.12459 66.536471 
L 355.868852 66.536471 
L 358.613115 66.536471 
L 361.357377 66.536471 
L 364.101639 66.536471 
L 366.845902 66.536471 
L 369.590164 66.536471 
L 372.334426 66.536471 
L 375.078689 66.536471 
L 377.822951 66.536471 
L 380.567213 66.536471 
L 383.311475 66.536471 
L 386.055738 66.536471 
L 388.8 66.536471 
" style="fill:none;stroke:#000000;stroke-linecap:square;"/>
   </g>
   <g id="patch_3">
    <path d="M 54 98.512941 
L 54 34.56 
" style="fill:none;stroke:#000000;stroke-linecap:square;stroke-linejoin:miter;stroke-width:0.8;"/>
   </g>
  </g>
  <g id="axes_2">
   <g id="patch_4">
    <path d="M 54 175.256471 
L 388.8 175.256471 
L 388.8 111.303529 
L 54 111.303529 
z
" style="fill:#ffffff;"/>
   </g>
   <g id="patch_5">
    <path clip-path="url(#p33f0555555)" d="M 78.698361 143.28 
L 84.186885 143.28 
L 84.186885 130.489412 
L 78.698361 130.489412 
z
" style="fill:#1f77b4;stroke:#000000;stroke-linejoin:miter;stroke-width:0.5;"/>
   </g>
   <g id="patch_6">
    <path clip-path="url(#p33f0555555)" d="M 86.931148 143.28 
L 103.396721 143.28 
L 103.396721 130.489412 
L 86.931148 130.489412 
z
" style="fill:#1f77b4;stroke:#000000;stroke-linejoin:miter;stroke-width:0.5;"/>
   </g>
   <g id="patch_7">
    <path clip-path="url(#p33f0555555)" d="M 122.606557 143.28 
L 130.839344 143.28 
L 130.839344 130.489412 
L 122.606557 130.489412 
z
" style="fill:#1f77b4;stroke:#000000;stroke-linejoin:miter;stroke-width:0.5;"/>
   </g>
   <g id="patch_8">
    <path clip-path="url(#p33f0555555)" d="M 152.793443 143.28 
L 172.003279 143.28 
L 172.003279 130.489412 
L 152.793443 130.489412 
z
" style="fill:#1f77b4;stroke:#000000;stroke-linejoin:miter;stroke-width:0.5;"/>
   </g>
   <g id="patch_9">
    <path clip-path="url(#p33f0555555)" d="M 182.980328 143.28 
L 185.72459 143.28 
L 185.72459 130.489412 
L 182.980328 130.489412 
z
" style="fill:#1f77b4;stroke:#000000;stroke-linejoin:miter;stroke-width:0.5;"/>
   </g>
   <g id="patch_10">
    <path clip-path="url(#p33f0555555)" d="M 298.239344 143.28 
L 309.216393 143.28 
L 309.216393 130.489412 
L 298.239344 130.489412 
z
" style="fill:#1f77b4;stroke:#000000;stroke-linejoin:miter;stroke-width:0.5;"/>
   </g>
   <g id="patch_11">
    <path clip-path="url(#p33f0555555)" d="M 355.868852 143.28 
L 361.357377 143.28 
L 361.357377 130.489412 
L 355.868852 130.489412 
z
" style="fill:#1f77b4;stroke:#000000;stroke-linejoin:miter;stroke-width:0.5;"/>
   </g>
   <g id="matplotlib.axis_3">
    <g id="xtick_8"/>
    <g id="xtick_9"/>
    <g id="xtick_10"/>
    <g id="xtick_11"/>
    <g id="xtick_12"/>
    <g id="xtick_13"/>
    <g id="xtick_14"/>
   </g>
   <g id="matplotlib.axis_4">
    <g id="ytick_4"/>
    <g id="ytick_5"/>
    <g id="ytick_6"/>
    <g id="text_5">
     <text style="font-family:DejaVu Sans;font-size:10px;font-style:normal;font-weight:normal;text-anchor:middle;" transform="rotate(-90, 47.920313, 143.28)" x="47.920313" y="143.28">LAD</text>
    </g>
   </g>
  </g>
  <g id="axes_3">
   <g id="patch_12">
    <path d="M 54 252 
L 388.8 252 
L 388.8 188.047059 
L 54 188.047059 
z
" style="fill:#ffffff;"/>
   </g>
   <g id="PolyCollection_3">
    <path clip-path="url(#pc86e01cbb7)" d="M 77.163614 220.023529 
L 78.698361 220.023529 
L 81.442623 220.023529 
L 84.186885 220.023529 
L 86.931148 220.023529 
L 89.67541 220.023529 
L 92.419672 220.023529 
L 95.163934 220.023529 
L 97.908197 220.023529 
L 100.652459 220.023529 
L 103.396721 220.023529 
L 106.10417 220.023529 
L 103.396721 196.226911 
L 100.652459 193.683328 
L 97.908197 211.415734 
L 95.163934 192.229852 
L 92.419672 178.610244 
L 89.67541 197.559264 
L 86.931148 201.112205 
L 84.186885 201.266681 
L 81.442623 202.575181 
L 78.698361 198.486118 
z
" style="fill:#1f77b4;"/>
    <path clip-path="url(#pc86e01cbb7)" d="M 106.312481 220.023529 
L 108.885246 220.023529 
L 110.719969 220.023529 
L 108.885246 215.169494 
z
" style="fill:#1f77b4;"/>
    <path clip-path="url(#pc86e01cbb7)" d="M 112.201392 220.023529 
L 114.37377 220.023529 
L 117.118033 220.023529 
L 119.862295 220.023529 
L 122.606557 220.023529 
L 125.35082 220.023529 
L 128.095082 220.023529 
L 130.839344 220.023529 
L 133.583607 220.023529 
L 136.327869 220.023529 
L 139.072131 220.023529 
L 141.816393 220.023529 
L 144.560656 220.023529 
L 145.789255 220.023529 
L 144.560656 216.632948 
L 141.816393 204.380911 
L 139.072131 209.740776 
L 136.327869 216.212205 
L 133.583607 208.218087 
L 130.839344 189.032205 
L 128.095082 194.006323 
L 125.35082 195.427499 
L 122.606557 192.229852 
L 119.862295 203.65002 
L 117.118033 210.677816 
L 114.37377 210.882793 
z
" style="fill:#1f77b4;"/>
    <path clip-path="url(#pc86e01cbb7)" d="M 150.71417 220.023529 
L 152.793443 220.023529 
L 155.537705 220.023529 
L 158.281967 220.023529 
L 161.02623 220.023529 
L 163.770492 220.023529 
L 166.514754 220.023529 
L 169.259016 220.023529 
L 171.544308 220.023529 
L 169.259016 194.513886 
L 166.514754 199.081953 
L 163.770492 192.822009 
L 161.02623 190.453382 
L 158.281967 203.169171 
L 155.537705 194.513886 
L 152.793443 199.803227 
z
" style="fill:#1f77b4;"/>
    <path clip-path="url(#pc86e01cbb7)" d="M 182.769462 220.023529 
L 182.980328 220.023529 
L 185.72459 220.023529 
L 187.54578 220.023529 
L 185.72459 211.771029 
L 182.980328 218.876911 
z
" style="fill:#1f77b4;"/>
    <path clip-path="url(#pc86e01cbb7)" d="M 254.326664 220.023529 
L 254.331148 220.023529 
L 254.339709 220.023529 
L 254.331148 219.998892 
z
" style="fill:#1f77b4;"/>
    <path clip-path="url(#pc86e01cbb7)" d="M 264.717771 220.023529 
L 265.308197 220.023529 
L 265.566508 220.023529 
L 265.308197 218.876911 
z
" style="fill:#1f77b4;"/>
    <path clip-path="url(#pc86e01cbb7)" d="M 277.709724 220.023529 
L 279.029508 220.023529 
L 280.834684 220.023529 
L 279.029508 214.031991 
z
" style="fill:#1f77b4;"/>
    <path clip-path="url(#pc86e01cbb7)" d="M 287.372346 220.023529 
L 290.006557 220.023529 
L 291.954939 220.023529 
L 290.006557 208.218087 
z
" style="fill:#1f77b4;"/>
    <path clip-path="url(#pc86e01cbb7)" d="M 296.627228 220.023529 
L 298.239344 220.023529 
L 300.983607 220.023529 
L 303.727869 220.023529 
L 306.472131 220.023529 
L 309.216393 220.023529 
L 311.78096 220.023529 
L 309.216393 192.924993 
L 306.472131 193.295734 
L 303.727869 199.803227 
L 300.983607 200.22397 
L 298.239344 205.311136 
z
" style="fill:#1f77b4;"/>
    <path clip-path="url(#pc86e01cbb7)" d="M 337.514525 220.023529 
L 339.403279 220.023529 
L 341.065382 220.023529 
L 339.403279 215.831533 
z
" style="fill:#1f77b4;"/>
    <path clip-path="url(#pc86e01cbb7)" d="M 353.615442 220.023529 
L 355.868852 220.023529 
L 358.613115 220.023529 
L 361.357377 220.023529 
L 362.49456 220.023529 
L 361.357377 212.215146 
L 358.613115 197.559264 
L 355.868852 194.14844 
z
" style="fill:#1f77b4;"/>
   </g>
   <g id="PolyCollection_4">
    <path clip-path="url(#pc86e01cbb7)" d="M 62.232787 220.023529 
L 62.232787 220.023529 
L 64.977049 220.023529 
L 67.721311 220.023529 
L 70.465574 220.023529 
L 73.209836 220.023529 
L 75.954098 220.023529 
L 77.163614 220.023529 
L 75.954098 236.996911 
L 73.209836 240.194558 
L 70.465574 231.473702 
L 67.721311 236.43262 
L 64.977049 232.815372 
L 62.232787 237.14918 
z
" style="fill:#ff7f0e;"/>
    <path clip-path="url(#pc86e01cbb7)" d="M 106.10417 220.023529 
L 106.140984 220.023529 
L 106.312481 220.023529 
L 106.140984 220.347093 
z
" style="fill:#ff7f0e;"/>
    <path clip-path="url(#pc86e01cbb7)" d="M 110.719969 220.023529 
L 111.629508 220.023529 
L 112.201392 220.023529 
L 111.629508 222.429852 
z
" style="fill:#ff7f0e;"/>
    <path clip-path="url(#pc86e01cbb7)" d="M 145.789255 220.023529 
L 147.304918 220.023529 
L 150.04918 220.023529 
L 150.71417 220.023529 
L 150.04918 226.490356 
L 147.304918 224.206323 
z
" style="fill:#ff7f0e;"/>
    <path clip-path="url(#pc86e01cbb7)" d="M 171.544308 220.023529 
L 172.003279 220.023529 
L 174.747541 220.023529 
L 177.491803 220.023529 
L 180.236066 220.023529 
L 182.769462 220.023529 
L 180.236066 233.799264 
L 177.491803 227.40397 
L 174.747541 223.14044 
L 172.003279 225.146807 
z
" style="fill:#ff7f0e;"/>
    <path clip-path="url(#pc86e01cbb7)" d="M 187.54578 220.023529 
L 188.468852 220.023529 
L 191.213115 220.023529 
L 193.957377 220.023529 
L 196.701639 220.023529 
L 199.445902 220.023529 
L 202.190164 220.023529 
L 204.934426 220.023529 
L 207.678689 220.023529 
L 210.422951 220.023529 
L 213.167213 220.023529 
L 215.911475 220.023529 
L 218.655738 220.023529 
L 221.4 220.023529 
L 224.144262 220.023529 
L 226.888525 220.023529 
L 229.632787 220.023529 
L 232.377049 220.023529 
L 235.121311 220.023529 
L 237.865574 220.023529 
L 240.609836 220.023529 
L 243.354098 220.023529 
L 246.098361 220.023529 
L 248.842623 220.023529 
L 251.586885 220.023529 
L 254.326664 220.023529 
L 251.586885 235.078323 
L 248.842623 224.967667 
L 246.098361 232.20044 
L 243.354098 237.14918 
L 240.609836 229.072307 
L 237.865574 236.43262 
L 235.121311 236.641617 
L 232.377049 230.096725 
L 229.632787 221.384869 
L 226.888525 235.78401 
L 224.144262 222.752847 
L 221.4 224.206323 
L 218.655738 240.194558 
L 215.911475 236.197499 
L 213.167213 232.20044 
L 210.422951 229.535734 
L 207.678689 233.462669 
L 204.934426 225.982793 
L 202.190164 227.40397 
L 199.445902 230.355644 
L 196.701639 228.203382 
L 193.957377 233.462669 
L 191.213115 225.436187 
L 188.468852 224.206323 
z
" style="fill:#ff7f0e;"/>
    <path clip-path="url(#pc86e01cbb7)" d="M 254.339709 220.023529 
L 257.07541 220.023529 
L 259.819672 220.023529 
L 262.563934 220.023529 
L 264.717771 220.023529 
L 262.563934 224.206323 
L 259.819672 224.967667 
L 257.07541 227.895915 
z
" style="fill:#ff7f0e;"/>
    <path clip-path="url(#pc86e01cbb7)" d="M 265.566508 220.023529 
L 268.052459 220.023529 
L 270.796721 220.023529 
L 273.540984 220.023529 
L 276.285246 220.023529 
L 277.709724 220.023529 
L 276.285246 226.490356 
L 273.540984 234.380654 
L 270.796721 240.194558 
L 268.052459 231.058424 
z
" style="fill:#ff7f0e;"/>
    <path clip-path="url(#pc86e01cbb7)" d="M 280.834684 220.023529 
L 281.77377 220.023529 
L 284.518033 220.023529 
L 287.262295 220.023529 
L 287.372346 220.023529 
L 287.262295 220.51673 
L 284.518033 227.40397 
L 281.77377 223.14044 
z
" style="fill:#ff7f0e;"/>
    <path clip-path="url(#pc86e01cbb7)" d="M 291.954939 220.023529 
L 292.75082 220.023529 
L 295.495082 220.023529 
L 296.627228 220.023529 
L 295.495082 230.355644 
L 292.75082 224.845852 
z
" style="fill:#ff7f0e;"/>
    <path clip-path="url(#pc86e01cbb7)" d="M 311.78096 220.023529 
L 311.960656 220.023529 
L 314.704918 220.023529 
L 317.44918 220.023529 
L 320.193443 220.023529 
L 322.937705 220.023529 
L 325.681967 220.023529 
L 328.42623 220.023529 
L 331.170492 220.023529 
L 333.914754 220.023529 
L 336.659016 220.023529 
L 337.514525 220.023529 
L 336.659016 221.922289 
L 333.914754 236.641617 
L 331.170492 237.287606 
L 328.42623 240.194558 
L 325.681967 228.566751 
L 322.937705 236.197499 
L 320.193443 235.931029 
L 317.44918 233.799264 
L 314.704918 222.429852 
L 311.960656 221.922289 
z
" style="fill:#ff7f0e;"/>
    <path clip-path="url(#pc86e01cbb7)" d="M 341.065382 220.023529 
L 342.147541 220.023529 
L 344.891803 220.023529 
L 347.636066 220.023529 
L 350.380328 220.023529 
L 353.12459 220.023529 
L 353.615442 220.023529 
L 353.12459 225.659799 
L 350.380328 221.541617 
L 347.636066 237.529852 
L 344.891803 223.511182 
L 342.147541 222.752847 
z
" style="fill:#ff7f0e;"/>
    <path clip-path="url(#pc86e01cbb7)" d="M 362.49456 220.023529 
L 364.101639 220.023529 
L 366.845902 220.023529 
L 369.590164 220.023529 
L 372.334426 220.023529 
L 375.078689 220.023529 
L 377.822951 220.023529 
L 380.567213 220.023529 
L 383.311475 220.023529 
L 386.055738 220.023529 
L 386.055738 220.023529 
L 386.055738 233.088676 
L 383.311475 236.828614 
L 380.567213 232.20044 
L 377.822951 240.194558 
L 375.078689 240.194558 
L 372.334426 240.194558 
L 369.590164 240.194558 
L 366.845902 240.194558 
L 364.101639 231.058424 
z
" style="fill:#ff7f0e;"/>
   </g>
   <g id="matplotlib.axis_5">
    <g id="xtick_15">
     <g id="line2d_6">
      <defs>
       <path d="M 0 0 
L 0 3.5 
" id="m67884e2825" style="stroke:#000000;stroke-width:0.8;"/>
      </defs>
      <g>
       <use style="stroke:#000000;stroke-width:0.8;" x="54" xlink:href="#m67884e2825" y="252"/>
      </g>
     </g>
     <g id="text_6">
      <text style="font-family:DejaVu Sans;font-size:10px;font-style:normal;font-weight:normal;text-anchor:middle;" transform="rotate(-0, 54, 266.598437)" x="54" y="266.598437">0</text>
     </g>
    </g>
    <g id="xtick_16">
     <g id="line2d_7">
      <g>
       <use style="stroke:#000000;stroke-width:0.8;" x="108.885246" xlink:href="#m67884e2825" y="252"/>
      </g>
     </g>
     <g id="text_7">
      <text style="font-family:DejaVu Sans;font-size:10px;font-style:normal;font-weight:normal;text-anchor:middle;" transform="rotate(-0, 108.885246, 266.598437)" x="108.885246" y="266.598437">20</text>
     </g>
    </g>
    <g id="xtick_17">
     <g id="line2d_8">
      <g>
       <use style="stroke:#000000;stroke-width:0.8;" x="163.770492" xlink:href="#m67884e2825" y="252"/>
      </g>
     </g>
     <g id="text_8">
      <text style="font-family:DejaVu Sans;font-size:10px;font-style:normal;font-weight:normal;text-anchor:middle;" transform="rotate(-0, 163.770492, 266.598437)" x="163.770492" y="266.598437">40</text>
     </g>
    </g>
    <g id="xtick_18">
     <g id="line2d_9">
      <g>
       <use style="stroke:#000000;stroke-width:0.8;" x="218.655738" xlink:href="#m67884e2825" y="252"/>
      </g>
     </g>
     <g id="text_9">
      <text style="font-family:DejaVu Sans;font-size:10px;font-style:normal;font-weight:normal;text-anchor:middle;" transform="rotate(-0, 218.655738, 266.598437)" x="218.655738" y="266.598437">60</text>
     </g>
    </g>
    <g id="xtick_19">
     <g id="line2d_10">
      <g>
       <use style="stroke:#000000;stroke-width:0.8;" x="273.540984" xlink:href="#m67884e2825" y="252"/>
      </g>
     </g>
     <g id="text_10">
      <text style="font-family:DejaVu Sans;font-size:10px;font-style:normal;font-weight:normal;text-anchor:middle;" transform="rotate(-0, 273.540984, 266.598437)" x="273.540984" y="266.598437">80</text>
     </g>
    </g>
    <g id="xtick_20">
     <g id="line2d_11">
      <g>
       <use style="stroke:#000000;stroke-width:0.8;" x="328.42623" xlink:href="#m67884e2825" y="252"/>
      </g>
     </g>
     <g id="text_11">
      <text style="font-family:DejaVu Sans;font-size:10px;font-style:normal;font-weight:normal;text-anchor:middle;" transform="rotate(-0, 328.42623, 266.598437)" x="328.42623" y="266.598437">100</text>
     </g>
    </g>
    <g id="xtick_21">
     <g id="line2d_12">
      <g>
       <use style="stroke:#000000;stroke-width:0.8;" x="383.311475" xlink:href="#m67884e2825" y="252"/>
      </g>
     </g>
     <g id="text_12">
      <text style="font-family:DejaVu Sans;font-size:10px;font-style:normal;font-weight:normal;text-anchor:middle;" transform="rotate(-0, 383.311475, 266.598437)" x="383.311475" y="266.598437">120</text>
     </g>
    </g>
    <g id="text_13">
     <text style="font-family:DejaVu Sans;font-size:10px;font-style:normal;font-weight:normal;text-anchor:middle;" transform="rotate(-0, 221.4, 280.276563)" x="221.4" y="280.276563">Chr 11 Genomic Coordinate [Mb]</text>
    </g>
   </g>
   <g id="matplotlib.axis_6">
    <g id="ytick_7">
     <g id="line2d_13">
      <g>
       <use style="stroke:#000000;stroke-width:0.8;" x="54" xlink:href="#mc1de487234" y="252"/>
      </g>
     </g>
     <g id="text_14">
      <text style="font-family:DejaVu Sans;font-size:10px;font-style:normal;font-weight:normal;text-anchor:end;" transform="rotate(-0, 47, 255.799219)" x="47" y="255.799219">−0.5</text>
     </g>
    </g>
    <g id="ytick_8">
     <g id="line2d_14">
      <g>
       <use style="stroke:#000000;stroke-width:0.8;" x="54" xlink:href="#mc1de487234" y="220.023529"/>
      </g>
     </g>
     <g id="text_15">
      <text style="font-family:DejaVu Sans;font-size:10px;font-style:normal;font-weight:normal;text-anchor:end;" transform="rotate(-0, 47, 223.822748)" x="47" y="223.822748">0.0</text>
     </g>
    </g>
    <g id="ytick_9">
     <g id="line2d_15">
      <g>
       <use style="stroke:#000000;stroke-width:0.8;" x="54" xlink:href="#mc1de487234" y="188.047059"/>
      </g>
     </g>
     <g id="text_16">
      <text style="font-family:DejaVu Sans;font-size:10px;font-style:normal;font-weight:normal;text-anchor:end;" transform="rotate(-0, 47, 191.846278)" x="47" y="191.846278">0.5</text>
     </g>
    </g>
    <g id="text_17">
     <text style="font-family:DejaVu Sans;font-size:10px;font-style:normal;font-weight:normal;text-anchor:middle;" transform="rotate(-90, 16.6375, 220.023529)" x="16.6375" y="220.023529">Lamin spatial proximity</text>
    </g>
   </g>
   <g id="line2d_16">
    <path clip-path="url(#pc86e01cbb7)" d="M 62.232787 237.14918 
L 64.977049 232.815372 
L 67.721311 236.43262 
L 70.465574 231.473702 
L 73.209836 240.194558 
L 75.954098 236.996911 
L 78.698361 198.486118 
L 81.442623 202.575181 
L 84.186885 201.266681 
L 86.931148 201.112205 
L 89.67541 197.559264 
L 92.419672 178.610244 
L 95.163934 192.229852 
L 97.908197 211.415734 
L 100.652459 193.683328 
L 103.396721 196.226911 
L 106.140984 220.347093 
L 108.885246 215.169494 
L 111.629508 222.429852 
L 114.37377 210.882793 
L 117.118033 210.677816 
L 119.862295 203.65002 
L 122.606557 192.229852 
L 125.35082 195.427499 
L 128.095082 194.006323 
L 130.839344 189.032205 
L 133.583607 208.218087 
L 136.327869 216.212205 
L 139.072131 209.740776 
L 141.816393 204.380911 
L 144.560656 216.632948 
L 147.304918 224.206323 
L 150.04918 226.490356 
L 152.793443 199.803227 
L 155.537705 194.513886 
L 158.281967 203.169171 
L 161.02623 190.453382 
L 163.770492 192.822009 
L 166.514754 199.081953 
L 169.259016 194.513886 
L 172.003279 225.146807 
L 174.747541 223.14044 
L 177.491803 227.40397 
L 180.236066 233.799264 
L 182.980328 218.876911 
L 185.72459 211.771029 
L 188.468852 224.206323 
L 191.213115 225.436187 
L 193.957377 233.462669 
L 196.701639 228.203382 
L 199.445902 230.355644 
L 202.190164 227.40397 
L 204.934426 225.982793 
L 207.678689 233.462669 
L 210.422951 229.535734 
L 213.167213 232.20044 
L 215.911475 236.197499 
L 218.655738 240.194558 
L 221.4 224.206323 
L 224.144262 222.752847 
L 226.888525 235.78401 
L 229.632787 221.384869 
L 232.377049 230.096725 
L 235.121311 236.641617 
L 237.865574 236.43262 
L 240.609836 229.072307 
L 243.354098 237.14918 
L 246.098361 232.20044 
L 248.842623 224.967667 
L 251.586885 235.078323 
L 254.331148 219.998892 
L 257.07541 227.895915 
L 259.819672 224.967667 
L 262.563934 224.206323 
L 265.308197 218.876911 
L 268.052459 231.058424 
L 270.796721 240.194558 
L 273.540984 234.380654 
L 276.285246 226.490356 
L 279.029508 214.031991 
L 281.77377 223.14044 
L 284.518033 227.40397 
L 287.262295 220.51673 
L 290.006557 208.218087 
L 292.75082 224.845852 
L 295.495082 230.355644 
L 298.239344 205.311136 
L 300.983607 200.22397 
L 303.727869 199.803227 
L 306.472131 193.295734 
L 309.216393 192.924993 
L 311.960656 221.922289 
L 314.704918 222.429852 
L 317.44918 233.799264 
L 320.193443 235.931029 
L 322.937705 236.197499 
L 325.681967 228.566751 
L 328.42623 240.194558 
L 331.170492 237.287606 
L 333.914754 236.641617 
L 336.659016 221.922289 
L 339.403279 215.831533 
L 342.147541 222.752847 
L 344.891803 223.511182 
L 347.636066 237.529852 
L 350.380328 221.541617 
L 353.12459 225.659799 
L 355.868852 194.14844 
L 358.613115 197.559264 
L 361.357377 212.215146 
L 364.101639 231.058424 
L 366.845902 240.194558 
L 369.590164 240.194558 
L 372.334426 240.194558 
L 375.078689 240.194558 
L 377.822951 240.194558 
L 380.567213 232.20044 
L 383.311475 236.828614 
L 386.055738 233.088676 
" style="fill:none;stroke:#000000;stroke-linecap:square;stroke-opacity:0.5;"/>
   </g>
   <g id="line2d_17">
    <path clip-path="url(#pc86e01cbb7)" d="M 54 220.023529 
L 56.744262 220.023529 
L 59.488525 220.023529 
L 62.232787 220.023529 
L 64.977049 220.023529 
L 67.721311 220.023529 
L 70.465574 220.023529 
L 73.209836 220.023529 
L 75.954098 220.023529 
L 78.698361 220.023529 
L 81.442623 220.023529 
L 84.186885 220.023529 
L 86.931148 220.023529 
L 89.67541 220.023529 
L 92.419672 220.023529 
L 95.163934 220.023529 
L 97.908197 220.023529 
L 100.652459 220.023529 
L 103.396721 220.023529 
L 106.140984 220.023529 
L 108.885246 220.023529 
L 111.629508 220.023529 
L 114.37377 220.023529 
L 117.118033 220.023529 
L 119.862295 220.023529 
L 122.606557 220.023529 
L 125.35082 220.023529 
L 128.095082 220.023529 
L 130.839344 220.023529 
L 133.583607 220.023529 
L 136.327869 220.023529 
L 139.072131 220.023529 
L 141.816393 220.023529 
L 144.560656 220.023529 
L 147.304918 220.023529 
L 150.04918 220.023529 
L 152.793443 220.023529 
L 155.537705 220.023529 
L 158.281967 220.023529 
L 161.02623 220.023529 
L 163.770492 220.023529 
L 166.514754 220.023529 
L 169.259016 220.023529 
L 172.003279 220.023529 
L 174.747541 220.023529 
L 177.491803 220.023529 
L 180.236066 220.023529 
L 182.980328 220.023529 
L 185.72459 220.023529 
L 188.468852 220.023529 
L 191.213115 220.023529 
L 193.957377 220.023529 
L 196.701639 220.023529 
L 199.445902 220.023529 
L 202.190164 220.023529 
L 204.934426 220.023529 
L 207.678689 220.023529 
L 210.422951 220.023529 
L 213.167213 220.023529 
L 215.911475 220.023529 
L 218.655738 220.023529 
L 221.4 220.023529 
L 224.144262 220.023529 
L 226.888525 220.023529 
L 229.632787 220.023529 
L 232.377049 220.023529 
L 235.121311 220.023529 
L 237.865574 220.023529 
L 240.609836 220.023529 
L 243.354098 220.023529 
L 246.098361 220.023529 
L 248.842623 220.023529 
L 251.586885 220.023529 
L 254.331148 220.023529 
L 257.07541 220.023529 
L 259.819672 220.023529 
L 262.563934 220.023529 
L 265.308197 220.023529 
L 268.052459 220.023529 
L 270.796721 220.023529 
L 273.540984 220.023529 
L 276.285246 220.023529 
L 279.029508 220.023529 
L 281.77377 220.023529 
L 284.518033 220.023529 
L 287.262295 220.023529 
L 290.006557 220.023529 
L 292.75082 220.023529 
L 295.495082 220.023529 
L 298.239344 220.023529 
L 300.983607 220.023529 
L 303.727869 220.023529 
L 306.472131 220.023529 
L 309.216393 220.023529 
L 311.960656 220.023529 
L 314.704918 220.023529 
L 317.44918 220.023529 
L 320.193443 220.023529 
L 322.937705 220.023529 
L 325.681967 220.023529 
L 328.42623 220.023529 
L 331.170492 220.023529 
L 333.914754 220.023529 
L 336.659016 220.023529 
L 339.403279 220.023529 
L 342.147541 220.023529 
L 344.891803 220.023529 
L 347.636066 220.023529 
L 350.380328 220.023529 
L 353.12459 220.023529 
L 355.868852 220.023529 
L 358.613115 220.023529 
L 361.357377 220.023529 
L 364.101639 220.023529 
L 366.845902 220.023529 
L 369.590164 220.023529 
L 372.334426 220.023529 
L 375.078689 220.023529 
L 377.822951 220.023529 
L 380.567213 220.023529 
L 383.311475 220.023529 
L 386.055738 220.023529 
L 388.8 220.023529 
" style="fill:none;stroke:#000000;stroke-linecap:square;"/>
   </g>
   <g id="patch_13">
    <path d="M 54 252 
L 54 188.047059 
" style="fill:none;stroke:#000000;stroke-linecap:square;stroke-linejoin:miter;stroke-width:0.8;"/>
   </g>
   <g id="patch_14">
    <path d="M 54 252 
L 388.8 252 
" style="fill:none;stroke:#000000;stroke-linecap:square;stroke-linejoin:miter;stroke-width:0.8;"/>
   </g>
  </g>
 </g>
 <defs>
  <clipPath id="pb8d5fca720">
   <rect height="63.952941" width="334.8" x="54" y="34.56"/>
  </clipPath>
  <clipPath id="p33f0555555">
   <rect height="63.952941" width="334.8" x="54" y="111.303529"/>
  </clipPath>
  <clipPath id="pc86e01cbb7">
   <rect height="63.952941" width="334.8" x="54" y="188.047059"/>
  </clipPath>
 </defs>
</svg>
